<svg xmlns="http://www.w3.org/2000/svg" viewBox="0 0 512 512"><path d="M78.895 367.853c0 13.338 10.791 24.168 24.134 24.168h263.575c13.342 0 24.166-10.83 24.166-24.168V338.68H78.895v29.173zm294.478-247.946H96.62v86.104c0 56.083 24.395 90.423 63.571 107.771h151.605c29.562-13.442 50.034-37.037 57.782-73.044 1.244.065 2.521.116 3.795.116 33.422 0 60.467-27.093 60.467-60.483s-27.045-60.464-60.467-60.464zm0 95.993c-.198 0-.393-.015-.588-.015.163-3.239.262-6.491.262-9.875v-61.155c.128 0 .229-.019.326-.019 19.588 0 35.514 15.942 35.514 35.533 0 19.624-15.926 35.531-35.514 35.531z"/></svg>