<svg xmlns="http://www.w3.org/2000/svg" viewBox="0 0 512 512"><path d="M382.256 70.832H129.031L57.2 171.553l198.436 269.51 198.434-269.51-71.814-100.721zm-158.555 85.252l31.967-42.512 31.967 42.512h-63.934zm69.77 30.642l-37.803 157.248-37.803-157.248h75.606zm-8.535-85.253h60.662l-30.33 40.337-30.332-40.337zm-88.848 40.337l-30.349-40.305h60.662l-30.313 40.305zm-27.635 14.274h-62.575l30.463-42.708 32.112 42.708zm17.904 30.642L225.09 347.86 106.45 186.726h79.907zm138.639 0h79.824L286.292 347.734l38.704-161.008zm17.886-30.642l32.099-42.677 30.43 42.677h-62.529z"/></svg>