<?xml version="1.0" encoding="utf-8"?>
<!-- Generator: Adobe Illustrator 16.2.1, SVG Export Plug-In . SVG Version: 6.00 Build 0)  -->
<!DOCTYPE svg PUBLIC "-//W3C//DTD SVG 1.1//EN" "http://www.w3.org/Graphics/SVG/1.1/DTD/svg11.dtd">
<svg version="1.1" id="Layer_1" xmlns="http://www.w3.org/2000/svg" xmlns:xlink="http://www.w3.org/1999/xlink" x="0px" y="0px"
	 width="32px" height="32px" viewBox="0 0 32 32" enable-background="new 0 0 32 32" xml:space="preserve">
<g>
	<path fill="#B7B7B7" d="M28.191,4.536H3.809c-0.67,0-1.214,0.543-1.214,1.214v20.5c0,0.67,0.543,1.214,1.214,1.214h24.382
		c0.67,0,1.215-0.543,1.215-1.214V5.75C29.404,5.08,28.861,4.536,28.191,4.536z M26.979,25.036H5.022V6.964h21.955v18.072H26.979z"
		/>
	<path fill="#B7B7B7" d="M7.639,22.881h16.722c0.383,0,0.718-0.256,0.815-0.625c0.103-0.369-0.059-0.759-0.389-0.951l-6.97-4.086
		c-0.312-0.183-0.703-0.148-0.979,0.09l-1.704,1.469l-3.296-2.833c-0.184-0.158-0.426-0.226-0.666-0.197
		c-0.24,0.033-0.454,0.167-0.589,0.368l-3.65,5.446c-0.174,0.262-0.191,0.596-0.043,0.871C7.039,22.708,7.326,22.881,7.639,22.881z"
		/>
	<circle fill="#B7B7B7" cx="22.578" cy="12.391" r="2.566"/>
</g>
</svg>
