<?xml version="1.0" encoding="utf-8"?>
<!-- Generator: Adobe Illustrator 16.2.1, SVG Export Plug-In . SVG Version: 6.00 Build 0)  -->
<!DOCTYPE svg PUBLIC "-//W3C//DTD SVG 1.1//EN" "http://www.w3.org/Graphics/SVG/1.1/DTD/svg11.dtd">
<svg version="1.1" id="Layer_1" xmlns="http://www.w3.org/2000/svg" xmlns:xlink="http://www.w3.org/1999/xlink" x="0px" y="0px"
	 width="32px" height="32px" viewBox="0 0 32 32" enable-background="new 0 0 32 32" xml:space="preserve">
<g>
	<path fill="#B7B7B7" d="M25.654,9.275l-5.831-5.832c-0.47-0.469-1.104-0.732-1.769-0.732H8.113c-1.381,0-2.5,1.119-2.5,2.5v21.578
		c0,1.381,1.119,2.5,2.5,2.5h15.774c1.381,0,2.5-1.119,2.5-2.5V11.043C26.387,10.38,26.124,9.744,25.654,9.275z M8.113,26.789V5.211
		h9.444l0.004,0.012c0.004,0.019,0.539,1.955-0.384,5.504c-0.049,0.187,0.015,0.385,0.159,0.51c0.146,0.126,0.352,0.157,0.527,0.081
		c3.908-1.674,5.92,0.21,6.021,0.311V26.79L8.113,26.789L8.113,26.789z"/>
</g>
</svg>
