<svg xmlns="http://www.w3.org/2000/svg" viewBox="0 0 512 512"><path d="M255.79 306.092c-16.19.034-29.288 13.129-29.337 29.316.049 16.17 13.146 29.266 29.337 29.304 16.151-.038 29.247-13.134 29.298-29.304-.051-16.187-13.147-29.282-29.298-29.316zm107.717-60.303V149.63c0-30.757-11.677-58.963-30.97-79.579-19.211-20.62-46.582-33.863-76.747-33.832-30.188-.031-57.575 13.212-76.787 33.832-19.294 20.616-30.968 48.822-30.968 79.579v96.159c-20.227 24.296-32.39 55.529-32.39 89.619 0 77.387 62.721 140.125 140.145 140.125 77.368 0 140.106-62.738 140.106-140.125 0-34.09-12.164-65.323-32.389-89.619zM187.555 347.871h-31.688v-24.938h31.688v24.938zm80.674 87.443h-24.933v-31.707h24.933v31.707zm-12.439-49.968c-27.604-.017-49.938-22.371-49.938-49.938 0-27.599 22.334-49.934 49.938-49.934 27.564 0 49.9 22.335 49.9 49.934 0 27.567-22.336 49.921-49.9 49.938zm-12.494-118.155v-31.702h24.933v31.702h-24.933zm69.066-59.986a139.553 139.553 0 0 0-56.572-11.957 139.467 139.467 0 0 0-56.595 11.957V149.63c0-17.738 6.704-33.47 17.153-44.635 10.528-11.186 24.233-17.613 39.441-17.628 15.17.015 28.874 6.442 39.401 17.628 10.448 11.165 17.171 26.897 17.171 44.635v57.575zm43.315 140.666h-31.706v-24.938h31.706v24.938z"/></svg>