<svg xmlns="http://www.w3.org/2000/svg" viewBox="0 0 512 512"><path d="M378.594 108.588h-51.951v52.247h12.021c-.586 19.484-2.632 33.068-6.7 43.055-4.973 12.141-12.647 20.826-28.882 31.934-11.669 7.908-22.107 16.011-30.842 25.602V92.1h18.431l-32.198-55.291L226.278 92.1H244.7v225.768c-8.656-9.415-18.973-17.395-30.481-25.187-16.23-11.107-23.908-19.794-28.882-31.934-4.532-11.117-6.543-26.706-6.831-49.912 10.486-5.126 17.726-15.868 17.726-28.325 0-17.42-14.119-31.541-31.542-31.541-17.417 0-31.542 14.121-31.542 31.541 0 12.494 7.285 23.263 17.823 28.368.313 24.652 2.197 43.483 8.81 60.126 7.242 18.289 20.47 32.06 38.997 44.481 16.771 11.354 27.846 21.156 35.008 33.614 4.676 8.122 8.046 17.935 9.838 31.074-20.537 5.646-35.647 24.395-35.647 46.722 0 26.792 21.719 48.502 48.507 48.502 26.777 0 48.496-21.71 48.496-48.502 0-21.261-13.703-39.279-32.738-45.827v-36.443c.299-24.722 4.374-40.381 11.277-52.387 7.169-12.445 18.232-22.251 35.012-33.609 18.519-12.419 31.749-26.188 38.995-44.479 5.988-15.08 8.095-31.947 8.677-53.315h12.393v-52.247z"/></svg>