<svg xmlns="http://www.w3.org/2000/svg" viewBox="0 0 512 512"><path d="M408.991 400.004c-17.772 0-32.183 14.405-32.183 32.18 0 17.777 14.41 32.187 32.183 32.187 17.774 0 32.185-14.409 32.185-32.187 0-17.775-14.41-32.18-32.185-32.18zm-253.141 0c-17.774 0-32.18 14.405-32.18 32.18 0 17.777 14.406 32.187 32.18 32.187 17.776 0 32.186-14.409 32.186-32.187 0-17.775-14.41-32.18-32.186-32.18zm230.866-128.459l73.421-73.417V97.693h-315.22l-18.358-50.098H73.497c-13.136 0-23.789 10.647-23.789 23.79 0 13.133 10.653 23.784 23.789 23.784h19.826l64.049 174.794-34.105 105.721h309.034c13.133 0 23.781-10.649 23.781-23.784 0-13.143-10.648-23.791-23.781-23.791H188.604l18.247-56.562h179.865z"/></svg>