<svg xmlns="http://www.w3.org/2000/svg" viewBox="0 0 512 512"><path d="M174.359 291.527l-62.919-146.83-63.065 146.83c0 34.828 28.206 62.983 62.999 62.983 34.794.001 62.985-28.155 62.985-62.983zm-98.712 0l35.792-83.521 35.792 83.521H75.647zm325.858-146.83l-63.083 146.83c0 34.828 28.188 62.983 62.982 62.983 34.797 0 63.001-28.155 63.001-62.983l-62.9-146.83zm-35.808 146.83l35.808-83.521 35.774 83.521h-71.582zm-86.235 99.416V141.949h156.183V111.31H279.462v-.758c9.481-7.52 15.581-19.127 15.581-32.176 0-22.73-18.428-41.107-41.155-41.107-22.71 0-41.139 18.377-41.139 41.107 0 13.049 6.116 24.656 15.566 32.176v.758H77.103v30.639h151.212v248.994c0 28.545-23.151 51.732-51.768 51.732h-53.074v30.67h260.845v-30.67h-53.09c-28.582.001-51.766-23.187-51.766-51.732z"/></svg>