<svg xmlns="http://www.w3.org/2000/svg" viewBox="0 0 512 512"><path d="M443.736 159.461c-9.843-9.546-17.88-23.381-17.88-30.709 0-7.324-11.199-13.338-24.917-13.338H110.056c-13.7 0-24.934 6.014-24.934 13.338 0 7.328-8.028 21.163-17.871 30.709 0 0-36.151 35.221-36.151 96.406 0 61.252 36.151 96.439 36.151 96.439 9.843 9.545 17.871 23.377 17.871 30.739 0 7.288 11.233 13.276 24.934 13.276H400.94c13.718 0 24.917-5.988 24.917-13.276 0-7.362 8.037-21.194 17.88-30.739 0 0 36.168-35.188 36.168-96.439-.001-61.185-36.169-96.406-36.169-96.406zM297.6 233.598l-6.786 15.695h-48.968l-.23 9.189H288.2l-6.786 15.765h-38.047c4.675 23.087 15.45 34.597 32.356 34.597 10.956 0 22.188-4.611 33.699-13.803l-.213 33.031c-9.793 5.661-21.01 8.531-33.699 8.531-18.359 0-33.176-5.883-44.407-17.721-10.203-10.656-16.841-25.539-19.899-44.636h-16.842l6.786-15.765h8.731v-5.656c0-2.061.099-3.238.228-3.533h-15.958l6.787-15.695h11.133c3.5-17.658 10.729-31.559 21.666-41.797 11.512-11.082 25.967-16.609 43.297-16.609 12.28 0 25.541 3.632 39.814 10.958l-13.325 27.302c-10.204-6.537-19.784-9.84-28.663-9.84-15.305 0-25.507 9.973-30.609 29.986H297.6z"/></svg>