<svg xmlns="http://www.w3.org/2000/svg" viewBox="0 0 512 512"><path d="M255.998 49.497c-117.223.014-212.225 93.63-212.236 209.151v73.13h33.453v-73.13c.012-48.708 19.986-92.648 52.367-124.58 32.404-31.911 76.992-51.598 126.416-51.604 49.428.005 94.018 19.692 126.42 51.604 32.379 31.931 52.355 75.872 52.365 124.58v73.13h33.453v-73.13c-.009-115.521-95.013-209.137-212.238-209.151zM388.91 225.988h-43.994c-6.758 0-12.234 5.399-12.234 12.054v132.64c0 6.661 5.477 12.06 12.234 12.06h43.994c6.756 0 12.232-5.399 12.232-12.06v-132.64c.001-6.655-5.476-12.054-12.232-12.054zM167.088 382.746c6.756 0 12.232-5.399 12.232-12.059v-132.64c0-6.655-5.477-12.054-12.232-12.054h-43.994c-6.758 0-12.234 5.398-12.234 12.054v132.639c0 6.66 5.477 12.059 12.234 12.059h43.994zm105.91 10.994h-39.012c-8.496 0-15.383 6.789-15.383 15.161v20.636H77.217v-39.025H43.762v71.992h229.236c8.494 0 15.381-6.788 15.381-15.16v-38.442c0-8.373-6.887-15.162-15.381-15.162z"/></svg>