<svg xmlns="http://www.w3.org/2000/svg" viewBox="0 0 512 512"><path d="M388.177 244.9c-2.354-28.221-13.505-53.924-30.772-74.33l-28.286 28.285-15.663-15.631 28.286-28.27c-20.371-17.264-46.076-28.45-74.299-30.789v39.994h-22.105v-39.994c-28.221 2.339-53.926 13.525-74.329 30.789l28.284 28.29-15.631 15.611-28.284-28.285c-17.268 20.406-28.42 46.109-30.775 74.33h40.029v22.108h-40.029c2.355 28.222 13.507 53.894 30.775 74.314l28.284-28.285 15.631 15.633-28.284 28.269c20.403 17.278 46.108 28.45 74.329 30.789v-39.993h22.105v39.993a131.413 131.413 0 0 0 74.299-30.789l-28.286-28.269 15.631-15.633 28.318 28.285c17.268-20.421 28.419-46.093 30.772-74.331h-39.993V244.9h39.993zm-131.785 52.256c-22.762 0-41.206-18.439-41.206-41.203 0-22.761 18.444-41.202 41.206-41.202 22.758 0 41.202 18.441 41.202 41.202 0 22.764-18.445 41.203-41.202 41.203zm0-258.063c-119.788 0-216.846 97.093-216.846 216.86 0 119.754 97.059 216.845 216.846 216.845 119.751 0 216.844-97.091 216.844-216.845-.001-119.766-97.093-216.86-216.844-216.86zm0 403.067c-102.686 0-186.206-83.536-186.206-186.207 0-89.798 63.867-164.949 148.597-182.392l37.609 47.678 37.606-47.678c84.695 17.443 148.596 92.594 148.596 182.392 0 102.671-83.555 186.207-186.202 186.207z"/></svg>