<svg xmlns="http://www.w3.org/2000/svg" viewBox="0 0 512 512"><path d="M178.432 161.715a817.81 817.81 0 0 1 9.405-.53 795.75 795.75 0 0 1 9.498-.435c.949-.04 1.895-.098 2.84-.159 2.191-.135 4.479-.275 6.834-.191.574.02 1.154.027 1.734.027l3.757-.027h.008c.932 0 1.85.013 2.766.056 2.615.121 5.396.398 8.752.874 4.492.636 8.928 1.472 13.219 2.282 1.551.292 2.982.564 4.416.824l1.219.226c3.82.709 7.766 1.441 11.383 1.441l.693-.008c4.002-.105 8.352-.929 12.559-1.728l4.178-.788c4.953-.935 10.031-1.894 15.18-2.532 5.1-.634 9.945-.686 15.303-.686l1.932.001c2.023 0 3.947.134 5.802.264 1.056.073 2.1.148 3.146.192 2.754.113 5.514.243 8.271.387 2.816.144 5.633.3 8.441.476.543-10.772 2.342-26.122 2.442-30.262.324-14.369-.021-15.532-3.5-29.527 0 0-4.223-12.683-10.842-16.501l-13.195-2.271-8.152-7.557c-32.857-20.215-68.08-6.035-86.947 1.61-25.94 8.42-42.758 33.062-33.818 84.708l2.676-.166zm282.559 222.227c-6.834-19.818-29.468-22.661-48.374-30.635-20.761-8.756-43.783-18.92-64.498-27.416-5.912-1.61-11.826-3.223-17.737-4.837-7.058-4.857-13.967-20.997-17.74-29.021-3.762-.537-7.52-1.076-11.291-1.609.584-12.418 8.27-13.084 11.291-22.573 2.658-8.367.277-19.241 4.494-26.987 2.927-5.38 9.546-5.416 12.854-10.027 3.002-4.186 4.976-11.484 5.91-16.608 1.692-9.293 3.164-21.98-1.158-31.252h-4.529c-.244.402-.68 1.444-1.377 4.118l-.256.964c-1.543 11.029-6.34 20.264-13.512 26.014-6.084 4.872-13.924 7.447-22.67 7.447-1.912 0-3.851-.128-5.761-.383-6.237-.827-12.092-3.042-16.934-6.407-2.272-1.58-4.472-3.197-6.459-5.595-1.619-1.953-3.018-4.182-4.398-7.009-.816-1.668-1.504-3.354-2.114-4.841l-2.171-5.544a15.472 15.472 0 0 0-.416-.993c-.07.183-.145.409-.211.688l-2.577 7.612c-1.64 3.955-3.567 7.966-6.944 11.481-4.112 4.288-9.559 7.51-15.752 9.32a42.488 42.488 0 0 1-11.932 1.703c-6.848 0-13.316-1.658-18.709-4.792-7.98-4.642-13.62-12.627-16.299-23.094-.375-1.458-.783-2.908-1.19-4.362l-.992-3.617c-.41-1.545-.758-2.863-1.274-3.613l-.016-.022-3.521-.033c-1.324 2.434-2.574 4.54-2.367 6.823 1.054 11.59 1.277 39.454 12.229 46.317 1.018.637 8.787 2.585 8.738 2.053 1.076 11.285 2.15 22.58 3.22 33.863 2.734 7.501 9.297 8.325 11.204 18.92l-8.395 2.04c-3.774 8.024-10.684 24.164-17.741 29.021a25694.65 25694.65 0 0 1-17.738 4.837c-20.711 8.496-43.736 18.66-64.497 27.416-18.906 7.974-41.539 10.817-48.375 30.635 0 13.458-1.268 45.249-.92 62.883h411.822c.35-17.636-.917-49.427-.917-62.885zm-267.68-192.015c3.068 10.883 10.52 17.841 23.498 17.841 12.982 0 23.502-7.987 23.502-17.841 0-9.852 3.17-17.089-23.502-18.992-12.18-.868-30.297-5.105-23.498 18.992zm98.85-18.991c-26.672 1.903-23.502 9.14-23.502 18.992 0 9.854 10.523 17.841 23.502 17.841 12.977 0 20.432-6.958 23.5-17.841 6.798-24.098-11.323-19.861-23.5-18.992z"/></svg>