<svg xmlns="http://www.w3.org/2000/svg" viewBox="0 0 512 512"><path d="M64.747 164.338l50.079 50.078-50.079 50.08zm73.929 49.973l-73.929 73.93v163.072h389.679V214.311h-315.75zM372.615 373.82H156.151v-25.039h216.464v25.039zm.002-57.522H156.156v-25.034h216.461v25.034zm76.096-172.936l-15.129-82.466h-.002L56.346 130.111l72.025 72.025 320.342-58.774zM407.25 81.001l21.574 37.223 2.398 13.07-46.038 8.449-28.657-49.435 50.723-9.307zm-103.652 19.02l28.655 49.435-50.724 9.306-28.656-49.433 50.725-9.308zm-103.653 19.015l28.656 49.437-50.723 9.304-28.655-49.433 50.722-9.308z"/></svg>