<svg xmlns="http://www.w3.org/2000/svg" viewBox="0 0 512 512"><path d="M115.348 379.3l12.361-12.329 46.73 46.698 23.742-23.743-46.73-46.733 12.327-12.324 46.731 46.732 23.743-23.776-46.7-46.73 12.328-12.328 46.733 46.728 23.774-23.77-46.732-46.734 12.329-12.314 46.729 46.716 23.743-23.76-46.732-46.709 12.362-12.316 46.731 46.7 23.74-23.759-46.73-46.726 12.329-12.33 46.73 46.696 23.739-23.743-46.73-46.715 12.363-12.325 46.73 46.717 23.742-23.76-46.701-46.718 12.33-12.326 46.732 46.728 20.665-20.698-67.002-67.005c-9.452-9.422-24.757-9.422-34.175 0L119.664 300.243l-45.947 45.928c-9.448 9.448-9.448 24.722 0 34.175l67.042 67.006 21.32-21.34-46.731-46.712z"/></svg>