<svg xmlns="http://www.w3.org/2000/svg" viewBox="0 0 512 512"><path d="M236.493 295.837c-3.531-3.76-5.233-8.83-5.103-15.305h-23.97c1.144 13.378 5.263 23.511 12.396 30.416 7.162 6.935 17.036 10.825 29.758 11.738v14.455h10.007v-14.455c8.503-.555 15.466-2.293 20.927-5.102 5.396-2.847 9.747-6.081 12.982-9.712 3.24-3.599 5.464-7.295 6.707-11.121 1.238-3.796 1.863-6.931 1.863-9.416 0-2.81-.197-6.052-.588-9.683-.393-3.657-1.67-7.258-3.826-10.888-2.127-3.629-5.496-7.098-10.007-10.431-4.548-3.371-10.989-6.185-19.392-8.407-1.604-.486-3.108-.85-4.482-1.21-1.439-.358-2.812-.653-4.185-1.011v-30.088c3.859 0 7.13 1.573 9.843 4.775 2.748 3.172 4.151 7 4.284 11.545h24.101c-.327-5.887-1.568-10.987-3.729-15.27-2.158-4.354-4.938-7.916-8.306-10.828-3.433-2.877-7.358-5.133-11.839-6.801-4.479-1.636-9.254-2.714-14.354-3.303V182.69h-10.007v13.045c-5.101.324-10.041 1.307-14.815 3.006-4.742 1.605-8.927 3.924-12.589 6.936-3.598 3.01-6.51 6.702-8.698 11.117-2.226 4.414-3.335 9.546-3.335 15.305 0 5.66.98 10.398 2.911 14.196 1.895 3.79 4.477 6.965 7.717 9.516 3.204 2.549 6.868 4.61 10.956 6.077a123.877 123.877 0 0 0 12.391 4.053c1.146.234 2.193.462 3.175.76.948.258 1.701.522 2.288.748v35.516c-5.233-1.014-9.616-3.367-13.081-7.128zm23.088-25.507c6.672 1.834 11.415 3.863 14.191 6.053 2.779 2.191 4.153 5.523 4.153 9.938 0 2.714-.555 5.07-1.701 7.031-1.144 1.995-2.55 3.664-4.314 5.006-1.768 1.373-3.762 2.418-5.953 3.175-2.191.716-4.351 1.208-6.376 1.435V270.33zm-21.748-31.951c-2.353-2.027-3.563-4.904-3.563-8.667 0-2.356.424-4.414 1.275-6.179.852-1.762 1.992-3.236 3.467-4.443a14.905 14.905 0 0 1 4.973-2.622c1.795-.586 3.662-.849 5.59-.849v27.699c-5.464-1.242-9.354-2.879-11.742-4.939zm186.073 112.889V160.812H306.443c19.716 21.971 32.471 56.443 32.471 95.229 0 38.783-12.755 73.252-32.471 95.227h117.463zM38.354 110.779v289.508H473.19V110.779H38.354zm410.47 265.407H62.715V135.863h386.109v240.323zM172.627 256.041c0-38.785 12.719-73.258 32.473-95.229H87.635v190.455H205.1c-19.754-21.974-32.473-56.443-32.473-95.226z"/></svg>