<svg xmlns="http://www.w3.org/2000/svg" viewBox="0 0 512 512"><path d="M280.146 276.758c-3.596-2.846-9.68-5.444-18.279-7.77v41.992c2.615-.299 5.365-.917 8.209-1.865a25.537 25.537 0 0 0 7.65-4.024 21.367 21.367 0 0 0 5.559-6.477c1.506-2.534 2.192-5.556 2.192-9.056.001-5.689-1.766-9.975-5.331-12.8zm163.739-117.647c-9.842-9.547-17.855-23.362-17.855-30.688 0-7.339-11.249-13.361-24.952-13.361H110.195c-13.701 0-24.916 6.022-24.916 13.361 0 7.326-8.045 21.142-17.889 30.688 0 0-36.139 35.188-36.139 96.421 0 61.252 36.139 96.423 36.139 96.423 9.844 9.547 17.889 23.381 17.889 30.726 0 7.307 11.215 13.306 24.916 13.306h290.882c13.703 0 24.952-5.999 24.952-13.306 0-7.345 8.014-21.179 17.855-30.726 0 0 36.168-35.171 36.168-96.423.001-61.233-36.167-96.421-36.167-96.421zM314.154 302.999c-1.6 4.891-4.477 9.664-8.631 14.323-4.184 4.677-9.744 8.829-16.744 12.461-6.998 3.661-15.955 5.837-26.912 6.569v18.595h-12.92v-18.595c-16.318-1.177-29.07-6.177-38.26-15.07-9.188-8.897-14.486-21.98-15.957-39.181h30.838c-.162 8.309 2.027 14.881 6.541 19.688 4.545 4.807 10.137 7.895 16.838 9.191v-45.72c-.686-.289-1.695-.619-2.939-.977a45.827 45.827 0 0 0-4.061-.98 178.732 178.732 0 0 1-15.92-5.134c-5.299-1.981-9.979-4.595-14.13-7.887-4.187-3.284-7.487-7.354-9.938-12.246-2.523-4.888-3.727-10.97-3.727-18.261 0-7.426 1.4-13.994 4.25-19.688 2.875-5.687 6.604-10.461 11.282-14.308 4.673-3.874 10.038-6.879 16.187-8.976a72.6 72.6 0 0 1 18.996-3.841v-16.841h12.92v16.841c6.572.733 12.722 2.14 18.477 4.268 5.754 2.121 10.824 5.016 15.205 8.762 4.416 3.695 7.98 8.34 10.728 13.884 2.779 5.54 4.382 12.082 4.808 19.686h-31.07c-.127-5.841-1.928-10.792-5.425-14.88-3.532-4.074-7.753-6.13-12.722-6.13v38.72c1.766.438 3.533.881 5.365 1.304 1.83.442 3.756.95 5.785 1.534 10.793 2.933 19.1 6.547 24.953 10.83 5.822 4.297 10.105 8.797 12.881 13.454 2.783 4.664 4.418 9.339 4.907 13.996.558 4.665.784 8.814.784 12.477 0 3.207-.784 7.262-2.389 12.132zm-78.742-99.95c-1.896 1.516-3.402 3.42-4.515 5.674-1.079 2.271-1.601 4.937-1.601 7.977 0 4.821 1.504 8.553 4.575 11.148 3.075 2.653 8.075 4.762 15.075 6.365v-35.661c-2.449 0-4.869.357-7.191 1.112a19.09 19.09 0 0 0-6.343 3.385z"/></svg>