<svg xmlns="http://www.w3.org/2000/svg" viewBox="0 0 512 512"><path d="M374.438 134.578H296.45V35.849h-83.102v98.729H135.36l119.542 144.834 119.536-144.834zM283.64 456.812c-1.452-3.889-2.28-8.094-2.748-11.82h-51.995c-.465 3.729-1.293 7.938-2.747 11.827-3.039 7.893-7.913 14.011-17.521 14.06v4.656h92.537v-4.656c-9.613-.049-14.486-6.17-17.526-14.067zm73.664-169.73H152.492a6.179 6.179 0 0 0-6.18 6.182v134.58a6.182 6.182 0 0 0 6.18 6.184h204.812a6.183 6.183 0 0 0 6.183-6.184v-134.58a6.181 6.181 0 0 0-6.183-6.182zm-23.866 116.901H176.357v-86.855h157.081v86.855z"/></svg>