<svg xmlns="http://www.w3.org/2000/svg" viewBox="0 0 512 512"><path d="M298.174 290.192v43.226c0 35.787-29.01 64.801-64.801 64.801-35.787 0-64.799-29.014-64.799-64.801V178.582c0-35.79 29.012-64.8 64.799-64.8 35.791 0 64.801 29.011 64.801 64.8v12.808h-44.766l69.871 84.656 69.873-84.656H347.9v-12.808c0-63.15-51.377-114.527-114.527-114.527-63.148 0-114.525 51.377-114.525 114.527v154.836c0 63.149 51.377 114.527 114.525 114.527 63.15 0 114.527-51.378 114.527-114.527V290.78l-24.621 29.831-25.105-30.419z"/></svg>