<svg xmlns="http://www.w3.org/2000/svg" viewBox="0 0 512 512"><path d="M437.375 335.82H72.363l-27.084 52.807h419.179l-27.083-52.807zm-228.202 40.133l11.253-21.395h69.995l10.146 21.395h-91.394zm221.94-52.34c0-.334-.066-.65-.1-.975.033-.33.1-.645.1-.973V103.223c0-5.539-4.491-10.028-10.033-10.028H88.653c-5.539 0-10.029 4.489-10.029 10.028v218.443c0 .328.067.643.099.973-.031.324-.099.641-.099.975l-.085.162h352.658l-.084-.163zm-25.04-16.955h-302.41V118.23h302.41v188.428zm64.564 94.019H39.101l-1.046 2.036c0 5.542 4.492 15.041 10.03 15.041H461.65c5.541 0 10.033-9.499 10.033-15.041l-1.046-2.036z"/></svg>