<svg xmlns="http://www.w3.org/2000/svg" viewBox="0 0 512 512"><path d="M384.793 242.506c-24.33 0-41.48-6.568-41.48-6.568l-143.608-82.246-48.171 38.409-90.158-7.669c-25.654 0-26.767 45.707-26.767 45.707v79.222h435.945c0-.001 6.884-66.855-85.761-66.855zM220.06 193.161c-1.422 5.73-7.244 9.237-12.999 7.8-5.738-1.437-9.239-7.26-7.799-13.017 1.423-5.736 7.244-9.236 13-7.792 5.738 1.432 9.236 7.246 7.798 13.009zm40.321 22.567c-1.439 5.755-7.276 9.252-13.014 7.816-5.739-1.447-9.239-7.252-7.783-13.018 1.406-5.729 7.242-9.238 12.998-7.79 5.756 1.431 9.236 7.25 7.799 12.992zm38.719 21.69c-1.439 5.746-7.262 9.246-13.016 7.805-5.738-1.438-9.256-7.252-7.797-12.997 1.437-5.757 7.257-9.247 12.997-7.815 5.757 1.445 9.255 7.25 7.816 13.007zM34.609 327.491v30.644h437.793v-30.644H34.609z"/></svg>