<svg xmlns="http://www.w3.org/2000/svg" viewBox="0 0 512 512"><path d="M365.348 118.669c-24.918-24.931-23.123-45.422-23.123-45.422l-27.695-.062.065 257.229c-14.259-4.984-31.329-5.92-48.694-1.567-38.554 9.646-63.799 41.468-56.411 71.063 7.392 29.595 44.671 45.749 83.263 36.1 33.875-8.503 57.488-34.104 57.684-60.266V189.489s75.215 9.448 68.54 57.537c-6.636 48.091-13.896 64.323-13.896 64.323l10.039 10.055s29.689-55.327 32.079-90.859c4.61-69.004-54.092-84.145-81.851-111.876zm-109.26-53.3H59.848v51.146h196.24V65.369zm0 91.235H59.848v51.147h196.24v-51.147zm0 91.209H59.848v51.157h196.24v-51.157zM59.848 390.196h101.373v-51.148H59.848v51.148z"/></svg>