<svg xmlns="http://www.w3.org/2000/svg" viewBox="0 0 512 512"><path d="M174.229 281.794h1.243l118.312-118.312h-64.293V59.815h-55.263c-61.315 0-110.989 49.675-110.989 110.976.001 61.297 49.675 111.003 110.99 111.003zM413.64 88.691L151.338 351.024l22.923 22.925 49.578-49.611 49.608 49.611 22.923-22.943-49.61-49.573 19.654-19.639h78.061c20.764 0 37.574-16.827 37.574-37.573v-78.092l45.031-44.996h21.222V88.691H413.64zm-84.863 283.457c-22.01 0-39.832 17.854-39.832 39.836 0 22.006 17.822 39.828 39.832 39.828s39.832-17.822 39.832-39.828c0-21.981-17.822-39.836-39.832-39.836zm-211.744 0c-22.008 0-39.83 17.854-39.83 39.836 0 22.006 17.822 39.828 39.83 39.828 22.01 0 39.832-17.822 39.832-39.828 0-21.981-17.822-39.836-39.832-39.836z"/></svg>