<svg xmlns="http://www.w3.org/2000/svg" viewBox="0 0 512 512"><path d="M250.104 219.028c.023-.037.057-.069.08-.105-.09-.429-.163-.807-.196-1.075.04.392.082.785.116 1.18zm83.856 91.564c.004 0 .004-.004.004-.006-.012-.006-.05-.006-.058-.019.012.013.042.013.054.025zm2.147.268c-.52-.083-1.686.069-2.147-.269-.284.983.145 1.354 2.147.269zM254.426 37.775c-120.584 0-218.334 97.75-218.334 218.333s97.75 218.334 218.334 218.334c120.582 0 218.336-97.752 218.336-218.334 0-120.582-97.754-218.333-218.336-218.333zm139.46 85.292c-7.522.226-12.76.241-18.805 4.413-2.435 1.681-4.087 3.912-7.178 4.781-2.771.778-5.763.096-8.512 1.028-9.921 3.366-8.348 24.613-21.42 21.405-6.141-1.507-10.467-8.763-13.558-13.5-2.722-4.168-7.68-7.617-4.33-12.833-1.527.393-3.157-.055-4.66.232 2.095-4.602 9.116-4.197 10.284-6.547 2.91-5.89-8.01-6.505-11.103-7.321 3.727-3.974 5.614 1.335 9.293.434 3.536-.869-1.866-5.526-3.986-6.048-.762-.188-13.212 3.44-6.006-3.009-8.896-5.67-17.788-11.34-26.686-17.014-1.498 6.309 11.84 9.894 16.196 12.119-.676 2.604-4.729 6.399-7.832 5.287-2.922-1.047-1.735-5.89-6.148-5.405-3.151 7.327 6.662 5.186 7.573 9.675 1.037 5.115-3.709 2.949-5.534 2.858-.435-.021-3.836-3.543-4.021-.877-.221 3.165 5.427 1.932 5.824 5.127-6.576.266-9.936-2.109-15.289-5.665-6.248-4.147-9.455-3.773-17.11-3.773 2.29-.94 5.443-1.638 7.401-3.152 1.069-.828 5.266-4.906 5.542-5.818 1.187-3.927-.063-3.631-3.823-6.205-3.341-2.286-7.394-6.39-11.443-7.199-14.671-2.929-4.525 13.247-15.662 15.478.19.009.397.019.562.019h-.638c.027-.003.051-.013.076-.019-2.576-.093-7.403-.72-9.064.64-1.172.958-1.271 4.802-2.58 6.192-2.331 2.484-5.807 2.982-8.588 4.774-2.716 1.749-8.702 6.241-10.297 9.288-5.878 11.229 13.242 14.715 20.49 17.996 3.275 1.484 12.846 3.514 14.629 5.992 2.391 3.329-2.061 6.449 2.932 8.788 1.594.745 4.883.896 6.256-.648 2.231-2.513-.907-3.082-1.441-5.986-1.035-5.593.67-3.371 3.482-5.448 5.732-4.232 4.441-4.49 2.38-11.235-.959-3.14-4.57-11.9-1.394-14.217 4.145-3.025 12.981 1.638 16.159 2.027 3.698.454 5.797 5.577 7.812 7.672 1.339 1.391 3.732 4.344 6.071 4.023 3.712-.507 2.158-3.751 4.311-5.248 5.775-4.007 7.296 1.434 9.598 6.876 2.165 5.11 4.214 7.007 8.067 10.286 1.79 1.527 9.634 6.975 8.894 10.33-.502 2.262-9.462 5.692-11.857 6.452-8.759 2.772-25.188-4.542-26.952 9.347 3.397-1.267 13.062-9.162 15.962-5.419 1.322 1.699-1.048 4.171-.49 5.858 1.653 5.056 5.553 3.295 9.641 2.477a6.877 6.877 0 0 1-.865.46c5.586-2.871 5.006-2.271 7.568-6.929.837-1.52 2.083-5.203 3.262-6.291 4.062-3.736 4.687-1.164 7.201 1.719.659.759 6.879 9.715 4.665 9.269-7.234-1.452-14.181-1.257-20.181 2.698-3.457 2.283-6.727 5.364-10.855 6.881-.989.361-8.317 1.056-7.451-.195 1.264-1.82 5.617-3.028 7.334-4.993-4.759-1.96-8.729 2.367-12.47 4.898-3.969 1.878-4.892 5.376-8.271 8.444-1.476 1.338-4.265 1.564-5.713 3.326-1.406 1.708-1.581 4.393-2.912 6.016-.934 1.134-3.328.448-4.303 2.16-1.271 2.237 1.162 4.311.629 5.923-.976 2.926-6.543 5.408-8.684 7.516.286-.275.57-.558.85-.844-2.146 2.25-4.86 3.906-6.535 6.511.77 3.677 3.193 12.446 2.518 14.464-2.23 6.64-6.564-3.61-8.322-6.257-6.039-9.101-18.108-3.01-26.354-2.256-10.544.964-20.872 14.649-14.368 25.759 3.122 5.328 8.374 7.388 14.399 6.155 5.361-1.097 6.972-8.599 12.021-8.734 9.279-.248.205 9.093-.598 12.52-.742 3.175 1.157 3.47 4.425 4.255 2.414.578 5.832-1.031 7.924.347 1.318.87 1.255 5.634 3.068 4.131-3.569 2.958-2.736 9.972.923 12.509 4.058 2.812 8.835.207 13.082 1.288 8.019 2.046 4.19-.61 11.232-4.862 4.753-2.865 5.533.54 8.781.552 2.211.009 3.616-3.179 7.312-2.249 3.013.758 4.204 3.084 7.802 3.619 1.475.217 2.998-.554 4.404-.399 6.654.738 11.748 4.991 16.992 8.835 4.321 3.164 7.184 2.523 12.23 3.967 3.688 1.051 10.492 6.387 10.144 11.072-.062.837-3.285 5.053-3.836 6.949.944.655 7.507-.812 9.427-.952-.631.735-5.101 3.876-5.101 2.209 0 .853 3.163 2.608 3.933 3.155 2.331-7.569 6.16-2.699 10.768-.824 3.918 1.595 8.74 1.681 12.919 2.676 3.548.846 11.37 3.24 13.999 6.139 3.164 3.489.976 9.157-1.365 12.63-3.062 4.551-7.68 6.3-9.59 11.653-1.51 4.244-.376 8.531-1.239 13.236-1.166 6.367-2.101 4.135-6.201 8.021-3.451 3.271-.058 2.702-4.756 4.787-4.72 2.099-8.874 1.474-12.142 6.65.131-.325.237-.652.328-.992-1.378 1.929-2.068 5.881-2.721 7.176-1.647 3.308-3.919 5.395-6.523 8.15-.999 1.055-10.179 13.594-10.708 12.586-.683-1.31-7.919 1.316-8.265-.553.288 1.57-.068 1.044 1.729 1.95-1.665 10.305-6.023 11.841-16.144 11.946.87 4.953-3.667 3.964-5.775 6.628-1.232 1.556-1.821 5.927-2.676 7.941-.533 1.264-4.484 6.331-4.484 7.338-.004.924 1.328 2.278 2.577 3.578-7.134 1.41-14.409 2.396-21.798 2.995 1.383-1.742 1.716-3.273-2.689-3.483 1.179-3.203 3.946-5.03 5.12-8.133.557-1.464.096-2.043.566-3.492 1.612-5.008.913-3.12.004-7.01-2.128-9.113.758-11.607 3.242-19.952 2.551-8.579 2.313-19.697 3.947-28.936.775-4.422 2.047-13.618.511-17.799-1.729-4.706-9.34-8.412-12.825-11.578-4.935-4.494-7.558-9.354-11.221-14.91-1.86-2.821-3.98-5.59-5.431-8.66-3.104-6.561.002-2.654.523-6.527.5-3.742-.445-7.085 1.041-11.013 1.643-4.343 5.744-7.048 7.092-11.427 1.213-3.896.29-8.795-3.714-10.096-2.231-.727-4.692.949-6.935.582-3.127-.507-6.665-2.84-9.118-4.707-3.425-2.608-4.709-6.85-8.356-9.322-3.053-2.063-5.225-.828-8.49-1.793-3.406-1.004-5.509-5.206-8.257-6.522-4.124-1.972-6.447.859-10.8.288-3.702-.485-9.348-4.589-12.807-6.138-7.033-3.148-11.316-6.622-14.128-13.76-2.409-6.122-5.92-8.977-10.055-14.076-4.188-5.166-5.501-9.566-11.958-10.944-.758-.164 1.58 5.425 1.821 5.871 2.308 4.273 5.771 8.176 8.559 12.153 4.101 5.859 2.354 6.959-1.817 1.292-4.77-6.48-10.305-12.926-14.442-19.79-1.564-2.595-1.264-4.273-3.843-6.737-2.494-2.379-5.756-3.537-8.266-5.8-9.031-8.123-10.674-18.966-9.644-30.545.335-3.773 1.698-6.792 1.097-10.419-.496-3.013-2.275-5.503-4.496-7.724-.717-1.138-2.514-3.947-2.618-4.126-2.05-3.405-3.645-6.755-6.902-9.551-1.868-1.607-6.703-5.37-11.256-8.522 20.454-25.508 47.218-45.726 77.921-58.278.244 1.542.906 3.084 1.9 4.558 2.525 3.745 4.931 3.448 9.857 4.486-.527 5.717-7.213 5.763-11.738 5.142-5.401-.738-11.084-2.534-15.764 2.2 2.585 1.554 9.678 7.605 8.736 1.282 5.174-.259 10.176-.414 15.238.204 2.029.25 8.824 2.53 10.667 1.49.772-.437 1.597-4.25 2.414-5.423-1.443.008-2.991-.72-4.428-.582 3.353-4.292 6.692-.927 10.959 1.048-4.697 2.855-1.912 9.694 2.681 4.137 3.771-4.57-.924-7.885-5.713-10.547 4.829-6.04 7.808-6.587 12.352.233.75-4.207 4.143-2.522 7.69-2.213v-1.05c-1.562.036-3.229-.862-4.774-.699 3.613-5.765 1.307-7.083 6.473-8.963 4.114-1.499 15.85-.104 17.295-3.971-8.213 1.597-18.135 1.978-25.545 5.713-3.194 1.611-7 6.693-10.191 3.388-3.27-3.388 2.339-8.838 5.209-10.5h-.687a193.355 193.355 0 0 1 40.261-4.247c8.923 0 17.69.659 26.297 1.835-2.979 1.564-.775 2.621-2.945 4.219-4.143 3.047-11.497 5.589-16.427 7.515 6.267-.017 21.437 5.876 24.355-2.915-2.023-.309-4.041-.622-6.062-.933 3.776-2.504 7.988-4.53 12.411-6.016 39.905 7.907 75.4 28.147 102.401 56.551-.188-.003-.38-.009-.566-.003zm35.336 76.655c.359-.767 1.198-1.02 1.546-1.654.729-1.332.566-2.234 1.465-3.377.962-1.233 2.259-1.537 3.331-2.5a3.92 3.92 0 0 0 .873-1.115 191.52 191.52 0 0 1 7.654 27.822c-.057.068-.089.171-.159.229-.469.371-3.529.826-4.157.847-2.217.086-3.862-1.384-5.453-2.769-1.618-1.406-3.524-3.288-4.675-5.107-1.229-1.944-.47-3.94-.382-6.162.073-1.87-.835-4.531-.043-6.214zm2.498 100.108c-3.75-3.26-8.175-7.627-10.841-11.848-2.849-4.499-1.093-9.129-.886-14.282.174-4.335-1.943-10.503-.101-14.405.845-1.781 2.784-2.371 3.581-3.832 1.696-3.091 1.319-5.18 3.401-7.837 2.232-2.855 5.234-3.557 7.721-5.794 2.605-2.348 2.533-4.198 4.183-7.206 1.206-2.198 4.043-5.865 6.729-7.781a193.98 193.98 0 0 1 2.216 29.263c0 17.206-2.289 33.881-6.529 49.771-3.615-.933-6.589-3.537-9.474-6.049z"/></svg>