<svg xmlns="http://www.w3.org/2000/svg" viewBox="0 0 512 512"><path d="M282.137 304.436h-75.396l-43.248 78.006 45.127-9.479-45.161 90.322 147.667-137.529-46.779 9.811 17.79-31.131zM372.752 148.2a77.78 77.78 0 0 0 2.486-19.538c0-42.561-34.5-77.079-77.078-77.079-32 0-59.454 19.511-71.095 47.287-10.024-11.754-24.919-19.228-41.562-19.228-30.152 0-54.579 24.429-54.579 54.564 0 5.181.752 10.188 2.092 14.929-24.593 9.04-42.152 32.668-42.152 60.414 0 35.48 28.776 64.292 64.307 64.292h198.206c35.547 0 64.308-28.812 64.308-64.292 0-28.797-18.869-53.141-44.933-61.349z"/></svg>