<svg xmlns="http://www.w3.org/2000/svg" viewBox="0 0 512 512"><path d="M456.41 348.808L283.254 237.822c-.653-.428-1.343-.817-2.027-1.209v-9.911c32.178-10.71 55.363-41.041 55.363-76.85 0-44.716-36.201-80.934-80.938-80.949-44.734.016-80.967 36.233-80.967 80.949h51.145c.033-16.446 13.344-29.776 29.822-29.823 16.449.047 29.762 13.377 29.825 29.823-.063 16.45-13.376 29.795-29.825 29.826-6.736 0-13.339 2.73-18.081 7.489-4.776 4.758-7.491 11.348-7.491 18.082v31.364c-.686.392-1.371.782-2.028 1.209L54.898 348.808c-19.131 12.233-27.863 35.648-21.484 57.429 6.408 21.778 26.391 36.787 49.084 36.787h346.314c22.691 0 42.674-15.009 49.051-36.787 6.408-21.781-2.357-45.196-21.453-57.429zM82.498 391.844l173.154-110.971 173.16 110.971H82.498z"/></svg>