<svg xmlns="http://www.w3.org/2000/svg" viewBox="0 0 512 512"><path d="M461.357 264.329c-1.162-.782-2.388-1.811-3.632-3.005 2.028-1.934 3.761-4.367 4.841-6.965 1.422-3.355 1.93-6.802 1.93-10.124 0-3.301-.49-6.553-1.31-10.024-1.176-6.014-3.842-11.18-7.618-15.337-3.892-4.134-9.205-7.893-16.973-8.042-1.373-.016-2.797.197-4.218.522-15.124-73.448-67.153-120.849-169.364-120.849-43.327 0-79.693 8.554-108.683 23.971l-24.165-13.949c-13.687-7.896-26.929-1.601-29.449 14.014l-10.333 64.552c-5.102 10.092-9.19 20.912-12.165 32.362h-6.932c-15.812 0-28.746 12.95-28.746 28.747v51.451c0 15.812 12.934 28.732 28.746 28.732h11.69c9.975 22.006 26.7 37.183 49.918 47.332v52.16c0 .477.05.93.066 1.375h89.194c.016-.445.047-.898.047-1.375v-34.811c12.854.738 26.439 1.045 40.811 1.045 11.414 0 22.207-.391 32.375-1.178v34.943c0 .477.034.93.067 1.375H386.6c.033-.445.099-.898.099-1.375v-59.094c31.065-18.279 47.286-45.847 51.409-80.737 2.387 2.388 4.953 4.579 7.73 6.521 5.547 3.843 12.053 6.919 19.739 7.342l1.373-27.093c-.753.001-2.878-.585-5.593-2.486zm-330.714-18.654c-10.086 0-18.262-8.189-18.262-18.282 0-10.104 8.176-18.277 18.262-18.277 10.09 0 18.281 8.174 18.281 18.277 0 10.093-8.191 18.282-18.281 18.282zm191.83-81.507c-16.61-4.891-35.761-7.636-57.719-7.636-22.759 0-43.788 2.941-62.87 8.287l-8.338-29.807c21.928-6.13 45.798-9.416 71.208-9.416 24.493 0 46.635 3.058 66.451 8.877l-8.732 29.695z"/></svg>