<svg xmlns="http://www.w3.org/2000/svg" viewBox="0 0 512 512"><path d="M151.92 320.061L72.639 439.597l119.24-79.868a292.208 292.208 0 0 1-21.63-19.576 295.97 295.97 0 0 1-18.329-20.092zm237.764-197.332c-34.521-34.52-75.025-49.983-90.471-34.541-4.723 4.725-6.543 11.802-5.821 20.326-.318 6.984-1.187 13.398-2.536 19.283l-59.557 59.557c-18.267 5.196-35.852 5.529-45.293 5.2-19.958-6.244-36.812-5.263-46.569 4.493-21.638 21.638-.239 78.106 47.784 126.133 48.026 48.026 104.493 69.418 126.129 47.781 8.24-8.239 10.223-21.534 6.889-37.488l.19.189s-3.414-27.452 5.06-55.496l56.104-56.105c6.793-1.702 14.314-2.757 22.654-3.016 8.368.644 15.32-1.188 19.978-5.847 15.443-15.443-.018-55.946-34.541-90.469z"/></svg>