<svg xmlns="http://www.w3.org/2000/svg" viewBox="0 0 512 512"><path d="M342.391 352.428h-44.879v44.865h44.879v-44.865zm-63.234-120.071h-44.849v44.853h44.849v-44.853zm63.234 60.034h-44.879v44.859h44.879v-44.859zm63.174-60.034h-44.854v44.853h44.854v-44.853zm-126.408 60.034h-44.849v44.859h44.849v-44.859zm63.234-60.034h-44.879v44.853h44.879v-44.853zm63.174 60.034h-44.854v44.859h44.854v-44.859zm-252.803 60.037h-44.856v44.865h44.856v-44.865zm0-60.037h-44.856v44.859h44.856v-44.859zM394.024 74.208v19.691c7.737 6.847 12.642 16.825 12.642 27.969 0 20.634-16.732 37.367-37.369 37.367-20.642 0-37.367-16.733-37.367-37.367 0-11.147 4.903-21.124 12.643-27.969V74.208H169.97v19.691c7.739 6.847 12.643 16.825 12.643 27.969 0 20.634-16.732 37.367-37.369 37.367-20.64 0-37.367-16.733-37.367-37.367 0-11.147 4.904-21.124 12.642-27.969V74.208h-83.27v397.644h436.668V74.208h-79.893zm40.011 357.759H77.131V183.544h356.904v248.423zm-218.047-199.61h-44.881v44.853h44.881v-44.853zm0 120.071h-44.881v44.865h44.881v-44.865zm63.169 0h-44.849v44.865h44.849v-44.865zm-63.169-60.037h-44.881v44.859h44.881v-44.859zM145.245 143.64c10.273 0 18.603-8.326 18.603-18.599V58.035c0-10.267-8.329-18.6-18.603-18.6-10.274 0-18.602 8.333-18.602 18.6v67.006c0 10.272 8.328 18.599 18.602 18.599zm224.054 0c10.272 0 18.601-8.326 18.601-18.599V58.035c0-10.267-8.328-18.6-18.601-18.6-10.274 0-18.604 8.333-18.604 18.6v67.006c0 10.272 8.329 18.599 18.604 18.599z"/></svg>