<svg xmlns="http://www.w3.org/2000/svg" viewBox="0 0 512 512"><path d="M254.796 37.191c-120.658.018-218.426 97.79-218.446 218.443.02 120.662 97.788 218.43 218.446 218.449 120.657-.02 218.423-97.787 218.448-218.449-.025-120.653-97.791-218.425-218.448-218.443zm22.538 369.049v-60.701h-45.073v60.701c-33.049-4.889-62.511-20.342-85.141-42.934-22.585-22.625-38.038-52.086-42.93-85.135h60.707v-45.07H104.19c4.892-33.049 20.345-62.509 42.93-85.137 22.63-22.589 52.092-38.043 85.141-42.936v60.706h45.073v-60.703c33.05 4.891 62.506 20.343 85.136 42.927 22.585 22.633 38.043 52.093 42.932 85.142h-60.7v45.07h60.7c-4.889 33.049-20.347 62.51-42.932 85.135-22.63 22.593-52.086 38.046-85.136 42.935z"/></svg>