<svg xmlns="http://www.w3.org/2000/svg" viewBox="0 0 512 512"><path d="M434.135 359.126c-7.798-8.222-17.102-12.629-28.434-16.952-.626-.228-1.301-.441-1.939-.666-45.436-39.315-24.12-70.818-24.12-111.011 0-39.834-39.698-100.547-93.214-117.835.188-1.413.32-2.84.32-4.302 0-17.728-14.367-32.1-32.095-32.1-17.728 0-32.099 14.372-32.099 32.1 0 1.977.206 3.909.549 5.788-51.197 18.839-88.666 76.425-88.666 116.349 0 39.858 18.944 71.3-22.197 108.788-8.272 2.543-15.655 5.41-22.133 8.803-5.518 2.955-10.51 6.252-14.942 11.038-4.339 4.645-8.394 11.813-8.377 20.345-.016 8.534 4.038 15.703 8.377 20.343 7.798 8.222 17.106 12.63 28.433 16.952 16.952 6.213 38.792 10.867 64.519 14.197 25.696 3.303 55.153 5.167 86.536 5.167 47.843-.019 91.098-4.276 123.619-11.526 16.316-3.686 29.893-7.969 40.918-13.753 5.521-2.954 10.513-6.245 14.945-11.037 4.342-4.64 8.4-11.809 8.376-20.343.024-8.532-4.034-15.7-8.376-20.345zm-41.121 22.138c-12.606 4.721-32.439 9.204-56.32 12.271-23.922 3.096-52.033 4.896-82.041 4.895-45.5.021-86.746-4.187-115.397-10.62-11.531-2.553-21.04-5.562-27.474-8.347a61.283 61.283 0 0 1 4.503-1.782c12.607-4.719 32.441-9.209 56.327-12.271 15.938-2.059 33.759-3.527 52.739-4.295 2.939 13.488 14.934 23.592 29.302 23.592 14.371 0 26.367-10.107 29.3-23.602 33.715 1.363 63.744 5.016 86.092 10.031 11.523 2.549 21.039 5.562 27.472 8.346a65.993 65.993 0 0 1-4.503 1.782z"/></svg>