<svg xmlns="http://www.w3.org/2000/svg" viewBox="0 0 512 512"><path d="M302.174 134.097c-67.297 0-121.879 54.581-121.879 121.883 0 67.302 54.582 121.843 121.879 121.843 67.303 0 121.846-54.541 121.846-121.843 0-67.303-54.543-121.883-121.846-121.883zm49.019 120.572v20.405H320.52l-3.203 6.218v9.875h33.877v20.374h-33.877v29.594h-32.64v-29.594h-33.648v-20.374h33.648v-9.875l-2.974-6.218h-30.675v-20.405h20.374l-32.834-66.711h34.764l28.318 66.711 27.666-66.711h34.762l-33.256 66.711h20.371zM302.174 82.137c-44.703 0-85.449 16.873-116.221 44.572-26.426.623-51.148 3.269-72.565 7.456-24.561 4.775-44.866 11.709-58.077 19.145-8.83 4.89-14.228 10.076-16.158 13.44-1.043 1.817-1.304 2.909-1.34 3.909.036.981.297 2.095 1.34 3.892 1.145 1.932 3.309 4.446 6.706 7.161 6.704 5.46 18.118 11.411 32.863 16.419 15.372 5.233 34.37 9.531 55.63 12.456-2.652 9.745-4.418 19.838-5.332 30.183-7.391-1.03-14.619-2.185-21.553-3.53-26.781-5.294-49.641-12.735-67.137-22.517-.881-.47-1.697-.998-2.518-1.484v27.209c0 1.03.197 2.171 1.34 4.12 1.145 1.911 3.309 4.446 6.706 7.144 6.704 5.479 18.118 11.428 32.863 16.398 14.324 4.906 31.788 8.962 51.312 11.872a169.815 169.815 0 0 0 7.555 31.917c-10.465-1.245-20.539-2.782-30.121-4.661-26.781-5.281-49.641-12.738-67.137-22.513a97.17 97.17 0 0 1-3.564-2.093v23.561c.032 1.225.297 2.565 1.506 4.661 1.242 2.023 3.5 4.643 6.934 7.42 6.867 5.593 18.375 11.546 33.195 16.584 20.502 6.995 47.28 12.294 77.437 14.892 6.995 10.943 15.2 21.015 24.394 30.071-26.098-.851-50.656-3.533-72.533-7.816-26.75-5.266-49.512-12.689-66.875-22.402a137.206 137.206 0 0 1-3.01-1.78v26.226c0 1.03.197 2.191 1.34 4.135 1.145 1.902 3.309 4.454 6.706 7.146 6.704 5.481 18.118 11.396 32.863 16.404 29.497 10.085 71.946 16.676 118.871 16.645 13.343 0 26.228-.56 38.622-1.538 20.34 8.34 42.609 12.95 65.959 12.95 95.98 0 173.842-77.801 173.842-173.81-.001-96.017-77.863-173.844-173.843-173.844zm0 322.73c-82.115 0-148.922-66.772-148.922-148.888s66.807-148.91 148.922-148.91c82.082 0 148.891 66.794 148.891 148.91-.001 82.116-66.809 148.888-148.891 148.888z"/></svg>