<svg xmlns="http://www.w3.org/2000/svg" viewBox="0 0 512 512"><path d="M249.555 145.609c-2.06 0-4.057.325-6.016.912-1.966.592-3.698 1.538-5.27 2.814-1.6 1.274-2.843 2.879-3.76 4.745-.916 1.894-1.373 4.084-1.373 6.668 0 3.987 1.309 7.13 3.826 9.282 2.58 2.192 6.77 3.924 12.592 5.266v-29.687zm23.966 88.753a17.85 17.85 0 0 0 4.646-5.367c1.208-2.122 1.832-4.642 1.832-7.589 0-4.736-1.507-8.304-4.482-10.655-2.977-2.355-8.045-4.516-15.205-6.476v35.022c2.189-.263 4.48-.786 6.834-1.536 2.358-.788 4.516-1.932 6.375-3.399zm-17.33 57.818c54.873 0 99.381-44.509 99.381-99.387 0-54.854-44.508-99.348-99.381-99.348s-99.35 44.493-99.35 99.348c.001 54.878 44.477 99.387 99.35 99.387zm-9.091-91.8c-1.046-.324-2.158-.589-3.367-.848-4.512-1.177-8.93-2.618-13.309-4.253-4.383-1.666-8.309-3.828-11.775-6.571-3.465-2.716-6.211-6.116-8.271-10.206-2.094-4.053-3.107-9.157-3.107-15.233 0-6.186 1.178-11.646 3.563-16.388 2.356-4.721 5.464-8.713 9.388-11.938 3.89-3.203 8.371-5.722 13.472-7.486a59.973 59.973 0 0 1 15.862-3.174v-14.042h10.758v14.042c5.462.607 10.594 1.801 15.402 3.562 4.807 1.738 9.024 4.189 12.654 7.263 3.664 3.108 6.641 6.968 8.928 11.575 2.321 4.645 3.662 10.108 4.021 16.422H275.42c-.096-4.877-1.633-8.996-4.514-12.396-2.942-3.403-6.473-5.101-10.594-5.101v32.276c1.439.358 2.943.718 4.48 1.075 1.502.391 3.107.789 4.805 1.272 8.996 2.427 15.928 5.431 20.801 9.026 4.84 3.601 8.438 7.332 10.726 11.219 2.323 3.892 3.661 7.752 4.118 11.674.426 3.861.624 7.325.624 10.368 0 2.648-.654 6.054-1.995 10.104-1.342 4.089-3.729 8.079-7.194 11.972-3.466 3.894-8.11 7.327-13.935 10.367-5.85 3.041-13.309 4.838-22.43 5.461v15.497h-10.758v-15.497c-13.639-.951-24.265-5.171-31.918-12.561-7.619-7.386-12.066-18.275-13.278-32.637h25.702c-.128 6.935 1.704 12.395 5.463 16.42 3.76 3.988 8.441 6.539 14.031 7.651v-38.097c-.622-.23-1.406-.52-2.454-.818zm9.091 177.309c-55.525-.129-103.891-9.644-133.389-26.032a78.94 78.94 0 0 1-2.977-1.731v19.883c0 .951.227 2.029 1.24 3.76 1.014 1.671 2.912 3.896 5.789 6.25 5.82 4.674 15.535 9.74 28.092 13.994 25.18 8.603 61.35 14.225 101.244 14.157 52.291.165 98.434-9.845 121.192-22.793 7.587-4.183 12.262-8.63 13.966-11.608 1.014-1.73 1.24-2.809 1.24-3.76v-19.883c-7.751 4.709-16.809 8.697-27.077 12.232-28.741 9.743-67.003 15.5-109.32 15.531zm0 55.266c-55.525-.131-103.891-9.711-133.389-25.998-1.016-.585-1.997-1.178-2.977-1.765v22.565c0 1.017.227 2.091 1.24 3.825 1.014 1.701 2.912 3.86 5.789 6.216 5.82 4.705 15.535 9.773 28.092 14.026 25.18 8.633 61.35 14.229 101.244 14.193 52.291.097 98.434-9.911 121.192-22.79 7.587-4.221 12.262-8.667 13.997-11.678.982-1.702 1.209-2.776 1.209-3.793V405.16c-7.751 4.707-16.841 8.729-27.176 12.264-28.709 9.743-66.969 15.502-109.221 15.531zM134.999 299.501c-7.555 4.185-12.231 8.628-13.933 11.578-.944 1.601-1.207 2.678-1.24 3.597.033.982.296 1.994 1.24 3.627 1.014 1.671 2.912 3.895 5.789 6.248 5.82 4.71 15.535 9.742 28.092 13.994 25.18 8.603 61.35 14.229 101.244 14.157 52.357.167 98.496-9.837 121.227-22.753 7.588-4.221 12.228-8.637 13.963-11.646.916-1.633 1.178-2.645 1.209-3.627-.031-.919-.293-1.996-1.209-3.597-1.047-1.702-2.941-3.892-5.854-6.217-4.645-3.79-11.936-7.814-21.16-11.475 24.528-26.356 39.57-61.709 39.57-100.595 0-81.607-66.154-147.741-147.746-147.741-81.559 0-147.746 66.134-147.746 147.741 0 38.854 15.043 74.238 39.604 100.595-4.908 1.96-9.322 3.955-13.05 6.114zm121.192 41.075c-.325 0-.653-.035-.948-.035.295 0 .623.035.948.035.361 0 .654-.035 1.014-.035-.359 0-.652.035-1.014.035zM129.275 192.793c0-69.979 56.967-126.928 126.916-126.928 69.982 0 126.918 56.949 126.918 126.928 0 69.984-56.936 126.914-126.918 126.914-69.949 0-126.916-56.93-126.916-126.914z"/></svg>