<svg xmlns="http://www.w3.org/2000/svg" viewBox="0 0 512 512"><path d="M217.078 387.634l-53.529-14.348V326.21l-29.798-9.177v67.681l11.042 14.392 78.067 20.928 17.97-9.619 18.492-54.707-28.486-8.773zM401.997 92.027a9.115 9.115 0 0 0-.702-.039c-.117-.004-.229-.022-.348-.022-.142 0-.278.022-.419.025-.234.006-.468.019-.701.038-5.167.185-9.999 1.625-14.493 4.152l-308.597 95.05c-17.54 2.201-24.863 14.503-24.863 40.912 0 26.41 7.323 38.712 24.863 40.914l308.597 95.049c4.818 2.711 10.015 4.213 15.608 4.215h.005c38.851 0 59.179-70.519 59.179-140.178 0-69.021-19.969-138.844-58.129-140.116zm-1.05 254.711c-11.402 0-33.597-40.447-33.597-114.595 0-74.146 22.194-114.593 33.597-114.593s33.595 40.446 33.595 114.593c0 74.148-22.192 114.595-33.595 114.595z"/></svg>