<svg xmlns="http://www.w3.org/2000/svg" viewBox="0 0 512 512"><path d="M323.389 256.516c0 37.027-30.018 67.046-67.042 67.046-37.026 0-67.044-30.019-67.044-67.046 0-37.025 30.018-67.038 67.044-67.038 37.024 0 67.042 30.012 67.042 67.038zm-251.846 0C71.56 154.438 154.27 71.735 256.345 71.71c102.074.025 184.781 82.729 184.804 184.806-.022 102.073-82.729 184.779-184.804 184.8-102.075-.021-184.785-82.727-184.802-184.8zm96.186-88.61c-22.726 22.771-36.689 53.906-36.705 88.609.016 34.698 13.979 65.839 36.705 88.612 22.775 22.721 53.914 36.683 88.615 36.7 34.7-.018 65.839-13.979 88.616-36.7 22.725-22.773 36.688-53.914 36.705-88.612-.018-34.703-13.986-65.838-36.705-88.609-22.777-22.728-53.916-36.695-88.616-36.707-34.701.012-65.839 13.98-88.615 36.707z"/></svg>