<svg xmlns="http://www.w3.org/2000/svg" viewBox="0 0 512 512"><path d="M162.073 334.729l29.878 29.873c16.092-17.093 38.877-27.82 64.209-27.82 25.336 0 48.119 10.728 64.221 27.82l29.873-29.873c-23.778-24.761-57.131-40.255-94.094-40.255-36.957 0-70.303 15.494-94.087 40.255zm94.087 48.055c-12.612 0-23.822 5.661-31.58 14.446l31.586 31.586 31.584-31.586c-7.764-8.785-18.973-14.446-31.59-14.446zm220.051-177.742c-121.531-121.532-318.568-121.524-440.1 0-.625.625-1.195 1.283-1.812 1.906l30.662 30.663c48.605-49.566 116.294-80.354 191.205-80.354 74.906 0 142.592 30.787 191.203 80.354l30.66-30.663c-.621-.623-1.191-1.281-1.818-1.906zm-220.045-1.785c-59.254 0-114.965 23.073-156.863 64.971-.622.623-1.197 1.279-1.818 1.909l31.976 31.973c32.094-33.061 76.987-53.637 126.7-53.637 49.72 0 94.608 20.576 126.711 53.637l31.967-31.969c-.617-.634-1.195-1.29-1.819-1.913-41.899-41.898-97.603-64.971-156.854-64.971z"/></svg>