<svg xmlns="http://www.w3.org/2000/svg" viewBox="0 0 512 512"><path d="M255.607 143.279c17.742 0 32.18-14.437 32.18-32.178 0-17.745-14.438-32.179-32.18-32.179-17.744 0-32.18 14.434-32.18 32.179.001 17.742 14.436 32.178 32.18 32.178zm152.649 105.422c17.742 0 32.18-14.437 32.18-32.178 0-17.742-14.438-32.179-32.18-32.179-17.744 0-32.178 14.437-32.178 32.179 0 17.742 14.434 32.178 32.178 32.178zm-304.514 0c17.744 0 32.18-14.437 32.18-32.178 0-17.742-14.436-32.179-32.18-32.179s-32.178 14.437-32.178 32.179c0 17.742 14.434 32.178 32.178 32.178zm208.426-66.502c0-8.763-7.104-15.864-15.865-15.864h-80.215c-8.762 0-15.865 7.102-15.865 15.864v27.942h111.945v-27.942zm79.529 96.623c-.961 0-1.871.194-2.736.479l44.654 92.566v-84.244c0-4.855-3.949-8.802-8.803-8.802h-33.115zm-313.316 8.802v81.568l44.439-89.961c-.805-.241-1.639-.409-2.521-.409H87.186c-4.854 0-8.805 3.947-8.805 8.802zm93.197-53.935L73.09 433.077h126.545v-42.038c0-8.761 7.104-15.867 15.865-15.867h80.215c8.762 0 15.865 7.106 15.865 15.867v42.038h125.418l-96.186-199.388H171.578zm84.029 118.426c-17.744 0-32.18-14.432-32.18-32.175 0-17.742 14.436-32.177 32.18-32.177 17.742 0 32.18 14.435 32.18 32.177 0 17.744-14.437 32.175-32.18 32.175z"/></svg>