<svg xmlns="http://www.w3.org/2000/svg" viewBox="0 0 512 512"><path d="M256.393 38.396c-120.08 0-217.404 97.318-217.404 217.398 0 120.052 97.324 217.438 217.404 217.438s217.434-97.387 217.434-217.438c-.001-120.08-97.354-217.398-217.434-217.398zm28.972 144.657c0-13.096 10.598-23.696 23.676-23.696s23.676 10.601 23.676 23.696v49.135c0 13.078-10.598 23.675-23.676 23.675s-23.676-10.597-23.676-23.675v-49.135zm-105.299 0c0-13.096 10.596-23.696 23.674-23.696 13.082 0 23.709 10.601 23.709 23.696v49.135c0 13.078-10.627 23.675-23.709 23.675-13.078 0-23.674-10.597-23.674-23.675v-49.135zm214.915 146.746c-2.417 2.455-5.592 3.666-8.798 3.666-3.205 0-6.408-1.211-8.83-3.666l-3.956-3.971c-4.544 7.371-11.247 16.725-20.503 26.209-19.297 19.93-50.525 40.227-94.801 40.227h-.197c-44.377.03-76.293-20.243-96.372-40.062-9.712-9.564-16.808-19.002-21.616-26.373l-4.48 4.463a12.32 12.32 0 0 1-8.796 3.664c-3.204 0-6.377-1.21-8.831-3.664-4.839-4.838-4.839-12.754 0-17.624l25.542-25.522a12.419 12.419 0 0 1 17.626 0c4.871 4.852 4.871 12.771 0 17.623l-4.121 4.103c28.58 24.563 63.998 36.84 99.512 36.84 35.643 0 71.189-12.378 99.869-37.036l-4.414-4.414c-4.87-4.869-4.87-12.771 0-17.622 4.873-4.861 12.757-4.861 17.627 0l25.54 25.522c4.873 4.881 4.873 12.782-.001 17.637z"/></svg>