<svg xmlns="http://www.w3.org/2000/svg" viewBox="0 0 512 512"><path d="M263.292 288.328l-7.293 2.361-7.291-2.361-102.213-33.09-7.133 97.459s33.734 37.411 117.809 37.411c84.07 0 115.473-37.411 115.473-37.411l-9.025-96.849-100.327 32.48zm-147.211-34.759v-4.565l130.646-67.268a5.917 5.917 0 0 1 7.973 2.553 5.918 5.918 0 0 1-2.553 7.973L165.96 236.65l90.039 29.15 222.262-71.955-222.262-71.954-222.26 71.954 84.566 27.377-25.902 13.34v18.27c-3.94 4.772-6.447 11.938-6.447 19.955 0 5.694 1.275 10.944 3.422 15.228l-2.379 27.797 11.443-4.519 5.504 4.519 7.281-5.702 9.668 5.702-2.377-27.793c2.146-4.284 3.428-9.536 3.428-15.231 0-7.613-2.261-14.461-5.865-19.219z"/></svg>