<svg xmlns="http://www.w3.org/2000/svg" viewBox="0 0 512 512"><path d="M435.107 205.502v-19.731h-70.248v19.731h9.078v122.542h-9.078v19.729h70.248v-19.729h-9.078V205.502h9.078zm26.885-74.091h.002L255.518 67.374 49.039 131.411v30.682h412.953v-30.682zm-206.476 4.776c-10.811 0-19.574-8.764-19.574-19.576 0-10.81 8.764-19.573 19.574-19.573s19.574 8.764 19.574 19.573c0 10.811-8.764 19.576-19.574 19.576zm83.755 69.315v-19.731h-70.246v19.731h9.076v122.542h-9.076v19.729h70.246v-19.729h-9.076V205.502h9.076zm100.008 169.476H73.686l-23.682 69.649h412.957l-23.682-69.649zM243.441 205.502v-19.731h-70.248v19.731h9.076v122.542h-9.076v19.729h70.248v-19.729h-9.08V205.502h9.08zm-95.836 0v-19.731H77.357v19.731h9.076v122.542h-9.076v19.729h70.248v-19.729h-9.076V205.502h9.076z"/></svg>