<svg xmlns="http://www.w3.org/2000/svg" viewBox="0 0 512 512"><path d="M110.866 352.532v118.48l65.93-.001v-62.069c-18.937-12.035-36.691-26.263-52.913-42.544a300.62 300.62 0 0 1-13.017-13.866zm347.686-170.178c-.391-81.529-66.613-147.484-148.334-147.484-11.055 0-20.014 8.972-20.014 20.041 0 11.054 8.959 20.03 20.014 20.03 29.988 0 56.933 12.068 76.588 31.687 19.49 19.541 31.522 46.256 31.688 76-.035.687.064 4.009.85 6.294 2.616 8.683 10.562 14.291 19.195 14.291 1.896 0 3.861-.258 5.755-.851 8.961-2.674 14.65-11.082 14.258-20.008zm-165.373-73.875c-11.051-.017-20.047 8.961-20.047 20.014 0 11.085 8.961 20.048 20.016 20.048 28.548.062 51.7 23.216 51.734 51.732 0 11.054 8.992 20.031 20.047 20.031 11.083 0 20.012-8.978 20.012-20.031-.001-50.703-41.073-91.759-91.762-91.794zm2.671 85.199H103.47l-44.566-44.679C58.71 304.526 184.643 430.787 340.172 430.98l-44.322-44.435V193.678zm-167.315 25.129h124.417l-62.287 62.288-62.13-62.288zm79.877 80.079l62.309-62.309.001 124.777-62.31-62.468z"/></svg>