<svg xmlns="http://www.w3.org/2000/svg" viewBox="0 0 512 512"><path d="M345.097 201.637c-1.966 0-3.911.085-5.846.211a89.487 89.487 0 0 0 6.481-33.496c0-49.606-40.219-89.814-89.813-89.814-49.618 0-89.833 40.208-89.833 89.814a89.546 89.546 0 0 0 6.479 33.494 90.514 90.514 0 0 0-5.824-.209c-49.621 0-89.83 40.206-89.83 89.812 0 49.611 40.209 89.814 89.83 89.814 36.611 0 68.075-21.923 82.054-53.356-9.839 37.655-28.101 104.613-33.517 104.613h81.262c-5.411 0-23.659-66.909-33.501-104.57 13.986 31.408 45.441 53.313 82.056 53.313 49.593 0 89.812-40.203 89.812-89.814.001-49.606-40.218-89.812-89.81-89.812z"/></svg>