<svg xmlns="http://www.w3.org/2000/svg" viewBox="0 0 512 512"><path d="M252.555 361.822c-43.691 0-65.025 21.736-100.373 57.748-1.793 1.826-3.639 3.701-5.494 5.59h211.734c-1.904-1.938-3.797-3.859-5.637-5.73-35.264-35.924-56.549-57.608-100.23-57.608zM313.51 86.84c-34.564 0-62.586 28.021-62.586 62.592v.607c0-24.131-19.562-43.693-43.695-43.693h-36.162v34.262c0 24.131 19.561 43.693 43.689 43.693h18.855v155.086c5.941-.818 12.232-1.242 18.943-1.242 6.713 0 13.004.424 18.943 1.242V198.51h31.227c34.566 0 62.588-28.023 62.588-62.59V86.84H313.51z"/></svg>