<svg xmlns="http://www.w3.org/2000/svg" viewBox="0 0 512 512"><path d="M445.692 271.445c0-12.643-.933-33.277-2.044-45.868L432.397 89.521c-1.109-12.575-12.261-24.242-24.787-25.944 0 0-37.313-12.854-151.23-12.854-113.915 0-151.228 12.854-151.228 12.854-12.524 1.702-23.675 13.369-24.802 25.944l-11.2 136.056c-1.146 12.591-2.06 33.226-2.06 45.868V396.12h29.379v31.257c0 18.2 14.766 32.949 32.95 32.949 18.18 0 32.962-14.749 32.962-32.949V396.12H350.4v31.257c0 18.185 14.765 32.949 32.947 32.949 18.215 0 32.963-14.765 32.963-32.949V396.12h29.383V271.445zM208.752 69h95.292c10.301 0 18.69 8.393 18.69 18.706 0 10.333-8.39 18.706-18.69 18.706h-95.292c-10.334 0-18.723-8.373-18.723-18.706 0-10.313 8.389-18.706 18.723-18.706zm-79.333 300.286c-15.077 0-27.309-12.229-27.309-27.308 0-15.088 12.231-27.287 27.309-27.287 15.073 0 27.307 12.199 27.307 27.287 0 15.08-12.234 27.308-27.307 27.308zM108 276.546v-10.42c0-9.908.717-26.094 1.603-35.937l8.795-83.898c.866-9.857 9.71-17.937 19.621-17.937h236.759c9.894 0 18.723 8.079 19.605 17.937l8.813 83.898c.882 9.843 1.585 26.028 1.585 35.937v10.42H108zm275.347 92.74c-15.075 0-27.305-12.229-27.305-27.308 0-15.088 12.229-27.287 27.305-27.287 15.106 0 27.306 12.199 27.306 27.287-.001 15.08-12.2 27.308-27.306 27.308z"/></svg>