<svg xmlns="http://www.w3.org/2000/svg" viewBox="0 0 512 512"><path d="M153.638 153.638h204.725v204.725H153.638zm231.916 282.011c0 2.915 3.021 5.379 6.602 5.379h41.705c3.58 0 6.604-3.024 6.604-6.604v-41.697c0-3.89-2.537-6.602-4.818-6.602-13.682 0-24.811-11.248-24.811-25.074 0-13.825 11.129-25.072 24.811-25.072 1.42 0 2.492-.963 3.002-1.537 1.152-1.291 1.812-3.137 1.812-5.065v-41.7c0-3.89-2.537-6.604-4.816-6.604-13.68 0-24.809-11.245-24.809-25.07 0-13.824 11.129-25.071 24.811-25.071 2.281 0 4.818-2.711 4.818-6.603v-41.701c0-3.892-2.537-6.603-4.818-6.603-13.682 0-24.811-11.248-24.811-25.072 0-13.825 11.129-25.072 24.811-25.072 2.281 0 4.818-2.712 4.818-6.604V77.574c0-3.579-3.023-6.603-6.604-6.603h-41.705c-3.58 0-6.602 2.547-6.602 5.562 0 14.094-11.162 25.561-24.883 25.561s-24.883-11.467-24.883-25.561c0-3.015-3.021-5.562-6.6-5.562h-41.705c-3.576 0-6.604 2.547-6.604 5.562 0 14.094-11.162 25.561-24.881 25.561-13.723 0-24.881-11.467-24.885-25.56 0-3.016-3.025-5.562-6.605-5.562h-41.697c-3.578 0-6.602 2.547-6.602 5.562 0 14.094-11.162 25.561-24.885 25.561-13.721 0-24.883-11.467-24.883-25.561 0-3.015-3.021-5.562-6.602-5.562H78.14c-3.58 0-6.604 3.023-6.604 6.603v41.702c0 3.58 2.547 6.604 5.561 6.604 14.092 0 25.557 11.247 25.557 25.072 0 13.824-11.465 25.072-25.557 25.072-3.014 0-5.561 3.023-5.561 6.603v41.699c0 3.58 2.547 6.604 5.561 6.604 14.094.002 25.557 11.249 25.557 25.071 0 13.825-11.465 25.07-25.557 25.07-3.014 0-5.561 3.025-5.561 6.604v41.698c0 3.58 2.547 6.604 5.561 6.604 14.092 0 25.557 11.247 25.557 25.072 0 13.826-11.465 25.074-25.557 25.074-3.014 0-5.561 3.022-5.561 6.602v41.697c0 3.58 3.023 6.604 6.604 6.604h41.701c3.58 0 6.602-2.464 6.602-5.379 0-13.991 11.162-25.374 24.883-25.374 13.723 0 24.885 11.383 24.885 25.374 0 2.915 3.023 5.379 6.602 5.379h41.701c3.58 0 6.604-2.464 6.604-5.379 0-13.991 11.16-25.374 24.883-25.374 13.719 0 24.881 11.383 24.881 25.374 0 2.915 3.027 5.379 6.604 5.379h41.705c3.578 0 6.6-2.464 6.6-5.379 0-13.991 11.162-25.374 24.883-25.374s24.88 11.384 24.88 25.375zm-255.596-53.608V129.957h252.084v252.084H129.958z"/></svg>