<svg xmlns="http://www.w3.org/2000/svg" viewBox="0 0 512 512"><path d="M429.72 139.691c-24.298-9.315-51.538 2.832-60.925 27.114l-33.846-1.161c-6.801-25.133-32.046-40.992-57.881-35.648a52.422 52.422 0 0 0-4.843 1.262l-15.333-19.048c4.479-9.242 5.395-20.162 1.635-30.575-7.359-20.393-29.86-30.954-50.265-23.565-20.405 7.378-30.936 29.874-23.576 50.266 6.736 18.571 25.997 28.939 44.768 25.078l15.467 19.134c-6.409 10.414-9.091 23.153-6.409 36.071 2.125 10.381 7.39 19.289 14.553 26.029L235.21 244.21c-7.164-2.65-14.913-4.087-22.991-4.087-11.118 0-21.517 2.716-30.705 7.521l-19.196-20.797c8.763-15.358 10.397-34.502 2.746-51.935-12.819-29.167-46.895-42.443-76.065-29.593-29.169 12.821-42.444 46.862-29.626 76.03 12.852 29.205 46.863 42.45 76.063 29.631.458-.217.95-.427 1.406-.653l19.164 20.764c-6.508 10.268-10.269 22.436-10.269 35.479a66.297 66.297 0 0 0 9.549 34.353l-24.951 21.747c-6.215-3.713-13.245-6.227-20.897-7.044-28.253-3.045-53.597 17.41-56.64 45.649-3.009 28.254 17.398 53.596 45.653 56.64 28.254 3.01 53.599-17.412 56.606-45.649.882-7.996-.198-15.718-2.746-22.81l28.124-24.51c9.45 5.166 20.273 8.09 31.784 8.09 19.687 0 37.412-8.581 49.579-22.217l45.422 21.765c-.949 12.667 3.434 25.666 13.209 35.298 17.594 17.348 45.945 17.151 63.278-.46 17.396-17.591 17.168-45.961-.425-63.31-16.612-16.364-42.774-17.115-60.236-2.354l-45.717-21.906c.85-4.288 1.342-8.735 1.342-13.281 0-16.039-5.69-30.736-15.142-42.233l21.877-36.2c3.826.131 7.785-.126 11.71-.945 15.693-3.238 28.088-13.604 34.597-26.999l37.377 1.258c4.773 11.761 14.125 21.585 26.914 26.457 24.362 9.323 51.669-2.892 60.956-27.255 9.318-24.386-2.881-51.673-27.24-60.963z"/></svg>