<svg xmlns="http://www.w3.org/2000/svg" viewBox="0 0 512 512"><path d="M471.823 407.401l-2.69-2.691.005-.006-107.515-107.518c14.938-25.734 23.617-55.566 23.822-87.453.627-97.611-77.992-177.241-175.599-177.854-.394-.002-.773-.002-1.167-.002-97.062.006-176.067 78.389-176.693 175.599-.617 97.608 78 177.231 175.598 177.857.385.005.762.005 1.149.005 32.445 0 62.846-8.792 89.003-24.078l107.42 107.435.01-.01 2.688 2.685c8.121 8.125 21.289 8.118 29.412 0l34.556-34.555c8.118-8.118 8.122-21.294.001-29.414zM301.504 302.017c-24.832 24.667-57.781 38.251-92.77 38.251l-.861-.004c-72.59-.464-131.275-59.904-130.816-132.499.226-35.015 14.03-67.888 38.875-92.563 24.833-24.667 57.773-38.252 92.751-38.252h.882c35.164.223 68.138 14.121 92.847 39.146 24.705 25.028 38.189 58.178 37.963 93.354-.223 35.013-14.027 67.889-38.871 92.567zM238.365 115.8h-54.219v61.519H122.63v54.222h61.516v61.519h54.219v-61.52h61.52v-54.222h-61.52V115.8z"/></svg>