<svg xmlns="http://www.w3.org/2000/svg" viewBox="0 0 512 512"><path d="M258.809 69.162C138.25 66.784 39.013 141.076 37.163 235.09c-.645 32.685 10.575 63.449 30.542 89.779h-.006c34.338 44.114-3.139 119.951-3.139 119.951l110.65-47.653c23.839 7.533 49.743 11.921 76.89 12.456 120.557 2.375 219.793-71.911 221.644-165.929 1.854-94.015-94.377-172.155-214.935-174.532zm-96.684 197.266c-14.852 0-26.891-12.041-26.891-26.891 0-14.851 12.039-26.893 26.891-26.893s26.893 12.042 26.893 26.893c0 14.85-12.041 26.891-26.893 26.891zm89.638 0c-14.853 0-26.891-12.041-26.891-26.891 0-14.851 12.039-26.893 26.891-26.893s26.892 12.042 26.892 26.893c-.001 14.85-12.04 26.891-26.892 26.891zm89.637 0c-14.854 0-26.893-12.041-26.893-26.891 0-14.851 12.039-26.893 26.893-26.893 14.852 0 26.891 12.042 26.891 26.893 0 14.85-12.039 26.891-26.891 26.891z"/></svg>