<svg xmlns="http://www.w3.org/2000/svg" viewBox="0 0 512 512"><path d="M239.408 400.078h27.732v-38.637h-27.732v38.637zM398.535 38.141H289.933v12.911h-52.355V68.32h-21.519V38.14H113.047c-13.373 0-24.164 10.822-24.164 24.162v386.011c0 13.359 10.791 24.169 24.164 24.169h285.488c13.343 0 24.164-10.81 24.164-24.169V62.303c0-13.34-10.821-24.162-24.164-24.162zM252.621 66.428h36.296v30.771H267.4V79.933h-14.779V66.428zm0 57.027h36.296v30.771H267.4v-17.262h-14.779v-13.509zm0 55.986h36.296v30.771H267.4v-17.264h-14.779v-13.507zm0 58.471h36.296v13.524h-36.296v-13.524zM216.059 94.577h36.332v13.511h-14.813v17.266h-21.519V94.577zm0 55.989h36.332v13.507h-14.813v17.263h-21.519v-30.77zm0 58.471h36.332v13.521h-14.813v17.283h-21.519v-30.804zm59.549 207.754h-44.702c-13.899 0-23.513-11.214-21.454-24.951l7.522-49.15c2.062-13.707 15.142-24.919 29.007-24.919h14.552c13.866 0 26.913 11.212 29.005 24.919l7.491 49.15c2.124 13.737-7.522 24.951-21.421 24.951zm-8.895-115.7h-27.827l-33.324-32.326h94.475l-33.324 32.326z"/></svg>