<svg xmlns="http://www.w3.org/2000/svg" viewBox="0 0 512 512"><path d="M439.554 348.795a60.168 60.168 0 0 0-1.768-9.686h.002l-32.572-125.843c-3.986-33.326-31.947-58.288-65.629-58.288-2.18 0-4.387.109-6.566.324-17.592 1.735-33.457 10.219-44.672 23.887-1.514 1.849-2.881 3.784-4.178 5.756h-56.906c-1.135-1.668-2.322-3.31-3.617-4.889-11.213-13.667-27.078-22.15-44.672-23.886a67.058 67.058 0 0 0-6.562-.323c-33.684 0-61.645 24.961-65.631 58.287L74.21 339.978h.002a60.266 60.266 0 0 0-1.768 9.685c-1.848 18.721 4.994 37.035 19.271 51.566 13.703 13.95 32.75 22.768 53.627 24.826 3.07.303 6.179.457 9.24.457h.002c40.561-.001 73.736-26.281 77.178-61.13.02-.203.023-.404.043-.606h.002l.006-.125c.131-1.488.195-2.973.213-4.455l1.072-22.303h45.842l1.029 21.435c.019 1.482.084 2.967.213 4.455l.008.124h.002c.02.203.023.404.043.607 3.439 34.85 36.619 61.129 77.178 61.13h.002c3.061 0 6.17-.154 9.24-.457 20.881-2.06 39.926-10.876 53.627-24.825 14.278-14.534 21.12-32.848 19.272-51.567zm-231.877 14.356c-2.299 22.344-25.086 39.177-53.094 39.179a70.32 70.32 0 0 1-6.865-.34c-15.252-1.505-29.012-7.793-38.75-17.708-9.166-9.33-13.588-20.781-12.459-32.245 2.211-22.415 25.045-39.318 53.109-39.318 2.273 0 4.586.113 6.873.34 15.248 1.504 29.008 7.791 38.748 17.705 8.725 8.881 13.092 19.687 12.524 30.593l-.086 1.794zm195.354 20.263c-9.738 9.914-23.5 16.203-38.748 17.707-2.287.226-4.596.34-6.867.34-28.008-.001-50.793-16.834-53.092-39.178l-.086-1.796c-.57-10.906 3.797-21.712 12.521-30.593 9.74-9.913 23.498-16.2 38.75-17.705a70.426 70.426 0 0 1 6.871-.34c28.066 0 50.898 16.904 53.109 39.319 1.132 11.465-3.292 22.916-12.458 32.246zM292.517 146.706c10.822-10.956 24.988-17.742 40.504-19.273a67.09 67.09 0 0 1 6.562-.324c12.385 0 23.986 3.386 33.916 9.308l-3.914-16.414c-.15-1.245-1.238-6.238-1.238-6.238a38.984 38.984 0 0 0-37.596-28.275c-1.287 0-2.594.064-3.883.191-19.061 1.88-33.584 17.207-35.16 35.644 0 0-.115 5.005-.025 6.209l.834 19.172zm-113.541-18.405c15.518 1.532 29.686 8.318 40.508 19.273l.832-19.174c.092-1.204-.025-6.209-.025-6.209-1.576-18.436-16.1-33.764-35.162-35.644a39.7 39.7 0 0 0-3.881-.191 38.991 38.991 0 0 0-37.598 28.275s-1.086 4.992-1.234 6.238l-3.918 16.414c9.93-5.922 21.533-9.308 33.918-9.308 2.177.002 4.384.11 6.56.326z"/></svg>