<svg xmlns="http://www.w3.org/2000/svg" viewBox="0 0 512 512"><path d="M255.854 38.094c120.295 0 217.811 97.519 217.811 217.809 0 120.297-97.516 217.815-217.811 217.815-120.293 0-217.81-97.519-217.81-217.815 0-120.291 97.518-217.809 217.81-217.809m0 37.557c-99.391 0-180.253 80.86-180.253 180.251 0 99.395 80.862 180.256 180.253 180.256 99.391 0 180.251-80.861 180.251-180.256 0-99.39-80.86-180.251-180.251-180.251zm-57.097 58.14c14.748-9.496 32.873-14.247 54.371-14.247 28.244 0 51.714 6.748 70.399 20.25 18.686 13.497 28.029 33.496 28.029 59.995 0 16.246-4.051 29.933-12.153 41.058-4.739 6.751-13.837 15.375-27.301 25.87l-13.272 10.312c-7.232 5.628-12.032 12.188-14.398 19.69-1.497 4.748-2.309 12.122-2.433 22.12h-50.806c.745-21.122 2.741-35.716 5.979-43.778 3.24-8.062 11.591-17.34 25.048-27.84l13.648-10.686c4.484-3.373 8.1-7.062 10.843-11.062 4.982-6.876 7.476-14.438 7.476-22.688 0-9.499-2.774-18.154-8.324-25.966-5.547-7.811-15.68-11.718-30.393-11.718-14.465 0-24.725 4.812-30.77 14.437-6.048 9.627-9.069 19.622-9.069 29.999h-54.185c1.501-35.62 13.938-60.87 37.311-75.746zm31.123 210.731h56.055v54.184H229.88v-54.184z"/></svg>