<svg xmlns="http://www.w3.org/2000/svg" viewBox="0 0 512 512"><path d="M340.908 89.496H171.841c-13.343 0-24.167 10.826-24.167 24.167v308.703l142.417.032 74.968-74.971V113.663c.001-13.341-10.825-24.167-24.151-24.167zm-65.582 182.281h-39.767v-90.703h91.402v39.782h-51.635v50.921zm-93.217-90.703h35.988v39.782h-35.988v-39.782zm53.45-17.443v-36.725h39.767v36.725h-39.767zm91.402-18.215v18.215h-34.189v-36.725h15.664c10.218.001 18.525 8.293 18.525 18.51zm-126.344-18.509h17.48v36.725h-35.988v-18.215c0-10.218 8.288-18.51 18.508-18.51zm-18.508 126.359v-14.945h35.988v33.457h-17.48c-10.22-.001-18.508-8.309-18.508-18.512zm126.327 18.511h-15.664v-33.472h34.189v14.96c0 10.204-8.307 18.512-18.525 18.512z"/></svg>