<svg xmlns="http://www.w3.org/2000/svg" viewBox="0 0 512 512"><path d="M271.209 133.183c8.49 0 14.807 2.68 15.562 11.761l1.009 21.27c1.929 7.745 4.196 10.188 6.28 10.188 3.555 0 6.595-7.094 6.595-7.094l1.704-9.542c1.418-8.013 5.828-10.79 12.541-10.79 1.986 0 4.174.244 6.549.669 10.402 1.848 20.418 6.429 18.58 16.827l-1.322 7.415v-.008s-6.795 24.79-3.418 24.79c.811 0 2.2-1.414 4.404-4.928-.002-.02-.002-.02.02-.031l5.217-5.824c2.416-3.854 5.283-5.344 8.479-5.344 4.227 0 9.028 2.604 14.131 5.797 8.947 5.607 5.663 15.648.381 36.201l-37.268 117.543-.479 36.15H219.471l-.287-37.619s-21.283-11.607-39.887-45.162l-40.727-74.061c-2.699-10.217 3.399-20.681 13.608-23.377a19.15 19.15 0 0 1 4.898-.635c8.471 0 16.216 5.66 18.474 14.24l11.649 26.216c3.013 2.362 5.016 3.677 6.306 3.677 4.491 0 .399-15.928.399-59.352l-1.302-28.716c-.388-10.567 7.867-19.427 18.413-19.81.232-.008.468-.012.699-.012 10.252 0 18.739 8.119 19.116 18.438 0 0 .488 9.949.488 11.242 0 8.029 6.401 14.746 11.595 14.746 3.548 0 6.534-3.131 6.534-11.117l-.805-18.822c-.873-10.52 7.847-13.865 18.382-14.743a51.413 51.413 0 0 1 4.185-.183m0-25.038c-1.986 0-4.097.091-6.27.272-11.598.962-20.337 4.271-26.722 8.931-7.377-5.518-16.55-8.764-26.501-8.764-.525 0-1.059.01-1.587.029-11.802.43-22.718 5.416-30.753 14.053-8.038 8.643-12.227 19.897-11.793 31.698l.003.104.004.109.876 19.254a44.026 44.026 0 0 0-11.39-1.496c-3.806 0-7.605.495-11.294 1.467-11.401 3.015-20.953 10.287-26.888 20.48-5.936 10.196-7.547 22.094-4.535 33.498l.785 2.981 1.484 2.694 40.729 74.062c12.76 23.014 26.89 37.546 36.885 45.892l.19 25.012.188 24.848h160.259l.328-24.707.432-32.439 36.148-114.014.211-.666.173-.673.937-3.622c2.698-10.42 4.831-18.651 5.032-26.732.483-19.229-10.634-29.111-17.307-33.293-4.897-3.066-10.115-5.984-15.861-7.789-1.857-14.672-12.64-29.634-39.144-34.345-3.973-.707-7.55-1.053-10.93-1.053-3.225 0-6.307.328-9.217.966-6.099-9.422-17.075-16.757-34.472-16.757z"/></svg>