<svg xmlns="http://www.w3.org/2000/svg" viewBox="0 0 512 512"><path d="M176.104 193.544c7.332 0 14.13-2.278 19.737-6.149l56.162 33.617c-.075.933-.14 1.865-.14 2.818 0 19.226 15.588 34.812 34.814 34.812s34.812-15.586 34.812-34.812c0-4.352-.837-8.494-2.289-12.336l65.131-69.887 38.255 33.073 23.125-123.154-118.525 40.68 33.846 29.259-64.329 69.032a34.766 34.766 0 0 0-10.025-1.48c-6.961 0-13.431 2.065-18.872 5.584l-56.976-34.104c.029-.59.088-1.168.088-1.765 0-19.226-15.585-34.812-34.814-34.812-19.225 0-34.811 15.585-34.811 34.812 0 3.328.496 6.535 1.366 9.582l-46.381 42.625v41.801l67.073-61.637a34.69 34.69 0 0 0 12.753 2.441zm0 124.946c9.608 0 18.305-3.894 24.605-10.186l100.027 37.271c1.762 17.577 16.597 31.301 34.633 31.301 19.229 0 34.814-15.591 34.814-34.817 0-4.702-.943-9.183-2.634-13.273l58.639-66.622 22.638 17.463 10.931-83.692-78.181 31.809 20.195 15.584-57.349 65.15c-2.893-.778-5.915-1.23-9.054-1.23-9.242 0-17.619 3.625-23.852 9.502l-100.929-37.605c-2.225-17.083-16.794-30.282-34.485-30.282-19.225 0-34.811 15.585-34.811 34.812 0 .961.063 1.907.144 2.847L96.277 314.31v36.145l60.987-37.528c5.436 3.505 11.892 5.563 18.84 5.563zM72.282 438.257v-.39h-1.044V42.352h-29.73V469.03h426.675v-30.773H72.282z"/></svg>