<svg xmlns="http://www.w3.org/2000/svg" viewBox="0 0 512 512"><path d="M151.441 322.712h52.438v13.996h-52.438zm62.463 0h68.355v13.996h-68.355zm-62.463 21.44h140.832v13.99H151.441zm297.065-177.674h-35.428v-41.951c0-8.758-7.607-15.861-16.996-15.861H63.494c-9.387 0-16.996 7.104-16.996 15.861v205.15c0 8.754 7.609 15.848 16.996 15.848h35.428v41.963c0 8.751 7.607 15.846 16.998 15.846h332.586c9.389 0 16.996-7.095 16.996-15.846V182.339c0-8.762-7.607-15.861-16.996-15.861zM98.922 182.339V317.11H74.914V137.082h309.75v29.396H115.92c-9.391 0-16.998 7.099-16.998 15.861zM440.318 378.15H124.107v-81.535h316.211v81.535zm0-148.652H124.107v-37.836h316.211v37.836z"/></svg>