<svg xmlns="http://www.w3.org/2000/svg" viewBox="0 0 512 512"><path d="M438.474 117.1c0-36.855-50.238-48.518-66.746-52.348-31.23-7.25-72.334-11.242-115.73-11.242-43.395 0-84.496 3.992-115.727 11.242-16.508 3.83-66.744 15.492-66.744 52.348 0 13.449 9.605 24.643 22.328 27.127l53.32 251.887c-3.867 4.383-6.23 10.121-6.23 16.426 0 19.967 15.898 33.471 47.252 40.139 17.645 3.75 41.014 5.812 65.801 5.812 24.789 0 48.158-2.062 65.803-5.812 31.354-6.668 47.252-20.172 47.252-40.139 0-6.305-2.365-12.043-6.232-16.426l53.326-251.887c12.719-2.485 22.327-13.678 22.327-27.127zm-312.676 12.556a27.06 27.06 0 0 0 1.182-2.6c3.309-1.84 8.799-3.941 16.309-6.047l76.107 35.805-79.559 39.162-14.039-66.32zm127.295 43.012l82.639 38.881L256 249.735l-80.828-38.709 77.921-38.358zm-30.787 93.201l-61.445 29.428-13.863-65.494 75.308 36.066zm33.693 16.137l69.279 33.178-69.279 33.18-69.277-33.18 69.277-33.178zM222.308 364.5l-42.49 20.348-9.586-45.291 52.076 24.943zm33.691 16.133l50.756 24.309c-12.172 2.127-29.57 3.824-50.758 3.824-21.186 0-38.582-1.697-50.754-3.824l50.756-24.309zm76.178 4.213L289.69 364.5l52.074-24.939-9.587 45.285zm18.959-89.551l-61.443-29.426L365 229.805l-13.864 65.49zm-64.633-139.072l75.223-37.025c11.164 2.689 19.035 5.492 23.293 7.859.344.893.75 1.752 1.182 2.6l-14.145 66.816-85.553-40.25zm25.293-44.891l-58.99 29.037-60.092-28.273c17.965-1.988 39.156-3.285 63.283-3.285 20.861 0 39.514.972 55.799 2.521z"/></svg>