<svg xmlns="http://www.w3.org/2000/svg" viewBox="0 0 512 512"><path d="M73.304 302.953H49.622v128.312H462.378V302.953H73.304zM438.7 407.584H73.304v-80.952H438.7v80.952zm-46.465-21.703c10.307 0 18.664-8.356 18.664-18.661 0-10.304-8.357-18.66-18.664-18.66-10.303 0-18.658 8.356-18.658 18.66s8.356 18.661 18.658 18.661zM214.55 352.596h23.676v31.968H214.55zm-115.811-.005h23.682v31.973H98.739zm57.899.005h23.688v31.962h-23.688zm-16.336-247.571h7.709v-24.29H123.72l-4.617 11.817-3.797 9.236 22.627 8.847zm307.16 129.85l-22.199 8.676-8.677-22.201 22.199-8.675zm-74.266-124.539l22.198-8.677-8.176-20.924h-23.836v23.837h7.56zm56.913 80.118l-22.201 8.676-8.677-22.204 22.201-8.676zm-39.555-35.717l22.199-8.682-4.963-12.693c-.002-.006-.006-.01-.008-.019l-.004-.01a.157.157 0 0 0-.01-.027l-.002-.005c-.002-.004-.006-.014-.01-.019l-.004-.02a2.658 2.658 0 0 1-.047-.114l-.006-.009c-.016-.043-.029-.084-.047-.126h-.002c-.006-.019-.016-.041-.021-.064h-.002l-.021-.057-.004-.013c-1.869-4.776-3.527-9.022-3.527-9.022l-22.201 8.675 8.68 22.205zm71.806 118.396l-.002-.006c-.006-.009-.01-.027-.016-.04l-.006-.015v-.004c-.004-.009-.008-.024-.014-.037-.002-.006-.004-.006-.008-.01 0-.006-.002-.009-.004-.009l-.002-.006v-.004l-.012-.032h-.002l-.625-1.6-5.525-14.314-22.623 8.847 4.48 11.631.088.228v2.956h24.287v-7.538c.002 0-.006-.019-.016-.047zM73.218 212.652l22.201 8.674-8.674 22.2-22.201-8.674zm17.342-44.399l22.2 8.682-8.682 22.201-22.201-8.682zm39.566-35.72l-22.199-8.675-3.529 9.022-.004.013-.021.057c-.01.023-.016.046-.025.064-.018.042-.033.083-.049.126l-.004.009c-.014.041-.029.078-.043.114l-.008.02a.365.365 0 0 1-.008.019l-.002.005c-.006.004-.006.019-.012.027l-.004.01-.008.019-4.963 12.693 22.203 8.682 8.676-22.205zM73.911 277.762l.088-.228 4.48-11.631-22.625-8.847-5.527 14.314-.623 1.6-.014.032v.004l-.002.006c-.002 0-.002.003-.006.009l-.004.01a.367.367 0 0 1-.014.037v.004c-.002.006-.006.006-.006.015h-.002c-.004.013-.012.031-.016.04l-.002.006c-.012.028-.018.047-.018.047v7.538h24.289v-2.956zM315.54 80.735h23.836v23.837H315.54zm-47.844 0h23.838v23.837h-23.838zm-47.84 0h23.838v23.837h-23.838zm-47.841 0h23.836v23.837h-23.836z"/></svg>