<svg xmlns="http://www.w3.org/2000/svg" viewBox="0 0 512 512"><path d="M36.586 169.321v85.236h439.609v-85.236H36.586zm55.983 62.057H67.62V197.73h24.95v33.648zm60.956 0h-24.918V197.73h24.918v33.648zm60.991 0H189.58V197.73h24.936v33.648zm212.039 1.405c-10.859 0-19.654-8.791-19.654-19.649 0-10.848 8.795-19.64 19.654-19.64 10.855 0 19.651 8.792 19.651 19.64 0 10.858-8.796 19.649-19.651 19.649zm-156.66 155.582H244.96v58.223H44.09v24.938h426.676v-24.938H269.895v-58.223zm92.513-347.041H150.321l-86.79 97.347h385.717l-86.84-97.347zM36.586 370.492h439.609v-85.227H36.586v85.227zm389.969-61.054c10.855 0 19.651 8.788 19.651 19.64 0 10.854-8.796 19.647-19.651 19.647-10.859 0-19.654-8.794-19.654-19.647-.001-10.851 8.794-19.64 19.654-19.64zm-236.975 4.248h24.936v33.645H189.58v-33.645zm-60.973 0h24.918v33.645h-24.918v-33.645zm-60.987 0h24.95v33.645H67.62v-33.645z"/></svg>