<svg xmlns="http://www.w3.org/2000/svg" viewBox="0 0 512 512"><path d="M445.564 89.081H66.437c-9.34 0-16.913 7.572-16.913 16.911v316.927h412.951V105.992c.001-9.339-7.57-16.911-16.911-16.911zM143.066 120.65h289.6v31.982h-289.6V120.65zm-45.847-2.823c10.391 0 18.814 8.427 18.814 18.815 0 10.39-8.423 18.814-18.814 18.814-10.395 0-18.816-8.424-18.816-18.814 0-10.388 8.422-18.815 18.816-18.815zM433.37 393.814h-42.053v-51.838H232.138v51.838h-41.742v-53.202h-69.349v53.202H78.631V196.107H433.37v197.707zm-312.323-160.86h270.27v66.74h-270.27z"/></svg>