<svg xmlns="http://www.w3.org/2000/svg" viewBox="0 0 512 512"><path d="M173.896 109.807h158.748v49.727H173.896zm0 93.795h158.748v23.68H173.896zm0 46.951h158.748v23.68H173.896zM115.059 51.6v300.77l6.936 6.936 79.43 79.432 6.936 6.938h47.656v-23.678h-16.674c-35.182 0-18.23-83.396-18.23-83.396s-81.328 19.768-82.375-17.523V75.28h234.525v346.719h-31.33v23.678h55.01V51.6H115.059zm183.916 265.564c-22.643 0-41 18.355-41 40.998 0 22.639 18.357 40.996 41 40.996 22.639 0 40.996-18.357 40.996-40.996 0-22.642-18.358-40.998-40.996-40.998zm-21.719 97.545V460.4l21.717-10.379 21.719 10.379v-45.691a60.269 60.269 0 0 1-21.717 4.041 60.263 60.263 0 0 1-21.719-4.041z"/></svg>