<svg xmlns="http://www.w3.org/2000/svg" viewBox="0 0 512 512"><path d="M255.536 46.393c-115.383.007-208.902 93.535-208.917 208.92.015 115.39 93.534 208.908 208.917 208.922 115.39-.014 208.912-93.532 208.925-208.922-.014-115.385-93.535-208.914-208.925-208.92zm124.712 333.628c-9.127 9.122-19.263 17.203-30.182 24.152l-92.489-147.381-92.056 150.18a177.407 177.407 0 0 1-34.69-26.951c-31.632-31.65-51.235-75.108-51.62-123.305h178.254L171.991 99.955c24.858-13.398 53.282-21.008 83.544-21.012 31.783.004 61.515 8.424 87.238 23.104l-85.114 154.67h174.208c-.384 48.196-19.986 91.654-51.619 123.304z"/></svg>