<svg xmlns="http://www.w3.org/2000/svg" viewBox="0 0 512 512"><path d="M452.418 126.255h-67.577V52.619H125.674v73.636H58.046c-11.745 0-21.272 9.526-21.272 21.271V328.15h88.9v30.775l98.66 98.659h160.507v-128.41h88.851V147.525c-.001-11.744-9.528-21.27-21.274-21.27zm-301.7-48.596h209.087v48.596H150.718V77.659zm258.891 216.747H384.84V244.89h-25.036v187.654H257.098c-37.202 0-19.275-88.18-19.275-88.18s-86.003 20.9-87.108-18.533V244.89h-25.04v48.492h-24.811v-84.357H409.61v85.381zm17.873-115.994c-9.4 0-17.016-7.616-17.016-17.014 0-9.396 7.615-17.014 17.016-17.014 9.394 0 17.013 7.617 17.013 17.014 0 9.398-7.619 17.014-17.013 17.014zm-97.336 69.932H186.215v25.047h143.932v-25.047zm-143.929 74.157h143.928v-25.036H186.217v25.036z"/></svg>