<svg xmlns="http://www.w3.org/2000/svg" viewBox="0 0 512 512"><path d="M392.395 243.232l-13.322-13.321-71.176-71.178 20.873-20.876a57.271 57.271 0 0 0 16.82-40.602 57.305 57.305 0 0 0-16.82-40.613 57.31 57.31 0 0 0-40.604-16.82 57.325 57.325 0 0 0-40.613 16.826L122.468 182.303a58.387 58.387 0 0 0-5.165 4.59 57.332 57.332 0 0 0-16.813 40.606 57.331 57.331 0 0 0 16.819 40.606l84.497 84.494-20.876 20.871c-11.193 11.176-16.833 25.959-16.819 40.613a57.316 57.316 0 0 0 16.827 40.611 57.302 57.302 0 0 0 40.557 16.818h.054c14.63 0 29.411-5.629 40.597-16.822l.005.004 130.244-130.246a57.29 57.29 0 0 0 16.816-40.61 57.273 57.273 0 0 0-16.816-40.606zM267.308 76.354c5.782-5.766 13.255-8.608 20.857-8.622 7.601.014 15.068 2.847 20.871 8.646 5.79 5.802 8.63 13.276 8.649 20.878-.02 7.596-2.859 15.066-8.649 20.869l-8.251 8.252-87.153 87.154a57.213 57.213 0 0 0-15.112-26.645 57.2 57.2 0 0 0-26.283-15.014l95.071-95.518zm-24.895 358.601c-5.796 5.799-13.282 8.628-20.918 8.652-7.568-.024-15.034-2.861-20.823-8.652-5.795-5.793-8.637-13.274-8.65-20.871.013-7.607 2.855-15.072 8.644-20.869l20.877-20.879 7.554 7.557 13.323 13.314c5.79 5.805 8.629 13.277 8.644 20.877-.015 7.597-2.855 15.07-8.651 20.871zm130.246-130.236l-95.458 95.453c-2.439-9.779-7.424-19.085-15.047-26.701l-13.322-13.314-111.789-111.788c-5.788-5.805-8.63-13.275-8.642-20.87.012-7.603 2.854-15.077 8.642-20.872 5.803-5.795 13.27-8.634 20.878-8.656 7.594.022 15.068 2.861 20.871 8.648 5.789 5.797 8.63 13.271 8.65 20.88-.021 7.595-2.862 15.075-8.65 20.87l19.736 19.736 89.632-89.632 71.184 71.171 13.315 13.324c5.792 5.795 8.633 13.272 8.645 20.87-.012 7.6-2.853 15.074-8.645 20.881zm-91.127-101.607l-74.458 74.458 19.736 19.732 74.456-74.447-19.734-19.743zm29.779 29.783l-74.453 74.46 19.73 19.737 74.461-74.459-19.738-19.738zm-44.674 104.242l19.738 19.734 74.454-74.453-19.731-19.734-74.461 74.453z"/></svg>