<svg xmlns="http://www.w3.org/2000/svg" viewBox="0 0 512 512"><path d="M326.723 172.484V88.877H182.15v83.605c-25.638 20.956-42.013 52.819-42.015 88.522.002 35.704 16.376 67.567 42.015 88.526v75.004h144.572v-75.006c25.633-20.961 42.004-52.82 42.01-88.524-.005-35.698-16.377-67.561-42.009-88.52zm-9.173 151.641c-16.194 16.173-38.429 26.136-63.113 26.142-24.691-.006-46.929-9.969-63.119-26.142-16.172-16.199-26.136-38.432-26.142-63.12.006-24.686 9.97-46.925 26.142-63.113 16.189-16.173 38.428-26.134 63.119-26.142 24.684.008 46.918 9.969 63.113 26.142 16.173 16.188 26.138 38.428 26.142 63.113-.004 24.688-9.969 46.921-26.142 63.12zm-51.286-75.638v-46.856h-25.036l-.006 71.898h84.494v-25.042h-59.452z"/></svg>