<svg xmlns="http://www.w3.org/2000/svg" viewBox="0 0 512 512"><path d="M421.889 460.736c-.459-83.039-22.836-142.711-55.193-183.683-32.996-41.698-76.687-64.476-120.131-71.964-63.36-10.927-96.707-27.832-114.955-43.928-9.958-10.05-14.437-38.093-14.437-38.093s26.747 16.498 37.509 22.444c13.506 9.217 43.304 24.194 96.411 33.294 49.38 8.449 99.282 34.595 136.514 81.712 6.736 8.502 13.031 17.707 18.836 27.572 43.894-96.138-51.242-170.037-158.588-184.229C129.958 88.295 73.417 51.986 73.417 51.986c-11.3 114.114 30.167 238.013 127.971 278.382 70.372 29.072 125.688 34.927 164.52 8.751 15.96 34.277 25.736 73.843 25.77 120.113v1.631l30.211-.127z"/></svg>