<svg xmlns="http://www.w3.org/2000/svg" viewBox="0 0 512 512"><path d="M272.366 99.513c-26.162-91.959-3.893-28.323-120.474 4.865-116.547 33.174-131.33-33.281-104.971 59.31 17.625 61.947 86.071 184.552 167.76 161.3 81.72-23.247 75.311-163.522 57.685-225.475zm-155.822 83.255c-14.587 1.882-26.098 9.75-28.845 18.855-1.046-1.717-1.732-3.566-1.962-5.535-1.47-11.381 11.677-22.434 29.368-24.704 17.693-2.267 33.192 5.128 34.63 16.48.293 1.976.099 3.939-.492 5.863-4.937-8.112-18.084-12.823-32.699-10.959zm87.345 97.601c-24.528 6.998-47.091 3.336-54.056-21.077l88.622-26.195c6.933 24.405-10.04 40.289-34.566 47.272zm20.732-128.351c-13.407 6.095-22.107 17.021-22.04 26.512-1.471-1.327-2.715-2.89-3.499-4.7-4.775-10.437 4.545-24.88 20.8-32.247 16.218-7.389 33.222-4.922 37.964 5.503.82 1.822 1.21 3.753 1.21 5.762-7.095-6.296-21.026-6.931-34.435-.83zm134.861 107.717c-24.297-8.43-42.25-17.882-55.753-26.701-4.614 30.377-13.345 53.044-24.104 69.974a50.065 50.065 0 009.778 1.886c14.685 1.293 27.603-3.94 32.244-12.21.653 1.858.917 3.834.72 5.809-1.013 11.425-16.221 19.408-34.01 17.814-5.625-.487-10.824-1.912-15.273-3.955-15.401 19.749-33.714 29.826-50.032 34.811-.916 55.902 13.245 112.614 61.25 129.292 80.282 27.831 155.529-90.703 176.62-151.556 31.363-90.343 13.082-25.44-101.44-65.164zm-8.794 171.894l-87.606-29.363c8.339-23.987 31.358-27.266 55.46-18.901 24.099 8.37 40.45 24.278 32.146 48.264zm68.932-76.734c-6.899 9.167-24.001 7.917-38.261-2.804-14.225-10.716-20.207-26.839-13.339-36.002a14.173 14.173 0 014.478-3.828c-2.156 9.264 3.99 21.795 15.729 30.651 11.807 8.851 25.54 11.259 33.814 6.653-.424 1.946-1.209 3.755-2.421 5.33z"/></svg>