<svg xmlns="http://www.w3.org/2000/svg" viewBox="0 0 512 512"><path d="M245.627 109.839c-.154 0-.352-.011-.533-.017-.023.006-.045.014-.07.017h.603zM256 49.523C141.967 49.523 49.523 141.966 49.523 256S141.966 462.478 256 462.478 462.477 370.034 462.477 256 370.033 49.523 256 49.523zm29.582 33.756c-2.758 8.314-17.109 2.741-23.031 2.755 4.66-1.821 11.615-4.223 15.537-7.107 2.047-1.509-.033-2.51 2.781-3.987 3.605.492 7.184 1.067 10.719 1.766-4.186 1.408-8.166 3.324-11.74 5.692 1.914.292 3.822.589 5.734.881zm-67.008-6.06c-2.711 1.571-8.014 6.727-4.922 9.929 3.016 3.126 6.615-1.681 9.635-3.202 7.01-3.536 16.391-3.895 24.16-5.404-1.369 3.653-12.467 2.337-16.357 3.755-4.885 1.778-2.705 3.024-6.121 8.477 1.461-.156 3.041.694 4.516.663v.992c-3.357-.291-6.564-1.886-7.273 2.091-4.299-6.447-7.111-5.934-11.682-.218 4.529 2.518 8.971 5.653 5.402 9.973-4.342 5.255-6.975-1.212-2.535-3.913-4.033-1.867-7.191-5.049-10.361-.99 1.357-.131 2.82.558 4.188.552-.773 1.108-1.555 4.717-2.285 5.129-1.742.982-8.166-1.175-10.086-1.41-4.789-.585-9.521-.441-14.412-.194.891 5.979-5.814.259-8.262-1.213 4.424-4.477 9.799-2.78 14.91-2.078 4.275.585 10.598.544 11.098-4.862-4.656-.983-6.932-.702-9.32-4.244-.941-1.395-1.566-2.854-1.797-4.311a181.04 181.04 0 0130.857-9.52h.647zM73.203 256c0-43.159 15.068-82.841 40.172-114.148 4.311 2.981 8.879 6.541 10.646 8.061 3.082 2.643 4.588 5.813 6.527 9.032.102.17 1.799 2.822 2.477 3.898 2.102 2.103 3.781 4.458 4.252 7.308.57 3.431-.717 6.287-1.035 9.855-.977 10.948.576 21.202 9.119 28.888 2.375 2.135 5.457 3.23 7.816 5.483 2.439 2.326 2.154 3.915 3.635 6.369 3.914 6.491 9.148 12.585 13.658 18.717 3.943 5.354 5.596 4.313 1.717-1.222-2.635-3.762-5.91-7.456-8.094-11.494-.227-.423-2.439-5.709-1.719-5.554 6.102 1.302 7.346 5.462 11.307 10.351 3.908 4.819 7.23 7.522 9.508 13.311 2.658 6.75 6.709 10.035 13.359 13.012 3.271 1.464 8.611 5.345 12.111 5.804 4.117.542 6.312-2.136 10.211-.271 2.604 1.245 4.59 5.219 7.812 6.171 3.088.909 5.141-.26 8.027 1.693 3.451 2.336 4.664 6.349 7.902 8.814 2.32 1.768 5.668 3.973 8.623 4.454 2.121.347 4.447-1.239 6.559-.552 3.785 1.231 4.66 5.862 3.514 9.55-1.275 4.139-5.156 6.698-6.709 10.804-1.404 3.714-.508 6.876-.984 10.416-.49 3.661-3.428-.035-.494 6.172 1.373 2.901 3.381 5.522 5.137 8.188 3.463 5.256 5.945 9.855 10.611 14.103 3.295 2.994 10.494 6.496 12.129 10.947 1.451 3.956.248 12.653-.486 16.833-1.541 8.739-1.316 19.253-3.729 27.366-2.35 7.893-5.078 10.25-3.066 18.868.859 3.679 1.521 1.893-.004 6.629-.445 1.372-.01 1.918-.537 3.304-1.107 2.933-3.727 4.661-4.84 7.69 4.164.198 3.852 1.644 2.541 3.293-4.912.398-9.863.657-14.877.657-100.794-.002-182.796-82.004-182.796-182.8zM291.49 435.311c-1.18-1.231-2.438-2.512-2.436-3.383 0-.956 3.734-5.747 4.242-6.943.805-1.905 1.361-6.037 2.527-7.509 1.994-2.52 6.285-1.583 5.461-6.268 9.57-.102 13.693-1.551 15.27-11.297-1.701-.857-1.363-.361-1.637-1.846.326 1.767 7.17-.713 7.816.523.5.952 9.18-10.906 10.125-11.903 2.463-2.604 4.611-4.579 6.172-7.707.613-1.227 1.27-4.964 2.572-6.786a8.31 8.31 0 01-.311.938c3.09-4.895 7.018-4.305 11.482-6.288 4.438-1.974 1.232-1.437 4.494-4.528 3.881-3.674 4.764-1.567 5.867-7.587.816-4.447-.258-8.503 1.172-12.518 1.807-5.064 6.172-6.715 9.068-11.019 2.213-3.285 4.285-8.645 1.293-11.943-2.486-2.743-9.885-5.006-13.24-5.807-3.951-.939-8.512-1.023-12.219-2.531-4.355-1.772-7.977-6.38-10.18.778-.729-.516-3.721-2.177-3.721-2.983 0 1.575 4.23-1.392 4.824-2.087-1.816.131-8.023 1.519-8.918.898 0 0 0 .006-.002.008.436.317 1.537.174 2.029.252-1.891 1.025-2.295.678-2.029-.252-.012-.011-.037-.011-.049-.024.01.01.041.01.051.017.521-1.793 3.568-5.776 3.631-6.57.33-4.432-6.104-9.477-9.594-10.475-4.775-1.362-7.479-.754-11.566-3.75-4.961-3.633-9.777-7.652-16.066-8.353-1.332-.148-2.775.581-4.17.375-3.4-.505-4.527-2.705-7.375-3.42-3.496-.881-4.824 2.136-6.914 2.127-3.074-.011-3.811-3.235-8.305-.522-6.662 4.019-3.041 6.532-10.623 4.6-4.018-1.021-8.533 1.438-12.373-1.222-3.459-2.395-4.246-9.032-.873-11.826-1.715 1.419-1.654-3.085-2.904-3.906-1.975-1.306-5.209.217-7.49-.329-3.09-.738-4.885-1.021-4.184-4.023.756-3.242 9.34-12.075.566-11.841-4.777.126-6.301 7.224-11.369 8.261-5.699 1.166-10.668-.783-13.615-5.821-6.152-10.506 3.613-23.448 13.582-24.359 7.801-.713 19.215-6.476 24.928 2.134 1.66 2.504 5.76 12.195 7.869 5.918.641-1.907-1.656-10.203-2.383-13.681-.023.037-.053.064-.074.1-.031-.372-.07-.744-.113-1.116.035.256.104.613.188 1.017 1.588-2.46 4.152-4.029 6.178-6.156-.262.273-.529.537-.801.798 2.025-1.996 7.291-4.341 8.213-7.107.506-1.527-1.797-3.485-.596-5.601.92-1.622 3.186-.972 4.07-2.044 1.258-1.533 1.424-4.072 2.754-5.689 1.367-1.664 4.006-1.878 5.4-3.144 3.197-2.903 4.07-6.209 7.822-7.987 3.539-2.394 7.293-6.484 11.795-4.63-1.623 1.857-5.74 2.998-6.938 4.723-.818 1.181 6.111.525 7.049.183 3.902-1.435 6.992-4.348 10.264-6.508 5.674-3.74 12.244-3.924 19.084-2.55 2.096.418-3.787-8.049-4.412-8.767-2.377-2.729-2.969-5.162-6.807-1.627-1.117 1.029-2.295 4.513-3.086 5.95-2.426 4.404-1.873 3.837-7.158 6.55.285-.123.557-.27.818-.433-3.867.774-7.555 2.44-9.117-2.343-.525-1.596 1.713-3.931.463-5.54-2.742-3.539-11.881 3.928-15.094 5.125 1.67-13.134 17.207-6.217 25.488-8.839 2.266-.719 10.736-3.962 11.211-6.101.701-3.175-6.715-8.323-8.41-9.77-3.643-3.101-5.578-4.894-7.625-9.728-2.182-5.146-3.617-10.292-9.076-6.503-2.037 1.414-.568 4.483-4.08 4.962-2.213.306-4.475-2.491-5.74-3.804-1.906-1.981-3.889-6.825-7.389-7.257-3.004-.367-11.361-4.776-15.283-1.916-3.004 2.191.414 10.475 1.32 13.443 1.949 6.378 3.172 6.622-2.254 10.626-2.656 1.964-4.27-.137-3.291 5.151.506 2.748 3.475 3.287 1.361 5.661-1.297 1.461-4.406 1.32-5.914.614-4.723-2.211-.512-5.165-2.771-8.311-1.688-2.345-10.738-4.264-13.834-5.667-6.857-3.104-24.939-6.4-19.379-17.019 1.508-2.882 7.168-7.13 9.736-8.785 2.633-1.694 5.918-2.165 8.123-4.513 1.238-1.317 1.332-4.953 2.439-5.859 1.568-1.283 6.137-.69 8.57-.602 10.533-2.11.941-17.409 14.814-14.639 3.83.765 7.664 4.646 10.822 6.81 3.553 2.432 4.736 2.152 3.613 5.869-.258.86-4.229 4.718-5.24 5.501-1.85 1.431-4.834 2.091-6.998 2.979 7.238 0 10.271-.354 16.18 3.57 5.064 3.362 8.24 5.607 14.461 5.357-.379-3.024-5.719-1.856-5.51-4.849.176-2.522 3.389.807 3.803.827 1.723.087 6.215 2.136 5.234-2.702-.863-4.246-10.145-2.22-7.166-9.146 4.176-.46 3.055 4.12 5.816 5.109 2.936 1.053 6.768-2.536 7.406-5-4.119-2.104-16.732-5.495-15.316-11.46 8.416 5.362 16.826 10.724 25.238 16.09-6.816 6.097 4.957 2.666 5.68 2.844 2.002.495 7.115 4.896 3.77 5.719-3.479.854-5.264-4.166-8.789-.409 2.926.771 13.252 1.354 10.498 6.922-1.104 2.226-7.742 1.842-9.725 6.193 1.422-.272 2.965.154 4.408-.22-3.168 4.933 1.521 8.195 4.096 12.138 2.922 4.479 7.014 11.34 12.822 12.768 12.361 3.034 10.871-17.063 20.256-20.243 2.596-.881 5.428-.238 8.047-.973 2.922-.824 4.486-2.931 6.789-4.521 5.717-3.948 10.67-3.96 17.783-4.174.178-.006.357 0 .537.003 31.178 32.8 50.375 77.094 50.375 125.813.006 88.656-63.439 162.744-147.303 179.315z"/></svg>