<svg xmlns="http://www.w3.org/2000/svg" viewBox="0 0 512 512"><path d="M338.233 80.661c-13.934-13.933-31.228-24.218-50.015-29.774-10.742-3.152-21.915-4.725-33.24-4.725-31.455 0-60.983 12.231-83.236 34.499-22.25 22.208-34.46 51.76-34.46 83.198l.494 10.821c1.477 16.173 6.198 31.601 14.04 45.825.082.789 44.311 80.123 44.311 129.688l1.516 14.678c2.385 9.789 7.382 14.767 14.848 14.767h84.977c7.468 0 12.457-4.978 14.85-14.767l1.512-14.678c0-49.564 44.227-128.898 44.685-129.688 7.47-14.225 12.191-29.652 13.646-45.825l.516-10.821c-.002-31.438-12.238-60.99-34.444-83.198zm4.022 91.933c-1.124 11.602-4.522 22.919-10.113 33.654-4.72 8.457-47.432 86.512-48.275 142.276l-.116 1.142h-13.787v-54.678h-29.979v54.678h-13.783l-.115-1.142c-.629-41.776-24.441-96.779-45.046-136.716l-.05-.461-2.924-5.311a86.42 86.42 0 01-10.383-33.469l-.427-9.333c.163-23.22 9.259-44.987 25.69-61.389 16.57-16.581 38.6-25.714 62.031-25.714 8.514 0 16.855 1.184 24.734 3.494 14.024 4.149 26.932 11.836 37.326 22.229 16.391 16.394 25.489 38.149 25.658 61.327l-.441 9.413zM207.14 429.956h95.676v-29.972H207.14v29.972zm20.78 34.542h54.096v-16.943H227.92v16.943z"/></svg>