<svg xmlns="http://www.w3.org/2000/svg" viewBox="0 0 512 512"><path d="M228.807 384.157c0-9.911-8.061-17.972-17.971-17.972s-17.971 8.061-17.971 17.972c0 9.906 8.061 17.971 17.971 17.971s17.971-8.065 17.971-17.971zm165.75 0c0-9.911-8.062-17.972-17.971-17.972-9.91 0-17.971 8.061-17.971 17.972 0 9.906 8.061 17.971 17.971 17.971 9.908 0 17.971-8.065 17.971-17.971zm-60.371-202.066c0 9.906 8.062 17.97 17.973 17.97 9.908 0 17.971-8.063 17.971-17.97 0-9.911-8.062-17.972-17.971-17.972-9.911 0-17.973 8.061-17.973 17.972zm-24.131-57.829l30.404 30.406a29.68 29.68 0 0111.699-2.389c13.062 0 24.139 8.418 28.166 20.113h77.225V88.859c0-19.003-15.41-34.408-34.408-34.408H310.055v69.811zM195.01 243.861c0-9.908-8.061-17.973-17.971-17.973-9.908 0-17.971 8.064-17.971 17.973 0 9.91 8.062 17.971 17.971 17.971 9.91 0 17.971-8.061 17.971-17.971zm102.685 0c0-9.908-8.062-17.973-17.971-17.973s-17.971 8.064-17.971 17.973c0 9.91 8.062 17.971 17.971 17.971s17.971-8.061 17.971-17.971zm-20.83 89.167c0 9.907 8.062 17.968 17.971 17.968 9.91 0 17.973-8.061 17.973-17.968 0-9.91-8.062-17.971-17.973-17.971-9.908.001-17.971 8.061-17.971 17.971zm66.184-27.63l-19.543 19.541a29.685 29.685 0 011.141 8.089c0 16.464-13.346 29.809-29.811 29.809-16.463 0-29.809-13.345-29.809-29.809s13.346-29.81 29.809-29.81c2.809 0 5.516.414 8.09 1.141l28.064-28.066h126.559v-74.791h-82.797c-5.465 6.355-13.551 10.397-22.594 10.397-16.465 0-29.811-13.345-29.811-29.809 0-1.382.127-2.733.309-4.066l-41.707-41.706V54.451h-56.422v104.653l54.959 54.958c.08 0 .158-.012.238-.012 16.465 0 29.811 13.347 29.811 29.811 0 16.466-13.346 29.811-29.811 29.811-.666 0-1.316-.056-1.973-.101l-61.637 61.638h-65.469c-5.104 9.1-14.826 15.257-26.002 15.257-16.465 0-29.811-13.347-29.811-29.811 0-16.466 13.346-29.811 29.811-29.811 11.176 0 20.898 6.157 26.002 15.259h53.412l48.992-48.992a29.622 29.622 0 01-3.137-13.25c0-5.25 1.369-10.175 3.75-14.459l-58.242-58.241V54.451h-49.047v141.115l20.354 20.355c3.217-1.19 6.682-1.871 10.311-1.871 16.465 0 29.812 13.347 29.812 29.811 0 16.466-13.348 29.811-29.812 29.811-16.463 0-29.811-13.345-29.811-29.811 0-1.957.201-3.863.562-5.718l-30.523-30.521V54.451H88.859c-19 0-34.41 15.405-34.41 34.408v334.276c0 19.004 15.41 34.413 34.41 34.413h107.422v-47.39c-9.1-5.101-15.256-14.828-15.256-26.002 0-16.463 13.348-29.81 29.811-29.81 16.465 0 29.811 13.347 29.811 29.81 0 11.174-6.158 20.901-15.258 26.004v47.388h136.646V410.16c-9.1-5.103-15.26-14.83-15.26-26.004 0-16.463 13.348-29.81 29.811-29.81 16.465 0 29.811 13.347 29.811 29.81 0 11.174-6.158 20.901-15.256 26.004v47.388h32c18.998 0 34.408-15.409 34.408-34.413V305.398h-114.5zm-236.377 15.257c0 9.91 8.062 17.973 17.973 17.973 9.908 0 17.969-8.062 17.969-17.973 0-9.908-8.061-17.971-17.969-17.971-9.911.001-17.973 8.063-17.973 17.971z"/></svg>