<svg xmlns="http://www.w3.org/2000/svg" viewBox="0 0 512 512"><path d="M256.39 38.42c-120.065 0-217.417 97.319-217.417 217.414 0 120.066 97.353 217.4 217.417 217.4 120.095 0 217.418-97.334 217.418-217.4.001-120.095-97.323-217.414-217.418-217.414zm0 383.668c-91.679 0-166.272-74.592-166.272-166.254 0-91.696 74.593-166.29 166.272-166.29 91.678 0 166.27 74.594 166.27 166.29 0 91.662-74.592 166.254-166.27 166.254zm-.016-305.399c-76.832 0-139.113 62.293-139.113 139.127 0 76.866 62.281 139.146 139.113 139.146 76.864 0 139.18-62.28 139.18-139.146 0-76.834-62.316-139.127-139.18-139.127zm-.752 240.863c-56.737-.015-102.733-46.027-102.733-102.779 0-6.427.604-12.704 1.733-18.788-7.164-.604-14.308-1.243-21.306-1.867a141.695 141.695 0 0115.223-36.672l42.906 29.217a93.037 93.037 0 00-5.381 11.808c-4.612-.328-9.253-.687-13.964-1.062a85.58 85.58 0 00-1.766 17.365c0 23.588 9.55 44.86 24.984 60.332 15.469 15.453 36.725 24.984 60.303 24.984 18.574 0 35.694-5.919 49.673-15.959-7.454-2.761-12.785-9.893-12.785-18.293 0-10.775 8.747-19.493 19.523-19.493a19.441 19.441 0 0117.527 10.989c7.243-12.526 11.38-27.03 11.38-42.561 0-23.596-9.517-44.851-24.983-60.319-15.469-15.436-36.726-24.985-60.335-24.985-2.092 0-4.187.101-6.245.266l-.493 12.162c-15.304 3.876-29.79 11.769-41.811 23.788-.274.314-.554.608-.831.885l-43.2-29.414a157.16 157.16 0 017.44-8.047c22.645-22.66 51.03-36.1 80.477-40.321l-.933 23.381c1.883-.097 3.746-.162 5.595-.162 56.771.034 102.78 46.015 102.78 102.768.002 56.749-46.007 102.762-102.778 102.777zm-10.498-101.718c0-6.229 5.069-11.268 11.267-11.268 6.228 0 11.25 5.039 11.25 11.268 0 6.209-5.021 11.25-11.25 11.25-6.199 0-11.267-5.041-11.267-11.25z"/></svg>