<svg xmlns="http://www.w3.org/2000/svg" viewBox="0 0 512 512"><path d="M438.643 373.146c-1.897-1.469-6.736-8.403-8.47-14.782l-1.962-7.177c-3.369-12.394-13.212-21.734-25.312-24.854-.486 6.476-1.532 12.248-3.171 17.316 5.494 1.848 10.039 6.228 11.644 12.133l1.961 7.176c2.519 9.242 9.338 20.194 15.141 24.36 5.82 4.173 4.188 12.122-3.647 17.644l-53.714 38.066c-7.813 5.531-21.975 11.117-31.457 12.395l-.131.049c-.85.101-1.683.148-2.553.148-8.759 0-17.918-5.89-21.121-14.012l-2.534-6.41c-3.551-8.895-3.601-23.481-.116-32.41l17.823-45.91c-5.854-7.541-9.452-16.535-9.518-25.344.031-8.455 5.069-15.453 11.626-20.099 5.575-3.94 12.443-6.491 19.62-7.209.443-2.599.688-5.25.706-7.933.08-19.57-13.523-51.421-13.523-51.421a.447.447 0 01.244-.078c3.206 0 23.12 25.685 23.25 51.5 0 2.683-.194 5.429-.588 8.176 3.483.544 6.917 1.605 10.171 3.32 2.421 1.275 3.368 4.302 2.093 6.719-.883 1.721-2.648 2.684-4.432 2.684-.784 0-1.554-.195-2.306-.555-3.434-1.816-7.39-2.682-11.51-2.682h-.065c-6.443 0-13.115 2.191-17.872 5.621-4.856 3.457-7.456 7.74-7.44 11.957-.032 6.703 3.468 15.09 9.288 21.438 5.806 6.389 13.571 10.672 21.78 10.672h.029c7.066-.031 14.457-2.678 20.294-9.384 5.84-6.703 10.317-17.824 10.335-35.367 0-4.548-.346-9.534-.998-14.929-5.135-26.195-15.877-47.89-32.949-69.209-17.315-21.669-23.822-36.091-33.911-54.843-9.497-17.677-7.488-59.271-11.46-86.954-2.779-32.752-33.881-54.268-69.329-54.268-32.047 0-58.766 20.422-58.766 65.861l.034 11.753-.034-.326s.034 2.604.05 7.393l.179 55.626c-.077 37.817-58.663 112.397-58.962 133.554-.014 1.895.116 3.71.329 5.49-7.292 2.667-13.377 8.486-16.809 16.529l-.751 1.738c-1.326 3.057-6.786 7.355-10.072 7.908l-1.832.314c-18.396 3.104-31.232 20.648-28.615 39.128l1.017 7.097c.88 6.146-.72 13.965-1.815 16.008-4.269 7.113-4.89 15.5-1.62 23.02 3.76 8.682 12.134 14.977 22.958 17.27l62.229 13.223c6.116 1.311 12.656 1.574 17.04 1.574 5.136 0 15.044-.357 23.938-2.848l.098-.031c11.362-3.158 20.634-11.809 25.277-22.465h76.945a48.134 48.134 0 001.703 5.148l2.532 6.357c5.854 14.768 21.225 25.056 37.36 25.056 1.638 0 3.271-.101 4.859-.312h.014l.084-.017h.063c12.248-1.671 29.107-8.308 39.212-15.469l53.711-38.065c9.192-6.49 14.456-15.732 14.488-25.313.033-8.249-3.893-15.809-10.76-20.745zM269.74 96.493c11.607 0 21.025 10.983 21.025 24.554 0 8.159-3.432 15.386-8.681 19.854-3.452-1.046-7.016-2.191-10.497-3.941 3.252-2.013 5.507-6.528 5.507-11.761 0-7.146-4.168-12.916-9.333-12.916-5.15 0-9.338 5.77-9.338 12.916 0 1.396.214 2.732.508 3.994-3.416-1.67-6.803-2.817-9.875-3.613a27.287 27.287 0 01-.378-4.532c.001-13.572 9.419-24.555 21.062-24.555zm-56.967 2.613c8.631 0 15.632 9.892 15.632 22.106 0 1.374-.117 2.714-.297 4.04-3.105.962-6.177 2.388-9.121 4.135.13-.981.211-1.958.211-2.994 0-6.833-2.993-12.373-6.688-12.373s-6.705 5.539-6.705 12.373c0 4.174 1.146 7.871 2.862 10.107a129.98 129.98 0 00-4.201 3.385c-4.385-3.907-7.31-10.81-7.31-18.673.001-12.214 6.983-22.106 15.617-22.106zm-14.192 57.965c3.105-1.947 6.344-4.624 10.069-7.735 7.865-6.524 18.641-15.454 27.569-15.454h.163l.112-.015h.148c1.376 0 13.622.231 23.596 7.769 6.982 5.28 14.536 7.504 20.586 9.289 8.929 2.629 10.659 3.644 11.576 6.803 2.059 6.979-11.904 15.366-19.655 17.722-5.197 1.567-8.795 4.495-11.968 7.059-4.938 4.01-9.615 7.802-23.203 7.802-11.005 0-17.578-6.341-25.196-13.669-4.414-4.201-8.927-8.571-14.42-11.379-1.178-.623-1.424-2.192-1.473-3.072-.096-2.114.803-4.318 2.096-5.12zm-10.075 285.075l-.129.049c-5.197 1.456-12.394 2.209-19.261 2.209-4.907 0-9.646-.394-13.406-1.194l-62.233-13.214c-9.059-1.942-13.539-8.355-9.977-14.275 3.565-5.914 5.398-18.261 4.104-27.418l-1.011-7.113c-1.291-9.152 5.101-17.904 14.226-19.439l1.815-.328c9.157-1.522 19.586-9.743 23.234-18.247l.749-1.732c2.109-4.954 5.82-7.557 9.83-7.557 2.876 0 5.887 1.325 8.598 4.087l46.667 47.389c6.507 6.59 12.034 19.539 12.296 28.793l.197 6.652c.262 9.256-6.786 18.853-15.699 21.338zm60.107-27.681c-4.252 0-8.666-.555-13.179-1.781a85.835 85.835 0 01-12.247-4.497c-.963-.782-1.849-1.765-2.763-3.074-1.847-9.105-6.019-18.704-11.416-26.178 3.159-7.786 2.161-16.794-7.273-24.347l-5.937-4.641c-22.662-13.853-34.697-26.867-41.005-37.443-6.673-11.007-6.901-19.64-6.868-22.224h.016a4.956 4.956 0 014.955-4.984c1.699 4.118.49 15.171 11.87 29.266-.212-3.089.065-6.591.752-10.419a183.86 183.86 0 001.03-4.951c8.191-33.304 40.027-85.319 35.841-100.674-2.239-8.256-3.008-14.814-2.731-20.011 9.746 8.271 19.213 21.748 37.917 21.748 25.622 0 28.043-12.23 38.066-15.256 4.235-1.295 10.104-3.955 15.253-7.669-1.65 10.969-1.026 27.194 10.237 48.45 10.726 20.189 15.37 41.304 16.482 61.789l-.134.28v21.972c-1.272 21.011-5.508 40.635-9.809 57.062-4.643 17.84-27.924 47.582-59.057 47.582zm-10.04-234.421c22.448-.1 32.538-13.979 45.863-17.482a2.682 2.682 0 001.849-3.299 2.657 2.657 0 00-3.302-1.863c-15.812 4.703-24.493 17.395-44.41 17.278-9.907 0-18.363-3.759-24.377-7.583a56.994 56.994 0 01-7.001-5.267c-1.583-1.424-2.37-2.308-2.402-2.308-.979-1.092-2.682-1.162-3.777-.162a2.68 2.68 0 00-.177 3.776c.209.201 15.139 16.81 37.734 16.91zm-11.525-36.693c2.616-1.124 4.398-2.777 4.022-3.674-.377-.889-2.833-.709-5.431.419-2.602 1.132-4.396 2.778-4.005 3.683.391.915 2.811.701 5.414-.428zm24.052-.749c2.843.36 5.214-.1 5.362-1.083.132-.961-2.06-2.061-4.876-2.433-2.811-.394-5.197.101-5.344 1.06-.13.983 2.061 2.06 4.858 2.456z"/></svg>