<svg xmlns="http://www.w3.org/2000/svg" viewBox="0 0 512 512"><path d="M174.228 247.824h60.975v60.975h-60.975zm0-115.391h228.379v75.56H174.228zm100.767 114.916h127.611v25.403H274.995zm0 55.405h127.611v25.402H274.995zm0 51.189h127.611v25.404H274.995zM114.163 70.231v52.474H50.306v271.89c0 26.013 21.16 47.174 47.168 47.174h317.047c26.012 0 47.174-21.161 47.174-47.174V70.231H114.163zm0 324.364c0 9.201-7.486 16.686-16.689 16.686-9.197 0-16.682-7.484-16.682-16.686V153.191h33.371v241.404zm317.043 0c0 9.201-7.484 16.686-16.686 16.686H141.603a46.928 46.928 0 003.049-16.686V100.718h286.555v293.877z"/></svg>