<svg xmlns="http://www.w3.org/2000/svg" viewBox="0 0 512 512"><path d="M364.26 182.396c12.688-.081 25.018 1.947 36.66 5.971-9.091-9.87-19.001-18.611-29.596-26.066-34.059-24.212-73.679-34.865-111.596-34.809-44.784.105-88.015 14.132-124.348 39.161l-63.555-63.547-22.383 234.091 234.077-22.416-64.746-64.762c48.284-42.804 99.018-67.423 145.487-67.623zm98.627 228.325v-35.424c0-39.219-5.164-74.258-15.27-105.242a244.473 244.473 0 00-2.404-6.924c-2.992-6.385-6.277-12.166-9.794-17.327-18.476-26.829-42.119-38.233-71.159-38.472-28.138-.147-61.527 11.988-95.717 35.262 8.092.806 15.762 2.704 22.793 5.65 14.259 6.177 26.619 15.89 37.494 34.859 10.709 18.94 19.391 48.411 19.406 92.192v35.424h114.651z"/></svg>