<svg xmlns="http://www.w3.org/2000/svg" viewBox="0 0 512 512"><path d="M302.271 134.014c-67.299 0-121.845 54.548-121.845 121.865 0 67.298 54.546 121.846 121.845 121.846 67.302 0 121.849-54.548 121.849-121.846-.001-67.317-54.548-121.865-121.849-121.865zm26.227 202.374h-30.444v-97.402h-37.771v-22.957c5.266.149 10.398-.244 15.336-1.173 4.939-.934 9.354-2.588 13.309-4.942 3.926-2.35 7.26-5.46 9.977-9.315 2.715-3.862 4.512-8.667 5.362-14.392h24.231v150.181zm-26.227-254.35c-44.702 0-85.417 16.888-116.221 44.588-26.422.602-51.145 3.253-72.564 7.44-24.56 4.792-44.835 11.704-58.047 19.145-8.861 4.889-14.256 10.069-16.153 13.455-1.079 1.801-1.341 2.895-1.374 3.876.032.997.294 2.107 1.374 3.924 1.144 1.911 3.302 4.445 6.67 7.145 6.736 5.477 18.151 11.414 32.866 16.403 15.37 5.261 34.369 9.549 55.624 12.476a173.745 173.745 0 00-5.297 30.163c-7.39-1.012-14.651-2.191-21.549-3.532-26.784-5.28-49.642-12.717-67.17-22.482-.85-.507-1.668-1.012-2.518-1.504v27.193c0 1.044.23 2.206 1.374 4.157 1.144 1.894 3.302 4.429 6.67 7.127 6.736 5.49 18.151 11.428 32.866 16.414 14.356 4.89 31.785 8.944 51.307 11.858 1.539 11.002 4.057 21.677 7.557 31.91-10.432-1.241-20.536-2.793-30.085-4.658-26.784-5.281-49.642-12.723-67.17-22.497a177.834 177.834 0 01-3.533-2.112v23.564c0 1.24.295 2.584 1.506 4.658 1.21 2.044 3.466 4.646 6.899 7.408 6.9 5.594 18.377 11.562 33.193 16.576 20.538 7.021 47.288 12.316 77.438 14.914 7.031 10.938 15.174 21.014 24.428 30.072-26.128-.834-50.653-3.564-72.564-7.848-26.751-5.234-49.479-12.674-66.843-22.355a68.741 68.741 0 01-3.041-1.811v26.24c0 1.046.23 2.191 1.374 4.121 1.144 1.927 3.302 4.446 6.67 7.16 6.736 5.477 18.151 11.413 32.866 16.404 29.496 10.085 71.978 16.691 118.871 16.661a482.26 482.26 0 0038.653-1.575 173.05 173.05 0 0065.926 13.004c95.979 0 173.843-77.852 173.843-173.844-.004-96.013-77.867-173.838-173.846-173.838zm0 322.732c-82.114 0-148.922-66.779-148.922-148.891 0-82.099 66.808-148.91 148.922-148.91 82.114 0 148.892 66.811 148.892 148.91-.001 82.111-66.778 148.891-148.892 148.891z"/></svg>