<svg xmlns="http://www.w3.org/2000/svg" viewBox="0 0 512 512"><path d="M316.074 329.032c.867 0 1.732.064 2.582.079L158.844 125.66c-10.726-13.637-26.849-20.797-42.839-20.767a54.147 54.147 0 00-33.585 11.608l-50.017 39.312L64.01 196.02l50-39.293c.622-.475 1.179-.654 1.995-.688 1.112.033 1.995.438 2.601 1.209l149.168 189.865c12.997-11.278 29.955-18.065 48.3-18.081zm131.136-85.744l-112.301 88.18c18.151 4.774 33.309 16.172 43.086 31.217l100.802-79.174-31.587-40.223zM321.96 354.346a44.398 44.398 0 00-5.886-.374c-24.363 0-45.421 18.228-48.397 43.014-3.206 26.751 15.874 51.05 42.641 54.287a51.47 51.47 0 005.886.361c24.365 0 45.426-18.214 48.434-43.006 3.206-26.787-15.894-51.076-42.678-54.282zm139.376-163.084L358.21 59.978 226.93 163.104l103.139 131.281 131.267-103.123zm-113.084-65.043l37.559 47.807-22.531 17.695-37.559-47.795 22.531-17.707z"/></svg>