<svg xmlns="http://www.w3.org/2000/svg" viewBox="0 0 512 512"><path d="M380.285 262.184l-67.236-94.832c-3.039-4.427-6.604-7.14-10.397-9.242-4.09-2.133-8.504-3.612-14.128-3.693-.654 0-1.209.022-1.635.061l-30.708 1.926-31.653-1.986a23.975 23.975 0 00-1.604-.052c-5.625.069-10.073 1.557-14.126 3.723-3.793 2.125-7.359 4.866-10.433 9.311l-66.351 94.855c-5.56 7.909-3.631 18.782 4.283 24.329a17.45 17.45 0 0024.298-4.305l61.643-88.057c.13.551.292 1.089.292 1.663v5.05-.031c0 35.709-5.722 128.409-56.607 246.123-3.826 8.839.229 19.115 9.09 22.949a17.562 17.562 0 006.902 1.42c6.769 0 13.177-3.931 16.024-10.538 23.708-54.768 45.029-139.398 45.029-139.398.951-3.795 4.904-6.86 8.764-6.86v-.014.014h8.829c3.893 0 7.883 3.065 8.799 6.86 0 0 21.32 84.631 44.997 139.398 2.843 6.607 9.286 10.538 16.056 10.538 2.322 0 4.643-.454 6.9-1.42 8.831-3.834 12.917-14.11 9.123-22.949-50.916-117.714-56.639-210.413-56.639-246.123v-5.037c0-.276.066-.538.133-.799l61.869 87.295c5.559 7.86 16.45 9.712 24.33 4.146 7.884-5.588 9.713-16.456 4.156-24.325zM256.181 141.833c27.731 0 50.167-22.471 50.167-50.185 0-27.709-22.436-50.191-50.167-50.191-27.729 0-50.195 22.482-50.195 50.191 0 27.714 22.466 50.185 50.195 50.185z"/></svg>