<svg xmlns="http://www.w3.org/2000/svg" viewBox="0 0 512 512"><path d="M384.37 112.165c0-21.599-4.415-42.043-12.067-60.374l-3.223-7.667h-67.677v24.948h50.805a131.485 131.485 0 017.242 43.093c0 19.243-4.056 37.351-11.149 53.329-7.865.174-15.535 4.056-20.213 11.095-17.232 25.712-43.099 41.002-71.55 41.017-28.45-.015-54.333-15.305-71.552-41.017-4.709-7.062-12.392-10.938-20.274-11.095-7.08-15.978-11.152-34.085-11.152-53.329.016-15.231 2.617-29.745 7.243-43.093h44.425V44.124h-61.314l-3.172 7.667c-7.686 18.331-12.1 38.775-12.1 60.374 0 23.532 5.134 45.782 14.225 65.453-4.79 7.99-4.905 18.321.605 26.597 19.44 29.368 48.791 51.446 83.143 59.724 0 1.076-.033 2.153-.033 3.241-.048 11.481.916 24.432 6.23 37.823 5.281 13.405 13.9 26.045 26.799 40.949a24.896 24.896 0 0018.836 8.607c1.833 0 3.646-.227 5.46-.639a628.853 628.853 0 009.208 9.424c15.974 15.903 23.364 33.787 23.281 47.486-.081 9.727-3.219 17.152-9.563 22.865-6.377 5.678-17.005 10.057-33.585 10.072-14.421.068-26.456-7.98-35.381-17.2a78.212 78.212 0 01-3.108-3.391c7.88-9.489 12.623-21.69 12.623-34.966 0-30.262-24.624-54.877-54.89-54.877-30.265 0-54.857 24.615-54.857 54.877 0 30.268 24.593 54.869 54.857 54.869a54.596 54.596 0 0022.4-4.787 118.472 118.472 0 005.053 5.607c11.381 11.809 29.268 24.756 53.304 24.821h.132c20.846 0 37.997-5.688 50.032-16.384 12.067-10.662 18.003-25.939 17.921-41.508-.065-22.213-10.955-45.413-30.594-65.145a551.42 551.42 0 01-8.518-8.654c2.484-7.963.947-16.979-4.939-23.76-10.985-12.637-15.824-20.779-18.033-26.462-2.174-5.714-2.764-10.22-2.797-19.631v-1.282c38.621-6.084 71.848-29.505 93.167-61.683 5.495-8.282 5.364-18.66.557-26.645 9.092-19.658 14.193-41.879 14.193-65.401zM162.537 388.211c0-16.551 13.424-29.939 29.956-29.939 16.529 0 29.955 13.389 29.955 29.939 0 16.534-13.426 29.939-29.955 29.939-16.532 0-29.956-13.405-29.956-29.939z"/></svg>