<svg xmlns="http://www.w3.org/2000/svg" viewBox="0 0 512 512"><path d="M452.403 163.403l7.431-19.945-19.189-22.075-42.659-55.146-24.822-12.181H144.608l-23.572 10.666-56.893 64.735.065.145-12.042 13.855 4.167 85.021 3.153 13.709 18.386 37.854-19.668 54.384-1.871 10.675v81.461l31.382 31.382h335.527l29.005-43.362-14.491-35.087 16.006-66.918.258-13.424-17.603-88.482 15.986-47.267zM199.934 352.118v33.792H180.04a33.79 33.79 0 11-29.263-50.687l23.977-41.529-26.932-15.587 71.148-26.462 12.488 74.876-27.286-15.792-23.879 41.252-.129-.076-.124.213h19.894zm49.782-120.681l-7.932 13.741-29.245-16.93 7.913-13.706a33.792 33.792 0 0158.528 0l23.888 41.373 26.561-15.271-12.499 73.597-69.894-26.228 26.536-15.258-23.856-41.318zm98.941 137.578a33.79 33.79 0 01-29.264 16.896h-42.768l.026 30.421-57.616-47.471 57.535-47.568.027 30.826h42.795l-6.953-12.042 29.296-16.842 6.921 11.989a33.79 33.79 0 01.001 33.791zM87.715 150.177l56.893-64.738h228.554l50.08 64.738H87.715z"/></svg>