<svg xmlns="http://www.w3.org/2000/svg" viewBox="0 0 512 512"><path d="M329.047 331.74a70.262 70.262 0 00-30.949 7.142l-54.123-54.129a70.3 70.3 0 006.216-28.953 70.31 70.31 0 00-6.218-28.96l53.899-53.899a70.258 70.258 0 0031.175 7.259c38.983 0 70.581-31.603 70.581-70.583s-31.598-70.579-70.581-70.579c-38.979 0-70.576 31.599-70.576 70.579a70.364 70.364 0 005.23 26.682l-55.138 55.136a70.325 70.325 0 00-28.952-6.214c-38.981 0-70.58 31.598-70.58 70.58s31.599 70.579 70.58 70.579a70.234 70.234 0 0028.952-6.214L263.8 375.4a70.33 70.33 0 00-5.329 26.923c0 38.98 31.597 70.579 70.576 70.579 38.983 0 70.581-31.599 70.581-70.579 0-38.981-31.598-70.583-70.581-70.583z"/></svg>