<svg xmlns="http://www.w3.org/2000/svg" viewBox="0 0 512 512"><path d="M256.098 100.762c-85.644 0-155.07 69.457-155.07 155.105 0 85.68 69.427 155.104 155.07 155.104 85.68 0 155.104-69.425 155.104-155.104 0-85.648-69.425-155.105-155.104-155.105zm53.535 253.277c-7.456 2.549-14.652 3.788-21.586 3.788-6.9 0-12.621-.42-17.199-1.339-4.545-.914-8.729-1.991-12.557-3.269-3.988-1.439-8.014-2.747-12.002-3.823-4.022-1.117-9.027-1.637-15.013-1.637-4.937 0-10.101.684-15.435 2.057-5.395 1.344-10.693 4.025-15.989 8.011l-16.94-25.077c3.827-2.391 7.619-5.171 11.349-8.338a66.585 66.585 0 009.843-10.531 58.745 58.745 0 006.964-12.426c1.8-4.445 2.716-9.125 2.716-14.033 0-3.137-.492-6.146-1.506-9.152-.979-3.01-2.223-6.054-3.695-9.156h-27.01v-23.222h17.462c-2.714-3.464-5.459-8.53-8.207-15.304-2.716-6.703-4.088-14.223-4.088-22.364 0-7.265 1.504-14.229 4.512-20.765 3.01-6.545 7.426-12.332 13.244-17.363 5.821-5.008 13.114-8.904 21.845-11.876 8.73-2.877 18.838-4.351 30.317-4.351 20.927 0 37.245 5.82 48.888 17.467 11.643 11.669 17.461 28.611 17.461 50.782h-36.854c-.197-2.718-.556-6.116-1.08-10.204-.554-4.086-1.798-8.076-3.695-11.904-1.929-3.791-4.84-7.123-8.729-9.938-3.958-2.847-9.354-4.252-16.253-4.252-8.175 0-14.717 2.285-19.557 6.834-4.807 4.547-7.193 10.662-7.193 18.314 0 2.158.062 4.251.26 6.278.166 1.991.59 4.313 1.212 6.966.653 2.646 1.732 5.656 3.3 9.123 1.506 3.467 3.666 7.65 6.378 12.556h36.335v23.222H248.48c.883 2.743 1.471 5.43 1.765 8.173.263 2.747.426 5.657.426 8.733 0 8.603-2.257 15.893-6.737 22.004a82.78 82.78 0 01-15.697 16.256l.59.521c4.352-2.743 7.88-4.479 10.629-5.164 2.713-.725 5.365-1.115 7.912-1.115 3.629 0 7.26.328 10.793.984 3.564.621 7.127 1.307 10.789 2.025 3.633.914 7.196 1.732 10.663 2.324 3.434.619 6.998.945 10.628.945 3.662 0 7.323-.652 11.053-1.893 3.76-1.28 8.078-4.578 13.016-9.816l16.351 27.568c-6.542 6.383-13.574 10.83-21.028 13.381zM256.098 34.605c-122.172 0-221.257 99.055-221.257 221.262 0 122.202 99.085 221.26 221.257 221.26 122.207 0 221.261-99.058 221.261-221.26-.001-122.207-99.054-221.262-221.261-221.262zm0 410.801c-104.479 0-189.506-85.027-189.506-189.539 0-104.516 85.027-189.505 189.506-189.505 104.517 0 189.541 84.989 189.541 189.505 0 104.512-85.025 189.539-189.541 189.539z"/></svg>