<svg xmlns="http://www.w3.org/2000/svg" viewBox="0 0 512 512"><path d="M251.886 36.967c.051 0 .101.003.152.004.048.002.083.002.133.002l-.285-.006zM469.053 255.5c-.021-120.031-96.842-217.653-217.015-218.53a127.06 127.06 0 00-1.572-.009c-61.856-.011-117.971 25.852-157.694 67.277l-51.88-52.545v152.691h150.756l-52.354-53.025c27.891-29.734 67.271-48.214 111.172-48.224.405 0 .626 0 .722.004h.278c83.815.51 151.432 68.677 151.411 152.361.004.1-.004.507.004 1.202-.625 83.712-68.756 151.222-152.361 151.202-.271.006-.712 0-1.311 0l.206 66.178a32.07 32.07 0 011.105 0c120.078-.023 217.738-96.924 218.533-217.167v-.36l-.004-.435c0-.11.004-.317.004-.62z"/></svg>