<svg xmlns="http://www.w3.org/2000/svg" viewBox="0 0 512 512"><path d="M324.658 172.772l.018.027c-.081-.108-.148-.213-.246-.319a747.086 747.086 0 00-12.46-16.761c-5.396-9.025-8.24-20.006-1.618-35.849v-.009l22.762-54.505-35.777-16.298 3.697-16.156h-89.85l4.708 20.585-36.788 11.869 22.76 54.505v.009c11.25 26.945-4.857 39.813-14.321 52.928-46.848 64.796-99.316 157.564-99.316 213.49 0 92.734 72.04 89.646 167.872 89.646 95.866 0 167.893 3.088 167.893-89.646-.002-55.934-52.504-148.702-99.334-213.516zm-91.123-45.504h45.849v28.931h-45.849v-28.931zm64.684 167.994l-6.769 15.751h-49.004l-.229 9.19h46.601l-6.787 15.738h-38.063c4.677 23.061 15.467 34.562 32.376 34.562 10.921 0 22.171-4.594 33.681-13.781l-.227 33.041c-9.763 5.684-20.979 8.52-33.669 8.52-18.376 0-33.191-5.895-44.424-17.707-10.187-10.642-16.825-25.523-19.899-44.635H194.98l6.77-15.738h8.747v-5.682c0-2.043.083-3.217.229-3.509H194.75l6.787-15.751h11.151c3.514-17.641 10.724-31.57 21.665-41.773 11.528-11.077 25.949-16.621 43.3-16.621 12.241 0 25.505 3.639 39.826 10.933l-13.357 27.34c-10.22-6.562-19.751-9.844-28.664-9.844-15.287 0-25.507 9.99-30.624 29.965h53.385z"/></svg>