<svg xmlns="http://www.w3.org/2000/svg" viewBox="0 0 512 512"><path d="M345.851 111.718a185.398 185.398 0 00-45.732-26.639l-8.881 21.952a161.694 161.694 0 0139.896 23.238l14.717-18.551zm-216.747 19.774l-14.965-18.351a184.22 184.22 0 00-35.789 39.006l19.562 13.341a160.683 160.683 0 0131.192-33.996zm-44.259 56.992L63.372 178.5a185.043 185.043 0 00-15.236 50.696l23.42 3.498a161.33 161.33 0 0113.289-44.21zm94.518-84.714a164.283 164.283 0 0114.497-4.16l-5.479-23.037a188.208 188.208 0 00-16.596 4.763 186.74 186.74 0 00-32.633 14.643l11.736 20.567a162.505 162.505 0 0128.475-12.776zM69.821 259.063l-23.676.406c.303 17.68 3.168 35.262 8.516 52.258l22.586-7.105c-4.662-14.827-7.162-30.155-7.426-45.559zM265.997 99.148l5.182-23.105a184.193 184.193 0 00-52.809-4.034l1.621 23.623a160.727 160.727 0 0146.006 3.516zm69.326 279.882l15.355 18.022a184.426 184.426 0 0034.947-39.76l-19.841-12.926a160.8 160.8 0 01-30.461 34.664zm-52.892 29.912a166.045 166.045 0 01-11.164 3.336l5.961 22.915a188.63 188.63 0 0012.779-3.815 185.84 185.84 0 0036.031-16.631l-12.174-20.309a161.899 161.899 0 01-31.433 14.504zm-216.368-69.14a183.557 183.557 0 0030.424 43.345l17.216-16.257A159.987 159.987 0 0187.2 329.134l-21.137 10.668zm331.955-139.889a1012.11 1012.11 0 00-11.622 14.552c3.168 11.715 5.021 23.699 5.488 35.756l23.66-.915c-.68-17.655-3.918-35.169-9.623-52.062l-7.903 2.669zm-19.652 121.191l21.678 9.526a184.84 184.84 0 0014.157-51.011l-23.488-2.996a161.26 161.26 0 01-12.347 44.481zm-259.318 82.299a185.601 185.601 0 0046.285 25.668l8.415-22.135a161.946 161.946 0 01-40.38-22.392l-14.32 18.859zm80.101 10.878l-4.689 23.211a184.408 184.408 0 0036.416 3.645c5.477 0 11.019-.249 16.473-.74l-2.128-23.584a160.829 160.829 0 01-46.072-2.532zM456.454 70.863c-111.037 68.079-191.607 153.974-227.811 197.074l-88.654-69.46-39.152 31.562 153.193 155.8c26.365-67.535 109.865-199.522 211.824-293.302l-9.4-21.674z"/></svg>