<svg xmlns="http://www.w3.org/2000/svg" viewBox="0 0 512 512"><path d="M386.075 257.393c-12.787 0-23.848 8.894-26.596 21.381-7.811 35.521-32.711 62.957-64.156 75.589-.19.075-.374.154-.564.229-1.061.422-2.139.803-3.215 1.188-.689.245-1.375.499-2.07.729-.582.196-1.174.372-1.762.557-1.199.375-2.402.75-3.615 1.081-.084.022-.166.043-.252.067-32.787 8.884-69.278 1.925-96.928-21.836-11.406-9.798-28.597-8.501-38.4 2.907-9.801 11.405-8.501 28.599 2.905 38.398 20.838 17.906 44.988 29.506 70.115 34.987l-.006.028c1.934.425 3.865.76 5.801 1.111.318.057.636.127.959.182 2.193.387 4.383.709 6.57.999.111.017.221.032.334.047 6.975.917 13.926 1.422 20.816 1.422 17.027 0 33.666-2.751 49.402-7.878.562-.184 1.117-.381 1.678-.57a158.169 158.169 0 004.818-1.71 157.01 157.01 0 003.455-1.315c.47-.188.937-.391 1.404-.586 21.033-8.574 40.5-21.734 56.832-39.363.732-.788 1.458-1.59 2.176-2.394.622-.698 1.27-1.359 1.879-2.07.159-.182.289-.381.439-.566a159.283 159.283 0 0028.303-48.152h56.078v-54.462h-76.4zm-233.578-24.142c3.776-17.169 11.568-32.78 22.643-45.804.154-.174.326-.324.478-.501a107.133 107.133 0 0110.844-10.921 107.529 107.529 0 0112.437-9.283 106.502 106.502 0 0124.911-11.709 106.76 106.76 0 0124.184-4.686c5.172-.39 10.311-.398 15.393-.054 5.125.369 15.373 2.187 15.373 2.187 16.928 3.701 32.781 11.554 46.291 23.165 11.409 9.805 28.599 8.504 38.4-2.905 9.803-11.405 8.504-28.598-2.904-38.399-26.555-22.819-59.068-36.067-93.387-38.389a158.691 158.691 0 00-61.136 7.563c-18.676 6.082-36.007 15.574-51.286 28.059a169.65 169.65 0 00-2.176 1.793c-.801.682-1.605 1.363-2.396 2.062-20.09 17.555-35.359 39.683-44.604 64.743H49.524v54.462H125.9c12.786.001 23.852-8.896 26.597-21.383zm44.175 22.764c0 32.653 26.557 59.13 59.312 59.13 32.76 0 59.321-26.477 59.321-59.13 0-32.652-26.561-59.127-59.321-59.127-32.755 0-59.312 26.474-59.312 59.127z"/></svg>