<svg xmlns="http://www.w3.org/2000/svg" viewBox="0 0 512 512"><path d="M458.229 58.295c-117.414 71.987-202.611 162.818-240.894 208.393l-93.748-73.448-41.397 33.372 161.993 164.745c27.879-71.411 116.173-210.977 223.986-310.143l-9.94-22.919zm-106.51 208.016v137.147c0 13.808-11.232 25.04-25.039 25.04H92.917c-13.807 0-25.04-11.232-25.04-25.04V157.287c0-13.805 11.233-25.039 25.04-25.039h210.66a1211.365 1211.365 0 0129.306-24.617c-2.035-.25-4.097-.421-6.203-.421H92.917c-27.66 0-50.08 22.419-50.08 50.077v246.171c0 27.659 22.42 50.081 50.08 50.081H326.68c27.658 0 50.08-22.422 50.08-50.081V232.399a1248.858 1248.858 0 00-25.041 33.912z"/></svg>