<svg xmlns="http://www.w3.org/2000/svg" viewBox="0 0 512 512"><path d="M255.851 154.223c3.791 0 4.708-1.416 4.708-1.416s-.395-11.29-4.708-11.29c-4.349 0-4.71 11.29-4.71 11.29s.882 1.416 4.71 1.416zm-19.13-8.964c2.32 0 6.114-1.029 8.434-2.281 2.356-1.278 4.188-4.425 4.154-7.029-.034-2.603-1.505-5.755-3.303-7.035-1.767-1.266-5.69-1.505-8.732-.479-3.074 1.002-5.886 3.68-6.311 5.978-.394 2.261-.23 5.644.393 7.504.623 1.833 3.041 3.342 5.365 3.342zm29.791-2.28c2.354 1.252 6.115 2.281 8.436 2.281 2.355 0 4.743-1.509 5.397-3.342.589-1.86.783-5.243.358-7.504-.424-2.298-3.204-4.976-6.278-5.978-3.043-1.026-6.997-.787-8.765.479-1.768 1.28-3.237 4.432-3.304 7.035-.03 2.603 1.833 5.751 4.156 7.029zm-104.286 47.418h60.466c26.129 8.018 60.302 15.623 99.641 17.591-.161-4.118.361-11.025.95-17.591h29.233c23.318 0 48.171-13.866 55.235-30.819 7.028-16.973-4.939-10.826-26.589-6.66-21.615 4.183-49.607-38.551-62.101-54.332-12.558-15.768-40.909-43.843-63.113-43.843-22.172 0-50.754 26.807-63.54 41.008-12.788 14.184-41.17 56.719-63.081 53.852-21.912-2.878-33.03-7.737-24.658 9.491 8.34 17.215 34.272 31.303 57.557 31.303zm93.625-103.501c21.812 0 35.349 16.139 35.349 27.086 0 10.973-4.149 17.39-5.231 20.584-2.191 6.492.426 9.656.426 9.656s-.784 6.689-2.909 9.647c-2.126 2.967-12.559-1.97-12.559 9.175 0 0-3.99 2.993-14.977 2.993-10.988 0-15.208-2.993-15.208-2.993 0-11.145-10.432-6.208-12.558-9.175-2.125-2.958-2.876-9.647-2.876-9.647s2.583-3.164.425-9.656c-1.081-3.194-5.265-9.611-5.265-20.584 0-10.947 13.538-27.086 35.383-27.086zm184.536 314.686c-6.148-17.812-26.489-20.363-43.494-27.529-18.671-7.87-39.34-17.006-57.981-24.653a7240.792 7240.792 0 01-15.925-4.341c-6.343-4.373-12.559-18.869-15.956-26.094a1536.56 1536.56 0 01-10.173-1.455c.555-11.135 7.457-11.747 10.173-20.274 2.386-7.517.261-17.304 4.054-24.251 2.617-4.838 8.566-4.887 11.543-9.025 2.681-3.762 4.48-10.316 5.332-14.936 1.24-6.833 2.29-15.739.523-23.315a422.872 422.872 0 01-23.94-1.479l-5.297 17.977c-2.028 6.776-9.418 11.618-16.447 10.751l-12.362-1.536c-6.999-.872-12.853-7.368-12.982-14.448l-.295-18.396c0-.474.096-.897.131-1.357-31.852-6.549-57.392-15.542-74.396-22.514.554 4.454 1.34 9.148 2.387 14.118 1.864 8.723-4.775 12.617-4.348 17.379.947 10.421 1.143 35.473 10.986 41.646.916.577 7.915 2.323 7.847 1.85a8789.064 8789.064 0 012.91 30.418c2.453 6.754 8.374 7.488 10.075 17.021l-7.556 1.827c-3.401 7.225-9.613 21.721-15.924 26.094-5.333 1.449-10.628 2.905-15.992 4.341-18.607 7.647-39.275 16.783-57.948 24.653-17.005 7.166-37.345 9.718-43.46 27.529 0 12.105-1.176 40.676-.851 56.53h370.186c.322-15.855-.82-44.425-.82-56.531z"/></svg>