<svg xmlns="http://www.w3.org/2000/svg" viewBox="0 0 512 512"><path d="M368.255 130.577h-3.824l-17.005-40.696H165.178l-17.004 40.696h-3.86c-6.865 0-12.458 5.592-12.458 12.464 0 6.896 5.593 12.49 12.458 12.49h223.941c6.902 0 12.493-5.594 12.493-12.49 0-6.872-5.591-12.464-12.493-12.464zm-49.574-.88h-15.107a12.037 12.037 0 01-12.067-12.07c0-6.668 5.396-12.096 12.067-12.096h15.107c6.668 0 12.067 5.428 12.067 12.096a12.04 12.04 0 01-12.067 12.07zM175.513 421.168h161.578l23.969-242.023H151.542l23.971 242.023z"/></svg>