<svg xmlns="http://www.w3.org/2000/svg" viewBox="0 0 512 512"><path d="M324.932 172.613v.014c-.066-.116-.164-.215-.227-.311a752.036 752.036 0 00-12.461-16.778c-5.43-9.025-8.273-19.992-1.635-35.837l22.76-54.517-35.775-16.303 3.695-16.154h-89.862l4.708 20.585-36.79 11.872 22.761 54.517c11.283 26.943-4.84 39.813-14.321 52.926-46.831 64.8-99.286 157.572-99.286 213.493 0 92.726 72.011 89.637 167.858 89.637 95.882 0 167.923 3.089 167.923-89.637-.001-55.936-52.517-148.693-99.348-213.507zm-91.138-45.523h45.848v28.939h-45.848V127.09zm65.435 269.919c-5.983 2.062-11.739 3.075-17.267 3.075-5.558 0-10.137-.359-13.769-1.077-3.662-.739-7.031-1.623-10.07-2.652-3.205-1.146-6.411-2.176-9.648-3.041-3.204-.882-7.193-1.305-12.002-1.305-3.955 0-8.077.523-12.394 1.616-4.283 1.092-8.534 3.252-12.787 6.459l-13.537-20.111c3.042-1.896 6.082-4.14 9.058-6.691 2.975-2.55 5.625-5.344 7.882-8.402 2.257-3.057 4.119-6.395 5.593-9.953 1.438-3.588 2.191-7.332 2.191-11.27 0-2.467-.426-4.922-1.212-7.342-.815-2.402-1.799-4.82-2.941-7.309h-21.682v-18.59h13.995c-2.188-2.783-4.38-6.85-6.541-12.264-2.19-5.381-3.301-11.365-3.301-17.938 0-5.821 1.21-11.365 3.629-16.61 2.387-5.25 5.951-9.896 10.597-13.898 4.675-4.009 10.531-7.179 17.495-9.517 6.998-2.324 15.075-3.486 24.296-3.486 16.743 0 29.792 4.663 39.146 13.999 9.318 9.322 13.994 22.89 13.994 40.68h-29.529c-.131-2.19-.424-4.937-.884-8.189-.426-3.306-1.405-6.459-2.941-9.532-1.538-3.058-3.858-5.725-6.999-7.98-3.139-2.275-7.488-3.4-13.014-3.4-6.575 0-11.775 1.833-15.666 5.478-3.825 3.643-5.789 8.535-5.789 14.633 0 1.764.098 3.449.23 5.054.165 1.585.49 3.448 1.014 5.577.491 2.106 1.374 4.557 2.618 7.325 1.208 2.777 2.941 6.115 5.132 10.07h29.073v18.59h-22.958c.718 2.176 1.21 4.367 1.439 6.559.197 2.191.293 4.511.293 6.998 0 6.849-1.766 12.721-5.328 17.607-3.6 4.89-7.786 9.204-12.592 13.002l.427.438c3.498-2.17 6.342-3.581 8.533-4.134 2.192-.588 4.319-.883 6.346-.883 2.941 0 5.819.243 8.663.749 2.847.522 5.69 1.067 8.635 1.638 2.91.749 5.756 1.356 8.502 1.864 2.812.522 5.625.766 8.568.766 2.879 0 5.854-.507 8.862-1.521 2.944-1.029 6.443-3.642 10.366-7.862l13.113 22.091c-5.263 5.08-10.855 8.662-16.839 10.689z"/></svg>