<svg xmlns="http://www.w3.org/2000/svg" viewBox="0 0 512 512"><path d="M261.992 239.754c0 16.044 2.982 29.038 19.029 29.038h88.588c16.043 0 19.022-12.994 19.022-29.038 0-16.046-2.979-29.05-19.022-29.05h-88.588c-16.046 0-19.029 13.004-19.029 29.05zM245.909 308.6c0 16.035 2.988 29.05 19.017 29.05H383.48c16.047 0 19.035-13.015 19.035-29.05 0-16.043-2.988-29.047-19.035-29.047H264.926c-16.029 0-19.017 13.004-19.017 29.047zm15.864 69.9c0 16.033 2.988 29.036 19.014 29.036h93.52c16.043 0 19.034-13.003 19.034-29.036 0-16.054-2.991-29.05-19.034-29.05h-93.52c-16.025 0-19.014 12.996-19.014 29.05zm15.435 71.36c0 16.035 2.988 29.039 19.021 29.039H349.5c16.034 0 19.027-13.004 19.027-29.039 0-16.053-2.993-29.05-19.027-29.05h-53.271c-16.033.001-19.021 12.998-19.021 29.05zm-7.389 25.459c-3.258-6.221-4.71-14.074-4.71-25.459 0-11.392 1.452-19.251 4.71-25.47a27.12 27.12 0 014.749-6.54c-11.305-1.479-17.19-8.165-20.19-13.895-3.256-6.222-4.703-14.071-4.703-25.456 0-11.394 1.447-19.248 4.703-25.473a28.095 28.095 0 013.501-5.185c-10.767-1.689-16.441-8.195-19.365-13.781-3.257-6.222-4.709-14.076-4.709-25.462 0-11.388 1.452-19.243 4.709-25.466 2.874-5.486 8.411-11.852 18.818-13.677a28.043 28.043 0 01-2.732-4.238c-3.257-6.22-4.71-14.074-4.71-25.465 0-11.393 1.453-19.246 4.71-25.468 3.394-6.479 10.475-14.206 24.944-14.206h18.061c1.859-13.459 39.114-42.243 39.114-101.103 0-64.51-68.624-57.057-68.624-57.057v40.044c-12.038 44.633-91.93 113.537-114.558 132.355-26.783 13.676-43.424 40.396-43.424 73.333v98.201c0 50.822 41.199 92.019 92.015 92.019h69.2a27.721 27.721 0 01-1.509-2.551z"/></svg>