<svg xmlns="http://www.w3.org/2000/svg" viewBox="0 0 512 512"><path d="M293.803 250.02l-64.785 64.762L463.1 337.197l-22.402-234.091-63.539 63.547c-36.348-25.028-79.562-39.056-124.348-39.161-37.917-.057-77.537 10.596-111.611 34.809-10.58 7.456-20.488 16.197-29.562 26.066 11.625-4.024 23.954-6.052 36.641-5.971 46.468.2 97.189 24.819 145.524 67.624zm-129.5 160.701v-35.424c0-43.781 8.699-73.252 19.409-92.192 10.875-18.97 23.234-28.682 37.492-34.859 7.047-2.946 14.684-4.844 22.795-5.65-34.208-23.274-67.579-35.41-95.72-35.262-29.038.238-52.666 11.643-71.159 38.472-3.499 5.161-6.802 10.941-9.811 17.327a240.87 240.87 0 00-2.371 6.924c-10.137 30.984-15.303 66.023-15.303 105.242v35.424h114.668z"/></svg>