<svg xmlns="http://www.w3.org/2000/svg" viewBox="0 0 512 512"><path d="M288.311 65.344S132.49 123.676 132.49 286.369c0 111.828 49.936 146.785 90.839 157.717-10.693-5.025-20.893-16.164-20.893-40.924 0-45.586 44.824-61.936 44.824-61.936-11.688 24.494-1.173 33.389 9.825 43.461 14.635-18.652 19.415-36.57 3.575-79.654 0 0 70.424 29.889 55.853 99.934-4.674 22.475-17.8 34.857-32.061 41.689 36.017-9.098 95.059-44.814 95.059-116.504 0-129.111-161.659-113.22-91.2-264.808zm26.958 60.48c2.841 20.068 1.008 33.783-3.618 43.971 7.246 9.438 16.863 18.477 27.374 28.344 6.532 6.137 13.408 12.594 20.178 19.631-.889-59.202-43.934-91.946-43.934-91.946z"/></svg>