<svg xmlns="http://www.w3.org/2000/svg" viewBox="0 0 512 512"><path d="M207.504 97c22.009 0 52.552 2.224 84.438 11.218 30.674 8.603 62.492 23.316 89.684 47.941 14.275 12.949 27.322 28.676 38.377 47.856l6.996-1.974c-.359-11.186-1.521-22.145-3.484-32.77l-.178-.881-.539-.724a214.896 214.896 0 00-26.047-28.2c-30.413-27.552-65.566-43.66-98.741-52.964-27.913-7.817-54.451-10.857-76.032-11.708l-1.194-.063-.982.623c-7.062 4.542-14.028 9.579-20.862 15.04l-8.568 6.888 10.987-.217a360.4 360.4 0 016.145-.065zm-88.555 162.889c5.07 0 10.234-.396 15.386-1.276l-.636-3.661.652 3.661c9.711-1.717 19.556-5.43 27.945-12.395 8.451-6.968 14.992-17.021 18.588-29.924 1.146-4.089 2.028-8.503 2.585-13.224a84.401 84.401 0 012.486-12.676c3.744-13.174 9.909-21.615 17.235-27.793 10.89-9.125 25.307-12.854 37.228-13.931 3.287-.297 6.361-.396 9.091-.396 2.176 0 4.138.067 5.772.162 1.864.101 3.333.265 4.251.365.492.062.852.094.998.126.098 0 .18.037.246.037a12.68 12.68 0 001.813.128 11.247 11.247 0 0011.103-9.463c.098-.625.145-1.231.145-1.803 0-5.445-3.938-10.218-9.465-11.099-.229-.033-6.279-.982-14.845-.982-7.343 0-16.777.654-26.915 3.089-11.119 2.667-23.153 7.573-33.847 16.465-10.694 8.862-19.703 21.748-24.493 39.012-1.405 4.991-2.469 10.335-3.171 16.044a64.153 64.153 0 01-1.93 9.891c-2.598 9.12-6.508 14.618-11.266 18.621-6.98 5.873-17.038 8.424-28.222 8.487h-.704c-5.576 0-11.316-.618-16.742-1.537l-3.206-.554-.982 3.104c-1.6 4.923-3.008 9.844-4.314 14.718l-1.015 3.894 3.958.749c6.901 1.243 14.47 2.161 22.271 2.161zm-9.86-35.843c11.872-.95 21.763-6.016 28.631-13.309 6.85-7.197 10.824-16.027 13.276-24.741 3.007-10.773 3.811-21.731 3.811-30.984 0-1.928-.05-3.759-.081-5.492-.05-1.426-.133-2.745-.199-3.993l-.292-4.705 6.326-2.292c10.58-3.86 22.059-7.13 34.256-9.252 5.46-.982 9.32-5.725 9.32-11.086 0-.654-.065-1.309-.179-1.932l-3.681.623 3.681-.656a11.267 11.267 0 00-13.097-9.141c-4.349.772-8.65 1.685-12.851 2.698l-1.048.232-.719.751a299.982 299.982 0 00-19.852 21.879l-2.45 2.973-.018-.228-1.978 2.615-4.317 5.234.506-.164-.328.423a319.114 319.114 0 00-15.647 22.63l-.456.723-.098.882c-.475 4.182-1.209 8.338-2.289 12.161-2.388 8.603-6.312 15.015-11.577 18.347-.917.56-1.962 1.082-3.155 1.589l-1.341.556-.605 1.308c-2.715 5.737-5.265 11.492-7.586 17.25l-2.242 5.591 6.018-.491a7.82 7.82 0 00.261.001zM289.603 62.271c10.907 2.616 21.779 6.117 31.343 10.499 1.507.72 3.125 1.016 4.712 1.016 4.251 0 8.339-2.424 10.218-6.544a11.25 11.25 0 001.046-4.711c0-4.266-2.437-8.339-6.54-10.235-2.648-1.208-5.312-2.318-7.996-3.4l-.357-.132-.395-.047c-5.705-.982-11.51-1.453-17.396-1.453-10.367 0-20.944 1.468-31.607 4.214l.297 7.311c5.459.963 11.05 2.109 16.675 3.482zM113.504 383.629c47.399 0 81.691-9.875 106.296-25.001 31.527-19.322 46.11-46.858 52.292-69.213 4.037-14.485 4.806-26.88 4.806-34.368 0-4.363-.294-7.294-.294-7.356v-.195c-.621-5.789-5.494-10.071-11.216-10.071-.36 0-.785.031-1.343.094-5.639.625-9.922 5.493-9.922 11.187 0 .295.015.622.048.982v.032l.031.193c0 .065.182 1.997.182 5.04 0 5.898-.639 16.414-3.989 28.386-5.282 18.505-16.498 40.12-42.4 56.097-20.273 12.51-50.228 21.698-94.522 21.698-5.854 0-11.954-.163-18.315-.491l-5.102-.264 1.295 4.942a163.076 163.076 0 004.938 15.627l.881 2.324 2.485.101c4.727.195 9.321.258 13.801.258h.048zM346.977 83.723s.035 0 .102.032l.242.101c.065.015.146.063.213.095 3.207 1.372 18.938 8.353 36.203 19.687a286.5 286.5 0 0110.039 6.966l5.363-5.002c-9.942-15.67-22.5-29.252-37.479-39.929l-.293-.197-.312-.147c-3.287-1.537-5.38-2.403-5.38-2.403-1.488-.624-2.959-.919-4.382-.919a11.269 11.269 0 00-10.413 6.999 10.899 10.899 0 00-.869 4.287 11.311 11.311 0 006.966 10.43zm18.904 229.5c-8.994-38.309-21.911-62.592-22.205-63.146l-3.303 1.717 3.303-1.749a11.31 11.31 0 00-9.959-5.967c-1.783 0-3.612.423-5.314 1.356-3.775 2.013-5.95 5.916-5.95 9.94 0 1.769.425 3.597 1.325 5.266l.096.194.05.068c1.392 2.694 13.033 25.945 20.799 60.854 4.056 18.22 7.031 39.57 7.079 62.87l.016 10.124 6.557-7.688c5.102-5.984 9.958-12.194 14.633-18.637l.789-1.062-.082-1.358a319.421 319.421 0 00-7.834-52.782zm9.696-80.807c-25.722-40.072-61.023-55.937-83.391-62.163a147.024 147.024 0 00-14.226-3.237c-1.88-.327-3.417-.561-4.595-.686-.573-.1-1.08-.164-1.471-.233-.198-.031-.326-.062-.442-.062h-.1c-7.667-1.39-14.535-2.059-20.814-2.059-7.079 0-13.488.85-19.292 2.549-9.679 2.81-17.464 8.143-23.201 14.745-9.925 11.545-14.161 25.64-18.363 39.017-3.124 10.103-6.114 20.01-10.316 28.55-3.157 6.475-6.917 12.129-11.839 16.936-7.392 7.146-17.445 12.771-34.124 15.517-5.967.934-12.754 1.49-20.472 1.49-6.491 0-13.604-.392-21.421-1.179l-3.597-.36-.489 3.565a257.967 257.967 0 00-1.601 15.174l-.26 3.633 3.627.374c8.503.866 16.384 1.294 23.71 1.294 22.138 0 39.341-3.86 52.961-10.857 17.493-9.01 27.911-23.09 34.5-37.232 4.956-10.594 8.094-21.339 11.102-31.037 2.255-7.271 4.448-13.948 6.966-19.438 1.912-4.119 3.99-7.57 6.327-10.303 3.614-4.12 7.374-6.803 13.88-8.551 3.207-.833 7.131-1.357 11.904-1.357 4.743 0 10.285.491 16.779 1.685.947.147 1.763.278 2.826.411 3.222.471 8.765 1.337 15.942 3.332 19.067 5.398 48.464 18.395 70.54 52.669 13.635 21.271 24.703 51.194 28.072 93.51l.963 12.131 6.02-10.577a283.727 283.727 0 0012.441-24.658l.443-.998-.164-1.113c-5.331-33.833-15.763-60.138-28.825-80.482zm-39.228 92.777c-.063-.605-.13-1.114-.163-1.441 0-.164-.033-.295-.047-.357v-.064l-.033-.201a11.269 11.269 0 00-11.152-9.76c-.457 0-.965.017-1.52.117v-.015c-5.658.765-9.762 5.607-9.762 11.163.016.459.016.981.114 1.553 0 0 0 .068.015.232.246 1.848 1.194 10.546 1.194 23.088 0 15.711-1.487 37.625-7.716 59.729a168.073 168.073 0 01-7.426 20.991l-5.051 11.646 10.546-7.034a231.838 231.838 0 0022.172-16.79l.868-.738.327-1.077c.063-.279.145-.575.226-.881 6.951-24.853 8.586-48.597 8.586-65.767 0-7.916-.329-14.454-.688-19.032a221.243 221.243 0 00-.49-5.362zm-27.241-192.06a11.336 11.336 0 00-4.446-.93 11.249 11.249 0 00-10.366 6.818 11.12 11.12 0 00-.916 4.446c0 4.353 2.551 8.519 6.817 10.368l1.064.459c39.895 17.443 67.822 42.771 88 72.497 9.354 13.817 17.006 28.65 23.219 44.019l4.314 10.679 2.779-11.171a257.674 257.674 0 005.053-25.967l.182-1.155-.523-1.036c-22.433-44.765-58.635-84.745-115.177-109.027zm-10.889 238.692c0-5.396-3.891-10.155-9.385-11.084a12.068 12.068 0 00-1.914-.163c-5.394 0-10.152 3.893-11.067 9.383-1.358 7.881-2.681 16.451-5.103 25.148-2.879 10.104-7.161 20.392-14.684 30.283-8.862 11.509-22.333 22.775-44.408 32.044l1.407 7.194h1.961c12.852 0 25.574-1.827 38.03-5.297l.72-.195.588-.461c7.883-6.178 14.373-12.785 19.59-19.618 9.681-12.653 15.106-25.868 18.477-37.87 2.879-10.33 4.316-19.846 5.623-27.436.116-.653.165-1.308.165-1.928zm-48.577 43.233c1.686-2.06 2.501-4.61 2.501-7.083 0-3.252-1.455-6.554-4.187-8.762a11.348 11.348 0 00-7.08-2.503c-3.27 0-6.555 1.442-8.778 4.204-6.265 7.717-12.804 13.588-22.076 18.544-13.767 7.388-34.435 12.573-68.118 14.563l-10.253.592 8.26 6.146c7.292 5.365 15.271 9.893 23.839 13.503l.916.38.997-.115c3.189-.375 6.294-.803 9.271-1.278 18.853-2.94 33.567-7.487 45.687-13.911 12.129-6.426 21.385-14.779 29.021-24.28zm60.676-121.586l-3.597-1.015 3.597.998a137.114 137.114 0 004.727-27.061c.246-3.464.375-6.77.375-9.991 0-14.144-2.435-25.818-7.13-35.266-5.753-11.646-15.302-19.524-26.111-22.468a41.905 41.905 0 00-11.329-1.535c-10.318 0-20.472 3.595-29.27 9.547-12.067 8.174-22.04 21.11-26.587 37.28a71.454 71.454 0 00-2.614 19.229c0 1.177.033 2.386.082 3.627.046.982.082 1.997.082 3.01 0 5.103-.654 9.58-1.765 13.541-1.865 6.655-5.005 11.904-9.404 16.577-7.586 8.097-19.438 14.096-33.402 17.925-16.763 4.642-36.251 6.11-53.452 6.11-4.252 0-8.39-.095-12.279-.229-4.546-.194-8.797-.438-12.657-.748l-4.251-.297.231 4.235c.26 5.25.718 10.414 1.389 15.484l.374 3.041 3.073.228c7.099.46 15.304.818 24.135.818 7.488 0 15.436-.264 23.53-.912 19.013-1.576 38.964-5.234 56.311-13.558 8.667-4.173 16.694-9.563 23.367-16.63 6.705-7.045 11.903-15.764 14.747-25.967 1.702-6.079 2.585-12.654 2.585-19.65 0-1.342-.034-2.716-.1-4.088-.032-.852-.064-1.686-.064-2.519 0-4.696.637-9.059 1.765-13.114 3.041-10.89 9.811-19.524 17.496-24.72 5.675-3.861 11.657-5.709 16.759-5.694 1.863 0 3.58.232 5.151.687 4.708 1.441 8.534 4.118 12.034 10.857 2.748 5.43 4.792 13.736 4.792 25.281 0 2.583-.116 5.329-.312 8.239a115.13 115.13 0 01-3.989 22.645c-10.578 37.902-40.582 69.574-81.444 89.129-27.795 13.312-60.482 20.834-94.752 20.834h-2.518l-6.523-.032 3.252 5.624c3.108 5.393 6.542 10.563 10.335 15.4l1.144 1.489 1.897-.085c34.812-.977 67.987-9.089 96.912-22.903 45.369-21.698 80.608-57.848 93.408-103.353z"/></svg>