<svg xmlns="http://www.w3.org/2000/svg" viewBox="0 0 512 512"><path d="M263.608 443.932l97.171-97.179h.006l.008-.01 40.993-40.992c-12.618 39.775-30.882 99.987-30.882 115.401 0 23.549 19.085 42.636 42.634 42.636 23.553 0 42.638-19.087 42.638-42.636 0-19.162-28.23-107.58-38.746-139.858.097-1.079.164-2.147.155-3.188-.062-8.075-2.366-16.081-5.998-24.826-11.003-25.951-35.305-58.996-67.98-91.781-21.784-21.779-43.88-39.849-63.736-52.719-9.939-6.442-19.321-11.587-28.039-15.255-3.646-1.51-7.161-2.777-10.608-3.763-5.957-5.534-11.766-10.71-17.44-15.348-9.193-7.5-18.103-13.755-27.222-18.315-9.096-4.533-18.565-7.404-28.409-7.41-14.507-.103-28.52 6.647-40.352 18.664-11.294 11.103-17.338 24.931-17.22 38.914.033 12.827 4.488 25.109 11.233 37.139 4.189 7.422 9.314 14.825 15.159 22.32l-75.786 75.783c-5.417 5.398-7.216 12.666-7.167 19.019.054 8.066 2.363 16.071 5.988 24.823 10.999 25.953 35.305 58.994 67.971 91.768 21.797 21.787 43.891 39.854 63.745 52.731 9.945 6.443 19.32 11.586 28.037 15.254 8.752 3.625 16.757 5.935 24.822 5.987.089.003.181.003.274.003 6.302 0 13.42-1.83 18.745-7.157M143.643 131.121c-5.51-9.749-8.05-18.114-8.022-24.856.129-7.312 2.366-13.508 9.885-21.207 8.933-8.764 15.613-11.239 22.646-11.329 4.88-.009 10.525 1.431 17.24 4.777 6.91 3.36 14.62 8.785 23.087 15.769-.137.127-.28.234-.411.368-.021.018-.049.034-.07.055l-53.165 53.165c-4.45-5.877-8.244-11.486-11.19-16.742zm198.184 195.97c-.263.065-.804.157-1.655.151-2.729.059-8.286-1.119-15.129-4.032-20.825-8.646-52.862-31.589-83.767-62.607-20.669-20.663-37.754-41.638-49.412-59.646-5.829-8.983-10.294-17.233-13.174-24.109-2.921-6.846-4.095-12.405-4.041-15.134 0-.819.086-1.356.146-1.623l28.408-28.407a113.163 113.163 0 002.018 5.228c11 25.951 35.301 58.986 67.981 91.771 21.795 21.784 43.883 39.855 63.745 52.733 9.942 6.435 19.32 11.589 28.033 15.254a118.34 118.34 0 005.238 2.021l-28.391 28.4zm-18.42-86.363c-10.121-8.331-20.571-17.768-30.905-28.136-20.678-20.666-37.754-41.644-49.415-59.647-5.829-8.992-10.297-17.24-13.179-24.11-2.913-6.846-4.093-12.4-4.033-15.124a8.629 8.629 0 01.055-1.078 8.763 8.763 0 011.077-.059c2.735-.055 8.286 1.116 15.136 4.039 20.826 8.64 52.867 31.587 83.762 62.588 20.679 20.673 37.764 41.651 49.416 59.663.409.627.793 1.242 1.191 1.864h-53.105z"/></svg>