<svg xmlns="http://www.w3.org/2000/svg" viewBox="0 0 512 512"><path d="M390.631 44.497c-12.884.081-24.87 3.306-36.398 8.011-11.479 4.809-22.221 11.024-31.393 20.081l-63.932 63.901c-.883.914-1.685 1.832-2.501 2.729-.833-.896-1.653-1.814-2.521-2.729l-63.932-63.901c-9.14-9.057-19.914-15.272-31.392-20.081-11.546-4.705-23.513-7.93-36.398-8.011H60.279v51.149h61.886c3.154-.101 10.351 1.32 16.825 4.119 6.541 2.613 12.641 6.67 14.782 8.979l63.948 63.948c2.306 2.152 6.362 8.271 8.994 14.778 2.763 6.408 4.169 13.508 4.119 16.713 0 .029-.016.078-.016.127v68.641h-80.414l103.908 103.91 103.877-103.875h-76.212V204.31c-.099-3.186 1.325-10.365 4.106-16.84 2.613-6.508 6.685-12.626 8.975-14.778l63.949-63.948c2.158-2.309 8.242-6.365 14.797-8.979 6.459-2.799 13.653-4.22 16.826-4.119H452.5V44.497h-61.869zm-37.33 136.48c26.767 26.817 40.094 61.629 40.126 96.601-.032 35.306-13.278 70.359-40.126 97.241-26.815 26.797-61.74 40.092-96.894 40.124-35.156-.032-70.079-13.327-96.913-40.124-26.814-26.865-40.107-61.855-40.126-97.059.019-35.073 13.343-69.966 40.111-96.783l-36.167-36.148c-36.627 36.625-55.137 84.893-55.12 132.932-.017 48.085 18.379 96.486 55.151 133.229 36.658 36.672 84.958 55.149 133.064 55.116h.113c48.025 0 96.292-18.476 132.932-55.116 36.821-36.824 55.152-85.287 55.136-133.411.017-48.019-18.54-96.19-55.136-132.749l-36.151 36.147z"/></svg>