<svg xmlns="http://www.w3.org/2000/svg" viewBox="0 0 512 512"><path d="M310.761 137.421c2.649 10.664 2.913 20.567 2.669 31.515-.099 4.223-2.521 23.736-1.865 29.717.541 4.936 1.774 5.328 3.72 9.395 3.39 7.08 2.255 16.842.956 23.979-.712 3.906-2.216 9.468-4.502 12.653-2.521 3.518-7.562 3.541-9.793 7.641-3.213 5.899-1.398 14.186-3.424 20.56-2.302 7.23-8.16 7.737-8.604 17.195 2.875.412 5.738.819 8.604 1.23 2.875 6.112 8.139 18.406 13.515 22.107 4.504 1.231 9.008 2.46 13.514 3.686 15.781 6.475 33.32 14.22 49.139 20.889 14.403 6.074 31.645 8.24 36.853 23.339 0 10.253.968 34.471.701 47.907H98.489c-.262-13.437.702-37.654.702-47.907 5.209-15.099 22.451-17.265 36.854-23.339 15.818-6.669 33.357-14.414 49.137-20.889a9943.03 9943.03 0 0013.514-3.686c5.379-3.701 10.644-15.995 13.519-22.107l6.396-1.557c-1.451-8.072-6.451-8.697-8.536-14.415-.815-8.597-1.636-17.201-2.452-25.802.035.408-5.882-1.072-6.657-1.558-8.345-5.233-8.515-26.461-9.317-35.289-.366-4.038 5.244-7.349 3.686-14.745-9.142-43.33 3.954-72.625 24.665-79.349 14.371-5.826 41.207-16.63 66.239-1.228l6.216 5.76 10.05 1.729c5.037 2.909 8.256 12.569 8.256 12.569zM179.18 213.988c-.494-5.428 1.757-9.537 3.102-11.999.258-.477.599-1.097.766-1.472a157.541 157.541 0 01-2.49-15.715l-6.959-1.193-4.427-4.104c-17.843-10.977-36.974-3.276-47.214.87-14.765 4.797-24.1 25.678-17.58 56.56 1.108 5.274-2.892 7.633-2.628 10.513.571 6.292.688 21.426 6.64 25.153.551.346 4.77 1.404 4.746 1.116l1.747 18.385c1.485 4.076 5.052 4.521 6.082 10.272l-4.56 1.114c-2.048 4.357-5.799 13.122-9.631 15.76-3.209.874-6.424 1.751-9.631 2.627-11.249 4.611-23.751 10.134-35.028 14.888-10.264 4.329-22.555 5.875-26.268 16.633 0 7.308-.69 24.576-.498 34.15H86.15c.065-3.128.138-6.257.213-9.276.158-6.631.309-12.892.309-16.776v-2.097l.686-1.984c6.035-17.492 21.939-23.002 34.72-27.426 3.229-1.116 6.278-2.172 9.104-3.367 6.203-2.612 12.673-5.396 19.196-8.201 9.602-4.128 19.502-8.377 28.808-12.213-.465-1.008-.893-1.936-1.26-2.717l-6.131-.876c.316-6.743 4.492-7.106 6.131-12.258 1.445-4.548.15-10.449 2.442-14.653 1.588-2.922 5.183-2.943 6.978-5.445 1.627-2.273 2.704-6.24 3.21-9.021.272-1.495.526-3.158.697-4.877-9.748-8.984-10.966-26.442-11.777-38.37-.103-1.506-.195-2.86-.296-4.001zm295.474 139.408c-3.71-10.758-16.003-12.304-26.271-16.633-11.273-4.754-23.774-10.276-35.024-14.888-3.209-.876-6.422-1.753-9.631-2.627-3.834-2.638-7.582-11.402-9.636-15.76l-6.129-.876c.316-6.743 4.489-7.106 6.129-12.258 1.445-4.548.152-10.449 2.443-14.653 1.587-2.922 5.183-2.943 6.979-5.445 1.63-2.273 2.704-6.24 3.211-9.021.927-5.086 1.733-12.047-.684-17.093-1.386-2.898-2.264-3.177-2.649-6.691-.471-4.267 1.256-18.175 1.328-21.185.176-7.804-.014-14.862-1.9-22.463 0 0-2.296-6.887-5.888-8.963l-7.166-1.23-4.429-4.104c-17.843-10.977-36.974-3.276-47.214.87-5.7 1.85-10.574 6.125-14.056 12.418-.113 2.086-.152 3.793-.061 4.668.049.457.099.726.124.858.12.228.26.451.402.694.521.893 1.238 2.113 2.042 3.799 5.022 10.492 3.538 23.072 1.981 31.629-.77 4.221-2.655 12.138-6.646 17.706a19.816 19.816 0 01-3.354 3.603c.634 6.669 1.994 14.343 5.998 16.851.553.346 4.771 1.404 4.747 1.116l1.749 18.385c1.483 4.076 5.049 4.521 6.082 10.272l-4.56 1.114c-.357.76-.769 1.659-1.224 2.633 9.354 3.854 19.317 8.128 28.973 12.283a2926.156 2926.156 0 0019.229 8.215c2.824 1.195 5.875 2.251 9.104 3.367 12.781 4.424 28.688 9.934 34.72 27.426l.686 1.984v2.097c0 3.885.151 10.146.312 16.776.07 3.02.146 6.148.214 9.276h50.566c.193-9.574-.497-26.843-.497-34.15z"/></svg>