<svg xmlns="http://www.w3.org/2000/svg" viewBox="0 0 512 512"><path d="M108.292 38.797V472.94h296.197V38.797H108.292zm265.537 403.435H138.933V69.436h234.896v372.796zm-45.765-116.121H185.942v24.918h142.123v-24.918zm0 57.032H185.942v24.919h142.123v-24.919zM207.591 193.08v5.657h-8.749l-6.785 15.763h16.856c3.059 19.098 9.695 33.973 19.9 44.605 11.232 11.803 26.015 17.723 44.408 17.723 12.673 0 23.89-2.846 33.668-8.533l.213-33.026c-11.513 9.188-22.747 13.765-33.683 13.765-16.923 0-27.7-11.512-32.36-34.533h38.049l6.785-15.763H239.31l.21-9.187h48.988l6.787-15.732h-53.353c5.084-19.979 15.289-29.957 30.61-29.957 8.894 0 18.442 3.238 28.646 9.814l13.357-27.342c-14.307-7.293-27.567-10.92-39.814-10.92-17.363 0-31.783 5.562-43.312 16.611-10.92 10.238-18.148 24.137-21.649 41.793h-11.15l-6.802 15.732h15.99c-.145.294-.227 1.471-.227 3.53z"/></svg>