<svg xmlns="http://www.w3.org/2000/svg" viewBox="0 0 512 512"><path d="M288 111.709a11.635 11.635 0 00-16.448.001l-17.182 17.186c-54.131-19.107-116.814-7.023-160.113 36.271-60.082 60.082-60.082 157.501 0 217.582 60.082 60.08 157.496 60.08 217.578-.003 43.301-43.298 55.385-105.981 36.275-160.112l17.182-17.184c4.543-4.541 4.543-11.903 0-16.445L288 111.709zm108.459-27.063c-27.244 3.242-46.768 23.429-55.844 34.934l19.766 19.767c5.002-6.903 19.822-24.942 39.471-27.213 13.863-1.604 28.449 5.151 43.369 20.069l19.582-19.584c-21.27-21.27-43.602-30.682-66.344-27.973z"/></svg>