<svg xmlns="http://www.w3.org/2000/svg" viewBox="0 0 512 512"><path d="M392.454 280.446a12.187 12.187 0 008.658-3.585 12.221 12.221 0 003.592-8.663c-.004-44.182-18.023-84.239-46.963-113.156-28.855-28.872-68.869-46.687-112.879-46.681-6.766 0-12.246 5.481-12.25 12.246.004 6.766 5.484 12.246 12.25 12.243h-.004c37.354.01 71.088 15.055 95.566 39.513 24.566 24.59 39.773 58.373 39.783 95.84.001 6.766 5.485 12.246 12.247 12.243zm-90.637-69.291c14.602 14.629 23.613 34.685 23.619 56.966.004 6.766 5.49 12.249 12.25 12.246 3.383 0 6.447-1.374 8.66-3.589a12.189 12.189 0 003.586-8.657c0-28.984-11.811-55.317-30.799-74.283-18.955-18.975-45.273-30.714-74.191-30.709-6.766-.002-12.252 5.482-12.246 12.245 0 6.765 5.475 12.248 12.24 12.241v.006c22.254.005 42.292 8.969 56.881 23.534zm96.246-96.417c-38.959-38.983-92.945-63.056-152.396-63.056-6.766.003-12.25 5.484-12.242 12.249 0 6.764 5.477 12.244 12.242 12.244 52.781.009 100.488 21.31 135.076 55.881 34.674 34.691 56.127 82.441 56.141 135.336-.004 6.766 5.48 12.245 12.244 12.245a12.193 12.193 0 008.66-3.588 12.2 12.2 0 003.588-8.659c0-59.598-24.26-113.623-63.313-152.652zM276.925 375.442s-25.443 1.111-81.148-54.593c-55.699-55.702-54.59-81.146-54.59-81.146l40.691-40.697c-6.797-41.243-30.668-106.45-77.355-91.385-46.01 14.48-63.008 79.353-49.277 119.585 67.943 191.817 229.227 230.583 253.951 232.422 59.285 6.276 97.408-30.865 104.852-87.072 0 0-59.945-38.123-89.85-44.388l-47.274 47.274z"/></svg>