<svg xmlns="http://www.w3.org/2000/svg" viewBox="0 0 512 512"><path d="M409.809 304.006a64.816 64.816 0 00-42.807 16.084l-58.209-33.338c.23-2.123.393-4.298.393-6.491 0-5.624-.85-11.056-2.418-16.155l34.891-20.225c9.517 9.928 22.893 16.169 37.738 16.169 28.844 0 52.225-23.378 52.225-52.239 0-28.82-23.381-52.209-52.225-52.209-28.875 0-52.224 23.389-52.224 52.209 0 5.154.751 10.094 2.156 14.797l-35.024 20.273c-5.131-5.408-11.312-9.773-18.311-12.717v-64.473c25.539-8.795 43.916-33.011 43.916-61.525 0-35.938-29.163-65.082-65.107-65.082-35.908 0-65.043 29.145-65.043 65.082 0 28.515 18.346 52.73 43.854 61.513v64.485c-6.541 2.777-12.461 6.803-17.363 11.79l-34.176-19.573c1.309-4.625 2.094-9.519 2.094-14.57 0-28.82-23.412-52.209-52.227-52.209-28.842 0-52.223 23.389-52.223 52.209 0 28.861 23.381 52.239 52.223 52.239 14.916 0 28.355-6.31 37.871-16.351l33.453 19.168a55.547 55.547 0 00-2.812 17.394c0 2.292.131 4.534.424 6.741l-56.802 32.894c-11.413-9.906-26.292-15.89-42.579-15.89-35.938 0-65.074 29.104-65.074 65.058 0 35.959 29.137 65.062 65.074 65.062 35.939 0 65.078-29.103 65.078-65.062 0-4.265-.457-8.448-1.21-12.492l56.737-32.88c6.378 4.807 13.799 8.24 21.912 9.877v36.162c-22.861 5.533-39.896 26.086-39.896 50.691 0 28.846 23.381 52.224 52.223 52.224 28.845 0 52.191-23.378 52.191-52.224 0-24.605-17.004-45.158-39.895-50.691v-36.884a54.152 54.152 0 0019.098-9.317l58.175 33.322a65.3 65.3 0 00-1.144 12.212c0 35.959 29.136 65.062 65.043 65.062 35.939 0 65.078-29.103 65.078-65.062 0-35.955-29.139-65.058-65.078-65.058z"/></svg>