<svg xmlns="http://www.w3.org/2000/svg" viewBox="0 0 512 512"><path d="M256 49.756C142.1 49.756 49.758 142.098 49.758 256S142.1 462.244 256 462.244c113.902 0 206.242-92.342 206.242-206.244S369.902 49.756 256 49.756zm0 383.381c-97.674 0-177.137-79.463-177.137-177.137S158.326 78.863 256 78.863 433.135 158.326 433.135 256 353.674 433.137 256 433.137zm154.152-177.674v-.417l-.002-.074v-.049l-.004-.033v-.096c0-.129 0-.26-.002-.391l-32.201.328c-.143-14.137-2.676-27.701-7.24-40.295l30.266-10.973a152.643 152.643 0 00-3.725-9.311c-.002-.004 0-.002-.004-.006a2.249 2.249 0 00-.033-.078v-.002a.87.87 0 01-.033-.076c-.004-.004-.004-.004-.004-.008l-.068-.156c0-.004-.002-.004-.004-.008l-.066-.152c-.004-.004-.004-.01-.008-.016-.02-.049-.043-.096-.064-.146-.004-.008-.004-.008-.004-.018-.023-.049-.047-.096-.068-.145-.002-.006-.008-.014-.008-.018-.008-.023-.023-.047-.031-.072 0-.004 0-.002-.006-.004-.008-.025-.018-.045-.027-.066 0-.004-.008-.016-.01-.021-.01-.023-.018-.045-.029-.068l-.006-.016a.372.372 0 01-.027-.057.047.047 0 00-.01-.02l-.029-.066-.008-.023a.382.382 0 01-.023-.051.123.123 0 01-.014-.025l-.029-.064-.01-.02a1.284 1.284 0 00-.023-.055c-.002-.01-.002-.014-.006-.021-.01-.021-.021-.045-.033-.064a.052.052 0 00-.01-.023.17.17 0 00-.023-.051c-.004-.01-.004-.016-.01-.025-.008-.02-.018-.039-.027-.064a.907.907 0 01-.035-.07c-.002-.008-.008-.016-.012-.025a.383.383 0 01-.025-.062c-.006-.01-.01-.02-.016-.027-.004-.014-.014-.031-.018-.047-.006-.008-.01-.02-.014-.029l-.029-.059c-.004-.008-.008-.018-.014-.027-.004-.016-.014-.031-.018-.047-.01-.014-.01-.018-.018-.031-.006-.02-.016-.037-.025-.055l-.014-.029c-.006-.014-.014-.029-.02-.045-.008-.02-.012-.023-.02-.043-.006-.014-.012-.031-.02-.045-.006-.008-.01-.02-.014-.029-.006-.016-.016-.033-.023-.049l-.016-.037c-.008-.014-.014-.029-.023-.047-.004-.006-.008-.02-.014-.029-.004-.014-.014-.029-.018-.041a.314.314 0 01-.023-.053.491.491 0 01-.018-.033c-.004-.014-.01-.023-.014-.033-.01-.018-.014-.035-.023-.049-.004-.014-.014-.027-.02-.043-.004-.012-.014-.025-.018-.037l-.014-.031a.243.243 0 01-.023-.053c-.01-.018-.016-.025-.02-.039a.18.18 0 00-.02-.035.159.159 0 00-.014-.037c-.01-.02-.016-.037-.025-.057a.088.088 0 00-.02-.035c-.004-.01-.008-.021-.014-.031-.004-.014-.01-.023-.016-.037l-.025-.051-.02-.041c-.004-.014-.01-.023-.014-.033l-.033-.068c-.004-.006-.004-.014-.01-.023s-.014-.027-.018-.039l-.012-.027c-.01-.021-.02-.039-.029-.061a.468.468 0 00-.014-.031c-.01-.014-.014-.027-.021-.041a.064.064 0 00-.012-.025l-.033-.068c-.004-.008-.008-.018-.014-.025-.004-.018-.01-.025-.018-.045-.006-.002-.006-.01-.01-.018-.014-.023-.025-.059-.041-.084 0-.002 0-.004-.004-.01-.004-.02-.014-.029-.02-.047-.004-.004-.004-.012-.008-.014a1.149 1.149 0 00-.043-.086c0-.006-.002-.01-.004-.014-.01-.018-.016-.027-.023-.045 0-.008-.006-.016-.01-.021-.01-.025-.023-.049-.035-.078-.002-.004-.008-.01-.008-.014l-.021-.047c0-.004-.004-.008-.004-.014-.014-.023-.027-.059-.041-.084-.006-.008-.006-.012-.01-.018-.023-.051-.045-.094-.07-.145 0-.004-.002-.006-.004-.01-.023-.051-.045-.1-.068-.146-.006-.008-.006-.01-.008-.016-.025-.051-.043-.094-.072-.148 0-.002 0-.006-.004-.008l-.07-.145c0-.006-.006-.014-.008-.018l-.07-.146c0-.002 0-.002-.004-.006-.023-.053-.047-.098-.07-.152-.006-.002-.006-.004-.006-.008a1.926 1.926 0 01-.072-.152c-.027-.053-.051-.107-.08-.156-.17-.352-.342-.699-.512-1.049 0 0 0-.002-.002-.002a154.145 154.145 0 00-14.738-23.904l-25.744 19.311a122.665 122.665 0 00-29.746-28.232l17.947-26.719a156.065 156.065 0 00-14.837-8.803c-.004 0-.006-.002-.008-.006-.051-.027-.098-.049-.148-.074l-.004-.002c-.051-.029-.104-.053-.154-.08l-.004-.002-.148-.078c-.004 0-.004-.004-.01-.004l-.146-.076c-.004-.002-.006-.004-.01-.004-.033-.016-.066-.035-.096-.051l-.047-.023c-.006-.002-.01-.006-.014-.006-.033-.018-.062-.031-.094-.047 0-.002-.006-.002-.006-.004-.016-.008-.027-.016-.045-.023l-.01-.004c-.031-.018-.064-.033-.092-.051-.006 0-.006-.002-.01-.002-.02-.008-.031-.016-.045-.025-.006 0-.006-.002-.01-.004l-.088-.043a.06.06 0 01-.016-.008l-.043-.023c-.008-.002-.012-.006-.016-.008-.027-.012-.055-.027-.084-.041l-.014-.008c-.02-.008-.027-.014-.047-.023l-.01-.004c-.025-.016-.053-.029-.082-.043l-.018-.01c-.02-.01-.029-.012-.043-.021-.006-.004-.014-.006-.02-.008-.023-.016-.049-.025-.074-.039-.008-.004-.016-.008-.023-.014-.012-.006-.031-.012-.039-.02-.008-.002-.016-.004-.02-.008a1.33 1.33 0 00-.076-.039l-.02-.01-.041-.021-.01-.006-.09-.043c-.004-.002-.014-.006-.018-.01-.012-.006-.031-.014-.041-.021-.004 0-.004 0-.004-.002-.027-.014-.061-.027-.094-.045l-.02-.01c-.043-.02-.096-.049-.137-.068l-.02-.01c-.027-.012-.059-.031-.086-.045h-.01c-.012-.008-.029-.016-.041-.023-.006-.004-.016-.008-.025-.012-.018-.01-.027-.016-.047-.021a.473.473 0 00-.045-.023l-.037-.021c-.01-.006-.021-.008-.033-.014-.018-.012-.037-.018-.055-.029-.016-.004-.023-.01-.033-.014a.158.158 0 00-.041-.021c-.008-.004-.014-.006-.023-.012-.023-.012-.047-.021-.064-.031l-.029-.016a.321.321 0 01-.037-.018l-.029-.018-.062-.029-.027-.012a.386.386 0 00-.041-.02.438.438 0 00-.084-.043.314.314 0 00-.037-.018.335.335 0 01-.037-.02.084.084 0 01-.033-.016c-.016-.01-.035-.016-.051-.025-.012-.004-.025-.012-.037-.018-.008-.004-.025-.014-.035-.016l-.037-.02c-.018-.008-.037-.018-.055-.025-.01-.004-.02-.012-.029-.018a.122.122 0 01-.035-.02c-.014-.002-.029-.01-.041-.014-.016-.008-.035-.016-.051-.025-.01-.008-.021-.012-.033-.02-.014-.006-.023-.008-.035-.016-.021-.01-.039-.02-.059-.027-.01-.004-.018-.01-.027-.014a.183.183 0 00-.041-.018c-.008-.008-.018-.01-.031-.018-.02-.01-.039-.02-.057-.027-.01-.006-.021-.01-.029-.016-.016-.004-.029-.012-.045-.02-.01-.008-.014-.008-.027-.014-.018-.01-.041-.02-.061-.029l-.023-.014c-.018-.006-.033-.014-.047-.02-.01-.004-.018-.01-.027-.014-.02-.008-.041-.021-.059-.031-.01-.004-.02-.006-.029-.012-.014-.006-.031-.016-.047-.021-.008-.006-.016-.008-.023-.012-.023-.01-.039-.021-.062-.031l-.025-.01c-.018-.008-.031-.018-.045-.021-.01-.006-.02-.014-.027-.016a.767.767 0 00-.061-.027l-.027-.016a.772.772 0 01-.074-.034c-.02-.01-.037-.02-.057-.027a.256.256 0 01-.033-.016c-.012-.008-.025-.012-.035-.018a.218.218 0 01-.037-.02c-.02-.008-.037-.018-.057-.021a.938.938 0 01-.029-.018l-.043-.02a.25.25 0 01-.033-.016c-.016-.01-.037-.018-.057-.027-.008-.004-.018-.01-.027-.012a.386.386 0 00-.041-.02l-.039-.02c-.016-.006-.035-.016-.049-.023-.01-.004-.02-.01-.027-.014-.02-.008-.033-.016-.051-.023-.01-.004-.021-.01-.031-.012-.018-.01-.033-.02-.051-.027-.01-.006-.02-.01-.029-.014a.322.322 0 01-.053-.025c-.008-.004-.018-.008-.025-.014-.018-.008-.037-.014-.055-.023a.1.1 0 01-.023-.012l-.061-.029a.174.174 0 01-.023-.01c-.02-.008-.035-.018-.055-.025-.008-.002-.014-.006-.023-.01a.387.387 0 00-.062-.029l-.021-.012c-.02-.008-.037-.018-.053-.025l-.02-.01c-.023-.01-.047-.018-.068-.029-.01-.004-.012-.004-.021-.01-.016-.008-.033-.018-.051-.021l-.021-.014a.606.606 0 00-.066-.029l-.023-.012-.047-.02a.191.191 0 00-.027-.016c-.018-.01-.041-.018-.062-.027l-.023-.01c-.016-.008-.033-.018-.053-.025-.006-.004-.014-.006-.02-.012a.889.889 0 01-.062-.027c-.01-.004-.018-.01-.027-.012-.014-.01-.033-.016-.049-.023l-.021-.01c-.023-.01-.047-.02-.064-.031a.526.526 0 00-.023-.01l-.055-.025-.02-.006c-.021-.012-.043-.021-.066-.033-.004-.002-.018-.006-.02-.008l-.059-.029c-.006-.002-.008-.002-.012-.006a2.072 2.072 0 00-.07-.029l-.02-.01c-.023-.01-.039-.02-.061-.029-.002-.002-.008-.002-.012-.004-.023-.012-.047-.021-.07-.033l-.023-.008a.32.32 0 00-.059-.027l-.01-.006a2.243 2.243 0 00-.154-.068l-.006-.006c-.023-.01-.047-.021-.07-.029-.01-.004-.012-.008-.021-.01-.021-.012-.045-.021-.062-.031l-.01-.004a1.069 1.069 0 00-.068-.029l-.018-.008c-.049-.023-.098-.043-.145-.066-.004-.002-.014-.004-.018-.008-.023-.012-.047-.02-.07-.031l-.006-.002-.068-.029c-.004-.004-.014-.008-.018-.01a1.104 1.104 0 01-.07-.033c-.006 0-.006 0-.01-.002l-.064-.029c-.006-.004-.014-.006-.018-.008-.023-.012-.047-.02-.07-.033l-.01-.004c-.023-.01-.047-.018-.066-.029-.006 0-.008-.004-.012-.006l-.074-.031-.01-.006c-.023-.008-.043-.018-.066-.029a.03.03 0 00-.014-.006l-.074-.033-.006-.004a2.072 2.072 0 00-.07-.029c-.006-.002-.008-.004-.012-.004-.025-.012-.049-.023-.07-.035-.006 0-.01-.002-.016-.006-.018-.01-.041-.018-.062-.027l-.016-.006c-.023-.008-.047-.021-.07-.033-.004 0-.006-.002-.012-.004-.023-.008-.047-.021-.07-.031l-.004-.002c-.029-.012-.053-.021-.08-.035-.002-.002-.004-.002-.01-.004a.631.631 0 01-.066-.029c-.004 0-.006-.004-.01-.006-.023-.008-.047-.02-.076-.031-.004 0-.004-.004-.008-.006a.776.776 0 01-.074-.031c-.004 0 .002.002-.002 0-.025-.012-.055-.023-.078-.035l-.008-.002c-.023-.012-.053-.023-.074-.033h-.004c-.023-.012-.049-.021-.074-.035a2.269 2.269 0 01-.162-.07c-.006-.004-.01-.004-.014-.004l-.152-.066-.01-.006a7.787 7.787 0 01-.152-.064c-.006-.004-.006-.006-.012-.006-.025-.012-.049-.021-.074-.031l-.008-.004-.068-.029c-.004-.002-.01-.004-.014-.008-.051-.02-.1-.041-.152-.064l-.01-.004c-.023-.01-.051-.02-.074-.033-.006-.002-.006 0-.01-.002-.023-.012-.047-.02-.07-.029-.004-.002-.004-.004-.01-.004a.87.87 0 00-.076-.033l-.006-.006-.074-.029c-.004-.002 0-.002-.004-.002-.027-.01-.049-.023-.078-.033l-.01-.004c-.023-.008-.045-.02-.068-.029l-.01-.006-.078-.031-.004-.002c-.023-.01-.051-.021-.076-.033h-.004c-.027-.01-.051-.023-.078-.035l-.004-.002c-.057-.02-.107-.043-.16-.066-.004 0-.004 0-.008-.004-.051-.021-.102-.041-.152-.064l-.016-.006c-.021-.008-.043-.018-.07-.027-.004-.004.004 0-.002-.004a.949.949 0 00-.08-.031l-.008-.006a2.876 2.876 0 01-.152-.064c-.006 0-.01-.002-.016-.004-.051-.02-.1-.043-.152-.062l-.014-.008-.146-.061c-.01-.002-.006-.002-.016-.006l-.152-.061a1.268 1.268 0 00-.088-.037l-.004-.004c-.023-.01-.045-.02-.068-.027l-.014-.006c-.027-.014-.051-.021-.078-.031-.004-.002-.002-.002-.006-.002a.817.817 0 00-.068-.029c-.004 0-.01-.006-.014-.008-.023-.01-.053-.02-.076-.031l-.008-.002c-.021-.008-.043-.018-.066-.025l-.016-.008-.07-.031-.016-.002-.064-.029a.037.037 0 01-.014-.004c-.021-.01-.051-.02-.074-.033-.004 0-.008 0-.014-.002-.018-.01-.041-.018-.061-.027-.004-.002-.014-.004-.018-.008l-.068-.027a.06.06 0 01-.02-.004c-.02-.01-.041-.018-.061-.027-.01-.006-.01-.002-.02-.008-.023-.008-.045-.018-.068-.027l-.016-.008-.061-.023-.016-.008-.07-.027a.207.207 0 01-.02-.008c-.021-.01-.041-.016-.064-.025-.004-.002-.008-.004-.014-.004a2.072 2.072 0 00-.07-.029c-.004-.004-.012-.006-.016-.008-.023-.01-.043-.016-.066-.025l-.008-.004a1.005 1.005 0 00-.076-.027l-.018-.01c-.021-.01-.041-.016-.061-.025a.67.67 0 00-.084-.033.064.064 0 01-.023-.01l-.059-.021c-.008-.002-.014-.006-.023-.01-.018-.008-.037-.018-.059-.021a.084.084 0 00-.023-.01l-.059-.027c-.01-.002-.016-.006-.023-.008-.02-.008-.039-.016-.061-.023a.073.073 0 01-.025-.01c-.018-.006-.041-.016-.062-.025a1.284 1.284 0 00-.104-.041c-.023-.008-.041-.018-.064-.027-.006 0-.012-.004-.018-.004a.56.56 0 00-.059-.023c-.002-.002-.016-.006-.021-.01-.021-.01-.045-.018-.068-.027a.046.046 0 01-.021-.008c-.016-.004-.033-.012-.053-.02a.1.1 0 01-.023-.012c-.023-.008-.047-.016-.064-.025a.142.142 0 01-.029-.01l-.045-.018c-.014-.004-.014-.006-.027-.012l-.064-.025a.11.11 0 01-.033-.012.127.127 0 01-.037-.018c-.014-.002-.018-.004-.031-.01-.023-.008-.043-.016-.066-.021a.307.307 0 00-.031-.016c-.016-.004-.023-.01-.039-.018-.012-.002-.016-.004-.029-.01-.023-.008-.043-.018-.061-.023-.016-.006-.023-.01-.039-.014-.014-.004-.023-.01-.037-.014-.01-.006-.021-.008-.031-.014a.404.404 0 00-.061-.023l-.031-.014c-.016-.004-.029-.01-.043-.014-.01-.006-.023-.01-.033-.014-.018-.008-.039-.014-.059-.023l-.035-.014c-.012-.002-.025-.01-.039-.014-.01-.004-.029-.01-.037-.016-.02-.008-.035-.014-.055-.02a.22.22 0 01-.031-.016c-.014-.002-.029-.008-.043-.012-.014-.008-.037-.016-.051-.021-.012-.006-.027-.01-.039-.014-.014-.008-.025-.012-.039-.018l-.035-.014c-.02-.008-.035-.01-.053-.018a1.772 1.772 0 00-.039-.016c-.01-.002-.027-.012-.037-.014l-.037-.016c-.02-.008-.035-.014-.055-.02l-.039-.014a.682.682 0 01-.037-.016c-.01-.002-.02-.008-.031-.012-.02-.008-.049-.02-.068-.023a.096.096 0 00-.027-.012l-.041-.018c-.008-.002-.018-.008-.027-.01a1.273 1.273 0 00-.074-.027l-.02-.008-.051-.02-.008-.002c-.027-.012-.059-.023-.084-.033l-.023-.008a.237.237 0 01-.047-.02.037.037 0 01-.014-.004c-.025-.01-.057-.02-.084-.033-.008-.002-.018-.004-.021-.006l-.148-.055c-.004-.004-.014-.006-.018-.008l-.047-.018c-.006-.002-.01-.004-.014-.004-.029-.012-.061-.023-.088-.035a.081.081 0 00-.02-.006c-.051-.02-.102-.037-.152-.057 0-.002-.004-.002-.008-.004-.053-.018-.104-.035-.152-.055-.004-.004-.01-.006-.014-.008l-.158-.055c0-.002-.004-.002-.008-.006a4.362 4.362 0 01-.16-.059h-.008a.828.828 0 00-.102-.039.645.645 0 00-.057-.02s-.004-.004-.008-.004a5.419 5.419 0 00-.158-.059h-.004a153.644 153.644 0 00-7.883-2.635l-9.365 30.809a121.862 121.862 0 00-35.525-5.275h-.004v-32.172h-.557c-.025 0-.051 0-.078.002h-.379c-.023 0-.047.004-.07.004h-.206c-.025 0-.051 0-.074.002h-.189l-.08.002h-.105c-.025 0-.053 0-.08.002h-.185c-.002.004-.006.004-.014.004h-.086c-.029 0-.057 0-.082.002h-.104l-.08.002h-.102c-.027.002-.055.002-.082.002h-.006c-.025 0-.051 0-.076.004h-.02c-.057 0-.107 0-.164.002h-.021c-.023 0-.047 0-.068.002h-.092c-.006 0-.016 0-.02.002h-.082l-.084.002h-.018l-.07.002h-.014c-.027 0-.057 0-.084.002h-.086c-.008 0-.008 0-.012.002h-.092c-.023.004-.051.004-.074.004h-.018c-.027.002-.057.002-.084.002h-.004l-.08.002h-.014c-.061.002-.111.002-.172.006h-.012l-.168.004h-.014c-.027.002-.055.002-.082.002-.006 0 .004 0 0 0-.029.002-.057.002-.084.002h-.018c-.025.002-.051.002-.08.002h-.002c-.029.002-.059.002-.086.002-.004.002-.008.002-.014.002-.021 0-.049 0-.074.004h-.008c-.029 0-.057 0-.084.002h-.016l-.072.002h-.014l-.084.002h-.01c-.021.004-.049.004-.072.004-.008 0-.01.002-.014.002-.029 0-.057 0-.088.002h-.002l-.08.002h-.016a4.842 4.842 0 01-.166.008h-.016c-.055.002-.109.002-.166.006-.004 0-.01 0-.014.002-.027 0-.053 0-.08.002h-.102c-.027.004-.055.004-.078.006h-.01l-.082.002h-.01c-.027.002-.057.002-.084.006h-.004l-.086.002h-.006l-.084.004h-.008a70.78 70.78 0 01-.172.006h-.01l-.172.008h-.008a4.727 4.727 0 00-.172.008h-.01l-.176.01h-.004l-.176.006h-.004a1.727 1.727 0 01-.176.008h-.006a153.748 153.748 0 00-37.578 6.461l9.354 30.811a121.457 121.457 0 00-36.58 18.328l-19.057-25.953a155.28 155.28 0 00-15.219 12.754v.002c-.168.156-.334.314-.5.477v.002l-.084.078v.004l-.121.113c-.004 0-.004.006-.01.006-.035.035-.072.076-.113.113l-.01.012-.115.111c-.006.002-.006.008-.01.01-.041.037-.074.07-.117.111-.004.002-.004.006-.01.008-.025.025-.045.049-.074.074-.002 0-.002.002-.002.002l-.037.035c-.006.004-.01.01-.012.012-.021.02-.049.045-.066.064-.004.004-.004.008-.008.01-.016.016-.021.023-.037.033l-.016.02c-.023.02-.037.037-.061.057l-.014.016c-.014.014-.023.02-.037.033l-.012.014c-.02.02-.043.039-.062.061-.004.006-.008.008-.014.014l-.037.035c-.002.002-.004.006-.01.01-.018.02-.041.039-.059.059l-.023.021c-.01.01-.023.02-.033.033 0 0 0 .002-.004.004-.023.023-.047.045-.07.07l-.014.014-.109.107c-.006.004-.01.012-.02.018-.018.018-.033.031-.049.051-.008.006-.018.016-.025.023-.01.01-.018.02-.029.029l-.02.018-.057.061c-.006.002-.01.006-.016.012-.014.012-.023.023-.033.033-.008.006-.014.014-.021.02-.016.018-.031.035-.051.053-.006.006-.014.016-.023.021-.004.008-.023.023-.027.031a.148.148 0 00-.027.021c-.016.016-.029.033-.043.045l-.027.027c-.008.01-.018.018-.027.027l-.027.031a.38.38 0 01-.043.037.37.37 0 01-.027.029c-.01.012-.016.016-.027.025-.016.018-.029.029-.043.047-.008.006-.016.016-.025.021-.01.014-.02.023-.031.033-.006.008-.016.014-.021.021l-.047.045c-.014.012-.014.016-.023.025-.014.01-.021.021-.031.031-.008.008-.018.016-.021.023-.016.016-.033.031-.047.047-.012.012-.014.016-.029.023l-.027.031c-.01.006-.018.021-.027.027l-.041.041c-.004.008-.018.02-.021.023-.016.012-.023.023-.037.035a.182.182 0 01-.031.031l-.035.037c-.004.006-.02.018-.023.023l-.035.037-.029.027c-.014.014-.021.025-.037.035a.084.084 0 01-.023.023 1.09 1.09 0 01-.061.067c-.014.012-.025.027-.039.039-.006.002-.018.018-.02.02-.018.018-.033.035-.051.051l-.018.016c-.012.016-.025.027-.039.039a.095.095 0 01-.02.02.565.565 0 01-.049.051c-.004.008-.01.012-.016.02-.012.01-.025.025-.041.035a.05.05 0 01-.018.021c-.018.016-.033.033-.053.053 0 0-.008.01-.014.014-.012.014-.025.027-.039.045l-.014.01c-.02.02-.039.037-.053.055a.065.065 0 01-.018.016c-.016.014-.029.031-.043.045-.004.004-.014.012-.014.014l-.049.053-.018.018c-.016.018-.035.033-.053.051l-.006.006a.307.307 0 01-.051.051l-.014.016c-.018.02-.031.035-.051.053-.002.004-.014.014-.014.018l-.041.041c-.006.002-.016.016-.02.018a.638.638 0 01-.051.053l-.012.014a.48.48 0 00-.043.047l-.014.01c-.02.018-.035.037-.053.057l-.016.014-.045.047c-.004.002-.008.008-.012.01-.018.02-.033.039-.051.057-.006.004-.01.01-.014.012a1.203 1.203 0 01-.049.051l-.008.006c-.02.02-.037.041-.057.059a.042.042 0 00-.008.012l-.055.057c-.006.002 0 0 0 0l-.059.059c-.002.006-.008.01-.012.014l-.109.113c-.006.006-.01.01-.01.012-.041.041-.08.078-.117.119l-.006.008c-.02.021-.039.039-.057.061l-.057.059c-.006.004-.006.008-.01.01l-.057.059-.002.006-.061.059v.002a2.39 2.39 0 00-.119.129h-.004l-.059.062-.004.004c-.043.043-.08.08-.119.123l-.006.006c-.037.041-.074.082-.115.123l-.006.006a3.403 3.403 0 00-.115.125c-.004.002-.004.002-.004.004a1.42 1.42 0 00-.119.127c-.043.041-.084.086-.123.125l-.004.004-.057.061-.002.006a155.489 155.489 0 00-10.976 13.057l25.738 19.318a121.582 121.582 0 00-18.707 36.395l-30.705-9.684c0 .004 0 .004-.004.01-.004.02-.014.043-.02.064-.004.008-.004.02-.008.029l-.016.043-.008.031a.228.228 0 00-.02.064c-.004.01-.01.018-.01.027-.004.016-.01.027-.014.043-.004.01-.01.021-.012.031-.008.021-.012.041-.018.059a.16.16 0 01-.01.033l-.016.045c0 .01-.004.021-.008.031-.006.02-.01.037-.02.057-.002.014-.004.018-.01.035-.004.012-.01.027-.014.045a.094.094 0 01-.01.031c-.004.016-.01.029-.014.043-.004.02-.01.031-.014.049a.27.27 0 00-.014.043c-.006.01-.01.027-.012.035l-.012.035-.02.064c-.004.008-.004.018-.01.027a.27.27 0 01-.012.043c0 .01-.004.021-.01.031-.004.023-.014.047-.02.07-.004.01-.008.016-.008.025l-.014.043c-.006.01-.006.018-.01.025-.014.047-.027.096-.043.146-.004.006-.004.014-.008.021-.016.047-.029.1-.043.145-.004.006-.004.016-.01.023l-.012.045c0 .006 0 .008-.004.012-.008.029-.02.062-.025.092-.004.006-.004.014-.008.02l-.014.047c0 .004-.002.008-.006.014a1.83 1.83 0 01-.027.088c0 .008-.002.014-.004.021l-.016.047c0 .004-.004.01-.004.014-.01.029-.018.066-.027.094 0 .006-.002.008-.006.012a.38.38 0 01-.014.051c0 .004-.004.008-.004.012a1.01 1.01 0 00-.027.094c0 .006 0 .008-.004.016-.004.018-.01.027-.014.045 0 .008-.006.014-.006.021l-.027.09c0 .002 0 .008-.004.012l-.016.049c0 .004 0 .012-.004.014a3.64 3.64 0 01-.045.158c0 .004 0 .008-.004.01a1.985 1.985 0 01-.049.16c0 .006 0 .008-.002.012a1.52 1.52 0 01-.045.156c-.002.006-.002.008-.002.014-.02.057-.033.104-.047.16-.004.002-.004.006-.004.008-.018.059-.033.105-.047.166 0 .002-.004.002-.006.004-.021.078-.039.148-.062.227v.004c-.02.057-.033.111-.051.166 0 .002 0 .002-.002.002a1.447 1.447 0 01-.047.166v.01c-.018.057-.031.109-.051.168-.012.053-.029.109-.045.164 0 .004 0 .01-.004.012-.014.061-.029.107-.047.166-.014.057-.033.113-.047.172v.002c-.055.188-.105.379-.162.568v.006c-.25.895-.49 1.795-.721 2.699-.047.174-.088.344-.135.518v.002c-.08.309-.154.615-.23.926l-.086.348s-.002 0-.002.002c-.102.424-.203.848-.307 1.275-.027.119-.055.23-.08.346a4.343 4.343 0 00-.039.178s-.002 0-.002.004c-.006.018-.008.035-.012.055 0 .002-.004.002-.004.004-.006.035-.016.072-.023.104v.012l-.016.053c0 .004 0 .008-.002.014l-.037.16c-.002.002-.002.008-.002.012a1.493 1.493 0 00-.035.164c0 .002-.004.004-.006.01-.014.057-.023.104-.037.16v.016l-.037.16c-.004.006-.004.008-.004.014-.014.051-.023.104-.039.16 0 .002 0 .01-.002.018-.002.018-.006.029-.012.047v.008c-.01.033-.014.066-.023.102 0 .004-.004.01-.004.014l-.008.053a.021.021 0 00-.004.01c-.006.031-.016.068-.021.098-.002.006-.002.012-.002.016l-.016.049v.018l-.021.092c0 .006 0 .01-.002.016-.004.014-.008.035-.014.049a.071.071 0 01-.004.02c-.004.031-.014.064-.02.094-.002.004-.004.008-.004.014-.002.014-.004.031-.01.047a.087.087 0 00-.004.025c-.008.025-.014.053-.02.076 0 .01-.004.018-.004.025-.006.016-.008.031-.01.043-.004.012-.004.02-.006.027-.014.049-.02.1-.029.148-.006.01-.006.018-.01.027 0 .016-.004.027-.01.045 0 .008-.004.02-.004.027a1.72 1.72 0 01-.016.074c-.004.01-.004.02-.008.029-.002.012-.004.027-.01.043 0 .01-.004.021-.004.029l-.016.072c-.004.01-.004.02-.008.029a.246.246 0 01-.01.041c0 .01-.004.02-.004.029-.008.031-.01.045-.02.072 0 .014-.002.02-.004.029-.006.016-.006.031-.01.045 0 .008-.006.018-.006.027a.396.396 0 01-.016.07.16.16 0 01-.008.033c0 .01-.004.029-.008.037 0 .016-.006.027-.006.041-.002.02-.008.041-.012.061-.004.01-.004.023-.01.037-.004.014-.004.025-.008.039 0 .012-.006.023-.006.035-.004.016-.004.023-.01.037-.004.02-.008.041-.014.062a1.704 1.704 0 00-.006.039c-.004.012-.008.023-.008.035-.004.016-.004.025-.01.039l-.014.062c0 .012-.004.02-.004.035a.103.103 0 00-.01.041c-.006.016-.006.018-.01.033-.004.021-.01.041-.014.066 0 .01-.002.02-.006.029-.004.018-.004.029-.008.045-.006.016-.006.02-.008.035-.002.02-.008.041-.012.061-.004.01-.004.023-.01.033 0 .016-.004.031-.006.049 0 .008-.006.018-.006.027l-.014.066-.004.025a.164.164 0 00-.01.051c-.006.012-.006.023-.01.033-.002.016-.004.035-.01.051-.004.014-.004.027-.01.043-.004.018-.004.031-.008.047 0 .01-.006.023-.008.033-.002.016-.008.031-.01.049l-.006.035-.016.061c0 .01-.002.02-.004.027-.004.018-.004.033-.01.051-.002.01-.004.018-.004.027-.006.021-.01.047-.014.066-.006.012-.006.021-.008.031-.002.018-.008.033-.012.049 0 .01 0 .018-.004.027-.006.023-.01.047-.014.068 0 .012-.006.02-.006.029-.002.018-.002.031-.008.049-.002.01-.004.018-.004.027l-.014.07c-.006.01-.006.02-.008.029-.002.014-.006.029-.008.047a1.082 1.082 0 00-.022.099c0 .01 0 .012-.006.021a.247.247 0 01-.01.053c0 .012-.004.02-.004.029l-.014.068c0 .006-.006.018-.006.023a.26.26 0 00-.008.055c-.006.012-.006.02-.01.027a.576.576 0 01-.01.066c-.004.008-.004.018-.004.021l-.014.057c0 .01-.002.02-.004.029-.006.02-.008.041-.01.062-.006.002-.006.012-.006.018-.004.021-.008.047-.014.068-.002.01-.004.016-.004.023l-.012.068v.008c-.006.025-.01.053-.016.074a.159.159 0 00-.004.023l-.014.066v.014c-.008.025-.012.047-.018.072-.002.008-.002.018-.002.021-.004.021-.008.043-.014.062 0 .01 0 .008-.004.02-.006.023-.01.047-.014.07 0 .012 0 .014-.004.023a.314.314 0 01-.012.061.088.088 0 01-.004.02l-.014.074c0 .01 0 .008-.004.018-.002.02-.006.041-.01.064 0 .004-.006.012-.006.016l-.014.076c0 .004 0 .012-.002.02-.002.021-.008.041-.012.061 0 .006-.006.016-.006.02a.526.526 0 01-.012.078v.002l-.014.076c0 .006-.004.014-.004.018l-.016.074v.01c-.004.025-.008.051-.014.072-.002.012 0 .01-.004.02l-.014.076v.002l-.014.078c0 .006 0 .012-.006.018-.002.021-.008.049-.012.072l-.002.006-.014.082v.01c-.006.025-.01.053-.014.076l-.006.006-.014.084v.008l-.014.076v.01c-.012.055-.021.109-.031.166v.008c-.01.055-.018.109-.031.166-.002.008-.002.002-.002.008-.008.057-.018.111-.027.168v.006a4.868 4.868 0 00-.033.166v.01c-.01.055-.018.111-.027.166-.004.006-.004.004-.006.01l-.027.166v.006a3.02 3.02 0 00-.025.17l-.004.004-.029.172v.004a155.447 155.447 0 00-2.17 24.326l32.201.336c-.006.436-.035.863-.035 1.301 0 13.701 2.293 26.859 6.461 39.154l-30.521 10.336a156.165 156.165 0 003.668 9.727l.141.33c.021.055.045.109.068.166l.07.162c.047.109.092.219.139.33l.07.162c.035.084.068.164.105.246v.004l.07.16c.002.006 0-.002 0 .004l.068.16.004.006c.023.051.047.105.066.158l.004.002.07.162v.002c.021.055.045.107.068.158l.004.01c.023.049.047.104.07.158v.002l.068.16c.004.006 0-.002 0 .004.014.027.023.051.037.078.014.029.023.055.037.08v.004l.035.08.002.002c.01.025.023.051.033.078l.002.002c.01.027.021.055.033.078l.002.008c.014.025.021.053.037.074v.006l.033.078c.004.006.004 0 .004.006.01.023.023.049.031.074l.002.002c.014.027.023.051.037.078 0 .006 0 .004.004.008.021.051.045.104.064.154l.008.01c.01.027.02.049.033.074v.002l.031.074.008.014c.021.051.045.104.066.15l.004.012c.023.053.047.1.07.15a7.438 7.438 0 00.074.164v.01c.021.049.049.102.072.15l.002.01c.023.053.047.102.07.156.004.004.004.002.004.006.014.027.023.051.037.078v.004c.012.023.021.047.031.07.004.006.004.006.004.01.014.027.023.053.037.078v.004c.01.023.023.047.033.072l.006.01c.012.025.021.047.031.072.006.004.006.008.006.01.014.023.023.047.031.068l.006.01.033.074.002.008c.014.027.023.053.037.076.01.027.023.053.035.078.002.004.002.006.006.01.01.023.02.049.031.07l.002.006c.014.025.023.053.039.076 0 .006 0 .006.002.01l.033.072v.002c.014.025.023.053.037.074 0 .006 0 .01.004.014l.07.148.006.012.068.15c.002.006.004.008.004.012l.07.152c.004.002.004.002.004.008.014.023.023.051.037.076v.002c.016.025.023.047.033.072.006.004.006.008.008.012.01.025.023.047.033.072.002.006.004.006.004.01l.033.066c0 .004.002.008.004.014.012.021.023.047.035.074l.002.006c.012.021.023.047.033.068.006.002.006.004.006.01.014.027.023.049.035.074l.004.01c.01.021.021.047.033.068l.004.008.033.076.004.008c.016.025.023.049.039.076.01.023.023.051.037.074 0 .006 0 .006.004.01l.031.072.002.002c.012.027.025.051.035.08.004.002.004.002.004.006.023.051.053.104.076.152 0 .006 0 .002.004.008l.07.152.002.008c.023.051.051.1.074.152l.006.01.074.152v.002c.025.055.049.105.076.156.002.006.002.002.002.008.025.051.051.102.074.152l.004.008c.023.053.051.1.074.154.002.004 0 0 .004.004.023.051.051.105.074.156v.004c.029.053.055.104.078.158.014.027.029.051.041.078l.002.004c.012.023.023.051.037.078v.002a.511.511 0 01.037.074l.004.006c.01.023.023.049.039.074v.004c.012.025.025.051.035.076.004.004.002.004.004.006.023.053.051.104.074.154l.006.004c.023.055.051.104.072.156l.006.004c.021.051.051.104.076.154l.002.002c.025.053.053.104.08.158v.002c.025.053.049.105.078.156v.004c.027.051.051.104.078.154.002.006 0 0 0 .004.029.051.055.104.078.156l.002.002a.732.732 0 00.041.078v.004c.027.049.055.104.078.152l.002.004.08.156v.004l.08.154v.002c.027.053.055.105.078.154.004.006 0 .004.004.006.029.053.053.104.08.154v.002c.027.055.055.104.076.158h.006c.021.053.051.104.078.158v.002c.029.049.053.102.08.15l.004.008c.027.053.051.102.078.152v.004c.027.053.057.102.084.154 0 .004-.002 0 0 .004.055.102.105.209.162.312v.002a153.39 153.39 0 007.891 13.428c0 .004-.004-.004 0 .002.033.047.061.094.094.145h.002c.033.049.062.098.094.145l.004.004c.016.023.031.049.045.07l.002.004c.018.021.031.049.047.07l.004.004c.014.021.033.047.045.07l.006.006.041.064.006.008.045.068c.004.004 0 .002.004.006.014.021.033.047.047.07.016.023.033.047.047.072.004.004 0 0 .004.002.014.025.033.047.047.072.004.002 0-.002 0 .002.018.02.031.045.045.066.004.004.004.006.008.008.029.047.062.094.09.139.006.006.008.008.01.014.014.02.029.041.041.064h.004c.014.021.027.047.045.068l.006.01.094.137c0 .004.006.008.006.012.018.023.029.045.045.066.004.004 0 0 .004.006.014.02.027.039.043.059 0 .006.004.012.008.016a.943.943 0 01.045.066c.002.004-.002 0 .002.002.016.02.029.041.043.062a1.037 1.037 0 00.049.079c.008.006.01.006.014.016.01.018.023.033.033.053.006.002.01.01.014.014l.043.064.01.016a.184.184 0 01.031.049l.014.018.041.061c.006.006.01.014.014.021l.029.043c.01.006.014.014.018.023.016.02.023.037.037.059l.02.021c.01.014.018.029.025.043l.016.021c.014.018.025.037.037.055.01.014.01.014.018.029.01.012.02.025.029.039.008.008.008.014.018.021.01.018.023.037.037.055.006.01.016.021.018.029.01.01.014.023.023.035.01.01.02.027.027.037l.029.043.023.031c.004.01.014.021.018.029.014.018.023.035.035.051.008.01.018.021.021.031.008.01.018.027.023.035.008.008.012.018.018.027a1.613 1.613 0 01.055.079c.014.018.02.025.029.041.004.006.008.014.016.02a.367.367 0 00.045.064l.012.021c.01.012.018.025.027.037.004.008.01.016.014.021.014.021.033.043.045.064a.07.07 0 00.014.018c.012.016.016.025.029.043.002.002.006.008.006.012.02.021.037.047.049.072.006.004.01.012.014.02.033.041.062.086.094.131 0 0 .006.006.006.008.031.047.061.088.096.137l.002.004c.035.049.064.094.102.141l.096.143v.002c.314.445.631.889.949 1.33l26.162-18.785a122.644 122.644 0 0029.145 28.846l-18.518 26.355a151.566 151.566 0 007.062 4.676c.004.002-.004-.002 0 0 .051.033.098.064.148.094l.002.002c.047.031.1.061.146.09l.004.002c.051.031.096.062.146.09l.006.006c.047.031.096.059.143.088l.008.006.145.088.006.004c.047.027.098.059.145.088l.008.004a.66.66 0 00.07.043c.023.016.047.031.07.045l.008.006c.023.014.047.029.074.043v.002c.023.014.047.027.07.039l.008.006c.023.016.047.029.07.045l.004.002c.023.016.047.027.07.043l.004.004.072.043.008.004c.023.014.045.025.068.041l.002.002c.025.016.049.027.072.045l.01.004c.02.016.041.025.061.041.002.002.008.002.012.002.02.016.043.029.064.043l.016.006c.018.014.041.025.061.037a.035.035 0 00.01.008l.068.039a.912.912 0 00.073.045l.01.006.064.039c.008.006.008.008.018.012.02.014.037.023.061.035l.01.008c.021.01.043.025.061.037.01.004.014.008.021.012.02.01.037.023.057.033.01.004.01.008.02.012a.8.8 0 01.055.033c.01.004.014.01.023.014.02.01.035.02.051.033.014.006.018.01.027.014.02.01.033.02.047.029l.027.014c.018.012.035.021.053.031.006.006.021.014.027.018a.762.762 0 01.068.041c.023.014.041.023.061.037a.1.1 0 01.023.012c.012.01.025.02.041.025a.551.551 0 00.088.051l.023.018c.014.004.027.014.041.021.008.008.018.012.027.018.02.01.037.021.057.033l.027.014c.014.01.029.02.047.029.004 0 .014.008.02.01a.364.364 0 00.059.037c.008.006.018.01.027.016l.043.025a1.097 1.097 0 00.082.047l.027.02c.014.008.027.014.037.021.01.004.021.01.029.016l.055.035c.012.006.018.01.031.014.014.008.023.016.037.025.014.008.029.014.037.021.02.008.033.018.047.027.016.006.021.01.033.018s.021.016.033.02l.043.027a.9.9 0 00.043.023c.01.004.023.012.033.018.012.01.023.016.037.023a.364.364 0 00.039.023l.043.025c.01.004.023.014.033.018.012.008.023.016.037.021.016.012.027.016.043.029.012.006.025.012.035.02.008.004.027.012.037.018l.037.023c.016.01.027.016.047.025.01.008.021.014.031.021.014.008.021.01.037.018.012.01.027.016.037.025l.047.027c.01.004.023.01.033.018.014.006.021.012.035.02.008.008.023.012.031.02.023.014.033.018.053.029.012.008.023.012.033.02.014.008.023.014.037.02.012.01.025.016.039.025.02.01.029.016.043.025.012.006.023.01.033.018a.092.092 0 01.031.02l.043.021c.016.01.031.02.049.029l.023.016c.043.021.09.049.129.074.01.004.014.008.023.012l.131.074.021.014c.029.014.057.031.084.045 0 .002.006.004.006.004a.273.273 0 00.047.027c.004.002.008.006.014.008a.577.577 0 00.092.051v.004c.018.008.027.014.045.023l.014.008c.027.018.055.033.078.047.004.002.012.004.018.008.016.01.025.016.043.025.006.002.01.006.014.006l.084.047c0 .004.004.006.008.008.02.008.029.014.047.023l.014.01a1.198 1.198 0 01.094.053c.02.008.029.016.045.025.006.002.008.006.01.006l.09.049c.004 0 .006.002.008.006.02.01.033.014.047.023.004.004.006.004.006.004.025.016.059.033.092.051.004.002.006.006.012.008.016.012.027.016.043.025.006.002.006.004.01.004l.082.049c.006.004.012.004.02.008.01.008.027.018.041.023l.01.004c.027.018.061.035.088.051a7.064 7.064 0 00.307.17c.004.002.008.006.014.008l.141.078c.002.004.006.006.008.006l.146.08c0 .002.004.002.004.004l.15.082h.002c.051.027.102.057.15.082l.002.002c.135.074.27.15.408.223l.152.084v.002c.051.027.098.051.146.08l.01.002a22.496 22.496 0 00.313.168l.299.164h.006a151.067 151.067 0 007.615 3.816v.004c.516.236 1.025.475 1.541.707l.004.002c.051.025.096.045.152.07.004 0 .004.002.01.004.057.023.104.045.152.07h.004c.055.023.104.047.158.07l.004.004c.055.021.104.043.154.068l.008.002.154.07.01.004c.049.021.1.043.152.068l.004.002c.037.016.059.027.096.045.006 0 .006.002.01.002.016.008.033.012.049.021.004 0 .008.004.008.004.037.014.059.027.096.041 0 .002.006.002.01.006.016.008.033.012.049.021h.002c.033.016.066.029.098.043l.014.004c.018.01.027.016.047.023l.014.006c.027.012.061.025.088.035l.012.008a8.53 8.53 0 01.165.074.222.222 0 01.045.02l.008.002c.025.01.062.027.086.039.01.004.018.008.023.008l.143.064.02.006.143.064.016.004c.045.023.102.045.146.066.004.004.014.006.018.006a.624.624 0 00.094.039c0 .004.004.004.004.006a.222.222 0 01.045.02l.023.01c.023.01.053.02.076.029a.052.052 0 00.023.01c.01.008.025.014.039.02a.161.161 0 00.023.012l.07.031c.01.002.02.008.027.008l.041.02.023.01.074.031a.17.17 0 00.023.012c.014.004.029.012.043.016l.025.012c.023.01.043.02.066.029.008.002.02.008.029.012.01.006.031.012.041.018l.027.014.068.027c.01.004.018.006.025.012l.041.016c.008.006.021.01.025.014.023.01.045.018.068.029a.733.733 0 01.103.044c.018.006.037.016.055.023l.037.016c.014.004.023.008.037.014.014.008.031.014.047.021a.182.182 0 01.045.02l.035.012c.012.008.021.01.035.014.018.01.037.02.055.025l.039.018.035.012a.2.2 0 00.033.016c.018.01.041.018.061.025.014.006.018.01.031.014.016.006.029.01.039.016.012.004.016.008.029.014.023.008.043.018.061.023.016.008.023.012.039.018.01.004.023.01.037.014.012.008.018.01.031.016.018.008.039.018.061.021l.031.016c.016.008.029.012.043.02.01.002.02.006.027.01l.059.025c.016.004.023.01.039.014.008.006.023.01.033.016.014.008.037.012.051.02s.025.012.045.02a.106.106 0 00.031.014c.016.004.025.012.039.016.018.006.031.014.051.021.014.004.027.012.039.016.01.006.029.012.035.016.014.006.029.01.043.018a.702.702 0 01.045.018c.014.008.027.012.047.02a.178.178 0 01.029.012c.018.008.033.016.051.023.01.002.023.01.033.012l.051.02c.01.004.02.008.029.014.02.006.039.016.059.023a.619.619 0 01.08.033c.008.002.014.006.023.01.021.01.045.018.066.027l.02.008c.02.006.033.014.051.021.01.002.02.008.029.01l.062.027c.01.004.014.004.023.01.02.006.033.012.053.02.004.002.021.008.023.01.023.01.047.018.066.027l.02.01c.02.008.037.016.057.02.01.004.014.008.023.01.023.01.047.018.066.027.01.002.012.006.02.01.02.008.037.016.057.02.01.006.014.006.023.01.021.01.043.02.064.027.006 0 .02.008.023.008.018.008.037.018.055.023l.02.006.07.029c.004.004.014.006.018.008.023.008.041.018.059.023.006.002.016.004.02.008l.07.029a.058.058 0 00.018.004l.061.027c.004.002.008.006.014.006l.074.029c.004 0 .012.002.016.006.023.01.045.016.068.029.006 0 .004 0 .008.002l.074.027.02.008.064.027c.004.002.004 0 .01.002.021.01.047.02.072.029.01.002.004.002.014.008.053.018.102.037.152.059l.012.004c.025.012.055.02.078.031h.004l.072.029c.006 0 .01.004.016.006l.074.029.008.002.07.029.014.004.074.029c.006.002.006 0 .01.002l.068.029c.004.002.01.002.012.004l.076.031.01.002.07.027c.004.004.004.004.01.004l.078.031.008.002c.023.012.053.021.076.031l.004.002c.025.008.049.018.078.029l.006.002.078.029.004.004.078.029.01.002c.023.01.051.02.076.029h.002c.029.014.053.023.078.033h.006c.055.021.111.041.16.062l.01.002c.051.021.107.041.162.062l.004.002.164.064h.004c.109.041.221.086.332.125 2.123.803 4.266 1.557 6.434 2.264l10.018-30.615a121.786 121.786 0 0037.961 6.057c.859 0 1.709-.047 2.566-.064l.66 32.205.311-.008h.004l.178-.004h.012c.066-.004.113-.004.172-.006h.02l.16-.004h.029l.047-.002h.018l.092-.002h.023c.02-.002.037-.002.051-.002h.023c.033-.002.055-.002.084-.002.01 0 .02-.004.031-.004h.047c.01 0 .016 0 .023-.002.029 0 .053 0 .086-.002h.023c.018 0 .033 0 .047-.002h.037c.02 0 .045-.004.064-.004h.041c.01-.002.029-.002.041-.002.016 0 .029 0 .043-.002h.041l.061-.002h.037c.014-.004.029-.004.047-.004.01 0 .018 0 .031-.002.021 0 .047 0 .07-.002h.033l.049-.002h.027c.023-.004.047-.004.072-.004l.031-.002c.02 0 .037 0 .053-.002h.029l.072-.002h.025c.02-.002.043-.002.059-.002l.025-.002.074-.002h.023c.02-.002.041-.002.061-.002l.023-.004.078-.002h.014c.023-.002.047-.002.07-.002l.021-.002.078-.002h.016c.023-.002.047-.002.07-.002.006-.002.006-.002.016-.002l.168-.008h.012l.084-.002c.027-.002.057-.002.084-.006h.012l.174-.006.008-.004.084-.002h.004l.09-.004c.092-.006.18-.008.271-.012.119-.006.242-.012.361-.02a153.77 153.77 0 0028.225-4c.258-.059.514-.121.768-.186.059-.012.115-.027.172-.039.055-.016.111-.027.172-.043.053-.014.111-.029.166-.041h.006c.055-.014.109-.027.164-.043.006 0 .002 0 .008-.002l.164-.039.004-.004.082-.018.002-.002c.055-.012.111-.027.168-.041h.004l.166-.041.004-.002c.055-.016.111-.029.166-.043.006 0 0 0 .006-.002.051-.014.107-.029.16-.041h.01c.055-.016.105-.027.162-.043l.008-.002c.053-.016.107-.027.164-.043l.004-.002c.057-.012.111-.027.166-.039l.006-.004.166-.043c.057-.016.111-.027.168-.045h.002c.029-.008.057-.016.086-.02a.71.71 0 01.082-.025h.004c.025-.008.051-.012.08-.02l.004-.002c.055-.014.111-.027.166-.045.006 0-.004.002.002 0 .057-.012.107-.029.164-.043l.008-.002c.053-.014.107-.029.164-.041l.004-.004c.057-.014.111-.031.162-.043l.01-.004c.055-.012.109-.027.166-.043l.422-.115.166-.045h.004c.057-.016.105-.029.162-.047l.008-.002c.053-.012.107-.029.164-.043l.004-.002c.057-.014.107-.031.16-.045l.01-.002a6.77 6.77 0 00.162-.045l.004-.002c.057-.016.113-.029.166-.047.004-.002-.004 0 .002 0 .115-.031.223-.062.334-.094h.002l.42-.119h.002l.162-.047.006-.002c.055-.016.111-.029.166-.047h.004l.164-.049h.002c.057-.016.113-.031.168-.049.305-.088.615-.18.92-.27 1.34-.398 2.674-.814 3.994-1.246l-10.012-30.617a121.552 121.552 0 0036.197-19.09l19.598 25.557a154.834 154.834 0 0016.037-14.166v-.002c.043-.041.086-.082.125-.123.066-.064.127-.127.189-.191v-.002c.041-.039.08-.082.123-.123l.004-.004c.041-.041.078-.084.119-.125l.006-.002c.037-.041.076-.08.113-.119l.01-.01c.037-.041.078-.078.117-.117 0-.002.006-.008.01-.01.016-.021.035-.039.055-.061l.004-.002c.02-.02.033-.037.051-.055l.016-.014.051-.053.012-.012a.348.348 0 01.047-.047c.002-.006.006-.01.01-.016l.057-.055c.004-.002.006-.008.008-.01l.053-.051.006-.01c.02-.018.033-.035.053-.057l.014-.012.047-.049c.004-.002.01-.008.01-.01l.055-.055c.006-.004.008-.012.014-.014.014-.018.031-.035.047-.053l.008-.006c.018-.02.033-.037.053-.055.008-.006.006-.006.014-.014.018-.02.037-.037.053-.059v-.004l.057-.055c.002-.002.01-.01.012-.014l.053-.055c.006-.002.006-.006.01-.008.014-.018.033-.035.047-.051.006-.004.008-.008.012-.014a.471.471 0 00.053-.057c.004 0 .008-.002.008-.008l.053-.051c0-.004.01-.008.01-.012.018-.02.037-.035.051-.053l.016-.018.043-.043c.004-.006.004-.006.014-.014a.332.332 0 01.053-.053c0-.004.008-.014.014-.02l.041-.043c.006-.006.008-.006.012-.014l.053-.055c.004-.008.01-.012.018-.018.016-.014.023-.027.039-.041.004-.006.014-.016.018-.02l.047-.049a.076.076 0 01.018-.018l.041-.047c.01-.006.014-.012.02-.02.014-.012.027-.029.041-.043.006-.006.016-.014.02-.021l.049-.051c.002-.004.01-.01.012-.014.014-.014.025-.027.041-.041.004-.006.014-.016.018-.023.02-.016.033-.031.049-.049.008-.008.012-.014.021-.02l.033-.035.021-.027.043-.047a.19.19 0 00.021-.023.257.257 0 00.033-.033.23.23 0 01.023-.021c.014-.016.027-.033.043-.049.006-.008.014-.014.025-.025.006-.01.014-.018.023-.027l.041-.043.029-.031.027-.027.029-.029c.008-.01.016-.023.025-.033a.332.332 0 00.037-.039.086.086 0 00.023-.025.53.53 0 00.033-.035c.014-.014.023-.021.035-.035a.224.224 0 00.029-.035.128.128 0 00.023-.025c.014-.012.021-.021.033-.035l.035-.037c.01-.008.018-.018.027-.029.01-.01.014-.018.027-.027l.029-.031.035-.043c.01-.01.02-.018.027-.027a.154.154 0 00.023-.029c.016-.012.029-.027.043-.043.01-.01.02-.02.027-.031a.172.172 0 00.027-.027c.01-.008.016-.016.023-.025l.041-.045c.01-.014.02-.018.029-.027.008-.012.018-.021.025-.031.006-.006.016-.02.025-.023l.041-.051.025-.023a.24.24 0 01.025-.033.396.396 0 00.041-.041c.01-.01.016-.018.023-.027.01-.01.021-.023.033-.031.004-.01.014-.016.02-.025.014-.014.031-.035.045-.051l.023-.023c.004-.006.023-.023.027-.031.01-.01.018-.02.027-.027l.041-.043c.006-.01.016-.018.025-.027s.018-.023.025-.031c.01-.01.014-.018.023-.027.014-.014.029-.031.043-.043.008-.014.018-.02.025-.029.012-.012.016-.021.025-.029.014-.012.023-.025.035-.039a.562.562 0 00.033-.035c.01-.01.014-.02.023-.025l.027-.031c.014-.016.029-.029.039-.041.014-.014.021-.025.031-.035a.406.406 0 00.02-.021l.049-.053c.006-.01.014-.014.02-.023a.313.313 0 01.031-.033l.016-.018c.018-.021.037-.041.055-.064.008-.004.01-.01.016-.014.008-.01.023-.023.031-.033.006-.008.01-.014.018-.021.018-.02.035-.039.057-.061.004-.004.008-.01.014-.014.01-.016.018-.023.033-.039a.035.035 0 01.008-.01c.02-.02.043-.049.064-.07 0-.002.004-.008.01-.01.01-.016.018-.023.031-.039.006-.004.008-.008.01-.01.02-.021.043-.045.061-.066.006-.004.01-.012.016-.02l.033-.033c.004 0 .004-.004.004-.004a1.491 1.491 0 01.076-.09l.107-.117c.004-.004.01-.008.01-.012.035-.039.072-.082.109-.119 0-.002.006-.006.006-.008.037-.045.07-.078.105-.121.004-.004.008-.01.014-.014.023-.025.041-.049.064-.074 0-.004.004-.004.006-.004l.037-.039c0-.006.004-.008.004-.008.021-.025.045-.055.064-.076a.044.044 0 00.01-.008c.037-.043.074-.082.111-.127.004-.002 0-.002.006-.002.035-.045.072-.084.109-.127 0-.002 0-.002.004-.004.039-.045.072-.084.111-.127 0-.002 0-.004.002-.004a3.3 3.3 0 01.115-.127v-.002l.109-.127c.006-.002.006-.002.006-.004l.299-.344c0-.004 0 0 .002-.004a154.747 154.747 0 009.021-11.385l-26.16-18.795a121.518 121.518 0 0017.938-36.762l30.924 9.041a153.371 153.371 0 005.615-30.158c.02-.201.037-.402.053-.604v-.004c.004-.057.008-.113.014-.168l.021-.26v-.004c.012-.143.02-.283.035-.428v-.004c.004-.055.006-.111.008-.168.004-.006 0-.004.004-.008a2.37 2.37 0 01.012-.168c.004-.027.004-.055.006-.082 0-.006 0-.002.002-.008 0-.055.006-.109.01-.166v-.01a4.28 4.28 0 00.014-.166v-.004c0-.027.004-.053.004-.082v-.004a5.07 5.07 0 01.014-.166v-.008c.004-.057.004-.111.01-.166v-.01c.004-.029.004-.055.006-.082.002-.055.008-.111.012-.168v-.008c.006-.057.01-.111.01-.166l.002-.01c.002-.057.008-.111.012-.168 0-.029.006-.057.006-.082v-.01c.004-.053.006-.111.008-.164v-.01l.016-.168v-.004c0-.027 0-.055.004-.082v-.002c.002-.059.004-.113.01-.17v-.006c.004-.059.008-.115.01-.168v-.008c.004-.055.008-.111.008-.168v-.004a.369.369 0 00.006-.08v-.006c.004-.057.01-.113.01-.168l.002-.008c.002-.057.006-.111.01-.168l.002-.008c0-.027 0-.053.002-.076v-.008c.002-.059.006-.113.01-.168v-.008c.002-.057.006-.111.006-.17l.004-.004c.002-.027.002-.057.002-.08v-.006a2.26 2.26 0 00.006-.166v-.012c.006-.053.008-.107.01-.164v-.01c.006-.055.006-.109.01-.166v-.008c0-.023.002-.051.004-.078v-.008c0-.055.006-.111.008-.162l.002-.016v-.08c.053-.023.053-.048.053-.077v-.01a.822.822 0 00.004-.072v-.012c0-.027.004-.055.004-.082v-.006c0-.023 0-.051.004-.07.002-.008.002-.018.002-.021 0-.055.004-.105.004-.156v-.018a.462.462 0 00.006-.074v-.009c0-.027.002-.053.004-.078v-.016c0-.023 0-.047.002-.068 0-.006 0-.01.002-.016v-.082a.512.512 0 00.006-.078v-.018c0-.025.002-.049.004-.074v-.084c.004-.008.004-.01.004-.018a.695.695 0 00.002-.064v-.02c0-.025.004-.053.004-.078v-.078l.004-.025v-.074c0-.025.006-.053.006-.078v-.02c0-.023 0-.045.002-.07v-.01a1.15 1.15 0 00.002-.082v-.012c0-.021.004-.045.006-.068v-.016c0-.053.004-.109.004-.16v-.016c0-.025 0-.047.002-.07.002-.004.002-.01.002-.014v-.092c0-.025.004-.047.006-.07v-.098c.002-.027.004-.053.004-.076v-.02c0-.025 0-.053.004-.076v-.002a1.15 1.15 0 00.002-.082v-.014c0-.025 0-.047.002-.07v-.012c.002-.029.002-.057.002-.082v-.012c0-.023 0-.047.002-.07v-.014c.002-.055.002-.109.006-.166v-.012c.002-.023.002-.049.002-.072v-.092l.002-.014c.002-.021.002-.043.002-.068v-.018c0-.053.004-.105.004-.158v-.098c0-.027 0-.053.004-.08.002-.006.002-.012.002-.02v-.174a.732.732 0 00.004-.064v-.177c.004-.004.004-.02.004-.023.002-.018.002-.037.002-.059v-.178l.002-.021c.002-.055.002-.105.002-.158v-.099c.004-.025.004-.055.004-.078v-.264c.004-.008 0-.004.004-.014v-.355l.002-.066v-.021c.002-.025.002-.051.002-.074v-.363c0-.027.004-.051.004-.078v-.006c0-.025 0-.049.002-.074v-1.443c-.004-.026-.004-.052-.004-.073zM271.34 328.434h-26.209V225.969H210.19v-16.256c8.432-.416 14.287-1.01 17.861-1.807 6.199-1.371 11.332-4.174 15.258-8.324 2.709-2.865 4.783-6.703 6.16-11.424.512-1.824.859-3.344 1.041-4.592h20.83v144.868z"/></svg>