<svg xmlns="http://www.w3.org/2000/svg" viewBox="0 0 512 512"><path d="M190.111 166.793V83.688h268.258v83.105H190.111zm0 130.998v-83.098H458.37v83.098H190.111zm0 131.005v-83.1h268.261v83.1H190.111zm-51.364-302.849c0 24.033-19.48 43.508-43.509 43.508-24.028 0-43.508-19.476-43.508-43.508 0-24.029 19.48-43.504 43.508-43.504 24.028 0 43.509 19.475 43.509 43.504zM51.73 251.066a43.508 43.508 0 1187.016 0 43.508 43.508 0 11-87.016 0zm0 133.898a43.508 43.508 0 1187.016 0 43.508 43.508 0 11-87.016 0z"/></svg>