<svg xmlns="http://www.w3.org/2000/svg" viewBox="0 0 512 512"><path d="M167.564 237.883c.098.098.18.207.279.307l41.582 41.581 14.504-14.504-15.655-15.652-7.078-7.085 36.284-36.283 4.785.532c1.221.14 2.468.208 3.709.208 2.506 0 4.96-.308 7.346-.841l-26.714-26.717c-.539-.541-1.122-1.017-1.685-1.524 8.233-29.596.738-62.65-22.536-85.922-23.101-23.104-55.84-30.654-85.27-22.712l49.864 49.861-13.092 48.849-48.85 13.095-49.864-49.866c-7.944 29.435-.386 62.177 22.715 85.276 24.258 24.261 59.153 31.378 89.676 21.397zm147.338 29.845a33.37 33.37 0 00-.612 11.079l.531 4.783-3.406 3.405-25.792 25.8-7.084 7.078-22.736-22.736-14.506 14.506 131.626 131.632c8.116 8.113 18.749 12.168 29.385 12.168 10.632 0 21.266-4.055 29.376-12.168 16.231-16.229 16.231-42.537 0-58.762L314.902 267.728zm101.629 161.907l-20.877 5.594-16.938-16.94 5.595-20.873 20.879-5.597 16.937 16.939-5.596 20.877zM255.954 283.126l22.742 22.741 25.797-25.797c-1.399-12.586 2.698-25.662 12.346-35.307 9.644-9.645 22.721-13.74 35.302-12.346l112.796-112.796-63.181-63.177L288.963 169.24c1.398 12.582-2.701 25.658-12.346 35.307-9.646 9.646-22.722 13.74-35.307 12.342l-25.794 25.799 22.731 22.733-111.455 111.456-4.077-4.078-21.396 17.233-35.987 56.832 9.187 9.189 56.838-35.985 17.228-21.396-4.092-4.088 111.461-111.458z"/></svg>