<svg xmlns="http://www.w3.org/2000/svg" viewBox="0 0 512 512"><path d="M233.52 375.158l-12.11-12.105-25.437 25.428c-7.037 7.037-10.521 16.193-10.529 25.438.008 9.223 3.502 18.385 10.535 25.429 7.029 7.018 16.179 10.518 25.386 10.523 9.248-.006 18.427-3.482 25.47-10.523 7.033-7.044 10.527-16.206 10.535-25.438-.008-9.227-3.492-18.385-10.529-25.428l-13.321-13.324zM208.781 227.19l96.43-96.434 8.252-8.243c7.033-7.047 10.525-16.203 10.533-25.434-.008-9.226-3.5-18.381-10.533-25.424-7.045-7.041-16.203-10.531-25.429-10.537-9.229.006-18.394 3.498-25.423 10.527L158.395 176.338a50.868 50.868 0 0135.442 14.93 50.904 50.904 0 0114.944 35.922zm168.61 30.748l-13.323-13.323-75.729-75.734-94.496 94.5-10.628-10.625c7.038-7.047 10.527-16.202 10.535-25.43-.008-9.228-3.497-18.393-10.535-25.428-7.043-7.043-16.205-10.527-25.428-10.537-9.232.01-18.391 3.494-25.432 10.537-7.037 7.041-10.522 16.2-10.53 25.428.008 9.228 3.493 18.383 10.538 25.43l111.785 111.786 13.316 13.317a50.881 50.881 0 0114.934 36.049c0 .174-.023.342-.025.513l105.018-105.016c7.112-7.131 10.648-16.396 10.654-25.743-.006-9.329-3.534-18.6-10.654-25.724zm-140.6 48.429l-17.713-17.708 74.459-74.452 17.707 17.709-74.453 74.451zm41.15 41.157l-17.707-17.71 74.46-74.452 17.706 17.705-74.459 74.457z"/></svg>