<svg xmlns="http://www.w3.org/2000/svg" viewBox="0 0 512 512"><path d="M453.475 328.994H57.719c-14.093 0-20.271 10.201-13.734 22.697l29.463 56.295c6.576 12.474 23.449 22.694 37.575 22.694h289.15c14.093 0 31-10.221 37.538-22.694l29.5-56.295c6.539-12.496.359-22.697-13.736-22.697zm-334.146 76.39c-14.095 0-25.539-11.445-25.539-25.539 0-14.112 11.444-25.539 25.539-25.539 14.129 0 25.54 11.427 25.54 25.539 0 14.093-11.411 25.539-25.54 25.539zm92.056 0c-14.094 0-25.509-11.445-25.509-25.539 0-14.112 11.415-25.539 25.509-25.539 14.127 0 25.539 11.427 25.539 25.539 0 14.093-11.412 25.539-25.539 25.539zm92.088-1.109c-13.506 0-24.428-10.959-24.428-24.431 0-13.504 10.922-24.44 24.428-24.44 13.505 0 24.43 10.937 24.43 24.44-.001 13.472-10.925 24.431-24.43 24.431zm92.056 0c-13.474 0-24.432-10.959-24.432-24.431 0-13.504 10.958-24.44 24.432-24.44 13.504 0 24.46 10.937 24.46 24.44 0 13.472-10.956 24.431-24.46 24.431zM117.826 164.26l60.367 35.057c0 .26-.032.523-.032.802v42.625h-49.447l-32.831 56.755h326.428l-32.865-56.755h-48.398v-42.625c0-13.523-10.987-24.476-24.495-24.476H202.656c-.493 0-.919.031-1.375.046l-67.367-39.11 7.719-13.277-71.487-41.499-31.591 54.352 71.487 41.5 7.784-13.395z"/></svg>