<svg xmlns="http://www.w3.org/2000/svg" viewBox="0 0 512 512"><path d="M94.878 295.884v66.927l146.044 84.303V255.742l-78.138 82.084-67.906-41.942zm131.805-51.538l-121.568-70.175-65.962 65.955 120.638 74.495 66.892-70.275zm59.958.233l66.679 70.042 120.636-74.495-65.73-65.742-121.585 70.195zm-15.061 10.508v192.026l146.047-84.303v-66.55l-67.316 41.566-78.731-82.739zm204.957-124.966L357.408 65.06l-81.576 22.565 131.871 74.674 68.834-32.178zM237.163 87.625L155.588 65.06 36.471 130.121l68.804 32.178 131.888-74.674z"/></svg>