<svg xmlns="http://www.w3.org/2000/svg" viewBox="0 0 512 512"><path d="M219.141 364.039c0 18.901 15.304 34.207 34.176 34.207 18.897 0 34.202-15.306 34.202-34.207 0-18.886-34.202-59.12-34.202-59.12s-34.176 40.234-34.176 59.12zM110.309 411.85c0 18.885 15.305 34.19 34.207 34.19 18.868 0 34.172-15.306 34.172-34.19 0-18.886-34.172-59.138-34.172-59.138s-34.207 40.252-34.207 59.138zm217.664 0c0 18.885 15.305 34.19 34.172 34.19 18.901 0 34.207-15.306 34.207-34.19 0-18.886-34.207-59.138-34.207-59.138s-34.172 40.252-34.172 59.138zm46.108-249.367a77.018 77.018 0 002.52-19.525c0-42.56-34.535-77.077-77.08-77.077-32.012 0-59.451 19.512-71.125 47.272-10.007-11.755-24.887-19.211-41.532-19.211-30.15 0-54.577 24.413-54.577 54.546 0 5.181.717 10.188 2.091 14.945-24.592 9.026-42.153 32.653-42.153 60.401 0 35.498 28.747 64.291 64.293 64.291h198.205c35.581 0 64.323-28.793 64.323-64.291-.001-28.794-18.868-53.124-44.965-61.351z"/></svg>