<svg xmlns="http://www.w3.org/2000/svg" viewBox="0 0 512 512"><path d="M460.993 383.942c-6.836-19.816-29.469-22.662-48.377-30.633-20.76-8.755-43.783-18.92-64.498-27.416-5.908-1.611-11.824-3.226-17.736-4.84-7.055-4.855-13.967-20.996-17.74-29.019a8283.48 8283.48 0 00-11.287-1.61c.582-12.418 8.27-13.084 11.287-22.571 2.662-8.366.279-19.242 4.498-26.988 2.926-5.379 9.543-5.416 12.85-10.026 3.002-4.187 4.977-11.484 5.912-16.608 1.707-9.367 3.195-22.185-1.254-31.477-2.557-5.337-4.172-5.85-4.883-12.329-.867-7.854 2.316-33.466 2.445-39.004.322-14.369-.023-15.532-3.502-29.527 0 0-4.223-12.681-10.838-16.5l-13.195-2.271-8.154-7.556c-32.855-20.216-68.082-6.037-86.947 1.609-25.795 8.374-42.572 32.787-33.965 83.85 2.875.402 5.098 2.847 5.098 5.837v64.401c1.121 1.615 2.396 2.962 3.885 3.895 1.018.639 8.787 2.586 8.736 2.054.787 8.232 1.57 16.47 2.352 24.706l10.543 10.096h25.736c1.273-5.899 6.418-10.317 12.58-10.317h19.506c7.117 0 12.887 5.895 12.887 13.163 0 7.27-5.77 13.161-12.887 13.161h-19.506c-3.711 0-7.041-1.606-9.395-4.167h-33.676l-32.602-31.22v-6.372l-.141-.138v-81.06c0-5.231-4.242-9.472-9.473-9.472-5.229 0-9.471 4.241-9.471 9.472v8.064H132.46v61.386h17.322v19.577l44.338 43.401h2.703c-3.934 8.416-9.52 19.651-15.205 23.562-5.912 1.614-11.828 3.229-17.736 4.84-20.715 8.495-43.736 18.66-64.498 27.416-18.906 7.971-41.541 10.817-48.377 30.633 0 13.46-1.268 45.25-.92 62.885h411.826c.348-17.637-.92-49.427-.92-62.887z"/></svg>