<svg xmlns="http://www.w3.org/2000/svg" viewBox="0 0 512 512"><path d="M351.649 115.632l-73.578 89.16h48.004v105.905c-.028 19.002-15.401 34.385-34.401 34.434-19.031-.049-34.398-15.432-34.467-34.434v-95.259c0-47.27-38.294-85.548-85.547-85.581-47.256.033-85.548 38.311-85.581 85.581v172.579h51.146V215.438c.031-19.001 15.437-34.4 34.436-34.438 19 .037 34.369 15.436 34.402 34.438v95.259c.034 47.271 38.328 85.549 85.611 85.565 47.225-.017 85.518-38.294 85.547-85.565V204.792h48.009l-73.581-89.16z"/></svg>