<svg xmlns="http://www.w3.org/2000/svg" viewBox="0 0 512 512"><path d="M105.396 434.072V67.443H247.01c37.201 0 19.274 88.184 19.274 88.184s85.998-20.906 87.104 18.527v119.035a95.525 95.525 0 0125.039 3.719V141.064l-91.325-91.326-7.337-7.337H80.357v416.707h205.809a96.569 96.569 0 01-19.142-25.036H105.396zm245.717-123.39c-43.354 0-78.502 35.15-78.502 78.51 0 43.354 35.148 78.498 78.502 78.498 43.357 0 78.506-35.145 78.506-78.498 0-43.36-35.148-78.51-78.506-78.51zm-56.416 92.621v-28.238h112.836v28.238H294.697z"/></svg>