<svg xmlns="http://www.w3.org/2000/svg" viewBox="0 0 512 512"><path d="M284.859 300.655l9.021-21.78 38.209-13.684v-31.579l-4.461-1.46-33.811-11.035-9.02-21.784 17.34-36.692-22.334-22.331-4.182 2.125-31.711 16.104-21.775-9.021-13.689-38.214h-31.582l-1.451 4.463-11.039 33.811-21.773 9.02-36.705-17.338-22.328 22.333 2.129 4.179 16.1 31.718-9.016 21.766-38.219 13.686v31.588l4.461 1.452 33.811 11.04 9.021 21.775-17.34 36.696 22.326 22.336 4.184-2.128 31.711-16.1 21.779 9.022 13.68 38.21h31.584l1.459-4.465 11.041-33.808 21.777-9.019 36.695 17.343 22.334-22.339-2.123-4.181-16.103-31.709zm-91.531-6.363c-24.424 0-44.227-19.797-44.227-44.224 0-24.427 19.803-44.227 44.227-44.227 24.418 0 44.219 19.8 44.219 44.227 0 24.428-19.801 44.224-44.219 44.224zm242.791 23.432a57.989 57.989 0 00-18.26-38.319l2.096-25.743-30.906-10.955-14.584 21.315a58.01 58.01 0 00-38.318 18.266l-25.746-2.095-10.949 30.904 21.314 14.585A58.007 58.007 0 00339.028 364l-2.094 25.744 30.902 10.953 14.588-21.315a57.984 57.984 0 0038.314-18.264l25.746 2.094 10.951-30.903-21.316-14.585zm-34.416 12.226c-4.551 12.845-18.66 19.569-31.508 15.015-12.85-4.555-19.572-18.659-15.016-31.506 4.555-12.852 18.66-19.572 31.508-15.022 12.848 4.554 19.573 18.661 15.016 31.513z"/></svg>