<svg xmlns="http://www.w3.org/2000/svg" viewBox="0 0 512 512"><path d="M169.555 79.228c-60.875 0-110.402 49.526-110.402 110.405 0 8.036 6.516 14.552 14.555 14.552 8.037 0 14.553-6.516 14.553-14.552 0-44.829 36.467-81.302 81.295-81.302 44.826 0 81.295 36.473 81.295 81.302 0 8.036 6.514 14.552 14.553 14.552 8.037 0 14.553-6.516 14.553-14.552-.002-60.879-49.525-110.405-110.402-110.405zm98.619 147.223H69.715c-6.1 0-11.049 4.947-11.049 11.049v38.675c0 6.101 4.949 11.05 11.049 11.05h198.459c6.104 0 11.049-4.949 11.049-11.05V237.5c0-6.102-4.946-11.049-11.049-11.049zM93.699 410.128c1.248 8.816 8.791 15.368 17.695 15.368H226.5c8.902 0 16.447-6.552 17.693-15.368l13.16-93.114H80.537l13.162 93.114zm350.699-255.663H352.07a8.935 8.935 0 00-8.934 8.935v101.263c0 4.936 4 8.935 8.934 8.935h92.328a8.934 8.934 0 008.936-8.935V163.399c0-4.933-4-8.934-8.936-8.934zM420.387 303.44h-44.303v76.498c-5.512 5.61-8.924 13.289-8.924 21.757 0 17.138 13.938 31.077 31.074 31.077 17.133 0 31.076-13.939 31.076-31.077 0-8.468-3.412-16.146-8.924-21.757V303.44zm-22.153 113.255c-8.27 0-14.998-6.728-14.998-15 0-8.271 6.729-15.001 14.998-15.001 8.271 0 15 6.729 15 15.001 0 8.273-6.728 15-15 15z"/></svg>