<svg xmlns="http://www.w3.org/2000/svg" viewBox="0 0 512 512"><path d="M409.709 228.674l17.004-144.215-144.197 17.004L329.049 148l-33.665 33.682c-22.646-15.321-48.988-23.056-75.198-23.021-34.303-.035-68.853 13.177-95.015 39.355v.018c-26.193 26.16-39.404 60.695-39.374 95-.03 34.316 13.181 68.865 39.374 95.043 26.259 26.279 60.905 39.393 95.227 39.358h.148c34.224 0 68.607-13.275 94.689-39.358 26.175-26.178 39.371-60.727 39.354-95.043a134.169 134.169 0 00-23.021-75.182l33.665-33.65 44.476 44.472zm-248.37 5.528c16.317-16.319 37.478-24.351 58.847-24.399 21.389.048 42.561 8.08 58.881 24.399 16.284 16.318 24.326 37.474 24.377 58.831-.051 21.398-8.093 42.561-24.395 58.895-16.303 16.249-37.361 24.33-58.651 24.361-21.518-.031-42.741-8.043-59.059-24.395-16.316-16.301-24.346-37.447-24.396-58.861.05-21.389 8.079-42.513 24.381-58.831"/></svg>