<svg xmlns="http://www.w3.org/2000/svg" viewBox="0 0 512 512"><path d="M461.444 267.153c0-6.132-6.645-11.151-14.76-11.151-8.119 0-17.688-3.494-21.264-7.765-3.576-4.271-6.504-15.902-6.504-25.846 0-9.948-8.029-18.083-17.844-18.083s-17.846 8.135-17.846 18.083c0 9.943-4.926 18.084-10.947 18.084-6.02 0-10.945-8.539-10.945-18.973v-24.824c0-10.432-8.031-18.967-17.848-18.967-9.812 0-17.844 8.535-17.844 18.967v24.824c0 10.434-4.926 18.973-10.945 18.973s-10.945-8.539-10.945-18.973v-62.815c0-10.434-8.033-18.97-17.848-18.97-9.812 0-17.844 8.536-17.844 18.97v62.815c0 10.434-4.928 18.973-10.947 18.973-6.021 0-10.945-8.539-10.945-18.973v-24.824c0-10.432-8.031-18.967-17.846-18.967-9.816 0-17.846 8.535-17.846 18.967v24.824c0 10.434-4.928 18.973-10.947 18.973s-10.945-8.539-10.945-18.973V123.26c0-10.432-8.029-18.969-17.846-18.969-9.814 0-17.844 8.537-17.844 18.969v98.242c0 10.434-4.928 18.973-10.949 18.973-6.02 0-10.945-8.141-10.945-18.084 0-9.948-8.031-18.083-17.846-18.083-9.816 0-17.844 8.135-17.844 18.083 0 9.943-2.518 21.574-5.592 25.846-3.074 4.271-13.143 7.765-22.377 7.765s-16.787 5.02-16.787 11.151c0 6.136 7.553 11.155 16.787 11.155s19.303 3.493 22.377 7.764c3.074 4.271 5.592 15.902 5.592 25.846 0 9.947 8.027 18.084 17.844 18.084 9.814 0 17.846-8.137 17.846-18.084 0-9.943 4.926-18.083 10.945-18.083 6.021 0 10.949 8.537 10.949 18.971v75.933c0 10.432 8.029 18.97 17.844 18.97 9.816 0 17.846-8.538 17.846-18.97v-75.933c0-10.434 4.926-18.971 10.945-18.971s10.947 8.537 10.947 18.971v24.824c0 10.431 8.029 18.969 17.846 18.969 9.814 0 17.846-8.538 17.846-18.969v-24.824c0-10.434 4.924-18.971 10.945-18.971 6.02 0 10.947 8.537 10.947 18.971v62.816c0 10.432 8.031 18.968 17.844 18.968 9.814 0 17.848-8.536 17.848-18.968v-62.816c0-10.434 4.926-18.971 10.945-18.971s10.945 8.537 10.945 18.971v24.824c0 10.431 8.031 18.969 17.844 18.969 9.816 0 17.848-8.538 17.848-18.969v-24.824c0-10.434 4.926-18.971 10.945-18.971 6.021 0 10.947 8.14 10.947 18.083 0 9.947 8.031 18.084 17.846 18.084s17.844-8.137 17.844-18.084c0-9.943 2.928-21.574 6.504-25.846 3.576-4.271 13.145-7.764 21.264-7.764 8.116.001 14.76-5.019 14.76-11.155z"/></svg>