<svg xmlns="http://www.w3.org/2000/svg" viewBox="0 0 512 512"><path d="M256 49.523C141.966 49.523 49.523 141.966 49.523 256c0 114.033 92.442 206.477 206.477 206.477 114.033 0 206.477-92.443 206.477-206.477S370.033 49.523 256 49.523zm125.396 82.687l-2.959-.668c5.191 7.278-18.457-1.57-24.64-.56l-1.833.362c-1.726 1.768-3.154 4.311-2.445 4.325.708.014-.635 7.567-4.043 9.482-3.406 1.915-3.896-1.846-1.092-8.358 2.805-6.512-4.687-6.033-4.687-6.033 6.618-2.779 6.237-4.107-.849-2.954 0 0-7.793 1.271-13.853.515-6.736-1.182-33.019 4.095-33.019 4.095-7.039 1.413-6.928 2.786.246 3.052 0 0 3.832.162 4.25 3.327.955-1.286 1.779-2.192 1.889-2.186.142.009 1.945 7.366 3.553 9.996 1.607 2.629 2.252 4.32 1.432 3.76l-.751-.077-4.392-.3c1.3 2.624 2.502 6.093 2.68 8.192.18 2.1 3.94 3.142 8.357 2.313l3.814-1.839c4.27-2.059 8.674-1.139 8.285 1.839.178-.271.408-.495.623-.484.392.022.318.737-.165 1.587l-.676-.033c-.011-.068-.018-.109-.024-.154-.359.888-1.076 1.909-2.262 3.057-2.572 2.49-8.127 3.148-12.407 4.794l-.427.227c-.201.095-.44.147-.656.229-1.75.8-3.197 1.824-3.969 3.325-2.284 4.439 1.605 11.432-1.096 16.299-2.717 4.894-10.279 4.955-15.008 7.309-3.557 1.771-13.704 6.729-20.097 6.324-.208.012-.612.03-1.409.07-.037-.123-.062-.191-.094-.287-.09-.023-.171-.054-.259-.078.002.033 0 .043.003.08l-3.319-.241c.345-.434.636-.861.905-1.28-.127-.143-.277-.255-.386-.418-.665-.987-.701-1.986-.347-2.948-.117-.059-.234-.114-.352-.184l.021-.359c.124-1.134.964-1.634 2.003-1.821.643-.615 1.402-1.182 2.201-1.693.356-3.067 16.803-6.602 18.139-6.715.084-.025 1.566-2.184 1.816-2.242-.742.636-.729 1.126.043 1.466l5.211.011c1.775-5.174 3.706-10.942 4.371-11.526.665-.585 1.658-.965 1.999-.885.342.08.491.083.423.068s-.351-.366-.625-.784l.246-.048c.576.016 1.205.804 1.76 1.775.393-1.849.588-3.766.646-5.725l-.473-.247c-3.111.814-4.631-.414-1.799 2.447-.946.939-2.003 1.334-3.172 1.183.29-1.139.066-2.112-.672-2.922l1.429-.646c.204-1.182.696-1.948.856-1.854.156.096.184.1.139.06-.045-.041.362.008.587-.004.226-.009 1.471-1.503 2.771-3.32l-.041-1.048c-.779-.613-.783-1.266-.012-1.953l.01.006c-.688-6.538-1.988-13.072-1.99-18.594-.545 1.304-1.412 2.833-2.795 4.684-4.936 6.282-10.241 21.516-21.234 21.543l-3.463-.131c-.197-1.186-7.388 2.03-10.229 4.018-2.844 1.99-6.82 13.326-7.465 16.237a180.087 180.087 0 00-.687 3.21c.011.621-.058 1.068-.146 1.201-.096.141-.031-.314.146-1.201a9.563 9.563 0 00-.31-2.226c-.434-1.647-.798-3.437-.797-3.647.002-.213 1.115-.668 1.361-1.04.244-.372-1.377-3.453-2.371-3.427-.994.028-2.69-.246-2.775-.627-.088-.379 1.021-2.154 1.037-2.849.014-.696-6.35-1.14-8.401-.553-2.052.586-2.771.157-1.595-.955l.039-1.25-.003-.373c-1.182-.612-5.118.238-8.202 1.877-3.084 1.64-2.741 4.739-2.12 5.892.622 1.15 2.528 2.506 3.089 2.426.561-.084 1.777-.943 2.084-1.851.306-.909 3.337.829 4.744 1.088 1.408.26-2.088 1.405-7.767 2.55l-.106 3.588.008 1.371c1.693.671 3.119 2.124 3.141 2.51.023.391.129.733.182.723.052-.009.037.011.018.037-.023.025-2.895 5.18-6.382 11.453l-16.095 25.52c-6.205 3.609-13.287 5.314-15.165 3.84-1.88-1.477-6.761-.708-10.849 1.705l-.09 4.955c.201 7.417 3.928 13.648 3.928 13.648 3.682 6.161 3.196 13.937-1.08 17.277l-1.164.01-.166-.004c-.07-.371-.642 1.145-1.364 1.816-.723.674-6.242-2.66-9.948-7.068-3.704-4.409-11.625-3.988-9.964.756 1.661 4.745 2.96 8.585 2.908 8.598-.052.014 4.745 3.324 10.663 7.359l.148 5.066-.031 3.251c1.598 3.097-11.453.091-13.141-5.574-1.688-5.663-2.922-12.699-2.643-13.587.281-.889.77-1.609.868-1.607.097.004-2.945-6.383-2.932-11.879.016-5.493-1.491-10.616-1.776-11.185-.285-.569-1.809 1.027-3.383 3.548l-2.913.045c-.829-.022-5.833-10.031-5.833-10.031-3.209-6.42-7.72-7.721-9.776-8.046-2.058-.323-10.375 8.512-15.474 12.611-5.101 4.098-9.066 14.358-9.051 16.97.018 2.613-2.86 6.514-3.73 8.295-.871 1.781-3.695-2.241-6.277-8.938l-3.947-7.445c-1.4-7.039-2.541-12.766-2.525-12.757.014.009.183-3.938.209-5.393.027-1.455-.518-1.046-1.211.911l-2.613.092-2.306.006c-.973-2.326-.044-4.618.331-5.162.375-.543-3.663-3.446-4.682-4.98-1.02-1.535-4.873-3.156-5.855-2.947-.979.211-2.16.694-2.232.824-.007.012-.079.013-.141.015C89.401 139.996 165.035 73.202 256 73.202c49.26 0 93.998 19.621 126.902 51.414.149 2.342-.291 4.859-1.506 7.594zM211.467 366.604c.3-.076.591.125.645.449l.047.259c3.131-.342 24.836-6.452 25.038-10.144l-.276-1.463c.916-1.262 2.484-1.233 2.77-.969.285.264 1.703-.719 1.705-1.351.002-.631 1.189-.663 1.574-.579.382.082 1.305-3 1.942-3.661.64-.663 4.758-1.706 5.535-2.202.778-.497 3.696-.018 4.022.896.326.915 1.589.905 2.088.803.498-.104 1.566.076 2.371.397l.142.123 4.107-5.617c3.394-1.622 5.408-3.402 4.479-3.957l-.212-1.107 4.262 2.711c4.631-.66 9.337-.764 10.463-.227l.014.617c-2.645 1.279-3.979 3.477-4.002 6.59-.021 1.695 11.45 6.785 13.762 6.655 8.244-.794 2.066-15.799 8.424-19.118l1.227 3.038c.804 3.489 2.79 6.621 4.416 6.959l.336.146c-.571-.367 10.82 17.274 10.854 17.478-.036-.123 6.647 5.383 7.507 6.109-.555 13.888-3.162 17.221-3.162 17.221a5071.487 5071.487 0 01-8.045 10.265c0-.005-3.824 1.267-8.496 2.821l-1.436 2.976c-5.838.659-16.056 2.099-18.153-5.477l-.997.478c-1.172.133-1.668-.512-1.535-.785.135-.275.039-.959-.213-1.52l-.367-.263-.178 1.422c-1.966.183-.876-1.295-.656-2.551.221-1.255-1.657.019-4.176 2.833l-2.137.143c-1.341-.01-5.586-6.127-8.701-6.539-7.062-.932-13.494 1.607-20.443 2.553-2.704.366-28.291 9.668-29.366 2.479-.026-2.251-1.241-5.72-1.241-5.72-2.371-6.773-4.041-12.776-3.938-12.97.104-.193.495.056.872.555 0 0 .006.006.295.155-.952-5.545-1.468-10.836-1.167-10.911zm-46.602-63.73l-.168-.24c-2.035-1.137-12.713-14.922-12.535-17.126 3.744.324 14.109 8.45 14.109 8.45 5.648 4.428 10.217 8.23 10.152 8.452l-.068.134.838-.168c.559.659.893 1.553.746 1.988l-.125.273c.084 3.445 6.201 10.14 6.682 15.518-.012 1.19-2.232 1.394-2.811 1.346-6.308-.886-9.307-6.672-9.307-6.672-3.303-6.371-6.683-11.751-7.513-11.955zm.524 6.368l-1.352-.769c-.354-1.254-.367-2.296-.029-2.314l.211.076c-.004 1.1.386 2.101 1.17 3.007zm-5.064-8.311c-.446-.646-.845-1.192-.868-1.187-.021.004.126-.042.329-.106l.124-.079c.66.456.862.942 1.108 1.538.248.596-.247.475-.693-.166zm23.219 8.771c-.466-.104-.116-.776.776-1.497h.592c1.887 1.227 2.877 2.826 2.971 4.795-1.762-.059-2.229-.718-2.994-2.233-.497-.878-.879-.962-1.345-1.065zm2.567 12.121l.49.087c4.494-.319 9.586 2.094 14.133 2.05l3.917.147c2.888.858 3.501 1.874 1.366 2.26l-.18-.07 1.758 1.503c4.533 1.186 7.844 2.664 7.562 2.88-.283.217-.949.018-1.48-.437l-1.355.058c-.256-.019-.078.789.027 1.028-4.447-1.715-15.619-4.348-15.619-4.348-6.986-1.646-11.765-3.965-10.619-5.158zm13.315-78.617c-3.799-.044-6.904-.752-6.902-1.039 0-.286 1.91-1.132 3.225-1.799 1.315-.666 2.941-.742 3.615-.169l-.006.429.068 2.578zm21.506 48.981c-.148.189 1.135 3.538 2.848 7.444l2.041.13a8.556 8.556 0 01-3.608 1.298l-6.753 13.085c-6.024-.006-11.342-.183-11.523-.318-.18-.136-.395-.825-.479-1.532l-.1-.323c-2.799-.402-7.938-.789-6.118-6.066-.59-1.556-2.956-2.631-3.206-5.287 0 2 15.719-11.057 15.719-11.057 5.521-4.586 10.605-6.973 12.721-5.293 2.113 1.682 3.268 4.06 2.586 4.174-.684.113-1.125.463-1.005.572.122.106-.66.725-1.513 1.086-.854.361-1.36 1.073-1.265 1.279.096.205-.199.618-.345.808zm-1.989 38.55l-.619 1.258c-.751-.537-1.377-1.428-1.379-1.639-.002-.21.333-.401.746-.429l.241.069c.422-.001.689.548 1.011.741zm9.651-77.535c1.807-5.647 4.75-9.798 4.916-9.294.168.503.906.539 1.644.083l.357-.172.084 4.916c-.839 3.068-1.081 7.827-.376 8.688.703.861 1.303 1.35 1.318 1.244.016-.109.387-.609.766-.75.379-.139 2.312.384 2.525 1.015.218.633.933 1.001 1.159.806.226-.2.685-.241.834-.206.149.033-.099.438-.553.901l-.054.375c.982-.158 1.732.27 2.252 1.281.08.616-.138 1.094-.658 1.433l-.941-1.804c-1.93-1.205-4.084-1.149-3.924-.822.16.326-1.742-.045-2.158-.641-.417-.594-1.754-.984-2.113-.811-.357.172-1.398-.18-2.313-.783l.037-.377c.729-.551 1.062-1.268.995-2.149-.68-.157-1.23.076-1.651.698-.356.009-2.433-1.437-2.417-1.896l.271-1.735zm4.427-30.564c3.243.297.331 9.559-2.567 9.824-4.733-.111-.43-9.596 2.567-9.824zm12.107 42.285c-.728-.425-.925-.952-.44-1.174l.259.012c.969-.025 1.334.081 1.78.21.447.13.762.642.734.862-.029.223.248.396.396.402.15.004.264.729.195 1.055-.07.329.062.807.291 1.063.232.255.131 1.105.004 1.35-.129.243-.844.418-1.592.386l-.438.029.723.836c.009 1.014-.357 1.81-.808 1.769l-.252.059-.411-.665c.04-.766-.976-1.739-1.187-2.099-.211-.357-.368-.863-.35-1.124l.04-.144.962.37c.708-.526.821-2.774.094-3.197zm2.794 7.603c.855.002 1.507.633 1.811.949l3.588 4.01c-1.913 3.959-3.939 6.609-4.184 6.021-.244-.583-.436-1.006-.441-.991-.005.012-.219-.244-.474-.569l-.156-.226-1.671.991c.865 1.406 1.145 3.479.765 3.646s-1.003.149-1.069-.081c-.064-.232-.545-.396-1.064-.363l-.267.025-2.85-1.52c.521-1.803.808-3.708.735-3.922-.073-.214-.834-.375-1.184-.387-.349-.014-.682.355-.705.545-.023.188-.865.222-.977.08-.111-.143-.363-.041-.457.055-.094.1-.61-.089-.839-.322-.229-.236-1.103 1.543-1.938 3.957l-1.302-.058c-3.56-.326 6.269-6.331 8.025-6.487.166-1.342 3.826-3.687 4.654-5.353zm-7.693 2.773c-.21.097-1.438-.805-2.73-2.001l.04-.521c.03-.162 4.751-5.838 4.399-2.384l-1.758 1.409c.249 1.744.256 3.401.049 3.497zm-2.651-4.991c-1.094.385-1.988-1.078-1.991-3.254l.104-.666c.434-.619.857-.675 1.268-.165a12.1 12.1 0 011.914.972c.538.323-.203 2.725-1.295 3.113zm-2.437-9.175c.197-.046 1.055-.136 1.207.018-.193.047-1.068.152-1.207-.018zm-4.411 40.429c1.625-2.461 3.21-3.647 6.174-3.09l3.198.604c3.155.108 4.644 2.002 3.306 4.205l-1.432.34c-.312.074-.666.025-1.037-.076-.744-.201-1.547-.613-2.182-.674-.996-.094-2.307-.275-3.171.32-1.652 1.14-1.474 2.754-.613 4.113.552.878 1.026.812 1.237 2.191l.269 1.759c.378 1.84.505 3.548.282 3.797l.008.167.024.498c.832.779.585 3.056-.442 3.263-1.029.207-2.7-1.339-3.713-3.433l.494-2.685c.018-.092-1.609.815-1.803 1.126-.391.62-.316 1.426-.326 2.119-.017 1.125.811 3.062-.849 2.951-2.067-.141-3.446-5.432-3.61-7.013-.346-3.333 2.406-7.781 4.186-10.482zm64.587 10.063l.056.065h-.002c.064.085.086.111.086.111.211.063.394.16.402.212l-.023.017c2.699 1.829 13.322 7.214 16.806 8.902 4.394 1.758 1.677-.439 1.027 3.151.099 2.977 6.97 8.696 9.99 8.345-6.79 5.346-11.099-6.61-17.82-6.416-2.646.188-4.296 2.817-4.588 5.115-4.628.699-6.099-2.734-9.962-2.642l-.472-.01c-2.759.008-3.998-.81-2.757-1.82l.469-.285c-2.809-2.685-4.121-3.458-4.121-3.458-6.187-3.639-11.221-7.015-11.223-7.208-.003-.191-.625.772-1 1.053-.373.282-1.142.496-1.705.473l-.061-.252.174-1.867c-1.44-.913-.477-1.942 2.145-2.29l.85-1.262c-1.533.169-9.434.545-9.494-3.037.203-4.879 10.021-.986 10.874-.802-.046 1.857.311 6.589 3.663 6.778 1.984-.014 6.098-5.547 8.24-5.771l.367 2.081c4.557.571 8.204.967 8.133.882-.02-.02-.023-.026-.054-.065zm11.995 94.27l-.178.907-1.284 4.585c-4.518-2.377-6.033-4.61-3.37-4.967l.072-.023c1.137-.175 1.785-.394 2.576-.66s1.774-.196 2.184.158zm32.878-84.82l.067.028c.018.008.031.015.029.017l-.002.004-.094-.049zm-229.848-41.448c-.127-3.267.998-5.567.971-9.017 5.238 9.71-.997 12.781-.971 9.017z"/></svg>