<svg xmlns="http://www.w3.org/2000/svg" viewBox="0 0 512 512"><path d="M471.908 396.417c-7.228-20.956-31.161-23.962-51.154-32.396-21.954-9.257-46.297-20.002-68.201-28.99-6.25-1.701-12.505-3.407-18.754-5.115-7.463-5.136-14.77-22.2-18.759-30.686-3.978-.567-7.952-1.138-11.938-1.703.616-13.129 8.742-13.834 11.938-23.866 2.812-8.849.292-20.349 4.752-28.538 3.096-5.687 10.096-5.729 13.59-10.604 3.175-4.426 5.263-12.141 6.251-17.561 1.805-9.903 3.379-23.461-1.325-33.283-2.704-5.646-4.411-6.186-5.164-13.04-.914-8.304 2.449-35.386 2.587-41.243.344-15.193-.024-16.424-3.701-31.223 0 0-4.466-13.41-11.465-17.447l-13.951-2.402-8.621-7.99c-34.745-21.378-71.992-6.381-91.941 1.703-28.745 9.327-46.923 37.477-34.231 97.611 2.166 10.271-5.624 14.861-5.118 20.465 1.116 12.259 1.351 41.721 12.933 48.98 1.076.672 9.291 2.729 9.237 2.168 1.139 11.934 2.274 23.877 3.409 35.809 2.892 7.932 9.829 8.803 11.844 20.006l-8.876 2.158c-3.99 8.485-11.298 25.55-18.76 30.686a20223.93 20223.93 0 01-18.752 5.115c-21.906 8.988-46.25 19.733-68.204 28.99-19.991 8.434-43.924 11.439-51.152 32.396 0 14.231-1.341 47.849-.973 66.497h191.138l14.034-95.841-11.665-24.621 26.93-12.913 22.684 12.646-12.505 25.35 22.112 95.379h182.749c.362-18.648-.978-52.266-.978-66.497z"/></svg>