<svg xmlns="http://www.w3.org/2000/svg" viewBox="0 0 512 512"><path d="M453.938 46.288c-22.468 0-69.558 26.553-125.968 70.982l-2.452 1.912-2.814-1.341c-20.569-9.876-43.557-15.093-66.479-15.093-41.009 0-79.532 15.958-108.506 44.946-46.076 46.015-58.045 116.353-29.857 175.021l1.342 2.814-1.93 2.434c-61.905 78.599-78.777 124.581-68.051 135.308 1.928 1.958 5.067 2.925 9.353 2.925 21.681 0 66.156-24.643 119.852-66.172a157.344 157.344 0 01-14.392-8.767c-18.148 10.632-32.308 16.044-42.119 16.044-5.199 0-9.32-1.489-12.263-4.43-8.894-8.899-4.543-27.604 13.278-57.199l3.89-6.506 4.448 6.178a151.652 151.652 0 0016.449 19.479 158.309 158.309 0 0016.774 14.5c33.39-20.633 75.938-55.954 117.434-97.42 41.5-41.498 76.785-84.073 97.386-117.43a157.245 157.245 0 00-14.487-16.792c-5.918-5.901-12.46-11.43-19.457-16.431l-6.179-4.415 6.506-3.924c19.489-11.739 34.598-17.691 44.898-17.691 5.2 0 9.354 1.505 12.265 4.416 8.633 8.613 4.84 26.42-11.61 54.396a162.766 162.766 0 018.797 14.373c57.981-74.853 73.712-118.738 63.246-129.169-1.931-1.967-5.072-2.948-9.354-2.948zm-55.954 150.854c-27.403 34.109-60.171 70.469-95.259 105.579-35.093 35.071-71.421 67.872-105.561 95.244 18.606 7.714 38.88 11.785 59.157 11.785 40.974 0 79.531-15.958 108.503-44.928 44.116-44.097 56.969-110.581 33.16-167.68z"/></svg>