<svg xmlns="http://www.w3.org/2000/svg" viewBox="0 0 512 512"><path d="M255.531 291.949c54.873 0 99.348-44.506 99.348-99.381 0-54.899-44.475-99.348-99.348-99.348s-99.363 44.448-99.363 99.348c0 54.875 44.49 99.381 99.363 99.381zm-48.038-111.482h11.673c-1.83-2.283-3.663-5.684-5.461-10.199-1.83-4.479-2.745-9.48-2.745-14.945 0-4.841 1.013-9.449 3.007-13.862 1.996-4.351 4.938-8.21 8.83-11.545 3.892-3.337 8.748-5.983 14.586-7.948 5.853-1.93 12.589-2.909 20.243-2.909 13.962 0 24.837 3.892 32.618 11.705 7.784 7.757 11.658 19.032 11.658 33.878H277.31c-.129-1.824-.395-4.116-.736-6.863a25.345 25.345 0 00-2.47-7.915c-1.258-2.552-3.202-4.775-5.819-6.642-2.617-1.895-6.229-2.839-10.84-2.839-5.478 0-9.827 1.536-13.033 4.577-3.238 3.039-4.839 7.094-4.839 12.194 0 1.476.065 2.878.163 4.188.133 1.34.425 2.881.851 4.644.424 1.767 1.146 3.791 2.191 6.114 1.014 2.325 2.452 5.102 4.25 8.367h24.264v15.503h-19.146c.604 1.835 1.029 3.631 1.192 5.467.163 1.828.263 3.791.263 5.851 0 5.688-1.487 10.624-4.463 14.65-2.992 4.087-6.46 7.714-10.479 10.859l.374.389c2.91-1.865 5.281-3.003 7.114-3.465a18.875 18.875 0 015.266-.754c2.451 0 4.837.232 7.208.654 2.371.396 4.761.882 7.196 1.342 2.438.59 4.79 1.113 7.113 1.568 2.287.428 4.676.654 7.11.654 2.423 0 4.892-.453 7.377-1.303 2.5-.854 5.377-3.041 8.665-6.578l10.922 18.412c-4.366 4.285-9.06 7.26-14.029 8.961-4.969 1.67-9.777 2.521-14.389 2.521-4.626 0-8.452-.265-11.479-.891-3.043-.615-5.837-1.333-8.404-2.183-2.665-.953-5.328-1.834-8.012-2.549-2.681-.759-6.018-1.117-10.039-1.117-3.27 0-6.705.459-10.269 1.375-3.596.918-7.163 2.711-10.676 5.364l-11.299-16.778a57.016 57.016 0 007.555-5.523 42.841 42.841 0 006.571-7.003 38.372 38.372 0 004.646-8.304 24.781 24.781 0 001.83-9.422c0-2.059-.344-4.084-1.014-6.084a61.908 61.908 0 00-2.454-6.114h-18.049v-15.502zm48.038 252.229c-55.559-.132-103.925-9.678-133.408-25.997-1.013-.553-2.009-1.176-2.991-1.761v22.597c.035 1.012.229 2.09 1.244 3.859 1.013 1.633 2.894 3.824 5.803 6.178 5.805 4.711 15.551 9.779 28.109 14.027 25.146 8.605 61.315 14.229 101.243 14.195 52.274.131 98.43-9.906 121.192-22.859 7.556-4.183 12.231-8.633 13.948-11.576.998-1.734 1.225-2.842 1.225-3.824v-22.632c-7.731 4.744-16.807 8.763-27.142 12.293-28.744 9.749-67.007 15.47-109.223 15.5zm0-55.224c-55.559-.135-103.925-9.718-133.408-26.038a209.416 209.416 0 01-2.991-1.762v19.85c.035 1.047.229 2.088 1.244 3.822 1.013 1.668 2.894 3.893 5.803 6.219 5.805 4.707 15.551 9.805 28.109 14.025 25.146 8.602 61.315 14.195 101.243 14.164 52.274.162 98.43-9.844 121.192-22.795 7.556-4.187 12.231-8.633 13.931-11.643 1.016-1.705 1.242-2.746 1.242-3.793v-19.85c-7.715 4.708-16.807 8.766-27.076 12.295-28.744 9.745-67.006 15.466-109.289 15.506zm-121.207-78.226c-7.57 4.183-12.231 8.633-13.948 11.642-.948 1.567-1.178 2.651-1.244 3.562.066.952.296 2.028 1.244 3.631 1.013 1.696 2.894 3.888 5.803 6.246 5.805 4.68 15.551 9.778 28.109 14.03 25.146 8.596 61.315 14.188 101.243 14.16 52.356.129 98.465-9.908 121.192-22.796 7.571-4.216 12.231-8.663 13.948-11.641.932-1.603 1.191-2.679 1.225-3.631-.033-.911-.293-1.995-1.225-3.562-.999-1.733-2.895-3.927-5.805-6.278-4.676-3.763-11.971-7.789-21.158-11.416 24.524-26.42 39.568-61.74 39.568-100.625 0-81.588-66.173-147.742-147.746-147.742-81.609 0-147.746 66.154-147.746 147.742 0 38.885 15.043 74.205 39.568 100.625-4.904 1.897-9.32 3.926-13.028 6.053zm121.207 41.102c-.344 0-.67-.028-.999-.028.329-.001.656.028.999.028.328 0 .654-.028.982-.028-.327-.001-.654.028-.982.028zm-126.914-147.78c0-69.98 56.933-126.943 126.915-126.943 69.967 0 126.9 56.963 126.9 126.943 0 69.986-56.934 126.919-126.9 126.919-69.983 0-126.915-56.932-126.915-126.919z"/></svg>