<svg xmlns="http://www.w3.org/2000/svg" viewBox="0 0 512 512"><path d="M115.362 49.87v412.26h281.275V49.87H115.362zm29.106 383.157V230.409h29.342v-21.312h-29.342V78.979H367.53v130.118h-27.969v21.312h27.969v202.618H144.468zm62.492-223.93h33.15v21.312h-33.15zm66.301 0h33.15v21.312h-33.15zm-83.862-83.428h133.203v30.785H189.399zm103.799 217.5c-1.869-3.144-4.766-6.164-8.695-9.061-3.928-2.897-9.525-5.327-16.789-7.293-1.379-.39-2.68-.734-3.904-1.03-1.23-.292-2.428-.589-3.609-.883V298.83c3.338 0 6.186 1.375 8.541 4.126 2.357 2.748 3.588 6.085 3.684 10.014h20.92c-.297-5.105-1.377-9.524-3.246-13.259-1.865-3.729-4.268-6.851-7.213-9.352-2.947-2.505-6.359-4.468-10.238-5.893s-8.027-2.382-12.447-2.874V270.25h-8.691v11.343a49.404 49.404 0 00-12.816 2.578c-4.123 1.426-7.758 3.441-10.9 6.039-3.143 2.605-5.67 5.82-7.59 9.651-1.912 3.829-2.867 8.248-2.867 13.256 0 4.91.832 9.012 2.502 12.302 1.67 3.293 3.906 6.039 6.705 8.248 2.797 2.209 5.965 3.977 9.5 5.303s7.121 2.479 10.752 3.461c.984.198 1.889.419 2.725.663.838.245 1.496.467 1.99.661v30.789c-4.518-.884-8.299-2.945-11.344-6.186-3.043-3.241-4.516-7.659-4.42-13.258h-20.77c.982 11.589 4.568 20.381 10.754 26.365 6.188 5.992 14.777 9.38 25.779 10.166v12.519h8.691v-12.519c7.365-.492 13.406-1.966 18.117-4.419 4.713-2.454 8.473-5.254 11.271-8.397 2.793-3.141 4.734-6.355 5.816-9.647 1.08-3.291 1.621-6.017 1.621-8.176 0-2.452-.172-5.254-.518-8.396-.344-3.143-1.447-6.286-3.311-9.427zm-41.689-20.329c-4.715-1.08-8.098-2.504-10.166-4.273-2.061-1.768-3.094-4.269-3.094-7.512 0-2.062.371-3.851 1.107-5.378.738-1.52 1.742-2.799 3.02-3.83a12.798 12.798 0 014.271-2.281 16.183 16.183 0 014.861-.735v24.009zm23.127 43.38a14.56 14.56 0 01-3.758 4.348c-1.52 1.177-3.24 2.086-5.154 2.722-1.914.644-3.758 1.06-5.523 1.254v-28.283c5.791 1.575 9.891 3.315 12.301 5.23 2.402 1.914 3.605 4.786 3.605 8.618-.001 2.355-.489 4.395-1.471 6.111z"/></svg>