<svg xmlns="http://www.w3.org/2000/svg" viewBox="0 0 512 512"><path d="M75.907 338.368l164.261 94.81V294.264L75.907 199.419v138.949zm307.381-185.91v14.597c0 10.812-20.701 19.574-46.274 19.574-25.541 0-46.256-8.763-46.256-19.574v-24.149h.148c1.552 10.202 21.566 18.284 46.107 18.284 25.573 0 46.274-8.77 46.274-19.544 0-10.825-20.701-19.569-46.274-19.569-2.027 0-4.037.062-5.999.179l-29.776-17.186v18.362c0 10.812-20.684 19.573-46.239 19.573-16.057 0-30.199-3.465-38.507-8.729-1.177-1.208-2.632-2.387-4.382-3.486-2.174-2.269-3.382-4.742-3.382-7.357v-17.77l-28.779 16.61c-2.077-.097-4.168-.196-6.311-.196-25.541 0-46.257 8.744-46.257 19.569 0 10.774 20.716 19.544 46.257 19.544 24.542 0 44.573-8.082 46.125-18.284h.13v24.149c0 10.812-20.684 19.574-46.255 19.574-25.541 0-46.257-8.763-46.257-19.574v-14.401l-35.629 20.538 164.817 95.126 163.736-94.508-37.017-21.352zm-81.674 60.492c0 10.812-20.716 19.559-46.256 19.559-25.557 0-46.273-8.746-46.273-19.559v-24.149h.147c1.554 10.204 21.568 18.299 46.126 18.299 24.543 0 44.556-8.095 46.125-18.299h.131v24.149zm-30.803 82.546V433.21l164.283-94.842v-137.71l-164.283 94.838zm-15.812-177.934c25.556 0 46.239-8.747 46.239-19.553 0-10.795-20.684-19.555-46.239-19.555-25.558 0-46.272 8.76-46.272 19.555 0 10.806 20.714 19.553 46.272 19.553z"/></svg>