<svg xmlns="http://www.w3.org/2000/svg" viewBox="0 0 512 512"><path d="M255.77 292.604c54.876 0 99.381-44.472 99.381-99.362 0-54.877-44.505-99.365-99.381-99.365-54.871 0-99.346 44.488-99.346 99.365 0 54.889 44.474 99.362 99.346 99.362zm-37.18-135.27c4.514.116 8.828-.211 13.014-.999 4.219-.786 7.979-2.19 11.314-4.203 3.336-1.99 6.18-4.643 8.472-7.911 2.322-3.286 3.857-7.357 4.579-12.216h20.601v127.602h-25.9v-82.766h-32.08v-19.507zm-84.011 142.578c-7.587 4.203-12.23 8.65-13.964 11.629-.95 1.6-1.178 2.646-1.211 3.596.033.945.261 1.991 1.211 3.612 1.014 1.685 2.91 3.894 5.819 6.231 5.789 4.707 15.535 9.776 28.125 14.026 25.115 8.565 61.282 14.189 101.21 14.175 52.355.146 98.5-9.891 121.192-22.808 7.588-4.184 12.264-8.667 13.968-11.625.946-1.621 1.205-2.667 1.24-3.612-.035-.95-.294-1.996-1.24-3.596-1.018-1.7-2.914-3.907-5.824-6.232-4.675-3.808-11.936-7.831-21.156-11.481 24.525-26.372 39.569-61.718 39.569-100.586 0-81.61-66.156-147.767-147.749-147.767-81.59 0-147.745 66.156-147.745 147.767 0 38.868 15.042 74.214 39.571 100.586-4.907 1.934-9.321 3.962-13.016 6.085zm121.191 41.092c-.325 0-.651-.032-.981-.032.329 0 .655.032.981.032.329 0 .656-.032.981-.032-.325 0-.652.032-.981.032zM128.854 193.241c0-69.964 56.935-126.916 126.916-126.916 69.982 0 126.916 56.952 126.916 126.916 0 69.978-56.934 126.929-126.916 126.929s-126.916-56.951-126.916-126.929zM255.77 378.119c-55.561-.133-103.925-9.681-133.391-25.998-1.014-.587-1.994-1.179-2.975-1.764v19.847c0 1.013.23 2.079 1.211 3.795 1.014 1.701 2.91 3.893 5.819 6.244 5.789 4.709 15.535 9.78 28.125 14.029 25.115 8.567 61.282 14.19 101.21 14.176 52.292.148 98.434-9.892 121.192-22.81 7.588-4.197 12.264-8.665 13.933-11.64 1.014-1.73 1.275-2.782 1.275-3.795v-19.847c-7.752 4.704-16.84 8.729-27.109 12.263-28.744 9.744-67.005 15.468-109.29 15.5zm0 55.268c-55.561-.134-103.925-9.682-133.391-26a127.499 127.499 0 01-2.975-1.764v22.598c0 .993.23 2.092 1.211 3.791 1.014 1.7 2.91 3.892 5.819 6.248 5.789 4.705 15.535 9.745 28.125 13.994 25.115 8.6 61.282 14.223 101.21 14.191 52.292.133 98.434-9.877 121.192-22.825 7.588-4.188 12.264-8.634 13.968-11.608.979-1.731 1.24-2.814 1.24-3.791v-22.634c-7.785 4.71-16.84 8.735-27.142 12.268-28.776 9.774-67.006 15.499-109.257 15.532z"/></svg>