<svg xmlns="http://www.w3.org/2000/svg" viewBox="0 0 512 512"><path d="M456.479 241.509L276.031 61.071c-11.052-11.043-28.941-11.043-39.96 0l-5.788 5.758-29.335-29.359-76.031 76.001L225.671 268.77l-10.922 11.414-17.627-17.631L43.85 415.844l58.502 58.514 153.307-153.283-19.229-19.213 28.124-29.431L164.159 117.58l36.789-36.746 7.687 7.667-9.909 9.891c-11.053 11.038-11.053 28.94 0 39.979l180.417 180.438c11.051 11.046 28.971 11.046 39.991 0l37.346-37.338c11.023-11.027 11.023-28.929-.001-39.962z"/></svg>