<svg xmlns="http://www.w3.org/2000/svg" viewBox="0 0 512 512"><path d="M255.999 230.876c-45.492 0-82.502 37.008-82.502 82.501 0 45.491 37.01 82.502 82.502 82.502s82.503-37.011 82.503-82.502c0-45.493-37.011-82.501-82.503-82.501zm0 117.302c-19.217 0-34.8-15.581-34.8-34.801 0-19.222 15.583-34.802 34.8-34.802 19.22 0 34.802 15.58 34.802 34.802 0 19.22-15.582 34.801-34.802 34.801zm124.91-298.924H131.087c-11.105 0-20.115 9.007-20.115 20.117v393.375h290.057V69.371c-.001-11.11-9.011-20.117-20.12-20.117zm-124.91 58.252c15.651 0 28.342 12.688 28.342 28.339 0 15.653-12.69 28.341-28.342 28.341-15.65 0-28.338-12.688-28.338-28.341 0-15.652 12.688-28.339 28.338-28.339zm0 317.451c-61.525 0-111.582-50.056-111.582-111.58s50.057-111.582 111.582-111.582c61.527 0 111.58 50.058 111.58 111.582s-50.053 111.58-111.58 111.58z"/></svg>