<svg xmlns="http://www.w3.org/2000/svg" viewBox="0 0 512 512"><path d="M255.091 222.902h-.059c-13.374.012-26.839-3.171-39.051-9.582L114.008 477.969h48.297l8.205-21.296 83.722-33.747 84.673 33.521 8.295 21.521h48.296L293.537 213.361c-11.994 6.324-25.221 9.541-38.446 9.541zm-.341 15.148l14.659 38.041h-29.314l14.655-38.041zm-24.306 63.079h48.613l6.43 16.686-29.924 17.277-30.952-18.822 5.833-15.141zm-14.981 38.885l15.38 9.352-24.414 14.094 9.034-23.446zm111.194 84.651l-67.855-26.86-9.292.024-66.684 26.883 9.272-24.065 63.137-36.453 62.845 38.213 8.577 22.258zm-23.32-60.522l-23.383-14.219 14.646-8.457 8.737 22.676zM142.009 205.958c4.806 0 9.611-1.831 13.279-5.495 7.335-7.336 7.335-19.229.004-26.56h-.004c-9.501-9.514-14.174-21.809-14.195-34.281.021-12.465 4.693-24.76 14.195-34.269 7.335-7.332 7.335-19.226.004-26.556-7.336-7.335-19.224-7.338-26.56-.002-16.764 16.741-25.223 38.873-25.202 60.827a85.868 85.868 0 0025.202 60.841 18.72 18.72 0 0013.277 5.495zM354.627 78.795c-7.336 7.332-7.336 19.226 0 26.555 9.5 9.515 14.174 21.804 14.195 34.276-.021 12.464-4.695 24.761-14.195 34.273-7.336 7.337-7.336 19.231 0 26.561a18.725 18.725 0 0013.279 5.498c4.807 0 9.614-1.831 13.279-5.498a85.864 85.864 0 0025.197-60.834 85.86 85.86 0 00-25.197-60.834c-7.335-7.333-19.227-7.333-26.558.003zM95.168 211.375C75.318 191.51 65.47 165.65 65.45 139.622c.02-26.027 9.875-51.887 29.718-71.741 7.333-7.336 7.333-19.223 0-26.559-7.334-7.333-19.222-7.333-26.559 0-27.11 27.093-40.739 62.787-40.719 98.3-.021 35.514 13.609 71.207 40.719 98.31a18.736 18.736 0 0013.281 5.497c4.807 0 9.61-1.833 13.278-5.497 7.333-7.335 7.333-19.224.006-26.557h-.006zM441.303 41.322c-7.332-7.333-19.228-7.333-26.557 0-7.335 7.336-7.335 19.223 0 26.556 19.845 19.86 29.697 45.717 29.718 71.748-.021 26.026-9.873 51.881-29.724 71.746-7.332 7.333-7.329 19.23.006 26.562a18.712 18.712 0 0013.273 5.497c4.806 0 9.615-1.832 13.283-5.503 27.106-27.1 40.741-62.79 40.717-98.303.025-35.514-13.605-71.206-40.716-98.303zM254.75 195.441c30.827 0 55.812-24.99 55.812-55.812 0-30.827-24.985-55.815-55.812-55.815-30.822 0-55.812 24.988-55.812 55.815 0 30.822 24.99 55.812 55.812 55.812z"/></svg>