<svg xmlns="http://www.w3.org/2000/svg" viewBox="0 0 512 512"><path d="M208.254 100.605a47.748 47.748 0 1195.496 0 47.748 47.748 0 11-95.496 0zm111.965 202.933v29.496c49.871 8.225 84.32 25.722 84.32 45.99 0 28.173-66.502 51.012-148.539 51.012s-148.541-22.839-148.541-51.012c0-20.271 34.453-37.769 84.326-45.992v-29.494c-62.783 9.472-113.432 33.794-113.432 75.486 0 55.347 89.221 80.118 177.646 80.118 88.424 0 177.646-24.771 177.646-80.118.001-41.692-50.645-66.012-113.426-75.486zm3.885-127.887c0-10.661-8.643-19.303-19.303-19.303h-97.6c-10.66 0-19.305 8.642-19.305 19.303v101.103h27.568v104.638h81.074V276.754h27.564V175.651z"/></svg>