<svg xmlns="http://www.w3.org/2000/svg" viewBox="0 0 512 512"><path d="M324.816 172.772l.014.027c-.08-.108-.146-.213-.242-.319a810.557 810.557 0 00-12.461-16.761c-5.395-9.025-8.242-20.006-1.619-35.849v-.009l22.776-54.505-35.808-16.298 3.696-16.156h-89.834l4.708 20.585-36.804 11.869 22.761 54.505.018.009c11.247 26.945-4.856 39.813-14.325 52.928-46.861 64.796-99.313 157.564-99.313 213.49 0 92.734 72.008 89.646 167.857 89.646 95.881 0 167.889 3.088 167.889-89.646 0-55.934-52.467-148.702-99.313-213.516zm-91.138-45.504h45.879v28.931h-45.879v-28.931zm73.431 179.369v20.791h-31.283l-3.282 6.344v10.058h34.565v20.782h-34.565v30.181h-33.245v-30.181h-34.336V343.83h34.336v-10.058l-3.041-6.344h-31.295v-20.791h20.801l-33.489-68.015h35.449l28.859 68.015 28.221-68.015h35.435l-33.915 68.015h20.785z"/></svg>