<svg xmlns="http://www.w3.org/2000/svg" viewBox="0 0 512 512"><path d="M182.683 192.699c20.618-20.639 30.852-47.911 30.87-76.491 0-6.671-.59-13.41-1.733-20.079-59.485 16.646-105.464 65.633-117.661 126.852 4.022.422 8.011.619 12 .619 28.566-.034 55.855-10.268 76.524-30.901zM319.325 329.39c-20.634 20.636-30.853 47.908-30.853 76.459-.033 4.019.162 8.009.571 12.066 61.233-12.229 110.254-58.207 126.899-117.694-6.721-1.146-13.456-1.732-20.144-1.732-28.549.032-55.821 10.236-76.473 30.901zM256.521 89.949c-6.898 0-13.604.488-20.243 1.291 1.439 8.321 2.208 16.66 2.208 24.968.018 34.532-12.575 68.54-38.179 94.146-25.572 25.575-59.565 38.166-94.033 38.166h-.115c-5.002 0-10.006-.297-15.025-.786-.116 2.581-.198 5.17-.198 7.814 0 91.469 74.118 165.571 165.585 165.571 2.6 0 5.201-.098 7.782-.201a145.534 145.534 0 01-.784-15.069c-.032-34.504 12.558-68.511 38.162-94.122 25.609-25.6 59.634-38.223 94.118-38.16 8.339 0 16.71.759 25.015 2.193.783-6.607 1.261-13.377 1.261-20.212 0-91.47-74.118-165.599-165.554-165.599z"/></svg>