<svg xmlns="http://www.w3.org/2000/svg" viewBox="0 0 512 512"><path d="M458.696 56.234c-117.413 71.99-202.609 162.818-240.893 208.393l-93.746-73.448-41.401 33.374 161.993 164.745c27.878-71.409 116.176-210.979 223.989-310.144l-9.942-22.92zM66.423 390.715H41.388c.007 35.213 28.536 63.739 63.746 63.755v-25.045c-21.37-.034-38.674-17.338-38.711-38.71zm-.001-137.23H41.384v51.229h25.039v-51.229zm-25.038-86.1h25.045c.034-21.383 17.334-38.686 38.708-38.72v-25.034c-35.215.004-63.747 28.534-63.753 63.754zm25.038 154.408H41.387v51.232h25.036v-51.232zm.007-135.201H41.384v51.234h25.045v-51.234zm327.318 22.633a1251.325 1251.325 0 00-22.208 28.602h22.208v-28.602zm-83.682-84.221v-21.375h-51.227v25.036h46.974a1437.7 1437.7 0 014.253-3.661zM123.644 455.279h51.236v-25.041h-51.236v25.041zm245.072-82.254h25.033v-51.232h-25.033v51.232zm-39.427 56.396v25.049c35.217-.012 63.738-28.542 63.744-63.755h-25.034c-.044 21.382-17.334 38.67-38.71 38.706zm39.423-175.936v51.229h25.037v-51.229h-25.037zm-245.067-124.82h51.235v-25.036h-51.235v25.036zm68.3 0h51.233v-25.036h-51.233v25.036zm.003 326.614h51.226v-25.041h-51.226v25.041zm66.885 0h51.237v-25.041h-51.237v25.041z"/></svg>