<svg xmlns="http://www.w3.org/2000/svg" viewBox="0 0 512 512"><path d="M121.997 198.599v113.095h50.837l113.565 84.295V114.307l-113.563 84.292h-50.839zm224.112-47.009c-6.672-6.67-17.485-6.67-24.156 0-6.67 6.672-6.67 17.486.01 24.157h-.01c21.943 21.954 32.868 50.562 32.888 79.309-.02 28.835-10.917 57.493-32.888 79.491-6.67 6.673-6.67 17.488.01 24.158a17.032 17.032 0 0012.069 5.001c4.375 0 8.749-1.673 12.085-5.009 28.584-28.582 42.906-66.205 42.887-103.642.019-37.405-14.358-74.943-42.895-103.465z"/></svg>