<svg xmlns="http://www.w3.org/2000/svg" viewBox="0 0 512 512"><path d="M306.818 335.551c-15.453-6.512-32.588-14.08-48.007-20.406-4.398-1.196-8.8-2.396-13.202-3.6-5.251-3.611-10.395-15.626-13.204-21.602l-8.402-1.193c.434-9.242 6.158-9.739 8.402-16.8 1.981-6.229.208-14.323 3.348-20.089 2.179-4.002 7.103-4.029 9.565-7.461 2.232-3.117 3.701-8.549 4.398-12.361 1.269-6.971 2.376-16.512-.935-23.43-1.903-3.97-3.104-4.353-3.632-9.176-.641-5.845 1.723-24.907 1.821-29.031.241-10.694-.017-20.369-2.606-30.789 0 0-3.145-9.436-8.07-12.281l-9.817-1.687-6.071-5.626c-24.454-15.049-50.673-4.493-64.712 1.197-20.235 6.568-33.03 35.189-24.098 77.518 1.525 7.227-3.959 10.463-3.6 14.407.785 8.628.947 29.365 9.103 34.472.756.479 6.538 1.925 6.504 1.528l2.395 25.204c2.038 5.586 6.919 6.197 8.338 14.083l-6.247 1.515c-2.811 5.976-7.953 17.99-13.208 21.602-4.397 1.203-8.8 2.403-13.198 3.6-15.418 6.326-32.555 13.895-48.005 20.406-14.069 5.94-30.916 8.053-36.006 22.802 0 10.021-.94 33.677-.687 46.804h306.521c.256-13.127-.686-36.783-.686-46.804-5.085-14.749-21.933-16.862-36.002-22.802zm86.719-1.363c-11.013-4.641-23.227-10.036-34.215-14.543-3.136-.85-6.275-1.708-9.41-2.564-3.744-2.576-7.408-11.139-9.41-15.396-1.996-.286-3.991-.572-5.989-.856.308-6.592 4.384-6.941 5.989-11.974 1.41-4.442.146-10.204 2.383-14.316 1.554-2.856 5.063-2.873 6.816-5.319 1.593-2.221 2.645-6.098 3.141-8.813.904-4.966 1.69-11.771-.668-16.697-1.356-2.833-2.212-3.106-2.589-6.54-.46-4.168 1.228-17.756 1.296-20.695.172-7.625-.009-14.521-1.855-21.944 0 0-2.24-6.729-5.754-8.754l-6.999-1.2-4.328-4.011c-17.429-10.729-36.12-3.208-46.122.849-14.424 4.684-23.545 25.086-17.178 55.255 1.088 5.151-2.823 7.456-2.562 10.265.557 6.154.671 20.936 6.484 24.576.536.34 4.66 1.373 4.636 1.088.567 5.984 1.14 11.979 1.708 17.965 1.451 3.979 4.932 4.418 5.939 10.038l-4.449 1.086c-1.428 3.032-3.702 8.226-6.245 11.904a3482.803 3482.803 0 0116.646 7.12c6.428 2.764 12.804 5.506 18.918 8.08 2.908 1.232 5.965 2.289 9.198 3.41 12.079 4.186 25.772 8.925 30.888 23.758l.4 1.163v1.232c0 3.856.15 10.017.307 16.532.07 2.904.143 5.915.207 8.92h68.973c.186-9.353-.486-26.225-.486-33.363-3.629-10.512-15.638-12.023-25.67-16.256zm79.609 6.764c-2.528-7.335-10.91-8.388-17.911-11.343-7.685-3.24-16.209-7-23.882-10.151-2.184-.592-4.372-1.192-6.562-1.788-2.612-1.799-5.169-7.773-6.567-10.742-1.394-.202-2.787-.4-4.18-.602.215-4.594 3.059-4.844 4.18-8.354.982-3.1.102-7.124 1.665-9.988 1.083-1.996 3.53-2.01 4.757-3.72 1.111-1.548 1.846-4.247 2.189-6.146.631-3.472 1.181-8.216-.468-11.653-.944-1.977-1.542-2.168-1.805-4.564-.323-2.906.858-12.392.905-14.439.121-5.322-.008-10.135-1.297-15.321 0 0-1.564-4.689-4.014-6.101l-4.883-.842-3.021-2.799c-12.168-7.486-25.207-2.239-32.189.594-10.064 3.27-16.431 17.503-11.984 38.559.756 3.6-1.971 5.205-1.79 7.169.386 4.29.47 14.606 4.523 17.147.378.237 3.254.956 3.235.76.396 4.176.799 8.359 1.196 12.536 1.009 2.778 3.438 3.081 4.143 7.003l-3.106.762c-1.184 2.516-3.201 7.16-5.379 9.624 3.961 1.681 7.971 3.401 11.914 5.097 4.597 1.971 9.155 3.935 13.53 5.778 2.011.847 4.155 1.593 6.425 2.378 8.617 2.984 19.345 6.697 23.326 18.243l.4 1.165v1.229c0 2.719.104 7.074.215 11.688.019.691.035 1.4.053 2.105h46.723c.13-6.529-.341-18.298-.341-23.284z"/></svg>