<svg xmlns="http://www.w3.org/2000/svg" viewBox="0 0 512 512"><path d="M401.914 170.85c-.828-.06-20.471-1.699-37.729-18.96-15.855-15.856-23.988-16.04-24.068-16.04H236.242l-59.924 52.295c5.25 3.096 12.924 6.374 21.871 6.374 7.898 0 15.754-2.566 23.342-7.625 18.061-12.038 32.398-19.5 48.047-19.5 16.365 0 32.326 8.078 53.367 27.016 37.914 34.122 79.26 74.921 79.672 75.33l2.465 2.434v46.345h57.67V170.873l-60.838-.023zm-220.67 156.512a17.263 17.263 0 00-12.279-5.087 17.27 17.27 0 00-12.285 5.087l-4.613 4.615 24.561 24.565 4.619-4.62c6.767-6.771 6.765-17.789-.003-24.56zm32.936 32.935a17.27 17.27 0 00-12.285-5.085 17.243 17.243 0 00-12.271 5.078c-.002 0-.002 0-.002.002L185 364.917l24.559 24.561 4.621-4.621c6.769-6.771 6.769-17.788 0-24.56zm20.652 27.847c-4.637 0-9 1.806-12.283 5.085l-4.615 4.619 24.557 24.561 4.621-4.619c6.771-6.77 6.771-17.789 0-24.563a17.25 17.25 0 00-12.28-5.083zm-86.525-93.713a17.244 17.244 0 00-12.277-5.088 17.256 17.256 0 00-12.281 5.084l-4.619 4.618 24.564 24.562 4.619-4.617c6.765-6.773 6.765-17.791-.006-24.559zm163.234-88.001l-.01.011c-17.324-15.532-30.279-22.474-41.953-22.474-11.471 0-23.371 6.398-38.852 16.719-10.363 6.907-21.309 10.408-32.537 10.408-23.775 0-40.209-15.802-40.896-16.475l-6.414-6.271 79.148-69.073h95.299c12.508-11.172 10.369-29.682 10.369-29.682h-95.059c-47.205 0-48.615 7.788-81.656 40.827-29.121 29.118-57.42 29.985-57.42 29.985H49.248v140.352h51.428l14.701-14.702c5.52-5.517 12.854-8.553 20.652-8.553s15.133 3.039 20.65 8.557c6.725 6.72 9.443 15.928 8.229 24.689 1.334-.184 2.686-.311 4.057-.311 7.801 0 15.133 3.038 20.652 8.555 6.721 6.722 9.439 15.93 8.227 24.694 1.332-.187 2.682-.314 4.051-.314 7.803 0 15.139 3.037 20.654 8.554 6.723 6.723 9.445 15.931 8.227 24.69 1.338-.184 2.689-.311 4.057-.311 7.801 0 15.135 3.037 20.652 8.551a29.05 29.05 0 017.451 12.796c5.877 4.513 14.348 4.093 19.727-1.285 5.846-5.846 5.846-15.362-.002-21.212l-69.92-69.922 11.721-11.721 69.922 69.923c5.848 5.847 15.363 5.848 21.213-.002a14.897 14.897 0 004.393-10.606c0-4.006-1.561-7.771-4.393-10.602l-69.924-69.922 11.721-11.721 69.922 69.921c5.85 5.844 15.367 5.843 21.215-.003 5.846-5.846 5.846-15.362 0-21.21l-69.92-69.92 11.721-11.722 69.918 69.923c5.848 5.842 15.363 5.841 21.215-.005 5.846-5.846 5.846-15.362 0-21.212l-69.924-69.924z"/></svg>