<svg xmlns="http://www.w3.org/2000/svg" viewBox="0 0 512 512"><path d="M105.79 434.072V67.443h141.612c37.199 0 19.272 88.184 19.272 88.184s86.003-20.906 87.108 18.527v119.035a95.541 95.541 0 0125.037 3.719V141.064l-91.322-91.326-7.338-7.337H80.75v416.707h205.809a96.569 96.569 0 01-19.142-25.036H105.79zm245.716-123.39c-43.354 0-78.502 35.15-78.502 78.51 0 43.354 35.148 78.498 78.502 78.498 43.359 0 78.505-35.145 78.505-78.498 0-43.36-35.146-78.51-78.505-78.51zm14.113 92.621v42.301h-28.231v-42.301H295.09v-28.238h42.298v-42.297h28.231v42.297h42.307v28.238h-42.307z"/></svg>