<svg xmlns="http://www.w3.org/2000/svg" viewBox="0 0 512 512"><path d="M403.066 159.934a26.618 26.618 0 00-14.125-4.064c-9.244 0-17.693 4.669-22.599 12.497l-.255.403-.201.433-27.938 60.443c-.004-.074-.012-.146-.012-.218l17.843-100.286c2.557-14.469-7.119-28.321-21.569-30.893a26.787 26.787 0 00-4.684-.415 26.597 26.597 0 00-26.213 21.975l-16.861 94.763-9.824-118.296c-1.135-13.7-12.788-24.425-26.528-24.425-.729 0-1.476.028-2.214.086-14.653 1.218-25.572 14.114-24.356 28.746l10.108 121.72c.157 4.256.076 7.391-.109 9.678-1.305-2.02-2.603-4.471-3.428-6.829a28.575 28.575 0 00-1.227-3.015l-30.078-97.994c-3.465-11.262-13.698-18.825-25.47-18.825-2.644 0-5.281.393-7.822 1.179-6.802 2.087-12.382 6.699-15.715 12.984-3.333 6.289-4.018 13.5-1.921 20.305l30.548 99.507c12.183 39.772 7.347 50.681 5.573 53.074-.688.936-1.394 1.281-2.594 1.281-2.298 0-5.47-1.366-8.275-3.566l-36.234-28.464a26.634 26.634 0 00-17.08-6.209 26.606 26.606 0 00-20.36 9.443c-4.59 5.433-6.794 12.332-6.2 19.42.599 7.09 3.915 13.524 9.35 18.122l62.506 52.844c14.716 26.057 30.997 39.361 38.296 44.427l.251 32.019.062 7.45h125.564l.101-7.407.442-31.909c28.994-34.966 29.196-81.08 28.845-91.407l53.084-112.253c7.463-12.41 3.626-28.612-8.681-36.324z"/></svg>