<svg xmlns="http://www.w3.org/2000/svg" viewBox="0 0 512 512"><path d="M101.195 29.148v452.328h308.621V29.148H101.195zm276.69 420.407h-244.74V61.062h244.74v388.493zm-47.68-121.025h-148.09v25.963h148.09V328.53zm0 59.386h-148.09v25.966h148.09v-25.966zM220.474 205.541c.802 2.52 1.241 5.069 1.241 7.621 0 4.116-.767 8.008-2.269 11.738-1.539 3.723-3.468 7.191-5.84 10.398-2.337 3.168-5.084 6.076-8.191 8.762-3.124 2.65-6.279 4.969-9.45 6.932l14.126 20.961c4.399-3.334 8.83-5.556 13.326-6.703 4.463-1.143 8.782-1.73 12.868-1.73 5.021 0 9.222.483 12.557 1.373 3.335.914 6.672 1.99 10.007 3.201 3.205 1.053 6.704 1.966 10.497 2.714 3.794.756 8.602 1.146 14.339 1.146 5.789 0 11.789-1.074 18.037-3.205 6.212-2.092 12.049-5.819 17.527-11.148l-13.67-23.027c-4.104 4.418-7.718 7.166-10.824 8.213-3.107 1.08-6.18 1.602-9.238 1.602-3.023 0-5.999-.258-8.878-.787a180.815 180.815 0 01-8.894-1.96c-3.045-.591-6.019-1.144-8.996-1.702a52.139 52.139 0 00-9.008-.783c-2.141 0-4.333.298-6.623.918-2.255.587-5.231 2.029-8.877 4.314l-.458-.461a70.105 70.105 0 0013.129-13.566c3.696-5.1 5.576-11.217 5.576-18.312 0-2.582-.146-5.039-.343-7.328-.229-2.252-.753-4.547-1.473-6.832h23.938v-19.357h-30.346c-2.258-4.092-4.056-7.621-5.332-10.504-1.31-2.907-2.223-5.428-2.747-7.618-.54-2.19-.883-4.153-1.013-5.82a53.521 53.521 0 01-.263-5.264c0-6.343 2.027-11.442 6.051-15.272 4.021-3.762 9.45-5.654 16.285-5.654 5.788 0 10.317 1.145 13.571 3.531 3.271 2.355 5.707 5.1 7.293 8.305 1.602 3.207 2.648 6.477 3.074 9.942.457 3.366.769 6.246.932 8.502h30.756c0-18.543-4.84-32.671-14.585-42.382-9.712-9.711-23.316-14.584-40.796-14.584-9.565 0-18.003 1.207-25.293 3.664-7.293 2.416-13.377 5.715-18.232 9.906-4.856 4.188-8.552 8.99-11.053 14.453-2.504 5.494-3.778 11.251-3.778 17.332 0 6.834 1.146 13.049 3.402 18.674 2.289 5.656 4.578 9.877 6.868 12.789H194.82v19.357h22.547a73.26 73.26 0 013.107 7.651z"/></svg>