<svg xmlns="http://www.w3.org/2000/svg" viewBox="0 0 512 512"><path d="M429.279 129.662c-6.606-3.19-6.379-31.803-11.872-37.311-6.377-6.379-31.623.209-35.155-7.34-10.529-22.646.164-50.117-45.88-4.074-24.952 24.969-22.628 53.481-12.101 74.083-13.997-7.801-30.02-11.673-46.762-11.673-31.885 0-66.222 13.996-93.265 41.025-41.205 41.203-52.029 99.331-29.303 140.027-20.6-10.562-49.151-12.887-74.133 12.084-46.044 46.062-18.574 35.366 4.087 45.882 7.556 3.516.947 28.775 7.358 35.154 5.493 5.509 34.107 5.281 37.281 11.867 11.64 24.004-4.416 47.715 43.755-.453 24.395-24.416 22.726-52.225 12.752-72.716 14.389 8.456 31.033 12.591 48.399 12.591 31.916 0 66.222-13.979 93.264-41.008 41.728-41.756 52.354-100.885 28.386-141.648 20.503 9.976 48.331 11.661 72.728-12.77 48.17-48.168 24.464-32.113.461-43.72zm-132.05 60.858c-37.508 10.969-62.363 35.237-78.584 58.519-16.154 23.22-23.184 45.178-24.428 49.461-.161.556-.161.718-.161.718a12.523 12.523 0 01-12.067 9.274c-1.079 0-2.125-.13-3.205-.428-6.641-1.764-10.596-8.58-8.864-15.24.23-.812 6.64-24.916 24.724-52.748 17.988-27.761 48.201-59.628 95.619-73.48 6.607-1.943 13.541 1.865 15.435 8.472 1.963 6.605-1.83 13.523-8.469 15.452z"/></svg>