<svg xmlns="http://www.w3.org/2000/svg" viewBox="0 0 512 512"><path d="M454.236 216.826c-15.591-63.937-37.193-130.498-114.285-119.559-29.741 4.225-52.243 21.667-85.431 21.748-27.735.068-49.462-17.447-74.949-21.748-77.019-13-95.274 23.888-117.649 92.658-12.649 38.879-53.044 172.948-7.13 205.048 46.521 32.523 97.305-56.955 132.316-70.582 30.235-11.771 95.289-10.754 125.098-1.759 40.438 12.205 80.27 89.49 125.837 79.315 62.395-13.929 25.631-146.431 16.193-185.121zm-291.233 56.445c-33.544-.006-60.718-27.183-60.722-60.722.004-33.542 27.178-60.717 60.722-60.72 33.541.003 60.715 27.178 60.719 60.72-.004 33.54-27.178 60.717-60.719 60.722zM352.23 162.083c6.938-6.937 18.184-6.937 25.121 0 6.934 6.934 6.933 18.182-.002 25.116-6.938 6.938-18.181 6.938-25.119.003-6.936-6.937-6.936-18.183 0-25.119zm-33.81 58.931c-6.938-6.941-6.938-18.186 0-25.119 6.937-6.938 18.184-6.938 25.12 0 6.935 6.934 6.933 18.178-.002 25.115-6.936 6.934-18.182 6.937-25.118.004zm57.737 32.615c-6.937 6.937-18.183 6.937-25.119 0-6.937-6.935-6.933-18.182.002-25.116 6.937-6.937 18.184-6.94 25.117-.004 6.937 6.938 6.937 18.185 0 25.12zm33.812-33.808c-6.938 6.937-18.183 6.937-25.119 0-6.937-6.938-6.934-18.183.002-25.12 6.937-6.937 18.182-6.937 25.117 0 6.937 6.935 6.937 18.182 0 25.12zm-246.966-42.959c-19.707.04-35.649 15.982-35.684 35.688.034 19.704 15.977 35.649 35.684 35.686 19.702-.037 35.647-15.982 35.684-35.686-.037-19.705-15.982-35.648-35.684-35.688z"/></svg>