<svg xmlns="http://www.w3.org/2000/svg" viewBox="0 0 512 512"><path d="M343.79 180.021c1.014 0 1.954-.093 2.797-.275l1.111-.242-.516-2.883c-.045-1.393-.789-6.567-2.695-7.379-.115-.051-.295-.457-.275-1.055l1.906.18c.566 0 1.056-.326 1.311-.873.432-.933.144-2.631-.586-3.494-.794-.946-2.57-1.431-4.476-1.118-.807-2.108-2.836-3.466-4.664-4.688-.932-.622-1.834-1.224-2.459-1.848 3.16-.108 10.229-.466 10.879-.758l1.539-.694-1.18-1.212c-6.496-6.665-11.006-8.405-13.44-5.826-1.666 1.767-1.539 4.899-1.518 5.252.428 7.448-1.14 14.466-1.324 14.981-.117.326-.436.455-.473.487l-1.821-.075.178 1.39c.841 6.611 9.664 10.13 15.706 10.13zm-34.164-18.001h.389l.509-.068.274-.159-.664-1.196-.119-.218v-.729l-.027.68v-.004l.023-.686-3.81-.136 3.066 2.27zm-17.873 37.322l.355-1.461-3.091-3.306.797 4.925zM256.001 49.523C141.966 49.523 49.522 141.965 49.522 256c0 114.033 92.444 206.477 206.479 206.477 114.031 0 206.474-92.443 206.474-206.477.001-114.035-92.442-206.477-206.474-206.477zm-90.607 94.385v.008l-.006-.008h.006zm60.048 247.681c-.232-.292-23.003-29.392-12.027-45.374 12.257-17.84-2.672-43.402-3.314-44.482-2.844-4.786-12.303-17.378-16.754-17.378l-.58.044c-.246 0-.292-.076-.338-.156-.475-.805-.19-3.973 2.604-9.045l.967-1.756h-2c-.208 0-.208 0-20.037 6.019-4.506 1.369-8.346 1.604-12.061 1.834-3.543.218-7.211.445-11.336 1.654-.971.284-1.971.428-2.979.428-9.906 0-18.566-13.654-18.656-13.792-3.553-5.688-6.352-10.332-6.816-11.161-.106-1.836-1.068-5.271-1.342-5.839-.498-1.025-1.238-7.459-1.312-15.608-.002-.173.068-17.556 16.75-28.448 7.695-5.375 12.369-13.532 12.566-13.877 3.438-6.072 12.137-12.292 18.795-13.561l20.973-.294.404-.077c6.041-2.296 13.619-4.002 15.385-4.205.047.26.053.628.006.846a1.725 1.725 0 00-.488 1.063c-.072.704.224 1.514.822 2.273l.002.269c-.019.459-.25.85-.626 1.447-.426.675-.955 1.515-1.024 2.714-.046 6.004 14.967 9.566 17.979 10.219 5.255 1.141 10.645 1.877 13.725 1.877 1.66 0 2.291-.211 2.648-.396l.67-.345-.045-1.195c.014-.734.033-1.624.02-2.115l.074-2.598c2.199-.284 4.523-.373 5.984-.428.832-.032 1.42-.063 1.502-.086.695.002 5.861 1.029 13.705 2.938l11.553 3.309.309.047c6.21.073 11.542.48 13.008.698l.127.198 1.305-.001.35-.544c.334-.525.195-.935-.133-1.664.066-1.469 1.258-9.829 2.582-12.679.383-.833.383-1.685-.008-2.464-1.127-2.257-5.168-3.283-9.566-4.221-.482-.102-.91-.192-1.248-.272-2.754-.653-9.616-1.069-12.29-1.069-.332 0-.615.007-.835.02-.983.055-1.784.044-2.183.015-.484-.562-1.5-1.51-3.631-3.431l-.918-.833c-.324-.296-.388-.546-.476-.5a.72.72 0 01.236-.093l.861-.219.084-2.53-.006-.444a1.268 1.268 0 00-.457-1.006c.773-.2 1.562-.48 2.303-.818.309-.051.627-.079.955-.079l.327.009c3.221.188 11.396.335 18.613.335l1.221-.015 13.857-2.1c5.042.284 7.865-.594 8.477-2.562.461-1.478-.486-3.042-2.807-4.646-4.26-2.945-3.951-6.436-3.713-7.002a1.534 1.534 0 00-.125-1.469c-.482-.724-1.518-1.047-3.363-1.047-1.424 0-3.08.213-4.213.541-1.895.548-3.176 1.914-3.047 3.248.025.321.135.609.309.855a6.43 6.43 0 01-.49.118 7.113 7.113 0 01-1.367.114c-1.873 0-3.475-.459-3.869-.778a3.096 3.096 0 01-.528-.545l.276-.115-.192-.956c-.15-.771-.283-1.436-8.291-1.436-3.139 0-3.811.269-4.205.91-.432.693-.763 1.691-.863 2.354-.506.705-2.715 3.347-6.075 7.092l-.306.433.076 2.775.131.691.035.021c-.292.258-.801.61-1.553.979a9.772 9.772 0 00-2.474.875c-.823.187-1.551.251-2.193.175a23.956 23.956 0 00-2.901-.18c-2.238 0-3.428.257-4.072.574-.11-.028-.236-.064-.369-.1-.98-.263-2.162-.517-2.902-.166a1.878 1.878 0 00-1.069 1.527c-.097.929.398 1.863.956 2.46l-.09.167.19.557c.158.472.777 1.528 1.633 2.324a4.519 4.519 0 01-.418.162c-.206-.268-.504-.403-.883-.403h-.531l-.352.396c-.375.422-.375.422-.092 2.918-.037.142-.734.645-2.512.645-.312 0-.635-.016-.969-.049l-.018-2.027.008-.318c.623-.886.799-1.811.465-2.533a1.489 1.489 0 00-1.055-.852c-.835-.478-4.818-3.512-10.539-8.281l-3.469-3.381c-5.422-4.261-12.086-7.467-13.758-7.467l-.505.082c-.512.181-1.715.705-1.799 1.689l-.035.812.039.021c-.164.493.02.938.206 1.316.602 1.225 3.07 4.974 6.408 6.098 2.318.781 4.01 1.457 4.896 1.87l-.717 1.629 1.078.479a56.804 56.804 0 014.228 2.07c-.337.293-.617.614-.792.92-.387.656-.32 1.196-.19 1.538-.109.581-1.018 2.155-1.527 2.614-.301.27-.852.524-1.206.654-1.097-1.044-3.671-3.373-5.98-5.451.236.113.471.229.691.343l1.084-2.106c-1.67-.874-3.663-2.188-5.77-3.58-5.156-3.408-11-7.268-15.928-7.268-1.087 0-2.103.189-3.018.564-7.373 3.026-11.474 5.302-12.224 6.785l-.084-.039c-.346.735-3.801 5.08-5.777 6.097-.045.024-4.461 2.315-4.65 3.964-.375.49-1.422 1.642-3.266 3.371-2.186 2.052-3.371 3.166-4.002 3.842l-2.984.177-.414.103c-2.488 1.115-6.631 1.806-9.047 1.806-1.039 0-1.386-.128-1.419-.142a59.25 59.25 0 01-2.875-1.255l.107-1.079c.148-1.727-.506-3.323-.904-4.044 0-.964.4-4.798.816-6.656.369-1.642 7.635-11.619 13.105-11.633l2.09-.003c4.457 0 7.678.033 8.568.051l.15.101 1.607-.363-.139-.774a5.34 5.34 0 00.162-.383c.117-.314.26-.708-.727-2.48-.692-1.25-2.594-4.217-5.25-4.768a125.85 125.85 0 01-2.895-.639c.588-.274 1.25-.481 1.902-.481h.004l.266.003c2.006 0 3.957-.617 4.744-1.503.115-.131.201-.263.262-.387.724-.357 2.757-1.079 4.29-1.622 2.052-.729 4.175-1.482 5.548-2.111 2.016-.925 5.941-2.957 9.742-4.924a616.96 616.96 0 015.49-2.824c4.061-2.059 6.584-5.476 7.08-7.244.18-.648.133-1.199-.057-1.442-.072-.608.971-2.86 2.039-3.11 1.186-.271 2.729.627 2.953.839.027.032.056.067.08.103a23.73 23.73 0 01-.82 1.213c-.299.178-.533.439-.6.84-.463.668-1.193 1.783-1.252 2.285l-.062.539.734.804h.531c.367 0 .81-.185 1.174-.46.26.204 1.037.732 4.412.732.555 0 2.447-.021 3.43-.306.5-.146.91-.215 1.184-.235 1.557.867 5.029 1.086 5.773 1.086 1.187 0 2.324-.132 3.383-.392 3.463-.855 6.215-1.384 6.97-1.489h.217c.346 0 8.604-1.759 10.45-4.471.939-1.381 3.713-1.935 5.203-2.233.44-.086.797-.161 1.024-.229 1.244-.367 2.645-2.218 2.432-3.682a2.03 2.03 0 00-.061-.282c1.193-.28 2.697-.615 4.176-.943 3.391-.755 3.732-2.383 3.631-3.286-.23-2.136-3.377-3.685-7.586-3.685l-.582.002c-3.869 0-6.904-.275-8.205-.464a4.306 4.306 0 00-.354-.501c.004-.246.029-.67.074-1.039.692-.425 2.663-1.267 4.143-1.9.879-.377 1.779-.764 2.604-1.133 1.822-.816 1.97-1.949 1.898-2.552-.299-2.408-5.061-3.759-9.006-4.469l-1.356-.243-.138 4.775c-.768.651-3.25 2.386-6.184 3.69-2.371 1.058-3.869 2.739-4.098 4.611-.17 1.402.369 2.754 1.537 3.86-.093.314-.658.5-1.892.793-1.73.412-4.621 1.101-4.594 4.432l-.03.784c-.602.626-2.175 1.841-4.201 2.448-1.677.502-3.635.813-5.115.813-.439 0-.732-.028-.914-.059a5.887 5.887 0 01-.113-.863l-.02-.003c.02-1.521-2.977-4.129-3.01-4.158a4.242 4.242 0 01-.807-.912l-.01-.115c-.063-.734-.631-1.056-1.418-1.5-.148-.083-.287-.157-.338-.189l-.471-.291h-.424c-.436 0-1.154.126-2.615.388-1.549.278-3.666.659-5.438.813-2.276.196-5.004.186-5.568.135-.496-.229-.768-.142-1.106-.12a9.662 9.662 0 00-.236-.817c-.341-1.055-.912-2.82-.332-3.883.268-.487.79-.826 1.596-1.037 5.193-1.353 7.187-2.109 7.936-2.688.342-.157 1.041-.442 1.955-.822 3.092-1.28 8.268-3.424 11.809-5.368 3.949-2.168 5.75-4.039 5.359-5.564a1.875 1.875 0 00-.078-.229c.781-.377 1.742-.758 2.441-.868 1.413-.224 2.375-.422 2.909-.79.684-.22 2.32-.672 3.049-.721.826-.056 1.68-.111 2.191-.478.524-.126 1.577-.326 2.231-.375.5-.035.947-.004 1.199.029l.141.143h.539c.498 0 2.469-.302 3.254-.549.176-.055.328-.078.477-.085l.635.116c.226 0 .424-.052 1.137-.248.691-.189 1.975-.541 2.545-.567.547-.024 1.504-.067 1.861-.791.846-.275 2.482-.659 4.176-.531 1.361.102 2.373.354 2.951.554l.209.765h1.079c.476 0 2.099-.096 2.863-.384.138-.053.346-.092.57-.108l.908.103c.24 0 .482-.064 1.004-.203.652-.172 1.74-.46 2.496-.462.686.29 1.805.339 3.562.387l.398.012-.011.097c-.141 1.278-.15 1.354 12.309 4.136 6.947 1.552 14.48 3.403 17.881 4.454-2.51 1.229-3.963.988-4.047.976-3.247-.661-5.943-1.011-7.803-1.011-1.829 0-2.809.314-3.283 1.048-.293.45-.331.998-.104 1.502.73 1.627 5.799 3.831 7.762 3.851.402 0 1.461 0 1.746-.962a1.15 1.15 0 00.026-.653c1.291.113 2.757.296 3.695.412l.781.096c1.352.147 3.071-.342 3.575-1.422.01-.021.016-.04.025-.06.741-.153 2.19-.351 4.092-.509.689-.057 1.764-.062 2.755-.066.981-.008 1.885-.016 2.338-.062.695-.071 1.283-.488 1.609-1.146.109-.222.187-.465.234-.72l2.006.949c7.02 3.318 10.662 2.497 10.662 2.498 5.983-1.088 10.932-1.795 12.139-1.942 2.584 1.514 9.273 2.642 9.355 2.655 3.52.537 10.846 2.48 16.73 4.419 25.562 18.122 46.281 42.632 59.82 71.191 5.715 14.427 10.215 28.498 13.507 39.947a182.401 182.401 0 013.557 25.513 44.007 44.007 0 01-1.693-4.689c-1.981-6.642-4.273-7.359-5.167-7.359l-.299.014a5.948 5.948 0 01-1.348-.195l-.193-.365h-.75c-.572 0-.947.36-1.281.678-.062.062-.129.129-.194.186-.652.205-2.478 1.527-10.341 10.058-.135.147-3.312 3.65-3.205 8.284l-.062 4.611c.007 4.795-1.358 10.466-2.383 12.413-.781-.688-2.518-3.357-4.33-9.029l-3.549-7.247c-1.459-7.048-2.707-16.872-2.782-18.437-.18-4.03-1.318-4.002-1.791-4.03-.553.017-.667.139-2.076 1.619-.355.377-.721.76-.986 1.021a1.712 1.712 0 01-.234.013c-1.271 0-2.895-.663-3.119-1.047-.192-.365.259-.936.742-1.489a6.61 6.61 0 00.303-.362l.326-.49-.07-.495c-.121-.809-.827-1.356-3.049-2.97-1.455-1.057-3.451-2.503-3.982-3.355-1.471-2.344-6.963-5.095-9.014-5.095h-.002c-.028.001-2.164.132-3.395.544-1.467-.356-8.187-2.513-11.376-4.102-2.875-1.434-7.975-2.358-12.996-2.358-1.334 0-2.604.065-3.78.197l-4.996-4.898c-.702-.732-1.178-1.772-1.682-2.874-1.086-2.373-2.439-5.325-6.719-5.486l-.271-.002c-2.528 0-4.153.71-4.829 2.111-1.146 2.377 1.223 5.468 1.502 5.813 3.119 3.925 7.949 8.614 10.177 9.674.045.363.059.814 0 1.029-.273 1.024.76 2.517 1.213 3.11.678.879 2.52 2.926 5.051 2.924 1.195 0 2.34-.453 3.4-1.348 2.753-2.324 4.998-3.304 5.982-3.561.902 1.846 3.498 5.077 5.15 6.238 2.059 1.447 3.037 2.134 3.568 2.459.297.375.543.664.751.887-.775 2.297-4.898 11.237-10.072 13.71-3.84 1.836-10.014 4.902-11.668 6.406l-.023-.03c-.838.585-11.709 5.775-16.053 7.455-3.771 1.46-7.484 2.332-8.896 2.332-.053 0-.096-.003-.129-.004-.792-.924-3.133-5.728-5.646-12.715-.521-1.46-2.271-6.285-2.75-7.088-4.039-6.768-5.311-8.555-5.36-8.627l-1.353-1.885c-4.114-5.74-9.749-13.598-11.473-16.533-1.891-3.205-3.111-6.761-3.133-7.297l.133-.719-.719-.876h-.564c-.861 0-1.002.319-2.006 2.778-.967-.027-2.863-.842-3.469-1.842-.217-.358-.621-1.025-1.392-1.025l-.657.02-.352.506c-.373.533-.724 1.036 2.823 10.695.058.157 1.46 3.941 5.593 11.412 1.699 3.07 2.801 6.34 3.963 9.801 1.019 3.031 2.074 6.164 3.562 9.125 1.139 2.263 2.775 4.331 4.355 6.332 1.797 2.27 3.492 4.416 4.384 6.691.336.842.428 1.773.53 2.762.125 1.246.253 2.537.879 3.762 2.641 5.203 7.177 7.952 13.119 7.952 5.172 0 9.588-2.065 9.773-2.153 5.461-2.585 9.379-4.007 11.17-4.438-1.025 16.225-20.637 33.969-29.051 41.587-15.787 13.314-12.787 19.712-12.388 20.397 3.566 6.197 6.414 16.89 6.187 19.112-.16 1.589-4.835 5.701-12.093 8.785-.334.14-8.192 3.583-8.598 12.853l-.133 12.396c-4.287 2.437-11.787 7.906-17.18 12.555l-.344.296-.641 4.974c-6.941 3.004-21.768 5.949-25.152 6.018l-.072 1.172v-1.171c-3.067-.006-9.522-3.998-14.23-9.938z"/></svg>