<svg xmlns="http://www.w3.org/2000/svg" viewBox="0 0 512 512"><path d="M235.567 264.973c-1.914 1.523-3.401 3.427-4.498 5.698-1.08 2.251-1.636 4.907-1.636 7.976 0 4.806 1.537 8.521 4.595 11.158 3.058 2.613 8.094 4.742 15.092 6.337V260.49c-2.483 0-4.905.363-7.228 1.095-2.32.731-4.447 1.853-6.325 3.388zm44.718 73.703c-3.581-2.836-9.647-5.42-18.249-7.748v41.975c2.618-.275 5.364-.902 8.177-1.848 2.861-.952 5.396-2.292 7.686-4.051 2.239-1.737 4.087-3.898 5.56-6.444 1.454-2.555 2.189-5.582 2.189-9.077-.001-5.682-1.8-9.96-5.363-12.807zm44.05-165.904l.031.027c-.097-.108-.163-.213-.261-.319a667.29 667.29 0 00-12.46-16.761c-5.396-9.025-8.239-20.006-1.637-35.849v-.009l22.78-54.505-35.76-16.298 3.662-16.156h-89.832l4.709 20.585-36.787 11.869 22.761 54.505v.009c11.265 26.945-4.858 39.813-14.326 52.928-46.859 64.796-99.312 157.564-99.312 213.49 0 92.734 72.025 89.646 167.889 89.646 95.85 0 167.891 3.088 167.891-89.646-.001-55.934-52.504-148.702-99.348-213.516zm-91.106-45.504h45.846v28.931h-45.846v-28.931zm81.066 237.654c-1.602 4.901-4.479 9.67-8.633 14.328-4.154 4.678-9.744 8.83-16.745 12.479-6.998 3.644-15.958 5.826-26.881 6.554v18.602H249.12v-18.602c-16.335-1.161-29.104-6.195-38.277-15.098-9.206-8.893-14.52-21.934-15.974-39.154h30.839c-.134 8.334 2.057 14.879 6.57 19.697 4.512 4.807 10.14 7.869 16.842 9.174v-45.697c-.734-.303-1.715-.627-2.959-.99a47.127 47.127 0 00-4.039-.984 178.976 178.976 0 01-15.958-5.135c-5.265-1.965-9.973-4.604-14.125-7.873-4.155-3.28-7.473-7.379-9.945-12.247-2.482-4.89-3.727-10.974-3.727-18.267 0-7.436 1.424-14 4.284-19.684 2.843-5.693 6.573-10.465 11.25-14.333 4.676-3.859 10.072-6.842 16.187-8.965 6.133-2.112 12.459-3.385 19.032-3.828v-16.842h12.916v16.842c6.543.731 12.706 2.158 18.479 4.266 5.737 2.127 10.806 5.028 15.204 8.75 4.349 3.714 7.946 8.356 10.694 13.878 2.779 5.572 4.383 12.123 4.807 19.689h-31.049c-.149-5.82-1.98-10.791-5.463-14.861-3.516-4.089-7.734-6.132-12.673-6.132v38.714c1.736.447 3.52.884 5.364 1.312 1.799.442 3.745.938 5.788 1.537 10.791 2.908 19.1 6.522 24.919 10.824 5.82 4.299 10.138 8.779 12.917 13.447 2.763 4.683 4.398 9.347 4.921 14.004.507 4.67.77 8.813.77 12.475.001 3.191-.817 7.247-2.419 12.12z"/></svg>