<svg xmlns="http://www.w3.org/2000/svg" viewBox="0 0 512 512"><path d="M255.169 37.716c120.399 0 217.999 97.602 217.999 217.999 0 120.394-97.6 217.996-217.999 217.996-120.397 0-217.998-97.603-217.998-217.996 0-120.398 97.601-217.999 217.998-217.999m0 66.173c-83.716 0-151.826 68.108-151.826 151.826 0 83.715 68.11 151.826 151.826 151.826s151.826-68.111 151.826-151.826c0-83.718-68.11-151.826-151.826-151.826zm39.456 219.541l-58.234-60.113V142.313c0-10.371 8.405-18.775 18.779-18.775 10.371 0 18.78 8.405 18.78 18.775l-.005 105.793 47.654 49.194c7.217 7.447 7.03 19.334-.424 26.553a18.716 18.716 0 01-13.064 5.289 18.706 18.706 0 01-13.486-5.712z"/></svg>