<svg xmlns="http://www.w3.org/2000/svg" viewBox="0 0 512 512"><path d="M463.605 239.344L272.661 48.379c-4.545-4.572-10.562-6.851-16.547-6.851-5.983 0-12.032 2.279-16.577 6.851L48.59 239.344c-9.153 9.147-9.153 23.982 0 33.127l190.947 190.963c4.545 4.581 10.562 6.867 16.577 6.867a23.284 23.284 0 0016.547-6.877l190.944-190.953c9.161-9.145 9.161-23.98 0-33.127zm-15.856 17.269L256.803 447.557c-.1.1-.292.283-.688.283-.424 0-.618-.184-.718-.273L64.451 256.613a.99.99 0 010-1.41L255.396 64.261c.1-.09.294-.297.718-.297.396 0 .589.198.688.297l190.946 190.942c.096.083.294.292.294.712.001.403-.197.591-.293.698zm-349.388-.697l157.753 157.747 157.722-157.747L256.114 98.155 98.361 255.916z"/></svg>