<svg xmlns="http://www.w3.org/2000/svg" viewBox="0 0 512 512"><path d="M157.138 286.452h198.237c35.547 0 64.291-28.815 64.291-64.314 0-28.793-18.901-53.122-44.932-61.33a78.517 78.517 0 002.485-19.539c0-42.575-34.501-77.077-77.077-77.077-32.016 0-59.452 19.509-71.094 47.288-10.039-11.773-24.918-19.229-41.597-19.229-30.12 0-54.516 24.424-54.516 54.541 0 5.187.72 10.188 2.06 14.945-24.623 9.011-42.151 32.654-42.151 60.401.001 35.499 28.748 64.314 64.294 64.314zm237.804 111.017h-2.679l1.896-1.896c4.187-4.202 4.187-11.037 0-15.236-4.218-4.202-11.054-4.202-15.24 0l-1.896 1.896v-2.682c0-5.951-4.843-10.796-10.791-10.796-5.952 0-10.794 4.845-10.794 10.796v2.682l-1.897-1.896c-4.183-4.202-11.021-4.202-15.237 0-4.188 4.199-4.188 11.034 0 15.236l1.896 1.912h-2.68c-5.951 0-10.761 4.828-10.761 10.763 0 5.969 4.81 10.788 10.761 10.788h2.68l-1.896 1.897c-4.188 4.204-4.188 11.038 0 15.24 2.093 2.108 4.872 3.155 7.65 3.155 2.748 0 5.496-1.047 7.587-3.155l1.897-1.894v2.678c0 5.949 4.842 10.777 10.794 10.777 5.948 0 10.791-4.828 10.791-10.777v-2.678l1.896 1.894c2.092 2.108 4.84 3.155 7.62 3.155 2.745 0 5.495-1.047 7.62-3.155 4.187-4.202 4.187-11.036 0-15.24l-1.896-1.912h2.679a10.748 10.748 0 0010.761-10.773c0-5.936-4.807-10.779-10.761-10.779zm-217.857 0h-2.649l1.896-1.896c4.188-4.202 4.188-11.037 0-15.236-4.218-4.218-11.054-4.218-15.27 0l-1.896 1.896v-2.682c0-5.951-4.809-10.796-10.76-10.796-5.953 0-10.759 4.845-10.759 10.796v2.682l-1.93-1.896c-4.219-4.218-11.054-4.218-15.238 0-4.218 4.199-4.218 11.034 0 15.236l1.896 1.912h-2.683c-5.951 0-10.793 4.828-10.793 10.78 0 5.951 4.842 10.756 10.793 10.756h2.683l-1.896 1.912c-4.218 4.204-4.218 11.038 0 15.24a10.776 10.776 0 007.618 3.155c2.779 0 5.527-1.047 7.62-3.155l1.93-1.91v2.694a10.75 10.75 0 0010.759 10.762c5.951 0 10.76-4.812 10.76-10.762v-2.694l1.896 1.91a10.776 10.776 0 007.618 3.155c2.78 0 5.526-1.047 7.651-3.155 4.188-4.202 4.188-11.036 0-15.24l-1.929-1.912h2.682c5.952 0 10.793-4.805 10.793-10.756.001-5.953-4.84-10.796-10.792-10.796zm110.957-54.885h-2.681l1.896-1.902c4.22-4.198 4.22-11.016 0-15.236a10.755 10.755 0 00-15.238 0l-1.898 1.912v-2.699c0-5.951-4.838-10.772-10.793-10.772-5.916 0-10.756 4.821-10.756 10.772v2.683l-1.93-1.896c-4.188-4.219-11.022-4.219-15.241 0-4.185 4.221-4.185 11.038 0 15.236l1.932 1.902h-2.683c-5.95 0-10.791 4.821-10.791 10.774 0 5.949 4.841 10.786 10.791 10.786h2.683l-1.932 1.896c-4.185 4.188-4.185 11.037 0 15.242 2.125 2.09 4.874 3.157 7.653 3.157 2.746 0 5.527-1.067 7.588-3.157l1.93-1.912v2.698c0 5.967 4.84 10.789 10.756 10.789 5.955 0 10.793-4.822 10.793-10.789v-2.698l1.898 1.912a10.796 10.796 0 007.62 3.157c2.777 0 5.491-1.067 7.618-3.157 4.22-4.205 4.22-11.054 0-15.242l-1.896-1.896h2.681c5.951 0 10.794-4.837 10.794-10.786 0-5.953-4.843-10.774-10.794-10.774z"/></svg>