<svg xmlns="http://www.w3.org/2000/svg" viewBox="0 0 512 512"><path d="M424.213 254.91a12.017 12.017 0 00-.209-2.057c-.025-.129-.059-.256-.09-.385-.059-.25-.102-.5-.174-.746L373.297 82.35a11.833 11.833 0 00-11.346-8.457H150.047a11.836 11.836 0 00-11.346 8.457L88.26 251.723c-.074.246-.117.496-.176.746-.031.129-.064.256-.09.385a11.82 11.82 0 00-.209 2.057c0 .064-.018.125-.018.191V426.27c0 6.535 5.299 11.838 11.838 11.838h312.787c6.539 0 11.838-5.303 11.838-11.838V255.102c.001-.067-.017-.127-.017-.192zM158.875 97.57h194.248l43.389 145.689H115.487L158.875 97.57zm14.405 50.961h165.439v29.455H173.28zm12.029-39.119H326.69v18.939H185.309zm-27.373 88.492h196.127v33.816H157.936z"/></svg>