<svg xmlns="http://www.w3.org/2000/svg" viewBox="0 0 512 512"><path d="M479.66 204.083a8.79 8.79 0 00-8.334-6.057H311.987L262.668 46.552a8.79 8.79 0 00-8.329-6.05 8.769 8.769 0 00-8.332 6.038l-49.596 151.486H37.348a8.783 8.783 0 00-8.333 6.05 8.797 8.797 0 003.171 9.801l128.717 93.759-49.595 152.322a8.787 8.787 0 003.177 9.803 8.786 8.786 0 0010.301 0l129.542-94.046 129.276 94.046a8.743 8.743 0 0010.304 0 8.752 8.752 0 003.186-9.803L347.49 307.64l128.987-93.756a8.79 8.79 0 003.183-9.801z"/></svg>