<svg xmlns="http://www.w3.org/2000/svg" viewBox="0 0 512 512"><path d="M466.371 366.898c-14.189-14.205-38.258-20.553-58.797-26.98-27.11-8.479-37.442-28.627-40.518-48.59a185.21 185.21 0 008.701-10.727c17.723 5.673 39.012 7.324 57.195-5.873-25.051-25.078-4.938-55.821-23.058-111.266-15.402-47.107-78.516-44.766-86.659-28.223-33.452-11.834-58.73 4.01-68.018 53.926-10.696 57.31 10.04 63.362-15.076 88.443 19.261 10.989 36.92 8.308 52.225 2.224a173.555 173.555 0 009.418 11.676c-3.074 19.898-13.443 39.962-40.451 48.41-20.537 6.428-44.606 12.775-58.801 26.98-11.214 11.201-3.759 38.02-3.759 38.02h271.326c.002 0 7.491-26.818-3.728-38.02zm-276.621-5.31c14.159-14.145 36.299-20.945 55.854-26.951 2.024-.617 4.022-1.24 5.981-1.863 8.243-2.567 15.078-6.475 20.536-11.72-6.536-2.783-12.981-5.512-19.162-8.048-4.446-1.209-8.96-2.435-13.471-3.676-5.362-3.682-10.597-15.942-13.475-22.043-2.878-.392-5.722-.818-8.567-1.226.457-9.437 6.277-9.944 8.567-17.151 2.029-6.343.197-14.618 3.434-20.505 1.864-3.451 5.757-4.038 8.438-6.226-.031-.494-.099-.985-.132-1.492-.816-10.367-1.863-24.198 1.345-45.322-.034-.163-.034-.311-.069-.476-.652-5.982 1.768-25.442 1.866-29.642.226-10.911-.033-11.808-2.649-22.435 0 0-3.236-9.63-8.24-12.539l-10.038-1.734-6.183-5.74c-24.986-15.352-51.733-4.564-66.092 1.239-20.634 6.691-33.683 26.912-24.557 70.131 1.538 7.39-4.088 10.689-3.697 14.714.817 8.799.983 29.97 9.288 35.188.783.477 6.671 1.96 6.638 1.568.819 8.57 1.637 17.153 2.453 25.72 2.062 5.691 7.064 6.331 8.503 14.375l-6.343 1.551c-2.881 6.101-8.145 18.361-13.509 22.043a2053.08 2053.08 0 01-13.472 3.676c-15.764 6.475-25.77 14.197-41.53 20.836-14.355 6.062-31.558 8.22-36.759 23.283 0 10.234-.945 34.385-.686 47.793h149.544c-1.763-7.422-6.112-31.004 6.184-43.328z"/></svg>