<svg xmlns="http://www.w3.org/2000/svg" viewBox="0 0 512 512"><path d="M105.982 434.072V67.443h141.611c37.199 0 19.274 88.184 19.274 88.184s86-20.906 87.106 18.527v119.035a95.55 95.55 0 0125.039 3.719V141.064l-91.327-91.326-7.335-7.337H80.943v416.707H286.75a96.627 96.627 0 01-19.14-25.036H105.982zm208.164-46.092c0 20.791 16.912 37.703 37.704 37.703 7.419 0 14.326-2.186 20.166-5.901l-51.97-51.971c-3.714 5.839-5.9 12.746-5.9 20.169zm37.705-37.706c-7.423 0-14.33 2.187-20.173 5.903l51.974 51.967c3.716-5.84 5.901-12.748 5.901-20.164 0-20.792-16.915-37.706-37.702-37.706zm-.152-39.592c-43.354 0-78.498 35.15-78.498 78.51 0 43.354 35.145 78.498 78.498 78.498 43.359 0 78.506-35.145 78.506-78.498 0-43.36-35.146-78.51-78.506-78.51zm.152 131.455c-29.909 0-54.156-24.246-54.156-54.156 0-29.913 24.247-54.158 54.156-54.158 29.907 0 54.152 24.245 54.152 54.158 0 29.91-24.245 54.156-54.152 54.156z"/></svg>