<svg xmlns="http://www.w3.org/2000/svg" viewBox="0 0 512 512"><path d="M434.567 107.615l34.897-34.901-32.369-32.37L402.2 75.247l-36.534-36.534v105.984h105.98l-37.079-37.082zm37.081 259.313H365.663v105.979l37.081-37.077 34.897 34.9 32.372-32.369-34.898-34.9 36.533-36.533zM73.187 403.997l-34.901 34.901 32.372 32.371 34.898-34.901 36.537 36.539V366.92H36.113l37.074 37.077zm68.907-259.306V38.713l-37.078 37.079-34.905-34.903L37.748 73.25l34.901 34.906-36.537 36.535h105.982zM386.4 300.484v-86.92c0-35.999-29.179-65.172-65.171-65.172H185.522c-35.992 0-65.171 29.173-65.171 65.172v86.92c0 35.99 29.179 65.164 65.171 65.164h135.707c35.993 0 65.171-29.173 65.171-65.164z"/></svg>