<svg xmlns="http://www.w3.org/2000/svg" viewBox="0 0 512 512"><path d="M180.938 166.79V83.688h268.261v83.102H180.938zm-.003 131.001v-83.098h268.264v83.098H180.935zm.003 131.005v-83.1h268.261v83.1H180.938zM65.94 107.674V95.645c5.566-.25 9.463-.621 11.689-1.119 3.544-.782 6.433-2.354 8.659-4.713 1.524-1.609 2.679-3.761 3.463-6.448.454-1.61.68-2.809.68-3.594h14.758v89.908H87.084v-62.005H65.94zm-.683 176.947c2.521-5.994 8.474-12.338 17.858-19.038 8.142-5.827 13.413-10.002 15.811-12.523 3.679-3.927 5.519-8.226 5.519-12.897 0-3.804-1.055-6.964-3.162-9.49-2.109-2.518-5.126-3.778-9.054-3.778-5.375 0-9.032 2.005-10.975 6.013-1.117 2.314-1.777 5.995-1.984 11.038H62.094c.29-7.648 1.676-13.828 4.16-18.541 4.717-8.97 13.096-13.454 25.138-13.454 9.518 0 17.09 2.633 22.719 7.904 5.626 5.271 8.441 12.246 8.441 20.925 0 6.656-1.988 12.567-5.964 17.734-2.609 3.433-6.895 7.256-12.86 11.474l-7.083 5.021c-4.431 3.144-7.464 5.417-9.097 6.823a19.99 19.99 0 00-4.124 4.897h39.251v15.564H61.102c.166-6.449 1.552-12.342 4.155-17.672zm12.589 117.477c0 3.598.577 6.574 1.731 8.93 2.144 4.34 6.042 6.512 11.691 6.512 3.464 0 6.485-1.187 9.062-3.565 2.578-2.377 3.868-5.796 3.868-10.263 0-5.91-2.391-9.859-7.171-11.844-2.722-1.115-7.008-1.675-12.858-1.675v-12.647c5.726-.084 9.721-.64 11.988-1.674 3.914-1.737 5.869-5.251 5.869-10.541 0-3.433-.999-6.224-2.998-8.374-2.001-2.147-4.816-3.223-8.443-3.223-4.164 0-7.226 1.325-9.184 3.968-1.959 2.647-2.896 6.18-2.813 10.605H62.094c.165-4.466.929-8.703 2.292-12.713 1.445-3.514 3.716-6.759 6.814-9.734 2.311-2.107 5.058-3.72 8.236-4.839 3.18-1.115 7.083-1.672 11.708-1.672 8.589 0 15.517 2.222 20.782 6.665 5.265 4.444 7.896 10.408 7.896 17.889 0 5.293-1.57 9.759-4.711 13.395-1.985 2.275-4.052 3.824-6.201 4.651 1.613 0 3.928 1.384 6.944 4.153 4.505 4.175 6.76 9.879 6.76 17.115 0 7.605-2.633 14.292-7.897 20.058-5.268 5.766-13.061 8.648-23.384 8.648-12.72 0-21.56-4.152-26.513-12.463-2.603-4.421-4.048-10.208-4.337-17.362h17.363z"/></svg>