<svg xmlns="http://www.w3.org/2000/svg" viewBox="0 0 512 512"><path d="M97.856 49.524v412.951h316.287V49.524H97.856zM385.038 433.37H126.962V78.631h258.076V433.37zm-233.226-25.036h208.375v-137.86H151.812v137.86zm49.329-93.135c0-6.538 5.303-11.839 11.842-11.839 6.537 0 11.838 5.301 11.838 11.839v7.104h69.33v-7.104c0-6.538 5.303-11.839 11.842-11.839 6.537 0 11.838 5.301 11.838 11.839v18.942c0 6.538-5.301 11.838-11.838 11.838h-93.01c-6.539 0-11.842-5.301-11.842-11.838v-18.942zm-49.329-211.533v140.762h208.375V103.666H151.812zm166.018 63.145c0 6.54-5.301 11.84-11.838 11.84h-93.01c-6.539 0-11.842-5.301-11.842-11.84V147.87c0-6.539 5.303-11.841 11.842-11.841 6.537 0 11.838 5.302 11.838 11.841v7.102h69.33v-7.102c0-6.539 5.303-11.841 11.842-11.841 6.537 0 11.838 5.302 11.838 11.841v18.941z"/></svg>