<svg xmlns="http://www.w3.org/2000/svg" viewBox="0 0 512 512"><path d="M454.212 145.442l-87.051-87.068c-9.419-9.421-24.723-9.421-34.173.031l-73.154 73.186 121.193 121.194 73.185-73.183c9.453-9.423 9.453-24.728 0-34.16zM149.63 241.731L270.888 362.96l92.514-92.531-121.192-121.21-92.58 92.512zm73.219 20.868c-4.872 4.868-12.822 4.868-17.724 0-4.94-4.907-4.94-12.855 0-17.777 4.902-4.907 12.853-4.907 17.724 0 4.905 4.921 4.905 12.869 0 17.777zm67.333-13.019c4.904-4.907 12.852-4.907 17.757 0 4.904 4.906 4.904 12.854 0 17.754-4.905 4.906-12.853 4.906-17.757 0-4.872-4.9-4.872-12.848 0-17.754zm-22.403 57.909c-4.871 4.908-12.852 4.908-17.756 0-4.904-4.883-4.904-12.846 0-17.754 4.904-4.905 12.885-4.905 17.756 0 4.907 4.909 4.907 12.871 0 17.754zm-4.773-102.825a12.523 12.523 0 01.035 17.755c-4.908 4.89-12.886 4.89-17.759 0-4.906-4.907-4.906-12.85 0-17.755 4.873-4.905 12.851-4.905 17.724 0zM58.816 332.561c-9.419 9.431-9.419 24.734.034 34.157l87.02 87.07c9.45 9.415 24.754 9.415 34.204 0l73.188-73.208-121.226-121.226-73.22 73.207z"/></svg>