<svg xmlns="http://www.w3.org/2000/svg" viewBox="0 0 512 512"><path d="M472.785 159.34l-4.563-9.12c-1.861-3.792-5.156-7.863-9.981-10.671-4.807-2.838-10.817-4.321-17.711-4.31-10.153.05-22.687 3.341-38.204 11.038l-133.889 63.166 57.259 32.088 147.089-82.191zM63.891 329.726l-.184.089c-8.903 4.719-15.864 9.744-20.75 16.609-4.913 6.867-6.78 15.089-6.719 23.229-.036 15.059 3.896 30.975 15.806 42.961 11.913 11.986 30.389 18.556 55.65 18.519l.825.001c25.365.002 44.087-9.187 55.192-23.832 11.225-14.671 15.03-32.854 16.747-50.711 1.109-12.717 1.812-22.076 4.063-28.498 2.301-6.344 5.209-10.687 13.945-16.396l26.585-14.879-45.371-25.424-115.789 58.332zm67.699 58.596c-23.329 12.497-52.377 3.716-64.871-19.613l84.477-45.258c12.504 23.325 3.724 52.375-19.606 64.871zm66.817-188.384c-8.692-5.691-11.589-10.027-13.885-16.354-2.245-6.423-2.954-15.78-4.063-28.476-1.717-17.881-5.522-36.065-16.747-50.736-11.228-14.804-30.241-24.03-56.017-23.829-25.262-.044-43.737 6.53-55.65 18.515-11.91 11.986-15.841 27.904-15.806 42.964-.062 8.137 1.806 16.361 6.719 23.225 4.886 6.866 11.847 11.891 20.75 16.609l.142.075 125.137 63.013 7.399 3.709c3.797 1.905 5.341 6.53 3.432 10.323-.263.522-.608.968-.965 1.397-.041.051-.066.107-.106.156-.011.012-.017.027-.028.037l119.661 67.057 83.948 38.963c15.516 7.695 28.049 10.986 38.202 11.035 6.894.011 12.904-1.468 17.711-4.314 4.825-2.809 8.12-6.875 9.981-10.666l4.558-9.121-234.265-131.149-40.108-22.433zm-46.712-10.391l-84.14-45.895c12.674-23.236 41.782-31.797 65.015-19.125 23.238 12.679 31.798 41.785 19.125 65.02z"/></svg>