<svg xmlns="http://www.w3.org/2000/svg" viewBox="0 0 512 512"><path d="M315.299 155.551c-14.356-13.309-30.084-23.151-45.422-32.309-19.262-11.281-34.664-21.945-44.41-34.127a73.304 73.304 0 01-6.182-9.012l14.422-2.075c3.795-.538 9.29.997 12.197 3.419 0 0 3.957 3.306 10.336 3.306 8.404 0 14.159-7.2 14.159-7.2 2.355-3.004 7.39-5.882 11.183-6.421l16.777-2.423c0 .037-.031.066-.031.085-4.024 11.639-10.336 20.502-19.623 29.204-1.015.912-2.025 1.794-3.073 2.712 1.667 1.047 3.435 2.091 5.298 3.188l.032.014c12.82 7.621 27.472 16.615 41.531 28.386a128.033 128.033 0 006.477-7.355c8.532-10.562 15.891-23.121 20.798-37.506 4.61-13.379 7.161-28.29 7.488-44.479h-54.581a130.35 130.35 0 01-.295 5.414l-23.644 3.385c-3.758.521-9.252-.982-12.196-3.47 0 0-3.924-3.201-10.3-3.235-8.374.034-14.129 7.196-14.129 7.196-2.353 2.974-7.391 5.864-11.183 6.405L212.06 61.37c-1.211-5.36-2.026-11.416-2.256-18.412H155.26c.323 16.22 2.842 31.068 7.486 44.479 7.358 21.647 20.177 38.911 34.434 52.076 14.356 13.324 30.085 23.184 45.456 32.324 19.263 11.282 34.663 21.973 44.377 34.107 1.177 1.426 2.222 2.878 3.236 4.335l-11.513 1.667c-3.758.526-9.252-1.014-12.196-3.471 0 0-3.924-3.219-10.3-3.25-8.374.031-14.129 7.177-14.129 7.177-2.353 2.992-7.391 5.904-11.183 6.426l-14.65 2.128c4.056-9.093 9.712-16.55 17.528-23.875.95-.881 1.931-1.797 2.978-2.683-1.703-1.015-3.434-2.061-5.3-3.136l-.196-.135h-.032c-12.754-7.604-27.305-16.574-41.336-28.251a120.762 120.762 0 00-6.378 7.262c-8.566 10.53-15.891 23.083-20.827 37.489-4.939 14.374-7.491 30.43-7.491 48.025v.342c0 17.575 2.552 33.632 7.522 48.007 7.358 21.63 20.177 38.864 34.434 52.045 14.356 13.34 30.085 23.183 45.456 32.307 19.229 11.314 34.663 21.977 44.377 34.177 1.798 2.168 3.37 4.447 4.839 6.786l-13.115 1.912c-3.758.539-9.252-1-12.196-3.457 0 0-3.924-3.251-10.3-3.251-8.374 0-14.129 7.18-14.129 7.18-2.353 2.989-7.391 5.868-11.183 6.423l-15.829 2.26c4.057-10.449 10.107-18.655 18.707-26.75.95-.9 1.931-1.783 2.978-2.68a1193.703 1193.703 0 00-5.267-3.127l-.098-.078c-12.82-7.591-27.436-16.583-41.5-28.355a138.422 138.422 0 00-6.378 7.277c-8.566 10.564-15.891 23.121-20.827 37.506-4.613 13.393-7.132 28.275-7.455 44.478h54.545c.096-2.729.262-5.333.521-7.783l23.381-3.387c3.795-.536 9.29 1.016 12.197 3.436 0 0 3.957 3.289 10.336 3.289 8.404 0 14.159-7.184 14.159-7.184 2.355-2.988 7.39-5.884 11.183-6.405l18.282-2.652c1.535 5.875 2.583 12.657 2.811 20.687h54.581c-.327-16.202-2.878-31.085-7.488-44.478-7.359-21.63-20.21-38.877-34.469-52.047-14.356-13.354-30.084-23.211-45.457-32.341-19.227-11.294-34.629-21.956-44.375-34.12-2.485-3.123-4.674-6.295-6.572-9.717l14.812-2.123c3.795-.569 9.29.97 12.197 3.419 0 0 3.957 3.3 10.336 3.3 8.404 0 14.159-7.209 14.159-7.209 2.355-2.987 7.39-5.867 11.183-6.428l17.038-2.435c-.096.281-.193.573-.292.883-4.024 11.628-10.336 20.455-19.623 29.174-1.015.914-2.025 1.826-3.073 2.744 1.667 1.016 3.435 2.046 5.298 3.155l.096.051-.129-.083c12.85 7.635 27.502 16.677 41.597 28.447a145.393 145.393 0 006.477-7.341c8.532-10.577 15.858-23.137 20.798-37.536 4.936-14.343 7.521-30.431 7.521-48.011v-.307c0-17.596-2.586-33.668-7.521-48.025-7.359-21.629-20.21-38.864-34.438-52.045m-12.59 103.896h-.066c-.065 1.6-.13 3.136-.228 4.64l-23.711 3.435c-3.758.526-9.252-.994-12.196-3.466 0 0-3.924-3.221-10.3-3.252-8.374.031-14.129 7.178-14.129 7.178-2.353 3.011-7.391 5.886-11.183 6.409l-19.03 2.763c-1.344-6.117-2.126-13.098-2.16-21.372v-3.692h.066c.13-3.796.424-7.295.852-10.598l23.051-3.303c3.795-.553 9.29.983 12.197 3.404 0 0 3.957 3.299 10.336 3.299 8.404 0 14.159-7.192 14.159-7.192 2.355-2.989 7.39-5.869 11.183-6.412l17.561-2.529c2.19 7.326 3.565 16.085 3.599 27.023v3.665z"/></svg>