<svg xmlns="http://www.w3.org/2000/svg" viewBox="0 0 512 512"><path d="M256.016 49.296c-117.152 0-212.112 94.96-212.112 212.096 0 80.32 44.656 150.192 110.496 186.192v-47.616c-42.656-31.344-70.496-81.712-70.496-138.576 0-94.896 77.2-172.096 172.112-172.096 94.896 0 172.08 77.2 172.08 172.096 0 56.88-27.84 107.248-70.496 138.592v47.6c65.84-36 110.496-105.872 110.496-186.192 0-117.136-94.944-212.096-212.08-212.096zm5.92 130.768a8 8 0 00-5.904-2.608 8 8 0 00-5.904 2.608l-82.288 90.128a7.981 7.981 0 00-1.408 8.624 7.978 7.978 0 007.312 4.768h34.688v171.12c0 4.416 3.584 8 8 8h79.136c4.416 0 8-3.584 8-8V283.6h34.672a7.978 7.978 0 007.312-4.768 7.991 7.991 0 00-1.408-8.624l-82.208-90.144z"/></svg>