<svg xmlns="http://www.w3.org/2000/svg" viewBox="0 0 512 512"><path d="M257.006 338.165c-28.092-8.783-38.783-29.665-41.941-50.331a174.19 174.19 0 008.977-11.121c18.379 5.889 40.386 7.605 59.255-6.047-25.966-25.999-5.115-57.816-23.872-115.227-15.94-48.808-81.327-46.384-89.767-29.214-34.63-12.265-60.81 4.118-70.439 55.819-11.053 59.354 10.383 65.603-15.597 91.579 19.945 11.396 38.21 8.587 54.088 2.308a183.876 183.876 0 009.744 12.1c-3.188 20.601-13.897 41.366-41.923 50.134-21.255 6.637-46.173 13.207-60.873 27.926-11.611 11.606-3.876 39.369-3.876 39.369h280.974s7.75-27.763-3.877-39.369c-14.7-14.719-39.618-21.289-60.873-27.926zm103.338-13.019c-19.427-6.085-26.817-20.502-28.975-34.793 2.109-2.424 4.2-5.006 6.197-7.688 12.703 4.072 27.928 5.265 40.957-4.184-17.953-17.954-3.53-39.961-16.514-79.628-11.004-33.719-56.181-32.049-62.018-20.211-10.254-3.626-19.377-3.595-27.028.346 2.682 15.647 2.908 29.119 3.106 40.694.293 20.274.524 33.683 12.509 45.688l6.213 6.211-7.113 5.132a61.41 61.41 0 01-9.598 5.692c2.108 2.811 4.3 5.524 6.556 8.076-2.205 14.259-9.614 28.616-28.972 34.665-2.027.622-4.086 1.263-6.149 1.896a64.421 64.421 0 009.714 3.991c2.059.619 4.119 1.272 6.227 1.912 20.229 6.196 43.12 13.261 57.721 27.847 3.074 3.074 5.117 6.835 6.459 10.858h75.474s5.364-19.165-2.681-27.207c-10.17-10.172-27.388-14.703-42.085-19.297zm112.559-.914c-6.999-7.034-18.871-10.14-29.008-13.309-13.391-4.188-18.476-14.147-19.979-23.971 1.453-1.699 2.908-3.47 4.284-5.319 8.729 2.801 19.259 3.62 28.22-2.877-12.359-12.374-2.42-27.552-11.378-54.902-7.591-23.268-38.737-22.122-42.743-13.947-11.888-4.188-21.648-1.292-27.924 9.775 1.172 8.893 1.338 16.692 1.437 23.528.242 15.092.687 22.665 7.978 29.975l6.232 6.21-2.83 2.029a89.923 89.923 0 004.479 5.591c-1.505 9.829-6.605 19.72-19.947 23.908-4.757 1.484-9.878 2.975-14.716 4.838 1.734.849 3.563 1.637 5.576 2.238 1.406.459 2.828.883 4.283 1.343 14.227 4.367 30.348 9.304 40.861 19.799 1.143 1.177 2.091 2.485 2.911 3.843h64.11s3.714-13.228-1.846-18.752z"/></svg>