<svg xmlns="http://www.w3.org/2000/svg" viewBox="0 0 512 512"><path d="M316.951 194.43c-45.108 0-81.675 36.565-81.675 81.674 0 45.107 36.566 81.676 81.675 81.676 45.107 0 81.674-36.568 81.674-81.676 0-45.109-36.566-81.674-81.674-81.674zm0 129.602c-26.47 0-47.927-21.456-47.927-47.929 0-26.47 21.457-47.927 47.927-47.927 26.468 0 47.928 21.457 47.928 47.927 0 26.473-21.46 47.929-47.928 47.929zM190.319 125.67l-22.872-26.302h-67.124L77.452 125.67h-41.75v286.494h438.306V125.67H190.319zm-16.901 57.213h-62.392c-7.379 0-13.362-5.982-13.362-13.361 0-7.378 5.982-13.362 13.362-13.362h62.392c7.38 0 13.363 5.984 13.363 13.362.001 7.378-5.983 13.361-13.363 13.361zm143.533 199.934c-58.842 0-106.714-47.871-106.714-106.714 0-58.841 47.872-106.715 106.714-106.715s106.713 47.874 106.713 106.715c0 58.843-47.871 106.714-106.713 106.714zm134.233-209.381a7.086 7.086 0 01-7.086 7.087h-16.443a7.084 7.084 0 01-7.084-7.087v-16.441a7.085 7.085 0 017.084-7.085h16.443a7.087 7.087 0 017.086 7.085v16.441z"/></svg>