<svg xmlns="http://www.w3.org/2000/svg" viewBox="0 0 512 512"><path d="M451.056 72.576H60.944c-10.72 0-19.424 8.688-19.424 19.424v328c0 10.72 8.688 19.424 19.424 19.424h390.128c10.72 0 19.424-8.688 19.424-19.424V92c-.016-10.72-8.72-19.424-19.44-19.424zm-19.408 328H80.352V111.424h351.28v289.152zm-309.424-34.48h267.568c6.112 0 11.472-4.096 13.056-10a13.513 13.513 0 00-6.224-15.232l-111.488-65.36a13.514 13.514 0 00-15.68 1.424l-27.264 23.504-52.736-45.328c-2.944-2.528-6.816-3.616-10.656-3.152a13.58 13.58 0 00-9.424 5.888l-58.4 87.168a13.519 13.519 0 00-.688 13.92 13.518 13.518 0 0011.936 7.168zm197.968-167.84a41.056 41.056 0 1182.112 0 41.056 41.056 0 11-82.112 0z"/></svg>