<svg xmlns="http://www.w3.org/2000/svg" viewBox="0 0 512 512"><path d="M457.211 169.501v-.316H52.564v.328c-7.956 1.548-13.959 8.547-13.959 16.955 0 0 5.683 86.463 6.726 117.611 1.045 31.147 3.844 114.728 3.844 114.728 0 9.544 1.973 17.281 11.514 17.281h388.458c9.543 0 11.514-7.737 11.514-17.281 0 0 2.804-83.58 3.845-114.728 1.044-31.147 6.727-117.611 6.727-117.611-.002-8.433-6.036-15.442-14.022-16.967zm0-42.313c0-8.98-7.277-16.256-16.258-16.256H235.305c-6.43-.161-11.384-11.842-11.384-16.311l.003-1.902c0-9.546-7.737-17.28-17.28-17.28H97.168c-9.544 0-17.281 7.734-17.281 17.28l.004 1.902c0 4.5-5.021 16.322-11.517 16.322h.155c-8.844.157-15.965 7.364-15.965 16.244v11.223h404.647v-11.222z"/></svg>