<svg xmlns="http://www.w3.org/2000/svg" viewBox="0 0 512 512"><path d="M406.019 100.266v181.021l-93.774-50.065v60.793l-132.009-60.793v65.697L37.579 231.221v242.726h434.607V100.266h-66.167zm-22.888-38.008c13.594-.036 25.369 5.842 33.956 12.188a78.822 78.822 0 019.901 8.674 56.783 56.783 0 012.497 2.744c.265.309.45.541.56.672.031.037.054.067.073.088l-.008.004.033.023 2.574-2.022 17.276-13.239h-.008c-.48-.607-6.737-8.736-18.031-17.094-11.255-8.296-27.932-17.048-48.823-17.079-20.905-.088-44.743 9.234-68.29 32.937l17.716 17.707c20.341-20.212 37.007-25.523 50.574-25.603zm-186.87 60.778c11.255 8.296 27.935 17.049 48.822 17.079h.282c20.842 0 44.562-9.346 68.007-32.934l-17.696-17.707c-20.367 20.205-37.028 25.514-50.593 25.599-13.587.035-25.364-5.846-33.958-12.187a79.633 79.633 0 01-9.894-8.667 59.88 59.88 0 01-2.498-2.749c-.271-.306-.452-.535-.56-.669-.037-.05-.057-.071-.068-.095l-19.871 15.242c.479.611 6.732 8.74 18.027 17.088zm1.816-32.358l-2.853 2.229 2.881-2.199c-.009-.005-.026-.028-.028-.03zm-85.061-28.42c13.593-.036 25.367 5.846 33.954 12.188a78.653 78.653 0 019.906 8.678 55.78 55.78 0 012.495 2.74c.269.309.453.541.554.672.041.045.059.069.076.092l19.871-15.23v-.01c-.483-.609-6.732-8.732-18.034-17.086-11.251-8.295-27.937-17.061-48.822-17.084-20.904-.084-44.746 9.234-68.291 32.938L62.438 87.86c20.351-20.213 37.008-25.522 50.578-25.602zm49.86 22.167l-2.875 2.202.024.031 2.851-2.233z"/></svg>