<svg xmlns="http://www.w3.org/2000/svg" viewBox="0 0 512 512"><path d="M101.354 398.936c-5.464 5.477-8.207 12.592-8.207 19.769 0 7.159 2.743 14.288 8.207 19.767 5.461 5.474 12.591 8.193 19.751 8.193 7.096 0 14.094-2.647 19.588-7.982L250.67 300.814l-24.036-27.176-125.28 125.298zM450.868 78.54l-14.551-14.585-176.065 176.049 55.036 48.645a22.422 22.422 0 004.186-3.206l131.395-173.971c5.231-5.214 6.835-10.513 6.835-16.463-.001-5.986-2.257-11.923-6.836-16.469zM232.029 228.445l14.129-14.127c7.521-7.523 5.722-21.549-4.057-31.344l-115.73-115.73-14.258 14.221 102.288 102.277-14.551 14.565L97.562 96.035l-14.945 14.916L184.908 213.24l-14.588 14.555L68.064 125.531 53.837 139.76l115.765 115.743c9.777 9.782 23.808 11.599 31.329 4.071l14.126-14.127 170.538 193.108c5.463 5.36 12.526 8.041 19.623 8.041 7.195 0 14.323-2.712 19.784-8.19 5.494-5.476 8.175-12.59 8.175-19.766a27.938 27.938 0 00-8.044-19.656L232.029 228.445z"/></svg>