<svg xmlns="http://www.w3.org/2000/svg" viewBox="0 0 512 512"><path d="M109.469 190.795l24.132-23.979h173.582v48.212l89.521-73.884-89.521-73.891v48.208H112.416L58.11 169.434v66.409h51.359v-45.048zm256.216 68.963l-10.965 10.896a96.156 96.156 0 0119.202-1.932 95.438 95.438 0 0143.122 10.268v-64.275h-51.359v45.043zm-43.228 23.982H168.384v-48.201l-89.519 73.887 89.519 73.885V335.11l114.213-.004c6.962-21.387 21.234-39.491 39.86-51.366zm51.465 2.508c-43.356 0-78.504 35.152-78.504 78.508 0 43.352 35.147 78.504 78.504 78.504 43.357 0 78.503-35.152 78.503-78.504 0-43.356-35.146-78.508-78.503-78.508zm12.517 131.123H365.49v-71.744h-24.465v-13.916c6.44-.293 10.949-.721 13.524-1.291 4.104-.912 7.443-2.725 10.019-5.455 1.767-1.866 3.104-4.352 4.008-7.464.526-1.862.789-3.25.789-4.157h17.074v104.027z"/></svg>