<svg xmlns="http://www.w3.org/2000/svg" viewBox="0 0 512 512"><path d="M301.384 134.017c-67.3 0-121.849 54.546-121.849 121.817 0 67.331 54.549 121.91 121.849 121.91 67.297 0 121.846-54.579 121.846-121.91-.001-67.272-54.549-121.817-121.846-121.817zm32.866 99.419l-6.672 15.465h-48.057l-.211 8.996h45.683l-6.638 15.467h-37.344c4.576 22.6 15.172 33.879 31.766 33.879 10.713 0 21.733-4.516 33.029-13.51l-.211 32.379c-9.582 5.592-20.603 8.372-33.047 8.372-18.016 0-32.536-5.79-43.541-17.364-10.005-10.467-16.514-25.047-19.521-43.756h-16.514l6.637-15.467h8.584v-5.594c0-1.962.083-3.104.213-3.402h-15.664l6.653-15.465h10.94c3.449-17.27 10.531-30.971 21.256-40.944 11.282-10.862 25.443-16.352 42.479-16.352 12.02 0 25.017 3.595 39.046 10.757l-13.079 26.817c-10.023-6.442-19.393-9.679-28.125-9.679-15.011 0-25.015 9.781-30.019 29.4h52.357zM301.384 82.025c-44.705 0-85.417 16.906-116.222 44.605-26.424.623-51.147 3.238-72.567 7.455-24.557 4.742-44.865 11.673-58.078 19.129-8.828 4.875-14.226 10.075-16.137 13.44-1.063 1.803-1.325 2.877-1.357 3.894.032.98.294 2.127 1.357 3.889 1.128 1.928 3.301 4.48 6.67 7.191 6.735 5.436 18.133 11.385 32.883 16.391 15.402 5.264 34.369 9.516 55.642 12.46a172.758 172.758 0 00-5.333 30.179c-7.39-1.045-14.632-2.187-21.565-3.523-26.783-5.308-49.608-12.725-67.137-22.508-.85-.49-1.685-.979-2.517-1.5v27.203c0 1.049.226 2.162 1.357 4.127 1.128 1.926 3.301 4.476 6.67 7.127 6.735 5.492 18.133 11.444 32.883 16.413 14.321 4.877 31.784 8.964 51.308 11.875a171.457 171.457 0 007.554 31.917 399.213 399.213 0 01-30.118-4.677c-26.783-5.27-49.608-12.726-67.137-22.47-1.193-.685-2.387-1.434-3.566-2.09v23.545c.052 1.24.297 2.549 1.537 4.643 1.213 2.025 3.468 4.646 6.904 7.424 6.881 5.592 18.377 11.544 33.191 16.582 20.503 7 47.304 12.295 77.436 14.877a176.792 176.792 0 0024.396 30.117c-26.096-.881-50.652-3.565-72.532-7.846-26.732-5.27-49.494-12.693-66.859-22.406a151.669 151.669 0 01-3.023-1.762v26.227c0 1.045.226 2.191 1.357 4.116 1.128 1.936 3.301 4.45 6.67 7.163 6.735 5.461 18.133 11.414 32.883 16.389 29.497 10.067 71.96 16.68 118.886 16.645 13.324 0 26.242-.527 38.637-1.535 20.323 8.338 42.579 12.98 65.927 12.98 96.01 0 173.841-77.832 173.841-173.877 0-95.983-77.831-173.809-173.841-173.809zm0 322.735c-82.113 0-148.925-66.777-148.925-148.926 0-82.082 66.812-148.859 148.925-148.859 82.097 0 148.905 66.777 148.905 148.859 0 82.148-66.809 148.926-148.905 148.926z"/></svg>