<svg xmlns="http://www.w3.org/2000/svg" viewBox="0 0 512 512"><path d="M390.008 145.332l-79.432-79.434-6.936-6.936H115.059v394.074h281.883v-300.77l-6.934-6.934zM373.26 429.355H138.738V82.642h133.92c35.182 0 18.23 83.392 18.23 83.392s81.328-19.766 82.371 17.527l.001 245.794zM200.121 200.674c-3.041-3.239-4.516-7.659-4.418-13.256h-20.77c.982 11.586 4.566 20.378 10.752 26.366 6.189 5.99 14.779 9.378 25.781 10.165v12.519h8.691v-12.519c7.365-.493 13.406-1.967 18.117-4.421 4.713-2.452 8.471-5.253 11.27-8.395 2.797-3.144 4.736-6.356 5.818-9.649 1.08-3.291 1.619-6.016 1.619-8.176 0-2.452-.17-5.252-.518-8.396-.344-3.144-1.445-6.285-3.309-9.429-1.869-3.143-4.766-6.162-8.695-9.06-3.93-2.895-9.525-5.325-16.787-7.291a106.997 106.997 0 00-3.908-1.031c-1.229-.294-2.428-.591-3.607-.882v-26.074c3.336 0 6.186 1.377 8.541 4.125 2.355 2.751 3.586 6.086 3.684 10.016H253.3c-.297-5.104-1.375-9.524-3.244-13.26-1.865-3.729-4.268-6.848-7.215-9.351-2.945-2.505-6.357-4.468-10.236-5.892-3.881-1.425-8.027-2.383-12.447-2.874v-11.343h-8.691v11.343a49.32 49.32 0 00-12.816 2.578c-4.123 1.423-7.758 3.44-10.898 6.04-3.146 2.604-5.674 5.816-7.59 9.649-1.914 3.827-2.869 8.248-2.869 13.256 0 4.909.83 9.013 2.5 12.3 1.67 3.293 3.908 6.041 6.705 8.252 2.797 2.208 5.967 3.975 9.5 5.303a119.314 119.314 0 0010.752 3.459c.986.198 1.893.421 2.729.663.834.245 1.494.468 1.988.662v30.786c-4.519-.88-8.3-2.94-11.347-6.183zm20.037-22.097c5.795 1.573 9.891 3.315 12.299 5.23 2.4 1.914 3.609 4.787 3.609 8.618 0 2.356-.49 4.396-1.473 6.111a14.641 14.641 0 01-3.758 4.349 17.192 17.192 0 01-5.156 2.721c-1.914.642-3.756 1.058-5.521 1.253v-28.282zm-18.857-27.694c-2.061-1.767-3.092-4.269-3.092-7.51 0-2.063.369-3.854 1.105-5.378.738-1.521 1.742-2.799 3.02-3.829a12.764 12.764 0 014.271-2.282 16.175 16.175 0 014.861-.737v24.01c-4.716-1.08-8.101-2.505-10.165-4.274zm-28.483 107.454h166.363v23.678H172.818zm0 45.752v90.422h166.363v-90.422H172.818zm23.682 23.679h29.992v43.065H196.5v-43.065zm119.002 43.065h-65.328v-43.065h65.328v43.065z"/></svg>