<svg xmlns="http://www.w3.org/2000/svg" viewBox="0 0 512 512"><path d="M260.736 43.797c-60.557 0-109.646 49.088-109.646 109.646 0 60.557 109.646 258.888 109.646 258.888S370.381 214 370.381 153.443c0-60.558-49.093-109.646-109.645-109.646zm0 142.962c-18.4 0-33.317-14.915-33.317-33.316 0-18.398 14.917-33.312 33.317-33.312 18.397 0 33.312 14.914 33.312 33.312.001 18.401-14.914 33.316-33.312 33.316zm154.512 93.758h-61.913a1543.511 1543.511 0 01-13.472 29.104h52.711l32.672 129.477H86.754l32.672-129.477h62.184a1546.786 1546.786 0 01-13.473-29.104H96.752l-47.36 187.687h413.217l-47.361-187.687z"/></svg>