<svg xmlns="http://www.w3.org/2000/svg" viewBox="0 0 512 512"><path d="M43.602 200.257v113.096h50.839l113.564 84.29v-281.68L94.441 200.257H43.602zm224.117-47.005c-6.67-6.671-17.488-6.671-24.158 0-6.671 6.671-6.671 17.48.005 24.152h-.005c21.941 21.955 32.863 50.555 32.886 79.312-.022 28.833-10.919 57.503-32.886 79.485-6.671 6.677-6.671 17.492.005 24.163a17.033 17.033 0 0012.077 4.997c4.371 0 8.746-1.665 12.081-5.003 28.579-28.583 42.903-66.207 42.885-103.643.018-37.407-14.359-74.942-42.89-103.463zm53.939-54.097c-6.672-6.668-17.486-6.668-24.159 0-6.669 6.674-6.669 17.486.005 24.158l-.005-.006c36.835 36.852 55.274 84.963 55.291 133.223-.022 48.486-18.349 96.805-55.291 133.768-6.673 6.671-6.669 17.489.005 24.157a17.03 17.03 0 0012.074 5.004c4.375 0 8.748-1.67 12.085-5.004 43.572-43.578 65.308-100.86 65.286-157.925.018-56.936-21.879-113.973-65.291-157.375zm56.7-55.102c-6.679-6.671-17.493-6.671-24.161 0-6.669 6.671-6.669 17.483 0 24.155 52.05 52.071 78.095 120.128 78.111 188.341-.017 68.417-25.954 136.67-78.111 188.851-6.674 6.671-6.669 17.487 0 24.155a17.022 17.022 0 0012.079 5.006 17.04 17.04 0 0012.082-5.006c58.782-58.781 88.136-135.992 88.114-213.006.022-76.874-29.48-153.862-88.114-212.496z"/></svg>