<svg xmlns="http://www.w3.org/2000/svg" viewBox="0 0 512 512"><path d="M388.721 417.445c-8.585 0-16.17 4.188-20.895 10.592h-52.207v-55.393c.178-.192.389-.358.568-.521 10.545-9.814 17.758-24.368 17.743-40.544v-48.922h-18.312v-26.492h39.01v-30.643h-108.7v30.643h39.029v26.492H268.02v39.375H163.603V108.26h104.418v23.917h-22.093v30.663h108.701v-30.663h-20.698V100.25a57.949 57.949 0 00-57.899-57.888h-120.44a57.947 57.947 0 00-57.885 57.888v229.808a57.952 57.952 0 0057.885 57.891h120.44a61.829 61.829 0 008.926-.754v40.843H232.75c-4.725-6.403-12.314-10.592-20.879-10.592-14.325 0-25.933 11.607-25.933 25.936 0 14.324 11.608 25.896 25.933 25.896 8.565 0 16.154-4.156 20.863-10.593h135.107c4.709 6.437 12.294 10.593 20.879 10.593 14.291 0 25.9-11.572 25.9-25.896.001-14.329-11.608-25.937-25.899-25.937z"/></svg>