<svg xmlns="http://www.w3.org/2000/svg" viewBox="0 0 512 512"><path d="M473.307 190.176v-13.668c-21.581-2.176-36.07-19.555-37.802-41.239H76.078c-1.699 21.685-16.218 39.063-37.802 41.239v9.972c6.899 0 9.974 5.591 9.974 12.479 0 6.912-3.074 12.49-9.974 12.49v12.1c6.899 0 9.974 5.607 9.974 12.494 0 6.896-3.074 12.488-9.974 12.488v11.904c6.899 0 9.974 5.609 9.974 12.495 0 6.896-3.074 12.489-9.974 12.489v11.903c6.899 0 9.974 5.593 9.974 12.494 0 6.883-3.074 12.491-9.974 12.491v13.684c21.584 2.16 36.103 19.539 37.802 41.239h359.427c1.731-21.7 16.221-39.079 37.802-41.239v-9.987c-6.899 0-9.975-5.594-9.975-12.494 0-6.882 3.075-12.49 9.975-12.49v-12.083c-6.899 0-9.975-5.593-9.975-12.495 0-6.896 3.075-12.49 9.975-12.49V252.05c-6.899 0-9.975-5.592-9.975-12.494 0-6.898 3.075-12.491 9.975-12.491v-11.919c-6.899 0-9.975-5.593-9.975-12.49 0-6.887 3.075-12.48 9.975-12.48zm-356.743 135.68H91.482V186.61h25.082v139.246zm158.278-4.382h-28.025v-89.65h-34.762v-21.141c4.87.127 9.58-.233 14.126-1.083 4.513-.85 8.634-2.348 12.23-4.54a29.72 29.72 0 009.189-8.588c2.484-3.548 4.152-7.947 4.938-13.23h22.303v138.232zm145.26 4.382h-25.05V186.61h25.05v139.246z"/></svg>