<svg xmlns="http://www.w3.org/2000/svg" viewBox="0 0 512 512"><path d="M49.524 344.264a30.396 30.396 0 1160.792 0 30.396 30.396 0 11-60.792 0zm147.781-30.397c-16.787 0-30.394 13.61-30.394 30.396s13.606 30.397 30.394 30.397c16.789 0 30.397-13.611 30.397-30.397 0-16.785-13.608-30.396-30.397-30.396zm86.994 30.397a30.396 30.396 0 1160.792 0 30.396 30.396 0 11-60.792 0zm-58.697 81.95a30.396 30.396 0 1160.792 0 30.396 30.396 0 11-60.792 0zm176.08-81.95a30.396 30.396 0 1160.792 0 30.396 30.396 0 11-60.792 0zm-58.693 81.948a30.396 30.396 0 1160.792 0 30.396 30.396 0 11-60.792 0zm-234.771 0a30.396 30.396 0 1160.792 0 30.396 30.396 0 11-60.792 0zM49.523 55.391v219.775h296.119c5.828-29.321 6.857-51.505 6.857-63.472l.002.008v-3.158a3.852 3.852 0 00-.196-1.049s-70.114 33.923-73.567 33.923c-2.169 0-4.355-.641-6.264-1.976-4.953-3.464-6.154-10.291-2.689-15.243 0 0 71.713-38.02 74.098-39.35 2.558-1.355 5.339-2.296 8.863-2.333.256 0 .656.005 1.011.032l19.833 1.236 19.268-1.204c.275-.016.61-.033 1.025-.033 3.513.038 6.285.974 8.84 2.318 2.378 1.314 5.852 2.875 6.668 7.346l6.287 72.056c.229 3.62 1.166 7.601.344 10.897h46.455V55.391H49.523zm72.631 171.438H98.476V160.64h23.679v66.189zm54.912 0h-23.68V115.765h23.68v111.064zm54.913 0h-23.68v-36.62h23.68v36.62zm141.61-56.906c-17.379 0-31.465-14.087-31.465-31.464s14.086-31.466 31.465-31.466 31.465 14.088 31.465 31.466c0 17.377-14.086 31.464-31.465 31.464z"/></svg>