<svg xmlns="http://www.w3.org/2000/svg" viewBox="0 0 512 512"><path d="M278.461 99.76c-6.994-35.505-38.273-62.273-75.833-62.279h-57.224v25.04l57.224-.004c23.524.045 43.377 15.568 49.95 36.934-50.645 5.814-89.981 48.804-89.981 101.007v45.183l.201-.157c.004-.006.043.052.286.346.242.286.627.735 1.155 1.333a100.182 100.182 0 004.873 5.048c4.374 4.237 10.963 9.963 19.639 15.684 17.383 11.446 42.908 22.846 76.217 22.854 62.378.052 97.146-35.215 101.032-39.379v-50.91c0-51.362-38.079-93.807-87.539-100.7zm3.342 96.201c0 9.67-7.836 17.507-17.504 17.507-9.668 0-17.504-7.837-17.504-17.507v-29.213c0-9.667 7.835-17.505 17.504-17.505 9.668 0 17.504 7.838 17.504 17.505v29.213zm-102.7 86.565a156.085 156.085 0 01-16.506-12.527v103.806c0 56.172 45.532 101.707 101.703 101.707 56.168 0 101.701-45.535 101.701-101.707v-99.008c-17.406 13.537-51.398 33.427-101.032 33.481-37.403 0-66.404-12.903-85.866-25.752z"/></svg>