<svg xmlns="http://www.w3.org/2000/svg" viewBox="0 0 512 512"><path d="M256.175 143.656c-61.939 0-112.299 50.391-112.299 112.312 0 61.92 50.36 112.302 112.299 112.302 61.905 0 112.28-50.382 112.28-112.302 0-61.921-50.375-112.312-112.28-112.312zm0 193.969c-45.114 0-81.656-36.561-81.656-81.656s36.542-81.639 81.656-81.639c45.078 0 81.621 36.543 81.621 81.639s-36.543 81.656-81.621 81.656zm-.035 51.521c-12.166 0-22.009 9.86-22.009 22.028v31.769c0 12.162 9.844 22.023 22.009 22.023 12.199 0 22.042-9.861 22.042-22.023v-31.769c0-12.167-9.843-22.028-22.042-22.028zm0-266.356c12.165 0 22.042-9.875 22.042-22.038v-31.77c0-12.147-9.877-22.022-22.042-22.022-12.131 0-22.009 9.875-22.009 22.022v31.77c0 12.163 9.878 22.038 22.009 22.038zm109.764 45.46c5.623 0 11.282-2.144 15.581-6.442l22.467-22.466c8.599-8.603 8.599-22.55 0-31.169-8.633-8.597-22.563-8.597-31.164 0l-22.466 22.473c-8.6 8.582-8.6 22.543 0 31.163a22 22 0 0015.582 6.441zM130.83 350.15l-22.467 22.451c-8.604 8.601-8.604 22.549 0 31.146a21.982 21.982 0 0015.566 6.476 21.967 21.967 0 0015.582-6.476l22.481-22.464c8.584-8.582 8.584-22.544 0-31.133-8.6-8.619-22.564-8.619-31.162 0zm312.297-116.219h-31.751c-12.164 0-22.042 9.875-22.042 22.038 0 12.167 9.878 22.026 22.042 22.026h31.751c12.166 0 22.043-9.859 22.043-22.012 0-12.177-9.877-22.037-22.043-22.052zM122.98 255.983c0-12.178-9.86-22.037-22.044-22.053H69.184c-12.164 0-22.023 9.875-22.023 22.038 0 12.167 9.859 22.026 22.023 22.026h31.752c12.184.001 22.044-9.858 22.044-22.011zm258.521 94.167c-8.614-8.635-22.562-8.635-31.163-.016-8.615 8.604-8.615 22.55-.016 31.148l22.466 22.464c4.317 4.301 9.942 6.476 15.597 6.476a21.917 21.917 0 0015.551-6.458c8.615-8.614 8.615-22.562.017-31.163l-22.452-22.451zM130.83 161.808a21.95 21.95 0 0015.564 6.442 22.011 22.011 0 0015.599-6.442c8.584-8.62 8.584-22.566 0-31.163l-22.466-22.473c-8.602-8.597-22.531-8.597-31.147 0-8.62 8.619-8.62 22.566 0 31.169l22.45 22.467z"/></svg>