<svg xmlns="http://www.w3.org/2000/svg" viewBox="0 0 512 512"><path d="M255.585 38.541c-120.05 0-217.402 97.323-217.402 217.404 0 120.098 97.353 217.434 217.402 217.434 120.114 0 217.433-97.336 217.433-217.434 0-120.081-97.319-217.404-217.433-217.404zM240.28 159.799c-21.485-1.342-41.89-5.491-60.596-11.966 15.042-30.624 36.134-55.493 60.596-71.716v83.682zm0 30.71v50.116h-84.567c1.341-22.79 5.657-44.443 12.297-64.391 22.4 7.931 46.73 12.834 72.27 14.275zm0 80.758v49.605c-25.671 1.456-50.099 6.426-72.598 14.438-6.542-19.885-10.726-41.397-11.969-64.043h84.567zm0 80.331v84.86c-24.755-16.404-46.011-41.616-61.088-72.662 18.837-6.607 39.407-10.824 61.088-12.198zm30.642 0c21.681 1.374 42.25 5.592 61.085 12.198-15.074 31.046-36.361 56.298-61.085 72.694v-84.892zm0-30.726v-49.605h84.566c-1.243 22.646-5.43 44.158-11.969 64.043-22.467-8.012-46.927-12.982-72.597-14.438zm0-80.247v-50.116c25.507-1.44 49.869-6.344 72.271-14.274 6.638 19.947 10.921 41.601 12.262 64.391h-84.533zm0-80.826V76.117c24.494 16.223 45.553 41.092 60.596 71.682-18.706 6.475-39.11 10.658-60.596 12zm53.304-77.483a187.154 187.154 0 0159.745 38.177 188.574 188.574 0 01-24.232 15.172c-9.614-19.914-21.581-37.88-35.513-53.349zM151.43 135.665a188.208 188.208 0 01-24.202-15.172c17.168-16.282 37.379-29.348 59.714-38.177-13.898 15.469-25.867 33.435-35.512 53.349zm-11.642 28.401c-8.174 23.789-13.245 49.579-14.685 76.559H69.514c2.94-36.316 16.349-69.773 37.18-97.271a214.553 214.553 0 0033.094 20.712zM125.04 271.267c1.373 26.828 6.377 52.538 14.39 76.21-11.807 6.048-22.829 13.013-32.966 20.765-20.733-27.471-34.01-60.757-36.95-96.975h55.526zm25.962 104.724c9.484 19.818 21.291 37.771 35.026 53.274a187.478 187.478 0 01-59.093-38.135c7.423-5.491 15.435-10.609 24.067-15.139zm209.196 0a182.74 182.74 0 0124.034 15.157 186.463 186.463 0 01-59.059 38.08c13.734-15.466 25.54-33.418 35.025-53.237zm11.577-28.514c8.01-23.672 12.979-49.348 14.386-76.21h55.528c-2.944 36.218-16.221 69.504-36.953 96.975-10.137-7.753-21.19-14.718-32.961-20.765zm14.321-106.852c-1.439-26.979-6.506-52.77-14.648-76.559a214.011 214.011 0 0033.025-20.712c20.867 27.497 34.242 60.923 37.217 97.271h-55.594z"/></svg>