<svg xmlns="http://www.w3.org/2000/svg" viewBox="0 0 512 512"><path d="M444.366 158.889c-9.842-9.58-17.889-23.379-17.889-30.705 0-7.324-11.214-13.348-24.933-13.348H110.68c-13.721 0-24.934 6.023-24.934 13.348 0 7.326-8.061 21.125-17.89 30.705 0 0-36.15 35.184-36.15 96.402 0 61.252 36.15 96.437 36.15 96.437 9.83 9.55 17.89 23.384 17.89 30.712 0 7.324 11.213 13.341 24.934 13.341h290.865c13.719 0 24.933-6.017 24.933-13.341 0-7.328 8.047-21.162 17.889-30.712 0 0 36.151-35.185 36.151-96.437 0-61.219-36.152-96.402-36.152-96.402zm-145.39 175.054c-5.967 2.026-11.741 3.072-17.265 3.072-5.545 0-10.139-.359-13.785-1.146-3.646-.719-7.015-1.566-10.059-2.611a118.673 118.673 0 00-9.63-3.043c-3.222-.85-7.227-1.34-12.033-1.34-3.941 0-8.06.553-12.344 1.666-4.316 1.11-8.584 3.236-12.818 6.475l-13.558-20.148a71.785 71.785 0 009.092-6.699c2.976-2.519 5.608-5.295 7.866-8.408a46.247 46.247 0 005.573-9.938 29.542 29.542 0 002.193-11.249c0-2.486-.392-4.939-1.194-7.322a74.444 74.444 0 00-2.942-7.359h-21.681v-18.576h13.996c-2.159-2.78-4.35-6.838-6.541-12.264-2.208-5.399-3.303-11.346-3.303-17.92 0-5.818 1.212-11.381 3.63-16.644 2.403-5.233 5.952-9.88 10.597-13.899 4.658-3.991 10.496-7.132 17.494-9.48 6.999-2.324 15.109-3.504 24.283-3.504 16.774 0 29.823 4.643 39.158 13.996 9.337 9.352 13.997 22.894 13.997 40.68h-29.529c-.162-2.187-.439-4.902-.884-8.206a29.343 29.343 0 00-2.942-9.485c-1.535-3.106-3.859-5.752-7.016-8.012-3.121-2.223-7.453-3.4-12.999-3.4-6.573 0-11.771 1.832-15.628 5.497-3.893 3.628-5.806 8.504-5.806 14.649 0 1.732.081 3.434.213 5.035.147 1.602.457 3.466.979 5.559.524 2.127 1.376 4.577 2.633 7.324 1.226 2.779 2.96 6.116 5.134 10.074h29.089v18.576h-22.958c.721 2.226 1.211 4.412 1.406 6.602.23 2.162.343 4.514.343 6.967 0 6.832-1.781 12.721-5.345 17.629a67.27 67.27 0 01-12.592 13.012l.425.395c3.517-2.129 6.361-3.533 8.538-4.117 2.191-.592 4.298-.887 6.342-.887 2.93 0 5.807.262 8.634.784 2.844.491 5.758 1.017 8.65 1.604a99.103 99.103 0 008.519 1.896c2.777.486 5.625.719 8.55.719 2.912 0 5.854-.49 8.846-1.471 2.976-1.048 6.459-3.662 10.4-7.914l13.114 22.072c-5.235 5.132-10.859 8.699-16.842 10.759z"/></svg>