<svg xmlns="http://www.w3.org/2000/svg" viewBox="0 0 512 512"><path d="M414.463 235.98a103.586 103.586 0 003.355-26.203c0-57.107-46.295-103.4-103.402-103.4-42.938 0-79.759 26.176-95.389 63.438-13.426-15.776-33.414-25.797-55.753-25.797-40.424 0-73.195 32.768-73.195 73.193 0 6.951.99 13.667 2.802 20.035-33.012 12.104-56.539 43.797-56.539 81.025 0 47.611 38.579 86.268 86.244 86.268h112.549v-72.691h-46.469l71.231-86.309 71.23 86.309h-46.472v72.691h103.829c47.689 0 86.269-38.656 86.269-86.268 0-38.613-25.32-71.276-60.29-82.291z"/></svg>