<svg xmlns="http://www.w3.org/2000/svg" viewBox="0 0 512 512"><path d="M63.09 481.656h385.094v-41.563H63.09v41.563zM459.139 30.178H52.168c-12.199 0-22.074 9.876-22.074 22.057v341.679c0 12.201 9.875 22.072 22.074 22.072h406.971c12.184 0 22.075-9.871 22.075-22.072V52.235c0-12.181-9.892-22.057-22.075-22.057zM95.84 184.676h25.949v78.13H95.84v-78.13zm319.627-22.579v201.292H95.84V303.9h25.949v33.519h267.693v-228.66H121.789v34.804H95.84V82.746h319.627v79.351zm-164.932 13.405a58.76 58.76 0 0126.098-10.854v16.008h17.82v-16.008a58.73 58.73 0 0126.064 10.854l-11.281 11.257 12.59 12.617 11.282-11.301c5.558 7.557 9.386 16.419 10.823 26.089h-15.957v17.825h15.957c-1.438 9.669-5.266 18.546-10.823 26.103l-11.282-11.307-12.59 12.59 11.281 11.307a58.514 58.514 0 01-26.064 10.806v-15.97h-17.82v15.97c-9.684-1.452-18.561-5.253-26.098-10.806l11.283-11.307-12.592-12.59-11.281 11.307c-5.558-7.557-9.367-16.434-10.826-26.103h15.963v-17.825h-15.976c1.472-9.669 5.281-18.532 10.839-26.089l11.281 11.301 12.592-12.617-11.283-11.257zm34.994 69.155c11.902 0 21.582-9.675 21.582-21.58 0-11.914-9.68-21.561-21.582-21.561-11.906 0-21.568 9.647-21.568 21.561 0 11.905 9.662 21.58 21.568 21.58z"/></svg>