<svg xmlns="http://www.w3.org/2000/svg" viewBox="0 0 512 512"><path d="M255.636 38.102c-120.065 0-217.417 97.352-217.417 217.431 0 120.049 97.352 217.433 217.417 217.433 120.077 0 217.416-97.384 217.416-217.433 0-120.08-97.339-217.431-217.416-217.431zm0 409.916c-106.136 0-192.482-86.367-192.482-192.485 0-106.147 86.347-192.517 192.482-192.517 106.134 0 192.499 86.369 192.499 192.517 0 106.117-86.365 192.485-192.499 192.485zm52.649-192.455c13.08 0 23.674-10.562 23.674-23.642v-49.183c0-13.081-10.594-23.676-23.674-23.676s-23.692 10.595-23.692 23.676v49.183c0 13.08 10.612 23.642 23.692 23.642zm-105.281 0c13.062 0 23.691-10.562 23.691-23.642v-49.183c0-13.081-10.629-23.676-23.691-23.676-13.099 0-23.68 10.595-23.68 23.676v49.183c0 13.08 10.581 23.642 23.68 23.642zm191.222 56.351l-25.539-25.545c-4.875-4.838-12.771-4.838-17.642 0-4.856 4.873-4.856 12.753 0 17.597l4.412 4.414c-28.663 24.688-64.208 37.055-99.854 37.055-35.533 0-70.931-12.301-99.53-36.827l4.139-4.116c4.857-4.878 4.857-12.756 0-17.664-4.873-4.837-12.771-4.837-17.66 0L117.046 312.4c-4.871 4.842-4.871 12.751 0 17.629 2.454 2.417 5.624 3.666 8.812 3.666 3.189 0 6.394-1.249 8.829-3.666l4.447-4.48c4.824 7.357 11.938 16.81 21.632 26.389 20.063 19.815 51.98 40.059 96.341 40.027h.179c44.312 0 75.525-20.274 94.854-40.223 9.253-9.452 15.94-18.868 20.503-26.193l3.958 3.988c2.418 2.418 5.605 3.633 8.81 3.633a12.45 12.45 0 008.815-3.633c4.856-4.871 4.856-12.787 0-17.623z"/></svg>