<svg xmlns="http://www.w3.org/2000/svg" viewBox="0 0 512 512"><path d="M228.176 82.887c10.252 0 18.739 8.118 19.119 18.44 0 0 .485 114.86.485 116.151 0 5.692 3.219 8.612 6.942 8.612 5.115 0 11.185-5.505 11.185-16.896l-.801-18.82c-.875-10.523 7.844-13.868 18.379-14.742a50.734 50.734 0 014.173-.186c8.5 0 14.82 2.674 15.574 11.76l1.007 21.27c1.357 6.021 3.57 7.874 5.778 7.874 3.554 0 7.099-4.779 7.099-4.779l1.703-9.54c1.421-8.016 5.826-10.791 12.538-10.791 1.988 0 4.178.244 6.553.668 10.4 1.848 20.418 6.434 18.579 16.826l-1.322 7.417v-.01s-7.258 21.058-1.859 21.058c.713 0 1.646-.365 2.847-1.195.016-.01-.004-.014.02-.029l5.215-5.824c2.417-3.854 5.287-5.344 8.484-5.344 4.228 0 9.029 2.602 14.13 5.797 8.944 5.606 5.661 15.646.38 36.199l-37.268 117.548-.479 43.882H235.929l-.284-45.354s-21.283-11.605-39.889-45.161l-63.545-53.722c-8.069-6.823-9.077-18.894-2.261-26.958a19.102 19.102 0 0114.621-6.783c4.361 0 8.742 1.482 12.333 4.523l36.351 28.556c2.741 2.152 5.078 3.298 7.058 3.298 7.757 0 10.052-17.663 10.052-62.207l-1.299-121.713c-.393-10.569 7.865-19.432 18.414-19.811.23-.008.462-.014.696-.014m0-25.037c-.529 0-1.062.008-1.591.027-11.801.428-22.714 5.418-30.75 14.055-7.94 8.533-12.123 19.617-11.809 31.256l1.299 121.373c-.003 8.119-.091 14.881-.238 20.518l-12.398-9.74a44.179 44.179 0 00-28.118-10.123 44.104 44.104 0 00-33.742 15.658c-15.718 18.6-13.379 46.52 5.217 62.24l60.164 50.871c12.091 20.585 25.1 33.85 34.478 41.68l.206 32.723.153 24.883h160.355l.268-24.763.44-40.148 36.138-113.987.213-.664.171-.668.937-3.623c2.701-10.422 4.831-18.653 5.034-26.734.488-19.23-10.634-29.115-17.308-33.299-4.894-3.063-10.11-5.984-15.859-7.785-1.861-14.67-12.644-29.635-39.143-34.341-3.975-.709-7.555-1.056-10.936-1.056-3.222 0-6.3.331-9.21.967-6.102-9.42-17.084-16.763-34.489-16.763-1.973 0-4.069.095-6.237.272-3.146.262-6.101.68-8.875 1.264-.096-23.574-.189-45.65-.211-50.723l-.004-.401-.014-.404c-.874-23.871-20.263-42.565-44.141-42.565z"/></svg>