<svg xmlns="http://www.w3.org/2000/svg" viewBox="0 0 512 512"><path d="M176.794 336.548c-1.389 1.917-3.042 3.666-4.888 5.249a49.323 49.323 0 01-5.66 4.171l8.438 12.538c2.633-2.006 5.298-3.332 7.979-4.019 2.684-.688 5.25-1.03 7.702-1.03 2.993 0 5.513.274 7.506.82 1.992.539 3.99 1.192 6.002 1.894 1.912.655 4.005 1.193 6.276 1.647 2.272.461 5.136.688 8.584.688 3.467 0 7.063-.648 10.776-1.912 3.729-1.289 7.245-3.494 10.496-6.686l-8.189-13.768c-2.439 2.632-4.595 4.266-6.476 4.907a16.814 16.814 0 01-5.51.943c-1.814 0-3.581-.146-5.314-.452a98.452 98.452 0 01-5.331-1.178c-1.813-.36-3.595-.703-5.377-1.015a29.864 29.864 0 00-5.378-.492c-1.296 0-2.586.18-3.959.538-1.373.376-3.14 1.245-5.331 2.599l-.262-.257a42.004 42.004 0 007.851-8.129c2.223-3.042 3.335-6.687 3.335-10.969 0-1.541-.064-2.994-.199-4.367-.145-1.371-.456-2.729-.881-4.086h14.307v-11.593h-18.133c-1.374-2.454-2.452-4.547-3.205-6.263-.785-1.731-1.34-3.254-1.634-4.579a24.511 24.511 0 01-.622-3.486 31.726 31.726 0 01-.132-3.104c0-3.84 1.193-6.883 3.6-9.156 2.419-2.272 5.656-3.401 9.759-3.401 3.452 0 6.167.686 8.096 2.097 1.962 1.419 3.433 3.072 4.382 4.982.948 1.913 1.57 3.895 1.831 5.938.279 2.043.457 3.744.555 5.118H236.2c0-11.086-2.913-19.557-8.732-25.359-5.819-5.838-13.948-8.731-24.413-8.731-5.72 0-10.775.719-15.14 2.17-4.364 1.459-7.995 3.44-10.905 5.938-2.913 2.501-5.101 5.381-6.622 8.649a24.764 24.764 0 00-2.242 10.366c0 4.091.69 7.833 2.045 11.187 1.356 3.368 2.731 5.899 4.09 7.637h-8.717v11.593h13.506a42.861 42.861 0 011.83 4.562c.49 1.501.752 3.022.752 4.555 0 2.475-.457 4.814-1.373 7.039a27.739 27.739 0 01-3.485 6.207zm-32.915-227.213v25.889H446.99v160.121h28.468v-186.01H143.879zm-53.696 79.581h303.113v160.142h28.448V163.034H90.183v25.882zm-53.416 213.92h331.576V216.811H36.767v186.025zm165.78-167.921c32.013 0 57.965 33.074 57.965 73.871 0 40.796-25.952 73.869-57.965 73.869-31.981 0-57.947-33.073-57.947-73.869 0-40.797 25.965-73.871 57.947-73.871z"/></svg>