<svg xmlns="http://www.w3.org/2000/svg" viewBox="0 0 512 512"><path d="M383.389 231.515c-5.371-3.36-11.638-6.943-18.119-6.943-2.245 0-4.986.43-7.754 1.925.097-.371.195-.733.296-1.092l.091-.33.062-.327 1.316-7.416c1.095-6.178.872-21.009-24.659-25.544-2.946-.522-5.52-.779-7.863-.779-10.914 0-17.994 6.03-19.939 16.99l-.021.125-.664-13.991-.006-.138-.012-.127c-.576-6.97-4.34-18.654-23.051-18.654-1.507 0-3.074.069-4.802.211-23.315 1.939-25.854 14.997-25.257 22.709l.078 1.84c-.864 3.258-1.725 4.076-2.479 4.65-.131-32.344-.384-92.605-.401-96.048v-.123l-.006-.122a26.551 26.551 0 0 0-26.621-25.673c-.318 0-.634.006-.956.016-7.123.255-13.701 3.265-18.55 8.474-4.812 5.175-7.337 11.898-7.122 18.952l1.303 121.682c0 29.89-1.225 47.999-3.64 53.879-.363-.24-.804-.556-1.321-.958l-36.238-28.467a26.65 26.65 0 0 0-17.083-6.209c-7.86 0-15.28 3.438-20.354 9.439-4.592 5.436-6.796 12.331-6.199 19.423.594 7.091 3.912 13.525 9.35 18.118l62.503 52.843c14.716 26.068 31.001 39.37 38.296 44.433l.252 27.834.066 7.449h125.543l.117-7.396.462-29.319 36.934-116.494.065-.197.051-.205.948-3.666c4.897-18.922 8.44-32.588-4.616-40.774z"/></svg>