<svg xmlns="http://www.w3.org/2000/svg" viewBox="0 0 512 512"><path d="M40.901 70.44v371.828c0 13.829 11.212 25.04 25.04 25.04H96.87V45.403H65.941c-13.827 0-25.04 11.207-25.04 25.037zm86.015-25.037v421.905h283.415V45.403H126.916zm250.171 311.446H160.119c-.183-9.291.483-26.043.483-33.134 3.603-10.439 15.527-11.938 25.488-16.141 10.935-4.609 23.067-9.966 33.98-14.438 3.116-.849 6.23-1.7 9.342-2.553 3.72-2.556 7.361-11.06 9.349-15.288l4.419-1.07c-1-5.588-4.456-6.025-5.897-9.971-.565-5.946-1.13-11.896-1.701-17.839.027.278-4.066-.749-4.6-1.086-5.772-3.612-5.886-18.297-6.443-24.402-.252-2.79 3.628-5.079 2.549-10.193-6.324-29.966 2.734-43.986 17.055-48.634 9.938-4.03 28.496-11.499 45.805-.851l4.297 3.979 6.95 1.2c3.489 2.011 5.715 8.688 5.715 8.688 1.831 7.376 2.014 7.989 1.843 15.563-.068 2.915-1.744 16.408-1.289 20.545.374 3.416 1.225 3.686 2.574 6.496 2.345 4.899 1.558 11.647.662 16.586-.495 2.7-1.533 6.544-3.116 8.746-1.74 2.428-5.227 2.449-6.771 5.286-2.222 4.078-.968 9.808-2.37 14.218-1.589 4.998-5.641 5.35-5.946 11.889l5.946.85c1.99 4.229 5.63 12.732 9.349 15.288 3.112.853 6.23 1.704 9.345 2.553 10.911 4.473 23.041 9.829 33.981 14.438 9.958 4.202 21.884 5.701 25.483 16.141.001 7.091.669 23.843.486 33.134zm52.912-311.446h38.298v96.654h-38.298zm0 122.063h38.298v96.655h-38.298zm0 122.062h38.298v96.654h-38.298z"/></svg>