<svg xmlns="http://www.w3.org/2000/svg" viewBox="0 0 512 512"><path d="M406.566 223.748c0-21.37-9.564-40.481-24.657-53.335a73.046 73.046 0 0 0 2.616-19.408c0-40.075-32.211-72.616-72.139-73.186-8.078-22.124-29.303-37.95-54.221-37.95-24.919 0-46.16 15.826-54.219 37.95-39.962.569-72.173 33.11-72.173 73.186 0 5.934.753 11.708 2.076 17.253-16.627 12.784-27.353 32.895-27.353 55.49 0 32.211 21.81 59.354 51.44 67.499.099 2.481.195 5.049.195 7.684 0 22.763 28.976 41.202 64.685 41.202.586 0 1.16 0 1.749-.015v131.643h65.894V340.118c.753.015 1.486.015 2.241.015 35.726 0 64.683-18.439 64.683-41.202 0-2.831-.033-5.593-.194-8.274 28.581-8.795 49.377-35.448 49.377-66.909z"/></svg>