<svg xmlns="http://www.w3.org/2000/svg" viewBox="0 0 512 512"><path d="M256.39 59.798c-108.323 0-196.144 87.821-196.144 196.165 0 108.324 87.821 196.157 196.144 196.157 108.338 0 196.145-87.833 196.145-196.157 0-108.344-87.806-196.165-196.145-196.165zm3.434 339.149c-21.666 0-39.243-17.593-39.243-39.275 0-16.937 10.726-31.296 25.753-36.82v-111.94h24.935v111.221c16.089 4.87 27.813 19.847 27.813 37.539 0 21.682-17.576 39.275-39.258 39.275zm99.381-148.12c-.492-27.78-11.871-52.768-30.119-71.075-18.754-18.674-44.393-30.186-72.942-30.186v-25.15c-.13 0-.276-.015-.405-.015-34.943.015-66.452 14.14-89.375 37.035-22.91 22.894-37.053 54.433-37.053 89.391h-22.727c.015-82.392 66.775-149.168 149.154-149.168 79.855 0 145.03 62.704 148.985 141.612.164 2.488.245 4.987.296 7.556h-45.814z"/></svg>