<svg xmlns="http://www.w3.org/2000/svg" viewBox="0 0 512 512"><path d="M352.328 160.154H160.451v191.861h191.877V160.154zm83.863-120.877H76.586c-20.437 0-37.016 16.562-37.016 37.014v359.586c0 20.439 16.579 37.021 37.016 37.021h359.605c20.455 0 37.02-16.582 37.02-37.021V76.292c0-20.453-16.565-37.015-37.02-37.015zM329.158 70.831h32.424v42.824h-32.424V70.831zm-59.303 0h32.406v42.839h-32.406V70.831zm-59.337 0h32.407v42.824h-32.407V70.831zm-59.339 0h32.442v42.824h-32.442V70.831zm-37.213 290.44H71.16v-32.406h42.806v32.406zm0-59.321H71.16v-32.409h42.806v32.409zm0-59.32H71.16v-32.421h42.806v32.421zm0-59.323H71.16v-32.42h42.806v32.42zm69.655 258.018h-32.442V398.52h32.442v42.805zm59.304 0h-32.407V398.52h32.407v42.805zm59.337 0h-32.406V398.52h32.406v42.805zm59.32 0h-32.424V398.52h32.424v42.805zm19.065-60.97H132.115V131.838h248.532v248.517zm60.989-19.065H398.83v-32.425h42.806v32.425zm0-59.34H398.83v-32.409h42.806v32.409zm0-59.32H398.83v-32.406h42.806v32.406zm0-59.323H398.83v-32.42h42.806v32.42z"/></svg>