<svg xmlns="http://www.w3.org/2000/svg" viewBox="0 0 512 512"><path d="M254.837 257.082c-.477.805-.542 1.186-.572 1.414.03.21.096.596.572 1.387.573.975 1.814 2.472 3.908 4.137 4.134 3.379 11.478 7.246 21.077 10.482 19.209 6.592 47.203 10.952 78.105 10.916 40.485.137 76.21-7.711 93.199-17.439 5.657-3.113 8.895-6.368 9.861-8.096.456-.791.538-1.177.572-1.387-.034-.229-.116-.609-.572-1.414-.572-.958-1.832-2.463-3.894-4.131-4.137-3.388-11.51-7.24-21.106-10.478-19.196-6.585-47.19-10.942-78.061-10.929-40.485-.127-76.245 7.743-93.231 17.466-5.657 3.105-8.91 6.38-9.858 8.072zm189.211 41.02c-22.826 7.744-52.895 12.242-86.12 12.266-42.676-.137-79.826-7.199-103.663-19.725v25.055c0 .229 0 .545.572 1.555.573.971 1.814 2.477 3.908 4.135 4.134 3.368 11.478 7.246 21.077 10.474 19.209 6.58 47.203 10.942 78.105 10.921 40.419.148 76.196-7.732 93.184-17.453 5.673-3.123 8.91-6.387 9.877-8.086.572-1 .555-1.326.572-1.545V290.67c-5.248 2.781-11.087 5.226-17.512 7.432zm-86.12 69.626c-42.676-.132-79.826-7.196-103.663-19.734v27.72c0 .227 0 .555.572 1.553.573.972 1.814 2.458 3.908 4.12 4.134 3.386 11.478 7.245 21.077 10.483 19.209 6.59 47.203 10.951 78.105 10.916 40.419.136 76.196-7.723 93.184-17.438 5.673-3.116 8.91-6.37 9.877-8.097.572-1 .555-1.324.572-1.537v-27.699c-5.265 2.805-11.118 5.245-17.562 7.446-22.791 7.742-52.879 12.225-86.07 12.267zM55.129 143.532c4.135 3.369 11.492 7.236 21.093 10.469 19.209 6.567 47.185 10.935 78.075 10.92 40.484.127 76.227-7.727 93.215-17.465 5.655-3.106 8.91-6.357 9.86-8.076.472-.801.554-1.16.587-1.409-.033-.216-.115-.596-.587-1.389-.558-.971-1.816-2.466-3.894-4.145-4.153-3.37-11.513-7.236-21.092-10.474-19.229-6.589-47.188-10.951-78.09-10.921-40.486-.131-76.23 7.732-93.2 17.45-5.66 3.122-8.929 6.363-9.876 8.09-.461.793-.526 1.173-.557 1.389.03.249.096.608.557 1.409.589.963 1.83 2.467 3.909 4.152zm174.2 232.181v-18.735c-21.108 5.666-46.942 8.888-75.032 8.909-42.646-.111-79.811-7.178-103.633-19.721v28.369c0 .211 0 .556.557 1.553.588.967 1.83 2.463 3.908 4.13 4.135 3.375 11.492 7.251 21.093 10.488 19.209 6.574 47.185 10.933 78.075 10.923 31.506.099 60.103-4.659 79.268-11.361a1.317 1.317 0 0 0-.116-.175c-2.501-4.134-4.136-9.145-4.12-14.38zm-174.2-56.147c4.135 3.373 11.492 7.245 21.093 10.482 19.209 6.568 47.185 10.938 78.075 10.911 29.266.089 56.016-3.998 75.032-9.952V315.9c0-.062-.016-.127-.016-.203l.016-17.398c-21.108 5.684-46.942 8.898-75.032 8.921-42.646-.14-79.811-7.179-103.633-19.727v26.39c0 .223 0 .533.557 1.537.588.971 1.829 2.462 3.908 4.146zm202.243-120.082c.587-1.002.554-1.341.587-1.553v-27.788c-5.264 2.805-11.102 5.255-17.529 7.46-22.825 7.739-52.895 12.217-86.133 12.248-42.646-.128-79.811-7.194-103.633-19.734v27.813c0 .228 0 .551.557 1.553.588.966 1.83 2.461 3.908 4.12 4.135 3.383 11.492 7.25 21.093 10.498 19.209 6.574 47.185 10.937 78.075 10.915 40.418.126 76.193-7.735 93.196-17.458 5.658-3.135 8.929-6.372 9.879-8.074zM50.664 230.215v24.995c0 .227 0 .545.557 1.544.588.98 1.83 2.459 3.908 4.134 4.135 3.378 11.492 7.229 21.093 10.493 19.209 6.57 47.185 10.936 78.075 10.911 29.266.09 56.016-4.004 75.032-9.95v-14.438h.016c.133-4.969 1.732-9.711 4.104-13.667 1.26-2.061 2.698-3.933 4.27-5.683-22.469 7.205-51.49 11.366-83.421 11.392-42.63-.127-79.812-7.187-103.634-19.731z"/></svg>