<svg xmlns="http://www.w3.org/2000/svg" viewBox="0 0 512 512"><path d="M451.419 255.976c9.882-16.999 15.255-36.734 15.241-57.494.021-35.186-15.329-73.104-48.443-106.155-33.029-33.091-70.943-48.446-106.128-48.421-20.764-.012-40.501 5.358-57.503 15.243-17.006-9.885-36.747-15.255-57.506-15.247-35.186-.019-73.1 15.336-106.129 48.427-33.095 33.052-48.451 70.979-48.426 106.172-.016 20.75 5.354 40.479 15.238 57.473-9.888 16.997-15.254 36.733-15.238 57.489-.025 35.195 15.343 73.119 48.426 106.158 33.029 33.102 70.956 48.453 106.15 48.434h.068c20.734 0 40.445-5.365 57.426-15.236 16.998 9.871 36.726 15.236 57.487 15.223h.06c35.168.004 73.062-15.342 106.082-48.42 33.104-33.039 48.455-70.953 48.439-106.143.013-20.762-5.36-40.501-15.244-57.503zM312.089 68.945c27.88.024 59.294 11.999 88.43 41.088 29.096 29.143 41.076 60.568 41.102 88.449-.01 12.669-2.502 24.637-7.11 35.452-.061-.061-.118-.126-.179-.189-.039-.036-.085-.064-.127-.101-10.102-82.05-75.083-147.188-157.3-157.304-.027-.029-.047-.065-.08-.096-.062-.065-.131-.125-.193-.185 10.818-4.61 22.79-7.101 35.457-7.114zm50.889 300.135l-42.993-42.006.496-.487c38.047-38.038 38.222-100.114.421-138.397l42.745-42.21c61.185 61.934 60.793 161.626-.669 223.1zm-254.32-259.043c29.127-29.086 60.538-41.067 88.422-41.088 12.671.009 24.639 2.5 35.461 7.111-.064.061-.131.12-.196.185-.029.028-.05.065-.079.096-82.037 10.097-147.182 75.083-157.298 157.312-.033.035-.072.056-.107.09-.065.062-.125.131-.188.195-4.606-10.809-7.099-22.77-7.11-35.437.025-27.89 12.009-59.319 41.095-88.464zm80.343 75.746l-.494.488c-38.025 38.035-38.208 100.111-.411 138.393l-42.743 42.213c-61.176-61.937-60.811-161.633.67-223.104l42.978 42.01zm8.101 257.227c-27.892-.016-59.316-12.008-88.436-41.091-29.094-29.137-41.078-60.569-41.104-88.456.012-12.672 2.504-24.64 7.11-35.452.062.062.122.132.188.194.035.035.074.057.107.09 10.093 82.028 75.05 147.154 157.269 157.295.043.044.071.097.112.141.065.062.13.119.192.182-10.811 4.601-22.773 7.088-35.438 7.097zm56.88-114.381c-19.439-.173-37.316-7.707-51.098-21.597-13.598-13.847-20.892-31.636-20.946-51.038 0-.062.006-.176.006-.353v-.146c.177-39.664 32.954-72.25 72.603-72.174h.688c19.377.173 37.271 7.719 51.063 21.622 13.585 13.815 20.903 31.592 20.94 50.917v.586c-.147 39.658-32.958 72.258-72.611 72.181h-.645zm146.54 73.283c-29.134 29.092-60.556 41.066-88.439 41.089-12.667-.007-24.629-2.497-35.444-7.095.062-.062.125-.117.186-.176.045-.047.072-.1.116-.143 82.022-10.105 147.152-75.061 157.268-157.283.038-.041.088-.062.125-.103.061-.06.118-.123.181-.185 4.608 10.818 7.101 22.789 7.11 35.461-.028 27.89-12.013 59.302-41.103 88.435z"/></svg>