<svg xmlns="http://www.w3.org/2000/svg" viewBox="0 0 512 512"><path d="M114.799 69.493c-13.651 18.396-20.571 43.054-20.571 73.284v35.185c0 17.099-2.961 25.993-5.457 30.471-6.357 11.45-19.459 18.202-40.051 20.643l-13.271 1.572v51.721l13.429 1.45c20.292 2.192 33.312 9.107 39.804 21.144 3.679 6.82 5.546 16.926 5.546 30.027v44.514c0 33.411 10.512 58.159 31.249 73.556 18.917 14.044 42.837 22.612 71.094 25.469l16.552 1.674v-55.29l-13.275-1.569c-10.512-1.244-20.014-5.533-29.038-13.114-7.625-6.406-11.489-18.501-11.489-35.948v-32.65c0-22.942-3.043-40.929-9.324-55.043-4.47-9.927-11.896-21.096-24.196-29.903 10.425-7.204 18.493-16.933 24.135-29.134 6.314-13.659 9.385-31.972 9.385-55.985v-24.188c0-15.659 1.816-27.705 5.394-35.77 3.739-8.396 11.402-19.785 34.67-21.808l13.738-1.19v-54.8l-16.31 1.385c-40.617 3.433-67.444 14.655-82.014 34.297zm322.528 159.564c-20.487-2.192-33.589-8.987-40.061-20.771-3.592-6.539-5.49-17.021-5.49-30.311v-35.179c0-29.231-5.083-50.976-15.468-66.372-15.87-23.958-45.122-37.833-86.951-41.237l-16.262-1.322v54.748l13.748 1.186c23.558 2.035 31.106 12.761 34.716 20.612 2.437 5.337 5.342 16.078 5.342 36.916v24.172c0 24.158 3.068 42.547 9.396 56.233 4.441 9.561 11.853 20.345 24.191 28.875-10.477 7.475-18.653 17.544-24.266 30.03-6.273 13.932-9.321 31.938-9.321 55.051v32.628c0 15.813-3.694 27.555-10.975 34.889-7.89 7.94-17.621 12.573-29.746 14.16l-13.086 1.715v55.227l16.646-1.786c28.008-3.007 51.77-11.423 70.616-25.013 20.849-15.033 31.419-39.932 31.419-74.004V334.99c0-12.857 1.882-22.917 5.551-29.824 6.614-12.285 19.676-19.266 39.929-21.337l13.512-1.382v-51.952l-13.44-1.438z"/></svg>