<svg xmlns="http://www.w3.org/2000/svg" viewBox="0 0 512 512"><path d="M275.241 267.728V175.87c0-8.991-7.323-16.317-16.319-16.317-8.99 0-16.314 7.326-16.314 16.317v105.059l50.557 52.192c3.238 3.3 7.455 4.953 11.74 4.953 4.088 0 8.176-1.505 11.312-4.579 6.475-6.247 6.638-16.584.394-23.072l-41.37-42.695zM438.523 89.786c-41.467-41.517-108.209-42.319-150.758-2.57-9.416-1.439-19.029-2.159-28.844-2.159-11.738 0-23.217 1.13-34.365 3.157-42.482-40.747-109.943-40.274-151.804 1.572-42.218 42.202-42.35 110.548-.425 152.974-1.73 10.289-2.681 20.82-2.681 31.561 0 104.548 84.73 189.291 189.275 189.291 104.514 0 189.279-84.743 189.279-189.291 0-12.871-1.309-25.428-3.727-37.576 36.3-42.628 34.338-106.687-5.95-146.959zm-179.601 316.37c-72.693 0-131.82-59.127-131.82-131.836 0-72.679 59.127-131.804 131.82-131.804 72.699 0 131.822 59.125 131.822 131.804 0 72.709-59.123 131.836-131.822 131.836z"/></svg>