<svg xmlns="http://www.w3.org/2000/svg" viewBox="0 0 512 512"><path d="M254.808 42.17c-58.417 0-105.779 47.362-105.779 105.782 0 41.388 23.786 77.202 58.419 94.581v35.723l1.985 2.498 35.609 35.609-37.595 37.596v1.962l34.63 34.63-32.645 32.642 46.244 46.244 46.493-46.492V242.533c34.636-17.378 58.419-53.192 58.419-94.581 0-58.419-47.361-105.782-105.78-105.782zm0 110.471c-18.027 0-32.643-14.616-32.643-32.645 0-18.029 14.616-32.643 32.643-32.643 18.029 0 32.644 14.613 32.644 32.643-.001 18.029-14.615 32.645-32.644 32.645z"/></svg>