<svg xmlns="http://www.w3.org/2000/svg" viewBox="0 0 512 512"><path d="M254.516 171.172c-40.747 0-73.777 32.919-73.777 73.533 0 40.615 33.03 73.536 73.777 73.536 40.749 0 73.77-32.921 73.77-73.536-.001-40.614-33.021-73.533-73.77-73.533zm0 114.715c-22.816 0-41.315-18.441-41.315-41.182 0-22.737 18.499-41.183 41.315-41.183 22.812 0 41.317 18.445 41.317 41.183 0 22.74-18.505 41.182-41.317 41.182zm-48.689 97.067h97.378v-32.362h-97.378v32.362zm0 64.719h97.378v-32.36h-97.378v32.36zm-14.958-335.035l-68.856 68.631 22.948 22.885 68.862-68.644-22.954-22.872zm-45.908-45.379l-68.854 68.636 22.954 22.882 68.86-69.024-22.96-22.494zm230.005-2.939l-75.585 75.346 60.131 59.566 75.588-74.598-60.134-60.314z"/></svg>