<svg xmlns="http://www.w3.org/2000/svg" viewBox="0 0 512 512"><path d="M306.997 124.391c8.992 0 16.277-7.286 16.277-16.276V57.184c.002-8.989-7.285-16.276-16.277-16.276-8.983 0-16.271 7.287-16.273 16.276v50.932c0 8.989 7.29 16.278 16.273 16.275zm80.752 23.244l36.015-36.017c6.356-6.357 6.353-16.662 0-23.015-6.357-6.356-16.662-6.356-23.019 0l-36.013 36.014c-6.356 6.356-6.358 16.661 0 23.018 6.354 6.356 16.661 6.353 23.017 0zm-161.066 2.552c6.354 6.353 16.663 6.353 23.018 0 6.353-6.356 6.353-16.662 0-23.018l-36.018-36.018c-6.355-6.353-16.661-6.353-23.015 0-6.359 6.356-6.359 16.662 0 23.018l36.015 36.018zm159.5 113.463c-6.356-6.357-16.663-6.357-23.02 0-6.354 6.355-6.354 16.661 0 23.018l36.015 36.014c6.356 6.356 16.663 6.356 23.018 0 6.358-6.356 6.358-16.658 0-23.015l-36.013-36.017zm-70.019-131.061L37.625 411.125l58.761 58.76 278.541-278.533-58.763-58.763zm-65.195 99.172l67.606-67.608 24.787 24.788-67.606 67.608-24.787-24.788zm205.2-41.684h-50.934c-8.99 0-16.275 7.289-16.275 16.275-.004 8.985 7.285 16.275 16.275 16.275h50.934c8.988 0 16.273-7.29 16.273-16.275 0-8.99-7.285-16.275-16.273-16.275z"/></svg>