<svg xmlns="http://www.w3.org/2000/svg" viewBox="0 0 512 512"><path d="M169.68 123.562c-16.466 9.026-30.677 20.406-42.498 34.143-11.902 13.735-21.06 29.659-27.599 47.677-6.001 16.482-8.961 34.041-8.961 52.583 0 1.77.017 3.535.082 5.335v143.131h136.872V258.588h-60.151c.456-20.405 4.594-37.542 12.293-51.553 7.947-14.471 22.793-25.655 45.374-33.408l2.484-.849v-67.04l-4.136.545c-19.309 2.482-37.247 8.254-53.76 17.279zm249.726 50.064l2.482-.849v-67.04l-4.169.545c-19.277 2.482-37.23 8.254-53.745 17.279-16.479 9.026-30.673 20.406-42.511 34.143-11.871 13.735-21.077 29.659-27.583 47.677-6.001 16.482-8.979 34.041-8.979 52.551 0 1.801.032 3.566.082 5.366v143.131h136.904V258.588h-60.171c.44-20.405 4.597-37.542 12.297-51.553 7.932-14.471 22.81-25.656 45.393-33.409z"/></svg>