<svg xmlns="http://www.w3.org/2000/svg" viewBox="0 0 512 512"><path d="M404.368 355.32l-.198-.375-.227-.373-71.224-119.722c-9.127-16.909-17.106-48.19-17.106-67.237v-55.3h15.029V82.392H180.883v29.921h17.547v55.3c0 19.001-7.932 50.157-17.054 67.106l-73.581 119.529-.31.54-.311.532c-9.683 17.678-10.236 36.248-1.539 50.977 8.734 14.689 25.28 23.134 45.423 23.134h209.424c20.141 0 36.689-8.444 45.422-23.134 8.699-14.729 8.143-33.299-1.536-50.977zM244.716 251.186l-74.133 120.442v.012-.012l-25.476-15.685 73.745-119.79c9.595-17.229 18.604-52.55 18.342-72.054v-41.336h29.922V164.1c-.242 26.976-9.466 62.975-22.202 86.788l-.198.298zm33.421 79.923c-10.512 0-19.03-8.505-19.03-19.029 0-10.516 8.519-19.021 19.03-19.021 10.5 0 19.035 8.506 19.035 19.021 0 10.524-8.535 19.029-19.035 19.029zm58.305 62.057c-16.708 0-30.265-13.546-30.265-30.256 0-16.714 13.557-30.264 30.265-30.264 16.712 0 30.269 13.55 30.269 30.264 0 16.71-13.557 30.256-30.269 30.256z"/></svg>