<svg xmlns="http://www.w3.org/2000/svg" viewBox="0 0 512 512"><path d="M437.545 60.162c-12.654 4.859-26.52 10.547-37.246 19.087l-74.985 63.44L95.29 94.062l-28.026 27.646 177.113 100.969L155.56 330.1l-70.245-21.483-29.921 27.927 66.778 33.946-5.952 7.177c-3.208 3.221-3.01 13.392.032 17.053 3.629 3.072 13.866 3.289 17.102.036l7.358-5.937 34.14 67.148 27.928-29.884-21.485-70.08 107.685-86.99 98.664 173.076 27.63-28.058-47.581-225.2 64.686-77.31c8.436-10.773 14.159-24.643 19.13-37.265 4.97-12.604-1.305-18.963-13.964-14.094zm-320.999 334.9c-.1-.112-.195-.228-.293-.343-.1-.08-.195-.18-.327-.26l.62.603z"/></svg>