<svg xmlns="http://www.w3.org/2000/svg" viewBox="0 0 512 512"><path d="M256.176 34.714c-122.174 0-221.229 99.051-221.229 221.255 0 122.177 99.055 221.245 221.229 221.245 122.205 0 221.261-99.068 221.261-221.245 0-122.204-99.056-221.255-221.261-221.255zm0 410.76c-104.482 0-189.506-85.021-189.506-189.505 0-104.513 85.023-189.538 189.506-189.538 104.518 0 189.537 85.025 189.537 189.538 0 104.484-85.02 189.505-189.537 189.505zm.033-344.611c-85.68 0-155.104 69.43-155.104 155.105 0 85.647 69.425 155.089 155.104 155.089 85.641 0 155.07-69.441 155.07-155.089 0-85.675-69.429-155.105-155.07-155.105zm63.473 147.685v25.945h-39.044l-4.09 7.933v12.559h43.134v25.929h-43.134v37.708h-41.497v-37.708h-42.906v-25.929h42.906v-12.559l-3.859-7.933h-39.047v-25.945h25.934l-41.762-84.93h44.247l36.036 84.93 35.221-84.93h44.244l-42.314 84.93h25.931z"/></svg>