<svg xmlns="http://www.w3.org/2000/svg" viewBox="0 0 512 512"><path d="M127.147 412.812h79.794V136.224h-79.794v276.588zm11.12-244.347h57.554v33.26h-57.554v-33.26zm-94.41 243.56h61.952V99.953H43.857v312.072zm11.3-277.035h35.007v21.146H55.157V134.99zm0 220.824h35.007v21.157H55.157v-21.157zm175.46 54.87h61.951V112.465h-61.951v298.219zm48.971-33.712h-34.974v-21.157h34.974v21.157zm-35.5-193.89h34.993v33.19h-34.993v-33.19zm113.703-84.829l-58.011 21.729L409.33 412.19l58.016-21.778L357.791 98.253zm-27.696 70.406l-7.425-19.814 32.771-12.293 7.422 19.782-32.768 12.325zM407.63 375.4l-7.423-19.783 32.75-12.267 7.441 19.787L407.63 375.4z"/></svg>