<svg xmlns="http://www.w3.org/2000/svg" viewBox="0 0 512 512"><path d="M444.72 215.28H67.28c-11.04 0-20-8.96-20-20V64.896c0-11.04 8.96-20 20-20h377.44c11.04 0 20 8.96 20 20V195.28c0 11.056-8.96 20-20 20zm-357.44-40h337.44V84.896H87.28v90.384zm185.504 215.696c0-6.848.704-13.504 1.936-20H87.28v-90.384h337.44v12.496a108.098 108.098 0 0 1 40 31.36v-63.856c0-11.04-8.96-20-20-20H67.28c-11.04 0-20 8.96-20 20v130.384c0 11.04 8.96 20 20 20h207.44c-1.232-6.496-1.936-13.152-1.936-20zm107.552-76.128c-41.968 0-76.112 34.16-76.112 76.128s34.144 76.128 76.112 76.128 76.128-34.16 76.128-76.128-34.144-76.128-76.128-76.128zm46.016 80.464a7.293 7.293 0 0 1-7.296 7.296h-27.072v27.088a7.293 7.293 0 0 1-7.296 7.296H376a7.293 7.293 0 0 1-7.296-7.296v-27.088h-27.072a7.293 7.293 0 0 1-7.296-7.296v-8.672a7.293 7.293 0 0 1 7.296-7.296h27.072v-27.088A7.293 7.293 0 0 1 376 344.96h8.688a7.293 7.293 0 0 1 7.296 7.296v27.088h27.072a7.293 7.293 0 0 1 7.296 7.296v8.672z"/></svg>