<svg xmlns="http://www.w3.org/2000/svg" viewBox="0 0 512 512"><path d="M300.945 162.143c-4.615 0-7.465 2.15-8.965 6.768-1.684 5.166-2.539 13.337-2.539 24.298 0 10.458.859 18.522 2.547 23.972 1.508 4.882 4.355 7.158 8.957 7.158 4.588 0 7.402-2.269 8.854-7.139 1.629-5.461 2.457-13.533 2.457-23.991 0-10.961-.824-19.142-2.449-24.317-1.442-4.604-4.26-6.749-8.862-6.749zm0 125.714c-4.615 0-7.465 2.147-8.965 6.764-1.684 5.166-2.539 13.342-2.539 24.299 0 10.458.859 18.521 2.547 23.973 1.508 4.885 4.355 7.157 8.957 7.157 4.59 0 7.402-2.267 8.854-7.137 1.629-5.462 2.457-13.533 2.457-23.993 0-10.961-.824-19.143-2.449-24.317-1.442-4.602-4.26-6.746-8.862-6.746zm-89.888 0c-4.615 0-7.465 2.147-8.967 6.766-1.684 5.172-2.537 13.345-2.537 24.297 0 10.45.857 18.517 2.547 23.973 1.512 4.885 4.359 7.157 8.957 7.157 4.59 0 7.4-2.267 8.852-7.137 1.631-5.466 2.457-13.535 2.457-23.993 0-10.955-.824-19.137-2.447-24.317-1.444-4.602-4.259-6.746-8.862-6.746zm-89.889-125.714c-4.617 0-7.465 2.15-8.967 6.768-1.684 5.162-2.535 13.337-2.535 24.298 0 10.458.855 18.522 2.543 23.972 1.512 4.882 4.359 7.158 8.959 7.158 4.588 0 7.4-2.269 8.852-7.139 1.631-5.461 2.455-13.533 2.455-23.991 0-10.961-.824-19.142-2.447-24.317-1.444-4.604-4.258-6.749-8.86-6.749zm269.668 0c-4.617 0-7.469 2.15-8.967 6.768-1.684 5.166-2.539 13.337-2.539 24.298 0 10.458.857 18.522 2.547 23.972 1.51 4.882 4.357 7.158 8.959 7.158 4.588 0 7.4-2.269 8.852-7.139 1.627-5.461 2.455-13.533 2.455-23.991 0-10.961-.824-19.142-2.449-24.317-1.442-4.604-4.258-6.749-8.858-6.749zm32.305-60.331H88.859c-19 0-34.41 15.404-34.41 34.412v239.551c0 19.003 15.41 34.412 34.41 34.412H423.14c19 0 34.41-15.409 34.41-34.412v-239.55c.001-19.008-15.409-34.413-34.409-34.413zm-224.459 43.979h24.746v94.706h-24.746v-94.706zm-65.141 220.415h-24.748v-94.699h24.748v94.699zm14.197-136.577c-5.113 8.89-14.053 13.398-26.57 13.398-12.52 0-21.459-4.509-26.57-13.398-4.914-8.546-7.404-20.801-7.404-36.421 0-15.619 2.49-27.891 7.402-36.48 5.109-8.935 14.049-13.464 26.572-13.464 12.52 0 21.461 4.529 26.572 13.464 4.91 8.594 7.4 20.868 7.4 36.48.001 15.614-2.49 27.869-7.402 36.421zm89.887 125.711c-5.111 8.89-14.051 13.399-26.568 13.399-12.525 0-21.465-4.51-26.57-13.399-4.914-8.55-7.406-20.803-7.406-36.42 0-15.613 2.492-27.888 7.402-36.479 5.111-8.938 14.051-13.47 26.574-13.47 12.518 0 21.457 4.532 26.572 13.468 4.91 8.593 7.4 20.867 7.4 36.48 0 15.618-2.49 27.871-7.404 36.421zm89.887 0c-5.109 8.89-14.045 13.399-26.566 13.399-12.523 0-21.461-4.51-26.568-13.399-4.914-8.55-7.406-20.803-7.406-36.42 0-15.613 2.492-27.888 7.402-36.479 5.109-8.938 14.049-13.47 26.572-13.47 12.521 0 21.461 4.532 26.568 13.47 4.916 8.591 7.404 20.861 7.404 36.479s-2.49 27.874-7.406 36.42zm0-125.711c-5.109 8.89-14.049 13.398-26.566 13.398-12.521 0-21.461-4.509-26.568-13.398-4.914-8.552-7.406-20.805-7.406-36.421 0-15.615 2.492-27.887 7.402-36.48 5.109-8.935 14.049-13.464 26.572-13.464 12.521 0 21.461 4.529 26.568 13.464 4.916 8.59 7.404 20.863 7.404 36.48 0 15.618-2.488 27.871-7.406 36.421zm89.89 125.711c-5.109 8.89-14.049 13.399-26.566 13.399-12.523 0-21.463-4.51-26.57-13.399-4.914-8.546-7.406-20.801-7.406-36.42s2.492-27.89 7.404-36.479c5.107-8.938 14.047-13.47 26.572-13.47 12.518 0 21.457 4.532 26.57 13.47 4.912 8.591 7.4 20.865 7.4 36.479.001 15.617-2.49 27.874-7.404 36.42zm0-125.711c-5.111 8.891-14.051 13.398-26.566 13.398-12.52 0-21.461-4.508-26.574-13.398-4.912-8.552-7.402-20.803-7.402-36.421 0-15.615 2.49-27.889 7.398-36.48 5.113-8.935 14.055-13.464 26.578-13.464 12.518 0 21.457 4.529 26.568 13.464 4.914 8.592 7.402 20.863 7.402 36.48.001 15.618-2.49 27.871-7.404 36.421zm-26.566 58.228c-4.619 0-7.469 2.147-8.967 6.764-1.682 5.162-2.537 13.338-2.537 24.299 0 10.462.857 18.527 2.545 23.973 1.51 4.885 4.357 7.157 8.959 7.157 4.588 0 7.4-2.267 8.852-7.137 1.629-5.466 2.459-13.541 2.459-23.993 0-10.955-.828-19.137-2.453-24.317-1.442-4.602-4.256-6.746-8.858-6.746z"/></svg>