<svg xmlns="http://www.w3.org/2000/svg" viewBox="0 0 512 512"><path d="M462.346 74.159H50.471c-6.803 0-12.328 5.509-12.328 12.343V368.2c0 6.803 5.525 12.324 12.328 12.324h411.875a12.311 12.311 0 0 0 12.329-12.324V86.502a12.308 12.308 0 0 0-12.329-12.343zm-105.952 207.3c0 12.754-8.798 28.853-19.554 35.726 0 0-41.86 26.78-117.598 26.78-75.702 0-117.562-26.78-117.562-26.78-10.758-6.873-19.556-22.972-19.556-35.726V173.688c0-12.787 8.798-28.862 19.556-35.745 0 0 41.86-26.786 117.562-26.786 75.737 0 117.598 26.786 117.598 26.786 10.756 6.883 19.554 22.958 19.554 35.745v107.771zm63.672-43.317c-10.369 0-18.773-8.405-18.773-18.769 0-10.365 8.404-18.743 18.773-18.743 10.362 0 18.736 8.378 18.736 18.743.001 10.363-8.373 18.769-18.736 18.769zm0-65.172c-10.369 0-18.773-8.409-18.773-18.737 0-10.369 8.404-18.774 18.773-18.774 10.362 0 18.736 8.405 18.736 18.774.001 10.328-8.373 18.737-18.736 18.737zM106.684 437.494h287.58v-30.643h-287.58v30.643z"/></svg>