<svg xmlns="http://www.w3.org/2000/svg" viewBox="0 0 512 512"><path d="M206.408 102.193h4.218c11.25-.034 20.374-9.143 20.405-20.407V68.493c-.031-11.265-9.155-20.359-20.405-20.39h-4.218c-11.249.03-20.375 9.141-20.375 20.39v13.293c0 11.264 9.126 20.373 20.375 20.407zm81.033-13.637l4.185.459c.755.095 1.474.128 2.195.128a20.492 20.492 0 0 0 20.306-18.184l1.602-15.039c.098-.75.131-1.46.131-2.208-.016-10.303-7.719-19.112-18.164-20.274l-4.205-.458c-.718-.097-1.521-.117-2.221-.117-10.271.021-19.098 7.736-20.26 18.166l-1.636 15.061a21.46 21.46 0 0 0-.129 2.208c.014 10.282 7.731 19.097 18.196 20.258zm66.157 32.604l4.17.735c1.158.18 2.338.296 3.531.296 9.729-.023 18.298-6.936 20.08-16.826l3.155-17.793c.164-1.193.278-2.354.278-3.532-.02-9.728-6.951-18.31-16.843-20.078l-4.15-.733a20.455 20.455 0 0 0-3.534-.313 20.429 20.429 0 0 0-20.096 16.841l-3.137 17.775a20.17 20.17 0 0 0-.314 3.514c.018 9.747 6.951 18.345 16.86 20.114zm77.371 10.251l-4.019-1.34c-2.128-.704-4.285-1.062-6.412-1.031-8.569 0-16.512 5.397-19.36 13.933l-4.396 13.176a19.546 19.546 0 0 0-1.065 6.426c0 8.55 5.396 16.514 13.932 19.377l3.992 1.342a20.435 20.435 0 0 0 6.358 1.03h.083c8.55 0 16.515-5.382 19.374-13.948l4.398-13.182c.688-2.123 1.047-4.283 1.047-6.422-.001-8.556-5.397-16.499-13.932-19.361zm-220.082 26.944c10.956-.147 18.722-9.695 18.737-20.374v-11.757c-.016-10.692-7.781-20.241-18.737-20.403-10.985.162-18.738 9.711-18.738 20.403v11.757c-.001 10.679 7.752 20.227 18.738 20.374zm75.001-13.504l.116.016c.262 0 .587.016.946.016 10.483-.148 18.281-8.91 18.902-19.228l.622-10.22c.032-.489.032-.896.032-1.372.033-10.108-7.03-19.361-17.494-20.132-.359-.047-.783-.047-1.063-.047-10.481.148-18.265 8.929-18.886 19.262l-.622 10.202c-.048.459-.048.95-.048 1.372-.049 10.109 7.031 19.376 17.495 20.131zm-11.639 55.25l5.837.852c.883.11 1.732.179 2.582.179 8.778-.015 16.416-6.411 17.725-15.321l1.258-8.501a19.98 19.98 0 0 0 .181-2.568 17.941 17.941 0 0 0-15.32-17.743l-5.838-.85a15.601 15.601 0 0 0-2.586-.196c-8.776.015-16.398 6.428-17.72 15.336l-1.261 8.487c-.13.867-.182 1.748-.182 2.599 0 8.764 6.411 16.417 15.324 17.726zm-83.245-4.32c.033 9.438 7.652 17.059 17.069 17.073h5.626c9.417-.015 17.036-7.636 17.07-17.073v-13.408c-.034-9.416-7.653-17.053-17.07-17.068h-5.626c-9.417.016-17.036 7.652-17.069 17.068v13.408zm156.086-21.91l.082.021c.604.079 1.225.11 1.914.11 10.039-.132 17.789-8.239 18.967-18.214l.668-5.625c.085-.882.148-1.717.148-2.583 0-9.617-6.441-18.574-16.417-19.852-.683-.08-1.37-.133-2.026-.133-10.038.133-17.788 8.245-18.937 18.221l-.667 5.655c-.117.85-.164 1.731-.164 2.551-.016 9.613 6.426 18.577 16.432 19.849zm-17.53 46.78l5.711 1.947c1.944.656 3.937.983 5.884.983 7.638 0 14.764-4.773 17.381-12.395l1.67-4.874c.653-1.928.98-3.924.98-5.883-.018-7.652-4.809-14.75-12.394-17.369l-5.726-1.959a18.2 18.2 0 0 0-5.902-.982c-7.635 0-14.763 4.791-17.379 12.425l-1.651 4.844a17.899 17.899 0 0 0-.979 5.883c-.001 7.635 4.769 14.749 12.405 17.38zm81.919-33.176a17.665 17.665 0 0 0-4.905-.702c-8.766.084-16.27 6.31-18.821 15.029l-1.486 5.001c-.622 2.06-.883 4.15-.883 6.163-.033 8.19 4.742 16.169 13.162 18.69 1.554.46 3.157.687 4.774.687h.083c8.779-.08 16.269-6.296 18.835-15.01l1.472-5.021c.606-2.061.883-4.136.883-6.164.067-8.174-4.741-16.139-13.114-18.673zm-12.819 55.218l-4.364-2.502a14.918 14.918 0 0 0-7.602-2.06 15.3 15.3 0 0 0-13.23 7.621l-2.5 4.384c-1.374 2.387-2.062 5.017-2.062 7.583 0 5.265 2.748 10.42 7.618 13.229l4.35 2.536c2.389 1.341 5.037 2.028 7.589 2.028 5.262 0 10.43-2.715 13.244-7.623l2.533-4.346a15.517 15.517 0 0 0 2.026-7.62c.001-5.25-2.727-10.399-7.602-13.23zm-16.054 68.202c-.935-4.907-4.09-9.486-8.341-12.101l-41.402-23.907c-2.81-1.631-7.535-4.805-10.071-6.801l-25.019-19.54c-3.562-2.663-8.711-4.822-13.145-5.478l-52.403-6.802c-1.603-.21-3.433-.291-5.331-.291-2.926 0-5.936.196-8.387.619l-19.865 3.633c-5.383 1.077-9.207 5.688-9.339 11.18l.017 31.692c.164 5.164 2.926 10.038 7.277 12.832l39.733 23.659c3.89 2.224 9.254 3.729 13.7 3.86l38.293.439c2.305-.064 7.262 1.721 8.994 3.258l21.747 17.624c3.581 2.798 8.731 4.922 13.228 5.459l46.305 4.696c.344.031.705.047 1.014.047h.066c2.257 0 4.446-.852 6-2.389 1.604-1.568 2.453-3.806 2.453-6.047 0-.521-.067-.997-.096-1.489l-5.428-34.153zm-7.785 45.484l-71.307-2.872c-.048 0-.211-.022-.424-.022-5.202.148-9.847 3.223-11.855 8.081l-10.334 26.569.443-12.607c.018-.147.018-.279.018-.342-.103-5.366-3.813-9.877-9.094-10.99l-.163-.031-7.668-.656 8.503-5.46c.883-.196 1.731-.454 2.599-.944 1.03-.576 2.486-2.062 2.486-4.188-.019-1.833-.949-2.995-1.703-3.729-.783-.75-1.65-1.242-2.647-1.732l-30.118-14.258c-3.041-1.404-8.128-4.019-11.086-5.672l-29.922-16.662a9.94 9.94 0 0 0-4.773-1.241c-3.596-.021-7.082 2.044-8.764 5.493l-11.035 22.545c-.805 1.917-4.566 5.086-6.609 5.546 0 0-11.756 3.399-23.562 7.261-5.885 1.928-11.771 3.955-16.334 5.788-2.271.882-4.202 1.732-5.69 2.566-.768.422-1.454.817-2.104 1.372-.559.603-1.674 1.178-1.867 3.612.063 1.421.312 1.717.59 2.551 1.928 5.351 9.582 21.093 16.904 36.007a3854.258 3854.258 0 0 0 14.228 28.386c1.963 3.808 5.493 8.175 8.812 10.874l42.202 33.908c3.058 2.389 6.965 3.449 10.775 3.502 1.227 0 2.436-.132 3.613-.428l49.183-13.049c1.406-.391 2.748-.656 3.631-.766.751.538 1.406.781 2.354 1.226 1.179.491 2.65 1.06 4.218 1.536l20.342 6.443c2.044.639 4.251.85 6.541.881 2.745-.031 5.493-.357 7.88-1.241l27.404-10.123c4.611-1.849 8.503-5.772 10.383-10.384l31.475-85.463c.395-1.082.621-2.176.621-3.268.128-4.355-3.796-7.981-8.146-8.019zm-248.55-74.838c0-.766-.031-1.484-.099-2.17l-1.39-13.854c-.392-3.743-1.372-9.368-2.287-13.027l-2.877-11.576a13.52 13.52 0 0 0-11.087-9.717l-17.249-1.976a13.615 13.615 0 0 0-1.408-.086c-4.628.101-9.206 2.062-12.279 5.626l-8.143 9.829c-1.979 2.439-2.797 5.428-2.812 8.37 0 2.145.44 4.304 1.57 6.28l33.831 59.041c1.159 2.028 3.09 3.992 6.066 4.057 3.302-.096 5.296-2.552 6.194-4.854l9.861-24.119c1.373-3.431 2.078-7.916 2.109-11.824z"/></svg>