<svg xmlns="http://www.w3.org/2000/svg" viewBox="0 0 512 512"><path d="M76.37 267.502c3.113-7.115 6.701-21.167 8.232-41.068h-17.08c.963 19.599 4.389 35.352 8.848 41.068zm-9.123-135.056c-10.15 0-18.471 30.964-19.252 70.309h38.49c-.785-39.345-9.097-70.309-19.238-70.309zm243.994 153.633l-25.367 81.836 29.611-10.555 18.453 25.454 25.008-80.678c-1.299.075-2.6.123-3.916.123-16.697.001-31.99-6.104-43.789-16.18zm-1.914-51.362a45.703 45.703 0 1 1 91.406 0 45.703 45.703 0 1 1-91.406 0zm70.934 62.636l-14.791 47.71 11.701 37.752 18.455-25.454 29.611 10.555-25.588-82.553a67.713 67.713 0 0 1-19.388 11.99zm64.877-168.167H94.603c13.566 21.55 14.453 65.991 14.453 77.13 0 11.137-.887 55.576-14.455 77.125h197.627l4.533-14.63a67.102 67.102 0 0 1-9.273-34.094c0-37.243 30.301-67.543 67.543-67.543s67.539 30.3 67.539 67.543a67.096 67.096 0 0 1-8.59 32.909l4.902 15.814h26.256c10.418-.002 18.869-34.53 18.867-77.125 0-42.601-8.447-77.129-18.867-77.129zM234.507 244.188h-67.502v-23.68h67.502v23.68zm23.828-45.704H148.062v-23.679h110.273v23.679z"/></svg>