<svg xmlns="http://www.w3.org/2000/svg" viewBox="0 0 512 512"><path d="M230.656 108.59h.066l53.535.101c.031-.032.062-.047.082-.064-9.307 6.295-16.63 15.5-20.457 26.664l-63.18 184.293a55.009 55.009 0 0 0-.785 2.483l.36-183.174c.034-16.762 13.637-30.303 30.379-30.303zM71.891 255.996c-12.722-10.954-14.126-30.15-3.173-42.841l29.891-34.648c.425 1.326.865 2.651 1.389 3.944l61.202 150.62-89.309-77.075zm105.887-117.125l-.343 174.385-56.592-139.277c-6.311-15.535 1.146-33.258 16.677-39.586l45.653-18.558c-3.399 6.968-5.362 14.782-5.395 23.036zm270.445 59.602l-63.18 184.289c-4.317 12.621-16.123 20.57-28.746 20.57-3.27 0-6.57-.54-9.844-1.669l-105.595-36.182c-15.859-5.429-24.33-22.73-18.866-38.604l63.177-184.292c4.317-12.607 16.123-20.541 28.744-20.541 3.242 0 6.574.53 9.844 1.655l105.562 36.186c15.893 5.445 24.331 22.709 18.904 38.588z"/></svg>