<svg xmlns="http://www.w3.org/2000/svg" viewBox="0 0 512 512"><path d="M168.454 463.182h46.027v-24.51h-46.027v24.51zM107.973 92.637h24.934V73.555h18.084v-24.9h-43.018v43.982zm24.934 202.718h-24.934v44.309h24.934v-44.309zm0 123.497h-24.934v44.33h43.018v-24.51h-18.084v-19.82zm0-61.741h-24.934v44.293h24.934v-44.293zm0-247.025h-24.934v44.292h24.934v-44.292zm0 123.512h-24.934v44.308h24.934v-44.308zm0-61.757h-24.934v44.31h24.934v-44.31zm246.948 167.823h24.949v-44.309h-24.949v44.309zm0-61.758h24.949v-44.308h-24.949v44.308zm0 123.498h24.949v-44.293h-24.949v44.293zM397.48 139.58l-83.618-83.635-7.308-7.289h-74.608v24.9h41.989c37.049 0 19.179 87.836 19.179 87.836s85.712-20.829 86.741 18.478v36.281h24.949v-69.262l-7.324-7.309zM231.946 463.182h46.043v-24.51h-46.043v24.51zm147.909-24.51h-20.93v24.51h45.879v-44.33h-24.949v19.82zM168.454 73.555h46.027v-24.9h-46.027v24.9zm126.982 389.627h46.03v-24.51h-46.03v24.51z"/></svg>