<svg xmlns="http://www.w3.org/2000/svg" viewBox="0 0 512 512"><path d="M458.175 341.1c-1.179-1.178-51.538-51.547-78.026-78.018l-8.666-8.666-12.232-.091-46.469-.369L337.506 233l-58.471-58.46-20.929 24.706-.361-46.437-.13-12.264-8.665-8.666-78.061-78.082L149.7 32.648l-21.125 21.149-74.494 74.46-21.16 21.192 21.223 21.183c1.211 1.194 78.029 78.033 78.029 78.033l8.665 8.664 12.261.106 48.497.38 6.804.065-12.461 14.69 43.525 43.516 14.717-12.457.033 6.829.394 48.479.099 12.262 8.664 8.672 78.09 78.071 21.16 21.167 21.158-21.167 74.461-74.458 21.225-21.202-21.29-21.182zM201.824 227.895l-48.495-.395s-78.06-78.066-78.091-78.081l74.461-74.453 78.09 78.092.393 48.481-26.358 26.356zm160.795 208.897l-78.09-78.091-.361-48.494 26.324-26.342 48.496.372 78.093 78.087-74.462 74.468zM205.16 358.596c-28.548-.035-51.702-23.193-51.732-51.713 0-11.057-8.963-20.03-20.016-20.03-11.084 0-20.045 8.974-20.045 20.03.031 50.689 41.072 91.744 91.793 91.797 11.054 0 20.014-8.963 20.014-20.031 0-11.053-8.929-20.036-20.014-20.053zm.327 103.588c-.033.018-.033.031-.033.049-.063.083-.097.18-.163.275.066-.114.131-.237.196-.324zm2.225-13.864c-.13-.722-.327-1.414-.525-2.084 0 .026.034.039.034.062a8.634 8.634 0 0 1-.096-.285c-.229-.656-.461-1.299-.754-1.911.098.179.163.349.229.538-.065-.189-.164-.359-.229-.538-.1-.196-.164-.386-.232-.565.037.088.068.206.101.269a20.114 20.114 0 0 0-2.319-3.851c-.689-.844-1.408-1.65-2.193-2.381a17.842 17.842 0 0 0-1.896-1.57c-.324-.241-.721-.489-1.08-.727a21.204 21.204 0 0 0-3.236-1.645 20.03 20.03 0 0 0-7.162-1.43h-.262c-29.988-.004-56.9-12.07-76.588-31.69-19.523-19.582-31.59-46.348-31.686-76.134.195-8.332-4.907-16.244-13.18-19.229-10.398-3.803-21.876 1.58-25.67 11.969-1.668 5.133-1.082 6.801-1.211 6.9 0 81.88 66.382 148.236 148.334 148.25h.262c1.342-.014 2.683-.21 3.989-.486.623-.145 1.245-.279 1.864-.473.034-.025.098-.025.131-.053 0 0 .031 0 .066-.017-.035 0-.035.017-.066.017.164-.049.329-.139.492-.188-.163.049-.295.123-.426.171.621-.21 1.275-.465 2.092-.808.033-.016.033-.033.064-.042-.064.042-.161.067-.262.101.395-.165.755-.371 1.111-.572-.13.078-.293.188-.455.27a19.753 19.753 0 0 0 2.156-1.229c-.16.131-.359.206-.557.338.297-.192.623-.391.918-.6-.129.082-.229.182-.361.262a16.308 16.308 0 0 0 2.16-1.618c-.132.091-.229.181-.361.271.132-.117.295-.227.458-.358.067-.087.165-.165.263-.267.229-.178.424-.372.62-.586.229-.193.393-.407.591-.622.52-.543.98-1.141 1.437-1.758a20.66 20.66 0 0 0 1.178-1.79c.065-.128.099-.246.163-.359.295-.538.559-1.088.818-1.644.066-.18.164-.368.229-.548 0 .035-.031.066-.064.109.263-.596.458-1.193.652-1.816a2.273 2.273 0 0 1-.127.422c.096-.268.16-.539.26-.779.166-.578.262-1.16.393-1.756.195-1.101.326-2.222.359-3.363v-.253-.254c-.034-1.261-.199-2.475-.426-3.67zm-6.346 18.935zm3.009-3.355c.034-.049.064-.09.099-.137-.064.088-.128.163-.197.259a.563.563 0 0 0-.128.2c.064-.109.162-.217.226-.322zm3.5-8.55c-.03.18-.098.355-.098.512-.131.561-.227 1.09-.359 1.633.195-.71.359-1.427.457-2.145zm-.49 2.267c0-.044 0-.092.033-.123-.033.031-.033.079-.033.123zm-1.898 4.563a21.66 21.66 0 0 0 .818-1.595c-.229.437-.458.864-.688 1.288-.031.084-.097.189-.13.307zm.949-1.977v.026c-.031.118-.097.228-.13.355.033-.127.098-.25.13-.381zm-6.606-24.213v.014c.034.057.098.07.131.102-.033-.032-.097-.075-.131-.116zm1.666 1.375c.099.066.133.145.23.209.035.036.098.084.131.127-.13-.127-.228-.232-.361-.336zm2.291 2.427c.033.048.064.132.133.163 0 .06.064.092.096.139a1.694 1.694 0 0 1-.229-.302zm3.01 5.312c-.066-.168-.133-.312-.197-.464.098.244.197.464.297.713-.035-.072-.069-.173-.1-.249zm.328.935c-.067-.236-.166-.471-.229-.686.062.215.161.438.229.66v.026zm.587 2.197v.084a.39.39 0 0 0 .065.166c-.031-.075-.065-.148-.065-.25zm-13.507 23.063v.012c-.098.031-.229.079-.328.104.1-.025.23-.073.328-.116zm-2.582.666a19.096 19.096 0 0 0 2.254-.551c-.521.15-1.046.238-1.536.369-.229.049-.487.127-.718.182zm3.891-38.332h.033-.033zm3.205 1.628l.031.017c0 .021.033.025.033.025-.033-.004-.033-.026-.064-.042z"/></svg>