<svg xmlns="http://www.w3.org/2000/svg" viewBox="0 0 512 512"><path d="M305.692 268.619v58.607h-99.905v-58.607H37.408v173.058h436.666V268.619H305.692zm-99.905-65.598h99.905v39.939h168.356v-78.883c0-11.743-9.525-21.27-21.273-21.27h-78.438V115.44c-.01-24.944-20.207-45.143-45.151-45.154H182.01c-24.938.012-45.139 20.21-45.152 45.154v27.368H58.404c-11.747 0-21.273 9.526-21.273 21.27v78.883h168.656v-39.94zm-38.149-87.581c.014-7.931 6.44-14.36 14.373-14.374h147.175c7.937.014 14.358 6.443 14.378 14.374v27.368H167.638V115.44zm112.878 186.685v-74.13h-49.829v74.13h49.829z"/></svg>