<svg xmlns="http://www.w3.org/2000/svg" viewBox="0 0 512 512"><path d="M435.303 149.064h-98.088v157.718a64.095 64.095 0 0 1 20.782-3.465c30.004 0 55.184 20.733 61.983 48.691h50.23V233.729l-34.907-84.665zm-48.039 89.408l-23.691-64.454h55.039l26.566 64.454h-57.914zM286.919 105.699H65.512c-13.359 0-24.183 10.829-24.183 24.17v223.154h31.347c6.426-28.45 31.852-49.706 62.211-49.706 30.414 0 55.84 21.256 62.25 49.706h98.612a63.695 63.695 0 0 1 15.353-29.168V129.869c0-13.341-10.825-24.17-24.183-24.17zM134.887 328.266c-21.418 0-38.847 17.436-38.847 38.887s17.429 38.887 38.847 38.887c21.47 0 38.901-17.436 38.901-38.887s-17.432-38.887-38.901-38.887zm223.11 0c-21.452 0-38.901 17.436-38.901 38.887s17.449 38.887 38.901 38.887 38.882-17.436 38.882-38.887-17.43-38.887-38.882-38.887z"/></svg>