<svg xmlns="http://www.w3.org/2000/svg" viewBox="0 0 512 512"><path d="M470.611 129.513c-.115-11.964-2.458-23.38-7.008-34.089-4.629-10.899-10.932-20.563-18.865-28.88-7.969-8.355-17.434-14.96-28.26-19.741-10.871-4.81-22.553-7.225-34.85-7.238-.042 0-.082-.002-.119 0h-.017c-12.331-.008-24.071 2.415-35.067 7.211-10.941 4.774-20.531 11.357-28.618 19.705-8.06 8.307-14.497 17.955-19.254 28.854-4.822 11.009-7.229 22.775-7.229 35.106l-.011 37.219-74.083-.018.012-38.406-.012-.025c-.144-11.893-2.552-23.249-7.203-33.899-4.751-10.898-11.176-20.557-19.237-28.871-8.088-8.345-17.661-14.931-28.597-19.717-10.959-4.789-22.65-7.201-34.915-7.225a4.329 4.329 0 0 0-.22-.006v-.004c-12.336 0-24.083 2.412-35.086 7.213-10.942 4.772-20.526 11.363-28.617 19.711C55.296 74.712 48.866 84.367 44.1 95.27c-4.79 10.954-7.203 22.659-7.227 34.936a2.652 2.652 0 0 0 0 .13v.038h.004c0 .006 0 .016-.004.027-.005 12.327 2.404 24.029 7.222 34.92 4.759 10.803 11.213 20.243 19.31 28.213 8.083 7.968 17.656 14.298 28.567 18.936 11 4.694 22.735 7.029 35.061 7.029l39.004.014-.02 74.442-38.822-.012c-.137-.004-.263 0-.368 0-12.254.012-23.931 2.356-34.879 7.015-10.917 4.637-20.489 10.955-28.58 18.924-8.103 7.96-14.56 17.41-19.328 28.205-4.81 10.862-7.219 22.533-7.234 34.822v.154c-.008 12.327 2.395 24.076 7.21 35.083 4.751 10.901 11.201 20.469 19.292 28.554 8.079 8.095 17.644 14.539 28.548 19.311 11.006 4.813 22.767 7.228 35.103 7.228h3.1l.028-.056c11.201-.365 21.905-2.754 31.982-7.154 10.911-4.765 20.472-11.202 28.563-19.293 8.091-8.085 14.545-17.646 19.31-28.55 4.813-11.011 7.228-22.765 7.228-35.11l.012-37.578 74.084.026-.014 37.578v.038c-.008 12.322 2.402 24.066 7.213 35.07 4.754 10.903 11.202 20.479 19.287 28.561 8.085 8.094 17.644 14.544 28.557 19.309 10.97 4.795 22.69 7.207 34.987 7.225h.064l.052.002 8.103.004-.17-.342c9.44-.812 18.476-3.105 27.016-6.873 10.794-4.771 20.249-11.217 28.216-19.312 7.975-8.094 14.292-17.659 18.939-28.572 4.688-10.997 7.03-22.734 7.03-35.059v-.823l-.004-.008c-.103-11.798-2.444-23.086-7.019-33.718-4.641-10.806-11.033-20.32-19.12-28.405-8.088-8.092-17.594-14.484-28.395-19.14-10.88-4.691-22.451-7.042-34.549-7.042l-38.293-.014.019-74.442 43.305.018v-.138c10.285-.554 20.168-2.845 29.543-6.887 10.802-4.641 20.316-11.031 28.408-19.12 8.084-8.085 14.483-17.59 19.137-28.395 4.685-10.88 7.037-22.45 7.037-34.548v-.963l-.004-.015zm-304.61 253.549c-.006 5.332-1.008 10.295-3.013 15.055-2.036 4.793-4.814 8.936-8.417 12.539a39.494 39.494 0 0 1-12.405 8.425c-4.585 1.979-9.596 2.977-15.187 2.986-5.334-.01-10.299-1.007-15.045-3.012-4.783-2.022-8.751-4.765-12.083-8.306-3.402-3.619-6.105-7.802-8.153-12.653-1.932-4.563-2.917-9.312-3-14.394v-.665c0-5.061.981-9.823 2.988-14.471 2.025-4.679 4.746-8.637 8.194-11.985 3.501-3.384 7.556-6.079 12.289-8.127 4.411-1.905 9.089-2.901 14.172-2.981l39.672.011-.012 37.578zm.054-215.438l-39.008-.008c-5.332-.006-10.225-.997-14.83-2.991-4.734-2.048-8.783-4.742-12.274-8.13-3.476-3.371-6.191-7.282-8.208-11.849-1.989-4.498-2.968-9.191-2.968-14.25v-.012c.004-5.596 1.011-10.603 2.992-15.189 2.041-4.738 4.758-8.881 8.176-12.516 3.333-3.529 7.31-6.271 12.083-8.299 4.746-2.004 9.702-2.999 15.033-2.999h.02c5.593.013 10.604 1.017 15.188 2.999a39.371 39.371 0 0 1 12.398 8.429 39.595 39.595 0 0 1 8.431 12.405c1.97 4.583 2.983 9.594 2.983 15.195l-.016 37.215zm125.222 126.365l-74.084-.021.018-74.444 74.088.025-.022 74.44zm90.171 51.559c5.062 0 9.752.988 14.264 2.972 4.589 2.041 8.521 4.721 11.898 8.091 3.345 3.358 6.021 7.335 8.065 12.05 1.994 4.642 2.981 9.41 2.981 14.479h.004c-.006 5.335-1.007 10.219-2.997 14.828-2.049 4.74-4.766 8.881-8.18 12.512-3.387 3.596-7.312 6.424-11.885 8.549-4.492 2.084-9.142 3.102-14.17 3.108-5.338-.007-10.295-1.001-15.053-3.011-4.784-2.019-8.75-4.766-12.07-8.305-3.408-3.615-6.118-7.799-8.159-12.656-2.006-4.74-2.998-9.669-3.005-14.973l.013-37.657 38.294.013zm34.302-200.816c-2.037 4.604-4.715 8.538-8.084 11.9-3.383 3.376-7.312 6.051-11.912 8.081-4.5 1.984-9.182 2.964-14.236 2.97h-.02l-38.295-.014.012-37.218c0-5.593 1.008-10.605 2.992-15.181 2.045-4.746 4.76-8.882 8.179-12.518 3.327-3.529 7.302-6.275 12.084-8.3 4.55-1.925 9.296-2.918 14.386-3.001h.666c5.025.006 9.679 1.039 14.171 3.114 4.567 2.134 8.492 4.968 11.88 8.557 3.412 3.645 6.121 7.777 8.171 12.522 1.988 4.609 2.979 9.504 2.987 14.831-.008 5.061-.994 9.767-2.981 14.257z"/></svg>