<svg xmlns="http://www.w3.org/2000/svg" viewBox="0 0 512 512"><path d="M475.646 151.494c-.583-.969-10.253-17.847-29.679-35.168-19.301-17.234-49.217-35.208-88.636-35.208-39.42-.012-69.042 18.03-87.956 35.339a162.553 162.553 0 0 0-14.817 15.455 168.771 168.771 0 0 0-15.326-15.586c-19.3-17.234-49.216-35.208-88.635-35.208-39.419-.012-69.048 18.03-87.957 35.339-19.042 17.393-28.303 34.318-28.874 35.324l-1.99 7.797v254.555l30.498 7.786.052.032c.428-.815 8.618-14.93 23.666-28.164 15.168-13.297 36.331-25.534 64.604-25.555 29.174 0 51.356 13.12 66.994 26.967 7.757 6.903 13.685 13.877 17.581 19.039a104.804 104.804 0 0 1 4.309 6.107c.393.598.668 1.039.872 1.367 2.713 5.213 8.152 8.777 14.432 8.777 6.397 0 11.916-3.699 14.576-9.062 1.596-2.721 9.607-15.531 23.375-27.641 15.161-13.297 36.323-25.534 64.597-25.555 29.173 0 51.354 13.12 67.003 26.967 7.748 6.903 13.678 13.877 17.572 19.039a103.182 103.182 0 0 1 4.316 6.107c.455.701.785 1.24.984 1.562.1.163.162.267.193.326l.043-.023 30.357-8.077V159.578l-2.154-8.084zM238.512 370.267c-19.32-17.049-48.97-34.59-87.915-34.59h-.046c-38.249 0-67.271 16.998-86.226 33.819v-205.35c3.309-5.068 10.651-15.227 21.667-24.916 15.168-13.309 36.331-25.544 64.604-25.556 29.174 0 51.356 13.112 66.994 26.968a133.5 133.5 0 0 1 17.581 19.036 113.364 113.364 0 0 1 3.34 4.653v205.936zm206.732-.02c-19.319-17.042-48.98-34.57-87.913-34.57-38.285-.012-67.3 17.008-86.267 33.844V164.148c3.307-5.062 10.637-15.213 21.67-24.918 15.161-13.309 36.323-25.544 64.597-25.556 29.173 0 51.354 13.112 67.003 26.968a133.773 133.773 0 0 1 17.572 19.036 107.973 107.973 0 0 1 3.338 4.64v205.929zM83.806 179.755l13.358 17.522 1.741 2.447c.829-.554 18.427-12.986 53.962-13.008 18.98 0 33.073 3.563 42.304 6.975 4.616 1.705 8.006 3.385 10.144 4.559a47.36 47.36 0 0 1 2.279 1.344c.211.131.349.227.418.272.005.008.011.01.017.014l.025.02 4.009-5.694 10.631-14.622c-1.48-1.102-25.478-17.917-69.827-17.909-44.348-.025-67.525 16.854-69.061 18.08zm15.101 74.112c.823-.553 18.425-12.984 53.958-13.006 18.98.01 33.079 3.569 42.307 6.98 4.61 1.698 8 3.383 10.142 4.562a39.468 39.468 0 0 1 2.276 1.331c.22.143.363.24.426.285.02.014.032.021.035.021l3.926-5.572 10.713-14.732v-.01c-1.483-1.106-25.476-17.917-69.826-17.901-44.349-.031-67.52 16.854-69.059 18.072l15.177 19.914-1.837-2.403 1.762 2.459zM83.805 288.04l13.848 18.179-.497-.645 1.749 2.439.078-.049c1.509-1.021 19.11-12.932 53.886-12.953 18.98 0 33.073 3.559 42.303 6.977 4.612 1.705 8.001 3.375 10.147 4.559a42.462 42.462 0 0 1 2.274 1.334c.212.137.351.234.42.278.005.006.011.008.017.01l.025.023 4.05-5.749 10.59-14.567c-1.487-1.109-25.477-17.921-69.826-17.907-44.356-.022-67.522 16.848-69.064 18.071zm332.361-88.141l4.148-5.884-4.23 5.818-.002.004.084.062zm-110.897-2.628l1.755 2.449.001.004c.821-.554 18.427-12.986 53.963-13.008 18.978 0 33.073 3.563 42.302 6.975 4.61 1.705 8 3.385 10.145 4.559a45.406 45.406 0 0 1 2.273 1.344c.175.102.299.189.377.24l14.723-20.251c-1.48-1.102-25.471-17.917-69.819-17.909-44.356-.023-67.526 16.855-69.069 18.081l15.178 19.911-1.829-2.395zm1.752 56.596c.828-.553 18.426-12.984 53.966-13.006 18.978.01 33.073 3.569 42.299 6.98 4.618 1.698 8.009 3.383 10.15 4.562a42.971 42.971 0 0 1 2.27 1.331c.19.119.32.211.396.26.035.027.059.047.064.047l3.984-5.646 10.656-14.659v-.01c-1.477-1.106-25.471-17.917-69.819-17.901-44.356-.031-67.527 16.854-69.066 18.072l15.177 19.914-1.829-2.394 1.752 2.45zm-15.1 34.173l13.383 17.569 1.718 2.404c.016-.013.043-.028.074-.049 1.513-1.021 19.111-12.932 53.889-12.953 18.98 0 33.071 3.559 42.302 6.977 4.612 1.705 8.002 3.375 10.147 4.559a42.6 42.6 0 0 1 2.275 1.334c.21.137.351.234.416.278a.047.047 0 0 0 .018.01l.027.023 4.049-5.749 10.589-14.567c-1.478-1.109-25.475-17.921-69.823-17.907-44.357-.022-67.522 16.848-69.064 18.071z"/></svg>