<svg xmlns="http://www.w3.org/2000/svg" viewBox="0 0 512 512"><path d="M162.199 402.396h35.836V224.442h-29.206c0 1.554-.45 3.927-1.347 7.119-1.549 5.322-3.839 9.573-6.854 12.763-4.408 4.663-10.124 7.775-17.142 9.328-4.407.984-12.118 1.719-23.138 2.21v23.808h41.85v122.726zm157.586 0h34.241v-38.289h20.127v-27.371h-20.127V225.548h-39.274l-65.414 108v30.56h70.447v38.288zm-44.419-65.66l44.419-76.647v76.647h-44.419zM144.432 143.458c10.271 0 18.603-8.328 18.603-18.602V57.855c0-10.271-8.331-18.602-18.603-18.602-10.275 0-18.602 8.331-18.602 18.602v67.001c0 10.274 8.326 18.602 18.602 18.602zm224.054 0c10.271 0 18.602-8.328 18.602-18.602V57.855c0-10.271-8.33-18.602-18.602-18.602-10.275 0-18.6 8.331-18.6 18.602v67.001c.001 10.274 8.325 18.602 18.6 18.602zm24.724-69.433v19.693c7.742 6.844 12.646 16.823 12.646 27.964 0 20.642-16.734 37.372-37.371 37.372-20.639 0-37.367-16.729-37.367-37.372 0-11.142 4.905-21.12 12.642-27.964V74.025H169.158v19.693c7.738 6.844 12.643 16.823 12.643 27.964 0 20.642-16.731 37.372-37.371 37.372-20.638 0-37.365-16.729-37.365-37.372 0-11.142 4.903-21.12 12.639-27.964V74.025H36.437V471.67h436.669V74.025H393.21zm40.013 357.762H76.315V183.363h356.907v248.424z"/></svg>