<svg xmlns="http://www.w3.org/2000/svg" viewBox="0 0 512 512"><path d="M440.624 351.664c-.192-.176-189.248-167.392-189.248-167.392a101.607 101.607 0 0 0 4.72-30.64c0-27.056-10.528-52.496-29.664-71.632s-44.56-29.664-71.632-29.664c-12.72 0-25.056 2.416-36.56 6.88l54.848 54.864v57.856h-57.84l-54.816-54.832C46.464 153.36 54 196.08 83.184 225.264c19.12 19.12 44.56 29.664 71.632 29.664 9.312 0 18.4-1.328 27.12-3.744 0 0 166.72 189.008 167.472 189.76 12.064 12.064 28.096 18.704 45.152 18.704 17.088 0 33.12-6.656 45.184-18.72 24.576-24.56 24.784-64.272.88-89.264zm-45.808 69.952c-14.288 0-25.84-11.584-25.84-25.856s11.568-25.856 25.84-25.856c14.256 0 25.84 11.584 25.84 25.856s-11.6 25.856-25.84 25.856z"/></svg>