<svg xmlns="http://www.w3.org/2000/svg" viewBox="0 0 512 512"><path d="M414.21 287.29v-62.577h-42.395a119.121 119.121 0 0 0-11.832-28.448l30.012-30.011-44.25-44.249-30.01 30.01a119.215 119.215 0 0 0-28.447-11.83V97.791h-62.576v42.394a119.234 119.234 0 0 0-28.445 11.83l-30.012-30.01-44.25 44.249 30.01 30.011a119.116 119.116 0 0 0-11.83 28.448H97.79v62.577h42.395a119.183 119.183 0 0 0 11.832 28.449l-30.012 30.01 44.25 44.249 30.012-30.011a119.106 119.106 0 0 0 28.445 11.828v42.395h62.576v-42.395a119.087 119.087 0 0 0 28.447-11.828l30.01 30.011 44.25-44.249-30.012-30.01a119.265 119.265 0 0 0 11.832-28.449h42.395zm-158.209 26.112c-31.652 0-57.404-25.752-57.404-57.405 0-31.649 25.752-57.399 57.404-57.399s57.404 25.75 57.404 57.399c0 31.653-25.752 57.405-57.404 57.405z"/></svg>