<svg xmlns="http://www.w3.org/2000/svg" viewBox="0 0 512 512"><path d="M302.066 133.43c-67.267 0-121.844 54.615-121.844 121.916 0 67.263 54.578 121.812 121.844 121.812 67.303 0 121.88-54.549 121.88-121.812 0-67.301-54.577-121.916-121.88-121.916zm43.269 195.001c-5.857 1.995-11.513 3.041-16.943 3.041-5.428 0-9.94-.392-13.538-1.11-3.564-.724-6.867-1.533-9.846-2.586-3.137-1.109-6.307-2.155-9.448-3.007-3.139-.85-7.095-1.245-11.804-1.245-3.86 0-7.914.524-12.102 1.573-4.216 1.11-8.404 3.169-12.557 6.375l-13.309-19.753c3.009-1.863 5.983-4.056 8.893-6.537 2.91-2.551 5.527-5.264 7.718-8.271a44.675 44.675 0 0 0 5.492-9.785 29.332 29.332 0 0 0 2.128-11.013c0-2.456-.392-4.845-1.177-7.169a65.03 65.03 0 0 0-2.878-7.225H244.71v-18.211h13.733c-2.158-2.751-4.286-6.775-6.441-12.039-2.16-5.297-3.205-11.148-3.205-17.592 0-5.725 1.175-11.15 3.531-16.317 2.354-5.134 5.855-9.682 10.431-13.606 4.548-3.922 10.269-7.064 17.136-9.349 6.867-2.258 14.815-3.405 23.839-3.405 16.415 0 29.236 4.551 38.392 13.701 9.158 9.158 13.734 22.466 13.734 39.931h-28.97c-.132-2.16-.427-4.874-.852-8.044-.426-3.236-1.405-6.344-2.911-9.352-1.503-3.01-3.794-5.625-6.866-7.845-3.075-2.194-7.294-3.309-12.752-3.309-6.446 0-11.546 1.798-15.372 5.333-3.762 3.595-5.657 8.402-5.657 14.414 0 1.705.065 3.342.229 4.909.129 1.605.425 3.403.947 5.464.491 2.093 1.341 4.482 2.584 7.195 1.178 2.746 2.879 6.016 5.035 9.91h28.552v18.211h-22.531c.683 2.162 1.174 4.253 1.372 6.41.228 2.191.327 4.451.327 6.865 0 6.742-1.735 12.531-5.233 17.272a65.574 65.574 0 0 1-12.361 12.784l.424.42c3.436-2.121 6.215-3.465 8.374-4.084 2.158-.557 4.217-.854 6.211-.854 2.882 0 5.69.266 8.47.755 2.813.495 5.659 1.048 8.504 1.602 2.844.751 5.623 1.342 8.338 1.834 2.747.489 5.528.747 8.371.747 2.879 0 5.756-.49 8.701-1.465 2.94-1.053 6.344-3.602 10.202-7.754l12.853 21.647c-5.136 5.041-10.664 8.576-16.514 10.534zM302.066 81.465c-44.666 0-85.416 16.871-116.222 44.574-26.39.624-51.079 3.236-72.532 7.455-24.591 4.775-44.865 11.71-58.077 19.165-8.83 4.872-14.226 10.042-16.123 13.438-1.078 1.801-1.34 2.945-1.373 3.895.033.978.295 2.092 1.373 3.928 1.112 1.893 3.271 4.408 6.638 7.127 6.737 5.492 18.15 11.412 32.866 16.413 15.402 5.229 34.401 9.548 55.657 12.458-2.648 9.747-4.413 19.853-5.329 30.186-7.392-1.016-14.652-2.191-21.549-3.531-26.785-5.267-49.644-12.756-67.138-22.498-.884-.492-1.701-1.016-2.552-1.538v27.239c.033 1.047.23 2.193 1.406 4.15 1.112 1.904 3.271 4.414 6.638 7.133 6.737 5.427 18.15 11.412 32.866 16.385 14.357 4.9 31.786 8.994 51.308 11.868 1.539 10.987 4.089 21.685 7.588 31.916-10.465-1.239-20.568-2.776-30.116-4.644-26.785-5.296-49.644-12.752-67.138-22.528a120.3 120.3 0 0 1-3.566-2.095v23.543c.034 1.248.294 2.589 1.537 4.678 1.211 2.031 3.467 4.643 6.902 7.428 6.867 5.586 18.377 11.51 33.16 16.545 20.536 7.062 47.318 12.322 77.469 14.944 7 10.92 15.173 20.991 24.397 30.048-26.098-.848-50.654-3.561-72.535-7.811-26.749-5.299-49.509-12.689-66.874-22.398-1.015-.592-2.028-1.178-3.042-1.771v26.23c.033 1.016.23 2.154 1.406 4.121 1.112 1.893 3.271 4.447 6.638 7.13 6.737 5.493 18.15 11.445 32.866 16.413 29.497 10.108 71.978 16.678 118.935 16.645 13.31 0 26.195-.551 38.589-1.535a173.384 173.384 0 0 0 65.926 12.978c96.014 0 173.844-77.854 173.844-173.802.001-96.047-77.829-173.882-173.843-173.882zm0 322.736c-82.112 0-148.889-66.811-148.889-148.855 0-82.115 66.776-148.926 148.889-148.926 82.115 0 148.927 66.811 148.927 148.926 0 82.045-66.811 148.855-148.927 148.855z"/></svg>