<svg xmlns="http://www.w3.org/2000/svg" viewBox="0 0 512 512"><path d="M166.792 418.313c-28.153 0-51.056-22.903-51.056-51.055V144.741c0-4.648-3.783-8.432-8.432-8.432-4.65 0-8.434 3.783-8.434 8.432v126.3H56.249v-126.3c0-28.149 22.904-51.055 51.057-51.055 28.15 0 51.054 22.905 51.054 51.055v222.518c0 4.649 3.782 8.433 8.434 8.433 4.648 0 8.433-3.783 8.433-8.433V166.931c0-28.151 22.902-51.055 51.055-51.055 28.151 0 51.055 22.903 51.055 51.055v176.924c0 4.649 3.783 8.433 8.433 8.433s8.433-3.783 8.433-8.433v-154.32h-.045c0-28.15 22.903-51.056 51.055-51.056s51.055 22.905 51.055 51.056v133.761c0 4.651 3.783 8.432 8.433 8.432s8.433-3.78 8.433-8.432v-65.702h42.622v65.702c0 28.152-22.903 51.055-51.055 51.055s-51.056-22.902-51.056-51.055V189.534c0-4.649-3.781-8.434-8.432-8.434-4.354 0-7.947 3.319-8.388 7.559v155.195c0 28.15-22.903 51.055-51.055 51.055-27.745 0-50.392-22.247-51.04-49.839h-.015V166.93c0-4.651-3.782-8.435-8.433-8.435s-8.434 3.783-8.434 8.435v200.328c-.002 28.152-22.904 51.055-51.056 51.055z"/></svg>