<svg xmlns="http://www.w3.org/2000/svg" viewBox="0 0 512 512"><path d="M255.209 37.588c120.4 0 217.998 97.602 217.998 217.999 0 120.395-97.598 217.996-217.998 217.996-120.397 0-218-97.602-218-217.996.001-120.397 97.603-217.999 218-217.999m0 115.178c-56.695 0-102.821 46.125-102.821 102.821 0 56.692 46.125 102.817 102.821 102.817 56.695 0 102.818-46.125 102.818-102.817 0-56.695-46.123-102.821-102.818-102.821zm0 30.651c-39.856 0-72.169 32.312-72.169 72.17 0 39.856 32.313 72.169 72.169 72.169s72.167-32.312 72.167-72.169c.001-39.858-32.311-72.17-72.167-72.17zm0 97.599c-14.043 0-25.43-11.388-25.43-25.429 0-14.044 11.387-25.43 25.43-25.43 14.044 0 25.429 11.386 25.429 25.43.001 14.041-11.384 25.429-25.429 25.429z"/></svg>