<svg xmlns="http://www.w3.org/2000/svg" viewBox="0 0 512 512"><path d="M256.258 377.992c-55.562-.099-103.895-9.68-133.391-25.966a94.619 94.619 0 0 1-2.977-1.794v19.846c.033 1.011.195 2.096 1.242 3.827 1.012 1.698 2.877 3.854 5.787 6.208 5.823 4.713 15.564 9.783 28.092 14.066 25.148 8.531 61.317 14.188 101.246 14.157 52.288.134 98.462-9.874 121.225-22.854 7.554-4.188 12.195-8.637 13.93-11.608 1.014-1.7 1.242-2.785 1.242-3.796v-19.846c-7.749 4.703-16.809 8.727-27.109 12.258-28.742 9.744-67.004 15.472-109.287 15.502zm129.334-72.826c-4.68-3.759-11.938-7.784-21.158-11.447 24.559-26.39 39.569-61.705 39.569-100.592 0-81.59-66.157-147.746-147.745-147.746-81.592 0-147.748 66.156-147.748 147.746 0 38.887 15.043 74.202 39.57 100.592-4.875 1.928-9.29 3.963-13.017 6.051-7.586 4.22-12.229 8.666-13.931 11.638-.949 1.639-1.209 2.651-1.209 3.636 0 .945.26 1.991 1.209 3.627 1.012 1.669 2.877 3.829 5.787 6.178 5.823 4.713 15.564 9.783 28.092 14.066 25.148 8.531 61.317 14.188 101.246 14.158 52.354.131 98.496-9.875 121.225-22.825 7.584-4.188 12.195-8.667 13.93-11.577.948-1.636 1.178-2.682 1.242-3.627-.064-.984-.294-1.997-1.242-3.636-1.015-1.664-2.879-3.89-5.82-6.242zm-129.334 14.908c-69.984 0-126.918-56.929-126.918-126.947 0-69.945 56.934-126.914 126.918-126.914 69.979 0 126.912 56.969 126.912 126.914 0 70.019-56.934 126.947-126.912 126.947zm0 113.154c-55.562-.101-103.895-9.649-133.391-25.966a217.248 217.248 0 0 1-2.977-1.773v22.599c.033.983.195 2.13 1.242 3.8 1.012 1.701 2.877 3.922 5.787 6.24 5.823 4.713 15.564 9.812 28.092 14.031 25.148 8.566 61.317 14.223 101.246 14.191 52.288.135 98.462-9.873 121.225-22.822 7.554-4.189 12.195-8.639 13.93-11.641 1.014-1.738 1.242-2.816 1.242-3.8V405.46c-7.749 4.741-16.843 8.767-27.176 12.263-28.709 9.779-66.972 15.505-109.22 15.505zm0-339.445c-54.875 0-99.352 44.473-99.352 99.344 0 54.877 44.477 99.381 99.352 99.381 54.87 0 99.378-44.504 99.378-99.381 0-54.871-44.508-99.344-99.378-99.344zm22.138 78.647l-5.658 13.111h-40.81l-.197 7.652h38.851l-5.691 13.148h-31.687c3.891 19.162 12.883 28.776 26.978 28.776 9.092 0 18.444-3.861 28.059-11.479l-.197 27.499c-8.143 4.775-17.461 7.133-28.06 7.133-15.303 0-27.633-4.907-36.983-14.752-8.537-8.891-14.06-21.254-16.58-37.178h-14.062l5.657-13.148h7.293v-4.742c0-1.701.063-2.65.193-2.91h-13.309l5.657-13.111h9.289c2.909-14.686 8.926-26.33 18.051-34.83 9.581-9.254 21.615-13.864 36.068-13.864 10.204 0 21.258 3.042 33.193 9.157l-11.12 22.793c-8.532-5.492-16.481-8.241-23.904-8.241-12.719 0-21.286 8.308-25.505 24.985h44.474z"/></svg>