<svg xmlns="http://www.w3.org/2000/svg" viewBox="0 0 512 512"><path d="M256.392 100.759c-85.65 0-155.105 69.456-155.105 155.119 0 85.645 69.455 155.105 155.105 155.105 85.644 0 155.103-69.46 155.103-155.105-.001-85.663-69.46-155.119-155.103-155.119zm30.901 252.619H248.51V229.391h-48.041v-29.204c6.736.163 13.211-.328 19.524-1.522 6.278-1.193 11.903-3.268 16.939-6.277 5.003-3.006 9.22-6.967 12.687-11.883 3.433-4.908 5.757-10.991 6.833-18.3h30.839v191.173zM256.392 34.619c-122.175 0-221.26 99.051-221.26 221.26 0 122.19 99.085 221.26 221.26 221.26 122.204 0 221.257-99.07 221.257-221.26-.001-122.209-99.053-221.26-221.257-221.26zm0 410.781c-104.516 0-189.541-85.025-189.541-189.522 0-104.517 85.025-189.525 189.541-189.525 104.514 0 189.538 85.008 189.538 189.525 0 104.497-85.025 189.522-189.538 189.522z"/></svg>