<svg xmlns="http://www.w3.org/2000/svg" viewBox="0 0 512 512"><path d="M63.774 42.231L42.008 63.996l404.999 404.999 21.767-21.765-405-404.999zm378.655 343.248c.514-2.089.827-4.281.821-6.595.025-8.525-4.035-15.696-8.371-20.336-7.801-8.226-17.102-12.633-28.434-16.957-.626-.231-1.305-.442-1.941-.667-45.437-39.312-24.12-70.818-24.12-111.01 0-39.834-39.7-100.547-93.215-117.836.19-1.411.321-2.838.321-4.302 0-17.729-14.367-32.099-32.095-32.099s-32.101 14.369-32.101 32.099c0 1.979.205 3.909.548 5.788-12.216 4.496-23.641 11.217-33.969 19.354l252.556 252.561zm-187.033 12.367c-45.501.018-86.747-4.188-115.399-10.622-11.53-2.547-21.039-5.562-27.473-8.348a62.242 62.242 0 0 1 4.503-1.778c12.607-4.725 32.442-9.211 56.328-12.271 15.937-2.059 33.758-3.534 52.738-4.295 2.938 13.486 14.934 23.591 29.303 23.591 14.368 0 26.364-10.106 29.298-23.601 6.656.269 13.16.626 19.494 1.07L141.385 198.781c-4.015 10.877-6.206 21.518-6.206 31.133 0 39.855 18.94 71.3-22.197 108.786-8.275 2.544-15.655 5.412-22.135 8.803-5.515 2.96-10.509 6.253-14.94 11.045-4.341 4.64-8.396 11.811-8.376 20.336-.019 8.538 4.036 15.708 8.376 20.347 7.797 8.218 17.107 12.631 28.434 16.954 16.95 6.212 38.791 10.863 64.52 14.194 25.694 3.309 55.153 5.166 86.535 5.166 42.972-.013 82.218-3.46 113.335-9.417l-32.98-32.977c-23.558 2.968-51.037 4.699-80.355 4.695z"/></svg>