<svg xmlns="http://www.w3.org/2000/svg" viewBox="0 0 512 512"><path d="M374.236 112.896l.002-.004c-34.665-28.842-76.951-42.994-118.78-42.969-48.281-.027-96.382 18.878-132.321 55.332l-36.11-30.122-.608 116.069 114.082-21.411-37.78-31.516c25.665-24.441 59.003-36.957 92.737-36.984 30.38.027 60.723 10.141 85.939 31.095 32.061 26.661 48.504 64.85 48.546 103.566a136.332 136.332 0 0 1-1.053 16.753l52.271-9.994c.081-2.255.14-4.508.14-6.759.038-53.253-22.882-106.332-67.065-143.056zm-25.501 239.875c-25.753 24.888-59.396 37.631-93.449 37.658-30.388-.018-60.733-10.15-85.939-31.084-32.057-26.664-48.517-64.861-48.552-103.569.006-6.409.486-12.812 1.397-19.17l-52.507 9.854c-.153 3.104-.255 6.21-.255 9.315-.031 53.254 22.898 106.347 67.08 143.068 34.652 28.817 76.939 42.97 118.775 42.952h.136c48.598 0 97.016-19.191 133.003-56.146l34.503 28.586.214-116.073-114.007 21.804 39.601 32.805z"/></svg>