<svg xmlns="http://www.w3.org/2000/svg" viewBox="0 0 512 512"><path d="M469.92 279.717v-48.898l-6.906-2.256-52.35-17.091-13.971-33.728 26.852-56.814-34.586-34.581-6.477 3.288-49.1 24.937-33.721-13.971-21.198-59.171h-48.899l-2.253 6.912-17.091 52.352-33.712 13.966-56.833-26.849-34.573 34.58 3.287 6.474 24.933 49.116-13.96 33.707-59.182 21.189v48.909l6.914 2.253 52.352 17.094 13.966 33.718-26.845 56.82 34.567 34.587 6.484-3.294 49.103-24.931 33.719 13.968 21.188 59.165h48.902l2.26-6.908 17.094-52.35 33.721-13.967 56.818 26.855 34.584-34.59-3.286-6.48-24.937-49.094 13.969-33.726 59.167-21.191zM255.054 324.78c-37.819 0-68.478-30.657-68.478-68.479 0-37.819 30.659-68.481 68.478-68.481 37.819 0 68.475 30.662 68.475 68.481 0 37.822-30.656 68.479-68.475 68.479z"/></svg>