<svg xmlns="http://www.w3.org/2000/svg" viewBox="0 0 512 512"><path d="M364.93 220.525l-14.911-31.263c-2.551-5.43-9.846-21.996-17.464-39.473H179.021c-7.62 17.477-14.913 34.043-17.463 39.473l-14.914 31.263c-6.181 12.981-11.248 35.385-11.248 49.785v181.332c0 13.358 10.825 24.165 24.167 24.165H351.98c13.373 0 24.167-10.807 24.167-24.165V270.311c-.001-14.401-5.036-36.804-11.217-49.786zm-27.438 122.4h-55.233v55.252H229.35v-55.252h-55.27v-52.911h55.27v-55.25h52.909v55.25h55.233v52.911zm15.731-282.066c0-13.362-10.794-24.181-24.135-24.181H182.486c-13.346 0-24.169 10.819-24.169 24.181v63.996h194.905V60.859z"/></svg>