<svg xmlns="http://www.w3.org/2000/svg" viewBox="0 0 512 512"><path d="M455.482 339.613c1.043-31.146 16.383-86.462 16.383-86.462 0-8.433-6.035-15.438-14.018-16.967V126.918h-.006c-.027-8.96-7.293-16.211-16.256-16.211H235.937c-6.429-.156-11.382-11.842-11.382-16.307l.001-1.906c0-9.542-7.736-17.28-17.28-17.28H97.799c-9.543 0-17.279 7.738-17.279 17.28l.004 1.906c0 4.497-5.023 16.32-11.518 16.32h.154c-8.844.159-15.965 7.366-15.965 16.246l.005 109.227c-7.955 1.549-13.963 8.547-13.963 16.958 0 0 14.659 55.928 15.704 87.071 1.042 31.149-5.132 78.361-5.132 78.361 0 9.539 1.973 17.277 11.513 17.277H449.78c9.544 0 11.515-7.738 11.515-17.277-.001.001-6.856-47.825-5.813-78.97zM73.23 235.869v-88.924h364.584v88.924H73.23z"/></svg>