<svg xmlns="http://www.w3.org/2000/svg" viewBox="0 0 512 512"><path d="M396.615 143.603h-44.342v-49.24h-.394c.23-.757.394-1.501.394-2.267 0-17.866-63.867-32.378-142.645-32.378-78.814 0-142.645 14.512-142.645 32.378 0 .766.131 1.51.359 2.267h-.359V420.81c.097 17.852 63.896 32.321 142.645 32.321 78.744 0 142.545-14.47 142.645-32.321v-49.24h44.342c27.244-.089 49.119-21.99 49.219-49.212v-129.55c-.1-27.226-21.975-49.116-49.219-49.205zM146.711 371.09c0 8.485-6.869 15.346-15.305 15.346-8.504 0-15.371-6.86-15.371-15.346V144.083c0-8.475 6.867-15.347 15.371-15.347 8.436 0 15.305 6.872 15.305 15.347V371.09zm78.253 0c0 8.471-6.867 15.346-15.335 15.346-8.471 0-15.338-6.875-15.338-15.346V144.083c0-8.475 6.867-15.347 15.338-15.347 8.468 0 15.335 6.872 15.335 15.347V371.09zm78.224.026c0 8.459-6.867 15.319-15.338 15.319-8.469 0-15.336-6.86-15.336-15.319V144.083c0-8.475 6.867-15.347 15.336-15.347 8.471 0 15.338 6.872 15.338 15.347v227.033zm96.406-48.759c0 .805-.296 1.456-.885 2.083-.656.62-1.307.909-2.094.909h-44.342V189.823h44.342c.787.026 1.438.305 2.094.906.589.629.885 1.263.885 2.078v129.55z"/></svg>