<svg xmlns="http://www.w3.org/2000/svg" viewBox="0 0 512 512"><path d="M79.498 221.885c14.242 2.536 25.9 4.627 25.9 4.61 0 0 10.972 4.563 24.331 10.102l23.788 9.896 80.055-33.21-80.625-33.487c-13.378-5.57-32.181-18.965-41.812-29.791l-12.179-13.714c-9.63-10.825-20.244-8.16-23.579 5.936l-1.603 6.685c-3.354 14.096-14.781 33.699-25.394 43.558l-2.271 2.124c-10.612 9.875-7.634 20.015 6.621 22.548l26.768 4.743zm379.986 72.71l-26.751-4.741c-14.266-2.531-25.939-4.61-25.939-4.61l-24.299-10.089-23.35-9.694-80.068 33.192 80.166 33.321c13.393 5.562 32.212 18.953 41.842 29.776l12.183 13.703c9.614 10.858 20.218 8.178 23.586-5.92l1.604-6.707c3.334-14.074 14.747-33.683 25.344-43.537l2.319-2.143c10.598-9.861 7.621-20-6.637-22.551zm-26.129-66.398l18.312 1.046c14.452.835 20.077-8.55 12.459-20.882l-3.629-5.85c-7.588-12.333-13.409-34.253-12.918-48.73l.097-3.154c.523-14.469-8.765-19.507-20.625-11.2l-22.27 15.602c-11.839 8.307-21.549 15.108-21.549 15.108s-10.956 4.526-24.314 10.071l-229.616 95.213c-13.358 5.522-36.15 9.397-50.606 8.563l-18.33-1.061c-14.438-.818-20.047 8.58-12.441 20.896l3.629 5.866c7.586 12.312 13.407 34.239 12.9 48.709l-.114 3.175c-.49 14.452 8.796 19.492 20.652 11.184l22.252-15.584 21.583-15.124s10.94-4.526 24.331-10.072l229.583-95.196c13.374-5.553 36.151-9.4 50.614-8.58z"/></svg>