<svg xmlns="http://www.w3.org/2000/svg" viewBox="0 0 512 512"><path d="M451.42 99.773l-170.92.004c-4.949-.125-8.762-9.12-8.762-12.559V85.75c0-7.349-5.959-13.309-13.311-13.309h-84.32c-7.35 0-13.307 5.96-13.307 13.309l.002 1.469c0 3.44-3.82 12.445-8.777 12.562h-12.273c-6.123 1.194-10.752 6.583-10.752 13.061 0 0 .779 11.868 1.742 27.377a13.282 13.282 0 0 1 3.758-.547h84.318c7.352 0 13.309 5.959 13.309 13.309v1.469c0 3.438 3.814 12.434 8.766 12.559l170.92-.005c6.15 1.175 10.799 6.574 10.799 13.067 0 0-4.377 66.594-5.184 90.587-.271 8.174-.705 21.039-1.154 34.445h28.936c7.352 0 8.869-5.96 8.869-13.31 0 0 2.156-64.377 2.961-88.366.803-23.992 5.18-90.585 5.18-90.585-.001-6.495-4.648-11.894-10.8-13.069zm-79.217 134.459l-170.922.004c-4.951-.125-8.76-9.119-8.76-12.559v-1.469c0-7.35-5.961-13.31-13.312-13.31H94.891c-7.35 0-13.311 5.96-13.311 13.31l.002 1.469c0 3.441-3.818 12.447-8.779 12.561H60.535c-6.127 1.194-10.754 6.583-10.754 13.061 0 0 4.379 66.593 5.182 90.586.807 23.989 2.961 88.364 2.961 88.364 0 7.352 1.52 13.31 8.871 13.31H365.99c7.35 0 8.871-5.958 8.871-13.31l2.959-88.364c.805-23.993 5.182-90.586 5.182-90.586 0-6.492-4.648-11.893-10.799-13.067z"/></svg>