<svg xmlns="http://www.w3.org/2000/svg" viewBox="0 0 512 512"><path d="M368.432 110.765l32.367 32.362 34.896-34.898 36.539 36.539V38.783H366.256l37.075 37.077-34.899 34.905zm66.725 293.309l-34.901-34.899-32.37 32.368 34.9 34.899-36.534 36.536h105.986V366.996l-37.081 37.078zm-294.656-3.081l-32.37-32.365-34.898 34.902L36.7 366.993v105.985h105.979l-37.079-37.08 34.901-34.905zm-31.828-258.41l32.373-32.365-34.903-34.899 36.538-36.536H36.698v105.978l37.08-37.075 34.895 34.897zm278.314 157.969v-86.92c0-35.993-29.179-65.169-65.17-65.169H186.109c-35.991 0-65.171 29.177-65.171 65.169v86.92c0 35.993 29.18 65.168 65.171 65.168h135.708c35.992 0 65.17-29.175 65.17-65.168z"/></svg>