<svg xmlns="http://www.w3.org/2000/svg" viewBox="0 0 512 512"><path d="M445.563 89.082H66.437c-9.34 0-16.912 7.571-16.912 16.911V422.92h412.951V105.993c0-9.34-7.571-16.911-16.913-16.911zM93.41 117.458c7.355 0 13.317 5.964 13.317 13.315 0 7.354-5.962 13.316-13.317 13.316-7.354 0-13.317-5.963-13.317-13.316 0-7.351 5.963-13.315 13.317-13.315zm53.296 276.355H78.63V169.06h68.076v224.753zm-5.64-249.723c-7.354 0-13.314-5.963-13.314-13.316 0-7.352 5.96-13.315 13.314-13.315 7.357 0 13.317 5.964 13.317 13.315.001 7.353-5.959 13.316-13.317 13.316zm47.659-26.632c7.356 0 13.315 5.964 13.315 13.315 0 7.354-5.959 13.316-13.315 13.316-7.354 0-13.315-5.963-13.315-13.316-.001-7.351 5.961-13.315 13.315-13.315zM433.37 393.813H175.812V169.06H433.37v224.753z"/></svg>