<svg xmlns="http://www.w3.org/2000/svg" viewBox="0 0 512 512"><path d="M404.57 105.592c-41.244-41.266-95.477-61.967-149.535-61.949-54.064-.018-108.296 20.684-149.54 61.949-41.745 41.73-61.961 96.664-61.935 151.076-.013 53.703 21.164 107.231 61.935 147.995 41.251 41.26 95.476 61.964 149.54 61.944h.08c54.031 0 108.23-20.704 149.455-61.944 41.265-41.249 61.967-95.476 61.947-149.54.02-54.062-20.682-108.295-61.947-149.531zm-25.443 273.623c-34.32 34.303-79.121 51.387-124.091 51.408-44.976-.021-89.777-17.1-124.09-51.408-34.01-34.021-51.386-78.254-51.401-122.547.028-45.648 16.802-91.021 51.401-125.633 34.313-34.303 79.115-51.379 124.09-51.404 44.97.025 89.777 17.102 124.091 51.404 34.301 34.305 51.379 79.112 51.399 124.088-.02 44.973-17.098 89.778-51.399 124.092zm10.853-164.598c-6.478-21.637-18.254-42.029-35.332-59.104a6.264 6.264 0 0 0-8.854 0c-2.441 2.452-2.441 6.417.006 8.856 15.322 15.316 25.928 33.537 31.881 52.89-8.026 4.086-13.535 12.401-13.535 22.026 0 11.668 8.086 21.416 18.95 24.018-1.909 30.082-14.305 59.588-37.302 82.586-25.081 25.071-57.895 37.587-90.763 37.594-32.869-.007-65.678-12.522-90.756-37.594a129.78 129.78 0 0 1-4.471-4.701 17.003 17.003 0 0 0 2.28-8.506c0-9.447-7.656-17.106-17.104-17.106-1.044 0-2.062.11-3.057.289a127.404 127.404 0 0 1-14.414-46.167c10.667-2.746 18.558-12.393 18.558-23.916 0-10.298-6.299-19.119-15.25-22.836a127.472 127.472 0 0 1 21.838-45.201l22.059 22.062a97.326 97.326 0 0 0-17.224 55.316c-.006 24.94 9.535 49.938 28.574 68.975a97.228 97.228 0 0 0 29.312 20.139c-.011.306-.046.607-.046.92 0 13.654 11.067 24.718 24.721 24.718 11.183 0 20.62-7.421 23.674-17.608 21.986-1.958 43.464-11.347 60.28-28.168 19.034-19.036 28.581-44.034 28.573-68.975.008-24.941-9.539-49.949-28.573-68.969a6.266 6.266 0 0 0-8.854 0 6.26 6.26 0 0 0 .007 8.857c16.609 16.605 24.891 38.333 24.898 60.111-.008 21.777-8.289 43.502-24.905 60.119-14.297 14.293-32.374 22.407-51.017 24.4-2.508-10.996-12.327-19.21-24.084-19.21-8.884 0-16.653 4.703-21.011 11.74-8.727-4.075-16.906-9.715-24.121-16.931-16.618-16.623-24.899-38.342-24.905-60.119.005-16.153 4.576-32.272 13.711-46.307l45.471 45.477c0 .082-.012.164-.012.244 0 13.658 11.069 24.723 24.722 24.723 13.655 0 24.723-11.064 24.723-24.723 0-13.043-10.111-23.705-22.92-24.631l-90.243-90.246c-7.028-7.028-18.421-7.028-25.45 0-7.021 7.031-7.021 18.42 0 25.445l3.719 3.721a140.088 140.088 0 0 0-25.423 52.436c-12.22 1.496-21.687 11.893-21.687 24.52 0 11.42 7.751 21.002 18.271 23.842a140.008 140.008 0 0 0 16.387 52.854 16.985 16.985 0 0 0-3.403 10.205c0 9.441 7.658 17.102 17.102 17.102 1.757 0 3.45-.268 5.046-.758a145.385 145.385 0 0 0 5.395 5.719c27.486 27.49 63.58 41.26 99.611 41.26 36.031 0 72.122-13.77 99.616-41.26 25.48-25.483 39.157-58.353 41.02-91.71 10.345-2.954 17.922-12.454 17.922-23.749-.001-13.28-10.477-24.084-23.611-24.669z"/></svg>