<svg xmlns="http://www.w3.org/2000/svg" viewBox="0 0 512 512"><path d="M309.632 422.164c-.884-3.977-1.507-7.9-1.998-11.611H203.906c-.949 7.455-2.584 15.862-5.461 23.609-2.91 7.816-7.032 14.914-12.625 19.916-5.623 4.974-12.588 8.111-22.333 8.145v9.287h184.6v-9.287c-9.745-.033-16.742-3.171-22.365-8.16-8.376-7.458-13.442-19.801-16.09-31.899zm150.46-381.498H51.448c-6.798 0-12.327 5.508-12.327 12.326v323.387c0 6.801 5.529 12.33 12.327 12.33h408.644c6.801 0 12.325-5.529 12.325-12.33V52.992c0-6.818-5.524-12.326-12.325-12.326zm-17.595 263.245H69.077V70.59h373.42v233.321z"/></svg>