<svg xmlns="http://www.w3.org/2000/svg" viewBox="0 0 512 512"><path d="M179.723 136.117h152.551v29.351H179.723zm-21.498 51.628h195.551v38.382H158.225zm-21.529 91.296H192.858v63.934c0 5.223 4.246 9.471 9.471 9.471h107.346c5.224 0 9.473-4.248 9.473-9.471v-63.934h56.156v-27.63H136.696v27.63zm243.66-209.564h-248.78L47.252 287.765v154.759h417.494V285.358l-84.39-215.881zm-47.002 223.772v49.726c0 13.078-10.604 23.679-23.68 23.679H202.329c-13.076 0-23.68-10.601-23.68-23.679v-49.726H93.358l69.066-178.771h187.215l69.891 178.771h-86.176z"/></svg>