<svg xmlns="http://www.w3.org/2000/svg" viewBox="0 0 512 512"><path d="M449.337 362.335h-35.842v-.555c-.065-15.959-5.492-31.639-13.781-45.459-8.39-13.799-19.755-25.882-33.815-33.371l-62.036-32.62c-7.602-3.941-15.957-12.211-21.845-22.086-6.001-9.797-9.435-21.077-9.386-29.595v-48.793h38.899c15.598 0 28.257-12.673 28.257-28.274V55.955c0-15.6-12.659-28.274-28.257-28.274H203.108c-15.613 0-28.271 12.674-28.271 28.274v65.627c0 15.601 12.658 28.274 28.271 28.274h38.884v48.793c.063 8.518-3.387 19.782-9.37 29.595-5.886 9.859-14.242 18.161-21.86 22.086l-62.035 32.62c-14.08 7.489-25.442 19.572-33.829 33.371-8.061 13.439-13.359 28.668-13.703 44.15H62.246c-15.632 0-28.271 12.654-28.271 28.252v65.635c0 15.615 12.64 28.267 28.271 28.267h108.407c15.614 0 28.286-12.651 28.286-28.267v-65.635c0-15.598-12.672-28.252-28.286-28.252h-38.835c.265-8.387 3.648-18.988 9.32-28.301 5.887-9.883 14.24-18.184 21.846-22.092l62.067-32.638c13.228-7.033 24.038-18.182 32.262-30.968 8.224 12.787 19.014 23.935 32.258 30.968l62.053 32.638c7.618 3.924 15.959 12.209 21.845 22.092 6.001 9.791 9.468 21.056 9.385 29.609v.555h-41.905c-15.615 0-28.272 12.654-28.272 28.269v65.634c0 15.602 12.657 28.253 28.272 28.253h108.389c15.63 0 28.287-12.651 28.287-28.253v-65.634c-.001-15.614-12.658-28.268-28.288-28.268z"/></svg>