<svg xmlns="http://www.w3.org/2000/svg" viewBox="0 0 512 512"><path d="M325.002 156.516c0-38.109-30.895-69.002-69.002-69.002s-69.002 30.893-69.002 69.002c0 33.114 23.332 60.767 54.449 67.45V408.05c-10.439 1.436-17.604 4.361-17.604 7.743 0 4.802 14.396 8.693 32.156 8.693 17.762 0 32.158-3.892 32.158-8.693 0-3.382-7.164-6.307-17.605-7.743V223.966c31.118-6.683 54.45-34.336 54.45-67.45zm-93.967-3.962c-10.697 0-19.369-8.669-19.369-19.367 0-10.694 8.672-19.364 19.369-19.364 10.695 0 19.365 8.669 19.365 19.364 0 10.698-8.67 19.367-19.365 19.367z"/></svg>