<svg xmlns="http://www.w3.org/2000/svg" viewBox="0 0 512 512"><path d="M75.032 473.603h167.263v-186.06H75.032v186.06zm376.972-315.941h-98.111c6.963-3.576 13.174-7.346 18.679-11.301 21.239-15.16 32.416-34.379 32.378-53.484.012-15.646-7.432-29.458-18.176-38.812-10.775-9.414-25.022-14.967-40.336-14.99-16.318-.009-31.459 5.64-44.43 14.297-19.507 13.075-34.857 32.779-45.791 54.401a199.951 199.951 0 0 0-1.536 3.163c-4.003-8.333-8.658-16.398-13.919-23.972-9.249-13.19-20.371-24.897-33.392-33.592-12.974-8.661-28.115-14.303-44.429-14.297-16.226.057-31.074 6.869-42.202 17.332-11.077 10.466-18.858 25.202-18.9 41.922-.03 9.776 2.827 19.986 8.691 29.263 7.371 11.668 19.049 21.777 35.218 30.07H57.631c-11.747 0-21.273 9.523-21.273 21.274v78.88h205.937V157.662h25.041v100.154h205.941v-78.88c0-11.751-9.527-21.274-21.273-21.274zm-299.112-31.28c-8.311-5.219-13.363-10.498-16.311-15.179-2.93-4.716-3.94-8.843-3.965-12.874-.044-6.749 3.331-13.948 9.257-19.547 5.83-5.552 13.754-8.934 20.889-8.934h.18c9.152.007 18.271 3.103 27.365 9.14 13.593 8.983 26.413 24.746 35.363 42.625 4.572 9.032 8.145 18.585 10.552 27.899-41.212-4.263-67.922-13.378-83.33-23.13zm140.94-21.767c7.439-10.654 16.19-19.612 25.238-25.626 9.096-6.037 18.214-9.133 27.367-9.14h.096c7.671 0 14.942 2.942 19.958 7.364 5.059 4.501 7.669 9.887 7.683 15.664-.044 6.852-3.641 16.84-19.615 28.524-15.213 11.04-41.457 22.377-81.949 30.297 3.881-16.083 11.325-33.081 21.222-47.083zm-26.496 368.988H434.6v-186.06H267.336v186.06z"/></svg>