<svg xmlns="http://www.w3.org/2000/svg" viewBox="0 0 512 512"><path d="M445.271 140.871c0-28.207-22.925-51.165-51.113-51.165H65.932v39.277h3.463c6.182 0 11.218 5 11.218 11.2 0 6.18-5.036 11.201-11.218 11.201h-3.463v211.153h3.463c6.182 0 11.218 5.006 11.218 11.201 0 6.164-5.036 11.201-11.218 11.201h-3.463v37.247h328.225c28.188 0 51.113-22.94 51.113-51.132v-60.549h-74.003c-16.221 0-29.432-13.174-29.432-29.446v-50.212c0-16.27 13.211-29.446 29.432-29.446h74.003v-60.53zm-82.05 221.666h19.752v-20.553c0-6.181 5.004-11.183 11.185-11.183 6.182 0 11.187 5.002 11.187 11.183v29.25c0 .654-.035 1.179-.165 1.605-.817 6.803-6.508 12.1-13.474 12.1h-28.484c-6.179 0-11.183-5.037-11.183-11.201-.001-6.195 5.003-11.201 11.182-11.201zm-230.022 22.402h-22.402c-6.182 0-11.183-5.037-11.183-11.201 0-6.195 5.001-11.201 11.183-11.201h22.402c6.181 0 11.215 5.006 11.215 11.201 0 6.164-5.034 11.201-11.215 11.201zm0-233.555h-22.402c-6.182 0-11.183-5.021-11.183-11.201 0-6.199 5.001-11.2 11.183-11.2h22.402c6.181 0 11.215 5 11.215 11.2 0 6.179-5.034 11.201-11.215 11.201zm63.114 233.555H173.91c-6.146 0-11.182-5.037-11.182-11.201 0-6.195 5.035-11.201 11.182-11.201h22.403c6.178 0 11.183 5.006 11.183 11.201 0 6.164-5.004 11.201-11.183 11.201zm0-233.555H173.91c-6.146 0-11.182-5.021-11.182-11.201 0-6.199 5.035-11.2 11.182-11.2h22.403c6.178 0 11.183 5 11.183 11.2 0 6.179-5.004 11.201-11.183 11.201zm63.081 233.555h-22.37c-6.177 0-11.216-5.037-11.216-11.201 0-6.195 5.039-11.201 11.216-11.201h22.37c6.213 0 11.216 5.006 11.216 11.201-.001 6.164-5.004 11.201-11.216 11.201zm0-233.555h-22.37c-6.177 0-11.216-5.021-11.216-11.201 0-6.199 5.039-11.2 11.216-11.2h22.37c6.213 0 11.216 5 11.216 11.2-.001 6.179-5.004 11.201-11.216 11.201zm63.114 233.555h-22.399c-6.183 0-11.185-5.037-11.185-11.201 0-6.195 5.002-11.201 11.185-11.201h22.399c6.18 0 11.217 5.006 11.217 11.201 0 6.164-5.037 11.201-11.217 11.201zm0-233.555h-22.399c-6.183 0-11.185-5.021-11.185-11.201 0-6.199 5.002-11.2 11.185-11.2h22.399c6.18 0 11.217 5 11.217 11.2 0 6.179-5.037 11.201-11.217 11.201zm82.836 20.533c0 6.185-5.005 11.216-11.187 11.216-6.181 0-11.185-5.032-11.185-11.216v-20.533H363.22c-6.179 0-11.183-5.021-11.183-11.201 0-6.199 5.004-11.2 11.183-11.2h28.484c6.966 0 12.656 5.281 13.474 12.065.13.445.165.967.165 1.602v29.267zm-36.663 84.027c0 14.062 11.417 25.459 25.509 25.459 14.029 0 25.444-11.397 25.444-25.459 0-14.042-11.415-25.455-25.444-25.455-14.092 0-25.509 11.412-25.509 25.455z"/></svg>