<svg xmlns="http://www.w3.org/2000/svg" viewBox="0 0 512 512"><path d="M370.261 183.393c-5.674-3.548-12.311-7.326-19.448-7.326-1.332 0-2.811.131-4.372.486l.853-4.781c.954-5.402 1.845-23.377-26.688-28.45-3.098-.552-5.814-.821-8.303-.821-7.93 0-14.067 2.836-17.999 8.16l-.126-2.648-.006-.176-.016-.178c-.521-6.301-4.059-20.947-25.545-20.947-1.562 0-3.248.072-5.012.218-19.947 1.658-25.787 11.308-27.216 18.954-4.157-10.988-14.78-18.732-27.263-18.732-.36 0-.725.006-1.087.018-7.754.282-14.955 3.574-20.254 9.274-5.306 5.697-8.067 13.126-7.781 20.913l1.293 28.559c.004 9.138.184 17.01.426 23.807-4.244-11.217-15.044-18.816-27.238-18.816-2.512 0-5.018.326-7.45.971-7.527 1.983-13.828 6.781-17.748 13.512-3.917 6.727-4.979 14.576-2.99 22.104l.313 1.188.595 1.08 40.726 74.064c14.429 26.026 30.604 39.923 38.697 45.755l.238 26.561.09 9.927h130.488l.149-9.859.46-28.955 36.825-116.144.084-.262.067-.27.946-3.659c4.975-19.199 8.907-34.369-5.708-43.527z"/></svg>