<svg xmlns="http://www.w3.org/2000/svg" viewBox="0 0 512 512"><path d="M131.408 46.941c-13.312.072-25.541 3.347-35.395 9.519-4.941 3.13-9.325 7.05-12.638 11.991-3.315 4.905-5.475 11.001-5.459 17.444v328.703c-.016 6.447 2.144 12.545 5.459 17.448 5.006 7.398 12.26 12.545 20.489 16.09 8.101 3.446 17.312 5.331 27.122 5.414l252.696 19.647v-47.736l49.976-2.327V38.513l-302.25 8.428zm149.497 248.431l-104.428-8.117 2.384-30.685 104.428 8.122-2.384 30.68zm46.476-73.339l-180.943-14.494 2.453-30.679 180.944 14.491-2.454 30.682zm78.957 175.029l-22.654 1.053V117.101L132.196 97.538h-.574c-8.726.036-16.434-2.348-21.026-5.3-2.303-1.442-3.794-2.979-4.526-4.091-.739-1.148-.82-1.712-.838-2.252.018-.539.099-1.099.838-2.249 1.067-1.676 3.977-4.256 8.523-6.171 4.516-1.935 10.486-3.227 17.029-3.221h.126l274.59-7.661v330.469z"/></svg>