<svg xmlns="http://www.w3.org/2000/svg" viewBox="0 0 512 512"><path d="M316.896 332.236c1.636-6.241 2.484-12.784 2.484-19.538 0-42.576-34.501-77.078-77.045-77.078-32.015 0-59.452 19.507-71.127 47.288-10.007-11.756-24.919-19.229-41.562-19.229-30.12 0-54.549 24.43-54.549 54.563 0 5.165.724 10.188 2.096 14.931-24.624 9.041-42.153 32.651-42.153 60.397 0 35.5 28.778 64.309 64.291 64.309h198.206c35.545 0 64.292-28.809 64.292-64.309-.001-28.774-18.87-53.121-44.933-61.334zM434.39 151.594a54.815 54.815 0 0 0 2.095-14.946c0-30.134-24.461-54.542-54.581-54.542-16.642 0-31.555 7.449-41.561 19.229-11.643-27.785-39.08-47.288-71.096-47.288-42.575 0-77.077 34.501-77.077 77.077 0 6.733.884 13.293 2.486 19.524-26.064 8.207-44.934 32.552-44.934 61.33 0 11.723 3.142 22.697 8.635 32.161a71.882 71.882 0 0 1 6.08 2.635c19.034-22.55 47.289-36.084 77.897-36.084 43.43 0 80.544 27.288 95.261 65.612h74.658c35.514 0 64.291-28.825 64.291-64.323.001-27.732-17.56-51.362-42.154-60.385z"/></svg>