<svg xmlns="http://www.w3.org/2000/svg" viewBox="0 0 512 512"><path d="M233.471 269.035l36.168-36.165-110.304-110.306 55.364-55.375H67.804v146.945l55.364-55.4 110.303 110.301zm22.825-201.519v51.158c37.934 0 72.042 15.306 96.929 40.163 24.82 24.853 40.092 58.958 40.125 96.892-.033 37.9-15.305 72.012-40.125 96.896-24.887 24.82-58.995 40.096-96.929 40.142-.031 0-.13 0-.164.017-37.867-.101-71.878-15.369-96.73-40.158-24.822-24.885-40.126-58.996-40.126-96.896H68.097c.034 103.926 84.272 188.147 188.199 188.147l25.573-1.717c91.663-12.424 162.332-90.876 162.625-185.839 0-.197.031-.428.031-.592-.031-103.958-84.271-188.213-188.229-188.213z"/></svg>