<svg xmlns="http://www.w3.org/2000/svg" viewBox="0 0 512 512"><path d="M374.638 173.241c-1.519 16.622-6.36 32.451-14.023 47.062-.472.818-45.887 82.276-45.887 133.174l-1.552 15.067c-2.454 10.046-7.57 15.153-15.257 15.153h-87.257c-7.651 0-12.783-5.107-15.247-15.153l-1.542-15.067c0-50.897-45.428-132.355-45.515-133.174-8.032-14.61-12.896-30.44-14.403-47.062l-.514-11.114c0-32.273 12.555-62.621 35.387-85.443 22.84-22.846 53.181-35.427 85.477-35.427a121.2 121.2 0 0 1 34.115 4.879c19.308 5.683 37.055 16.248 51.361 30.548 22.812 22.822 35.373 53.158 35.373 85.443l-.516 11.114zM205.169 435.373v-30.777h98.265v30.777h-98.265zm21.355 35.454v-17.394h55.55v17.394h-55.55z"/></svg>