<svg xmlns="http://www.w3.org/2000/svg" viewBox="0 0 512 512"><path d="M422.32 200.572L282.21 307.434l33.779-81.264c-.359-7.125-6.65-14.58-17.22-20.256l-41.781 100.512-43.389-100.705c-10.208 5.393-16.52 12.432-17.48 19.275l36.426 84.539L89.679 200.572c-9.877 3.02-17.729 7.391-22.963 12.266l158.297 120.734h61.973l158.299-120.734c-5.235-4.875-13.086-9.244-22.965-12.266zM183.5 357.25h145.002v98.932H183.5zm139.539-153.479c11.408-27.387 12.947-53.031 4.48-76.395-15.508-42.801-59.992-66.127-71.514-71.559-11.527 5.455-56.121 28.91-71.559 71.645-8.43 23.338-6.881 48.955 4.511 76.309 12.946-14.42 37.825-23.994 67.043-23.994s54.097 9.578 67.039 23.994zM285.335 55.879c19.421 12.965 44.26 34.771 55.783 66.568 7.775 21.457 8.337 44.346 1.734 68.359 13.297-6.902 30.602-11.029 49.771-11.029 25.079 0 47.15 7.012 61.081 18.262-3.273-72.31-75.346-131.705-168.369-142.16zM119.373 179.777c19.172 0 36.475 4.127 49.775 11.031-6.606-24.014-6.042-46.904 1.732-68.361 11.523-31.797 36.359-53.604 55.783-66.568-93.021 10.455-165.093 69.848-168.367 142.16 13.928-11.25 35.998-18.262 61.077-18.262z"/></svg>