<svg xmlns="http://www.w3.org/2000/svg" viewBox="0 0 512 512"><path d="M234.979 138.555c-6.706 0-12.135 5.398-12.135 12.121v28.106c0 6.701 5.429 12.13 12.135 12.13 6.672 0 12.099-5.429 12.099-12.13v-28.106c0-6.723-5.427-12.121-12.099-12.121zm41.564 182.704c-6.672 0-12.1 5.431-12.1 12.136v28.12c0 6.688 5.428 12.1 12.1 12.1 6.705 0 12.131-5.411 12.131-12.1v-28.12c0-6.706-5.426-12.136-12.131-12.136zm-41.564 0c-6.706 0-12.135 5.431-12.135 12.136v28.12c0 6.688 5.429 12.1 12.135 12.1 6.672 0 12.099-5.411 12.099-12.1v-28.12c0-6.706-5.427-12.136-12.099-12.136zM361.271 65.978H150.25c-13.375 0-24.201 10.805-24.201 24.167v331.873c0 13.339 10.826 24.181 24.201 24.181h211.022c13.344 0 24.167-10.842 24.167-24.148V90.144c-.001-13.362-10.824-24.166-24.168-24.166zM255.744 411.026c-35.122 0-63.57-28.465-63.57-63.575 0-35.119 28.449-63.581 63.57-63.581 35.122 0 63.573 28.462 63.573 63.581 0 35.111-28.451 63.575-63.573 63.575zm0-182.734c-35.122 0-63.57-28.45-63.57-63.573 0-35.087 28.449-63.574 63.57-63.574 35.122 0 63.573 28.486 63.573 63.574 0 35.122-28.451 63.573-63.573 63.573zm20.799-89.737c-6.672 0-12.1 5.398-12.1 12.121v28.106c0 6.701 5.428 12.097 12.1 12.097 6.705 0 12.131-5.396 12.131-12.097v-28.106c0-6.723-5.426-12.121-12.131-12.121z"/></svg>