<svg xmlns="http://www.w3.org/2000/svg" viewBox="0 0 512 512"><path d="M187.154 176.858v139.633c0 15.601 12.656 28.259 28.252 28.259h14.748v118.936H281.3V344.75h14.748c15.615 0 28.287-12.658 28.287-28.259V176.858H187.154zm102.291 61.448h-3.338c-.195 5.163-.784 9.417-2.321 13.309-2.028 5.133-5.772 8.993-10.792 12.325-4.381 2.979-7.129 5.466-8.861 8.486-1.7 2.948-2.746 6.855-2.828 13.229v8.783c5.084 2.139 8.666 7.146 8.666 12.98 0 7.768-6.295 14.08-14.078 14.08-7.767 0-14.062-6.312-14.062-14.08 0-6.083 3.858-11.263 9.271-13.229-.491-2.81-1.26-4.938-2.306-6.718-1.735-3.042-4.48-5.53-8.864-8.486-5.019-3.354-8.729-7.194-10.756-12.331-1.768-4.479-2.324-9.386-2.422-15.626a9.526 9.526 0 0 1-4.725-8.229 9.59 9.59 0 0 1 9.599-9.596c5.28 0 9.58 4.283 9.58 9.596 0 3.486-1.879 6.526-4.676 8.229.1 5.654.655 9.429 1.701 11.997 1.227 2.94 2.975 4.97 7.195 7.863 2.192 1.49 4.25 3.026 6.099 4.727v-55.493h-5.771l10.675-18.348 10.677 18.348h-5.787v40.517c1.896-1.716 3.956-3.271 6.215-4.774 4.184-2.91 5.934-4.938 7.16-7.896.916-2.191 1.455-5.265 1.635-9.663h-3.123v-16.319h16.238v16.319zm19.278-190.098H202.736v100.43h105.987V48.208zm-66.175 76.623h-17.446V98.686h17.446v26.145zm42.841 0h-17.461V98.686h17.461v26.145z"/></svg>