<svg xmlns="http://www.w3.org/2000/svg" viewBox="0 0 512 512"><path d="M361.403 74.259H151.361c-11.706 0-21.191 9.484-21.191 21.187v321.278c0 11.693 9.485 21.192 21.191 21.192h210.042c11.675 0 21.16-9.499 21.16-20.7V95.921c0-12.178-9.485-21.662-21.16-21.662zM211.436 406.654h-46.112V360.56h46.112v46.094zm0-67.793h-46.112V292.75h46.112v46.111zm69.327 67.793h-46.11V360.56h46.11v46.094zm0-67.793h-46.11V292.75h46.11v46.111zm68.38 67.793h-46.109V360.56h46.109v46.094zm0-67.793h-46.109V292.75h46.109v46.111zm-137.707-69.26h-46.112v-46.11h46.112v46.11zm69.327 0h-46.11v-46.11h46.11v46.11zm68.38 0h-46.109v-46.11h46.109v46.11zm0-86.204H165.324v-75.229h183.819v75.229z"/></svg>