<svg xmlns="http://www.w3.org/2000/svg" viewBox="0 0 512 512"><path d="M230.384 224.6c4.293-11.035-1.231-16.553-6.143-16.553-22.688 0-52.154 53.374-63.173 53.374-4.311 0-7.99-4.307-7.99-7.985 0-11.043 26.991-36.805 34.982-44.783 24.528-23.312 56.44-41.104 92.027-41.104 26.368 0 54.601 15.945 32.515 75.471L268.42 362.638c-3.665 9.205-10.415 24.557-10.415 34.367 0 4.29 2.438 8.595 7.348 8.595 18.396 0 52.155-52.158 60.748-52.158 3.061 0 7.351 3.675 7.351 9.196 0 17.793-71.771 93.876-133.744 93.876-22.088 0-37.423-10.421-37.423-33.738 0-29.441 20.854-79.757 25.169-90.194l42.93-107.982zm33.125-120.861c0-26.992 23.309-49.073 50.308-49.073 24.556 0 42.336 16.554 42.336 41.716 0 28.233-23.303 49.094-50.914 49.094-25.151 0-41.73-16.576-41.73-41.737z"/></svg>