<svg xmlns="http://www.w3.org/2000/svg" viewBox="0 0 512 512"><path d="M216.269 251.881v16.153h24.299l2.353 4.939v7.8H216.27v16.154h26.651v23.448h25.838v-23.448h26.844v-16.154h-26.844v-7.8l2.549-4.939h24.295v-16.153H279.48l26.326-52.825H278.27l-21.911 52.825-22.431-52.825h-27.535l25.996 52.825h-16.12zm207.952 99.807v-190.44H306.789c19.751 21.962 32.437 56.428 32.437 95.212 0 38.783-12.686 73.253-32.437 95.229h117.432zM38.668 111.214v289.492h434.865V111.214H38.668zm410.5 265.41H63.031V136.299h386.137v240.325zM172.971 256.46c0-38.784 12.69-73.25 32.475-95.212H87.947v190.441h117.498c-19.784-21.976-32.474-56.446-32.474-95.229z"/></svg>