<svg xmlns="http://www.w3.org/2000/svg" viewBox="0 0 512 512"><path d="M109.038 256.513l96.157-96.149-35.409-35.403L38.225 256.513l131.562 131.565 35.413-35.406-.004-.006-96.158-96.153zm250.855-113.126l-18.438-18.433-35.406 35.411 18.431 18.438 77.723 77.71-96.153 96.153 35.406 35.416 131.566-131.569-113.129-113.126zM160.074 258.438c0 12.386 10.047 22.432 22.436 22.432 12.391 0 22.436-10.046 22.436-22.432 0-12.392-10.045-22.438-22.436-22.438-12.389.001-22.436 10.047-22.436 22.438zm94.549-22.437c-12.392 0-22.435 10.046-22.435 22.438 0 12.386 10.043 22.432 22.435 22.432 12.39 0 22.434-10.046 22.434-22.432 0-12.392-10.044-22.438-22.434-22.438zm72.109 44.869c12.389 0 22.437-10.046 22.437-22.432 0-12.392-10.048-22.438-22.437-22.438-12.391 0-22.434 10.046-22.434 22.438.001 12.386 10.044 22.432 22.434 22.432z"/></svg>