<svg xmlns="http://www.w3.org/2000/svg" viewBox="0 0 512 512"><path d="M414.422 265.342c-.039 1.591-.332 2.97-.641 4.428-.305 1.427-.619 2.902-.682 4.617l-.049 2.132.459.368c.293.231.633.354.984.354h.002c.68 0 2.732-.016 2.904-10.206l.002-.224-.689-1.854-2.29.385zM157.553 123.706l1.74-.396.252-.33c.654-.867.826-1.626.514-2.256-.324-.647-1.064-.936-1.9-.677-.74.228-2.387 1.259-2.066 2.473.28 1.07 1.116 1.186 1.46 1.186zm156.32-28.142c-1.217-.756-4.303-.307-4.76.452 3.961.569 6.102.389 4.76-.452zm-4.76.453c-.199-.027-.379-.048-.588-.082l.562.267c.003-.063-.011-.126.026-.185zm-131.595 36.079l.014-.001c.122-.073.089-.056-.014.001zm-15.254.259c.473-.05 1.602-.269 1.883-1.236.041-.148.08-.287.141-.554l.262-1.447h-1.477c-1.068 0-1.928.618-2.361 1.693l-.842 2.096 2.394-.552zm54.127 45.444l.354.194 1.848-.292.869-.042.33-.503c.494-.742.463-2.076.338-2.971l1.439-3.107-1.569-.231a6.243 6.243 0 0 0-.697-.027c-.988 0-7.771.209-9.041.704l-.705.456-.041.763c-.039.695-.069 1.244 6.875 5.056zm-18.262-17.778c.205.696.457 1.529.895 2.175-.055.037-.119.041-.17.085l-.223.166c-.887.652-1.521 1.177-1.586 1.937l.141.812.375.387s.039.085.051.196l-.07.387c-.361.782-.74 1.933-.783 2.667l-.008.592.887.803h.512c1.232 0 3.932-1.422 5.775-3.038l.684-.597-2.182-4.452-.326-.053c1.541-2.241 1.107-4.158.402-5.419l-.67-1.201-1.086.843a5.475 5.475 0 0 1-2.186 1.028l-1.883.358 1.176 1.485c.064.119.193.553.275.839zm124.537-62.688l.287.091 2.279-.454.666-.287.543-1.145-.371-.558c-.158-.233-.371-.556-3.588-1.959l-.369-.16-1.545.385-.416-.169-.531.383a1.4 1.4 0 0 0-.58 1.379c.057.353.23 1.432 3.625 2.494zM155.781 135.63c.248-1.161.451-2.344.602-3.524l.059-.244c-.582-.267-1.646-.661-3.375-1.106l-.002.005.033.031-.107.746c-.084.387-.234 1.102-3.055 2.123l-.281.25c.209.275.289.548.318.713.068.357.096 1.281-1.076 2.082-.264.216-.646 1.14-.795 1.751.072-.009.152-.022.238-.041 1.818-.158 5.836-1.701 7.441-2.786zm11.53-6.515c.543.098.953.227 1.242.635l.285.406-.082.524c-.145.757-1.32 1.839-2.104 2.278-.322.184-.889.426-1.463.664-.27.111-.648.27-.939.401v.006c-.162.678-.793 1.922-1.812 2.462.305.041.648.087 1.035.136a40.263 40.263 0 0 0 1.822-.68l2.359-2.234-.078 2.712.096.182-.17.501c-.16.459-.533.686-.881.846l-1.346 1.277-1.543-.186c-1.117.39-2.471.839-3.953 1.316l.012.048c5.143-.578 13.168-2.235 17.389-4.22a1.331 1.331 0 0 1-.061-.188c-.078-.295-.223-1.321 1.1-2.044.021-.042.123-.352.062-.743-.006-.057-.02-.112-.033-.166l-.391.222-.018-.029-.578.081c-.359 0-1.027-.079-1.469-.618l-.355-.435.188-1.396.154-.064c-.029-.042-.062-.083-.096-.127-1.275-1.559-4.998-3.047-7.092-3.605l-1.28 2.038zm-5.936-3.79c.033-.001.062-.003.096-.003.83.124 1.281.678 1.496.995a3.21 3.21 0 0 1 .566 1.771c1.033-.162 2.049-.403 2.254-.466l2.209-.692a3.483 3.483 0 0 0-.662-.089h-1.797l.67-1.65c.367-.854 1.25-1.517 2.178-2.214.227-.171.488-.365.74-.572-1.469.2-3.002.376-3.533.376h-.6l-.812-.962.029-.119c-.609.064-1.389.182-2.303.384l-.045.132c.045.078.078.159.105.244l.176.562-.359.586a1.456 1.456 0 0 1-.205.229 2.732 2.732 0 0 1-.346 1.243c.039.055.074.113.105.172l.038.073zm4.012 18.591v-.007h-.002zm157.506 207.16c-4.346 4.78-8.449 9.297-10.295 16.479-.127 2.151.258 6.593 1.969 8.419.498.535 1.047.781 1.727.781l.139-.002c8.408-.935 14.486-20.064 15.215-28.021l.09-1.018.795-.044c.352-.889.883-3.627 1.066-7.979l-1.82-.124c-2.646 4.645-5.814 8.132-8.886 11.509zM256 49.523c-114.033 0-206.477 92.443-206.477 206.478 0 114.033 92.443 206.476 206.477 206.476s206.477-92.442 206.477-206.476S370.033 49.523 256 49.523zm0 389.275c-100.795 0-182.797-82.002-182.797-182.797 0-100.796 82.002-182.798 182.797-182.798 26.637 0 51.936 5.773 74.783 16.062-.66.068-1.289.271-1.701.647a2.772 2.772 0 0 1-.428.047c-.803 0-1.471.523-1.664 1.307-.211.85.174 1.753.912 2.146l.342.18c.316.166.508.268.643.33v.002c4.695 2.011 9.072 3.075 14.143 4.308l.973-2.11c-.115-.083-.24-.155-.355-.236l.004-.01-.006.01c-.02-.015-.041-.026-.059-.041l.004-.01a1.678 1.678 0 0 0-.096-.051 36.731 36.731 0 0 0-1.689-1.128c1.359.724 2.693 1.484 4.033 2.244l-.67.044-.715 1.075.312.893.258.21c1.463 1.198 3.117 1.842 4.916 1.92l2.174.089-.5-.85a185.647 185.647 0 0 1 9.74 6.477c-5.875-1.929-13.133-3.851-16.619-4.385-.082-.012-6.773-1.141-9.357-2.652-1.199.144-6.143.85-12.137 1.939-.002.004-3.643.822-10.664-2.499l-2.006-.947a2.693 2.693 0 0 1-.236.72c-.328.657-.916 1.074-1.611 1.145-.449.045-1.357.055-2.336.061-.992.006-2.064.009-2.756.069-1.9.155-3.35.354-4.092.507-.006.019-.016.041-.023.059-.502 1.08-2.211 1.579-3.572 1.426l-.762-.093c-.941-.117-2.418-.302-3.715-.415.049.19.047.405-.025.651-.287.963-1.35.963-1.752.963-1.953-.019-7.025-2.223-7.758-3.848a1.56 1.56 0 0 1 .102-1.507c.477-.733 1.459-1.048 3.285-1.048 1.859 0 4.559.35 7.805 1.011.076.015 1.531.256 4.047-.976-3.404-1.049-10.938-2.898-17.885-4.451-12.457-2.782-12.447-2.86-12.309-4.139l.012-.095c-.133-.006-.268-.008-.393-.013-1.762-.046-2.879-.097-3.564-.387-.762.003-1.854.292-2.506.466-.537.142-.76.202-.996.202l-.912-.107c-.223.017-.43.056-.566.109-.76.289-2.389.383-2.865.383h-1.076l-.211-.763c-.576-.197-1.59-.453-2.947-.554-1.699-.14-3.332.259-4.18.534-.357.724-1.312.764-1.859.79-.572.024-1.859.378-2.551.568-.688.188-.896.246-1.131.246l-.635-.117a1.874 1.874 0 0 0-.475.087c-.789.245-2.758.548-3.256.548h-.539l-.141-.144a5.746 5.746 0 0 0-1.199-.028c-.652.049-1.707.251-2.229.376-.514.366-1.363.423-2.195.478-.729.048-2.367.501-3.047.72-.535.366-1.496.566-2.906.79-.697.109-1.662.491-2.441.869.033.075.055.153.076.229.393 1.525-1.412 3.395-5.357 5.564-3.543 1.944-8.723 4.089-11.816 5.369-.91.378-1.604.663-1.949.82-.744.579-2.736 1.338-7.936 2.691-.805.21-1.328.55-1.594 1.038-.582 1.059-.012 2.824.33 3.88.09.275.18.551.238.817.334-.022.602-.107 1.1.121.566.053 3.299.059 5.572-.136 1.77-.153 3.891-.535 5.438-.814 1.459-.261 2.18-.389 2.617-.389h.422l.475.291c.055.035.191.11.342.194.781.443 1.35.765 1.412 1.499l.01.114c.133.211.406.572.803.912.035.028 3.031 2.635 3.012 4.158l.023.002c-.004.102.029.461.109.863.182.028.471.06.91.06 1.479 0 3.439-.312 5.119-.815 2.027-.608 3.602-1.821 4.201-2.448l.027-.78c-.025-3.334 2.867-4.021 4.596-4.438 1.232-.291 1.799-.477 1.893-.791-1.166-1.109-1.709-2.458-1.535-3.859.229-1.873 1.723-3.556 4.1-4.614 2.932-1.307 5.412-3.041 6.18-3.688l.139-4.775 1.355.243c3.943.709 8.705 2.062 9.004 4.47.07.602-.076 1.734-1.895 2.551-.826.37-1.727.756-2.607 1.132-1.48.634-3.447 1.476-4.143 1.902-.043.368-.07.793-.072 1.037.127.16.252.326.354.502 1.299.191 4.33.465 8.193.465l.598-.002c4.209 0 7.35 1.549 7.584 3.684.1.905-.242 2.532-3.633 3.285-1.479.329-2.98.664-4.178.945.027.093.049.186.061.281.213 1.462-1.188 3.315-2.432 3.682-.227.066-.582.141-1.023.229-1.488.297-4.26.853-5.199 2.231-1.848 2.715-10.105 4.472-10.445 4.472h-.227c-.73.104-3.35.597-6.971 1.49a14.112 14.112 0 0 1-3.383.393c-.742 0-4.215-.221-5.771-1.088-.273.02-.682.089-1.182.234-.982.285-2.877.306-3.432.306-3.375 0-4.15-.528-4.41-.731-.363.276-.803.461-1.172.461h-.531l-.734-.802.061-.54c.059-.496.777-1.599 1.242-2.271-.002.022-.02.032-.02.053-.072.697.492 1.373.867 1.636.064.046.166.056.236.093l-.914.862 2.895-.056.01.028 3.756-.067.285-.768c.242-.659.779-2.282.49-3.115-.332-.967-1.463-.967-1.889-.967-.381 0-1.676.043-2.326.57a2.52 2.52 0 0 0-.564.669 2.737 2.737 0 0 0-.83-.158h-.004c-.463.021-.969.113-1.363.339.318-.443.613-.878.803-1.186-.027-.04-.059-.076-.086-.108-.217-.209-1.758-1.127-2.949-.833-1.068.25-2.109 2.503-2.039 3.108.191.247.236.795.055 1.445-.494 1.77-3.021 5.185-7.08 7.24-1.537.776-3.459 1.773-5.441 2.8-3.818 1.978-7.764 4.021-9.789 4.948-1.375.632-3.496 1.383-5.549 2.113-1.531.541-3.561 1.266-4.285 1.622a1.792 1.792 0 0 1-.264.385c-.785.887-2.738 1.503-4.752 1.503l-.26-.002c-.652 0-1.314.206-1.902.481.814.191 1.801.411 2.893.639 2.654.548 4.559 3.521 5.254 4.773.982 1.771.84 2.162.721 2.477-.039.106-.1.246-.162.378l.152.812-2.311.451-.049-.231a696.08 696.08 0 0 0-8.113-.042l-1.957.002c-5.477.013-12.734 9.991-13.104 11.635-.416 1.857-.816 5.688-.818 6.653.4.721 1.055 2.314.906 4.049l-.109 1.075c.652.309 1.703.776 2.877 1.254.035.016.381.146 1.422.146 2.412 0 6.557-.693 9.043-1.808l.414-.102 2.986-.178c.629-.677 1.816-1.789 4.002-3.845 1.842-1.729 2.889-2.877 3.264-3.368.189-1.653 4.605-3.94 4.65-3.963 1.979-1.018 5.432-5.363 5.777-6.099l.082.039c.754-1.48 4.852-3.757 12.227-6.785.916-.376 1.93-.564 3.018-.564 4.928 0 10.77 3.861 15.924 7.267 2.109 1.392 4.102 2.708 5.773 3.583l-1.084 2.106c-.223-.112 4.191 4.064 5.291 5.108.354-.13.902-.385 1.199-.653.514-.463 1.422-2.036 1.527-2.615-.129-.345-.195-.883.189-1.54.18-.305.461-.626.795-.92-.961-.529-2.354-1.236-4.229-2.069l-1.074-.481.717-1.628c-.889-.414-2.58-1.091-4.898-1.87-3.336-1.121-5.803-4.869-6.406-6.097-.186-.378-.369-.821-.205-1.312l-.041-.023.037-.819c.084-.98 1.285-1.504 1.799-1.686l.504-.079c1.674 0 8.334 3.204 13.758 7.462l3.469 3.382c5.725 4.77 9.705 7.804 10.539 8.281.461.095.85.401 1.057.853.334.723.156 1.649-.469 2.535l-.004.315.018 2.029c.332.031.656.049.969.049 1.537 0 2.279-.374 2.477-.595-.25-2.545-.25-2.545.127-2.967l.352-.395.531-.004c.379 0 .676.137.885.407.131-.046.273-.102.416-.165-.854-.794-1.475-1.85-1.633-2.32l-.189-.556.088-.169c-.557-.602-1.051-1.534-.951-2.466a1.864 1.864 0 0 1 1.066-1.524c.738-.348 1.918-.098 2.902.166l.369.103c.643-.32 1.834-.576 4.078-.576.951 0 1.924.06 2.895.179.641.076 1.375.011 2.197-.177a9.66 9.66 0 0 1 2.463-.871c.758-.37 1.266-.724 1.561-.98l-.037-.022-.133-.691-.07-2.773.303-.434c3.359-3.743 5.568-6.386 6.074-7.091.102-.663.434-1.66.861-2.354.396-.64 1.068-.908 4.207-.908 8.01 0 8.143.662 8.293 1.434l.188.957-.271.113c.119.161.293.354.523.544.395.318 2.002.779 3.875.779.492 0 .961-.035 1.365-.115.176-.033.338-.075.488-.12a1.733 1.733 0 0 1-.311-.854c-.127-1.335 1.154-2.699 3.047-3.247 1.135-.327 2.791-.54 4.213-.54 1.846 0 2.881.324 3.365 1.048.289.437.336.97.125 1.468-.238.565-.549 4.055 3.711 7 2.324 1.604 3.27 3.171 2.807 4.647-.611 1.968-3.436 2.849-8.477 2.562l-13.854 2.103-1.15.013c-7.268 0-15.475-.144-18.686-.335l-.324-.009c-.33 0-.652.029-.961.079-.74.337-1.527.616-2.299.818.283.249.459.568.457 1.005l.008.448-.086 2.526-.863.216a.75.75 0 0 0-.236.097c.049-.01.148.198.479.502l.934.847c2.117 1.911 3.131 2.854 3.615 3.418.4.023 1.201.039 2.184-.018.219-.01.502-.018.838-.018 2.674 0 9.537.416 12.283 1.067.34.082.766.173 1.248.272 4.398.937 8.439 1.964 9.568 4.222.389.779.393 1.633.006 2.464-1.324 2.853-2.514 11.216-2.58 12.678.328.733.469 1.145.131 1.664l-.35.543-1.305.004-.123-.2c-1.465-.216-6.793-.622-13.008-.696l-.312-.045-11.551-3.31c-7.842-1.91-13.008-2.936-13.705-2.941-.084.026-.67.055-1.504.089-1.463.055-3.785.142-5.98.427l-.076 2.598a52.67 52.67 0 0 1-.018 2.108l.045 1.205-.674.344c-.357.183-.986.396-2.648.396-3.08 0-8.469-.739-13.725-1.88-3.008-.651-18.021-4.212-17.977-10.216.068-1.202.598-2.04 1.023-2.716.377-.6.607-.99.629-1.447l-.004-.269c-.596-.76-.895-1.571-.824-2.272.045-.418.215-.788.492-1.066a2.59 2.59 0 0 0-.006-.842c-1.766.201-9.346 1.904-15.385 4.201l-.404.075-20.977.297c-6.656 1.268-15.354 7.484-18.795 13.56-.193.344-4.869 8.503-12.564 13.88-16.727 10.921-16.754 28.274-16.752 28.446.078 8.151.816 14.585 1.314 15.609.268.555 1.213 3.982 1.33 5.82.445.792 3.324 5.571 6.828 11.18.088.137 8.75 13.791 18.656 13.791 1.008 0 2.01-.145 2.977-.428 4.127-1.211 7.793-1.434 11.338-1.654 3.715-.229 7.555-.465 12.062-1.835 19.824-6.013 19.824-6.013 20.033-6.013H196l-.967 1.755c-2.793 5.072-3.08 8.238-2.607 9.043.051.083.094.155.338.155l.584-.044c4.451 0 13.908 12.593 16.756 17.38.639 1.079 15.566 26.642 3.314 44.479-10.979 15.982 11.791 45.082 12.021 45.375 4.707 5.939 11.164 9.931 14.238 9.931h.074c3.383-.069 18.213-3.017 25.152-6.017l.641-4.975.342-.296c5.396-4.649 12.895-10.119 17.176-12.553l.137-12.398c.41-9.271 8.262-12.714 8.598-12.854 7.256-3.081 11.934-7.191 12.094-8.782.225-2.226-2.621-12.918-6.189-19.114-.395-.686-3.398-7.084 12.391-20.396 8.416-7.617 28.025-25.359 29.049-41.585-1.785.429-5.709 1.85-11.166 4.437-.186.088-4.604 2.15-9.777 2.152-5.939 0-10.477-2.748-13.119-7.951-.623-1.226-.754-2.516-.879-3.765-.1-.988-.193-1.92-.525-2.762-.895-2.274-2.59-4.418-4.387-6.691-1.582-2.001-3.217-4.067-4.355-6.332-1.488-2.957-2.543-6.091-3.561-9.123-1.164-3.461-2.266-6.73-3.965-9.802-4.131-7.469-5.535-11.254-5.594-11.413-3.545-9.66-3.193-10.161-2.822-10.692l.352-.507.656-.021c.771 0 1.176.669 1.395 1.026.605.999 2.502 1.813 3.467 1.844 1.004-2.46 1.146-2.781 2.008-2.781h.564l.717.88-.135.72c.023.531 1.242 4.085 3.133 7.295 1.713 2.909 7.287 10.687 11.357 16.367l1.469 2.049c.053.072 1.322 1.86 5.363 8.626.479.807 2.225 5.634 2.752 7.092 2.51 6.987 4.854 11.79 5.645 12.714.035.002.076.002.129.002 1.406 0 5.119-.871 8.895-2.334 4.338-1.673 15.211-6.866 16.055-7.452l.023.03c1.656-1.505 7.826-4.57 11.668-6.406 5.178-2.473 9.295-11.416 10.072-13.711a14.328 14.328 0 0 1-.758-.891c-.531-.326-1.51-1.012-3.561-2.451-1.658-1.163-4.25-4.396-5.15-6.241-.988.257-3.23 1.237-5.986 3.559-1.061.896-2.205 1.351-3.4 1.351-2.527 0-4.373-2.047-5.049-2.924-.455-.597-1.484-2.086-1.213-3.111.059-.216.043-.667 0-1.029-2.232-1.059-7.059-5.751-10.182-9.675-.275-.345-2.646-3.438-1.498-5.814.674-1.4 2.299-2.111 4.828-2.111l.27.003c4.279.16 5.631 3.115 6.719 5.486.506 1.102.982 2.142 1.682 2.875l4.996 4.897a34.286 34.286 0 0 1 3.777-.197c5.02 0 10.123.926 12.998 2.361 3.191 1.587 9.914 3.742 11.377 4.1 1.23-.413 3.369-.544 3.395-.544h.002c2.053 0 7.543 2.75 9.012 5.093.533.854 2.527 2.301 3.984 3.358 2.221 1.611 2.93 2.159 3.049 2.967l.07.496-.322.49c-.08.104-.186.226-.303.362-.484.552-.938 1.124-.744 1.488.223.385 1.848 1.048 3.117 1.048.107 0 .186-.007.238-.011.262-.263.627-.648.986-1.025 1.408-1.485 1.525-1.604 2.086-1.616.504.076 1.6.002 1.779 4.031.07 1.561 1.318 11.379 2.779 18.437l3.547 7.246c1.814 5.675 3.551 8.343 4.33 9.028 1.027-1.944 2.395-7.613 2.387-12.411l.061-4.611c-.109-4.636 3.07-8.138 3.207-8.284 7.857-8.529 9.686-9.854 10.34-10.06.064-.056.131-.124.193-.185.336-.317.713-.678 1.281-.678h.754l.193.366c.322.093.92.194 1.344.194l.297-.013c.895 0 3.188.718 5.17 7.361a43.5 43.5 0 0 0 1.654 4.602c.287 4.183.486 8.39.486 12.645-.002 100.79-82.004 182.792-182.799 182.792zm75.523-285.69c-.02-.353-.148-3.485 1.518-5.25 2.434-2.574 6.943-.842 13.439 5.826l1.182 1.215-1.545.691c-.652.291-7.721.648-10.873.756.625.625 1.525 1.226 2.457 1.848 1.83 1.224 3.863 2.582 4.664 4.688 1.895-.312 3.674.174 4.475 1.116.734.865 1.018 2.565.586 3.495-.252.546-.742.873-1.312.873l-1.902-.178c-.021.601.164 1.007.281 1.054 1.898.811 2.646 5.986 2.689 7.379l.516 2.881-1.111.241c-.844.186-1.785.277-2.797.277-6.043 0-14.861-3.521-15.703-10.128l-.178-1.389 1.814.071c.197-.028.361-.164.477-.483.183-.517 1.751-7.547 1.323-14.983zm-21.408 7.503l.088.157.57 1.039-.266.146-.494.066h-.373l-.35-.224-3.094-2.156h3.771c-.068 0-.17 0-.336.091l.484.881zm-20.486 37.57l.969.039.119-.116.826-.808.469.374-.043 1.208-1.898 1.278-.412-1.634.936-.297-.966-.044z"/></svg>