<svg xmlns="http://www.w3.org/2000/svg" viewBox="0 0 512 512"><path d="M435.822 51.502H76.626c-6.804 0-12.362 5.513-12.362 12.332V315.62c0 6.8 5.559 12.33 12.362 12.33h359.196c6.801 0 12.295-5.53 12.295-12.33V63.834c0-6.818-5.494-12.332-12.295-12.332zm-17.593 246.526H94.188V81.426h324.041v216.602zM65.146 460.668h381.008v-97.24H65.146v97.24zm242.552-61.085h109.386v24.932H307.698v-24.932zm-193.104-1.949c8.6 0 15.598 7.003 15.598 15.601 0 8.604-6.998 15.6-15.598 15.6-8.602 0-15.6-6.996-15.6-15.6 0-8.598 6.998-15.601 15.6-15.601z"/></svg>