<svg xmlns="http://www.w3.org/2000/svg" viewBox="0 0 512 512"><path d="M108.023 38.888v434.118h296.179V38.888H108.023zM373.545 442.36H138.664V69.549h234.881V442.36zm-45.768-116.151H185.655v24.932h142.122v-24.932zm0 57.014H185.655v24.915h142.122v-24.915zm-97.105-140.846c-4.515-4.828-6.705-11.381-6.557-19.705H193.26c1.456 17.233 6.802 30.283 15.975 39.175 9.206 8.895 21.943 13.9 38.277 15.078v18.604h12.918v-18.604c10.922-.739 19.899-2.928 26.895-6.544 6.998-3.659 12.576-7.814 16.745-12.488 4.135-4.644 7.028-9.438 8.615-14.322 1.604-4.876 2.42-8.93 2.42-12.137 0-3.642-.263-7.794-.75-12.458-.541-4.673-2.177-9.353-4.956-13.995-2.762-4.679-7.08-9.174-12.885-13.457-5.854-4.303-14.161-7.914-24.932-10.826a130.285 130.285 0 0 0-5.789-1.537 338.96 338.96 0 0 1-5.363-1.325v-38.699c4.937 0 9.171 2.043 12.673 6.131 3.496 4.071 5.327 9.041 5.476 14.86h31.05c-.425-7.568-2.029-14.142-4.824-19.688-2.746-5.539-6.327-10.181-10.691-13.878-4.383-3.729-9.47-6.639-15.224-8.751-5.757-2.108-11.902-3.543-18.459-4.267V96.688h-12.918v16.857a72.619 72.619 0 0 0-19.032 3.829c-6.117 2.108-11.51 5.102-16.188 8.977-4.659 3.84-8.405 8.615-11.268 14.307-2.827 5.688-4.266 12.264-4.266 19.683 0 7.309 1.243 13.394 3.728 18.284 2.485 4.874 5.804 8.961 9.942 12.246 4.169 3.268 8.877 5.905 14.109 7.864 5.249 1.964 10.579 3.697 15.974 5.133 1.454.296 2.796.623 4.056.981 1.226.375 2.225.686 2.944.983v45.734c-6.706-1.31-12.328-4.399-16.84-9.189zm29.758-32.8c8.6 2.323 14.681 4.921 18.246 7.768 3.564 2.825 5.348 7.094 5.348 12.787 0 3.495-.719 6.521-2.193 9.072a21.593 21.593 0 0 1-5.574 6.459c-2.258 1.75-4.808 3.088-7.618 4.04-2.845.945-5.609 1.554-8.208 1.865v-41.991zm-28.012-41.14c-3.057-2.615-4.595-6.343-4.595-11.154 0-3.057.559-5.703 1.654-7.974 1.093-2.277 2.566-4.172 4.478-5.693a18.829 18.829 0 0 1 6.347-3.385 24.225 24.225 0 0 1 7.21-1.093v35.642c-7-1.6-12.037-3.714-15.094-6.343z"/></svg>