<svg xmlns="http://www.w3.org/2000/svg" viewBox="0 0 512 512"><path d="M342.238 170.195l-36.834 36.836c13.08 13.078 20.283 30.467 20.283 48.967s-7.205 35.889-20.284 48.971l36.836 36.834c22.919-22.918 35.542-53.393 35.542-85.805 0-32.414-12.622-62.887-35.543-85.803zm58.774-60.572l-36.836 36.838c60.4 60.4 60.4 158.68 0 219.082l36.836 36.834c80.71-80.711 80.71-212.039 0-292.754zm-194.414 97.408l-36.834-36.836c-22.921 22.916-35.543 53.389-35.543 85.803 0 32.412 12.622 62.887 35.542 85.807l36.836-36.838c-13.081-13.08-20.284-30.469-20.284-48.969-.001-18.498 7.203-35.889 20.283-48.967zm-58.774-60.57l-36.837-36.838c-80.709 80.713-80.709 212.043 0 292.754l36.837-36.834c-60.4-60.402-60.4-158.684 0-219.082zM217.172 256a37.494 37.494 0 1 1 74.988 0 37.494 37.494 0 1 1-74.988 0z"/></svg>