<svg xmlns="http://www.w3.org/2000/svg" viewBox="0 0 512 512"><path d="M377.747 348.745V109.892s-5.349-63.34-121.355-63.34c-116.027 0-121.358 63.31-121.358 63.31v238.884c0 13.346 10.072 24.15 22.484 24.15h48.709l-68.379 93.034h38.031l11.903-16.199h139.031l11.805 16.199h37.92l-67.791-93.034h46.501c12.425 0 22.499-10.805 22.499-24.151zm-167.433 70.327l12.195-16.582h69.869l12.098 16.582h-94.162zm29.56-355.109h32.997c10.334 0 18.705 8.387 18.705 18.722 0 10.318-8.371 18.688-18.705 18.688h-32.997c-10.316 0-18.687-8.37-18.687-18.688 0-10.334 8.371-18.722 18.687-18.722zm-71.518 70.602c0-6.49 6.508-11.755 14.536-11.755h147.01c8.013 0 14.521 5.265 14.521 11.755v82.216s-13.112 22.578-88.031 22.578c-74.921 0-88.035-22.6-88.035-22.6v-82.194zm-.456 182.526c0-15.072 12.23-27.305 27.305-27.305 15.076 0 27.305 12.232 27.305 27.305 0 15.077-12.229 27.307-27.305 27.307-15.075-.001-27.305-12.23-27.305-27.307zm151.735 27.306c-15.06 0-27.272-12.229-27.272-27.307 0-15.072 12.213-27.305 27.272-27.305 15.092 0 27.307 12.232 27.307 27.305-.001 15.078-12.215 27.307-27.307 27.307z"/></svg>