<svg xmlns="http://www.w3.org/2000/svg" viewBox="0 0 512 512"><path d="M438.801 350.975a80.815 80.815 0 0 0 2.584-20.338c0-44.345-35.955-80.33-80.315-80.33-33.356 0-61.935 20.354-74.103 49.294-10.398-12.263-25.932-20.041-43.296-20.041-31.393 0-56.837 25.438-56.837 56.849a57.69 57.69 0 0 0 2.16 15.58c-25.638 9.39-43.92 34.009-43.92 62.936 0 36.972 29.973 66.988 66.991 66.988H418.59c37.053 0 67.025-30.017 67.025-66.988 0-30.003-19.672-55.364-46.814-63.95zM210.118 96.412c10.662 0 19.295-8.635 19.295-19.313V49.305c0-10.646-8.633-19.298-19.295-19.298-10.628 0-19.261 8.651-19.261 19.298v27.794c0 10.678 8.633 19.313 19.261 19.313zm96.11 39.814a19.23 19.23 0 0 0 13.64-5.655l19.684-19.673c7.523-7.52 7.523-19.734 0-27.254-7.52-7.558-19.75-7.558-27.273 0l-19.685 19.649c-7.523 7.519-7.523 19.751 0 27.277a19.259 19.259 0 0 0 13.634 5.656zm-205.825-5.656a19.242 19.242 0 0 0 13.636 5.655 19.25 19.25 0 0 0 13.64-5.655c7.535-7.526 7.535-19.759 0-27.277l-19.654-19.649c-7.523-7.558-19.754-7.558-27.306 0-7.488 7.52-7.488 19.734 0 27.254l19.684 19.672zm226.363 82.452a19.241 19.241 0 0 0 6.998 14.897 106.007 106.007 0 0 1 27.306-3.579c8.798 0 17.364 1.092 25.538 3.137 4.01-3.528 6.542-8.684 6.542-14.44 0-10.655-8.647-19.291-19.295-19.291h-27.794c-10.665 0-19.295 8.636-19.295 19.276zm-143.103 66.406c-26.389-10.531-44.998-36.266-44.998-66.391 0-39.501 31.982-71.515 71.488-71.515 39.47 0 71.484 32.014 71.484 71.515 0 16.499-5.624 31.694-15.009 43.793a81.766 81.766 0 0 1 13.292 5.102 106.82 106.82 0 0 1 24.576-21.32c2.566-8.752 3.989-18.019 3.989-27.574 0-54.229-44.115-98.348-98.333-98.348-54.222 0-98.336 44.118-98.336 98.348 0 39.276 23.155 73.224 56.542 88.972a83.143 83.143 0 0 1 15.305-22.582zm-83.26 16.069l-19.685 19.672c-7.523 7.521-7.523 19.719 0 27.271 3.76 3.76 8.713 5.626 13.634 5.626 4.957 0 9.893-1.866 13.672-5.626l19.654-19.688c7.535-7.52 7.535-19.715 0-27.255-7.522-7.536-19.75-7.536-27.275 0zm-6.883-82.46c0-10.655-8.651-19.291-19.31-19.291H46.414c-10.646 0-19.296 8.636-19.296 19.276 0 10.647 8.65 19.281 19.296 19.281H74.21c10.659 0 19.31-8.603 19.31-19.266z"/></svg>