<svg xmlns="http://www.w3.org/2000/svg" viewBox="0 0 512 512"><path d="M437.433 217.444h-.07c-18.95 0-38.133 22.244-38.133 3.306v-102h-96.227c-22.758 0 3.977 23.061 3.977 45.826v.083c0 22.771-18.46 41.228-41.218 41.228-22.766 0-41.223-18.457-41.223-41.228l-.078-.083c0-22.252 28.295-45.826 5.527-45.826H124.264v97.288c0 22.767-23.572-5.529-45.822-5.529l-.086.081c-22.769 0-41.228 18.454-41.228 41.222 0 22.756 18.459 41.217 41.228 41.217h.086c22.763 0 45.822-26.734 45.822-3.979v104.666h110.438c18.937 0-3.306-19.18-3.306-38.128v-.074c0-18.938 15.353-34.293 34.292-34.293 18.947 0 34.298 15.354 34.298 34.293l.057.074c0 18.519-23.533 38.128-4.591 38.128H399.23V281.499c0-18.938 19.612 4.595 38.133 4.595l.07-.059c18.938 0 34.294-15.352 34.294-34.299 0-18.939-15.357-34.292-34.294-34.292z"/></svg>