<svg xmlns="http://www.w3.org/2000/svg" viewBox="0 0 512 512"><path d="M199.17 220.037c0-11.993 3.6-23.389 10.303-33.012H43.381v65.881h166.025c-6.636-9.607-10.236-20.944-10.236-32.869zm173.093-33.012L306.4 252.906h162.952v-65.881h-97.089zM114.834 470.889h283.064l40.844-181.026H74.022l40.812 181.026zm142.352-217.983c8.468 0 16.938-3.225 23.412-9.669l142.777-142.773c12.949-12.935 12.918-33.888 0-46.821-12.918-12.919-33.881-12.919-46.83 0L233.77 196.424c-12.918 12.918-12.918 33.889 0 46.787 6.473 6.47 14.944 9.695 23.416 9.695z"/></svg>