<svg xmlns="http://www.w3.org/2000/svg" viewBox="0 0 512 512"><path d="M127.286 449.816c-21.564.006-43.317-8.494-59.885-25.062-16.578-16.575-25.083-38.336-25.079-59.897-.029-20.296 7.623-40.755 23.034-56.14l3.539-3.539 212.559-212.57c20.227-20.255 47.082-30.304 73.852-30.267 28.454-.012 57.219 11.208 79.179 33.159 21.937 21.949 33.153 50.698 33.147 79.151.028 26.779-10.016 53.627-30.268 73.865l-178.45 178.453-13.28 13.277-26.56-26.559 191.738-191.733c12.842-12.871 19.229-29.708 19.259-47.303-.004-18.645-7.323-37.759-22.152-52.592-14.834-14.838-33.958-22.152-52.613-22.165-17.588.034-34.423 6.418-47.284 19.266L95.447 331.734l-3.536 3.537c-8.011 8.031-11.994 18.482-12.029 29.585.014 11.761 4.614 23.877 14.079 33.345 9.455 9.446 21.562 14.043 33.326 14.056 11.102-.034 21.551-4.014 29.587-12.026l150.412-150.404 12.596-12.595c3.018-3.04 4.521-6.906 4.549-11.331 0-4.666-1.817-9.57-5.722-13.476-3.914-3.916-8.819-5.726-13.48-5.739-4.425.038-8.283 1.542-11.328 4.564L155.27 349.882l-26.561-26.56L267.33 184.703c10.408-10.44 24.289-15.604 37.897-15.57 14.468-.012 29.01 5.704 40.049 16.739 11.007 11.025 16.72 25.554 16.72 40.029.029 13.599-5.129 27.479-15.559 37.89l-12.601 12.595-150.41 150.41c-15.365 15.377-35.768 23.025-56.022 23.021l-.118-.001z"/></svg>