<svg xmlns="http://www.w3.org/2000/svg" viewBox="0 0 512 512"><path d="M471.012 406.744l-2.691-2.688.006-.006-107.515-107.521c14.937-25.73 23.615-55.564 23.818-87.448.631-97.618-77.989-177.245-175.596-177.856-.393-.004-.774-.004-1.167-.004-97.062.004-176.067 78.391-176.693 175.598-.617 97.609 78 177.237 175.598 177.859h1.15c32.447 0 62.846-8.787 89-24.07l107.421 107.429.01-.01 2.688 2.687c8.123 8.123 21.292 8.117 29.414 0l34.556-34.552c8.118-8.119 8.123-21.293.001-29.418zM300.693 301.357c-24.835 24.668-57.778 38.252-92.77 38.252h-.862c-72.591-.465-131.276-59.906-130.816-132.504.464-72.127 59.511-130.809 131.628-130.816h.877c35.169.223 68.144 14.127 92.849 39.15 24.706 25.027 38.188 58.177 37.963 93.352-.222 35.02-14.025 67.895-38.869 92.566zm-178.876-67.341h177.254v-54.224H121.817v54.224z"/></svg>