<svg xmlns="http://www.w3.org/2000/svg" viewBox="0 0 512 512"><path d="M309.135 167.681h58.909v-52.798H226.546v52.798h58.909zm-106.269 23.681h-58.911v52.799h141.5v-52.799h-58.909zM61.365 167.681h141.501v-52.798H61.365zm82.59 152.957h58.911v-52.799H61.365v52.799h58.908zm-82.59 23.678h58.908v52.801H61.365zm0-152.954h58.908v52.799H61.365zm330.36-76.479h58.91v52.798h-58.91zm0 152.956h58.91v52.799h-58.91zm-106.27 76.477h-141.5v52.801h141.5zm165.18-152.954h-141.5v52.799h141.5zm-141.5 129.276h58.909v-52.799H226.546v52.799h58.909zm141.5 23.678h-141.5v52.801h141.5z"/></svg>