<svg xmlns="http://www.w3.org/2000/svg" viewBox="0 0 512 512"><path d="M311.137 189.918c1.081-1.242 1.896-2.551 2.388-3.4v-18.949H198.806v18.949c.23.396.523.92.882 1.441 1.668 2.55 4.905 5.627 6.835 6.731l29.661 18.69c6.867 4.335 13.243 10.094 18.051 17.614a61.92 61.92 0 0 1 1.929 3.268 45.687 45.687 0 0 1 1.928-3.268c4.841-7.561 11.217-13.309 18.053-17.614l29.659-18.69c1.44-.848 3.632-2.761 5.333-4.772zm19.033 45.853c8.436-5.368 15.402-12.396 20.796-20.146 5.233-7.814 9.288-16.06 9.486-26.323v-70.247h13.701V66.732H138.177v52.322h13.702v70.247c.198 10.233 4.285 18.509 9.485 26.323 5.394 7.75 12.328 14.777 20.765 20.146l28.713 18.049c1.013.651 1.6 1.177 1.993 1.566-.394.43-.98.983-1.993 1.607l-28.713 18.065c-8.437 5.346-15.372 12.396-20.765 20.11-5.2 7.832-9.287 16.108-9.485 26.374v71.341h-13.702v52.307h235.977v-52.307h-13.701v-71.341c-.198-10.266-4.253-18.542-9.486-26.374-5.363-7.749-12.36-14.765-20.796-20.11l-28.713-18.065c-.98-.624-1.604-1.178-1.994-1.607.391-.39 1.014-.915 1.994-1.566l28.712-18.048zm-45.033 47.154l28.715 18.084c4.283 2.647 8.83 7.124 11.869 11.541 3.14 4.351 4.251 8.796 4.055 8.993v71.341h-16.251v-1.487c-.196-.43-.524-.937-.882-1.476-1.669-2.535-4.938-5.624-6.837-6.733l-29.659-18.674c-6.836-4.314-13.212-10.07-18.053-17.629-.686-1.044-1.307-2.122-1.928-3.235a69.141 69.141 0 0 1-1.929 3.254c-4.841 7.54-11.185 13.296-18.051 17.61l-29.628 18.674c-1.472.883-3.695 2.777-5.33 4.777a20.933 20.933 0 0 0-2.421 3.432v1.487h-16.253v-71.341c-.229-.197.917-4.643 4.057-8.993 3.007-4.417 7.554-8.894 11.837-11.541l28.744-18.084c9.421-5.822 16.679-15.801 16.646-27.539.033-11.707-7.225-21.694-16.646-27.495l-28.744-18.089c-4.283-2.665-8.83-7.162-11.837-11.545-3.14-4.332-4.286-8.795-4.057-8.955v-70.247h147.223v70.247c.196.16-.915 4.623-4.055 8.955-3.008 4.383-7.586 8.88-11.869 11.545l-28.715 18.089c-9.449 5.801-16.677 15.788-16.677 27.495-.001 11.738 7.227 21.717 16.676 27.539z"/></svg>