<svg xmlns="http://www.w3.org/2000/svg" viewBox="0 0 512 512"><path d="M254.621 481.605c-55.604.036-111.517-21.319-153.936-63.766-42.451-42.425-63.807-98.339-63.77-153.944-.037-55.605 21.318-111.52 63.773-153.942 12.921-12.917 33.87-12.917 46.79.006 12.921 12.919 12.914 33.87-.005 46.789-29.652 29.675-44.347 68.253-44.384 107.147.038 38.892 14.732 77.478 44.389 107.157 29.661 29.645 68.248 44.339 107.142 44.376 38.894-.037 77.481-14.728 107.154-44.376 29.65-29.68 44.346-68.266 44.382-107.157-.036-38.888-14.731-77.472-44.382-107.153v.006c-12.92-12.925-12.92-33.873 0-46.795 12.921-12.917 33.867-12.917 46.794 0 42.445 42.426 63.803 98.336 63.758 153.942.045 55.605-21.316 111.52-63.764 153.944-42.391 42.416-98.238 63.768-153.8 63.766h-.141zm-33.084-217.704V64.165c0-18.269 14.812-33.085 33.088-33.085 18.276 0 33.086 14.816 33.086 33.085v199.736c0 18.269-14.811 33.083-33.086 33.083-18.276 0-33.088-14.814-33.088-33.083z"/></svg>