<svg xmlns="http://www.w3.org/2000/svg" viewBox="0 0 512 512"><path d="M285.812 281.548c-4.381-3.501-11.838-6.671-22.401-9.55v51.507a46.589 46.589 0 0 0 10.073-2.292c3.501-1.14 6.607-2.778 9.384-4.971 2.78-2.091 5.068-4.738 6.837-7.915 1.795-3.106 2.682-6.795 2.682-11.116-.001-6.997-2.194-12.199-6.575-15.663zm-54.841-90.425c-2.321 1.904-4.153 4.223-5.495 7.004-1.339 2.779-1.995 6.018-1.995 9.745 0 5.919 1.834 10.498 5.595 13.735 3.76 3.168 9.94 5.787 18.509 7.779v-43.754c-3.042 0-5.986.459-8.83 1.344-2.879.91-5.427 2.284-7.784 4.147zm24.785-156.85c-122.172 0-221.225 99.038-221.225 221.244 0 122.201 99.053 221.261 221.225 221.261 122.209 0 221.297-99.06 221.297-221.261 0-122.205-99.088-221.244-221.297-221.244zm0 410.782c-104.479 0-189.504-85.059-189.504-189.537 0-104.514 85.024-189.538 189.504-189.538 104.518 0 189.543 85.024 189.543 189.538 0 104.478-85.026 189.537-189.543 189.537zm.035-344.659c-85.678 0-155.104 69.473-155.104 155.121 0 85.646 69.426 155.104 155.104 155.104 85.647 0 155.07-69.457 155.07-155.104 0-85.648-69.423-155.121-155.07-155.121zm71.749 213.331c-1.962 5.98-5.494 11.838-10.597 17.558-5.102 5.728-11.936 10.827-20.536 15.302-8.568 4.454-19.588 7.131-32.997 8.02v22.825h-15.826v-22.825c-20.015-1.411-35.646-7.589-46.927-18.51-11.251-10.893-17.789-26.92-19.587-47.972h37.834c-.195 10.163 2.484 18.212 8.043 24.134 5.529 5.914 12.427 9.642 20.637 11.247v-56.02c-.883-.391-2.092-.812-3.596-1.21-1.506-.493-3.174-.85-4.973-1.243-6.606-1.763-13.146-3.891-19.588-6.309-6.41-2.421-12.197-5.657-17.3-9.647-5.1-4.027-9.157-9.058-12.229-15.01-3.011-6.021-4.513-13.441-4.513-22.404 0-9.119 1.731-17.168 5.199-24.168 3.498-6.963 8.11-12.785 13.832-17.523 5.724-4.744 12.327-8.439 19.85-11.021 7.521-2.586 15.272-4.152 23.316-4.707v-20.638h15.826v20.638c8.047.944 15.599 2.646 22.662 5.228 7.065 2.621 13.279 6.187 18.675 10.762 5.329 4.543 9.744 10.235 13.114 17.006 3.397 6.804 5.361 14.878 5.918 24.169h-38.098c-.165-7.164-2.388-13.247-6.704-18.284-4.283-4.972-9.484-7.489-15.567-7.489v47.482c2.159.521 4.352 1.046 6.574 1.605a196.91 196.91 0 0 1 7.13 1.896c13.211 3.565 23.414 8.009 30.575 13.276 7.127 5.267 12.426 10.76 15.795 16.484 3.402 5.754 5.429 11.441 6.048 17.167.624 5.755.918 10.822.918 15.272.002 3.953-.947 8.922-2.908 14.909z"/></svg>