<svg xmlns="http://www.w3.org/2000/svg" viewBox="0 0 512 512"><path d="M83.53 63.63v384.462h342.308V63.63H83.53zm54.119 359.738H100.92V386.64h36.729v36.728zm0-74.567H100.92v-36.734h36.729v36.734zm0-77.679H100.92v-36.731h36.729v36.731zm0-74.571H100.92V159.82h36.729v36.731zm0-71.47H100.92V88.35h36.729v36.731zM349.717 406.03H159.651V275.408h190.065V406.03zm0-169.717H159.651V105.691h190.065v130.622zm58.729 187.055h-36.729V386.64h36.729v36.728zm0-74.567h-36.729v-36.734h36.729v36.734zm0-77.679h-36.729v-36.731h36.729v36.731zm0-74.571h-36.729V159.82h36.729v36.731zm0-71.47h-36.729V88.35h36.729v36.731z"/></svg>