<svg xmlns="http://www.w3.org/2000/svg" viewBox="0 0 512 512"><path d="M158.297 172.265c0 12.833-10.405 23.238-23.239 23.238H43.926c-12.835 0-23.24-10.405-23.24-23.238 0-12.836 10.405-23.241 23.24-23.241h91.132c12.834 0 23.239 10.404 23.239 23.241zm166.864 162.289c0 12.836-10.404 23.239-23.237 23.239H210.79c-12.837 0-23.24-10.403-23.24-23.239 0-12.833 10.403-23.238 23.24-23.238h91.134c12.833-.001 23.237 10.405 23.237 23.238zm165.775-129.479c0 12.833-10.405 23.236-23.239 23.236h-91.134c-12.835 0-23.237-10.403-23.237-23.236 0-12.837 10.402-23.241 23.237-23.241h91.134c12.833 0 23.239 10.404 23.239 23.241zM57.498 123.446h66.174V41.247H57.498v82.199zm332.548-82.199v115.007h66.17V41.247h-66.17zM223.77 284.756h66.179V41.245H223.77v243.511zm166.276 186.42h66.17V257.818h-66.17v213.358zm-332.548 0h66.174V225.01H57.498v246.166zm166.272 0h66.179v-84.858H223.77v84.858z"/></svg>