<svg xmlns="http://www.w3.org/2000/svg" viewBox="0 0 512 512"><path d="M334.622 326.082h-23.67v23.678h23.67v13.785h21.311v-49.528h-21.311zM156.138 183.827h12.922v23.68h23.678v-23.68h12.924v-21.311h-49.524zm12.922 47.359h23.679v23.679H169.06zm0 47.357h23.679v23.68H169.06zm0 71.217h23.678v-23.858H169.06zm94.535-23.678h23.68v23.678h-23.68zm-47.359 0h23.68v23.678h-23.68zm173.77-180.749L310.575 65.9l-6.937-6.936H115.06v394.07h281.88V152.268l-6.934-6.935zm-16.744 284.026l-234.524-.002V82.644h133.921c35.181 0 18.229 83.393 18.229 83.393s81.329-19.766 82.374 17.526v245.796zM232.367 286.082h123.566L232.367 162.516z"/></svg>