<svg xmlns="http://www.w3.org/2000/svg" viewBox="0 0 512 512"><path d="M445.564 89.08H66.438c-9.342 0-16.912 7.572-16.912 16.913V422.92h412.949V105.993c0-9.341-7.569-16.913-16.911-16.913zm-256.837 28.378c7.355 0 13.312 5.964 13.312 13.315 0 7.354-5.957 13.317-13.312 13.317s-13.316-5.964-13.316-13.317c-.001-7.351 5.96-13.315 13.316-13.315zm-47.661 0c7.357 0 13.316 5.964 13.316 13.315 0 7.354-5.959 13.317-13.316 13.317-7.355 0-13.314-5.964-13.314-13.317 0-7.351 5.959-13.315 13.314-13.315zm-47.654 0c7.354 0 13.316 5.964 13.316 13.315 0 7.354-5.963 13.317-13.316 13.317-7.355 0-13.318-5.964-13.318-13.317 0-7.351 5.963-13.315 13.318-13.315zm339.957 276.356H78.631V169.06h354.738v224.754z"/></svg>