<svg xmlns="http://www.w3.org/2000/svg" viewBox="0 0 512 512"><path d="M476.334 327.906c4.729-13.933 1.583-29.946-9.523-41.051-11.105-11.107-27.117-14.252-41.05-9.524l-60.618-60.617 18.271-18.271-69.113-69.111-18.273 18.271-57.298-57.296c7.186-14.856 4.652-33.233-7.676-45.562-15.583-15.58-40.84-15.583-56.42 0-15.582 15.58-15.582 40.841 0 56.42 11.086 11.087 27.063 14.243 40.979 9.549l55.022 55.021c-22.589-9.864-46.785-14.881-70.992-14.875-37.879-.013-75.873 11.897-107.688 35.803-15.23-8.686-34.94-6.575-47.942 6.425-15.578 15.58-15.578 40.841 0 56.421 15.58 15.581 40.841 15.581 56.422 0 11.2-11.201 14.304-27.393 9.399-41.406 26.596-19.606 58.148-29.319 89.809-29.334a149.773 149.773 0 0 1 54.791 10.429l-9.248 9.249 69.109 69.112 14.757-14.752a148.986 148.986 0 0 1 20.897 76.064c-.012 25.169-6.142 50.251-18.448 72.851-14.149-5.207-30.649-2.172-42.009 9.189-15.58 15.583-15.58 40.844 0 56.42 15.578 15.581 40.839 15.585 56.424 0 12.686-12.684 15.037-31.786 7.064-46.855 16.64-28.185 24.892-59.956 24.88-91.604.008-24.133-5.012-48.245-14.846-70.754l39.664 39.665c-7.142 14.848-4.601 33.184 7.71 45.494 15.578 15.576 40.84 15.58 56.422 0 4.317-4.316 7.391-9.387 9.316-14.776l.4-.401-.192-.194z"/></svg>