<svg xmlns="http://www.w3.org/2000/svg" viewBox="0 0 512 512"><path d="M379.978 37.318L37.23 380.053l94.393 94.389 342.749-342.724-94.394-94.4zM117.315 428.486l-45.864-45.871 8.551-8.52 45.848 45.855-8.535 8.536zm10.337-50.149l-25.934-25.956 8.501-8.533 25.966 25.943-8.533 8.546zm30.247-30.241l-25.95-25.965 8.52-8.524 25.965 25.958-8.535 8.531zm30.247-30.25l-25.963-25.965 8.535-8.523 25.964 25.957-8.536 8.531zm30.25-30.248l-25.966-25.945 8.536-8.539 25.967 25.948-8.537 8.536zm50.166-10.34l-45.879-45.855 8.533-8.535 45.865 45.876-8.519 8.514zm10.301-50.151l-25.934-25.939 8.536-8.562 25.947 25.974-8.549 8.527zm30.267-30.222l-25.969-25.971 8.52-8.531 25.981 25.931-8.532 8.571zm30.23-30.266l-25.965-25.955 8.552-8.531 25.949 25.958-8.536 8.528zm30.25-30.265l-25.967-25.93 8.535-8.54 25.967 25.956-8.535 8.514zm4.283-56.175l8.555-8.522 45.863 45.842-8.535 8.547-45.883-45.867z"/></svg>