<svg xmlns="http://www.w3.org/2000/svg" viewBox="0 0 512 512"><path d="M267.179 392.949c-1.756-15.215-17.393-25.909-34.934-23.89-17.537 2.023-30.33 16.001-28.578 31.213 1.756 15.217 17.396 25.912 34.936 23.886 17.537-2.018 30.33-15.995 28.576-31.209zm4.136 32.179c-8.928 3.498-13.697 12.612-10.664 20.351 3.037 7.747 12.73 11.186 21.654 7.685 8.924-3.498 13.697-12.612 10.664-20.352-3.038-7.743-12.732-11.183-21.654-7.684zm171.842-242.846c-9.924-26.373-30.6-47.198-56.51-57.506a68.536 68.536 0 0 0-3.555-13.429c-9.979-26.521-35.719-44.339-64.047-44.339a68.135 68.135 0 0 0-24.086 4.398 68.437 68.437 0 0 0-15.332 8.112c-14.807-14.041-34.523-22.049-55.537-22.052-9.715 0-19.287 1.747-28.447 5.194-22.584 8.498-39.711 26.091-47.625 48.301a99.658 99.658 0 0 0-20.945 5.386c-24.916 9.374-44.689 27.891-55.678 52.136-10.99 24.245-11.879 51.319-2.506 76.233 10.172 27.038 31.549 48.174 58.312 58.214a69.029 69.029 0 0 0 2.389 7.71c9.984 26.527 35.723 44.347 64.051 44.347a68.178 68.178 0 0 0 24.086-4.396 68.53 68.53 0 0 0 13.918-7.124c13.051 8.539 28.314 13.129 44.188 13.129 9.715 0 19.287-1.748 28.447-5.193 17.293-6.507 31.756-18.754 41.072-34.464 1.531.071 3.062.106 4.588.106 11.973 0 23.76-2.15 35.033-6.393 51.434-19.35 77.538-76.936 58.184-128.37z"/></svg>