<svg xmlns="http://www.w3.org/2000/svg" viewBox="0 0 512 512"><path d="M376.957 61.932v22.413c2.908 4.715 4.618 10.252 4.618 16.197 0 17.088-13.852 30.935-30.935 30.935-17.084 0-30.928-13.847-30.928-30.935 0-5.945 1.705-11.479 4.613-16.191V61.932H282.6v22.413c2.91 4.715 4.619 10.252 4.619 16.197 0 17.088-13.852 30.935-30.935 30.935-17.084 0-30.929-13.847-30.929-30.935 0-5.945 1.707-11.479 4.613-16.191V61.932h-41.725v22.413c2.909 4.715 4.62 10.252 4.62 16.197 0 17.088-13.853 30.935-30.934 30.935-17.086 0-30.931-13.847-30.931-30.935 0-5.945 1.708-11.479 4.614-16.191V61.932h-28.687v306.159l7.333 7.333 91.326 91.328h199.412V61.932h-28.039zm3.002 379.781H238.347c-37.202 0-19.276-88.181-19.276-88.181s-86 20.901-87.105-18.534v-179.96h247.993v286.675zm-21.804-207.87H159.513v30.774h198.642v-30.774zm0-51.786H159.513v30.777h198.642v-30.777zm0 103.566H159.513v30.774h198.642v-30.774zm-7.51-167.054c8.502 0 15.396-6.897 15.396-15.4V60.148c0-8.503-6.895-15.396-15.396-15.396-8.506 0-15.399 6.894-15.399 15.396v43.021c-.001 8.503 6.893 15.4 15.399 15.4zm-188.712 0c8.502 0 15.397-6.897 15.397-15.4V60.148c0-8.503-6.895-15.396-15.397-15.396-8.504 0-15.398 6.894-15.398 15.396v43.021c-.001 8.503 6.894 15.4 15.398 15.4zm94.354 0c8.504 0 15.398-6.897 15.398-15.4V60.148c0-8.503-6.895-15.396-15.398-15.396-8.502 0-15.396 6.894-15.396 15.396v43.021c0 8.503 6.894 15.4 15.396 15.4z"/></svg>