<svg xmlns="http://www.w3.org/2000/svg" viewBox="0 0 512 512"><path d="M394.049 117.916c-23.246-23.244-51.133-37.123-74.594-37.123-12.814 0-23.775 4.18-31.688 12.092-3.967 3.969-6.955 8.635-8.984 13.855l-38.723 86.393L97.07 336.125c-21.754 21.752-21.754 57.018 0 78.768 10.875 10.877 25.129 16.314 39.385 16.314 14.254 0 28.51-5.438 39.385-16.314l142.99-142.99 87.449-39.197c.195-.086.402-.191.609-.293 4.578-2.004 8.693-4.721 12.188-8.215 23.162-23.161 12.401-68.854-25.027-106.282zm-74.594-5.297c11.201 0 31.568 7.279 52.088 27.803 25.938 25.939 32.242 54.055 25.027 61.268-2.291 2.293-6.256 2.773-9.18 2.773h-.002c-11.201 0-31.564-7.281-52.086-27.805-12.516-12.51-21.941-27.225-25.871-40.369-2.844-9.527-2.521-17.531.844-20.895 2.291-2.292 6.258-2.775 9.18-2.775z"/></svg>