<svg xmlns="http://www.w3.org/2000/svg" viewBox="0 0 512 512"><path d="M473.591 145.183v-24.938h-81.87V38.396h-24.936v81.849h-98.168V38.396h-24.936v81.849h-98.152V38.396h-24.937v81.849H38.74v24.938h81.852v98.155H38.74v24.938h81.852v98.167H38.74v24.932h81.852v81.858h24.937v-81.858h98.152v81.858h24.936v-81.858h98.168v81.858h24.936v-81.858h81.87v-24.932h-81.87v-98.167h81.87v-24.938h-81.87v-98.155h81.87zm-328.062 0h98.152v98.155h-98.152v-98.155zm0 221.259v-98.167h98.152v98.167h-98.152zm221.256 0h-98.168v-98.167h98.168v98.167zm0-123.104h-98.168v-98.155h98.168v98.155z"/></svg>