<svg xmlns="http://www.w3.org/2000/svg" viewBox="0 0 512 512"><path d="M455.184 87.44H56.816c-11.04 0-20 8.96-20 20v297.12c0 11.04 8.96 20 20 20h398.368c11.04 0 20-8.96 20-20V107.44c0-11.056-8.944-20-20-20zm-20 297.12H76.816V127.44h54.128v38.992h64V127.44h122.128v38.992h64V127.44H435.2v257.12zm-282.88-117.408c7.584 13.952 17.2 16.864 23.92 16.864 6.704 0 16.32-2.912 23.968-16.816l.464-.848c3.792-6.88 6.528-11.856 6.528-23.104 0-9.952 0-36.384-30.944-36.384-30.784 0-30.784 25.504-30.784 36.384 0 11.28 2.704 16.256 6.464 23.152l.384.752zm82.592 34.464l-30.768-13.776c-1.312-.592-2.784-.624-4.096-.048l-15.632 6.576h-16.224l-15.632-6.528a5.059 5.059 0 0 0-4.064.048l-30.8 13.744a5.14 5.14 0 0 0-3.04 4.688v18.768a5.142 5.142 0 0 0 5.136 5.136h113.008a5.142 5.142 0 0 0 5.136-5.136v-18.8a5.086 5.086 0 0 0-3.024-4.672zm48.848-85.648h113.632v31.456H283.744zm0 72.512h113.632v31.456H283.744z"/></svg>