<svg xmlns="http://www.w3.org/2000/svg" viewBox="0 0 512 512"><path d="M444.912 251.134c0-13.344-10.824-24.17-24.167-24.17h-11.251l-31.559-100.262-.326-.786c-4.822-11.345-13.031-20.01-22.562-26.421-9.583-6.312-20.715-10.562-33.062-10.663H185.553c-12.329.101-23.479 4.352-33.061 10.663-9.514 6.411-17.724 15.076-22.547 26.421l-.344.803-31.524 100.245h-7.621c-13.341 0-24.167 10.826-24.167 24.17v108.484h22.924v31.085c0 18.214 14.749 32.949 32.948 32.949 18.198 0 32.944-14.735 32.944-32.949v-31.085h199.841v31.085c0 18.183 14.747 32.949 32.948 32.949 18.196 0 32.946-14.767 32.946-32.949v-31.085h24.07V251.134zm-57.016 11.608c15.093 0 27.323 12.215 27.323 27.303 0 15.078-12.23 27.309-27.323 27.309-15.092 0-27.292-12.23-27.292-27.309 0-15.088 12.2-27.303 27.292-27.303zM164.757 139.65c1.275-2.681 4.447-6.411 8.483-9.025 4.333-2.972 9.435-4.46 12.313-4.381h136.432c2.894-.079 8.014 1.41 12.327 4.381 4.058 2.615 7.214 6.345 8.503 9.025l27.455 87.313H137.268l27.489-87.313zm-42.594 177.704c-15.093 0-27.325-12.23-27.325-27.309 0-15.088 12.231-27.303 27.325-27.303 15.076 0 27.29 12.215 27.29 27.303-.001 15.078-12.215 27.309-27.29 27.309z"/></svg>