<svg xmlns="http://www.w3.org/2000/svg" viewBox="0 0 512 512"><path d="M418.059 410.875l-38.232-206.578a15.354 15.354 0 0 0-15.094-12.557h-60.451c10.457-11.557 16.834-26.867 16.834-43.645 0-35.902-29.209-65.115-65.117-65.115-35.902 0-65.115 29.213-65.115 65.115 0 16.777 6.381 32.088 16.838 43.645h-60.457a15.352 15.352 0 0 0-15.092 12.557l-38.23 206.578a15.345 15.345 0 0 0 3.293 12.611 15.344 15.344 0 0 0 11.799 5.533h293.932a15.348 15.348 0 0 0 15.092-18.144zM255.998 111.842c20.025 0 36.258 16.232 36.258 36.254 0 20.027-16.232 36.26-36.258 36.26-20.023 0-36.254-16.232-36.254-36.26 0-20.022 16.231-36.254 36.254-36.254zm-32.58 263.57l-31.246-44.273-7.84 7.947v36.326h-26.199V266.254h26.199v39.406l36.953-39.406h34.926l-45.449 45.553 46.609 63.605h-33.953zm135.893 0h-18.82l-1.715-10.172c-3.086 3.236-5.92 5.621-8.594 7.234-6.1 3.732-13.664 5.627-22.473 5.627-14.461 0-26.492-5.092-35.746-15.135-9.574-10.008-14.439-23.846-14.439-41.109 0-17.428 4.902-31.637 14.574-42.23 9.725-10.66 22.732-16.064 38.656-16.064 13.779 0 25.051 3.582 33.504 10.646 8.494 7.102 13.434 16.092 14.682 26.723l.311 2.645h-26.008l-.426-1.832c-1.488-6.422-5.008-10.779-10.764-13.316-3.26-1.416-6.971-2.139-11.014-2.139-7.752 0-13.939 2.842-18.92 8.682-5.008 5.869-7.547 14.977-7.547 27.061 0 12.068 2.693 20.637 8.01 25.473 5.457 4.961 11.469 7.373 18.385 7.373 6.777 0 12.148-1.863 16.41-5.693 3.656-3.285 6.068-7.354 7.328-12.381h-23.629v-22.164h48.234v60.771z"/></svg>