<svg xmlns="http://www.w3.org/2000/svg" viewBox="0 0 512 512"><path d="M254.529 321.226c38.885 0 70.41-31.521 70.41-70.41V117.083c0-38.886-31.525-70.41-70.41-70.41-38.888 0-70.409 31.524-70.409 70.41v133.733c.001 38.888 31.522 70.41 70.409 70.41zm95.801-117.199v46.968c-.012 26.512-10.698 50.349-28.057 67.743-17.395 17.363-41.233 28.051-67.744 28.061-26.512-.01-50.354-10.697-67.745-28.061-17.366-17.395-28.049-41.231-28.058-67.743v-46.968h-35.054l-.004 46.968c.014 66.331 49.349 121.077 113.332 129.651v48.715h-57.424v35.057h149.899v-35.057h-57.419v-48.715c63.977-8.574 113.318-63.32 113.33-129.651v-46.968H350.33z"/></svg>