<svg xmlns="http://www.w3.org/2000/svg" viewBox="0 0 512 512"><path d="M83.474 199.599v113.095h50.839l113.563 84.295V115.307l-113.56 84.292H83.474zm224.118-47.009c-6.68-6.67-17.49-6.67-24.159 0-6.674 6.674-6.674 17.484.004 24.153h-.004c21.94 21.956 32.865 50.56 32.885 79.316-.02 28.835-10.917 57.489-32.885 79.487-6.674 6.673-6.674 17.492.004 24.158a17.046 17.046 0 0 0 12.078 5.001c4.376 0 8.748-1.669 12.085-5.007 28.576-28.588 42.895-66.207 42.883-103.64.011-37.408-14.361-74.944-42.891-103.468zm53.939-54.093c-6.678-6.67-17.492-6.67-24.161 0-6.667 6.671-6.667 17.487.006 24.154h-.006c36.837 36.851 55.274 84.958 55.288 133.22-.02 48.484-18.344 96.797-55.288 133.771-6.667 6.666-6.667 17.486.006 24.16a17.033 17.033 0 0 0 12.073 4.998c4.373 0 8.743-1.672 12.082-5.004 43.575-43.588 65.312-100.864 65.294-157.926.016-56.938-21.884-113.975-65.294-157.373z"/></svg>