<svg xmlns="http://www.w3.org/2000/svg" viewBox="0 0 512 512"><path d="M131.829 41.945H377.26v70.459H131.829zm319.901 95.851H57.359c-11.747 0-21.273 9.526-21.273 21.274v156.501h64.086v-95.006h308.749v95.006h64.083V159.07c0-11.748-9.527-21.274-21.274-21.274zm-24.939 52.159c-9.396 0-17.012-7.62-17.012-17.017s7.616-17.014 17.012-17.014c9.398 0 17.016 7.617 17.016 17.014s-7.618 17.017-17.016 17.017zm-67.676 66.479v187.652H256.407c-37.201 0-19.274-88.177-19.274-88.177s-86 20.897-87.106-18.534v-80.941h-25.039v114.032l7.333 7.336 91.326 91.326h160.506V256.434h-25.038z"/></svg>