<svg xmlns="http://www.w3.org/2000/svg" viewBox="0 0 512 512"><path d="M321.582 195.249c-19.521 0-38.129 4.008-55.038 11.247V149.63c0-30.774-11.673-58.979-30.968-79.579-19.213-20.62-46.567-33.863-76.751-33.832-30.183-.031-57.569 13.212-76.784 33.832-19.26 20.6-30.967 48.805-30.967 79.579v126.032h51.146v-28.09l-26.291-26.31h26.291V149.63c0-17.771 6.734-33.47 17.167-44.651 10.528-11.169 24.231-17.597 39.438-17.612 15.175.015 28.874 6.442 39.409 17.612 10.461 11.181 17.166 26.88 17.166 44.651v94.378c-21.158 24.525-33.945 56.458-33.945 91.4 0 77.387 62.738 140.125 140.127 140.125 77.406 0 140.143-62.738 140.143-140.125 0-77.405-62.737-140.159-140.143-140.159zm-68.217 152.622H221.68v-24.938h31.686v24.938zm55.742-112.382h24.936v31.702h-24.936v-31.702zm24.936 199.825h-24.936v-31.707h24.936v31.707zm-12.461-49.968c-27.565-.017-49.92-22.371-49.936-49.955.016-27.581 22.37-49.916 49.936-49.916 27.603 0 49.936 22.335 49.936 49.916 0 27.584-22.333 49.938-49.936 49.955zm68.216-37.475v-24.938h31.704v24.938h-31.704zm-68.216-41.779c-16.168.034-29.27 13.129-29.299 29.299.029 16.188 13.131 29.283 29.299 29.321 16.188-.038 29.268-13.134 29.303-29.321-.035-16.17-13.115-29.265-29.303-29.299z"/></svg>