<svg xmlns="http://www.w3.org/2000/svg" viewBox="0 0 512 512"><path d="M270.439 138.247c-5.265-4.087-4.053-10.467-15.959-8.798 1.079 4.578 3.793 9.126 15.959 8.798zm203.178 64.29L411.318 94.736l-92.937 53.63V41.021H193.819v107.428l-93.005-53.713-62.23 107.801 93.005 53.63-93.005 53.731 62.23 107.881 93.005-53.73v107.429h124.562V364.133l92.937 53.646 62.299-107.881-93.04-53.646 93.04-53.715zM265.796 92.396l-.522 24.562c-1.864-.458-3.762-.739-5.691-.739-.621 0-1.273.038-1.896.101a83.98 83.98 0 0 0-10.66 1.7l-.557-25.624h19.326zm-56.378 80.156c-1.209-14.602 5.166-28.095 16.25-37.184 8.702-7.161 21.618-10.89 32.706-11.903.392-.048.815-.063 1.208-.063 9.615 0 20.665 9.676 26.063 16.873 4.773 6.344 6.571 12.887 3.957 14.532-2.617 1.656-6.737 4.665-9.255 6.657-1.471 1.208-3.14 1.651-4.938 1.651-3.074 0-6.443-1.324-9.747-2.63-3.303-1.34-6.507-2.65-9.22-2.65h-.426c-8.143.46-14.846 4.314-16.418 12.491-.291 1.604.296 3.634 1.505 5.903l.884 39.719c-13.341-8.995-27.532-18.87-32.569-43.396zm53.335 59.73l-.228 10.693c-1.896.914-4.087 1.844-5.822 2.599-2.091.882-4.445 1.88-6.833 3.009l-.718-32.672v-.127l-.852-39.704-.032-.031-.163-7.652c1.635-2.026 4.35-3.205 8.306-3.4 1.309 0 4.055 1.113 6.279 2.027l.294.101c.391.162.784.307 1.177.452l-.751 35.743s-.035.022-.035.037l-.621 28.871-.001.054zm-10.137 142.593v-.064l-.197-8.438v-.062l-.161-7.23c2.156-.981 5.199-1.997 7.783-2.811l-.491 22.271v.064l-.163 6.326c0 .015.03.046.03.085l-.358 16.116a55.844 55.844 0 0 1-1.732 1.686 138.445 138.445 0 0 0-4.022 4.055l-.689-31.998zm5.693 60.876h-4.351l-.396-17.593c.197.144.362.308.591.439l1.767 1.061c.851.523 1.799.771 2.715.903l-.326 15.19zm1.337-22.207l-1.766-1.062c6.441-7.146 14.324-11.625 12.396-20.571-.426-2.794-1.767-5.001-3.696-6.833l.164-6.31c3.989 3.025 7.13 7.043 7.588 12.753 1.635 11.118-9.484 17.038-14.686 22.023zm26.85-86.542c-1.735 14.664-15.73 18.342-23.087 20.765-8.308 2.583-17.758 4.886-20.146 9.907-1.504 3.417-.523 6.329 2.028 8.847l.165 8.456c-2.029-.983-3.991-2.192-5.92-4.04-4.122-4.136-5.986-10.431-3.859-16.22 5.918-11.761 16.809-12.773 24.328-16.496 15.797-4.976 18.675-14.868 8.012-19.002l.299-14.158c3.3 1.078 6.701 2.481 10.135 4.899 5.201 3.027 9.19 10.927 8.045 17.042zm-25.638-7.9l-.229 11.266c-.852.342-1.768.686-2.781 1.013-.358.116-.72.249-1.013.412-1.439.704-3.237 1.357-5.1 2.061l-.428-20.032v-.063l-.426-19.392c0-.031-.032-.053-.032-.084l-.162-7.146c.26-.359.489-.704.685-.982a.768.768 0 0 0 .198-.289c1.272-1.964 5.329-3.372 10.104-4.938l-.523 23.932v.07l-.293 14.127v.045zm31.099-64.207c-18.051 20.897-39.797 17.007-46.369 27.045-3.371 4.626-4.059 8.941-1.899 12.553l.458 19.43c-4.087-1.475-8.207-3.762-12.033-7.604-9.452-9.682-8.146-25.752-1.08-35.306 16.09-19.081 39.078-18.933 42.416-28.402 2.418-5.836 2.386-5.081-1.375-8.645a33.909 33.909 0 0 0-2.156-1.557l.619-28.889c5.298 3.17 11.478 6.67 17.853 12.506 4.284 3.978 9.354 10.905 9.717 19.328.192 8.386-2.195 14.175-6.151 19.541z"/></svg>