<svg xmlns="http://www.w3.org/2000/svg" viewBox="0 0 512 512"><path d="M127.863 107.129h83.079v58.82h-83.079zm286.584 128.655l-38.717-54.88V84.843H234.543v104.709H134.06l-32.617 46.232v75.178h313.005v-75.178zM264.56 115.525h80.488v34.724H264.56v-34.724zm-108.847 168.97c-9.163 0-16.592-7.427-16.592-16.595 0-9.165 7.429-16.592 16.592-16.592 9.167 0 16.597 7.427 16.597 16.592 0 9.168-7.43 16.595-16.597 16.595zm35.141-40.845c-9.163 0-16.592-7.429-16.592-16.594 0-9.164 7.429-16.593 16.592-16.593 9.166 0 16.594 7.429 16.594 16.593 0 9.166-7.427 16.594-16.594 16.594zm31.235 40.845c-9.163 0-16.59-7.427-16.59-16.595 0-9.165 7.427-16.592 16.59-16.592 9.166 0 16.595 7.427 16.595 16.592 0 9.168-7.429 16.595-16.595 16.595zm35.144-40.845c-9.168 0-16.597-7.429-16.597-16.594 0-9.164 7.429-16.593 16.597-16.593 9.163 0 16.592 7.429 16.592 16.593 0 9.166-7.429 16.594-16.592 16.594zm31.235 40.845c-9.166 0-16.596-7.427-16.596-16.595 0-9.165 7.43-16.592 16.596-16.592 9.163 0 16.592 7.427 16.592 16.592 0 9.168-7.429 16.595-16.592 16.595zm35.139-40.845c-9.161 0-16.595-7.429-16.595-16.594 0-9.164 7.434-16.593 16.595-16.593 9.163 0 16.596 7.429 16.596 16.593 0 9.166-7.432 16.594-16.596 16.594zm31.235 40.845c-9.163 0-16.595-7.427-16.595-16.595 0-9.165 7.432-16.592 16.595-16.592 9.165 0 16.595 7.427 16.595 16.592 0 9.168-7.43 16.595-16.595 16.595zM74.21 340.251h363.578v78.5H74.21z"/></svg>