<svg xmlns="http://www.w3.org/2000/svg" viewBox="0 0 512 512"><path d="M326.578 259.653V123.007c0-38.717-31.493-70.213-70.21-70.213-38.703 0-70.179 31.496-70.179 70.213v136.646c-26.375 21.109-42.152 53.285-42.152 87.687 0 61.952 50.395 112.35 112.331 112.35 61.935 0 112.33-50.397 112.33-112.35-.001-34.402-15.764-66.577-42.12-87.687zm-70.21 169.374c-45.112 0-81.672-36.561-81.672-81.688 0-30.758 17.02-57.554 42.133-71.485V123.007c0-21.844 17.708-39.551 39.539-39.551 21.843 0 39.537 17.707 39.537 39.551v152.879c25.129 13.933 42.133 40.695 42.133 71.453-.001 45.128-36.542 81.688-81.67 81.688zm15.303-132.212V195.979c0-8.472-6.833-15.32-15.303-15.32-8.471 0-15.337 6.849-15.337 15.32v100.836c-21.68 6.576-37.478 26.702-37.478 50.524 0 29.173 23.643 52.816 52.815 52.816 29.169 0 52.796-23.644 52.796-52.816 0-23.821-15.78-43.947-37.493-50.524z"/></svg>