<svg xmlns="http://www.w3.org/2000/svg" viewBox="0 0 512 512"><path d="M307.748 395.951c-.893-4-1.52-7.932-1.982-11.646H201.583c-.933 7.47-2.595 15.908-5.507 23.7-2.911 7.846-7.047 14.971-12.662 19.989-5.64 5.007-12.646 8.146-22.442 8.18v9.323h185.397v-9.323c-9.799-.034-16.805-3.173-22.447-8.186-8.434-7.496-13.491-19.881-16.174-32.037zM458.844 67.933H48.502c-6.839 0-12.382 5.546-12.382 12.384v269.639c0 6.84 5.543 12.388 12.382 12.388h410.342c6.842 0 12.385-5.548 12.385-12.388V80.316c0-6.837-5.543-12.383-12.385-12.383zm-17.662 264.363H66.168V97.981h375.014v234.315z"/></svg>