<svg xmlns="http://www.w3.org/2000/svg" viewBox="0 0 512 512"><path d="M35.305 97.082v61.781h123.559V35.305H35.305zm105.023 0v43.246H53.836V53.836h86.492zm-69.723 0v26.477h52.953V70.605H70.605zm105.91-35.301v26.477h17.648V35.305h-17.648zm52.953-17.652v8.824h-17.652v35.305h17.652v17.652h-52.953v17.648h52.953V105.91h17.652v17.648h17.648v17.652H247.12v35.305h-17.652V141.21h-17.652v52.953h-17.652v-17.648H88.258v17.648h17.652v17.652H52.953v-35.301H35.305v158.859h17.648v-35.301h17.652v35.301h17.652v-35.301h17.652v35.301h17.648v-35.301H105.91V282.42h35.301v17.652h88.258v17.652h-35.305v17.648h-17.648v-17.648h-35.305v17.648h35.305v88.258h17.648v17.652h17.652v35.301h17.652v-88.254h-17.652V370.68h35.305v35.301h35.301v52.957H264.77v17.648h35.305v-35.301h17.652v-17.652h52.953V405.98h35.301v-88.254h17.652v35.301h35.305v17.652h-17.652v52.953h-52.953v17.652h-52.957v17.652h-17.648v17.648h35.301v-17.648h52.953v17.648h17.652v-17.648h35.305v17.648h17.648V353.027h-17.648v-35.301h17.648v-35.305h-17.648V264.77h17.648v-52.953h-17.648v-17.652h17.648v-17.648h-52.953v17.648H405.98v-17.648h-17.648v17.648H370.68v35.305h-17.652v35.301h17.652v-17.648h17.652v-17.652h17.648v17.652h52.957v17.648h-17.652v17.652H405.98V264.77h-17.648v35.305H370.68v-17.652h-17.652v17.652h17.652v17.652h-52.953v-17.652h17.648v-88.258h-17.648v-17.652h35.301v-17.648h-17.652v-35.305h-17.648v17.652h-17.652V105.91h35.301V88.258h-35.301v17.652h-17.652V70.605H264.77v35.305h-17.648V35.305H229.47zm52.953 70.605v8.824H264.77V105.91h17.652zm0 35.301v8.828H264.77v-17.652h17.652zm0 44.129v17.652h17.652v17.652h-17.652v17.652h17.652v17.648H264.77v17.652h-70.605v-17.65h17.652v-17.648h17.652v-52.957h17.652v-17.648h35.301zm35.305-8.824v8.824h-17.652v-17.648h17.652zm-123.562 17.652v8.824h17.652v17.652h-17.652v17.652h-17.648v-17.652h-17.652v17.652h-17.652v-17.652h17.652v-17.652h-17.652v-17.652h52.953zm264.773 17.648v8.828h-35.305v-17.652h35.305zM70.605 238.293v8.828h17.652v17.648h17.652v-17.648h17.648v17.648H105.91v17.652H88.258V264.77H70.605v17.652H52.953V264.77h17.652v-17.648H52.953V229.47h17.652zm105.91 35.305v8.824H141.21V264.77h35.305zm123.559 35.301v8.828h17.652v70.605h-17.652V370.68h-17.652v17.652H264.77V370.68h-17.648v-17.652h35.301v-17.652H229.47v17.652h-35.305v-17.652h35.305v-17.648h17.652v-17.652h52.953zm105.906 0v8.828h-17.648v-17.652h17.648zm52.957 0v8.828h-17.652v-17.652h17.652zm-70.605 52.953v26.48h-52.957v-52.957h52.957zm-176.516 52.957v8.824h-17.652V405.98h17.652zm211.816 35.301v8.828H405.98v-17.652h17.652zM247.121 238.293v8.828h-17.652v17.648h35.301v-35.301h-17.648zm-70.605-17.652v8.828h17.648v-17.652h-17.648zm105.906 105.91v8.824h17.652v-17.648h-17.652zm70.605 35.301v8.828h17.652v-17.652h-17.652zM264.77 44.129v8.824h35.305V35.305H264.77zm88.258 52.953v61.781h123.559V35.305h-123.56zm105.027 0v43.246h-86.492V53.836h86.492zm-69.723 0v26.477h52.953V70.605h-52.953zm-70.605-35.301v8.824h17.648V52.953h-17.648zm-141.211 88.254v8.828h17.648v-17.652h-17.648zM35.305 414.809v61.777h123.559V353.027H35.305zm105.023 0v43.246H53.836v-86.492h86.492zm-69.723 0v26.477h52.953v-52.953H70.605zm176.516 17.648v8.828h17.648v-17.652h-17.648zm-70.605 35.305v8.824h17.648v-17.648h-17.648zm0 0"/></svg>