<svg xmlns="http://www.w3.org/2000/svg" viewBox="0 0 512 512"><path d="M90.374 188.71h303.112v160.137h28.482V162.829H90.374v25.881zm53.695-79.581v25.883h303.113v160.126h28.482v-186.01H144.069zM36.94 402.625h331.594V216.621H36.94v186.004zm165.83-167.906c31.981 0 57.948 33.064 57.948 73.861 0 40.807-25.967 73.871-57.948 73.871s-57.98-33.064-57.98-73.871c0-40.797 25.999-73.861 57.98-73.861zm-3.894 124.547h19.328v-95.46h-15.37c-.556 3.649-1.702 6.692-3.433 9.143a20.852 20.852 0 0 1-6.312 5.935c-2.519 1.49-5.331 2.536-8.469 3.123-3.14.59-6.378.85-9.744.754v14.603h24v61.902z"/></svg>