<svg xmlns="http://www.w3.org/2000/svg" viewBox="0 0 512 512"><path d="M94.363 423.925h322.971v29.106H94.363zm37.041-54.097h248.889v29.106H131.404zm124.75-164.59c20.357 0 36.924-16.564 36.924-36.925s-16.566-36.925-36.924-36.925c-20.361 0-36.928 16.564-36.928 36.925s16.567 36.925 36.928 36.925zm-5.922-58.401h11.838v21.573h19.605v11.839h-31.443v-33.412zm-45.634 195.899V253.67h39.412v88.974h23.68V253.67h39.412v88.881l72.031-.131-.402-221.535-122.93-61.916-122.627 62.36.402 221.537 71.022-.13zm51.556-227.44c29.279 0 53.016 23.737 53.016 53.018s-23.736 53.018-53.016 53.018c-29.281 0-53.02-23.737-53.02-53.018s23.739-53.018 53.02-53.018zm146.27 14.249l.375 205.758 59.521-11.808v-48.072h.307v-129.28zm-292.914.157l-59.832 16.441v84.019h-.305v93.333l60.512 12.044z"/></svg>