<svg xmlns="http://www.w3.org/2000/svg" viewBox="0 0 512 512"><path d="M212.925 255.197c-.101.229-.164 1.144-.164 2.746v4.385h-6.802l-5.267 12.229h13.08c2.389 14.846 7.522 26.423 15.466 34.662 8.734 9.193 20.244 13.766 34.502 13.766 9.843 0 18.575-2.187 26.159-6.6l.199-25.639c-8.959 7.125-17.69 10.661-26.193 10.661-13.146 0-21.518-8.929-25.15-26.851h29.597l5.23-12.229h-36.168l.165-7.131h38.066l5.262-12.229h-41.466c3.956-15.535 11.904-23.287 23.807-23.287 6.901 0 14.324 2.551 22.236 7.652l10.37-21.256c-11.12-5.656-21.389-8.501-30.904-8.501-13.506 0-24.724 4.351-33.649 12.914-8.502 7.948-14.128 18.769-16.809 32.478h-8.701l-5.264 12.229h12.398zm211.513 96.405V161.178H306.972c19.753 21.913 32.474 56.413 32.474 95.195 0 38.786-12.721 73.25-32.474 95.229h117.466zm-251.28-95.229c0-38.782 12.721-73.282 32.474-95.195H88.167v190.424h117.465c-19.754-21.979-32.474-56.443-32.474-95.229zM38.885 111.113v289.506h434.834V111.113H38.885zm410.504 265.405H63.215V136.193h386.174v240.325z"/></svg>