<svg xmlns="http://www.w3.org/2000/svg" viewBox="0 0 512 512"><path d="M390.507 184.386c0-74.246-60.138-134.383-134.387-134.403-74.232.021-134.372 60.157-134.401 134.403.029 65.472 46.84 119.955 108.828 131.921v34.327H170.67v51.149h59.877v59.876h51.128v-59.876h59.912v-51.149h-59.912v-34.327c62.003-11.951 108.832-66.45 108.832-131.921zm-217.629 0c.015-23.083 9.271-43.736 24.38-58.894 15.14-15.093 35.792-24.362 58.862-24.362s43.738 9.27 58.847 24.362c15.142 15.157 24.38 35.811 24.396 58.894-.016 23.058-9.254 43.692-24.396 58.863-15.109 15.109-35.777 24.351-58.847 24.368-23.069-.018-43.722-9.259-58.862-24.368-15.11-15.171-24.365-35.806-24.38-58.863z"/></svg>