<svg xmlns="http://www.w3.org/2000/svg" viewBox="0 0 512 512"><path d="M114.162 70.231v25.217h.025v74.837h-.025v224.311c0 9.199-7.486 16.685-16.688 16.685-9.199 0-16.684-7.486-16.684-16.685V153.191h20.693v-30.487H50.307v271.892c0 26.01 21.156 47.173 47.168 47.173H414.52c26.012 0 47.174-21.163 47.174-47.173V70.231H114.162zM219.5 307.048h-60.973v-60.973H219.5v60.973zm199.143 72.299H256.049v-25.404h162.594v25.404zm0-51.188H256.049v-25.404h162.594v25.404zm0-55.408H256.049v-25.403h162.594v25.403zm1.697-74.23H160.223v-75.56H420.34v75.56z"/></svg>