<svg xmlns="http://www.w3.org/2000/svg" viewBox="0 0 512 512"><path d="M401.858 207.052c0-18.415-3.433-33.365-21.861-33.365h-.138c13.774-2.35 16.537-15.661 16.537-31.804 0-17.775-3.312-32.195-21.104-32.195h-15.285c12.057-3.413 14.562-16.354 14.562-31.854 0-18.089-3.373-32.758-21.458-32.758H198.813c-50.815 0-92.016 41.194-92.016 92.017v98.203c0 36.04 19.936 64.626 51.273 76.835 24.394 16.037 73.521 54.229 83.988 107.306v40.044s68.626 7.453 68.626-57.061c0-75.979-47.833-88.326-9.752-90.177h56.8c20.065 0 23.791-16.267 23.791-36.337 0-17.426-2.824-31.959-16.699-35.49h15.173c18.429 0 21.861-14.934 21.861-33.364z"/></svg>