<svg xmlns="http://www.w3.org/2000/svg" viewBox="0 0 512 512"><path d="M160.181 124.095c2.371 0 4.789-.328 7.194-.977l97.026-27.046c14.26-3.978 22.563-18.726 18.606-32.98-3.974-14.257-18.737-22.581-32.964-18.611l-97.058 27.061c-14.223 3.963-22.562 18.709-18.607 32.969 3.32 11.836 14.08 19.584 25.803 19.584zm0 73.712a26.72 26.72 0 0 0 7.194-.997l191.862-53.452c14.256-3.989 22.579-18.756 18.605-32.992-3.954-14.244-18.735-22.583-32.979-18.611L152.986 145.24c-14.223 3.956-22.562 18.722-18.607 32.982 3.303 11.817 14.079 19.585 25.802 19.585zm184.682-32.343l-191.877 53.452c-14.223 3.973-22.562 18.752-18.575 32.98 3.271 11.852 14.046 19.604 25.77 19.604 2.371 0 4.789-.327 7.194-.998l191.862-53.467c14.256-3.978 22.564-18.736 18.605-32.965-3.974-14.257-18.735-22.581-32.979-18.606zm0 74.43l-191.877 53.462c-14.223 3.962-22.562 18.745-18.575 32.968 3.271 11.854 14.046 19.586 25.77 19.586.31 0 .622-.031.917-.031.097 0 .146.015.228.015 1.176.119 12.476 2.062 22.009 8.013 4.578 2.8 8.616 6.366 11.755 10.779v65.434h122.06v-65.465c5.068-7.245 13.099-12.184 20.567-15.11 3.825-1.537 7.375-2.475 9.843-3.024a43.992 43.992 0 0 1 2.78-.542c.264-.043.458-.067.555-.084 6.64-.733 12.267-5.359 14.327-11.725a17.145 17.145 0 0 0-4.81-17.853l-21.338-19.244 20.162-5.624c14.256-3.958 22.564-18.721 18.605-32.964-3.973-14.242-18.734-22.563-32.978-18.591zm-32.162 83.993c-8.632 5.04-17.722 12.381-24.72 23.004-2.78 4.205-5.169 8.965-7.032 14.146h-49.674c-1.863-5.182-4.218-9.941-7.014-14.146-3.745-5.669-8.064-10.365-12.557-14.307l88.506-24.67 15.729 14.188a67.195 67.195 0 0 0-3.238 1.785zm-91.089 148.218h69.017v-20.602h-69.017v20.602z"/></svg>