<svg xmlns="http://www.w3.org/2000/svg" viewBox="0 0 512 512"><path d="M255.79 101.919c-120.28 0-217.73 97.483-217.765 217.759.065 17.729.852 32.161 4.711 45.164 2.844 9.683 8.012 18.707 15.729 25.494 11.706 10.184 26.684 14.467 45.258 16.855 18.676 2.371 41.894 2.809 72.207 2.809 22.5 0 48.825-.227 79.86-.227 31.031 0 57.356.227 79.856.227 26.911 0 48.266-.328 65.793-2.089 13.146-1.312 24.232-3.341 34.027-7.133 7.357-2.845 14.061-6.833 19.489-12.216 8.308-8.026 13.049-18.65 15.472-29.939 2.448-11.396 3.07-23.999 3.103-38.945-.032-120.276-97.5-217.759-217.74-217.759zm20.206 44.243a167.658 167.658 0 0 1 32.213 7l-7.099 21.982a144.75 144.75 0 0 0-27.86-6.056l2.746-22.926zM109.35 315.574H86.229c0-11.201 1.111-22.186 3.14-32.816l22.694 4.418c-1.797 9.187-2.713 18.672-2.713 28.398zm12.754-60.119l-21.127-9.384h.032a167.515 167.515 0 0 1 16.316-28.714l18.873 13.311c-5.463 7.781-10.203 16.052-14.094 24.787zm36.2-49.642l-15.468-17.168c8.175-7.325 17.039-13.933 26.554-19.591l11.871 19.816c-8.21 4.909-15.894 10.564-22.957 16.943zm46.14-52.651c10.336-3.332 21.092-5.721 32.212-7l2.713 22.927a145.746 145.746 0 0 0-27.86 6.056l-7.065-21.983zm80.118 208.149l-54.513 9.709-13.863-53.63L357.03 173.338l-72.468 187.973zm91.861-130.643l18.869-13.311a167.487 167.487 0 0 1 16.352 28.714l-21.092 9.384a148.031 148.031 0 0 0-14.129-24.787zm26.882 84.906c0-9.727-.949-19.211-2.748-28.398l22.695-4.418a172.56 172.56 0 0 1 3.141 32.816h-23.088zm-159.979 34.731c9.516 6.099 22.14 3.367 28.256-6.133 6.083-9.479 3.302-22.124-6.179-28.223-9.484-6.115-22.107-3.332-28.225 6.184-6.08 9.431-3.366 22.108 6.148 28.172z"/></svg>