<svg xmlns="http://www.w3.org/2000/svg" viewBox="0 0 512 512"><path d="M183.656 40.044H40.519v143.15h143.137V40.044zM164.428 163.98H59.747V59.29h104.682v104.69zm81.165-123.936h-40.552V80.66h21.389v21.354h19.163v-61.97zm62.002 0H266.98V59.29h19.228v42.724h21.388v-61.97zm21.319 0v143.15h143.171V40.044H328.914zM452.855 163.98h-104.68V59.29h104.68v104.69zM143.07 80.66H81.104v61.952h61.966V80.66zm288.399 0H369.53v61.952h61.939V80.66zM226.43 102.014h-21.389v19.227h21.389v-19.227zm59.777 40.598v-40.599h-19.228v19.227h-40.55v21.372h59.778zm-19.228 102.539v-40.586h19.228v-21.371h-19.228V163.98h-21.387v19.214H226.43V163.98h-21.389v40.585h21.389v21.356h-21.389v-21.356H143.07v21.356h40.585v19.229h21.385v21.351h21.389V245.15h40.55zm40.616-81.171h-21.388v19.214h21.388V163.98zM40.519 204.565v40.586h19.228v-40.586H40.519zm40.585 0v21.356h40.613v-21.356H81.104zm226.491 21.357v-21.356h-21.388v21.356h21.388zm21.319-21.357v21.356h19.262v-21.356h-19.262zm81.199 21.357v-21.356h-19.227v21.356h-42.711v59.808h-19.262v21.389h40.615v21.353h-40.615v19.223h19.262v42.739h-19.262v40.585h-21.319v-61.934h-21.388v83.284h42.707v19.229h61.973v-19.229h-21.357v-21.351h-21.354v-21.356h21.354v-61.968h21.357V285.73h19.227v-19.228h-40.584v-21.351h61.939v-19.229h-21.355zm21.356 0h21.387v19.229h-21.387v40.578h21.387v-19.228h19.229v-61.937h-40.616v21.358zm-288.399 0h-21.353v19.229h-61.97v21.351h21.357v19.228H59.747v21.389h42.743V285.73h19.228v-19.228h61.938v-21.351H143.07v-19.229zm185.844 19.229h-21.319v21.351h21.319v-21.351zM40.519 266.502v19.228h19.228v-19.228H40.519zm185.911 0v19.228h19.163v-19.228H226.43zm81.165 40.616v-40.616H266.98v19.228h19.228v21.389H266.98v40.575h19.228v-19.223h42.707v-21.353h-21.32zm-143.167 0h19.228v-21.389h-19.228v21.389zm81.165-21.389v21.389h21.387v-21.389h-21.387zm226.492 42.742V285.73h-19.229v42.741h19.229zm-267.044 40.613h21.389v-40.613h19.163v-21.353h-40.552v61.966zm205.072-40.613h21.355v-21.353h-21.355v21.353zM40.519 471.598h143.137V328.471H40.519v143.127zm19.228-123.905h104.682v104.675H59.747V347.693zm269.167 0h-21.319v21.391h21.319v-21.391zm81.199 21.391v21.349h21.355v19.229h21.387v-40.577h-21.387v-21.391h-40.582v21.391h19.227zm61.972-21.391h-19.229v21.391h19.229v-21.391zM81.104 431.018h61.966v-61.934H81.104v61.934zm164.489-40.585h-40.552v40.585h21.389v-21.356h19.163v21.356h21.387v-61.934h-21.387v21.349zm145.294 19.228h19.227v-19.229h-19.227v19.229zm61.968 42.707h19.229v-21.351h-19.229v21.351zm-247.814 19.23h61.938v-19.229h-61.938v19.229zm205.072 0h21.355v-19.229h-21.355v19.229z"/></svg>