<svg xmlns="http://www.w3.org/2000/svg" viewBox="0 0 512 512"><path d="M345.877 223.204l-63.098 63.098-21.219-21.219 63.098-63.098zm-8.121 206.65v-27.881h-40.945v-41.887c24.939-4.439 47.91-16.326 66.199-34.614l18.123-18.124-50.988-50.992-36.252 36.25 11.518 11.516c-9.52 4.378-19.957 6.68-30.748 6.68-19.68 0-38.182-7.662-52.098-21.579-28.639-28.641-28.717-75.187-.246-103.935l29.867 29.867 36.248-36.25-126.77-126.768-36.248 36.25 60.65 60.649c-48.455 48.739-48.379 127.806.248 176.437 16.574 16.573 36.99 27.889 59.232 33.175v43.326h-50.723v27.881h-48.828v30.009h240.586v-30.009h-48.825zM46.553 242.624"/></svg>