<svg xmlns="http://www.w3.org/2000/svg" viewBox="0 0 512 512"><path d="M411.685 161.576l-48.849-13.089-13.093-48.851 49.864-49.864c-29.43-7.945-62.171-.389-85.272 22.712-23.24 23.237-30.747 56.229-22.568 85.794L157.22 292.826c-29.565-8.176-62.555-.668-85.797 22.569-23.1 23.101-30.655 55.843-22.71 85.274l49.866-49.861 48.85 13.088 13.09 48.851-49.864 49.864c29.43 7.941 62.172.386 85.271-22.715 24.258-24.254 31.373-59.141 21.405-89.658L349.183 218.39c30.52 9.972 65.401 2.853 89.653-21.404 23.103-23.101 30.657-55.843 22.713-85.273l-49.864 49.863z"/></svg>