<svg xmlns="http://www.w3.org/2000/svg" viewBox="0 0 512 512"><path d="M471.66 395.484c-7.229-20.952-31.164-23.963-51.153-32.393-21.954-9.256-46.3-20.008-68.202-28.99-6.251-1.703-12.506-3.409-18.755-5.115-7.464-5.135-14.77-22.201-18.761-30.688-3.976-.568-7.951-1.137-11.938-1.701.618-13.129 8.745-13.834 11.938-23.868 2.812-8.845.294-20.349 4.754-28.537 3.096-5.688 10.095-5.728 13.59-10.604 3.175-4.424 5.263-12.141 6.25-17.559 1.805-9.909 3.379-23.461-1.323-33.287-2.706-5.643-4.413-6.184-5.165-13.037-.915-8.303 2.449-35.389 2.588-41.243.342-15.194-.025-16.423-3.704-31.222 0 0-4.462-13.41-11.462-17.447l-13.952-2.402-8.623-7.99C263 48.022 225.75 63.014 205.803 71.104c-28.747 9.326-46.923 37.471-34.232 97.607 2.166 10.272-5.624 14.865-5.116 20.469 1.116 12.255 1.351 41.722 12.93 48.977 1.078.676 9.292 2.733 9.238 2.172 1.14 11.932 2.274 23.877 3.409 35.809 2.891 7.93 9.829 8.803 11.845 20.007L195 298.299c-3.991 8.486-11.298 25.553-18.76 30.688-6.251 1.706-12.506 3.412-18.756 5.115-21.903 8.982-46.248 19.734-68.201 28.99-19.992 8.43-43.925 11.44-51.152 32.393 0 14.234-1.341 47.849-.974 66.492h435.475c.368-18.644-.972-52.258-.972-66.493zm-91.439 47.624h-77.537v-34.106h77.537v34.106z"/></svg>