<svg xmlns="http://www.w3.org/2000/svg" viewBox="0 0 512 512"><path d="M36.571 269.686v85.244h11.836l-.016.053h415.982l-.018-.053h11.854v-85.244H36.571zm55.968 62.086H67.637v-33.657h24.902v33.657zm60.988 0h-24.919v-33.661h24.919v33.661zm60.974 0h-24.919v-33.661h24.919v33.661zm212.036 1.392c-10.842 0-19.652-8.797-19.652-19.645 0-10.857 8.811-19.67 19.652-19.67 10.857 0 19.654 8.812 19.654 19.67 0 10.848-8.796 19.645-19.654 19.645zM387.328 41.963H125.372l-76.98 197.079h415.982L387.328 41.963zM36.571 470.887H476.21v-85.254H36.571v85.254zm389.966-61.076c10.857 0 19.654 8.793 19.654 19.635 0 10.868-8.797 19.662-19.654 19.662-10.842 0-19.652-8.794-19.652-19.662 0-10.842 8.81-19.635 19.652-19.635zm-236.955 4.24h24.919v33.684h-24.919v-33.684zm-60.974 0h24.919v33.684h-24.919v-33.684zm-60.971 0h24.902v33.684H67.637v-33.684z"/></svg>