<svg xmlns="http://www.w3.org/2000/svg" viewBox="0 0 512 512"><path d="M222.201 224.715l75.529-57.061c26.902-26.9 50.41-92.838 31.727-111.521-18.684-18.682-83.99 5.454-110.891 32.354l-57.057 75.533c-1.562 14.544 45.491 62.322 60.692 60.695zm-92.66-28.992l-20.896 20.899c-20.715 20.713-12.348 45.014 2.037 59.4 14.385 14.385 38.203 22.268 58.918 1.555l20.896-20.9c9.26-9.255-51.697-70.21-60.955-60.954zm279.531 32.692c-18.682-18.683-83.988 5.455-110.889 32.352l-57.059 75.536c-1.561 14.542 45.492 62.321 60.693 60.692l75.527-57.06c26.904-26.901 50.412-92.838 31.728-111.52zM209.158 368.003l-20.898 20.9c-20.713 20.711-12.348 45.012 2.037 59.4 14.387 14.388 38.205 22.269 58.918 1.553l20.898-20.897c9.258-9.255-51.697-70.212-60.955-60.956z"/></svg>