<svg xmlns="http://www.w3.org/2000/svg" viewBox="0 0 512 512"><path d="M190.071 318.519c-.035-.189-.064-.387-.102-.575l40.457-48.848-45.662-.078a325.44 325.44 0 0 1-.153-9.566c-.072-47.771 10.348-90.818 25.58-119.785 7.543-14.494 16.227-25.336 24.323-31.838 8.224-6.562 15.078-8.871 21.716-8.918 7.986.035 16.798 3.545 27.148 13.859 10.144 10.182 20.397 26.819 28.208 48.035.439 1.189.866 2.408 1.293 3.621l36.89-44.537c-8.234-16.621-18.093-31.258-29.868-43.23-16.765-17.115-38.849-29.141-63.671-29.104-20.229-.047-38.979 8.065-54.033 20.353-22.712 18.569-39.184 46.071-50.871 78.876-11.58 32.864-18.061 71.377-18.08 112.668 0 3.18.056 6.336.132 9.479l-50.725-.084 73.73 89.646 33.111-39.974h.577zm238.193-68.486l-73.735-89.644-74.039 89.394 47.216.078c.089 3.18.151 6.366.151 9.59.061 47.768-10.354 90.816-25.586 119.775-7.544 14.498-16.229 25.332-24.325 31.836-8.224 6.561-15.08 8.87-21.715 8.916-4.641-.021-9.16-1.14-14.378-3.949-7.76-4.158-16.786-12.632-25.084-25.487-6.225-9.573-12.009-21.462-16.858-35.11l-36.834 44.471c6.64 13.242 14.357 25.176 23.206 35.52 9.006 10.463 19.268 19.326 31.029 25.735 11.718 6.399 25.078 10.21 38.919 10.189h.168c20.164 0 38.849-8.104 53.86-20.358 22.715-18.574 39.18-46.066 50.873-78.881 11.58-32.855 18.06-71.36 18.08-112.656-.002-3.191-.103-6.34-.177-9.5l49.229.081z"/></svg>