<svg xmlns="http://www.w3.org/2000/svg" viewBox="0 0 512 512"><path d="M400.424 340.116v-41.529c-.131-13.113-3.236-24.411-7.686-35.385-4.609-10.921-10.431-21.124-19.618-30.461l-75.247-75.261c-.492-.326-3.534-4.578-5.299-9.108-1.964-4.432-2.815-9.551-2.681-10.175v-80.39h-65.896v80.39c.131.624-.718 5.743-2.648 10.175-1.766 4.53-4.807 8.782-5.331 9.108l-75.279 75.261c-9.154 9.337-14.944 19.557-19.587 30.461-4.447 10.974-7.554 22.271-7.685 35.385v41.529h-57l89.964 114.019 89.962-114.019h-57v-41.529c-.13-.604.688-5.76 2.649-10.169 1.799-4.545 4.806-8.749 5.332-9.092l69.586-69.588 69.592 69.588c.489.343 3.562 4.547 5.33 9.092 1.927 4.463 2.777 9.565 2.646 10.169v41.529h-58.667l89.966 114.019 89.926-114.019h-55.329z"/></svg>