<svg xmlns="http://www.w3.org/2000/svg" viewBox="0 0 512 512"><path d="M197.291 214.937a91.431 91.431 0 0 1 19.494-23.541 76.406 76.406 0 0 1-4.023-7.661c-8.293-18.317-8.953-38.77-1.863-57.586 7.088-18.815 21.082-33.744 39.4-42.035 18.318-8.289 38.768-8.952 57.582-1.865v-.001l.008.004c18.809 7.089 33.736 21.08 42.033 39.398 8.289 18.322 8.947 38.769 1.857 57.583-11.059 29.348-39.145 48.76-70.363 48.76-.67 0-1.34-.009-2.01-.028-.127-.002-.252-.004-.373-.004-7.91 0-14.453 6.314-14.652 14.281-.203 8.088 6.182 14.812 14.275 15.015.9.016 1.795.04 2.699.04 43.375 0 82.473-26.945 97.84-67.723 9.852-26.15 8.941-54.557-2.578-80.004-11.518-25.446-32.258-44.885-58.395-54.736l-.047-.013c-26.125-9.835-54.523-8.912-79.961 2.602-25.447 11.52-44.887 32.257-54.734 58.397-9.848 26.139-8.93 54.551 2.586 79.997a105.61 105.61 0 0 0 11.225 19.12zm-7.322 74.318l-63.941 63.929v41.679h41.463v-29.254h31.051l12.244-12.24 11.434-11.435v-8.65a90.008 90.008 0 0 1-32.251-44.029zm173.371 70.234l-14.805-44.826a90.405 90.405 0 0 1-18.902 18.622v104.128l32.66 16.439 18.643-37.038-12.166-40.881-5.43-16.444zm-20.906-107.845c-18.025 11.157-39.092 17.491-61.078 17.491-.805 0-1.604-.016-2.4-.032l-.596-.012a26.307 26.307 0 0 1-9.967-2.233c-10.451-3.217-18.039-12.943-18.039-24.45 0-12.604 9.113-23.046 21.107-25.158a26.07 26.07 0 0 1 8.259-1.12c.564.013 1.131.022 1.693.022 12.328 0 24.109-3.696 34.117-10.128-11.1-8.14-24.787-12.957-39.604-12.957-37.041 0-67.062 30.027-67.062 67.066 0 26.237 15.082 48.939 37.033 59.951v22.653l1.26 1.58 22.574 22.578-23.834 23.832v1.25l21.951 21.953-20.691 20.691 29.32 29.318 29.477-29.476V320.085c21.957-11.012 37.033-33.714 37.033-59.951.001-2.878-.2-5.706-.553-8.49z"/></svg>