<svg xmlns="http://www.w3.org/2000/svg" viewBox="0 0 512 512"><path d="M255.652 38.669c-120.082 0-217.434 97.351-217.434 217.4 0 120.08 97.352 217.438 217.434 217.438 120.049 0 217.399-97.357 217.399-217.438.001-120.049-97.35-217.4-217.399-217.4zm0 383.691c-91.694 0-166.289-74.596-166.289-166.291 0-91.663 74.595-166.252 166.289-166.252 91.68 0 166.255 74.589 166.255 166.252 0 91.696-74.575 166.291-166.255 166.291zm52.976-221.26c0-29.252-23.74-52.975-52.976-52.975-29.269 0-52.993 23.723-52.993 52.975 0 24.001 15.976 44.261 37.853 50.751l-29.677 112.201h89.602l-29.691-112.201c21.893-6.491 37.882-26.735 37.882-50.751z"/></svg>