<svg xmlns="http://www.w3.org/2000/svg" viewBox="0 0 512 512"><path d="M157.117 441.285h51.141V259.654l-51.141 51.176v130.455zm-70.311-60.136v60.136h51.146V329.99l-35.319 35.33-15.827 15.829zm140.616 60.103h51.146V300.854l-51.146-51.146v191.544zm70.312-134.43v134.463h51.143V255.661l-40.093 40.123-11.05 11.038zm70.34 134.463h51.111V185.353L368.074 236.5v204.785zM347.73 81.363l33.915 33.941.197.198-90.683 90.714-68.35-68.33L48.807 311.91l36.17 36.143 137.834-137.846 68.35 68.33L418.008 151.67l33.75 33.748 11.018-115.043L347.73 81.363z"/></svg>