<svg xmlns="http://www.w3.org/2000/svg" viewBox="0 0 512 512"><path d="M444.769 159.533c-9.81-9.565-17.87-23.395-17.87-30.719 0-7.331-11.232-13.313-24.934-13.313H111.1c-13.719 0-24.937 5.982-24.937 13.313 0 7.324-8.046 21.154-17.854 30.719 0 0-36.187 35.172-36.187 96.406 0 61.234 36.187 96.438 36.187 96.438 9.809 9.532 17.854 23.363 17.854 30.688 0 7.324 11.218 13.329 24.937 13.329h290.865c13.701 0 24.934-6.005 24.934-13.329 0-7.325 8.061-21.156 17.87-30.688 0 0 36.171-35.203 36.171-96.438-.001-61.234-36.171-96.406-36.171-96.406zm-137.363 86.35v20.765h-31.295l-3.27 6.342v10.072h34.564v20.802h-34.564v30.165h-33.257v-30.165h-34.338v-20.802h34.338V272.99l-3.059-6.342h-31.279v-20.765h20.782l-33.469-68.02h35.431l28.875 68.02 28.224-68.02h35.414l-33.879 68.02h20.782z"/></svg>