<svg xmlns="http://www.w3.org/2000/svg" viewBox="0 0 512 512"><path d="M49.525 422.919h412.116v-238.2H49.525v238.2zM184.041 261.09l26.732-26.852 42.262 42.446 42.262-42.446 26.734 26.852-42.262 42.445 42.262 42.447-26.734 26.851-42.262-42.446-42.262 42.446-26.732-26.851 42.26-42.447-42.26-42.445zM444.766 88.308H66.403c-9.321 0-16.878 7.59-16.878 16.951v55.727h412.116v-55.727c.001-9.361-7.553-16.951-16.875-16.951zM93.322 143.445c-7.342 0-13.291-5.976-13.291-13.347 0-7.369 5.949-13.346 13.291-13.346 7.34 0 13.291 5.977 13.291 13.346 0 7.371-5.951 13.347-13.291 13.347zm47.559 0c-7.338 0-13.285-5.976-13.285-13.347 0-7.369 5.947-13.346 13.285-13.346 7.344 0 13.291 5.977 13.291 13.346 0 7.371-5.947 13.347-13.291 13.347zm47.564 0c-7.34 0-13.291-5.976-13.291-13.347 0-7.369 5.951-13.346 13.291-13.346s13.288 5.977 13.288 13.346c0 7.371-5.948 13.347-13.288 13.347z"/></svg>