<svg xmlns="http://www.w3.org/2000/svg" viewBox="0 0 512 512"><path d="M355.731 49.279H156.269c-11.109 0-20.118 9.008-20.118 20.118v373.204c0 11.11 9.009 20.119 20.118 20.119h199.463c11.109 0 20.118-9.009 20.118-20.119V69.397c0-11.11-9.009-20.118-20.119-20.118zm-32.043 136.333c7.487 0 13.556 6.069 13.556 13.558s-6.069 13.558-13.556 13.558h-11.435c1.05-4.352 1.62-8.889 1.62-13.558s-.57-9.206-1.62-13.558h11.435zm-81.245-54.128c0-7.487 6.07-13.558 13.557-13.558s13.558 6.07 13.558 13.558v11.433c-4.352-1.049-8.889-1.62-13.558-1.62s-9.205.571-13.557 1.62v-11.433zm-54.131 54.128h11.434c-1.05 4.352-1.62 8.889-1.62 13.558s.57 9.206 1.62 13.558h-11.434c-7.487 0-13.557-6.069-13.557-13.558s6.07-13.558 13.557-13.558zm25.034 247.432h-43.788v-43.788h43.788v43.788zm0-64.384h-43.788v-43.787h43.788v43.787zm65.82 64.384h-43.79v-43.788h43.79v43.788zm0-64.384h-43.79v-43.787h43.79v43.787zm-36.723-101.804v-11.432c4.352 1.049 8.888 1.62 13.557 1.62s9.206-.571 13.558-1.62v11.432c0 7.487-6.07 13.558-13.558 13.558s-13.557-6.07-13.557-13.558zM256 229.93c-16.985 0-30.759-13.771-30.759-30.76 0-16.987 13.773-30.758 30.759-30.758 16.987 0 30.759 13.771 30.759 30.758 0 16.988-13.772 30.76-30.759 30.76zm88.112 203.114h-43.788v-43.788h43.788v43.788zm0-64.384h-43.788v-43.787h43.788v43.787z"/></svg>