<svg xmlns="http://www.w3.org/2000/svg" viewBox="0 0 512 512"><path d="M256.399 374.473c-51.539 0-100.38-6.965-137.526-19.617-19.656-6.689-34.142-14.323-44.721-22.303v73.543c0 19.282 25.801 36.514 66.316 47.894 31.494 8.862 71.897 14.177 115.931 14.177 100.656 0 182.229-27.794 182.229-62.07v-73.543c-10.595 7.979-25.065 15.613-44.72 22.303-37.132 12.651-85.99 19.616-137.509 19.616zm182.229-84.923v-75.572c-10.595 7.946-25.065 15.598-44.72 22.285-37.132 12.638-85.99 19.604-137.509 19.604-51.539 0-100.38-6.966-137.526-19.604-19.656-6.688-34.159-14.339-44.721-22.285v75.572c6.051 32.44 85.529 58.112 182.247 58.112 96.697 0 176.196-25.672 182.229-58.112zM74.152 169.895c4.449 32.928 84.452 59.156 182.247 59.156 97.776 0 177.784-26.229 182.229-59.156v-64.343c0-34.286-81.573-62.07-182.229-62.07-100.673 0-182.247 27.784-182.247 62.07v64.343z"/></svg>