<svg xmlns="http://www.w3.org/2000/svg" viewBox="0 0 512 512"><path d="M429.714 386.966c-3.01-2.262-5.493-7.262-5.493-11.151V138.348c0-3.906 2.483-8.942 5.493-11.169 0 0 17.526-13.042 17.526-26.894 0-18.723-17.265-33.896-38.586-33.896-11.25 0-22.663 7.326-22.663 7.326-3.142 2.024-8.765 3.695-12.459 3.695h-34.796c-3.694 0-9.287-1.671-12.461-3.695 0 0-15.73-10.04-29.822-10.04h-2.943c-3.171.391-7.979-1.406-10.692-4.039 0 0-14.422-13.848-29.466-13.848-15.108 0-29.527 13.963-29.527 13.963-2.75 2.616-7.817 4.413-11.284 3.924h-3.335c-14.062 0-29.791 10.04-29.791 10.04-3.172 2.024-8.797 3.695-12.49 3.695h-28.29c-3.663 0-9.286-1.671-12.427-3.695 0 0-11.411-7.326-22.661-7.326-21.322 0-38.59 15.173-38.59 33.896 0 13.852 17.53 26.894 17.53 26.894 3.01 2.227 5.461 7.263 5.461 11.169v237.467c0 3.89-2.451 8.858-5.461 11.151 0 0-17.53 13.06-17.53 26.913 0 18.705 17.268 33.878 38.59 33.878 12.59 0 25.278-9.436 25.278-9.436 3.041-2.241 8.504-4.069 12.199-4.069h22.204c3.696 0 9.188 1.864 12.165 4.151 0 0 17.657 13.505 33.812 13.505 4.843 0 7.357-.495 7.357-.495 3.632-.73 8.962.658 11.871 3.061 0 0 13.604 11.366 27.305 11.366 13.181 0 26.425-10.431 26.425-10.431 2.942-2.339 8.011-3.926 11.216-3.501h3.074c16.156 0 33.812-13.505 33.812-13.505 3.01-2.287 8.471-4.151 12.166-4.151h28.712c3.693 0 9.19 1.828 12.198 4.069 0 0 12.719 9.436 25.312 9.436 21.321 0 38.586-15.173 38.586-33.878.001-13.854-17.525-26.913-17.525-26.913zm-57.653-13.195H136.148V137.858H372.06v235.913z"/></svg>