<svg xmlns="http://www.w3.org/2000/svg" viewBox="0 0 512 512"><path d="M248.783 78.871c9.851 0 18.21 7.547 19.038 17.531l10.328 124.342c1.933 7.75 4.196 10.189 6.282 10.189 3.555 0 6.595-7.09 6.595-7.09l18.366-103.214c1.642-9.254 9.717-15.771 18.814-15.771 1.109 0 2.236.097 3.366.296 10.4 1.853 17.329 11.783 15.49 22.181L329.078 228.42v-.008.01-.002c.012.398.468 15.027 5.367 15.027 1.682 0 3.884-1.722 6.77-6.32-.003-.02-.003-.02.02-.033l30.148-65.229c3.634-5.794 9.863-8.977 16.235-8.977 3.471 0 6.979.941 10.136 2.918 8.947 5.609 11.658 17.422 6.055 26.377L349.747 306.5s-6.678 49.663-28.724 90.12l-.479 34.612H209.841l-.286-36.086s-21.284-11.604-39.886-45.158l-63.544-53.725c-8.069-6.818-9.079-18.889-2.262-26.954 3.785-4.476 9.187-6.778 14.622-6.778a19.005 19.005 0 0 1 12.331 4.516l36.351 28.557c3.816 2.991 8.558 5.167 12.906 5.167 11.025 0 19.547-13.972 4.202-64.077l-30.55-99.506c-3.11-10.111 2.57-20.803 12.659-23.9a19.021 19.021 0 0 1 5.623-.85c8.184 0 15.755 5.291 18.287 13.52l30.27 98.619c.332.611.706 1.448 1.127 2.672 2.243 6.395 8.296 15.954 12.815 15.954 3.407 0 5.939-5.429 5.313-21.733L229.692 99.572c-.873-10.521 6.95-19.762 17.484-20.635a19.787 19.787 0 0 1 1.607-.066m0-25.039c-1.21 0-2.441.051-3.652.152-24.299 2.015-42.406 23.397-40.388 47.659l.021.235c-8.166-9.043-19.907-14.48-32.756-14.48-4.39 0-8.757.659-12.972 1.949-11.275 3.465-20.528 11.109-26.051 21.533-5.53 10.426-6.663 22.384-3.189 33.664l30.546 99.5c2.202 7.189 3.755 13.189 4.843 18.157l-18.601-14.61a44.184 44.184 0 0 0-28.094-10.104h-.012a44.123 44.123 0 0 0-33.734 15.65c-7.618 9.016-11.269 20.451-10.284 32.207.984 11.756 6.492 22.424 15.5 30.039l60.161 50.863c12.1 20.611 25.118 33.879 34.495 41.703l.188 23.477.196 24.844H345.239l.343-24.691.396-28.632c18.301-36.167 25.896-76.288 27.97-89.046l51.994-109.955c11.696-20.44 5.236-46.742-14.894-59.355a44.083 44.083 0 0 0-23.431-6.739 44.255 44.255 0 0 0-17.64 3.637l1.737-9.768c4.24-23.997-11.806-46.961-35.765-51.218a44.485 44.485 0 0 0-7.744-.684 44.087 44.087 0 0 0-35.188 17.46l-.244-2.95c-1.884-22.706-21.209-40.497-43.99-40.497z"/></svg>