<svg xmlns="http://www.w3.org/2000/svg" viewBox="0 0 512 512"><path d="M256.004 146.532c26.324 0 47.664-21.339 47.664-47.66 0-26.323-21.34-47.664-47.664-47.664s-47.664 21.34-47.664 47.664c0 26.321 21.34 47.66 47.664 47.66zM49.525 271.882v98.662h41.977l16.445 90.249h296.105l16.445-90.249h41.977v-98.662H49.525zm174.239-75.609c.16.515.281 1.043.299 1.59v4.785l-.004-.012c0 10.362-.523 25.816-2.611 45.43h69.102c-2.086-19.613-2.611-35.067-2.611-45.43v-4.796c.008-.262.064-.514.111-.767l36.145 50.992h40.629l-54.791-77.304c-2.895-4.201-6.293-6.775-9.893-8.766-3.873-2.038-8.07-3.453-13.395-3.511-.629 0-1.135.024-1.551.051l-29.188 1.819-30.045-1.87a21.47 21.47 0 0 0-1.529-.049c-5.338.059-9.555 1.48-13.428 3.534-3.607 2.015-7 4.612-9.881 8.844l-.004-.001-54.059 77.253h40.455l36.249-51.792z"/></svg>