<svg xmlns="http://www.w3.org/2000/svg" viewBox="0 0 512 512"><path d="M229.882 259.469c-18.919-11.596-37.02-21.375-59.731-23.158-27.751-2.188-55.429 6.158-80.847 16.53L52.779 380.639c48.963-18.699 94.119-20.855 139.427 7.877l37.692-129.039s-.008-.008-.016-.008m-48.833-49.548c23.059 2.835 41.371 12.591 56.304 21.974 12.356-42.651 24.59-85.335 37.052-127.946-17.793-11.319-35.975-21.131-57.284-23.254-28.043-3.347-57.26 5.064-82.912 15.557-12.502 42.748-24.746 85.578-37.11 128.367 26.479-10.388 55.292-18.215 83.95-14.698m149.499 90.261c-34.347 0-57.722-12.104-77.752-25.426-.097.113-.251.211-.364.293l-37.109 128.439c47.042 31.178 100.299 30.887 151.458 9.285l35.983-125.539-.323.082c-27.128 9.075-50.909 12.866-71.893 12.866m117.907-171.625c-.098-.065-.179-.146-.26-.227-51.67 20.977-102.577 23.173-150.544-8.703-2.195 7.568-4.214 13.289-5.492 17.728l-12.715 43.997c-6.497 22.525-13.004 45.05-19.51 67.566 46.889 30.312 100.105 31.932 150.933 9.092l37.668-129.381-.08-.072"/></svg>