<svg xmlns="http://www.w3.org/2000/svg" viewBox="0 0 512 512"><path d="M75.638 399.307h360.725v40.707H75.638zm58.086-101.487c18.557 0 33.654-15.1 33.654-33.654h14.209c0 18.555 15.096 33.654 33.652 33.654 18.561 0 33.656-15.1 33.656-33.654h14.207c0 18.555 15.098 33.654 33.656 33.654 18.557 0 33.654-15.1 33.654-33.654h14.207c0 18.555 15.098 33.654 33.654 33.654 16.338 0 29.98-11.705 33.014-27.164V258.52c0-22.602-17.488-41.08-39.664-42.744v-68.934c-4.98 2.539-10.596 4.002-16.559 4.002-5.955 0-11.57-1.461-16.547-3.994v68.764H272.55v-68.77c-4.979 2.539-10.592 4-16.553 4-5.959 0-11.574-1.461-16.551-4v68.77h-65.965v-68.77c-4.979 2.539-10.592 4-16.553 4s-11.574-1.461-16.553-4v68.932c-22.18 1.66-39.668 20.143-39.668 42.744v12.129c3.034 15.46 16.677 27.171 33.017 27.171zm277.564.91c-8.596 8.215-20.213 13.297-33.014 13.297-17.238 0-32.33-9.191-40.758-22.898-8.428 13.707-23.521 22.898-40.758 22.898-17.238 0-32.332-9.191-40.76-22.898-8.428 13.707-23.52 22.898-40.76 22.898-17.238 0-32.33-9.191-40.756-22.898-8.43 13.707-23.523 22.898-40.76 22.898-12.803 0-24.418-5.082-33.014-13.297v73.787h310.578V298.73zM255.999 134.291c11.078 0 20.059-8.984 20.059-20.061 0-11.078-20.059-42.244-20.059-42.244s-20.061 31.166-20.061 42.244c0 11.077 8.983 20.061 20.061 20.061zm99.066 0c11.08 0 20.061-8.984 20.061-20.061 0-11.078-20.061-42.244-20.061-42.244s-20.057 31.166-20.057 42.244c.001 11.077 8.981 20.061 20.057 20.061zm-198.134 0c11.08 0 20.061-8.984 20.061-20.061 0-11.078-20.061-42.244-20.061-42.244s-20.059 31.166-20.059 42.244c0 11.077 8.982 20.061 20.059 20.061z"/></svg>