<svg xmlns="http://www.w3.org/2000/svg" viewBox="0 0 512 512"><path d="M189.307 167.625c34.041 0 61.675-27.586 61.675-61.667 0-34.046-27.634-61.654-61.675-61.654-34.076 0-61.677 27.608-61.677 61.654-.001 34.081 27.6 61.667 61.677 61.667zm182.506 147.252c24.494 0 44.345-19.852 44.345-44.344 0-24.489-19.851-44.334-44.345-44.334-24.493 0-44.31 19.845-44.31 44.334.001 24.492 19.817 44.344 44.31 44.344zm41.138 18.59c-6.475-6.441-14.127-10.305-41.825-10.305-27.666 0-33.355 7.295-41.27 10.305l-40.255 12.035c-.229-7.424-4.547-137.281-17.17-149.939-13.047-13.028-28.514-20.855-84.502-20.855-55.983 0-71.06 8.476-83.454 20.855-12.361 12.364-8.174 144.273-8.174 144.273l27.372-65.048 17.2 193.753 49.641-99.142 46.339 99.142 16.383-193.753 36.233 70.762-.458.149 50.329 13.096 8.534 109.746L372.4 419.48l22.957 49.061 8.078-95.873 13.571 32.189c.001 0 2.388-64.948-4.055-71.39z"/></svg>