<svg xmlns="http://www.w3.org/2000/svg" viewBox="0 0 512 512"><path d="M198.664 161.585l-.005-.006s-.006-.065-.03-.437a147.748 147.748 0 0 1-.216-8.293c-.066-11.91 1.413-33.954 8.334-50.872 3.407-8.498 7.999-15.48 13.565-20.059 5.634-4.538 12.123-7.381 22.623-7.475h25.036c10.6.104 17.123 3.033 22.855 7.782 8.52 7.062 14.715 20.391 18.013 34.776 3.379 14.284 4.059 29.022 4.043 37.48 0 2.375-.045 4.256-.092 5.516-.028.627-.046 1.106-.06 1.399-.018.301-.023.35-.018.35l30.712 2.042c.016-.284.238-3.735.238-9.307-.069-13.335-1.102-38.549-10.403-62.546-4.704-11.974-11.637-23.883-22.485-33.149-10.771-9.299-25.656-15.219-42.804-15.116h-25.036c-16.848-.099-31.511 5.544-42.241 14.533-16.178 13.552-23.803 32.524-28.089 49.949-4.221 17.538-4.954 34.179-4.97 44.695 0 6.62.316 10.785.339 11.105l30.691-2.367zm185.701 28.729H126.94l-20.033 277.87h297.489l-20.031-277.87z"/></svg>