<svg xmlns="http://www.w3.org/2000/svg" viewBox="0 0 512 512"><path d="M412.084 217.042h-45.748L157.24 115.24c-2.322-13.228-13.832-23.3-27.73-23.3-15.564 0-28.191 12.606-28.191 28.174 0 15.579 12.627 28.207 28.191 28.207a27.86 27.86 0 0 0 15.73-4.828l151.08 73.549H100.73c-6.834 0-12.363 5.524-12.363 12.327V407.89c0 6.817 5.529 12.342 12.363 12.342h311.354c6.836 0 12.328-5.524 12.328-12.342V229.369c0-6.803-5.492-12.327-12.328-12.327zM197.43 384.721c-36.264 0-65.697-29.416-65.697-65.684 0-36.281 29.434-65.666 65.697-65.666 36.266 0 65.667 29.384 65.667 65.666 0 36.268-29.402 65.684-65.667 65.684zm149.316-13.69c-10.366 0-18.772-8.385-18.772-18.751 0-10.367 8.406-18.773 18.772-18.773 10.367 0 18.77 8.406 18.77 18.773 0 10.366-8.403 18.751-18.77 18.751zm0-65.158c-10.366 0-18.772-8.384-18.772-18.751 0-10.366 8.406-18.759 18.772-18.759 10.367 0 18.77 8.393 18.77 18.759 0 10.367-8.403 18.751-18.77 18.751z"/></svg>