<svg xmlns="http://www.w3.org/2000/svg" viewBox="0 0 512 512"><path d="M170.977 220.982H96.386v-87.949H33.43v245.73h62.956V275.799h74.591v102.965h62.961v-245.73h-62.961v87.948zm300.007-10.512c-3.131-14.316-9.05-27.702-17.629-39.955-10.861-15.422-25.482-26.33-43.125-32.092-10.525-3.458-23.12-5.163-37.949-5.386H265.186V378.77h107.757c36.557.003 65.527-16.162 83.098-46.78 13.136-22.679 19.516-50.065 19.5-81.719 0-12.713-1.529-25.979-4.557-39.801zm-66.317 84.259c-4.099 10.212-9.483 17.264-16.001 21.877-6.539 4.595-14.473 7.002-24.646 7.03h-36.979V188.169h36.979c10.261-.006 18.418 1.49 24.473 4.101 6.085 2.642 10.121 6.187 12.989 11.032 6.354 10.76 10.04 27.547 10.017 50.252.005 16.285-2.362 29.993-6.832 41.175z"/></svg>