<svg xmlns="http://www.w3.org/2000/svg" viewBox="0 0 512 512"><path d="M401.477 135.004c-28.908-28.903-64.812-46.452-102.289-52.749V41.514h-65.894v41.235c-19.261 3.515-38.063 10.038-55.659 19.587L144.15 68.885l11.38-11.38-21.685-21.687-96.401 96.408 21.681 21.685 13.537-13.571 32.08 32.077c-43.102 72.631-33.387 167.825 29.074 230.282 73.904 73.893 193.756 73.893 267.66 0 73.942-73.9 73.942-193.756.001-267.695zm-40.615 227.05c-51.407 51.41-135.026 51.41-186.431 0-51.377-51.376-51.377-134.992 0-186.435 51.404-51.373 135.023-51.373 186.431 0 51.374 51.443 51.374 135.059 0 186.435zm-26.915-108.437l-59.451-.951-64.941-64.946c-6.379-6.372-16.68-6.372-23.057 0-6.375 6.331-6.375 16.679 0 23.058l74.299 74.267 72.631 1.142c4.641.084 8.796-1.731 11.805-4.742 2.876-2.909 4.705-6.864 4.775-11.28.131-8.997-7.032-16.438-16.061-16.548z"/></svg>