<svg xmlns="http://www.w3.org/2000/svg" viewBox="0 0 512 512"><path d="M291.739 214.211a132.978 132.978 0 0 0-36.604-5.145c-12.7 0-24.967 1.819-36.598 5.142V100.491h-97.792v56.525l47.555 84.365c-28.239 24.384-46.137 60.419-46.137 100.657 0 73.438 59.533 132.975 132.972 132.975 73.439 0 132.973-59.537 132.973-132.975 0-43.467-20.863-82.059-53.115-106.321l54.531-77.405v-57.821H291.74v113.72zm48.795 127.828c0 47.09-38.312 85.399-85.399 85.399-47.089 0-85.398-38.31-85.398-85.399 0-47.088 38.31-85.398 85.398-85.398 47.088 0 85.399 38.31 85.399 85.398zM83.035 36.876v38.577h344.2V36.876h-344.2zm169.227 225.523l-17.073 52.173h-54.78a3.016 3.016 0 1 0-1.78 5.456l44.327 32.292-17.078 52.456a3.03 3.03 0 0 0 1.093 3.378 3.036 3.036 0 0 0 3.548 0l44.613-32.387 44.516 32.387c.531.383 1.156.578 1.777.578s1.243-.195 1.774-.578a3.02 3.02 0 0 0 1.096-3.378l-17.079-52.452 44.422-32.296a3.018 3.018 0 0 0 1.096-3.37 3.026 3.026 0 0 0-2.87-2.086H274.99l-16.986-52.166a3.024 3.024 0 0 0-2.867-2.084c-1.306 0-2.471.84-2.875 2.077z"/></svg>