<svg xmlns="http://www.w3.org/2000/svg" viewBox="0 0 512 512"><path d="M368.744 80.665c2.058 18.558 8.239 33.472 18.476 43.668 10.202 10.272 25.114 16.436 43.724 18.479C458.117 87.875 466.72 44.9 466.72 44.9s-43.006 8.571-97.976 35.765zm-28.582 15.321c-29.628 17.182-60.988 39.601-89.996 68.604-18.54 18.577-33.452 36.562-45.487 53.472L131.2 231.647l-86.334 86.365 76.98 2.401 54.186-54.184c-19.098 39.636-20.799 65.894-20.799 65.894l24.234 24.234s27.143-2.588 67.039-21.91l-55.331 55.298 2.419 76.974 86.332-86.329 13.636-73.837c17.07-11.957 35.091-26.773 53.436-45.134 29.006-29.003 51.439-60.361 68.607-89.993-18.934-3.824-36.296-11.741-50.033-25.408-13.67-13.737-21.617-31.084-25.41-50.032z"/></svg>