<svg xmlns="http://www.w3.org/2000/svg" viewBox="0 0 512 512"><path d="M36.742 120.063v272.518h93.897v-32.553h-27.543V334.99h70.108v25.038h-27.541v32.553h219.089v-32.553h-27.543V334.99h70.109v25.038h-27.543v32.553h95.192V120.063H36.742zm209.075 70.952h186.539v25.038H245.817v-25.038zm-49.985 81.036c-2.703-3.315-7.695-4.218-12.017-6.044-5.773-2.436-12.173-5.253-17.932-7.616-1.643-.449-3.285-.895-4.929-1.342-1.963-1.352-3.878-5.84-4.93-8.071-1.045-.148-2.086-.3-3.135-.443.161-3.449 2.295-3.642 3.135-6.278.742-2.326.078-5.345 1.251-7.496.814-1.496 2.65-1.506 3.567-2.789.834-1.162 1.389-3.193 1.644-4.614.479-2.605.891-6.17-.346-8.748-.714-1.483-1.158-1.629-1.356-3.427-.24-2.182.643-9.301.68-10.839.088-3.991-.004-7.612-.97-11.499 0 0-1.175-3.52-3.016-4.586l-3.668-.631-2.264-2.096c-9.135-5.622-18.921-1.683-24.165.444-7.559 2.45-12.334 13.137-8.997 28.942.567 2.7-1.481 3.91-1.344 5.382.291 3.218.354 10.962 3.396 12.873.285.175 2.443.72 2.43.57l.894 9.409c.765 2.088 2.586 2.312 3.112 5.258l-2.333.567c-1.045 2.231-2.967 6.72-4.927 8.071-1.646.447-3.29.893-4.931 1.342-5.757 2.363-12.158 5.181-17.922 7.616-3.906 1.643-8.364 2.515-11.189 5.099V168.482h110.261v103.569zm236.526-8.418H245.816v-25.044h186.542v25.044z"/></svg>