<svg xmlns="http://www.w3.org/2000/svg" viewBox="0 0 512 512"><path d="M424.361 352.143V161.7h-117.5c19.752 21.968 32.475 56.434 32.475 95.218 0 38.783-12.723 73.244-32.475 95.224h117.5zM38.773 111.672v289.502h434.836V111.672H38.773zm410.506 265.4H63.138V136.758H449.28v240.314zm-276.23-120.154c0-38.785 12.752-73.25 32.471-95.218H88.058v190.442H205.52c-19.719-21.98-32.471-56.441-32.471-95.224zm78.318 64.603h24.103V202.577h-19.196c-.652 4.531-2.094 8.316-4.25 11.379-2.127 3.067-4.775 5.53-7.881 7.384-3.141 1.874-6.639 3.173-10.531 3.917-3.923.744-7.98 1.051-12.162.924v18.199h29.918v77.141z"/></svg>