<svg xmlns="http://www.w3.org/2000/svg" viewBox="0 0 512 512"><path d="M314.439 321.301c-.186.035-.383.063-.572.101l-48.846-40.456-.078 45.663c-3.168.091-6.352.155-9.566.153-47.775.073-90.82-10.348-119.785-25.578-14.496-7.545-25.336-16.229-31.842-24.324-6.559-8.225-8.87-15.079-8.914-21.718.034-7.984 3.546-16.798 13.858-27.144 10.181-10.146 26.818-20.4 48.036-28.213 1.189-.44 2.406-.867 3.621-1.293l-44.539-36.889c-16.619 8.232-31.257 18.09-43.229 29.865-17.119 16.768-29.14 38.85-29.106 63.673-.046 20.229 8.065 38.979 20.353 54.034 18.569 22.71 46.073 39.182 78.877 50.871 32.865 11.58 71.375 18.061 112.67 18.078 3.18 0 6.334-.053 9.479-.131l-.088 50.725 89.646-73.732-39.975-33.109v-.576zm-68.482-238.19l-89.646 73.73 89.396 74.04.078-47.212c3.18-.092 6.368-.154 9.591-.152 47.769-.062 90.814 10.352 119.773 25.583 14.5 7.544 25.336 16.229 31.84 24.326 6.555 8.226 8.867 15.079 8.915 21.715-.024 4.641-1.142 9.16-3.951 14.378-4.159 7.764-12.634 16.785-25.487 25.085-9.574 6.226-21.463 12.005-35.111 16.857l44.471 36.833c13.242-6.638 25.173-14.355 35.52-23.203 10.465-9.006 19.322-19.266 25.735-31.03 6.397-11.718 10.208-25.077 10.19-38.92v-.168c0-20.162-8.104-38.849-20.361-53.859-18.572-22.716-46.064-39.181-78.877-50.872-32.856-11.582-71.361-18.062-112.656-18.08-3.193 0-6.343.1-9.502.177l.082-49.228z"/></svg>