<svg xmlns="http://www.w3.org/2000/svg" viewBox="0 0 512 512"><path d="M470.704 407.906l-2.691-2.689.006-.002-107.514-107.523c14.938-25.733 23.616-55.565 23.82-87.451.626-97.615-77.99-177.243-175.599-177.857l-1.168-.002c-97.06.005-176.067 78.392-176.692 175.598-.618 97.609 77.999 177.236 175.597 177.859.389.002.766.004 1.155.004 32.442 0 62.846-8.79 88.998-24.075L404.035 469.2l.01-.01 2.686 2.686c8.125 8.124 21.293 8.117 29.414 0l34.56-34.554c8.115-8.117 8.121-21.293-.001-29.416zm-263.956-67.135c-72.589-.466-131.271-59.907-130.812-132.502C76.4 136.14 135.45 77.457 207.561 77.453l.88.002c35.167.22 68.144 14.124 92.851 39.148 24.705 25.025 38.188 58.178 37.962 93.352-.222 35.015-14.027 67.893-38.867 92.564-24.834 24.67-57.78 38.252-92.768 38.252h-.871z"/></svg>