<svg xmlns="http://www.w3.org/2000/svg" viewBox="0 0 512 512"><path d="M254.787 186.545c38.106 0 68.997 30.894 68.997 68.996 0 38.109-30.891 69-68.997 69-38.109 0-69-30.891-69-69 0-38.103 30.891-68.996 69-68.996zm-17.525-54.484v-75.35c0-9.68 7.846-17.525 17.522-17.525 9.681 0 17.529 7.846 17.529 17.525v75.35c0 9.676-7.849 17.527-17.529 17.527-9.676 0-17.522-7.852-17.522-17.527zm-.002 322.304V379.02c0-9.68 7.845-17.523 17.527-17.523 9.678 0 17.524 7.844 17.524 17.523v75.346c0 9.68-7.846 17.535-17.524 17.535-9.682-.001-17.527-7.856-17.527-17.536zm92.447-273.745c-6.845-6.846-6.845-17.945 0-24.791l53.278-53.28c6.847-6.843 17.941-6.843 24.785 0 6.845 6.846 6.845 17.948 0 24.793l-53.278 53.278a17.474 17.474 0 0 1-12.393 5.128 17.477 17.477 0 0 1-12.392-5.128zM101.799 408.523c-6.845-6.844-6.845-17.938 0-24.781l53.279-53.28c6.843-6.843 17.94-6.843 24.787 0 6.845 6.845 6.845 17.944 0 24.784l-53.278 53.277a17.471 17.471 0 0 1-12.395 5.135 17.469 17.469 0 0 1-12.393-5.135zM378.262 273.07c-9.679 0-17.527-7.854-17.527-17.529 0-9.68 7.849-17.526 17.527-17.526h75.35c9.678 0 17.526 7.847 17.526 17.526 0 9.675-7.849 17.529-17.526 17.529h-75.35zm-322.306 0c-9.68 0-17.526-7.854-17.526-17.529 0-9.68 7.846-17.526 17.526-17.526h75.35c9.679 0 17.526 7.847 17.526 17.526 0 9.675-7.848 17.529-17.526 17.529h-75.35zm327.029 135.453l-53.279-53.277c-6.845-6.84-6.845-17.939 0-24.784 6.843-6.843 17.943-6.843 24.786 0l53.282 53.28c6.841 6.843 6.841 17.938 0 24.781a17.49 17.49 0 0 1-12.397 5.135 17.466 17.466 0 0 1-12.392-5.135zM155.073 180.62l-53.281-53.278c-6.838-6.845-6.838-17.947 0-24.793 6.852-6.843 17.947-6.843 24.793 0l53.278 53.28c6.847 6.846 6.847 17.945 0 24.791a17.479 17.479 0 0 1-12.396 5.128 17.476 17.476 0 0 1-12.394-5.128z"/></svg>