<svg xmlns="http://www.w3.org/2000/svg" viewBox="0 0 512 512"><path d="M230.083 265.43c.637 1.898.93 3.763.93 5.687 0 3.077-.556 5.985-1.702 8.737a35.825 35.825 0 0 1-4.314 7.746 38.11 38.11 0 0 1-6.131 6.545 59.53 59.53 0 0 1-7.048 5.166l10.531 15.631c3.301-2.454 6.605-4.155 9.94-5.009 3.337-.847 6.559-1.239 9.617-1.239 3.744 0 6.849.297 9.319.981a90.441 90.441 0 0 1 7.489 2.391c2.387.817 5.002 1.474 7.831 2.025 2.829.584 6.392.851 10.71.851 4.301 0 8.763-.818 13.426-2.355 4.626-1.6 9.008-4.382 13.062-8.338l-10.186-17.169c-3.059 3.308-5.757 5.329-8.078 6.114-2.339.788-4.594 1.18-6.883 1.18-2.259 0-4.465-.166-6.607-.59-2.156-.426-4.381-.886-6.638-1.437-2.255-.426-4.497-.886-6.704-1.275a38.019 38.019 0 0 0-6.72-.589c-1.601 0-3.222.263-4.939.652-1.681.494-3.908 1.571-6.622 3.238l-.325-.295a53.027 53.027 0 0 0 9.744-10.137c2.797-3.797 4.186-8.338 4.186-13.672a56.91 56.91 0 0 0-.262-5.459 22.629 22.629 0 0 0-1.112-5.102h17.856v-14.426h-22.594c-1.702-3.07-3.043-5.654-3.991-7.814-.982-2.154-1.669-4.021-2.062-5.689-.391-1.635-.652-3.104-.751-4.312a38.558 38.558 0 0 1-.18-3.96c0-4.746 1.504-8.534 4.496-11.345 3.01-2.845 7.062-4.253 12.166-4.253 4.301 0 7.686.882 10.104 2.647 2.422 1.732 4.252 3.799 5.445 6.182a23.497 23.497 0 0 1 2.291 7.391c.342 2.549.572 4.672.67 6.374h22.957c0-13.831-3.631-24.36-10.891-31.587-7.227-7.262-17.398-10.893-30.414-10.893-7.129 0-13.424.887-18.85 2.719-5.445 1.795-9.993 4.283-13.604 7.387-3.631 3.145-6.377 6.707-8.241 10.795-1.88 4.086-2.813 8.372-2.813 12.918 0 5.102.867 9.744 2.567 13.924 1.701 4.191 3.4 7.364 5.102 9.518h-10.89v14.426h16.825c.898 1.961 1.681 3.858 2.288 5.72zm193.806 85.58V160.557H306.424c19.734 22.011 32.457 56.443 32.457 95.225 0 38.787-12.723 73.288-32.457 95.229h117.465zm-251.281-95.229c0-38.781 12.722-73.214 32.457-95.225H87.616V351.01h117.449c-19.735-21.941-32.457-56.442-32.457-95.229zM38.32 110.588v289.443h434.852V110.588H38.32zm410.504 265.377H62.698V135.64h386.126v240.325z"/></svg>