<svg xmlns="http://www.w3.org/2000/svg" viewBox="0 0 512 512"><path d="M203.447 202.931l-54.568-54.566c27.503-27.173 65.183-43.913 106.927-43.913 42.13.014 79.972 16.983 107.622 44.577 27.594 27.648 44.561 65.492 44.578 107.629h66.177c-.024-120.624-97.761-218.361-218.376-218.386-59.897 0-114.277 24.203-153.724 63.295l-50.36-50.36.003 151.725h151.721zM363.991 363.67c-27.605 27.918-65.809 45.184-108.183 45.176-42.139-.008-79.978-16.981-107.623-44.574-27.601-27.645-44.565-65.482-44.582-107.614H37.436c.017 120.614 97.751 218.347 218.373 218.374 60.54-.008 115.433-24.73 154.979-64.562l48.997 49V311.423H311.742l52.249 52.247z"/></svg>