<svg xmlns="http://www.w3.org/2000/svg" viewBox="0 0 512 512"><path d="M314.992 305.392c5.872 72.313-34.037 161.206-34.037 161.206s-10.117 4.848-25.144 4.848c-14.985 0-25.378-4.848-25.378-4.848s-39.93-88.893-34.059-161.206c0 0 9.413-30.408 59.776-30.408s58.842 30.408 58.842 30.408zm-58.921-167.765c58.295.089 105.458 47.262 105.558 105.596-.061 31.896-12.681 60.379-29.485 84.446 25.291-13.313 57.188-41.241 57.21-84.446-.021-73.636-59.693-133.281-133.283-133.299h-.397c-73.587.018-133.263 59.663-133.281 133.299.019 43.205 31.909 71.133 57.209 84.446-16.802-24.067-29.432-52.55-29.485-84.446.101-58.334 47.264-105.507 105.557-105.596h.397zm-.376-99.061c-113.05 0-204.626 91.605-204.645 204.609 0 30.313 6.61 59.114 18.434 84.995 23.731 51.872 68.499 83.394 123.404 97.714l-3.725-7.703c-41.927-20.549-75.833-60.809-94.536-101.859-10.158-22.283-15.813-47.053-15.861-73.146.158-97.713 79.223-176.721 176.929-176.92 97.685.199 176.729 79.207 176.897 176.92-.129 72.83-44.094 144.15-106.927 174.631l-3.191 8.383c80.206-24.637 137.833-93.402 137.845-183.014-.021-113.004-91.616-204.61-204.624-204.61zm45.036 176.356c0 24.882-20.174 45.057-45.058 45.057-24.862 0-45.036-20.175-45.036-45.057 0-24.876 20.174-45.051 45.036-45.051 24.885 0 45.058 20.175 45.058 45.051z"/></svg>