<svg xmlns="http://www.w3.org/2000/svg" viewBox="0 0 512 512"><path d="M137.991 82.309l-29.203 29.205-29.204-29.205-26.363 26.361 29.206 29.205-29.206 29.205 26.363 26.361 29.204-29.203 29.203 29.203 26.364-26.361-29.206-29.205 29.206-29.205zm0 236.113l-29.203 29.205-29.204-29.205-26.363 26.363 29.206 29.207-29.206 29.205 26.363 26.362 29.204-29.204 29.203 29.204 26.364-26.362-29.206-29.205 29.206-29.207zm320.788-98.93l-26.361-26.365-29.206 29.205-29.206-29.205-26.363 26.365 29.206 29.203-29.206 29.205 26.363 26.364 29.206-29.207 29.206 29.207 26.361-26.364-29.204-29.205zM323.469 334.48c-35.204 0-63.744 28.539-63.744 63.742 0 35.207 28.54 63.75 63.744 63.75 35.207 0 63.746-28.543 63.746-63.75 0-35.202-28.539-63.742-63.746-63.742zm0 90.206c-14.59 0-26.461-11.867-26.461-26.463 0-14.59 11.871-26.461 26.461-26.461 14.592 0 26.463 11.871 26.463 26.461 0 14.595-11.87 26.463-26.463 26.463zm-99.629-186.45l112.612-112.613 28.023 28.021 21.212-103.617-103.62 21.213 28.022 28.023-125.792 125.788c-7.28 7.285-7.28 19.086 0 26.367l71.525 71.521 26.361-26.359-58.343-58.344z"/></svg>