<svg xmlns="http://www.w3.org/2000/svg" viewBox="0 0 512 512"><path d="M195.481 223.372c0-10.382 8.401-18.771 18.768-18.771 3.319 0 6.443.866 9.143 2.372l48.349-48.354V91.684c0-9.338-7.553-16.89-16.906-16.89H90.704c-9.336 0-16.906 7.552-16.906 16.89v164.161c0 9.321 7.57 16.89 16.906 16.89h66.941c.065-.048.097-.095.145-.165l40.062-40.058c-1.489-2.713-2.371-5.818-2.371-9.14zm-64.209 18.769c-10.367 0-18.788-8.387-18.788-18.769 0-10.382 8.421-18.771 18.788-18.771 10.365 0 18.787 8.388 18.787 18.771.001 10.382-8.421 18.769-18.787 18.769zm-18.788-68.38c0-10.383 8.421-18.785 18.788-18.785 10.365 0 18.787 8.402 18.787 18.785 0 10.367-8.422 18.775-18.787 18.775-10.367 0-18.788-8.408-18.788-18.775zm18.788-30.835c-10.367-.017-18.788-8.418-18.788-18.785 0-10.366 8.421-18.774 18.788-18.774 10.365 0 18.787 8.408 18.787 18.774.001 10.381-8.421 18.768-18.787 18.785zm82.977-37.56c10.367 0 18.788 8.408 18.788 18.774 0 10.367-8.421 18.785-18.788 18.785-10.367-.017-18.768-8.418-18.768-18.785 0-10.366 8.401-18.774 18.768-18.774zm0 49.61c10.402 0 18.771 8.402 18.788 18.785-.017 10.367-8.386 18.775-18.788 18.775-10.367 0-18.768-8.408-18.768-18.775 0-10.383 8.401-18.785 18.768-18.785zm217.225 135.222L315.398 174.141c-6.606-6.605-17.301-6.605-23.889-.015l-116.09 116.072c-6.591 6.606-6.591 17.301 0 23.908L291.51 430.179c6.588 6.606 17.282 6.606 23.904 0l116.06-116.072c6.602-6.608 6.602-17.302 0-23.909zM252.3 315.457a18.695 18.695 0 0 1-13.245 5.498h-.016c-4.808 0-9.63-1.833-13.276-5.498a18.493 18.493 0 0 1-5.495-13.277 18.5 18.5 0 0 1 5.495-13.26 18.717 18.717 0 0 1 13.276-5.507c4.773 0 9.599 1.831 13.261 5.507l-3.518 3.518 3.533-3.518a18.824 18.824 0 0 1 5.477 13.26c0 4.796-1.845 9.618-5.492 13.277zm64.421 64.408a18.862 18.862 0 0 1-13.242 5.476h-.018a18.776 18.776 0 0 1-13.293-5.509c-3.662-3.664-5.512-8.469-5.477-13.275a18.517 18.517 0 0 1 5.477-13.261 18.83 18.83 0 0 1 13.293-5.508c4.773 0 9.613 1.843 13.26 5.508a18.715 18.715 0 0 1 5.496 13.261c.014 4.806-1.85 9.611-5.496 13.308zm-32.162-77.685c0-4.773 1.835-9.626 5.496-13.26 3.627-3.659 8.483-5.507 13.26-5.507 4.79 0 9.631 1.848 13.293 5.507 3.662 3.649 5.493 8.486 5.493 13.281 0 4.774-1.831 9.613-5.493 13.256a18.694 18.694 0 0 1-13.244 5.498h-.049c-4.793 0-9.633-1.833-13.26-5.498-3.661-3.643-5.496-8.481-5.496-13.277zm32.162-51.173a18.757 18.757 0 0 1-13.242 5.509h-.018a18.78 18.78 0 0 1-13.293-5.509 18.772 18.772 0 0 1-5.512-13.282c0-4.789 1.85-9.625 5.512-13.275a18.768 18.768 0 0 1 13.293-5.493 18.647 18.647 0 0 1 13.275 5.493 18.67 18.67 0 0 1 5.48 13.275c.015 4.796-1.849 9.602-5.495 13.282zm64.408 64.45c-3.631 3.665-8.455 5.498-13.229 5.498h-.032a18.641 18.641 0 0 1-13.277-5.498 18.703 18.703 0 0 1-5.51-13.256c0-4.795 1.846-9.632 5.51-13.281 3.646-3.676 8.484-5.507 13.277-5.507 4.789 0 9.614 1.848 13.261 5.491l-3.5 3.533 3.5-3.518a18.73 18.73 0 0 1 5.508 13.26c0 4.776-1.846 9.619-5.508 13.278z"/></svg>