<svg xmlns="http://www.w3.org/2000/svg" viewBox="0 0 512 512"><path d="M340.353 184.117l.189-.084c.051.047.084.084.084.084l.002 50.66s43.088 23.812 75.094 23.812c13.041 0 24.24-3.953 29.938-15.08 19.627-37.652-10.17-88.613-43.76-105.109-52.705-25.131-101.455-33.961-143.811-33.961-.699 0-1.393 0-2.09.004-.691-.004-1.391-.004-2.088-.004-42.355-.004-91.102 8.824-143.811 33.961-33.588 16.496-63.387 67.457-43.762 105.109 5.697 11.125 16.902 15.08 29.941 15.08 32.006 0 75.092-23.812 75.092-23.812l.004-50.66s.033-.037.082-.084l.189.084s15.127-16.508 84.352-16.527c69.228.019 84.355 16.527 84.355 16.527zm-84.354 84.219c-23.844 0-43.178 19.328-43.178 43.178 0 23.848 19.334 43.178 43.178 43.178 23.848 0 43.178-19.33 43.178-43.178 0-23.85-19.33-43.178-43.178-43.178zm73.178-12.834l-12.227-6.756v-13.967l-.002-32.959H195.052v32.959l-.002 13.967-12.225 6.756c-4.043 2.232-34.416 18.625-65.58 24.594l-21.973 67.748v59.717h314.486v-59.717l-22.5-69.373c-28.384-6.889-54.366-20.912-58.081-22.969zm-73.178 122.867c-36.863 0-66.854-29.99-66.854-66.855 0-36.863 29.99-66.857 66.854-66.857 36.865 0 66.855 29.994 66.855 66.857 0 36.865-29.99 66.855-66.855 66.855z"/></svg>