<svg xmlns="http://www.w3.org/2000/svg" viewBox="0 0 512 512"><path d="M457.298 457.615l-97.205-144.5a118.705 118.705 0 0 0 13.206-38.477l97.178-19.023-97.178-19.018c-8.12-50.775-48.209-90.859-98.98-98.98l-19.025-97.178-19.023 97.178a118.755 118.755 0 0 0-38.462 13.197L53.289 53.617l97.197 144.513a118.814 118.814 0 0 0-13.195 38.464l-97.184 19.021 97.184 19.023c8.119 50.773 48.205 90.854 98.98 98.978l19.021 97.179 19.02-97.179a118.788 118.788 0 0 0 38.467-13.194l144.519 97.193zM255.293 158.86c53.353 0 96.76 43.404 96.76 96.753a96.21 96.21 0 0 1-6.77 35.485l-40.984-60.923-23.543-23.566-60.934-40.982a96.18 96.18 0 0 1 35.471-6.767zm18.76 96.765c0 10.356-8.4 18.758-18.766 18.758-10.361 0-18.762-8.401-18.762-18.758 0-10.37 8.4-18.773 18.762-18.773 10.365 0 18.766 8.403 18.766 18.773zm-18.76 96.748c-53.354 0-96.755-43.408-96.755-96.76a96.172 96.172 0 0 1 6.761-35.457l40.984 60.932 23.535 23.541 60.938 40.981a96.216 96.216 0 0 1-35.463 6.763z"/></svg>