<svg xmlns="http://www.w3.org/2000/svg" viewBox="0 0 512 512"><path d="M451.936 215.264l-38.08-13.552A168.663 168.663 0 0 0 406 182.768l17.344-36.496a15.985 15.985 0 0 0-3.136-18.176L383.92 91.792a15.974 15.974 0 0 0-18.192-3.136l-36.496 17.36a164.773 164.773 0 0 0-18.96-7.856l-13.536-38.08a16.01 16.01 0 0 0-15.072-10.64h-51.328c-6.768 0-12.816 4.272-15.072 10.64l-13.536 38.08a165.963 165.963 0 0 0-18.96 7.856l-36.496-17.36a15.974 15.974 0 0 0-18.192 3.136l-36.288 36.304a15.985 15.985 0 0 0-3.136 18.176l17.36 36.496c-3.008 6.16-5.648 12.48-7.856 18.96l-38.08 13.536c-6.368 2.272-10.64 8.32-10.64 15.072v51.328c0 6.768 4.256 12.8 10.64 15.072l38.064 13.536a167.17 167.17 0 0 0 7.856 18.96l-17.36 36.512a15.985 15.985 0 0 0 3.136 18.176l36.288 36.288c4.768 4.784 12.064 6.016 18.176 3.136l36.496-17.36a167.272 167.272 0 0 0 18.96 7.872l13.536 38.064a15.995 15.995 0 0 0 15.072 10.64h51.328c6.768 0 12.8-4.256 15.072-10.64l13.552-38.064a165.824 165.824 0 0 0 18.944-7.872l36.496 17.36c6.112 2.896 13.408 1.648 18.176-3.136l36.288-36.288a15.985 15.985 0 0 0 3.136-18.176l-17.344-36.496a165.963 165.963 0 0 0 7.856-18.96l38.064-13.536a15.995 15.995 0 0 0 10.64-15.072v-51.328c.048-6.768-4.208-12.816-10.576-15.088zM256 330.512c-41.136 0-74.512-33.344-74.512-74.512s33.36-74.512 74.512-74.512 74.512 33.344 74.512 74.512-33.376 74.512-74.512 74.512z"/></svg>