<svg xmlns="http://www.w3.org/2000/svg" viewBox="0 0 512 512"><path d="M388.45 236.752c-12.509-6.719-28.093-2.024-34.829 10.467l-36.202 66.758V100.663c0-11.295-9.123-20.453-20.452-20.453-11.299 0-20.457 9.157-20.457 20.453v151.362c0 4.267-3.465 7.736-7.75 7.736-4.281 0-7.749-3.469-7.749-7.736V60.084c0-11.318-9.158-20.475-20.474-20.475-11.28 0-20.469 9.157-20.469 20.475v195.652a7.73 7.73 0 0 1-7.734 7.735c-4.268 0-7.769-3.452-7.769-7.735V98.261c0-11.312-9.138-20.468-20.437-20.468-11.316 0-20.472 9.156-20.472 20.468v157.476a7.747 7.747 0 0 1-7.75 7.752 7.747 7.747 0 0 1-7.75-7.752V151.71c0-11.313-9.155-20.47-20.472-20.47-11.281 0-20.453 9.157-20.453 20.47v236.074c0 7.245 3.876 17.628 8.65 23.087l44.799 51.426c4.743 5.426 14.571 9.926 21.831 9.926h100.738c7.259 0 16.007-5.233 19.456-11.593l96.21-189.065c6.704-12.491 2.027-28.074-10.465-34.813z"/></svg>