<svg xmlns="http://www.w3.org/2000/svg" viewBox="0 0 512 512"><path d="M445.039 300.557l-4.51-4.116-46.061-42.054-1.598-1.46-1.6 1.46-46.061 42.054-4.508 4.116h26.023c-1.654 54.142-42.203 79.389-84.684 86.409V182.593c19.469-9.63 32.893-29.695 32.893-52.847 0-32.498-26.439-58.937-58.938-58.937-32.494 0-58.936 26.438-58.936 58.937 0 23.149 13.422 43.215 32.889 52.847v204.373c-42.479-7.021-83.025-32.268-84.686-86.409h26.027l-4.508-4.116-46.064-42.054-1.596-1.46-1.594 1.46-46.06 42.053-4.508 4.116h26.206c1.789 82.976 68.213 140.634 162.832 140.634 94.621 0 161.047-57.658 162.836-140.634H445.039zM255.998 99.669c16.584 0 30.078 13.492 30.078 30.077 0 16.584-13.494 30.075-30.078 30.075-16.582 0-30.076-13.491-30.076-30.075 0-16.585 13.494-30.077 30.076-30.077z"/></svg>