<svg xmlns="http://www.w3.org/2000/svg" viewBox="0 0 512 512"><path d="M294.842 181.664c2.749 2.751 7.262 2.751 10.008 0l22.661-22.711c2.782-2.729 7.262-2.729 10.039 0l40.52 40.565c2.746 2.73 2.746 7.246 0 9.992l-1.504 1.52c-2.749 2.748-2.749 7.247 0 9.993l5.396 5.376h66.351L337.55 115.623c-2.777-2.744-7.257-2.744-10.039 0l-44.343 44.362c-2.746 2.744-2.746 7.245 0 10.007l11.674 11.672zm-167.496 39.358c2.745-2.747 2.745-7.246 0-9.993l-1.537-1.52c-2.749-2.746-2.749-7.261 0-9.992l40.547-40.565c2.749-2.729 7.263-2.729 10.008 0l22.695 22.711c2.746 2.751 7.229 2.751 9.974 0l11.708-11.672c2.747-2.762 2.747-7.263 0-10.007l-44.377-44.362c-2.745-2.744-7.259-2.744-10.008 0L55.597 226.399h66.351l5.398-5.377zm332.738 34.612H51.083c-6.571 0-11.935 5.381-11.935 11.956v119.737c0 6.571 5.364 11.952 11.935 11.952h163.639c6.573 0 13.966-4.97 16.483-11.051l8.568-21c2.485-6.062 9.614-11.053 15.828-11.053 6.213 0 13.342 4.99 15.829 11.053l8.568 21c2.482 6.081 9.906 11.051 16.479 11.051h163.607c6.607 0 11.969-5.381 11.969-11.952V267.59c0-6.574-5.362-11.956-11.969-11.956zM210.57 328.74c0 21.014-17.038 38.051-38.062 38.051h-60.63c-21.028 0-38.067-17.037-38.067-38.051v-2.551c0-21.021 17.039-38.066 38.067-38.066h60.63c21.025 0 38.062 17.045 38.062 38.066v2.551zm226.819 0c0 21.014-17.037 38.051-38.062 38.051h-60.631c-21.025 0-38.066-17.037-38.066-38.051v-2.551c0-21.021 17.041-38.066 38.066-38.066h60.631c21.025 0 38.062 17.045 38.062 38.066v2.551z"/></svg>