<svg xmlns="http://www.w3.org/2000/svg" viewBox="0 0 512 512"><path d="M256.104 34.594c-122.207 0-221.261 99.115-221.261 221.289 0 122.206 99.054 221.262 221.261 221.262 122.206 0 221.276-99.056 221.276-221.262.001-122.174-99.069-221.289-221.276-221.289zm0 410.826c-104.516 0-189.524-85.055-189.524-189.537 0-104.516 85.009-189.536 189.524-189.536S445.64 151.368 445.64 255.883c.001 104.482-85.021 189.537-189.536 189.537zm0-344.639c-85.646 0-155.106 69.455-155.106 155.102 0 85.684 69.46 155.107 155.106 155.107 85.661 0 155.104-69.424 155.104-155.107 0-85.647-69.442-155.102-155.104-155.102zm37.623 127.24l-8.469 19.657h-61.171l-.293 11.473h58.177l-8.456 19.658h-47.528c5.836 28.775 19.292 43.131 40.418 43.131 13.652 0 27.666-5.719 42.054-17.2l-.261 41.271c-12.197 7.092-26.227 10.657-42.054 10.657-22.941 0-41.433-7.359-55.431-22.139-12.752-13.279-21.042-31.85-24.851-55.721h-21.045l8.486-19.658h10.925v-7.096c0-2.551.078-4.018.262-4.377h-19.935l8.456-19.657h13.929c4.382-22.04 13.393-39.407 27.044-52.161 14.373-13.831 32.391-20.767 54.056-20.767 15.305 0 31.869 4.579 49.708 13.677l-16.645 34.104c-12.754-8.144-24.693-12.264-35.778-12.264-19.114 0-31.883 12.496-38.245 37.411h66.647z"/></svg>