<svg xmlns="http://www.w3.org/2000/svg" viewBox="0 0 512 512"><path d="M443.742 371.621V293.86c-.012-51.788-20.942-98.514-54.871-132.463-33.954-33.933-80.68-54.868-132.473-54.869-51.787.001-98.511 20.937-132.468 54.869-33.925 33.949-54.859 80.675-54.869 132.463v77.761h.006-35.06V293.86c.012-122.832 99.562-222.376 222.391-222.39 122.838.014 222.385 99.558 222.398 222.39v77.761h-35.054zm-35.251 56.393c0 7.08-5.739 12.822-12.82 12.822h-46.099c-7.08 0-12.818-5.742-12.818-12.822V286.977c0-7.077 5.738-12.818 12.818-12.818h46.099c7.081 0 12.82 5.741 12.82 12.818v141.037zm-232.439.004c0 7.079-5.737 12.82-12.819 12.82h-46.099c-7.081 0-12.819-5.741-12.819-12.82V286.979c0-7.075 5.739-12.818 12.819-12.818h46.099c7.083 0 12.819 5.743 12.819 12.818v141.039z"/></svg>