<svg xmlns="http://www.w3.org/2000/svg" viewBox="0 0 512 512"><path d="M360.199 36.871H149.281c-11.748 0-21.271 9.523-21.271 21.272v394.638c0 11.748 9.523 21.275 21.271 21.275h210.918c11.746 0 21.276-9.527 21.276-21.275V58.144c.001-11.75-9.53-21.273-21.276-21.273zM209.638 442.674h-46.302v-46.301h46.302v46.301zm0-68.079h-46.302V328.29h46.302v46.305zm69.599 68.079h-46.302v-46.301h46.302v46.301zm0-68.079h-46.302V328.29h46.302v46.305zm-44.276-80.341c0-10.939 8.869-19.809 19.807-19.809s19.803 8.869 19.803 19.809-8.865 19.807-19.803 19.807-19.807-8.868-19.807-19.807zm112.951 148.42H301.61v-46.301h46.302v46.301zm0-68.079H301.61V328.29h46.302v46.305zm0-109.27H163.336V70.915h184.576v194.41z"/></svg>