<svg xmlns="http://www.w3.org/2000/svg" viewBox="0 0 512 512"><path d="M267.709 71.077V42.055h-25.72v29.022C127.396 77.74 36.515 172.762 36.515 289.029h4.634c7.414-20.715 27.156-35.559 50.416-35.559 23.258 0 43.001 14.844 50.417 35.559h8.023c7.416-20.715 27.156-35.559 50.417-35.559 17.003 0 32.104 7.956 41.906 20.316v148.201c.006 25.669 20.802 46.455 46.465 46.461 25.657-.006 46.454-20.792 46.46-46.461 0-6.917-5.606-12.518-12.522-12.518-6.913 0-12.519 5.601-12.519 12.518-.023 11.826-9.598 21.403-21.419 21.419-11.828-.016-21.401-9.593-21.428-21.419V273.791c9.802-12.364 24.905-20.32 41.911-20.32 23.26 0 43.002 14.844 50.418 35.559h8.022c7.417-20.715 27.157-35.559 50.417-35.559 23.259 0 43.002 14.844 50.416 35.559h4.632c.002-116.268-90.877-211.292-205.472-217.953z"/></svg>