<svg xmlns="http://www.w3.org/2000/svg" viewBox="0 0 512 512"><path d="M42.203 63.436l405 404.999 21.763-21.765-405-404.996-21.763 21.762zm430.35 33.166l-58.761-58.754-49.978 49.976 58.764 58.764 49.975-49.986zM313.428 255.73l82.593-82.596-26.54-26.534-82.592 82.589 26.539 26.541zm-134.875 81.799l-15.927-15.938 51.162-51.167-16.288-16.28L86.348 365.297l.188.185-47.922 106.775 106.313-48.384.181.182.484-.484 110.666-110.672-26.539-26.537-51.166 51.167zm-39.259 59.049l-46.367 21.104 20.896-46.573 23.39-23.389 3.366 22.303 22.1 3.165-23.385 23.39zm214.254-265.916l-16.285-16.28-82.591 82.592 16.285 16.279 82.591-82.591z"/></svg>