<svg width="940" height="673" viewBox="0 0 940 673" fill="none" xmlns="http://www.w3.org/2000/svg">
<rect x="320" y="393" width="300" height="100" rx="6" fill="white"/>
<path d="M401.724 442.091C401.724 439.449 402.075 437.016 402.778 434.793C403.489 432.57 404.572 430.511 406.028 428.614H410.364C409.81 429.317 409.295 430.177 408.819 431.192C408.343 432.201 407.927 433.309 407.572 434.516C407.217 435.724 406.94 436.974 406.741 438.266C406.543 439.552 406.443 440.827 406.443 442.091C406.443 443.774 406.614 445.475 406.954 447.194C407.302 448.906 407.771 450.496 408.361 451.967C408.957 453.437 409.625 454.641 410.364 455.578H406.028C404.572 453.682 403.489 451.622 402.778 449.399C402.075 447.176 401.724 444.74 401.724 442.091ZM432.334 438.82H427.667C427.582 438.217 427.408 437.68 427.145 437.212C426.883 436.736 426.545 436.331 426.133 435.997C425.721 435.663 425.245 435.408 424.706 435.23C424.173 435.053 423.594 434.964 422.969 434.964C421.84 434.964 420.856 435.244 420.018 435.805C419.18 436.359 418.53 437.169 418.069 438.234C417.607 439.293 417.376 440.578 417.376 442.091C417.376 443.646 417.607 444.953 418.069 446.011C418.537 447.07 419.191 447.869 420.029 448.408C420.867 448.948 421.836 449.218 422.937 449.218C423.555 449.218 424.127 449.136 424.652 448.973C425.185 448.81 425.657 448.572 426.069 448.259C426.481 447.94 426.822 447.553 427.092 447.098C427.369 446.643 427.561 446.125 427.667 445.543L432.334 445.564C432.213 446.565 431.911 447.531 431.428 448.462C430.952 449.385 430.309 450.212 429.5 450.944C428.697 451.668 427.738 452.244 426.623 452.67C425.515 453.089 424.262 453.298 422.863 453.298C420.917 453.298 419.177 452.858 417.642 451.977C416.116 451.097 414.908 449.822 414.02 448.153C413.14 446.484 412.699 444.463 412.699 442.091C412.699 439.712 413.147 437.688 414.042 436.018C414.937 434.349 416.151 433.078 417.685 432.205C419.219 431.324 420.945 430.884 422.863 430.884C424.127 430.884 425.299 431.061 426.378 431.416C427.465 431.771 428.427 432.29 429.265 432.972C430.103 433.646 430.785 434.474 431.311 435.454C431.843 436.434 432.184 437.556 432.334 438.82ZM442.95 453.32C441.295 453.32 439.864 452.968 438.656 452.265C437.456 451.555 436.529 450.567 435.876 449.303C435.222 448.032 434.896 446.558 434.896 444.882C434.896 443.192 435.222 441.714 435.876 440.45C436.529 439.179 437.456 438.192 438.656 437.489C439.864 436.778 441.295 436.423 442.95 436.423C444.604 436.423 446.032 436.778 447.232 437.489C448.44 438.192 449.37 439.179 450.024 440.45C450.677 441.714 451.004 443.192 451.004 444.882C451.004 446.558 450.677 448.032 450.024 449.303C449.37 450.567 448.44 451.555 447.232 452.265C446.032 452.968 444.604 453.32 442.95 453.32ZM442.971 449.804C443.724 449.804 444.352 449.591 444.857 449.165C445.361 448.732 445.741 448.142 445.997 447.396C446.259 446.651 446.391 445.802 446.391 444.85C446.391 443.898 446.259 443.05 445.997 442.304C445.741 441.558 445.361 440.969 444.857 440.536C444.352 440.102 443.724 439.886 442.971 439.886C442.211 439.886 441.572 440.102 441.053 440.536C440.542 440.969 440.155 441.558 439.892 442.304C439.636 443.05 439.509 443.898 439.509 444.85C439.509 445.802 439.636 446.651 439.892 447.396C440.155 448.142 440.542 448.732 441.053 449.165C441.572 449.591 442.211 449.804 442.971 449.804ZM458.493 443.54V453H453.955V436.636H458.28V439.523H458.472C458.834 438.572 459.441 437.819 460.293 437.265C461.146 436.704 462.179 436.423 463.394 436.423C464.53 436.423 465.521 436.672 466.366 437.169C467.211 437.666 467.868 438.376 468.337 439.3C468.805 440.216 469.04 441.31 469.04 442.581V453H464.502V443.391C464.509 442.389 464.253 441.608 463.734 441.047C463.216 440.479 462.502 440.195 461.593 440.195C460.982 440.195 460.443 440.326 459.974 440.589C459.512 440.852 459.15 441.235 458.887 441.739C458.631 442.237 458.5 442.837 458.493 443.54ZM481.321 436.636V440.045H471.466V436.636H481.321ZM473.703 432.716H478.242V447.972C478.242 448.391 478.306 448.717 478.434 448.952C478.561 449.179 478.739 449.339 478.966 449.431C479.201 449.523 479.47 449.57 479.776 449.57C479.989 449.57 480.202 449.552 480.415 449.516C480.628 449.474 480.791 449.442 480.905 449.42L481.619 452.798C481.392 452.869 481.072 452.95 480.66 453.043C480.248 453.142 479.747 453.202 479.158 453.224C478.064 453.266 477.105 453.121 476.282 452.787C475.465 452.453 474.829 451.935 474.375 451.232C473.92 450.528 473.696 449.641 473.703 448.568V432.716ZM491.559 453.32C489.875 453.32 488.426 452.979 487.212 452.297C486.005 451.608 485.074 450.635 484.421 449.378C483.767 448.114 483.441 446.619 483.441 444.893C483.441 443.21 483.767 441.732 484.421 440.461C485.074 439.19 485.994 438.199 487.18 437.489C488.373 436.778 489.772 436.423 491.377 436.423C492.457 436.423 493.462 436.597 494.392 436.945C495.33 437.286 496.147 437.801 496.843 438.49C497.546 439.179 498.093 440.045 498.483 441.089C498.874 442.126 499.069 443.341 499.069 444.733V445.979H485.252V443.167H494.797C494.797 442.513 494.655 441.935 494.371 441.43C494.087 440.926 493.693 440.532 493.188 440.248C492.691 439.957 492.112 439.811 491.452 439.811C490.763 439.811 490.152 439.971 489.62 440.29C489.094 440.603 488.682 441.026 488.384 441.558C488.085 442.084 487.933 442.67 487.926 443.316V445.99C487.926 446.8 488.075 447.499 488.373 448.089C488.679 448.678 489.108 449.133 489.662 449.452C490.216 449.772 490.873 449.932 491.633 449.932C492.137 449.932 492.599 449.861 493.018 449.719C493.437 449.577 493.796 449.364 494.094 449.08C494.392 448.795 494.62 448.447 494.776 448.036L498.973 448.312C498.76 449.321 498.323 450.202 497.663 450.955C497.009 451.7 496.164 452.283 495.127 452.702C494.098 453.114 492.908 453.32 491.559 453.32ZM505.53 436.636L508.535 442.357L511.614 436.636H516.269L511.528 444.818L516.397 453H511.763L508.535 447.343L505.36 453H500.672L505.53 444.818L500.843 436.636H505.53ZM527.668 436.636V440.045H517.814V436.636H527.668ZM520.051 432.716H524.589V447.972C524.589 448.391 524.653 448.717 524.781 448.952C524.909 449.179 525.087 449.339 525.314 449.431C525.548 449.523 525.818 449.57 526.123 449.57C526.337 449.57 526.55 449.552 526.763 449.516C526.976 449.474 527.139 449.442 527.253 449.42L527.967 452.798C527.739 452.869 527.42 452.95 527.008 453.043C526.596 453.142 526.095 453.202 525.506 453.224C524.412 453.266 523.453 453.121 522.629 452.787C521.812 452.453 521.177 451.935 520.722 451.232C520.268 450.528 520.044 449.641 520.051 448.568V432.716ZM538.274 444.254C538.274 446.903 537.919 449.339 537.208 451.562C536.505 453.785 535.426 455.844 533.97 457.741H529.634C530.188 457.038 530.703 456.178 531.179 455.163C531.654 454.147 532.07 453.039 532.425 451.839C532.78 450.631 533.057 449.381 533.256 448.089C533.455 446.796 533.554 445.518 533.554 444.254C533.554 442.57 533.38 440.873 533.032 439.161C532.691 437.442 532.223 435.852 531.626 434.388C531.036 432.918 530.372 431.714 529.634 430.777H533.97C535.426 432.673 536.505 434.733 537.208 436.956C537.919 439.179 538.274 441.612 538.274 444.254Z" fill="black"/>
<rect x="320" y="213" width="300" height="100" rx="6" fill="white"/>
<path d="M391.901 273V251.182H400.509C402.157 251.182 403.563 251.477 404.728 252.066C405.9 252.648 406.791 253.476 407.402 254.548C408.02 255.614 408.329 256.867 408.329 258.309C408.329 259.758 408.016 261.004 407.391 262.048C406.766 263.085 405.861 263.881 404.675 264.435C403.496 264.989 402.068 265.266 400.392 265.266H394.628V261.558H399.646C400.527 261.558 401.258 261.437 401.841 261.196C402.423 260.955 402.856 260.592 403.141 260.109C403.432 259.626 403.577 259.026 403.577 258.309C403.577 257.585 403.432 256.974 403.141 256.477C402.856 255.979 402.42 255.603 401.83 255.347C401.248 255.085 400.513 254.953 399.625 254.953H396.514V273H391.901ZM403.684 263.071L409.106 273H404.014L398.709 263.071H403.684ZM418.697 273.32C417.014 273.32 415.565 272.979 414.351 272.297C413.143 271.608 412.213 270.635 411.559 269.378C410.906 268.114 410.579 266.619 410.579 264.893C410.579 263.21 410.906 261.732 411.559 260.461C412.213 259.19 413.133 258.199 414.319 257.489C415.512 256.778 416.911 256.423 418.516 256.423C419.596 256.423 420.601 256.597 421.531 256.945C422.468 257.286 423.285 257.801 423.981 258.49C424.684 259.179 425.231 260.045 425.622 261.089C426.013 262.126 426.208 263.341 426.208 264.733V265.979H412.39V263.167H421.936C421.936 262.513 421.794 261.935 421.51 261.43C421.226 260.926 420.831 260.532 420.327 260.248C419.83 259.957 419.251 259.811 418.591 259.811C417.902 259.811 417.291 259.971 416.758 260.29C416.233 260.603 415.821 261.026 415.522 261.558C415.224 262.084 415.071 262.67 415.064 263.316V265.99C415.064 266.8 415.214 267.499 415.512 268.089C415.817 268.678 416.247 269.133 416.801 269.452C417.355 269.772 418.012 269.932 418.772 269.932C419.276 269.932 419.738 269.861 420.157 269.719C420.576 269.577 420.934 269.364 421.233 269.08C421.531 268.795 421.758 268.447 421.915 268.036L426.112 268.312C425.899 269.321 425.462 270.202 424.802 270.955C424.148 271.7 423.303 272.283 422.266 272.702C421.236 273.114 420.047 273.32 418.697 273.32ZM429.169 279.136V256.636H433.644V259.385H433.846C434.045 258.945 434.333 258.497 434.709 258.043C435.093 257.581 435.59 257.197 436.201 256.892C436.819 256.58 437.586 256.423 438.502 256.423C439.695 256.423 440.796 256.736 441.804 257.361C442.813 257.979 443.619 258.913 444.223 260.163C444.826 261.406 445.128 262.964 445.128 264.839C445.128 266.665 444.834 268.206 444.244 269.463C443.662 270.713 442.866 271.661 441.858 272.308C440.856 272.947 439.734 273.266 438.491 273.266C437.611 273.266 436.861 273.121 436.243 272.83C435.633 272.538 435.132 272.173 434.741 271.732C434.351 271.285 434.052 270.834 433.846 270.379H433.708V279.136H429.169ZM433.612 264.818C433.612 265.791 433.747 266.64 434.017 267.364C434.287 268.089 434.677 268.653 435.189 269.058C435.7 269.456 436.321 269.655 437.053 269.655C437.792 269.655 438.417 269.452 438.928 269.048C439.439 268.636 439.826 268.067 440.089 267.343C440.359 266.612 440.494 265.77 440.494 264.818C440.494 263.874 440.363 263.043 440.1 262.325C439.837 261.608 439.45 261.047 438.939 260.642C438.427 260.237 437.799 260.035 437.053 260.035C436.314 260.035 435.689 260.23 435.178 260.621C434.674 261.011 434.287 261.565 434.017 262.283C433.747 263 433.612 263.845 433.612 264.818ZM455.547 273.32C453.892 273.32 452.461 272.968 451.254 272.265C450.054 271.555 449.127 270.567 448.473 269.303C447.82 268.032 447.493 266.558 447.493 264.882C447.493 263.192 447.82 261.714 448.473 260.45C449.127 259.179 450.054 258.192 451.254 257.489C452.461 256.778 453.892 256.423 455.547 256.423C457.202 256.423 458.63 256.778 459.83 257.489C461.037 258.192 461.968 259.179 462.621 260.45C463.275 261.714 463.601 263.192 463.601 264.882C463.601 266.558 463.275 268.032 462.621 269.303C461.968 270.567 461.037 271.555 459.83 272.265C458.63 272.968 457.202 273.32 455.547 273.32ZM455.569 269.804C456.321 269.804 456.95 269.591 457.454 269.165C457.959 268.732 458.339 268.142 458.594 267.396C458.857 266.651 458.988 265.802 458.988 264.85C458.988 263.898 458.857 263.05 458.594 262.304C458.339 261.558 457.959 260.969 457.454 260.536C456.95 260.102 456.321 259.886 455.569 259.886C454.809 259.886 454.169 260.102 453.651 260.536C453.14 260.969 452.753 261.558 452.49 262.304C452.234 263.05 452.106 263.898 452.106 264.85C452.106 265.802 452.234 266.651 452.49 267.396C452.753 268.142 453.14 268.732 453.651 269.165C454.169 269.591 454.809 269.804 455.569 269.804ZM480.167 261.303L476.013 261.558C475.941 261.203 475.789 260.884 475.554 260.599C475.32 260.308 475.011 260.077 474.628 259.907C474.251 259.729 473.8 259.641 473.275 259.641C472.571 259.641 471.978 259.79 471.495 260.088C471.013 260.379 470.771 260.77 470.771 261.26C470.771 261.651 470.927 261.981 471.24 262.251C471.552 262.521 472.089 262.737 472.848 262.901L475.81 263.497C477.401 263.824 478.587 264.349 479.368 265.074C480.15 265.798 480.54 266.75 480.54 267.929C480.54 269.001 480.224 269.942 479.592 270.752C478.967 271.562 478.108 272.194 477.014 272.648C475.927 273.096 474.674 273.32 473.253 273.32C471.087 273.32 469.361 272.869 468.076 271.967C466.797 271.058 466.048 269.822 465.828 268.259L470.292 268.025C470.427 268.685 470.753 269.19 471.272 269.538C471.79 269.879 472.454 270.049 473.264 270.049C474.059 270.049 474.699 269.896 475.182 269.591C475.672 269.278 475.92 268.877 475.927 268.387C475.92 267.975 475.746 267.638 475.405 267.375C475.064 267.105 474.539 266.899 473.829 266.757L470.995 266.192C469.397 265.873 468.207 265.319 467.426 264.531C466.652 263.742 466.265 262.737 466.265 261.516C466.265 260.464 466.549 259.559 467.117 258.799C467.692 258.039 468.498 257.453 469.535 257.041C470.579 256.629 471.801 256.423 473.2 256.423C475.267 256.423 476.893 256.86 478.079 257.734C479.272 258.607 479.968 259.797 480.167 261.303ZM483.398 273V256.636H487.936V273H483.398ZM485.678 254.527C485.003 254.527 484.424 254.303 483.941 253.856C483.465 253.401 483.228 252.858 483.228 252.226C483.228 251.601 483.465 251.065 483.941 250.617C484.424 250.163 485.003 249.935 485.678 249.935C486.353 249.935 486.928 250.163 487.404 250.617C487.887 251.065 488.128 251.601 488.128 252.226C488.128 252.858 487.887 253.401 487.404 253.856C486.928 254.303 486.353 254.527 485.678 254.527ZM500.276 256.636V260.045H490.421V256.636H500.276ZM492.658 252.716H497.197V267.972C497.197 268.391 497.261 268.717 497.389 268.952C497.516 269.179 497.694 269.339 497.921 269.431C498.156 269.523 498.426 269.57 498.731 269.57C498.944 269.57 499.157 269.552 499.37 269.516C499.583 269.474 499.747 269.442 499.86 269.42L500.574 272.798C500.347 272.869 500.027 272.95 499.615 273.043C499.203 273.142 498.703 273.202 498.113 273.224C497.019 273.266 496.06 273.121 495.237 272.787C494.42 272.453 493.784 271.935 493.33 271.232C492.875 270.528 492.651 269.641 492.658 268.568V252.716ZM510.45 273.32C508.795 273.32 507.364 272.968 506.156 272.265C504.956 271.555 504.029 270.567 503.376 269.303C502.722 268.032 502.396 266.558 502.396 264.882C502.396 263.192 502.722 261.714 503.376 260.45C504.029 259.179 504.956 258.192 506.156 257.489C507.364 256.778 508.795 256.423 510.45 256.423C512.104 256.423 513.532 256.778 514.732 257.489C515.94 258.192 516.87 259.179 517.524 260.45C518.177 261.714 518.504 263.192 518.504 264.882C518.504 266.558 518.177 268.032 517.524 269.303C516.87 270.567 515.94 271.555 514.732 272.265C513.532 272.968 512.104 273.32 510.45 273.32ZM510.471 269.804C511.224 269.804 511.852 269.591 512.357 269.165C512.861 268.732 513.241 268.142 513.497 267.396C513.759 266.651 513.891 265.802 513.891 264.85C513.891 263.898 513.759 263.05 513.497 262.304C513.241 261.558 512.861 260.969 512.357 260.536C511.852 260.102 511.224 259.886 510.471 259.886C509.711 259.886 509.072 260.102 508.553 260.536C508.042 260.969 507.655 261.558 507.392 262.304C507.136 263.05 507.009 263.898 507.009 264.85C507.009 265.802 507.136 266.651 507.392 267.396C507.655 268.142 508.042 268.732 508.553 269.165C509.072 269.591 509.711 269.804 510.471 269.804ZM521.455 273V256.636H525.854V259.491H526.025C526.323 258.476 526.824 257.709 527.527 257.19C528.23 256.665 529.04 256.402 529.956 256.402C530.183 256.402 530.428 256.416 530.691 256.445C530.954 256.473 531.185 256.512 531.384 256.562V260.589C531.171 260.525 530.876 260.468 530.499 260.418C530.123 260.369 529.778 260.344 529.466 260.344C528.798 260.344 528.202 260.489 527.676 260.781C527.158 261.065 526.746 261.462 526.44 261.974C526.142 262.485 525.993 263.075 525.993 263.742V273H521.455ZM537.03 279.136C536.455 279.136 535.915 279.09 535.411 278.998C534.913 278.913 534.502 278.803 534.175 278.668L535.198 275.28C535.73 275.443 536.21 275.532 536.636 275.546C537.069 275.56 537.442 275.461 537.754 275.248C538.074 275.035 538.333 274.673 538.532 274.161L538.798 273.469L532.928 256.636H537.701L541.089 268.653H541.259L544.679 256.636H549.484L543.124 274.768C542.818 275.649 542.403 276.416 541.877 277.07C541.359 277.73 540.702 278.238 539.906 278.593C539.111 278.955 538.152 279.136 537.03 279.136Z" fill="black"/>
<rect x="320" width="300" height="100" rx="6" fill="white"/>
<rect width="300" height="100" rx="6" fill="white"/>
<rect x="640" width="300" height="100" rx="6" fill="white"/>
<path d="M437.262 43.4929C437.183 42.6908 436.841 42.0677 436.238 41.6236C435.635 41.1794 434.816 40.9574 433.782 40.9574C433.079 40.9574 432.486 41.0568 432.002 41.2557C431.518 41.4479 431.147 41.7164 430.888 42.0611C430.637 42.4058 430.511 42.7969 430.511 43.2344C430.497 43.599 430.574 43.9171 430.739 44.1889C430.912 44.4607 431.147 44.696 431.445 44.8949C431.744 45.0871 432.088 45.2562 432.479 45.402C432.871 45.5412 433.288 45.6605 433.732 45.7599L435.562 46.1974C436.45 46.3963 437.265 46.6615 438.008 46.9929C438.75 47.3243 439.393 47.732 439.937 48.2159C440.48 48.6998 440.901 49.2699 441.2 49.9261C441.504 50.5824 441.66 51.3348 441.667 52.1832C441.66 53.4295 441.342 54.5099 440.712 55.4247C440.089 56.3329 439.188 57.0388 438.008 57.5426C436.835 58.0398 435.419 58.2884 433.762 58.2884C432.118 58.2884 430.686 58.0365 429.467 57.5327C428.254 57.0289 427.306 56.2831 426.623 55.2955C425.947 54.3011 425.592 53.0715 425.559 51.6065H429.725C429.772 52.2893 429.967 52.8594 430.312 53.3168C430.663 53.7675 431.13 54.1089 431.714 54.3409C432.304 54.5663 432.97 54.679 433.712 54.679C434.442 54.679 435.075 54.5729 435.612 54.3608C436.155 54.1487 436.576 53.8537 436.874 53.4759C437.173 53.098 437.322 52.6638 437.322 52.1733C437.322 51.7159 437.186 51.3314 436.914 51.0199C436.649 50.7083 436.258 50.4432 435.741 50.2244C435.23 50.0057 434.604 49.8068 433.862 49.6278L431.644 49.071C429.927 48.6534 428.572 48.0005 427.577 47.1122C426.583 46.224 426.089 45.0275 426.096 43.5227C426.089 42.2898 426.417 41.2126 427.08 40.2912C427.75 39.3698 428.668 38.6506 429.835 38.1335C431.001 37.6165 432.327 37.358 433.812 37.358C435.323 37.358 436.642 37.6165 437.769 38.1335C438.903 38.6506 439.784 39.3698 440.414 40.2912C441.044 41.2126 441.369 42.2798 441.388 43.4929H437.262ZM451.444 58.2983C449.873 58.2983 448.52 57.9801 447.387 57.3438C446.26 56.7008 445.391 55.7926 444.782 54.6193C444.172 53.4394 443.867 52.044 443.867 50.4332C443.867 48.8622 444.172 47.4834 444.782 46.2969C445.391 45.1103 446.25 44.1856 447.357 43.5227C448.471 42.8598 449.776 42.5284 451.275 42.5284C452.282 42.5284 453.22 42.6908 454.088 43.0156C454.963 43.3338 455.726 43.8144 456.375 44.4574C457.032 45.1004 457.542 45.9091 457.907 46.8835C458.271 47.8513 458.453 48.9848 458.453 50.2841V51.4474H445.557V48.8224H454.466C454.466 48.2126 454.334 47.6723 454.069 47.2017C453.803 46.7311 453.435 46.3632 452.965 46.098C452.501 45.8262 451.961 45.6903 451.344 45.6903C450.701 45.6903 450.131 45.8395 449.634 46.1378C449.143 46.4295 448.759 46.8239 448.48 47.321C448.202 47.8116 448.06 48.3584 448.053 48.9616V51.4574C448.053 52.2131 448.192 52.866 448.471 53.4162C448.756 53.9664 449.157 54.3906 449.674 54.6889C450.191 54.9872 450.804 55.1364 451.513 55.1364C451.984 55.1364 452.415 55.0701 452.806 54.9375C453.197 54.8049 453.532 54.6061 453.81 54.3409C454.088 54.0758 454.301 53.7509 454.446 53.3665L458.364 53.625C458.165 54.5663 457.757 55.3883 457.141 56.0909C456.531 56.7869 455.742 57.3305 454.775 57.7216C453.813 58.1061 452.703 58.2983 451.444 58.2983ZM461.218 58V42.7273H465.324V45.392H465.483C465.762 44.4441 466.229 43.7282 466.885 43.2443C467.542 42.7538 468.297 42.5085 469.152 42.5085C469.364 42.5085 469.593 42.5218 469.838 42.5483C470.084 42.5748 470.299 42.6113 470.485 42.6577V46.4162C470.286 46.3565 470.011 46.3035 469.659 46.2571C469.308 46.2107 468.987 46.1875 468.695 46.1875C468.072 46.1875 467.515 46.3234 467.025 46.5952C466.541 46.8603 466.156 47.2315 465.871 47.7088C465.593 48.1861 465.453 48.7363 465.453 49.3594V58H461.218ZM487.378 42.7273L482.039 58H477.266L471.926 42.7273H476.401L479.573 53.6548H479.732L482.894 42.7273H487.378ZM496.014 58.2983C494.443 58.2983 493.091 57.9801 491.957 57.3438C490.83 56.7008 489.962 55.7926 489.352 54.6193C488.742 53.4394 488.437 52.044 488.437 50.4332C488.437 48.8622 488.742 47.4834 489.352 46.2969C489.962 45.1103 490.82 44.1856 491.927 43.5227C493.041 42.8598 494.347 42.5284 495.845 42.5284C496.852 42.5284 497.79 42.6908 498.659 43.0156C499.534 43.3338 500.296 43.8144 500.946 44.4574C501.602 45.1004 502.112 45.9091 502.477 46.8835C502.842 47.8513 503.024 48.9848 503.024 50.2841V51.4474H490.127V48.8224H499.037C499.037 48.2126 498.904 47.6723 498.639 47.2017C498.374 46.7311 498.006 46.3632 497.535 46.098C497.071 45.8262 496.531 45.6903 495.914 45.6903C495.271 45.6903 494.701 45.8395 494.204 46.1378C493.714 46.4295 493.329 46.8239 493.051 47.321C492.772 47.8116 492.63 48.3584 492.623 48.9616V51.4574C492.623 52.2131 492.762 52.866 493.041 53.4162C493.326 53.9664 493.727 54.3906 494.244 54.6889C494.761 54.9872 495.374 55.1364 496.083 55.1364C496.554 55.1364 496.985 55.0701 497.376 54.9375C497.767 54.8049 498.102 54.6061 498.38 54.3409C498.659 54.0758 498.871 53.7509 499.017 53.3665L502.934 53.625C502.735 54.5663 502.328 55.3883 501.711 56.0909C501.101 56.7869 500.313 57.3305 499.345 57.7216C498.384 58.1061 497.273 58.2983 496.014 58.2983ZM505.788 58V42.7273H509.895V45.392H510.054C510.332 44.4441 510.799 43.7282 511.456 43.2443C512.112 42.7538 512.868 42.5085 513.723 42.5085C513.935 42.5085 514.163 42.5218 514.409 42.5483C514.654 42.5748 514.869 42.6113 515.055 42.6577V46.4162C514.856 46.3565 514.581 46.3035 514.23 46.2571C513.878 46.2107 513.557 46.1875 513.265 46.1875C512.642 46.1875 512.085 46.3234 511.595 46.5952C511.111 46.8603 510.726 47.2315 510.441 47.7088C510.163 48.1861 510.024 48.7363 510.024 49.3594V58H505.788Z" fill="black"/>
<path d="M94.7109 47.8182C94.7109 45.3523 95.0391 43.0819 95.6953 41.0071C96.3582 38.9323 97.3691 37.0099 98.728 35.2401H102.775C102.258 35.8963 101.777 36.6984 101.333 37.6463C100.889 38.5876 100.501 39.6217 100.17 40.7486C99.8383 41.8755 99.5798 43.0421 99.3942 44.2486C99.2086 45.4484 99.1158 46.6383 99.1158 47.8182C99.1158 49.3892 99.2749 50.9768 99.593 52.581C99.9179 54.1785 100.355 55.6634 100.906 57.0355C101.462 58.4077 102.085 59.5312 102.775 60.4062H98.728C97.3691 58.6364 96.3582 56.714 95.6953 54.6392C95.0391 52.5644 94.7109 50.2907 94.7109 47.8182ZM124.026 47.8182C124.026 50.0388 123.605 51.928 122.763 53.4858C121.928 55.0436 120.788 56.2334 119.343 57.0554C117.904 57.8707 116.287 58.2784 114.49 58.2784C112.681 58.2784 111.057 57.8674 109.618 57.0455C108.18 56.2235 107.043 55.0336 106.208 53.4759C105.373 51.9181 104.955 50.0322 104.955 47.8182C104.955 45.5975 105.373 43.7083 106.208 42.1506C107.043 40.5928 108.18 39.4062 109.618 38.5909C111.057 37.7689 112.681 37.358 114.49 37.358C116.287 37.358 117.904 37.7689 119.343 38.5909C120.788 39.4062 121.928 40.5928 122.763 42.1506C123.605 43.7083 124.026 45.5975 124.026 47.8182ZM119.661 47.8182C119.661 46.3797 119.445 45.1667 119.015 44.179C118.59 43.1913 117.99 42.4422 117.215 41.9318C116.439 41.4214 115.531 41.1662 114.49 41.1662C113.45 41.1662 112.542 41.4214 111.766 41.9318C110.99 42.4422 110.387 43.1913 109.956 44.179C109.532 45.1667 109.32 46.3797 109.32 47.8182C109.32 49.2566 109.532 50.4697 109.956 51.4574C110.387 52.4451 110.99 53.1941 111.766 53.7045C112.542 54.215 113.45 54.4702 114.49 54.4702C115.531 54.4702 116.439 54.215 117.215 53.7045C117.99 53.1941 118.59 52.4451 119.015 51.4574C119.445 50.4697 119.661 49.2566 119.661 47.8182ZM135.349 42.7273V45.9091H125.923V42.7273H135.349ZM128.08 58V41.6236C128.08 40.5166 128.296 39.5985 128.727 38.8693C129.164 38.1402 129.761 37.5933 130.516 37.2287C131.272 36.8641 132.13 36.6818 133.092 36.6818C133.741 36.6818 134.335 36.7315 134.871 36.831C135.415 36.9304 135.819 37.0199 136.085 37.0994L135.329 40.2812C135.163 40.2282 134.958 40.1785 134.712 40.1321C134.474 40.0857 134.228 40.0625 133.977 40.0625C133.353 40.0625 132.919 40.2083 132.674 40.5C132.429 40.785 132.306 41.1861 132.306 41.7031V58H128.08ZM146.15 42.7273V45.9091H136.723V42.7273H146.15ZM138.881 58V41.6236C138.881 40.5166 139.096 39.5985 139.527 38.8693C139.965 38.1402 140.561 37.5933 141.317 37.2287C142.073 36.8641 142.931 36.6818 143.892 36.6818C144.542 36.6818 145.135 36.7315 145.672 36.831C146.216 36.9304 146.62 37.0199 146.885 37.0994L146.13 40.2812C145.964 40.2282 145.758 40.1785 145.513 40.1321C145.275 40.0857 145.029 40.0625 144.777 40.0625C144.154 40.0625 143.72 40.2083 143.475 40.5C143.23 40.785 143.107 41.1861 143.107 41.7031V58H138.881ZM152.973 37.6364V58H148.737V37.6364H152.973ZM156.366 58V42.7273H160.602V58H156.366ZM158.494 40.7585C157.864 40.7585 157.324 40.5497 156.873 40.1321C156.429 39.7079 156.207 39.2008 156.207 38.6108C156.207 38.0275 156.429 37.527 156.873 37.1094C157.324 36.6851 157.864 36.473 158.494 36.473C159.124 36.473 159.661 36.6851 160.105 37.1094C160.556 37.527 160.781 38.0275 160.781 38.6108C160.781 39.2008 160.556 39.7079 160.105 40.1321C159.661 40.5497 159.124 40.7585 158.494 40.7585ZM168.231 49.1705V58H163.995V42.7273H168.032V45.4219H168.211C168.549 44.5336 169.116 43.831 169.911 43.3139C170.707 42.7902 171.671 42.5284 172.805 42.5284C173.865 42.5284 174.79 42.7604 175.579 43.2244C176.368 43.6884 176.981 44.3513 177.418 45.2131C177.856 46.0682 178.075 47.089 178.075 48.2756V58H173.839V49.0312C173.845 48.0966 173.607 47.3674 173.123 46.8438C172.639 46.3134 171.973 46.0483 171.124 46.0483C170.554 46.0483 170.05 46.1709 169.613 46.4162C169.182 46.6615 168.844 47.0194 168.599 47.4901C168.36 47.9541 168.237 48.5142 168.231 49.1705ZM188.373 58.2983C186.802 58.2983 185.45 57.9801 184.316 57.3438C183.19 56.7008 182.321 55.7926 181.711 54.6193C181.101 53.4394 180.797 52.044 180.797 50.4332C180.797 48.8622 181.101 47.4834 181.711 46.2969C182.321 45.1103 183.18 44.1856 184.287 43.5227C185.4 42.8598 186.706 42.5284 188.204 42.5284C189.212 42.5284 190.15 42.6908 191.018 43.0156C191.893 43.3338 192.655 43.8144 193.305 44.4574C193.961 45.1004 194.472 45.9091 194.836 46.8835C195.201 47.8513 195.383 48.9848 195.383 50.2841V51.4474H182.487V48.8224H191.396C191.396 48.2126 191.263 47.6723 190.998 47.2017C190.733 46.7311 190.365 46.3632 189.895 46.098C189.431 45.8262 188.89 45.6903 188.274 45.6903C187.631 45.6903 187.061 45.8395 186.564 46.1378C186.073 46.4295 185.689 46.8239 185.41 47.321C185.132 47.8116 184.989 48.3584 184.983 48.9616V51.4574C184.983 52.2131 185.122 52.866 185.4 53.4162C185.685 53.9664 186.086 54.3906 186.603 54.6889C187.12 54.9872 187.734 55.1364 188.443 55.1364C188.913 55.1364 189.344 55.0701 189.735 54.9375C190.127 54.8049 190.461 54.6061 190.74 54.3409C191.018 54.0758 191.23 53.7509 191.376 53.3665L195.294 53.625C195.095 54.5663 194.687 55.3883 194.071 56.0909C193.461 56.7869 192.672 57.3305 191.704 57.7216C190.743 58.1061 189.633 58.2983 188.373 58.2983ZM205.287 49.8366C205.287 52.3092 204.955 54.5829 204.292 56.6577C203.636 58.7325 202.628 60.6548 201.27 62.4247H197.223C197.74 61.7685 198.22 60.9664 198.664 60.0185C199.109 59.0705 199.496 58.0365 199.828 56.9162C200.159 55.7893 200.418 54.6226 200.603 53.4162C200.789 52.2098 200.882 51.0166 200.882 49.8366C200.882 48.2656 200.719 46.6813 200.395 45.0838C200.076 43.4796 199.639 41.9948 199.082 40.6293C198.532 39.2571 197.912 38.1335 197.223 37.2585H201.27C202.628 39.0284 203.636 40.9508 204.292 43.0256C204.955 45.1004 205.287 47.3707 205.287 49.8366Z" fill="black"/>
<path d="M744.309 47.8182C744.309 45.3523 744.637 43.0819 745.293 41.0071C745.956 38.9323 746.967 37.0099 748.326 35.2401H752.373C751.855 35.8963 751.375 36.6984 750.931 37.6463C750.487 38.5876 750.099 39.6217 749.767 40.7486C749.436 41.8755 749.177 43.0421 748.992 44.2486C748.806 45.4484 748.713 46.6383 748.713 47.8182C748.713 49.3892 748.873 50.9768 749.191 52.581C749.516 54.1785 749.953 55.6634 750.503 57.0355C751.06 58.4077 751.683 59.5312 752.373 60.4062H748.326C746.967 58.6364 745.956 56.714 745.293 54.6392C744.637 52.5644 744.309 50.2907 744.309 47.8182ZM765.957 43.4929C765.878 42.6908 765.536 42.0677 764.933 41.6236C764.33 41.1794 763.511 40.9574 762.477 40.9574C761.775 40.9574 761.181 41.0568 760.697 41.2557C760.214 41.4479 759.842 41.7164 759.584 42.0611C759.332 42.4058 759.206 42.7969 759.206 43.2344C759.193 43.599 759.269 43.9171 759.435 44.1889C759.607 44.4607 759.842 44.696 760.141 44.8949C760.439 45.0871 760.784 45.2562 761.175 45.402C761.566 45.5412 761.983 45.6605 762.428 45.7599L764.257 46.1974C765.145 46.3963 765.961 46.6615 766.703 46.9929C767.446 47.3243 768.089 47.732 768.632 48.2159C769.176 48.6998 769.597 49.2699 769.895 49.9261C770.2 50.5824 770.356 51.3348 770.362 52.1832C770.356 53.4295 770.037 54.5099 769.408 55.4247C768.785 56.3329 767.883 57.0388 766.703 57.5426C765.53 58.0398 764.115 58.2884 762.457 58.2884C760.813 58.2884 759.382 58.0365 758.162 57.5327C756.949 57.0289 756.001 56.2831 755.318 55.2955C754.642 54.3011 754.287 53.0715 754.254 51.6065H758.42C758.467 52.2893 758.662 52.8594 759.007 53.3168C759.358 53.7675 759.826 54.1089 760.409 54.3409C760.999 54.5663 761.665 54.679 762.408 54.679C763.137 54.679 763.77 54.5729 764.307 54.3608C764.85 54.1487 765.271 53.8537 765.57 53.4759C765.868 53.098 766.017 52.6638 766.017 52.1733C766.017 51.7159 765.881 51.3314 765.609 51.0199C765.344 50.7083 764.953 50.4432 764.436 50.2244C763.926 50.0057 763.299 49.8068 762.557 49.6278L760.339 49.071C758.623 48.6534 757.267 48.0005 756.273 47.1122C755.278 46.224 754.785 45.0275 754.791 43.5227C754.785 42.2898 755.113 41.2126 755.776 40.2912C756.445 39.3698 757.363 38.6506 758.53 38.1335C759.696 37.6165 761.022 37.358 762.507 37.358C764.018 37.358 765.338 37.6165 766.464 38.1335C767.598 38.6506 768.48 39.3698 769.109 40.2912C769.739 41.2126 770.064 42.2798 770.084 43.4929H765.957ZM781.302 42.7273V45.9091H772.105V42.7273H781.302ZM774.193 39.0682H778.429V53.3068C778.429 53.6979 778.488 54.0028 778.608 54.2216C778.727 54.4337 778.893 54.5829 779.105 54.669C779.324 54.7552 779.575 54.7983 779.86 54.7983C780.059 54.7983 780.258 54.7817 780.457 54.7486C780.656 54.7088 780.808 54.679 780.914 54.6591L781.581 57.8111C781.368 57.8774 781.07 57.9536 780.686 58.0398C780.301 58.1326 779.834 58.1889 779.284 58.2088C778.263 58.2486 777.368 58.1127 776.599 57.8011C775.837 57.4896 775.243 57.0057 774.819 56.3494C774.395 55.6932 774.186 54.8646 774.193 53.8636V39.0682ZM790.798 58.2983C789.253 58.2983 787.918 57.9702 786.791 57.3139C785.671 56.651 784.806 55.7296 784.196 54.5497C783.586 53.3632 783.281 51.9877 783.281 50.4233C783.281 48.8456 783.586 47.4669 784.196 46.2869C784.806 45.1004 785.671 44.179 786.791 43.5227C787.918 42.8598 789.253 42.5284 790.798 42.5284C792.342 42.5284 793.675 42.8598 794.795 43.5227C795.922 44.179 796.79 45.1004 797.4 46.2869C798.01 47.4669 798.315 48.8456 798.315 50.4233C798.315 51.9877 798.01 53.3632 797.4 54.5497C796.79 55.7296 795.922 56.651 794.795 57.3139C793.675 57.9702 792.342 58.2983 790.798 58.2983ZM790.818 55.017C791.52 55.017 792.107 54.8182 792.578 54.4205C793.048 54.0161 793.403 53.4659 793.642 52.7699C793.887 52.0739 794.01 51.2817 794.01 50.3935C794.01 49.5052 793.887 48.7131 793.642 48.017C793.403 47.321 793.048 46.7708 792.578 46.3665C792.107 45.9621 791.52 45.7599 790.818 45.7599C790.109 45.7599 789.512 45.9621 789.028 46.3665C788.551 46.7708 788.19 47.321 787.944 48.017C787.706 48.7131 787.586 49.5052 787.586 50.3935C787.586 51.2817 787.706 52.0739 787.944 52.7699C788.19 53.4659 788.551 54.0161 789.028 54.4205C789.512 54.8182 790.109 55.017 790.818 55.017ZM801.069 58V42.7273H805.176V45.392H805.335C805.613 44.4441 806.081 43.7282 806.737 43.2443C807.393 42.7538 808.149 42.5085 809.004 42.5085C809.216 42.5085 809.445 42.5218 809.69 42.5483C809.935 42.5748 810.151 42.6113 810.336 42.6577V46.4162C810.137 46.3565 809.862 46.3035 809.511 46.2571C809.16 46.2107 808.838 46.1875 808.547 46.1875C807.923 46.1875 807.367 46.3234 806.876 46.5952C806.392 46.8603 806.008 47.2315 805.723 47.7088C805.444 48.1861 805.305 48.7363 805.305 49.3594V58H801.069ZM818.776 58.2983C817.205 58.2983 815.852 57.9801 814.719 57.3438C813.592 56.7008 812.723 55.7926 812.114 54.6193C811.504 53.4394 811.199 52.044 811.199 50.4332C811.199 48.8622 811.504 47.4834 812.114 46.2969C812.723 45.1103 813.582 44.1856 814.689 43.5227C815.803 42.8598 817.108 42.5284 818.607 42.5284C819.614 42.5284 820.552 42.6908 821.42 43.0156C822.295 43.3338 823.058 43.8144 823.707 44.4574C824.364 45.1004 824.874 45.9091 825.239 46.8835C825.603 47.8513 825.786 48.9848 825.786 50.2841V51.4474H812.889V48.8224H821.798C821.798 48.2126 821.666 47.6723 821.401 47.2017C821.135 46.7311 820.768 46.3632 820.297 46.098C819.833 45.8262 819.293 45.6903 818.676 45.6903C818.033 45.6903 817.463 45.8395 816.966 46.1378C816.475 46.4295 816.091 46.8239 815.812 47.321C815.534 47.8116 815.392 48.3584 815.385 48.9616V51.4574C815.385 52.2131 815.524 52.866 815.803 53.4162C816.088 53.9664 816.489 54.3906 817.006 54.6889C817.523 54.9872 818.136 55.1364 818.845 55.1364C819.316 55.1364 819.747 55.0701 820.138 54.9375C820.529 54.8049 820.864 54.6061 821.142 54.3409C821.42 54.0758 821.633 53.7509 821.778 53.3665L825.696 53.625C825.497 54.5663 825.089 55.3883 824.473 56.0909C823.863 56.7869 823.074 57.3305 822.107 57.7216C821.145 58.1061 820.035 58.2983 818.776 58.2983ZM835.689 49.8366C835.689 52.3092 835.357 54.5829 834.695 56.6577C834.038 58.7325 833.031 60.6548 831.672 62.4247H827.625C828.142 61.7685 828.623 60.9664 829.067 60.0185C829.511 59.0705 829.899 58.0365 830.23 56.9162C830.562 55.7893 830.82 54.6226 831.006 53.4162C831.191 52.2098 831.284 51.0166 831.284 49.8366C831.284 48.2656 831.122 46.6813 830.797 45.0838C830.479 43.4796 830.041 41.9948 829.484 40.6293C828.934 39.2571 828.314 38.1335 827.625 37.2585H831.672C833.031 39.0284 834.038 40.9508 834.695 43.0256C835.357 45.1004 835.689 47.3707 835.689 49.8366Z" fill="black"/>
<rect x="320" y="573" width="300" height="100" rx="6" fill="white"/>
<path d="M411.852 633V611.182H426.554V614.985H416.465V620.184H425.798V623.987H416.465V629.197H426.597V633H411.852ZM434.675 611.182V633H430.136V611.182H434.675ZM445.767 633.32C444.084 633.32 442.635 632.979 441.421 632.297C440.214 631.608 439.283 630.635 438.63 629.378C437.976 628.114 437.65 626.619 437.65 624.893C437.65 623.21 437.976 621.732 438.63 620.461C439.283 619.19 440.203 618.199 441.389 617.489C442.582 616.778 443.981 616.423 445.586 616.423C446.666 616.423 447.671 616.597 448.601 616.945C449.539 617.286 450.356 617.801 451.052 618.49C451.755 619.179 452.302 620.045 452.692 621.089C453.083 622.126 453.278 623.341 453.278 624.733V625.979H439.461V623.167H449.006C449.006 622.513 448.864 621.935 448.58 621.43C448.296 620.926 447.902 620.532 447.397 620.248C446.9 619.957 446.321 619.811 445.661 619.811C444.972 619.811 444.361 619.971 443.829 620.29C443.303 620.603 442.891 621.026 442.593 621.558C442.294 622.084 442.142 622.67 442.135 623.316V625.99C442.135 626.8 442.284 627.499 442.582 628.089C442.888 628.678 443.317 629.133 443.871 629.452C444.425 629.772 445.082 629.932 445.842 629.932C446.346 629.932 446.808 629.861 447.227 629.719C447.646 629.577 448.005 629.364 448.303 629.08C448.601 628.795 448.829 628.447 448.985 628.036L453.182 628.312C452.969 629.321 452.532 630.202 451.872 630.955C451.218 631.7 450.373 632.283 449.336 632.702C448.307 633.114 447.117 633.32 445.767 633.32ZM456.24 633V616.636H460.565V619.523H460.757C461.098 618.565 461.666 617.808 462.461 617.254C463.257 616.7 464.209 616.423 465.316 616.423C466.439 616.423 467.394 616.704 468.182 617.265C468.971 617.819 469.496 618.572 469.759 619.523H469.929C470.263 618.586 470.867 617.837 471.741 617.276C472.621 616.707 473.662 616.423 474.862 616.423C476.389 616.423 477.628 616.91 478.58 617.883C479.539 618.849 480.018 620.219 480.018 621.995V633H475.491V622.89C475.491 621.981 475.249 621.299 474.766 620.844C474.283 620.39 473.679 620.163 472.955 620.163C472.131 620.163 471.488 620.425 471.027 620.951C470.565 621.469 470.334 622.155 470.334 623.007V633H465.934V622.794C465.934 621.991 465.704 621.352 465.242 620.876C464.787 620.401 464.187 620.163 463.441 620.163C462.937 620.163 462.483 620.29 462.078 620.546C461.68 620.795 461.364 621.146 461.13 621.601C460.895 622.048 460.778 622.574 460.778 623.178V633H456.24ZM491.06 633.32C489.377 633.32 487.928 632.979 486.714 632.297C485.506 631.608 484.576 630.635 483.923 629.378C483.269 628.114 482.943 626.619 482.943 624.893C482.943 623.21 483.269 621.732 483.923 620.461C484.576 619.19 485.496 618.199 486.682 617.489C487.875 616.778 489.274 616.423 490.879 616.423C491.959 616.423 492.964 616.597 493.894 616.945C494.832 617.286 495.649 617.801 496.345 618.49C497.048 619.179 497.595 620.045 497.985 621.089C498.376 622.126 498.571 623.341 498.571 624.733V625.979H484.754V623.167H494.299C494.299 622.513 494.157 621.935 493.873 621.43C493.589 620.926 493.195 620.532 492.69 620.248C492.193 619.957 491.614 619.811 490.954 619.811C490.265 619.811 489.654 619.971 489.122 620.29C488.596 620.603 488.184 621.026 487.886 621.558C487.587 622.084 487.435 622.67 487.428 623.316V625.99C487.428 626.8 487.577 627.499 487.875 628.089C488.18 628.678 488.61 629.133 489.164 629.452C489.718 629.772 490.375 629.932 491.135 629.932C491.639 629.932 492.101 629.861 492.52 629.719C492.939 629.577 493.298 629.364 493.596 629.08C493.894 628.795 494.122 628.447 494.278 628.036L498.475 628.312C498.262 629.321 497.825 630.202 497.165 630.955C496.511 631.7 495.666 632.283 494.629 632.702C493.6 633.114 492.41 633.32 491.06 633.32ZM506.071 623.54V633H501.533V616.636H505.858V619.523H506.05C506.412 618.572 507.019 617.819 507.872 617.265C508.724 616.704 509.757 616.423 510.972 616.423C512.108 616.423 513.099 616.672 513.944 617.169C514.789 617.666 515.446 618.376 515.915 619.3C516.384 620.216 516.618 621.31 516.618 622.581V633H512.08V623.391C512.087 622.389 511.831 621.608 511.313 621.047C510.794 620.479 510.08 620.195 509.171 620.195C508.56 620.195 508.021 620.326 507.552 620.589C507.09 620.852 506.728 621.235 506.465 621.739C506.21 622.237 506.078 622.837 506.071 623.54ZM528.899 616.636V620.045H519.044V616.636H528.899ZM521.282 612.716H525.82V627.972C525.82 628.391 525.884 628.717 526.012 628.952C526.139 629.179 526.317 629.339 526.544 629.431C526.779 629.523 527.049 629.57 527.354 629.57C527.567 629.57 527.78 629.552 527.993 629.516C528.206 629.474 528.37 629.442 528.483 629.42L529.197 632.798C528.97 632.869 528.65 632.95 528.238 633.043C527.826 633.142 527.326 633.202 526.736 633.224C525.642 633.266 524.684 633.121 523.86 632.787C523.043 632.453 522.407 631.935 521.953 631.232C521.498 630.528 521.274 629.641 521.282 628.568V612.716Z" fill="black"/>
<path d="M471.061 124.939C470.475 124.354 469.525 124.354 468.939 124.939L459.393 134.485C458.808 135.071 458.808 136.021 459.393 136.607C459.979 137.192 460.929 137.192 461.515 136.607L470 128.121L478.485 136.607C479.071 137.192 480.021 137.192 480.607 136.607C481.192 136.021 481.192 135.071 480.607 134.485L471.061 124.939ZM471.5 186L471.5 126L468.5 126L468.5 186L471.5 186Z" fill="black"/>
<path d="M435 149.5C434.171 149.5 433.5 150.172 433.5 151V164.5C433.5 165.328 434.171 166 435 166C435.828 166 436.5 165.328 436.5 164.5V152.5H448.5C449.328 152.5 450 151.828 450 151C450 150.172 449.328 149.5 448.5 149.5H435ZM471.416 185.295L436.061 149.939L433.939 152.061L469.295 187.416L471.416 185.295Z" fill="black"/>
<path d="M505.355 149.5C506.184 149.5 506.855 150.172 506.855 151V164.5C506.855 165.328 506.184 166 505.355 166C504.527 166 503.855 165.328 503.855 164.5V152.5H491.855C491.027 152.5 490.355 151.828 490.355 151C490.355 150.172 491.027 149.5 491.855 149.5H505.355ZM468.939 185.295L504.295 149.939L506.416 152.061L471.061 187.416L468.939 185.295Z" fill="black"/>
<path d="M471.061 326.939C470.475 326.354 469.525 326.354 468.939 326.939L459.393 336.485C458.808 337.071 458.808 338.021 459.393 338.607C459.979 339.192 460.929 339.192 461.515 338.607L470 330.121L478.485 338.607C479.071 339.192 480.021 339.192 480.607 338.607C481.192 338.021 481.192 337.071 480.607 336.485L471.061 326.939ZM471.5 378L471.5 328L468.5 328L468.5 378L471.5 378Z" fill="black"/>
<path d="M471.061 506.939C470.475 506.354 469.525 506.354 468.939 506.939L459.393 516.485C458.808 517.071 458.808 518.021 459.393 518.607C459.979 519.192 460.929 519.192 461.515 518.607L470 510.121L478.485 518.607C479.071 519.192 480.021 519.192 480.607 518.607C481.192 518.021 481.192 517.071 480.607 516.485L471.061 506.939ZM471.5 558L471.5 508L468.5 508L468.5 558L471.5 558Z" fill="black"/>
</svg>
