<svg width="370" height="250" viewBox="0 0 370 250" fill="none" xmlns="http://www.w3.org/2000/svg">
<rect x="9" y="9" width="352" height="232" rx="7" fill="white" stroke="black" stroke-width="2"/>
<path d="M102 40H360V234C360 237.314 357.314 240 354 240H102V40Z" fill="white"/>
<mask id="path-3-inside-1_45_213" fill="white">
<path d="M102 217H360V240H102V217Z"/>
</mask>
<path d="M102 218H360V216H102V218Z" fill="black" mask="url(#path-3-inside-1_45_213)"/>
<mask id="path-5-inside-2_45_213" fill="white">
<path d="M102 40H360V63H102V40Z"/>
</mask>
<path d="M360 62H102V64H360V62Z" fill="black" mask="url(#path-5-inside-2_45_213)"/>
<mask id="path-7-inside-3_45_213" fill="white">
<path d="M10 40H102V240H16C12.6863 240 10 237.314 10 234V40Z"/>
</mask>
<path d="M10 40H102V240H16C12.6863 240 10 237.314 10 234V40Z" fill="white"/>
<path d="M10 40H102H10ZM102 240H10H102ZM10 240V40V240ZM103 40V240H101V40H103Z" fill="black" mask="url(#path-7-inside-3_45_213)"/>
<path d="M354 10C357.314 10 360 12.6863 360 16L360 40L10 40L10 16C10 12.6863 12.6863 9.99998 16 9.99998L354 10Z" fill="#1B264F"/>
<path d="M24 116L27.4641 122H20.5359L24 116Z" fill="#848484"/>
<rect x="33" y="118" width="40" height="2" fill="#848484"/>
<path d="M24 100L27.4641 106H20.5359L24 100Z" fill="#848484"/>
<rect x="33" y="102" width="40" height="2" fill="#848484"/>
<path d="M24 84L27.4641 90H20.5359L24 84Z" fill="#848484"/>
<rect x="33" y="86" width="40" height="2" fill="#848484"/>
<path d="M24 68L27.4641 74H20.5359L24 68Z" fill="#848484"/>
<rect x="33" y="70" width="40" height="2" fill="#848484"/>
<rect x="20" y="50" width="58" height="8" fill="#D9D9D9"/>
<path opacity="0.8" d="M10 40H360V240H16C12.6863 240 10 237.314 10 234V40Z" fill="#D9D9D9"/>
<rect x="340" y="222" width="10" height="12" fill="white"/>
<path d="M282 171H350V217H282V171Z" fill="white"/>
<rect x="305" y="201" width="30" height="2" fill="#848484"/>
<rect x="293" y="199" width="7" height="6" fill="#848484"/>
<rect x="305" y="185" width="30" height="2" fill="#848484"/>
<rect x="293" y="183" width="7" height="6" fill="#848484"/>
<rect x="309" y="222" width="28" height="12" fill="white"/>
<rect x="318" y="227" width="16" height="2" fill="#848484"/>
<rect x="312" y="226" width="4" height="4" fill="#848484"/>
<rect x="274" y="222" width="32" height="12" fill="white"/>
<rect x="285" y="227" width="16" height="2" fill="#848484"/>
<rect x="279" y="226" width="4" height="4" fill="#848484"/>
</svg>
