<svg xmlns="http://www.w3.org/2000/svg" viewBox="0 0 1574.03 893.25"><defs><style>.cls-1{fill:#1b264f;}.cls-2{fill:#293763;}.cls-3{fill:#3544b1;}.cls-4,.cls-6{fill:#b0bed6;}.cls-4{isolation:isolate;opacity:0.99;}.cls-5{fill:#f5c1bc;}.cls-7{fill:#f9f7f4;}.cls-11,.cls-8,.cls-9{fill:#fff;}.cls-11,.cls-9{stroke:#3544b1;stroke-miterlimit:10;}.cls-9{stroke-width:3px;}.cls-10{fill:#f2ebe6;}.cls-11{stroke-width:2px;}</style></defs><g id="Lag_2" data-name="Lag 2"><g id="Lag_1-2" data-name="Lag 1"><rect class="cls-1" width="1574.03" height="893.22"/><path class="cls-2" d="M1574,448.27l-1-1s-44.52-55.53-149.66,51.52-132.1,106-162.81,113.91-193.71,39-222.52,61.72-81.37,57.4-81.37,57.4l248.93,161.43H1574Z"/><path class="cls-2" d="M945.38,800.65s-24.33-71.31-70.39-109-89.39-42-136.4-93.15S677.45,537.76,643,497.69,566.26,433.55,533,414.87c-49.45-27.75-82.71,39.25-145,32.64-39.92-4.24-57.74-16.31-153.35-82.22-32.21-22.2-81.24-71.38-138.36-78.86-35.86-4.7-69.65,11.3-96.26,30.9V792.38l816.26,32.34Z"/><path class="cls-3" d="M379.81,676.14C250.6,599.94,102.57,484,0,440.68V893.25H1237.64C1097.26,778.38,921,649.3,828.77,641,660.67,625.94,560.93,782.94,379.81,676.14Z"/><g id="Layer_38" data-name="Layer 38"><path class="cls-1" d="M1398.8,686.77l-2.51,12-1.22-11.08s8.42-14.09,14.73-21c5.36-5.84,4.76-21.58,4.76-21.58s-16.19,8.73-17.7,10.59-14.32,28.81-14.32,28.81,4.76-25.69,3.64-29.81c-2.68-9.88-14-20.52-14-20.52s-5.65,29.35-5.13,36.64c.82,11.4,8.81,29.94,12.68,39.37.82,2,2.21,2.75,4.84,3l10.5,1.21c3.64.34,3.64.34,7.61-3.15l1.52-10.08c1.56-4,2.22-6.33,4.63-9.68,4.89-6.78,11.8-11.18,14.1-13.35,14.68-13.85,8-22.2,8-22.2C1402.51,676.16,1398.8,686.77,1398.8,686.77Z"/><path class="cls-1" d="M1365.88,688.22c-1.68-2.26-6.13-10.45-7.53-12.8s-5.92-11.93-5.92-11.93-1.13,9.3-.93,13.49,2.3,17.08,5,20,6.46,8.77,9.58,9.64,15.16,6.62,17.16,3.78l-9.4-11.43Z"/><path class="cls-1" d="M1396.54,713.7c8.26,1.56,14.92-6,18.26-7.2s14.67-18.84,14.67-18.84-10,2.43-15.83,4.2C1410.78,692.73,1396.54,713.7,1396.54,713.7Z"/></g><g id="Layer_38-2" data-name="Layer 38"><path class="cls-3" d="M1463.44,699.72c-1.51,5.59,4.94,40.43,4.94,40.43S1451,703.6,1449,701.08s-24-14.36-24-14.36-.82,21.34,6.44,29.27c8.56,9.34,20,28.45,20,28.45l-1.65,15-3.41-16.22s-5-14.38-43.55-41.85c0,0-9.09,11.33,10.83,30.11,3.11,2.93,12.48,8.9,19.1,18.09,3.28,4.55,4.17,7.63,6.28,13.12l2.07,13.68c5.38,4.72,5.38,4.72,10.32,4.27l14.23-1.64c3.57-.33,5.45-1.36,6.56-4.06,5.25-12.78,16.08-37.92,17.19-53.38.71-9.88-6.95-49.67-6.95-49.67S1467.08,686.33,1463.44,699.72Z"/><path class="cls-3" d="M1501.17,727.85c-1.9,3.18-7.93,14.29-10.21,17.36l-10.82,14.55-12.73,15.49c2.7,3.85,19-3.94,23.26-5.12s9.3-9.14,13-13.07,6.56-21.43,6.82-27.11-1.27-18.28-1.27-18.28S1503.06,724.67,1501.17,727.85Z"/><path class="cls-3" d="M1426.21,750.14c-7.93-2.41-21.47-5.71-21.47-5.71s15.37,23.88,19.9,25.56,13.55,11.87,24.75,9.76C1449.39,779.75,1430.09,751.32,1426.21,750.14Z"/></g><g id="Layer_38-3" data-name="Layer 38"><path class="cls-1" d="M1318.11,805.33l-2.91,13.82-1.4-12.8s9.72-16.27,17-24.24c6.19-6.75,5.49-24.93,5.49-24.93s-18.7,10.08-20.45,12.23-16.54,33.29-16.54,33.29,5.5-29.69,4.2-34.44c-3.09-11.41-16.15-23.7-16.15-23.7s-6.53,33.9-5.93,42.31c1,13.18,10.18,34.6,14.65,45.48,1,2.31,2.55,3.19,5.59,3.47l12.12,1.39c4.21.39,4.21.39,8.8-3.64l1.76-11.65c1.8-4.68,2.55-7.3,5.35-11.17,5.64-7.84,13.62-12.92,16.28-15.42,17-16,9.22-25.65,9.22-25.65C1322.39,793.08,1318.11,805.33,1318.11,805.33Z"/><path class="cls-1" d="M1280.08,807c-1.94-2.62-7.08-12.08-8.7-14.79s-6.84-13.78-6.84-13.78-1.3,10.74-1.08,15.57,2.66,19.74,5.81,23.09,7.46,10.14,11.06,11.14,17.51,7.65,19.82,4.37l-10.85-13.2S1282,809.62,1280.08,807Z"/><path class="cls-1" d="M1315.5,836.44c9.54,1.8,17.23-6.88,21.09-8.32s17-21.77,17-21.77-11.53,2.81-18.29,4.86C1332,812.21,1315.5,836.44,1315.5,836.44Z"/></g><path class="cls-4" d="M124.12,455.57c58.23-16,61.55-74.06,81.09-97.84,24.28-29.57,40.62-22.54,44.5-59.6,8.75-83.52-23.08-67.63-67-94.95-56.07-34.94-66,21.14-97.34-9C48.83,158.91,20.74,153.54,0,161.84V403.08c17.72.91,34.48,2,44.13,9.38C68.16,430.79,76.45,468.64,124.12,455.57Z"/><polygon class="cls-1" points="134.32 347.07 98.03 345.76 98.89 290.83 137.65 251.86 119.53 252.74 87.45 282.37 77.87 246.15 35.33 216.87 27.34 226.22 66.42 257.37 81.88 305.44 77.97 370.04 93.71 477.39 72.86 551.04 110.79 551.38 114.22 470.75 106.11 420.39 94.56 364.91 147.67 360.63 215.39 316.48 209.3 313.07 134.32 347.07"/><polygon class="cls-1" points="30.3 303.86 24.85 309.51 47.09 332.29 79.32 347.79 80.26 332.29 55.33 321.61 30.3 303.86"/><polygon class="cls-1" points="114.03 275.61 147.06 291.85 153.83 287.04 122.72 266.87 114.03 275.61"/><polygon class="cls-1" points="85.29 415.73 81.18 391.88 57.18 389.46 27.34 372.9 0 377.6 0 385.01 24.14 384.86 85.29 415.73"/><polygon class="cls-1" points="58.01 232.48 70.08 240.71 88.16 207.93 80.26 207.93 58.01 232.48"/><polygon class="cls-1" points="185.6 335.9 174.25 343.3 201.15 343.62 199.5 339.59 185.6 335.9"/><path class="cls-3" d="M17.94,310.71a12.48,12.48,0,0,1,6.91-1.19l1.25-2.34s-16.48-6.83-20.17-7.65c-1.23-.27-3.4-.6-5.93-.88v15.89l.53.07S14.29,312.46,17.94,310.71Z"/><path class="cls-2" d="M219.89,266.87a64.86,64.86,0,0,0-7.36,11.29c-2.39,5.22-5.41,10.24-5.41,10.24s.51,13.87,1.81,17.69a12.47,12.47,0,0,1,.38,7l2.7,1.52s8.24-15.49,9.52-19,1.95-12.3,1.14-17.37A95.42,95.42,0,0,0,219.89,266.87Z"/><path class="cls-2" d="M19.68,182.07a129.15,129.15,0,0,0-12.1-8s-1,8.23.7,13.69,7.18,15.94,7.18,15.94,9.69,10,13.22,11.95a12.45,12.45,0,0,1,4.94,5l1.69-3.74s-2.93-13.94-4.37-17.44S23.67,185.31,19.68,182.07Z"/><path class="cls-2" d="M57.87,284.78a129.81,129.81,0,0,0-13.74-4.62s1.14,8.21,4.22,13,11,13.56,11,13.56,11.94,7.16,15.86,8.15a11.32,11.32,0,0,1,6,4.12l.23-5.55s-6-11.81-8.27-14.82S62.56,286.88,57.87,284.78Z"/><path class="cls-3" d="M48.88,177.82s-5.3,3.66-7.59,7.48-5.55,12.37-5.55,12.37-.79,10.74-.11,13.79a9.59,9.59,0,0,1-.31,5.41l1.08.76S44.94,207,46.22,204.4s4.44-11.5,4.25-15.47A101.72,101.72,0,0,0,48.88,177.82Z"/><path class="cls-3" d="M62.12,359.83a105.73,105.73,0,0,0-8.23-7.65s-1.83,6.17-1.2,10.57,3.45,13.1,3.45,13.1,6.14,8.86,8.59,10.81a8.2,8.2,0,0,1,2.94,3.86l2.09.21s-.57-13.33-1.23-16.19S64.76,362.79,62.12,359.83Z"/><path class="cls-3" d="M127.75,290.21s-6.54-8.58-9.06-10.42a12.52,12.52,0,0,1-3.73-5.11l-.92,1s.59,13.57,1.38,16.39,4.27,11.56,7,14.41a106.85,106.85,0,0,0,8.54,7.3s1.55-6.24.76-10.62S127.75,290.21,127.75,290.21Z"/><path class="cls-3" d="M236.9,297.57l-24.91,17,3.26,1.82s7.43-7.2,15.7-9.44,32.41-4.83,43.82-8.06,24.3-13.55,30.06-21.61a150.7,150.7,0,0,1,11.36-14,122.23,122.23,0,0,0-29.44,5.25C270.85,273.46,236.9,297.57,236.9,297.57Z"/><path class="cls-3" d="M276.12,345.69S265,342.3,255.68,340.5s-38.35,1.23-38.35,1.23l-17.83-2.14,1.65,4c8.74,1.14,32.73,12.83,38.33,15s33.91,2.06,33.91,2.06,13.94-4.19,14.27-7S276.12,345.69,276.12,345.69Z"/><path class="cls-2" d="M276.12,345.69s-3.51,7.71-13.78,7.71c-27.91,0-53.55-7.71-53.55-7.71s27.55,13.65,39.45,14.19c0,0,21.87,1.73,23.94,1.65s15.4-4,15.47-7.87S276.12,345.69,276.12,345.69Z"/><path class="cls-3" d="M35.94,310.68l.34-3.1-24.6-22.86A85.93,85.93,0,0,0,0,275.48v18.21c2.45.26,4.52.5,5.88.75C12,295.54,25.84,298.51,35.94,310.68Z"/><path class="cls-2" d="M35.94,310.68l.34-3.1-24.6-22.86s-.86-.85-2.4-2.19c0,0-4.33,1-9.28,1.57v9.59c2.45.26,4.52.5,5.88.75C12,295.54,25.84,298.51,35.94,310.68Z"/><path class="cls-3" d="M158.07,203.09C145.34,212.18,137.31,226,137.31,226l-17.76,26.74,5-2c6.55-14.38,15.34-14.16,20.93-16.81S170,225,176.25,221.21,194,208.39,195.33,206.7s6.77-16.81,6.77-16.81C189,182.85,170.8,194,158.07,203.09Z"/><path class="cls-2" d="M185.59,205.17c-6.36,4.84-24,14.13-30.66,15.93A88.63,88.63,0,0,1,139,223.27c-1.14,1.69-1.75,2.73-1.75,2.73l-17.76,26.74,5.79-.26c6.56-14.38,14.52-15.94,20.11-18.59S170,225,176.25,221.21,194,208.39,195.33,206.7s6.77-16.81,6.77-16.81S192,200.34,185.59,205.17Z"/><path class="cls-5" d="M148,237.75c-5.13-1.13-15.88-2.71-19.62,4.66s-10.83,19.53,10.33,24.9c0,0,7.11-2,10.34-3.39s8.19-6.72,8.89-11.52S153.08,238.88,148,237.75Z"/><path class="cls-1" d="M136.75,218.76c-2.12-1.06-6.92-3.65-6.92-3.65s3.63,15,11.42,21.53l6.7,1.11s8.51-8.93,9.43-12.57A105.8,105.8,0,0,0,159,214.11L144.57,229C141.3,223.72,143.57,222.19,136.75,218.76Z"/><g id="Layer_65" data-name="Layer 65"><path class="cls-5" d="M35.2,219.47s.23-3-.81-4.65-5,1.7-5,1.7-2.41-.66-7,2S16.31,231.23,14,236s3.34,12,5,14.74,3.58,4.6,3.87,7,3.8,1,3.8,1l2.05-3.06s6.59-3.2,9.38-7.35,5.8-9.1,4.42-17A19.14,19.14,0,0,0,35.2,219.47Z"/><polygon class="cls-1" points="25.16 246.53 29.29 249.72 30.76 245.49 27.14 243.12 25.16 246.53"/></g><polygon class="cls-3" points="96.71 354.3 88.98 349.92 93.98 359.63 86.74 359.39 97.9 367.24 109.13 361.5 96.73 347.15 96.71 354.3"/><path class="cls-5" d="M125.56,369.38l-14.19-9-6.92,1.79s-9.12,5.15-10.13,8.3,2.52,17.81,2.52,17.81,9.23,13.4,14.34,16.23,10.25,1.61,14.84-.48,8.88-12.33,8.88-12.33c-.55-2.83-1-6.19-1.32-6.72Z"/><polygon class="cls-1" points="99.54 373.22 99.27 379.74 105.27 379.93 104.75 373.01 99.54 373.22"/><polygon class="cls-1" points="101.86 384.76 102.26 388.85 105.56 389.74 105.45 385.13 101.86 384.76"/><polygon class="cls-1" points="108.93 378.66 109.3 384.24 114.01 384.38 112.51 379.76 108.93 378.66"/><polygon class="cls-1" points="108.31 388.6 108.21 395.44 113.98 395.51 113.04 389.1 108.31 388.6"/><polygon class="cls-1" points="119.34 394.73 123.1 395.07 123.44 388.6 117.96 390.35 119.34 394.73"/><polygon class="cls-1" points="116.6 398.39 116.97 402.2 119.91 402.43 119.67 399 116.6 398.39"/><polygon class="cls-1" points="105.65 370.1 109.51 374.51 111.78 368.33 106.06 364.73 105.65 370.1"/><polygon class="cls-1" points="115.14 370.74 119.51 374.38 122.24 370.33 117.76 367.4 115.14 370.74"/><polygon class="cls-1" points="122.89 376.98 125.91 379.24 126.88 376.64 124.35 374.43 122.89 376.98"/><polygon class="cls-1" points="115.94 379.08 118.31 382.28 120.46 379.1 116.92 376.2 115.94 379.08"/><polygon class="cls-1" points="121.92 383.89 125.74 387.56 128.44 383.71 123.84 380.52 121.92 383.89"/><polygon class="cls-1" points="125.36 392.98 127.52 394.78 128.77 392.72 126.41 390.66 125.36 392.98"/><path class="cls-5" d="M231.53,304.76c.9-4.71-1.39-9.24-5.1-12.86S220.8,293,220.8,293s-.3,3.9-.68,6.07-4,6.61-10.54,12.41-6.61,9.78-6.69,14.4,6.67,10.58,16.66,12.5c14.46,2.77,14.58-15.08,14.07-18.88S230.64,309.47,231.53,304.76Z"/><polygon class="cls-1" points="226.9 283.77 224.84 282.71 221.26 288.62 223.03 296.42 227.14 296.24 224.85 289.81 226.9 283.77"/><path class="cls-2" d="M21.39,408.63a128.66,128.66,0,0,0-10.55,9.91s7.81,2.85,13.55,2.42,17.2-3.33,17.2-3.33,12-7.13,14.68-10.11a11.36,11.36,0,0,1,6.49-3.38L58,401.33s-13.27-.3-17,.31S25.46,405.49,21.39,408.63Z"/><g id="Layer_38-4" data-name="Layer 38"><path class="cls-1" d="M542.08,751.37l4.5,21.4L548.75,753s-15-25.19-26.34-37.51c-9.58-10.46-8.5-38.6-8.5-38.6s28.94,15.6,31.64,18.93,25.62,51.53,25.62,51.53-8.51-45.95-6.52-53.31c4.8-17.66,25-36.69,25-36.69s10.1,52.48,9.17,65.51c-1.47,20.39-15.75,53.54-22.68,70.39-1.46,3.58-3.94,4.93-8.64,5.37l-18.78,2.16c-6.51.59-6.51.59-13.61-5.64l-2.72-18c-2.79-7.24-4-11.31-8.28-17.3-8.74-12.12-21.09-20-25.2-23.87-26.27-24.77-14.29-39.7-14.29-39.7C535.46,732.41,542.08,751.37,542.08,751.37Z"/><path class="cls-1" d="M600.94,754c3-4,11-18.7,13.47-22.89S625,709.75,625,709.75s2,16.62,1.67,24.11-4.12,30.55-9,35.74-11.55,15.69-17.12,17.24-27.11,11.84-30.68,6.76l16.79-20.43Z"/><path class="cls-1" d="M546.12,799.52c-14.77,2.79-26.67-10.64-32.64-12.86S487.24,753,487.24,753s17.85,4.35,28.31,7.53C520.66,762,546.12,799.52,546.12,799.52Z"/></g><polygon class="cls-6" points="459.93 540.23 452.32 537.27 370.63 534.91 382.39 537.27 459.93 540.23"/><polygon class="cls-2" points="102.75 598.83 111.77 634.93 115.64 665.88 116.93 680.06 131.82 689.56 126.84 633.77 116.35 606.85 102.75 598.83"/><path class="cls-1" d="M244,781.28s6.15,8.39,15.88,8.39,30.54-8.39,30.54-8.39V517.59l-12.12,3A54.51,54.51,0,0,1,261,522.1l-11.36-.84Z"/><polygon class="cls-1" points="116.35 606.85 126.84 633.77 129.38 662.18 131.82 689.56 426.55 589.03 459.93 540.23 382.39 537.27 116.35 606.85"/><path class="cls-6" d="M249.68,521.26A14,14,0,0,1,253,515c2.58-2.58,19.34-3.87,23.21-3.87a30.75,30.75,0,0,1,11.6,2.58,4.58,4.58,0,0,1,2.58,3.87s-14.18,5.16-18.05,5.16-11.13,1.29-15.24,0A34.44,34.44,0,0,0,249.68,521.26Z"/><path class="cls-7" d="M149.22,638c-1-15.42,11.18-31.58,27.12-36.09S206,606.23,207,621.66s-11.16,31.55-27.08,36.07-29.67-4.29-30.66-19.71v0Zm28.89,1.54a30.27,30.27,0,0,1-6.71,1.31,3.94,3.94,0,0,1-3.83-1.79q-1.11-1.9-1.38-6.47a43.25,43.25,0,0,1,0-4.83c.09-1.59.2-2.9.32-4l.13-1a.21.21,0,0,0,0-.08.45.45,0,0,0-.52-.43l-3.76.49-.08,0a.78.78,0,0,0-.54.6c-.05.25-.08.43-.15,1-.15,1.12-.28,2.21-.4,3.78a47.77,47.77,0,0,0-.11,5.06,26.24,26.24,0,0,0,.22,3.46,14,14,0,0,0,2.1,6.86,6.57,6.57,0,0,0,5.31,2.51,32.65,32.65,0,0,0,10-1.65l.53-.15a37.56,37.56,0,0,0,9.87-4,11.93,11.93,0,0,0,4.81-5.38,18.51,18.51,0,0,0,1.16-7.78,23.21,23.21,0,0,0-.22-3.46,42.07,42.07,0,0,0-.73-4.82c-.32-1.43-.58-2.4-.86-3.43-.15-.51-.19-.67-.27-.89a.46.46,0,0,0-.6-.27l-.1,0-3.68,1.62a.75.75,0,0,0-.46.7.28.28,0,0,0,0,.09l.26.93q.38,1.43.81,3.63a39.56,39.56,0,0,1,.6,4.66,18.08,18.08,0,0,1-.52,7,7,7,0,0,1-3.43,3.87,33.7,33.7,0,0,1-6.63,2.47Z"/><path class="cls-8" d="M377.83,577.79c-.42-6.7,1.26-12,9.25-14.24s10.28,1.87,10.71,8.57-1.23,12-9.23,14.24S378.26,584.49,377.83,577.79Zm14.9-4.23c-.29-4.66-1.09-7.13-5.37-5.92s-4.73,4.05-4.44,8.7,1.09,7.14,5.38,5.92S393,578.2,392.73,573.56Z"/><path class="cls-8" d="M240.06,627.62a.52.52,0,0,0,.6.17l1.87-.54a.86.86,0,0,0,.63-.83h0L241.86,606a.52.52,0,0,0-.69-.49h0l-3.74,1.06a.88.88,0,0,0-.63.84l1,16.27a13.21,13.21,0,0,1-5.13,2.74c-2.39.68-3.62,0-3.76-2.21L228,609.88a.53.53,0,0,0-.7-.49h0l-3.74,1.06a.86.86,0,0,0-.58.85h0L223.9,626c.27,4.19,2.47,6.36,8.19,4.74a17,17,0,0,0,7.14-4.34l.75,1.25Z"/><path class="cls-8" d="M281.09,600.67c-.26-4.14-2.55-6.32-7.92-4.8a16.72,16.72,0,0,0-7.06,4.21c-1-1.08-2.89-1.39-5.91-.53a15.57,15.57,0,0,0-6.61,4.18l-.74-1.26h0a.59.59,0,0,0-.62-.15l-1.87.53a.88.88,0,0,0-.63.84h0L251,624.15a.51.51,0,0,0,.71.45h0l3.74-1.06a.86.86,0,0,0,.58-.82l-1-16.2a11.76,11.76,0,0,1,4.67-2.64c2-.57,3.24-.19,3.37,1.88l.94,14.72a.52.52,0,0,0,.71.46l3.74-1.06a.88.88,0,0,0,.63-.84l-1-16.21a11.36,11.36,0,0,1,4.63-2.63c2-.56,3.25-.19,3.38,1.88l.94,14.71a.52.52,0,0,0,.71.46l3.74-1.06a.86.86,0,0,0,.63-.83h0Z"/><path class="cls-8" d="M293.47,611a11.17,11.17,0,0,0,7.44.19c6.58-1.87,8.72-6.82,8.27-14s-3.15-10.72-9.73-8.85a15,15,0,0,0-5.92,3.41l-.42-6.58a.51.51,0,0,0-.69-.47h0l-3.74,1.06a.86.86,0,0,0-.58.82l1.69,26.54a.52.52,0,0,0,.71.46l1.87-.53a.82.82,0,0,0,.56-.5h0Zm6-3.62a9.15,9.15,0,0,1-4.94.12l-.76-12a12.39,12.39,0,0,1,4.77-2.67c4.44-1.26,5.27,1.85,5.53,5.86s-.16,7.44-4.59,8.7Z"/><path class="cls-8" d="M327.37,584.86a12.3,12.3,0,0,0-1.76.38,14.14,14.14,0,0,0-5.71,3l1,16.16a.86.86,0,0,1-.58.82l-3.74,1.06a.52.52,0,0,1-.72-.45h0l-1.3-20.47a.87.87,0,0,1,.6-.86h0l1.87-.53a.56.56,0,0,1,.61.16h0l.75,1.29a15.06,15.06,0,0,1,7-4.28,10.08,10.08,0,0,1,1.77-.35h0c.35-.1.66.36.68.71l.17,2.6a.87.87,0,0,1-.62.84h0l-.1,0"/><path class="cls-8" d="M340.78,589.14c-2.22.9-3.5,2.09-3.35,4.37.1,1.65.95,3,3.66,2.24a10.84,10.84,0,0,0,4.73-2.79l-.36-5.66Zm6.48,6.63a14.36,14.36,0,0,1-6.65,4.19c-5.8,1.65-8-1.28-8.2-4.76-.3-4.71,2.72-7.61,7.79-9.44l5-1.82-.07-1.09c-.14-2.21-1.28-2.78-4.61-1.84a23.61,23.61,0,0,0-6.08,2.74l-.21.06a.52.52,0,0,1-.69-.47l-.18-2.87a.86.86,0,0,1,.4-.73h0a26.4,26.4,0,0,1,6.87-3.06c7.39-2.09,9.29.55,9.58,5.17l.89,13.9a.88.88,0,0,1-.64.8l-1.87.53a.53.53,0,0,1-.6-.17h0Z"/><path class="cls-8" d="M372.73,585.75a.66.66,0,0,1,.2-.06.52.52,0,0,1,.71.45h0l.19,2.88a.84.84,0,0,1-.38.72h0a20.05,20.05,0,0,1-5.73,2.56c-8,2.26-10.72-1.66-11.15-8.44s1.71-12.1,9.7-14.36a16.33,16.33,0,0,1,5.81-.76h0a.48.48,0,0,1,.45.48l.19,2.88a.88.88,0,0,1-.62.84h0l-.22.06a16.36,16.36,0,0,0-5,.69c-4.37,1.24-5.43,4.48-5.16,8.7s1.7,6.73,6.06,5.5a19.23,19.23,0,0,0,4.95-2.14"/><polygon class="cls-6" points="116.35 606.85 102.75 598.83 370.63 534.91 382.39 537.27 116.35 606.85"/><g id="Layer_38-5" data-name="Layer 38"><path class="cls-2" d="M316.05,717.6c1.51,5.58-4.94,40.43-4.94,40.43s17.37-36.55,19.42-39.08,24-14.35,24-14.35.83,21.33-6.44,29.26c-8.56,9.35-20,28.45-20,28.45l1.65,15,3.41-16.22s5-14.38,43.56-41.84c0,0,9.08,11.32-10.83,30.1-3.12,2.94-12.49,8.91-19.11,18.1-3.28,4.55-4.17,7.63-6.28,13.12l-2.06,13.67c-5.39,4.73-5.39,4.73-10.33,4.27l-14.23-1.63c-3.57-.33-5.45-1.36-6.56-4.07-5.25-12.77-16.08-37.91-17.19-53.38-.71-9.88,6.95-49.67,6.95-49.67S312.41,704.21,316.05,717.6Z"/><path class="cls-2" d="M278.32,745.73c1.9,3.18,7.93,14.29,10.21,17.35s10.82,14.56,10.82,14.56l12.74,15.49c-2.71,3.85-19-4-23.27-5.12s-9.3-9.14-13-13.08-6.55-21.43-6.82-27.1,1.27-18.28,1.27-18.28S276.43,742.55,278.32,745.73Z"/><path class="cls-2" d="M353.28,768c7.93-2.41,21.47-5.71,21.47-5.71s-15.37,23.87-19.9,25.56-13.55,11.87-24.75,9.75C330.1,797.62,349.41,769.19,353.28,768Z"/></g><g id="Layer_38-6" data-name="Layer 38"><path class="cls-2" d="M680.43,777.76c1.19,4.37-3.86,31.63-3.86,31.63s13.59-28.6,15.2-30.57,18.77-11.24,18.77-11.24.64,16.7-5,22.9c-6.7,7.32-15.63,22.26-15.63,22.26l1.29,11.76,2.67-12.69s3.93-11.26,34.08-32.75c0,0,7.1,8.86-8.48,23.56-2.44,2.3-9.77,7-14.95,14.16-2.56,3.56-3.26,6-4.91,10.27L698,837.74c-4.21,3.7-4.21,3.7-8.07,3.35l-11.14-1.28c-2.8-.26-4.26-1.07-5.13-3.19-4.11-10-12.59-29.66-13.46-41.76-.55-7.73,5.45-38.87,5.45-38.87S677.59,767.28,680.43,777.76Z"/><path class="cls-2" d="M650.92,799.77c1.48,2.48,6.2,11.18,8,13.58l8.47,11.39,10,12.12c-2.11,3-14.9-3.09-18.2-4s-7.27-7.15-10.16-10.23-5.12-16.77-5.33-21.21,1-14.3,1-14.3S649.43,797.28,650.92,799.77Z"/><path class="cls-2" d="M709.57,817.21c6.21-1.89,16.8-4.47,16.8-4.47s-12,18.68-15.57,20-10.61,9.29-19.37,7.63C691.43,840.37,706.54,818.13,709.57,817.21Z"/></g><polygon class="cls-3" points="1228.59 277.61 1242.24 274.42 1265.59 274.42 1254.39 277.61 1228.59 277.61"/><line class="cls-9" x1="1254.39" y1="277.61" x2="1252.77" y2="236.44"/><line class="cls-9" x1="1231.37" y1="277.97" x2="1233.26" y2="236.35"/><line class="cls-9" x1="1260.41" y1="234.72" x2="1263.81" y2="276.02"/><path class="cls-2" d="M1213.15,95.51a43.44,43.44,0,0,0-6.86,2.84c-23.13,11.47-39.83,36.12-34.9,59,5.23,24.32,8.37,31.64,16,45.84,7.24,13.5,43.26,50.48,43.26,50.48h33.55s45.88-44.66,52.12-58.25,15-39.29,10.4-56.31-13.52-39.62-33.28-44.65C1255.19,84.76,1222.76,92.66,1213.15,95.51Z"/><polygon class="cls-2" points="1228.59 277.61 1228.59 298.04 1257.42 298.04 1254.39 277.61 1228.59 277.61"/><polygon class="cls-3" points="1257.42 298.04 1265.59 291.68 1265.59 274.42 1254.39 277.61 1257.42 298.04"/><path class="cls-2" d="M1316.13,195.38c6.26-13.59,15-39.29,10.44-56.31S1313,99.43,1293.16,94.4l-1.3-.32c-37.39-4.31-61.29,159.52-61.3,159.56h33.24S1309.86,209,1316.13,195.38Z"/><path class="cls-3" d="M1329.69,139.27c-4.15-16.79-16.24-39.84-36.08-44.87a13,13,0,0,0-3.12-.4,13,13,0,0,1,3.12.4c19.84,5,31.93,28.08,36.08,44.87,4.23,17.11-6.55,42.66-13.12,56.11-10.76,22.07-52.32,58.26-52.32,58.26h0s41.55-36.19,52.32-58.26C1323.14,181.93,1333.92,156.38,1329.69,139.27Z"/><path class="cls-3" d="M1316.57,195.38c6.57-13.45,17.35-39,13.12-56.11-4.15-16.79-16.24-39.84-36.08-44.87a13,13,0,0,0-3.12-.4c-36.61-.22-59.93,159.64-59.93,159.64h33.69S1305.81,217.45,1316.57,195.38Z"/><path class="cls-10" d="M1237.55,172a11.06,11.06,0,0,1-6.5-5.24A22.18,22.18,0,0,1,1229,157a35.3,35.3,0,0,1,0-4.6,65.66,65.66,0,0,1,.54-6.56c.28-2,.53-3.37.81-4.78.14-.73.19-1,.27-1.27a.75.75,0,0,1,.73-.58h.17l4.77.75a.74.74,0,0,1,.62.74v.11l-.26,1.31c-.24,1.32-.48,3-.71,5a57.23,57.23,0,0,0-.4,6.28c0,4,.38,7,1.22,8.92a6.52,6.52,0,0,0,4.67,3.75,36.17,36.17,0,0,0,7.25.79c4.69-17.06,10.2-33.7,16.44-46.76a37.05,37.05,0,0,0-51.42,34.09h0a37.07,37.07,0,0,0,29,36.21c1.29-5.58,2.69-11.28,4.17-17A33.47,33.47,0,0,1,1237.55,172Z"/><path class="cls-8" d="M1287.73,154.3a37.05,37.05,0,0,0-22.66-34.18c-6.24,13.06-11.75,29.7-16.44,46.76h2.81a36,36,0,0,0,8.54-.78,6.51,6.51,0,0,0,4.63-3.76c.86-1.93,1.26-4.9,1.22-8.91a57.55,57.55,0,0,0-.38-6.29c-.25-2-.49-3.7-.73-5l-.26-1.31v-.11a.74.74,0,0,1,.63-.74l4.77-.75h.18a.75.75,0,0,1,.73.58c.09.31.13.54.28,1.27.27,1.43.52,2.8.8,4.78a60.22,60.22,0,0,1,.54,6.56,32.1,32.1,0,0,1,0,4.6,22.25,22.25,0,0,1-2.09,9.72,11.15,11.15,0,0,1-6.51,5.24q-4.57,1.61-12.77,1.56h-.69c-1.21,0-2.36,0-3.46-.06-1.48,5.69-2.88,11.39-4.17,17a37,37,0,0,0,45-36.12Z"/><path class="cls-8" d="M1287.78,201.52c-3.86,0-4.81,2.34-4.81,5.68s1,5.68,4.81,5.68,4.81-2.34,4.81-5.68S1291.64,201.52,1287.78,201.52Zm0,9.33c-2,0-2.35-1.33-2.35-3.65s.3-3.65,2.35-3.65,2.36,1.33,2.36,3.65S1289.84,210.85,1287.78,210.85Z"/><path class="cls-10" d="M1216.33,212.48a.32.32,0,0,0,.28.17h.9a.32.32,0,0,0,.33-.32h0V202.14a.32.32,0,0,0-.33-.32h-1.93a.32.32,0,0,0-.32.32v8.09a4.8,4.8,0,0,1-2.48.63c-1.14,0-1.7-.49-1.7-1.6v-7.12a.32.32,0,0,0-.32-.32H1209a.32.32,0,0,0-.32.32v7.32c0,2.08,1,3.45,3.73,3.45a6.32,6.32,0,0,0,3.52-1.13l.32.72Z"/><path class="cls-10" d="M1234.13,205v7.31s.09.32.27.35h1.79a.32.32,0,0,0,.3-.35V205c0-2.06-1-3.44-3.58-3.44a6.15,6.15,0,0,0-3.47,1.07,3.09,3.09,0,0,0-2.77-1.07,5.62,5.62,0,0,0-3.28,1.12l-.31-.71a.82.82,0,0,0-.28-.22h-.89a.32.32,0,0,0-.32.32v10.19a.32.32,0,0,0,.32.32h1.78s.32-.09.26-.26v-8.07a4.72,4.72,0,0,1,2.33-.63c1,0,1.54.36,1.53,1.39v7.33c0,.18.33.35.33.35H1230a.32.32,0,0,0,.32-.32v-8.1a4.34,4.34,0,0,1,2.31-.63C1233.54,203.6,1234.13,204,1234.13,205Z"/><path class="cls-10" d="M1240.57,198.82a.32.32,0,0,0-.33.32v2.21c.19-.84.37-1.69.56-2.53Z"/><path class="cls-8" d="M1240.57,212.65h.91a.3.3,0,0,0,.28-.17l.34-.7a5.89,5.89,0,0,0,3.55,1.13c3.21,0,4.39-2.12,4.39-5.68s-1.19-5.67-4.39-5.67a5.65,5.65,0,0,0-2.94.85v-3.27a.32.32,0,0,0-.32-.32h-1.59c-.19.84-.37,1.69-.56,2.53v11A.32.32,0,0,0,1240.57,212.65Zm2-8.44a4.58,4.58,0,0,1,2.34-.62c2.13,0,2.45,1.62,2.45,3.62s-.32,3.62-2.44,3.62h0a4.69,4.69,0,0,1-2.34-.63Z"/><path class="cls-8" d="M1258.93,201.54a5,5,0,0,0-.86-.08,5.52,5.52,0,0,0-3.45,1.15l-.32-.73a.33.33,0,0,0-.28-.17h-.91a.32.32,0,0,0-.32.32v10.3a.32.32,0,0,0,.32.32h1.82a.32.32,0,0,0,.33-.32v-8.08a5.23,5.23,0,0,1,2.77-.65,6.06,6.06,0,0,1,.85.05h0a.32.32,0,0,0,.32-.32V202C1259.22,201.81,1259.09,201.54,1258.93,201.54Z"/><path class="cls-8" d="M1265.35,201.55a10.25,10.25,0,0,0-3.34.54.3.3,0,0,0-.21.3v1.44a.32.32,0,0,0,.32.32h.1a9.29,9.29,0,0,1,3-.49c1.63,0,2.15.43,2.15,1.54v.53l-2.46.2c-2.48.19-4,1.19-4,3.53,0,1.74.94,3.47,3.78,3.47a5.34,5.34,0,0,0,3.31-1.12l.33.67a.3.3,0,0,0,.28.17h.82a.32.32,0,0,0,.32-.32v-6.92C1269.73,203.11,1268.91,201.55,1265.35,201.55Zm2,8.62a4.08,4.08,0,0,1-2.32.72,1.47,1.47,0,0,1-1.67-1.61c0-1.14.65-1.54,1.72-1.67l2.27-.25Z"/><path class="cls-8" d="M1280.52,202a7.92,7.92,0,0,0-2.77-.44c-3.85,0-5,2.3-5,5.69s1.19,5.68,5,5.68a7.77,7.77,0,0,0,2.78-.46.46.46,0,0,0,.24-.29v-1.44a.38.38,0,0,0-.36-.32h-.12a7.57,7.57,0,0,1-2.41.36c-2.11,0-2.72-1.44-2.72-3.54s.61-3.54,2.72-3.54a7.3,7.3,0,0,1,2.41.36h.11a.41.41,0,0,0,.37-.32v-1.45A.5.5,0,0,0,1280.52,202Z"/><polygon class="cls-3" points="1360.97 351.59 1368.72 349.78 1381.98 349.78 1375.62 351.59 1360.97 351.59"/><line class="cls-11" x1="1375.62" y1="351.59" x2="1374.7" y2="328.22"/><line class="cls-11" x1="1362.55" y1="351.8" x2="1363.62" y2="328.17"/><line class="cls-11" x1="1379.04" y1="327.24" x2="1380.96" y2="350.69"/><path class="cls-2" d="M1352.21,248.22a24.66,24.66,0,0,0-3.9,1.62c-13.13,6.5-22.6,20.5-19.8,33.51,3,13.8,4.75,18,9.07,26,4.11,7.66,24.56,28.65,24.56,28.65h19s26-25.35,29.59-33.06,8.5-22.3,5.9-32-7.67-22.5-18.89-25.35A89.08,89.08,0,0,0,1352.21,248.22Z"/><polygon class="cls-2" points="1360.97 351.59 1360.97 363.19 1377.34 363.19 1375.62 351.59 1360.97 351.59"/><polygon class="cls-3" points="1377.34 363.19 1381.98 359.58 1381.98 349.78 1375.62 351.59 1377.34 363.19"/><path class="cls-2" d="M1410.67,304.92c3.55-7.72,8.53-22.31,5.92-32s-7.7-22.5-19-25.36l-.74-.18C1375.66,245,1362.1,338,1362.09,338H1381S1407.11,312.63,1410.67,304.92Z"/><path class="cls-3" d="M1418.36,273.06c-2.35-9.53-9.22-22.61-20.48-25.47a7.75,7.75,0,0,0-1.77-.23,7.75,7.75,0,0,1,1.77.23c11.26,2.86,18.13,15.94,20.48,25.47,2.4,9.72-3.72,24.22-7.44,31.86-6.11,12.52-29.71,33.07-29.71,33.07h0s23.6-20.55,29.71-33.07C1414.64,297.28,1420.76,282.78,1418.36,273.06Z"/><path class="cls-3" d="M1410.92,304.92c3.72-7.64,9.84-22.14,7.44-31.86-2.35-9.53-9.22-22.61-20.48-25.47a7.75,7.75,0,0,0-1.77-.23c-20.78-.12-34,90.63-34,90.63h19.12S1404.81,317.44,1410.92,304.92Z"/><path class="cls-10" d="M1366.06,291.61a6.25,6.25,0,0,1-3.69-3,12.66,12.66,0,0,1-1.19-5.52,18.94,18.94,0,0,1,0-2.61,35.65,35.65,0,0,1,.31-3.72c.15-1.14.3-1.92.45-2.72.08-.41.11-.54.16-.72a.42.42,0,0,1,.41-.33h.1l2.7.43a.42.42,0,0,1,.36.42v.06l-.15.75c-.13.75-.27,1.7-.4,2.85a32.58,32.58,0,0,0-.23,3.57,13.42,13.42,0,0,0,.69,5.06,3.72,3.72,0,0,0,2.65,2.13,21.21,21.21,0,0,0,4.12.45c2.66-9.69,5.79-19.14,9.33-26.55a21,21,0,0,0-29.18,19.36h0A21,21,0,0,0,1369,302.1c.74-3.17,1.53-6.4,2.37-9.64A18.83,18.83,0,0,1,1366.06,291.61Z"/><path class="cls-8" d="M1394.54,281.6a21,21,0,0,0-12.86-19.41c-3.54,7.41-6.67,16.86-9.33,26.55h1.6a20.86,20.86,0,0,0,4.85-.44,3.72,3.72,0,0,0,2.62-2.13,12.89,12.89,0,0,0,.7-5.07,35.25,35.25,0,0,0-.22-3.56q-.21-1.72-.42-2.85l-.14-.75a.06.06,0,0,1,0-.06.4.4,0,0,1,.35-.42l2.71-.43h.1a.44.44,0,0,1,.42.33c0,.18.07.31.16.72.15.82.29,1.59.45,2.72a35.65,35.65,0,0,1,.31,3.72,19,19,0,0,1,0,2.61,12.7,12.7,0,0,1-1.19,5.52,6.28,6.28,0,0,1-3.69,3,22.52,22.52,0,0,1-7.26.89h-.39c-.68,0-1.34,0-2,0-.84,3.24-1.63,6.47-2.37,9.64a21,21,0,0,0,25.56-20.5Z"/><path class="cls-8" d="M1394.57,308.4c-2.19,0-2.73,1.33-2.73,3.22s.55,3.23,2.73,3.23,2.74-1.33,2.74-3.23S1396.77,308.4,1394.57,308.4Zm0,5.29c-1.17,0-1.34-.75-1.34-2.07s.17-2.07,1.34-2.07,1.33.76,1.33,2.07S1395.74,313.69,1394.58,313.69Z"/><path class="cls-10" d="M1354,314.62a.18.18,0,0,0,.16.1h.51a.18.18,0,0,0,.18-.19h0v-5.78a.18.18,0,0,0-.18-.18h-1.1a.18.18,0,0,0-.18.18v4.59a2.7,2.7,0,0,1-1.41.36c-.65,0-1-.28-1-.91v-4a.18.18,0,0,0-.18-.18h-1a.18.18,0,0,0-.18.18v4.16c0,1.18.55,1.95,2.11,1.95a3.5,3.5,0,0,0,2-.64l.18.41Z"/><path class="cls-10" d="M1364.12,310.37v4.15s.05.18.15.2h1a.19.19,0,0,0,.17-.2v-4.17a1.77,1.77,0,0,0-2-2,3.45,3.45,0,0,0-2,.61,1.77,1.77,0,0,0-1.58-.61,3.15,3.15,0,0,0-1.86.64l-.18-.41a.42.42,0,0,0-.15-.12h-.51a.18.18,0,0,0-.18.18v5.78a.19.19,0,0,0,.18.19h1s.18-.05.15-.16v-4.58a2.75,2.75,0,0,1,1.32-.35c.56,0,.88.2.87.79v4.16c0,.1.19.2.19.2h1a.19.19,0,0,0,.18-.19v-4.59a2.42,2.42,0,0,1,1.31-.36C1363.78,309.58,1364.12,309.78,1364.12,310.37Z"/><path class="cls-10" d="M1367.77,306.87a.18.18,0,0,0-.18.18v1.25c.1-.48.21-.95.31-1.43Z"/><path class="cls-8" d="M1367.77,314.72h.52a.18.18,0,0,0,.16-.1l.19-.39a3.32,3.32,0,0,0,2,.63c1.82,0,2.49-1.2,2.49-3.22s-.67-3.22-2.49-3.22a3.19,3.19,0,0,0-1.67.49v-1.86a.18.18,0,0,0-.18-.18h-.91c-.1.48-.21.95-.31,1.43v6.23A.19.19,0,0,0,1367.77,314.72Zm1.16-4.79a2.58,2.58,0,0,1,1.33-.36c1.2,0,1.39.92,1.39,2.06s-.19,2.05-1.39,2.05h0a2.67,2.67,0,0,1-1.33-.35Z"/><path class="cls-8" d="M1378.19,308.41a2.59,2.59,0,0,0-.48,0,3,3,0,0,0-2,.65l-.18-.42a.19.19,0,0,0-.16-.09h-.52a.18.18,0,0,0-.18.18v5.84a.19.19,0,0,0,.18.19h1a.19.19,0,0,0,.18-.19V310a3,3,0,0,1,1.58-.37,3.87,3.87,0,0,1,.48,0h0a.18.18,0,0,0,.18-.18v-.76C1378.36,308.56,1378.29,308.41,1378.19,308.41Z"/><path class="cls-8" d="M1381.84,308.42a5.85,5.85,0,0,0-1.9.3.19.19,0,0,0-.12.17v.82a.19.19,0,0,0,.19.18h.06a5.41,5.41,0,0,1,1.7-.28c.92,0,1.22.25,1.22.88v.3l-1.4.11c-1.41.11-2.28.68-2.28,2a1.88,1.88,0,0,0,2.14,2,3,3,0,0,0,1.88-.64l.19.38a.18.18,0,0,0,.16.1h.46a.19.19,0,0,0,.19-.19v-3.92C1384.33,309.3,1383.86,308.42,1381.84,308.42Zm1.15,4.89a2.31,2.31,0,0,1-1.32.41.84.84,0,0,1-1-.92c0-.64.37-.87,1-.94l1.29-.15Z"/><path class="cls-8" d="M1390.45,308.66a4.2,4.2,0,0,0-1.57-.25c-2.19,0-2.85,1.3-2.85,3.22s.67,3.23,2.85,3.23a4.48,4.48,0,0,0,1.58-.26.3.3,0,0,0,.14-.17v-.82a.23.23,0,0,0-.21-.18h-.07a4.21,4.21,0,0,1-1.37.2c-1.19,0-1.54-.81-1.54-2s.35-2,1.54-2a4.51,4.51,0,0,1,1.37.21h.06a.24.24,0,0,0,.22-.18v-.82A.26.26,0,0,0,1390.45,308.66Z"/></g></g></svg>