<svg xmlns="http://www.w3.org/2000/svg" viewBox="0 0 512 512"><path d="M471.68 400.535c-.098-3.891-2.715-8.992-5.821-11.364 0 0-25.409-19.57-45.324-27.973-21.843-9.22-61.413-26.1-61.413-26.1-3.564-1.536-9.321-3.526-12.721-4.462-1.83-.493-5.823-2.072-9.517-3.877-29.957 11.514-59.093 15.422-84.666 15.422-37.313-.029-67.104-8.188-81.624-13.112-3.89 1.094-15.041 4.562-18.474 6.029 0 0-39.54 16.88-61.415 26.1-19.882 8.402-45.325 27.973-45.325 27.973-3.071 2.372-5.723 7.474-5.821 11.364l-.622 52.096c-.096 3.89 3.043 7.047 6.935 7.047H465.4c3.856 0 6.964-3.157 6.934-7.047l-.654-52.096zM167.816 195.236s1.108 34.369 12.62 41.566c1.079.689 2.979 9.027 2.879 8.451 1.145 11.886 9.059 22.318 9.059 22.318.359 3.893-.948 9.779-2.877 13.178l-9.747 16.907a10.458 10.458 0 0 0-9.581 6.349c-2.353 5.328.099 11.537 5.428 13.894.852.312 33.488 14.507 79.433 14.538h.066c24.724 0 53.337-4.188 82.507-17.09 5.364-2.354 7.749-8.615 5.396-13.945-1.861-4.172-6.08-6.521-10.398-6.227-4.611-7.426-10.563-15.127-10.563-15.127-2.353-3.055-3.236-8.555-1.961-12.247l8.666-24.724c1.273-3.66 2.451-7.162 2.519-7.701.096-.57.882-1.616 1.697-2.305l.592-.814c3.138-4.418 5.231-12.117 6.213-17.516 1.47-7.947.981-20.061.981-20.061-.133-3.892.325-10.203 1.078-14.033l2.551-13.337c.751-3.793.884-10.075.325-13.9l-10.233-50.44c-.295-1.917-9.551-52.029-81.329-52.029-71.78 0-83.455 50.112-83.652 52.076l-7.52 65.93c-.326 3.855.783 9.774 2.484 13.143 1.699 3.355 3.2 9.269 3.367 13.146zm130.216-30.166c11.643 0 21.126 9.484 21.126 21.157 0 11.69-9.483 21.139-21.126 21.139-11.708 0-35.09-9.448-35.09-21.139 0-11.672 23.382-21.157 35.09-21.157zm-44.046 68.691c7.423 0 13.439 4.608 13.439 10.333 0 5.721-6.017 10.332-13.439 10.332-7.394 0-13.41-4.611-13.41-10.332 0-5.725 6.017-10.333 13.41-10.333zm-45.72-68.691c11.643 0 35.027 9.484 35.027 21.157 0 11.69-23.385 21.139-35.027 21.139-11.705 0-21.188-9.448-21.188-21.139 0-11.672 9.483-21.157 21.188-21.157z"/></svg>