<svg xmlns="http://www.w3.org/2000/svg" viewBox="0 0 512 512"><path d="M255.176 33.044c-122.418 0-222.014 99.596-222.014 222.017 0 122.417 99.596 222.014 222.014 222.014 122.421 0 222.02-99.597 222.02-222.014-.001-122.421-99.599-222.017-222.02-222.017zm0 25.043c108.787 0 196.982 88.187 196.982 196.974 0 13.479-1.366 26.636-3.941 39.35-12.725 40.065-50.199 69.1-94.465 69.1-54.748 0-99.137-44.377-99.137-99.123 0-54.744-44.379-99.124-99.126-99.124-47.665 0-87.448 33.651-96.942 78.492C64.41 140.232 150.189 58.087 255.176 58.087z"/></svg>