<svg xmlns="http://www.w3.org/2000/svg" viewBox="0 0 512 512"><path d="M334.191 65.595H173.834c-15.331 0-27.753 12.435-27.753 27.765v325.63c0 15.33 12.422 27.765 27.753 27.765h160.357c15.354 0 27.767-12.435 27.767-27.765V93.359c0-15.33-12.413-27.764-27.767-27.764zM235.885 89.24h36.274v12.048h-36.274V89.24zm18.15 342.938c-9.773 0-17.718-7.916-17.718-17.694 0-9.765 7.944-17.695 17.718-17.695 9.768 0 17.687 7.931 17.687 17.695 0 9.778-7.919 17.694-17.687 17.694zm87.132-46.555H166.881V126.725h174.286v258.898z"/></svg>