<svg xmlns="http://www.w3.org/2000/svg" viewBox="0 0 512 512"><path d="M270.508 338.006c-27.316.03-54.696-10.671-75.323-31.318l-3.266-3.266 46.784-46.799 3.271 3.267c8.054 8.036 18.233 11.915 28.533 11.942 10.79-.043 21.088-3.93 29.123-11.942l76.701-76.701c8.024-8.05 11.909-18.306 11.945-28.895-.036-10.495-3.915-20.722-11.936-28.769l-3.268-3.266c-8.049-8.025-18.283-11.903-28.827-11.943-10.55.04-20.785 3.918-28.835 11.943l-31.537 31.543c-12.916 12.922-33.867 12.922-46.788 0-12.924-12.919-12.924-33.867-.005-46.789l31.542-31.544c20.794-20.821 48.361-31.36 75.623-31.327 27.256-.034 54.82 10.505 75.618 31.327l3.266 3.263a106.693 106.693 0 0 1 31.319 75.561c.038 27.25-10.474 54.848-31.325 75.684l-76.704 76.7c-20.915 20.941-48.588 31.328-75.743 31.328l-.168.001zM163.966 468.393c-27.308.027-54.694-10.67-75.322-31.324l-3.264-3.26c-20.875-20.854-31.364-48.479-31.326-75.725-.033-27.27 10.556-54.782 31.326-75.518l76.704-76.707c20.794-20.821 48.361-31.366 75.623-31.327a106.798 106.798 0 0 1 61.267 19.273 33.045 33.045 0 0 1 8.42 6.119l5.931 5.93 3.266 3.263h-.001l.001.003-46.781 46.798-.005-.006-3.266-3.266c-8.052-8.024-18.285-11.903-28.832-11.943-10.545.04-20.781 3.918-28.832 11.943l-76.711 76.712c-8.021 8.048-11.901 18.261-11.935 28.726.038 10.627 3.922 20.886 11.938 28.932l3.269 3.26c8.055 8.038 18.235 11.913 28.531 11.941 10.794-.043 21.092-3.928 29.13-11.941l33.051-33.051c12.923-12.915 33.872-12.915 46.788.006 12.921 12.917 12.921 33.863 0 46.787l-33.053 33.051c-20.914 20.938-48.592 31.324-75.745 31.324h-.172z"/></svg>