<svg xmlns="http://www.w3.org/2000/svg" viewBox="0 0 512 512"><path d="M260.094 173.309c22.761 0 41.236-18.463 41.236-41.238 0-22.764-41.236-92.594-41.236-92.594s-41.236 69.83-41.236 92.594c-.001 22.775 18.442 41.238 41.236 41.238zm-28.188 45.095c10.398-10.4 10.398-27.257 0-37.674-10.399-10.383-61.122-23.465-61.122-23.465s13.082 50.738 23.481 61.139c10.401 10.365 27.241 10.365 37.641 0zm56.182 0c10.398 10.364 27.271 10.364 37.672 0 10.398-10.4 23.446-61.139 23.446-61.139s-50.72 13.082-61.118 23.465c-10.401 10.417-10.401 27.274 0 37.674zm-16.092 63.932v-95.984h-24.918v95.984h-104.71v62.442H369.12v-62.442h-97.124zm-87.673 190.127h142.875l24.917-106.312H159.372l24.951 106.312z"/></svg>