<svg xmlns="http://www.w3.org/2000/svg" viewBox="0 0 512 512"><path d="M357.312 428.658V384.22H170.144v44.438H143.56v46.436h240.325v-46.436h-26.573zM127.749 157.904c-.133.216.047.18.472-.063-.114-.311-.262-.311-.472.063zm51.143 50.328c13.23-11.429 13.458-12.23 25.916-18.377 4.743-2.324 18.935 3.845 18.935 3.845s21.42 4.463 31.477 4.463c4.365 0 8.223-1.897 11.199-4.041-15.532 15.241-55.494 56.379-68.231 87.902-12.118 30.002-10.659 61.414-9.272 74.758h156.282c-1.816-12.067-2.73-40.896 15.697-88.166 25.163-64.586 23.479-125.801-17.612-179.481-20.256-26.46-47.842-33.746-70.616-34.354-16.223-16.451-48.777-17.957-48.777-17.957l7.227 27.834.605 11.052-28.501 11.738s-10.071 2.521-10.071 11.757c0 8.604-58.846 55.282-64.93 58.636.767 2.34-1.324 22.022-1.324 29.415 0 8.404 8.207 13.115 8.207 13.115l10.091 5.835c0-.001 21.109 12.899 33.698 2.026z"/></svg>