<svg xmlns="http://www.w3.org/2000/svg" viewBox="0 0 512 512"><path d="M157.333 454.494h162.278V56.031H157.333v398.463zm138.314-55.937h-43.354v-43.353h43.354v43.353zm-80.682-64.919v-43.353h43.353v43.353h-43.353zm80.682-64.925h-43.354v-43.347h43.354v43.347zm-80.682-64.918v-43.352h43.353v43.352h-43.353zm37.329-108.272h43.354v43.35h-43.354v-43.35zm-74.659 0h43.351v43.35h-43.351v-43.35zm0 129.843h43.351v43.347h-43.351v-43.347zm0 129.838h43.351v43.353h-43.351v-43.353zm-140.419 99.29h97.289V182.011H37.216v272.483zm26.972-251.092h43.348v43.353H64.188v-43.353zm0 77.073h43.348v43.351H64.188v-43.351zm0 74.056h43.348v43.354H64.188v-43.354zM454.4 220.403v-51.786h-23.607v-50.529h-16.941V71.089h-14.238v46.999h-16.94v50.529H359.07v51.786h-19.218v234.091H473.62V220.403H454.4zm-49.058 204.322H361.99v-43.349h43.352v43.349zm0-132.922H361.99v-43.352h43.352v43.352zm50.888 65.914h-43.35v-43.352h43.351v43.352z"/></svg>