<svg xmlns="http://www.w3.org/2000/svg" viewBox="0 0 512 512"><path d="M402.109 295.102c5.184-15.395 25.376-46.526 25.376-99.526 0-52.996-65.503-131.134-171.113-131.134-105.626 0-171.077 78.138-171.077 131.134 0 53 20.16 84.131 25.329 99.526 10.511 31.41-2.062 46.77-2.062 46.77s3.763 32.367 14.063 46.652c10.316 14.275 60.727-9.527 60.727 44.393 0 0 20.257 14.47 73.496 14.47 53.207 0 72.564-14.47 72.564-14.47 0-53.92 50.41-30.117 60.728-44.393 10.317-14.285 14.062-46.652 14.062-46.652s-12.591-15.36-2.093-46.77zm-197.373 40.71c-11.249 6.101-29.643 11.096-40.894 11.096-11.264 0-22.921-7.336-25.932-16.275-3.023-8.947-3.843-25.28-1.864-36.308 1.98-10.995 15.648-23.986 30.413-28.86 14.75-4.881 33.83-3.84 42.43 2.281 8.568 6.146 15.73 21.494 15.94 34.083.2 12.591-8.844 27.896-20.093 33.983zm51.621 54.427c-18.477 0-22.779-6.829-22.779-6.829s1.882-54.673 22.779-54.673c20.896 0 22.81 54.673 22.81 54.673s-4.334 6.829-22.81 6.829zm118.48-59.606c-2.993 8.939-14.667 16.275-25.917 16.275-11.266 0-29.66-4.995-40.911-11.096-11.248-6.088-20.29-21.393-20.079-33.983.213-12.589 7.376-27.937 15.943-34.083 8.584-6.121 27.664-7.162 42.413-2.281 14.766 4.874 28.45 17.865 30.431 28.86 1.976 11.028 1.143 27.361-1.88 36.308z"/></svg>