<svg xmlns="http://www.w3.org/2000/svg" viewBox="0 0 512 512"><path d="M254.501 38.16c-120.308 0-217.838 97.53-217.838 217.838 0 120.31 97.53 217.838 217.838 217.838 120.31 0 217.838-97.528 217.838-217.838 0-120.308-97.528-217.838-217.838-217.838zm151.667 217.838c0 29.861-8.711 57.708-23.671 81.209L173.293 128.002c23.499-14.961 51.345-23.67 81.208-23.67 83.629.001 151.667 68.037 151.667 151.666zm-303.332 0c0-29.859 8.71-57.707 23.67-81.204l209.201 209.201c-23.498 14.96-51.346 23.671-81.206 23.671-83.632 0-151.665-68.04-151.665-151.668z"/></svg>