<svg xmlns="http://www.w3.org/2000/svg" viewBox="0 0 512 512"><path d="M194.166 390.957H78.85v38.906H49.789v32.613H226.42v-32.613h-32.254zm258.881-50.733l-91.314-91.314c-8.502-8.501-20.674-11.069-31.412-7.743l-53.164-53.161 32.635-32.633-59.498-59.5-85.842 85.842 59.498 59.497 32.627-32.626 53.164 53.161c-3.33 10.738-.762 22.913 7.742 31.414l91.314 91.315c6.109 6.107 14.117 9.163 22.125 9.163s16.016-3.056 22.125-9.163c12.219-12.221 12.219-32.032 0-44.252zM141.285 191.2l73.173 73.172-23.188 23.188-73.173-73.173zM282.968 49.52l73.172 73.172-23.187 23.187-73.172-73.173z"/></svg>