<svg xmlns="http://www.w3.org/2000/svg" viewBox="0 0 512 512"><path d="M339.22 135.024c0-24.836-20.111-44.945-44.962-44.962h-84.142c-24.824.017-44.965 20.126-44.965 44.962v15.907H129.57v271.493h256.937V150.932H339.22v-15.908zm-30.641 15.908H195.824v-15.907c0-7.9 6.377-14.304 14.292-14.304h84.142c7.912 0 14.321 6.403 14.321 14.304v15.907zm-271 24.172v223.154c0 13.341 10.824 24.166 24.168 24.166h42.872V150.932H61.747c-13.344 0-24.168 10.811-24.168 24.172zm411.944-24.172h-38.098v271.493h38.098c13.343 0 24.167-10.825 24.167-24.166V175.104c0-13.361-10.824-24.172-24.167-24.172z"/></svg>