<svg xmlns="http://www.w3.org/2000/svg" viewBox="0 0 512 512"><path d="M298.953 291.403c.789 0 1.557.047 2.285.153l25.752 3.641a11.05 11.05 0 0 0 1.543.108c5.371 0 10.227-3.938 11.176-9.347l4.492-25.616c1.039-5.925 6.234-13.076 11.549-15.897l22.977-12.189c5.311-2.821 7.498-9.548 4.855-14.952L372.16 193.94c-2.643-5.405-2.643-14.246 0-19.651l11.422-23.363c2.643-5.405.455-12.13-4.855-14.953l-22.977-12.188c-5.314-2.82-10.51-9.973-11.549-15.897l-4.492-25.615c-.949-5.409-5.807-9.348-11.18-9.348-.508 0-1.021.034-1.539.108l-25.752 3.646c-.729.101-1.492.151-2.281.151-5.668 0-12.611-2.555-16.406-6.225L263.86 52.52c-2.16-2.093-5.01-3.135-7.859-3.135-2.848 0-5.697 1.042-7.859 3.135l-18.695 18.085c-3.795 3.67-10.738 6.225-16.406 6.225-.789 0-1.553-.051-2.281-.151l-25.754-3.646a10.823 10.823 0 0 0-1.539-.108c-5.373 0-10.229 3.938-11.178 9.348l-4.492 25.615c-1.039 5.925-6.236 13.079-11.549 15.897l-22.971 12.188c-5.314 2.818-7.5 9.548-4.857 14.953l11.42 23.363c2.643 5.405 2.643 14.246 0 19.651l-11.42 23.364c-2.643 5.404-.457 12.135 4.857 14.952l22.971 12.189c5.312 2.819 10.51 9.973 11.549 15.897l4.492 25.616c.949 5.412 5.803 9.347 11.174 9.347.51 0 1.025-.035 1.543-.108l25.754-3.641a15.96 15.96 0 0 1 2.287-.153c5.666 0 12.607 2.552 16.4 6.223l18.695 18.085c2.162 2.091 5.012 3.135 7.859 3.135 2.85 0 5.699-1.044 7.859-3.135l18.691-18.085c3.793-3.671 10.732-6.223 16.402-6.223zM256 239.999c-30.812 0-55.791-24.978-55.791-55.789 0-30.814 24.979-55.792 55.791-55.792s55.791 24.978 55.791 55.792c0 30.811-24.979 55.789-55.791 55.789zm-21.031 89.326l-18.502-17.899c-.746-.485-2.426-1.031-3.316-1.077l-25.488 3.605a30.134 30.134 0 0 1-4.201.296c-.303 0-.6-.031-.9-.041l-24.676 148.409 84.637-33.199v-94.783a30.07 30.07 0 0 1-7.554-5.311zm93.564-15.075c-1.4 0-2.814-.1-4.195-.296l-25.494-3.605c-.889.044-2.57.592-3.316 1.077l-18.498 17.902a30.09 30.09 0 0 1-6.441 4.725v95.41l84.635 32.75-25.783-148.004c-.304.007-.603.041-.908.041z"/></svg>