<svg xmlns="http://www.w3.org/2000/svg" viewBox="0 0 512 512"><path d="M418.096 172.056c-8.127-8.122-11.791-18.993-11.074-29.616l-13.632-13.63s-83.13-95.442-180.261-40.045l4.597 5.758 36.221-5.624-29.849 13.607 5.591 7.002c40.31-6.065 112.967 22.953 89.013 52.977l-70.803 70.798-.152-.153a37.927 37.927 0 0 1-16.822 9.318L40.066 416.787l59.752 59.744L273.775 286.09c1.581-6.657 4.924-12.981 10.119-18.172.643-.646 1.328-1.226 2.01-1.818l75.918-75.915.002.002c9.754.023 20.184 3.071 27.628 10.514 7.776 7.773 11.46 18.062 11.136 28.248l22.462 22.461 46.472-46.467-21.812-21.813c-10.622.716-21.493-2.95-29.614-11.074z"/></svg>