<svg xmlns="http://www.w3.org/2000/svg" viewBox="0 0 512 512"><path d="M256.281 48.551c-59.443 0-107.625 48.182-107.625 107.62 0 59.44 107.625 254.112 107.625 254.112S363.9 215.612 363.9 156.171c0-59.438-48.185-107.62-107.619-107.62zm0 140.324c-18.062 0-32.705-14.641-32.705-32.704 0-18.057 14.643-32.697 32.705-32.697 18.057 0 32.697 14.641 32.697 32.697.001 18.064-14.64 32.704-32.697 32.704zm77.36 121.246c-.865 1.815-1.701 3.591-2.592 5.451a1984.393 1984.393 0 0 1-10.631 21.8c49.764 8.242 84.123 25.717 84.123 45.959 0 28.174-66.504 51.012-148.541 51.012-82.035 0-148.541-22.838-148.541-51.012 0-20.315 34.594-37.843 84.641-46.046a1923.73 1923.73 0 0 1-10.586-21.713c-.91-1.896-1.764-3.706-2.643-5.556-56.672 10.751-100.518 34.52-100.518 73.314 0 55.347 89.225 80.118 177.646 80.118 88.426 0 177.646-24.771 177.646-80.118.001-38.679-43.583-62.415-100.004-73.209z"/></svg>