<svg xmlns="http://www.w3.org/2000/svg" viewBox="0 0 512 512"><path d="M256.393 292.155c54.906 0 99.381-44.471 99.381-99.347 0-54.888-44.475-99.363-99.381-99.363-54.877 0-99.381 44.476-99.381 99.363 0 54.877 44.504 99.347 99.381 99.347zm-23.775-159.807l24.034 56.701 23.514-56.701h29.529l-28.223 56.701h17.299v17.3H272.71l-2.743 5.298v8.388h28.805v17.315h-28.805v25.148h-27.703V237.35h-28.615v-17.315h28.615v-8.388l-2.548-5.298h-26.067v-17.3h17.336l-27.898-56.701h29.531zm23.775 245.324c-55.56-.131-103.895-9.678-133.393-25.996-1.011-.588-1.995-1.158-2.975-1.765v19.852c0 1.015.229 2.091 1.245 3.792 1.011 1.697 2.876 3.891 5.786 6.246 5.789 4.691 15.533 9.778 28.094 14.012 25.178 8.588 61.312 14.213 101.242 14.197 52.287.125 98.428-9.885 121.191-22.833 7.554-4.183 12.229-8.65 13.965-11.622 1.016-1.701 1.209-2.777 1.241-3.792v-19.852c-7.717 4.71-16.81 8.729-27.108 12.247-28.745 9.76-67.008 15.486-109.288 15.514zm0 55.266c-55.56-.132-103.895-9.678-133.393-25.997-1.011-.587-1.995-1.178-2.975-1.763v22.596c0 1 .229 2.092 1.245 3.791 1.011 1.702 2.876 3.894 5.786 6.233 5.789 4.719 15.533 9.773 28.094 14.04 25.178 8.589 61.312 14.215 101.242 14.18 52.287.128 98.428-9.874 121.191-22.845 7.554-4.166 12.229-8.627 13.965-11.608 1.016-1.729 1.209-2.814 1.241-3.791v-22.632c-7.752 4.708-16.874 8.733-27.175 12.266-28.708 9.774-66.973 15.499-109.221 15.53zM135.166 299.467c-7.553 4.201-12.197 8.65-13.896 11.631-.95 1.598-1.211 2.642-1.245 3.61.034.929.295 1.979 1.245 3.595 1.011 1.686 2.876 3.895 5.786 6.235 5.789 4.702 15.533 9.774 28.094 14.024 25.178 8.571 61.312 14.193 101.242 14.193 52.39.129 98.497-9.891 121.225-22.846 7.553-4.166 12.195-8.628 13.932-11.607.914-1.615 1.176-2.666 1.241-3.595-.065-.969-.327-2.013-1.241-3.61-.98-1.704-2.91-3.896-5.791-6.235-4.674-3.808-11.969-7.831-21.187-11.458 24.524-26.39 39.567-61.741 39.567-100.596 0-81.602-66.156-147.757-147.746-147.757-81.589 0-147.747 66.155-147.747 147.757 0 38.854 15.044 74.206 39.567 100.596-4.902 1.912-9.286 3.938-13.046 6.063zm121.227 41.092c-.326 0-.622-.032-.982-.032.36-.001.655.032.982.032.324 0 .686-.032.98-.032-.295-.001-.656.032-.98.032zm-126.916-147.75c0-69.979 56.934-126.93 126.916-126.93 69.98 0 126.913 56.95 126.913 126.93 0 69.986-56.933 126.915-126.913 126.915-69.983 0-126.916-56.929-126.916-126.915z"/></svg>