<svg xmlns="http://www.w3.org/2000/svg" viewBox="0 0 512 512"><path d="M254.989 186.463c38.106 0 68.999 30.891 68.999 68.994 0 38.112-30.893 69.002-68.999 69.002-38.109 0-69.002-30.89-69.002-69.002 0-38.103 30.893-68.994 69.002-68.994zm-17.53-54.484v-25.271c0-9.677 7.849-17.524 17.525-17.524 9.678 0 17.531 7.848 17.531 17.524v25.271c0 9.678-7.854 17.529-17.531 17.529-9.676 0-17.525-7.852-17.525-17.529zm0 272.23v-25.27c0-9.681 7.846-17.524 17.525-17.524 9.68 0 17.531 7.844 17.531 17.524v25.27c0 9.676-7.852 17.528-17.531 17.528-9.679 0-17.525-7.852-17.525-17.528zm92.447-223.671c-6.845-6.846-6.845-17.947 0-24.785l17.871-17.872c6.845-6.846 17.941-6.846 24.785 0 6.848 6.854 6.848 17.945 0 24.785l-17.873 17.872a17.456 17.456 0 0 1-12.391 5.135 17.46 17.46 0 0 1-12.392-5.135zM137.411 373.031c-6.846-6.846-6.846-17.937 0-24.783l17.869-17.87c6.848-6.843 17.945-6.843 24.786 0 6.848 6.847 6.848 17.944 0 24.785l-17.869 17.868a17.475 17.475 0 0 1-12.396 5.135 17.458 17.458 0 0 1-12.39-5.135zm241.053-100.047c-9.677 0-17.526-7.848-17.526-17.527.008-9.68 7.85-17.528 17.526-17.528h25.271c9.681.008 17.528 7.856 17.528 17.536 0 9.678-7.848 17.52-17.528 17.52h-25.271v-.001zm-272.225 0c-9.682 0-17.53-7.848-17.53-17.527 0-9.68 7.848-17.528 17.53-17.528h25.267c9.681.008 17.529 7.856 17.529 17.536 0 9.678-7.849 17.52-17.529 17.52h-25.267v-.001zm241.529 100.045l-17.861-17.87c-6.846-6.839-6.842-17.946.007-24.781 6.839-6.849 17.938-6.845 24.786.002l17.86 17.87c6.848 6.839 6.842 17.939-.004 24.787a17.444 17.444 0 0 1-12.386 5.129 17.487 17.487 0 0 1-12.402-5.137zM155.276 180.538l-17.864-17.872c-6.847-6.844-6.847-17.938 0-24.785 6.846-6.846 17.94-6.846 24.786 0l17.871 17.872c6.839 6.844 6.839 17.939-.005 24.785a17.464 17.464 0 0 1-12.394 5.135c-4.485 0-8.97-1.71-12.394-5.135z"/></svg>