<svg xmlns="http://www.w3.org/2000/svg" viewBox="0 0 468 468"><path d="M5.5 233.7C5.7 107.5 108.1 5.3 234.3 5.5s228.4 102.6 228.2 228.8c-.2 126.1-102.4 228.2-228.5 228.2C107.7 462.4 5.4 360 5.5 233.7zM229.4 312c-17.7.5-35.4-1.1-52.8-4.8-12.8-2.6-23.6-11.2-28.9-23.1-5.2-11.9-7.7-30.3-7.5-55.1.1-13 .9-25.9 2.4-38.8 1.5-12.6 2.9-22.9 4.4-31.1l1.6-8.1v-.7c0-2.3-1.6-4.2-3.8-4.6l-29.5-4.6h-.7c-2.2 0-4 1.5-4.5 3.6-.5 1.9-.8 3.3-1.7 7.8-1.7 8.7-3.2 17.1-5 29.5-1.8 13.4-2.9 26.9-3.3 40.4-.6 9.4-.6 18.9 0 28.3.7 25 5 45 12.9 59.9s21.2 25.7 40.1 32.3c18.8 6.6 45.1 9.8 78.7 9.6h4.2c33.7.1 59.9-3.1 78.7-9.6 18.8-6.6 32.2-17.3 40.1-32.3 7.9-15 12.2-34.9 12.9-59.9.6-9.4.6-18.9 0-28.3-.4-13.5-1.5-27-3.3-40.4-1.7-12.2-3.3-20.6-5-29.5-.9-4.5-1.2-5.9-1.7-7.8-.5-2.1-2.3-3.6-4.5-3.6h-.8l-29.5 4.6c-2.2.4-3.9 2.3-3.9 4.6v.7l1.6 8.1c1.5 8.2 3 18.5 4.5 31 1.5 12.9 2.3 25.9 2.4 38.8.2 24.8-2.3 43.2-7.6 55.1-5.2 11.9-15.9 20.5-28.6 23.2-17.3 3.7-35.1 5.3-52.8 4.8h-9.1z" fill="#283a97"/></svg>