<?xml version="1.0" encoding="utf-8"?>
<!-- Generator: Adobe Illustrator 16.2.1, SVG Export Plug-In . SVG Version: 6.00 Build 0)  -->
<!DOCTYPE svg PUBLIC "-//W3C//DTD SVG 1.1//EN" "http://www.w3.org/Graphics/SVG/1.1/DTD/svg11.dtd">
<svg version="1.1" id="Help_alt" xmlns="http://www.w3.org/2000/svg" xmlns:xlink="http://www.w3.org/1999/xlink" x="0px" y="0px"
	 width="435.621px" height="435.035px" viewBox="0 0 435.621 435.035" enable-background="new 0 0 435.621 435.035"
	 xml:space="preserve">
<g>
	<path fill="#4C4C4C" d="M217.81,0c120.295,0,217.811,97.519,217.811,217.809c0,120.296-97.516,217.815-217.811,217.815
		C97.517,435.625,0,338.105,0,217.809C0,97.519,97.517,0,217.81,0 M217.81,37.558c-99.393,0-180.253,80.86-180.253,180.251
		c0,99.396,80.86,180.257,180.253,180.257c99.391,0,180.251-80.861,180.251-180.257C398.061,118.418,317.201,37.558,217.81,37.558
		L217.81,37.558z"/>
</g>
<g>
	<path fill="#4C4C4C" d="M160.712,95.697c14.748-9.496,32.873-14.247,54.371-14.247c28.244,0,51.714,6.748,70.399,20.25
		c18.686,13.497,28.029,33.496,28.029,59.995c0,16.246-4.051,29.933-12.153,41.058c-4.739,6.751-13.837,15.375-27.301,25.87
		l-13.272,10.312c-7.23,5.627-12.032,12.188-14.396,19.688c-1.497,4.748-2.311,12.123-2.435,22.121h-50.806
		c0.745-21.123,2.741-35.718,5.979-43.779c3.24-8.062,11.591-17.34,25.048-27.839l13.648-10.686
		c4.484-3.373,8.1-7.062,10.843-11.062c4.982-6.876,7.478-14.438,7.478-22.688c0-9.499-2.774-18.154-8.324-25.966
		c-5.547-7.811-15.68-11.718-30.395-11.718c-14.465,0-24.725,4.812-30.77,14.437c-6.048,9.627-9.069,19.622-9.069,29.999h-54.185
		C124.903,135.823,137.34,110.573,160.712,95.697z M191.836,306.43h56.057v54.184h-56.057V306.43z"/>
</g>
</svg>
