<?xml version="1.0" encoding="iso-8859-1"?>
<!-- Generator: Adobe Illustrator 16.2.1, SVG Export Plug-In . SVG Version: 6.00 Build 0)  -->
<!DOCTYPE svg PUBLIC "-//W3C//DTD SVG 1.1//EN" "http://www.w3.org/Graphics/SVG/1.1/DTD/svg11.dtd">
<svg version="1.1" id="Layer_1" xmlns="http://www.w3.org/2000/svg" xmlns:xlink="http://www.w3.org/1999/xlink" x="0px" y="0px"
	 width="204.126px" height="26.628px" viewBox="0 0 204.126 26.628" style="enable-background:new 0 0 204.126 26.628;"
	 xml:space="preserve">
<g>
	<path style="fill:#FFFFFF;" d="M25.156,10.364l-2.38-0.847c-0.14-0.404-0.304-0.8-0.491-1.184l1.084-2.281
		c0.182-0.382,0.104-0.837-0.195-1.136l-2.269-2.269c-0.298-0.299-0.754-0.379-1.138-0.196l-2.28,1.085
		c-0.384-0.188-0.78-0.352-1.185-0.491l-0.847-2.38C15.314,0.266,14.936,0,14.514,0h-3.208c-0.423,0-0.801,0.267-0.942,0.665
		l-0.846,2.38C9.114,3.184,8.717,3.348,8.333,3.536L6.052,2.451C5.669,2.268,5.213,2.348,4.915,2.647L2.647,4.916
		C2.348,5.215,2.269,5.67,2.451,6.052l1.085,2.281c-0.188,0.385-0.353,0.78-0.491,1.185l-2.38,0.846C0.267,10.506,0,10.884,0,11.306
		v3.208c0,0.424,0.266,0.801,0.665,0.942l2.379,0.847c0.139,0.403,0.303,0.799,0.491,1.185L2.45,19.77
		c-0.182,0.382-0.103,0.836,0.196,1.136l2.268,2.269c0.298,0.299,0.754,0.375,1.136,0.195l2.281-1.085
		c0.385,0.188,0.781,0.353,1.185,0.492l0.846,2.379c0.142,0.399,0.519,0.665,0.942,0.665h3.208c0.424,0,0.801-0.266,0.942-0.665
		l0.847-2.379c0.404-0.14,0.801-0.304,1.185-0.492l2.28,1.085c0.383,0.182,0.838,0.104,1.137-0.195l2.268-2.269
		c0.299-0.3,0.379-0.754,0.196-1.136l-1.084-2.281c0.188-0.385,0.353-0.781,0.491-1.186l2.379-0.846
		c0.398-0.143,0.665-0.52,0.665-0.941v-3.208C25.82,10.884,25.555,10.506,25.156,10.364z M12.91,17.567
		c-2.571,0-4.657-2.084-4.657-4.657s2.085-4.657,4.657-4.657c2.572,0,4.657,2.084,4.657,4.657S15.48,17.567,12.91,17.567z"/>
</g>
<g>
	<path style="fill:#FFFFFF;" d="M45.859,6.185l-5.831-5.832c-0.47-0.469-1.104-0.732-1.769-0.732h-9.942c-1.381,0-2.5,1.119-2.5,2.5
		v21.578c0,1.381,1.119,2.5,2.5,2.5h15.774c1.381,0,2.5-1.119,2.5-2.5V7.953C46.591,7.29,46.329,6.654,45.859,6.185z M28.317,23.699
		V2.121h9.444l0.004,0.012c0.004,0.019,0.539,1.955-0.384,5.504c-0.049,0.187,0.015,0.385,0.159,0.51
		c0.146,0.126,0.352,0.157,0.527,0.081c3.908-1.674,5.92,0.21,6.021,0.311V23.7L28.317,23.699L28.317,23.699z"/>
</g>
<g>
	<path style="fill:#FFFFFF;" d="M72.188,0H47.805c-0.67,0-1.214,0.543-1.214,1.214v20.5c0,0.67,0.543,1.214,1.214,1.214h24.382
		c0.67,0,1.215-0.543,1.215-1.214v-20.5C73.4,0.544,72.857,0,72.188,0z M70.975,20.5H49.018V2.428h21.955V20.5H70.975z"/>
	<path style="fill:#FFFFFF;" d="M51.635,18.345h16.722c0.383,0,0.718-0.256,0.816-0.625c0.102-0.369-0.059-0.759-0.389-0.951
		l-6.969-4.086c-0.312-0.183-0.704-0.148-0.979,0.09l-1.704,1.469l-3.296-2.833c-0.184-0.158-0.426-0.226-0.666-0.197
		c-0.24,0.033-0.454,0.167-0.589,0.368l-3.65,5.447c-0.174,0.261-0.191,0.595-0.043,0.871
		C51.035,18.172,51.322,18.345,51.635,18.345z"/>
	<circle style="fill:#FFFFFF;" cx="66.574" cy="7.855" r="2.566"/>
</g>
<g>
	<path style="fill:#FFFFFF;" d="M81.636,11.764c1.446,2.662,3.229,3.222,4.47,3.222c1.238,0,3.021-0.559,4.48-3.215l0.096-0.176
		c0.783-1.42,1.3-2.358,1.3-4.567C91.982,3.552,91.284,0,86.106,0c-5.842,0-5.842,4.747-5.842,7.028
		c0,2.211,0.511,3.152,1.284,4.575L81.636,11.764z"/>
	<path style="fill:#FFFFFF;" d="M98.388,19.688l-6.513-2.917c-0.19-0.084-0.405-0.087-0.598-0.007l-3.371,1.418h-3.572l-3.372-1.408
		c-0.19-0.08-0.405-0.076-0.595,0.008l-6.521,2.91c-0.271,0.12-0.444,0.389-0.444,0.685v3.977c0,0.414,0.336,0.75,0.75,0.75H98.08
		c0.414,0,0.75-0.336,0.75-0.75v-3.981C98.83,20.077,98.656,19.81,98.388,19.688z"/>
</g>
<g>
	<path style="fill:#FFFFFF;" d="M123.017,18.889c-0.012-0.011-11.828-10.461-11.828-10.461c0.193-0.611,0.295-1.255,0.295-1.915
		c0-1.691-0.658-3.281-1.854-4.477c-1.196-1.196-2.785-1.854-4.477-1.854c-0.795,0-1.566,0.151-2.285,0.43l3.428,3.429v3.616h-3.615
		l-3.426-3.427c-0.873,2.266-0.402,4.936,1.422,6.76c1.195,1.195,2.785,1.854,4.477,1.854c0.582,0,1.15-0.083,1.695-0.234
		c0,0,10.42,11.812,10.467,11.859c0.754,0.754,1.756,1.17,2.822,1.17c1.068,0,2.07-0.416,2.824-1.17
		C124.498,22.934,124.511,20.451,123.017,18.889z M120.154,23.262c-0.893,0-1.615-0.725-1.615-1.617
		c0-0.892,0.724-1.615,1.615-1.615c0.891,0,1.615,0.724,1.615,1.615C121.769,22.537,121.044,23.262,120.154,23.262z"/>
</g>
<g>
	<path style="fill:#FFFFFF;" d="M150.274-0.114h-24.898c-0.69,0-1.25,0.56-1.25,1.25v18.57c0,0.689,0.56,1.25,1.25,1.25h24.898
		c0.689,0,1.25-0.561,1.25-1.25V1.136C151.524,0.445,150.966-0.114,150.274-0.114z M149.024,18.456h-22.398V2.386h3.383v2.437h4
		V2.386h7.632v2.437h4V2.386h3.384L149.024,18.456L149.024,18.456z"/>
	<path style="fill:#FFFFFF;" d="M131.344,11.118c0.474,0.871,1.075,1.054,1.495,1.054c0.419,0,1.02-0.183,1.498-1.051l0.029-0.054
		c0.237-0.43,0.408-0.74,0.408-1.443c0-0.622,0-2.274-1.934-2.274c-1.924,0-1.924,1.594-1.924,2.274
		c0,0.705,0.169,1.016,0.404,1.447L131.344,11.118z"/>
	<path style="fill:#FFFFFF;" d="M136.506,13.272l-1.923-0.861c-0.082-0.037-0.174-0.039-0.256-0.004l-0.977,0.412h-1.014
		l-0.977-0.408c-0.082-0.035-0.174-0.033-0.254,0.003l-1.925,0.858c-0.116,0.053-0.19,0.168-0.19,0.293v1.174
		c0,0.177,0.144,0.32,0.321,0.32h7.063c0.177,0,0.321-0.144,0.321-0.32v-1.176C136.696,13.438,136.621,13.323,136.506,13.272z"/>
	<rect x="139.56" y="7.919" style="fill:#FFFFFF;" width="7.102" height="1.966"/>
	<rect x="139.56" y="12.451" style="fill:#FFFFFF;" width="7.102" height="1.966"/>
</g>
<g>
	<g>
		<path style="fill:#FFFFFF;" d="M176.364,10.89h-23.59c-0.69,0-1.25-0.56-1.25-1.25V1.491c0-0.69,0.56-1.25,1.25-1.25h23.59
			c0.689,0,1.25,0.56,1.25,1.25V9.64C177.614,10.331,177.054,10.89,176.364,10.89z M154.024,8.39h21.09V2.741h-21.09V8.39z"/>
	</g>
	<path style="fill:#FFFFFF;" d="M165.618,21.87c0-0.428,0.044-0.844,0.121-1.25h-11.715v-5.648h21.09v0.781
		c0.982,0.447,1.839,1.123,2.5,1.959v-3.99c0-0.69-0.561-1.25-1.25-1.25h-23.59c-0.69,0-1.25,0.56-1.25,1.25v8.148
		c0,0.69,0.56,1.25,1.25,1.25h12.965C165.662,22.715,165.618,22.299,165.618,21.87z"/>
	<path style="fill:#FFFFFF;" d="M172.341,17.112c-2.623,0-4.758,2.135-4.758,4.758s2.135,4.758,4.758,4.758s4.758-2.135,4.758-4.758
		S174.964,17.112,172.341,17.112z M175.216,22.142c0,0.252-0.203,0.456-0.455,0.456h-1.692v1.692c0,0.252-0.204,0.457-0.456,0.457
		h-0.543c-0.252,0-0.456-0.205-0.456-0.457v-1.692h-1.692c-0.252,0-0.455-0.204-0.455-0.456V21.6c0-0.252,0.203-0.456,0.455-0.456
		h1.692V19.45c0-0.252,0.204-0.455,0.456-0.455h0.543c0.252,0,0.456,0.203,0.456,0.455v1.693h1.692c0.252,0,0.455,0.204,0.455,0.456
		V22.142z"/>
</g>
<g>
	<path style="fill:#FFFFFF;" d="M190.871-0.447c-7.322,0-13.257,5.935-13.257,13.256c0,5.021,2.791,9.388,6.906,11.638V21.47
		c-2.666-1.959-4.406-5.107-4.406-8.661c0-5.931,4.825-10.756,10.757-10.756c5.931,0,10.755,4.825,10.755,10.756
		c0,3.556-1.74,6.703-4.406,8.662v2.976c4.115-2.25,6.906-6.617,6.906-11.638C204.126,5.488,198.192-0.447,190.871-0.447z"/>
	<path style="fill:#FFFFFF;" d="M191.241,7.726c-0.095-0.104-0.229-0.163-0.369-0.163s-0.274,0.059-0.369,0.163l-5.143,5.633
		c-0.134,0.146-0.168,0.357-0.088,0.539c0.079,0.182,0.259,0.299,0.457,0.299h2.168v10.694c0,0.276,0.224,0.5,0.5,0.5h4.946
		c0.276,0,0.5-0.224,0.5-0.5V14.196h2.168c0.197,0,0.377-0.117,0.457-0.298c0.079-0.181,0.045-0.392-0.089-0.538L191.241,7.726z"/>
</g>
</svg>
