<?xml version="1.0" encoding="utf-8"?>
<!-- Generator: Adobe Illustrator 16.2.1, SVG Export Plug-In . SVG Version: 6.00 Build 0)  -->
<!DOCTYPE svg PUBLIC "-//W3C//DTD SVG 1.1//EN" "http://www.w3.org/Graphics/SVG/1.1/DTD/svg11.dtd">
<svg version="1.1" id="Layer_1" xmlns="http://www.w3.org/2000/svg" xmlns:xlink="http://www.w3.org/1999/xlink" x="0px" y="0px"
	 width="32px" height="32px" viewBox="0 0 32 32" enable-background="new 0 0 32 32" xml:space="preserve">
<g>
	<path fill="#B7B7B7" d="M28.449,5.465H3.551c-0.69,0-1.25,0.56-1.25,1.25v18.57c0,0.689,0.56,1.25,1.25,1.25h24.898
		c0.689,0,1.25-0.561,1.25-1.25V6.715C29.699,6.024,29.141,5.465,28.449,5.465z M27.199,24.035H4.801V7.965h3.383v2.437h4V7.965
		h7.632v2.437h4V7.965H27.2L27.199,24.035L27.199,24.035z"/>
	<path fill="#B7B7B7" d="M9.519,16.697c0.474,0.871,1.075,1.054,1.495,1.054c0.419,0,1.02-0.183,1.498-1.051l0.029-0.054
		c0.237-0.431,0.408-0.74,0.408-1.443c0-0.622,0-2.274-1.934-2.274c-1.924,0-1.924,1.594-1.924,2.274
		c0,0.705,0.169,1.016,0.404,1.447L9.519,16.697z"/>
	<path fill="#B7B7B7" d="M14.681,18.852l-1.923-0.86c-0.082-0.037-0.174-0.039-0.256-0.005l-0.977,0.412h-1.014L9.534,17.99
		c-0.082-0.035-0.174-0.033-0.254,0.003l-1.925,0.858c-0.116,0.053-0.19,0.168-0.19,0.293v1.174c0,0.177,0.144,0.32,0.321,0.32
		h7.063c0.177,0,0.321-0.145,0.321-0.32v-1.176C14.871,19.018,14.796,18.902,14.681,18.852z"/>
	<rect x="17.734" y="13.498" fill="#B7B7B7" width="7.102" height="1.966"/>
	<rect x="17.734" y="18.03" fill="#B7B7B7" width="7.102" height="1.966"/>
</g>
</svg>
