<?xml version="1.0" encoding="utf-8"?>
<!-- Generator: Adobe Illustrator 16.2.1, SVG Export Plug-In . SVG Version: 6.00 Build 0)  -->
<!DOCTYPE svg PUBLIC "-//W3C//DTD SVG 1.1//EN" "http://www.w3.org/Graphics/SVG/1.1/DTD/svg11.dtd">
<svg version="1.1" id="Layer_1" xmlns="http://www.w3.org/2000/svg" xmlns:xlink="http://www.w3.org/1999/xlink" x="0px" y="0px"
	 width="32px" height="32px" viewBox="0 0 32 32" enable-background="new 0 0 32 32" xml:space="preserve">
<g>
	<path fill="#B7B7B7" d="M27.539,21.979c-0.012-0.011-11.828-10.46-11.828-10.46c0.193-0.611,0.295-1.255,0.295-1.915
		c0-1.691-0.658-3.281-1.854-4.477c-1.196-1.196-2.785-1.854-4.477-1.854c-0.795,0-1.566,0.151-2.285,0.43l3.428,3.429v3.616H7.203
		L3.777,7.319c-0.873,2.266-0.402,4.936,1.422,6.76c1.195,1.195,2.785,1.854,4.477,1.854c0.582,0,1.15-0.083,1.695-0.234
		c0,0,10.42,11.812,10.467,11.859c0.754,0.754,1.756,1.17,2.822,1.17c1.068,0,2.07-0.416,2.824-1.17
		C29.02,26.023,29.033,23.541,27.539,21.979z M24.676,26.352c-0.893,0-1.615-0.725-1.615-1.617c0-0.892,0.725-1.614,1.615-1.614
		s1.615,0.724,1.615,1.614C26.291,25.627,25.566,26.352,24.676,26.352z"/>
</g>
</svg>
