<?xml version="1.0" encoding="utf-8"?>
<!-- Generator: Adobe Illustrator 16.2.1, SVG Export Plug-In . SVG Version: 6.00 Build 0)  -->
<!DOCTYPE svg PUBLIC "-//W3C//DTD SVG 1.1//EN" "http://www.w3.org/Graphics/SVG/1.1/DTD/svg11.dtd">
<svg version="1.1" id="Layer_1" xmlns="http://www.w3.org/2000/svg" xmlns:xlink="http://www.w3.org/1999/xlink" x="0px" y="0px"
	 width="32px" height="32px" viewBox="0 0 32 32" enable-background="new 0 0 32 32" xml:space="preserve">
<g>
	<g>
		<path fill="#B7B7B7" d="M27.795,13.455H4.205c-0.69,0-1.25-0.56-1.25-1.25V4.056c0-0.69,0.56-1.25,1.25-1.25h23.59
			c0.689,0,1.25,0.56,1.25,1.25v8.149C29.045,12.896,28.484,13.455,27.795,13.455z M5.455,10.955h21.09V5.306H5.455V10.955z"/>
	</g>
	<path fill="#B7B7B7" d="M17.049,24.436c0-0.428,0.044-0.844,0.121-1.25H5.455v-5.647h21.09v0.78c0.982,0.447,1.839,1.123,2.5,1.959
		v-3.989c0-0.69-0.561-1.25-1.25-1.25H4.205c-0.69,0-1.25,0.56-1.25,1.25v8.147c0,0.69,0.56,1.25,1.25,1.25H17.17
		C17.093,25.28,17.049,24.864,17.049,24.436z"/>
	<path fill="#B7B7B7" d="M23.771,19.678c-2.623,0-4.758,2.135-4.758,4.758s2.135,4.758,4.758,4.758s4.758-2.135,4.758-4.758
		S26.395,19.678,23.771,19.678z M26.646,24.707c0,0.252-0.203,0.456-0.455,0.456h-1.692v1.692c0,0.252-0.204,0.457-0.456,0.457H23.5
		c-0.252,0-0.456-0.205-0.456-0.457v-1.692h-1.692c-0.252,0-0.455-0.204-0.455-0.456v-0.542c0-0.252,0.203-0.456,0.455-0.456h1.692
		v-1.693c0-0.252,0.204-0.455,0.456-0.455h0.543c0.252,0,0.456,0.203,0.456,0.455v1.693h1.692c0.252,0,0.455,0.204,0.455,0.456
		V24.707z"/>
</g>
</svg>
