<?xml version="1.0" encoding="utf-8"?>
<!-- Generator: Adobe Illustrator 16.2.1, SVG Export Plug-In . SVG Version: 6.00 Build 0)  -->
<!DOCTYPE svg PUBLIC "-//W3C//DTD SVG 1.1//EN" "http://www.w3.org/Graphics/SVG/1.1/DTD/svg11.dtd">
<svg version="1.1" id="Layer_1" xmlns="http://www.w3.org/2000/svg" xmlns:xlink="http://www.w3.org/1999/xlink" x="0px" y="0px"
	 width="32px" height="32px" viewBox="0 0 32 32" enable-background="new 0 0 32 32" xml:space="preserve">
<g>
	<path fill="#B7B7B7" d="M16.001,3.081c-7.322,0-13.257,5.935-13.257,13.256c0,5.021,2.791,9.388,6.906,11.638v-2.977
		c-2.666-1.959-4.406-5.107-4.406-8.661c0-5.931,4.825-10.756,10.757-10.756c5.931,0,10.755,4.825,10.755,10.756
		c0,3.556-1.74,6.703-4.406,8.662v2.976c4.115-2.25,6.906-6.617,6.906-11.638C29.256,9.016,23.322,3.081,16.001,3.081z"/>
	<path fill="#B7B7B7" d="M16.371,11.254c-0.095-0.104-0.229-0.163-0.369-0.163s-0.274,0.059-0.369,0.163l-5.143,5.633
		c-0.134,0.146-0.168,0.357-0.088,0.539c0.079,0.182,0.259,0.299,0.457,0.299h2.168v10.694c0,0.276,0.224,0.5,0.5,0.5h4.946
		c0.276,0,0.5-0.224,0.5-0.5V17.725h2.168c0.197,0,0.377-0.117,0.457-0.298c0.079-0.181,0.045-0.392-0.089-0.538L16.371,11.254z"/>
</g>
</svg>
