<svg xmlns="http://www.w3.org/2000/svg" viewBox="0 0 512 512"><path d="M236.555 298.982l-66.399-66.42-14.111 14.127c-7.8 7.781-7.8 20.435 0 28.188l40.614 40.635v21.271l-.801-.427-65.175-65.175V163.199c0-14.449-11.706-26.154-26.158-26.154H78.396v178.452h.017l68.542 68.542v83.958h89.621l-.02-31.899c0-.031.02-.068.02-.068l-.021-137.048zm171.684-161.937c-14.437 0-26.146 11.705-26.146 26.154v107.982l-65.156 65.175-.834.427v-21.271l40.631-40.635c7.799-7.753 7.799-20.406 0-28.188l-14.11-14.127-66.415 66.42v169.014h89.633v-83.958l68.51-68.542h.033V137.045h-26.146zm-85.04 62.849c0-21.062-17.071-38.099-38.113-38.099-21.043 0-38.098 17.036-38.098 38.099 0 21.062 17.055 38.129 38.098 38.129 21.042-.001 38.113-17.068 38.113-38.129zM212.241 99.111c-21.057 0-38.097 16.998-38.097 38.059 0 21.029 17.04 38.129 38.097 38.129 21.029 0 38.099-17.1 38.099-38.129 0-21.061-17.07-38.059-38.099-38.059zm78.745 21.006c21.03 0 38.117-17.066 38.117-38.114 0-21.026-17.087-38.081-38.117-38.081-21.057 0-38.097 17.055-38.097 38.081.001 21.048 17.041 38.114 38.097 38.114z"/></svg>