<svg xmlns="http://www.w3.org/2000/svg" viewBox="0 0 512 512"><path d="M242.904 278.507c-1.807.161-11.916 6.335-8.254 6.673l1.338.057c.861-2.479 1.758-4.312 1.992-4.072.236.245.768.436.865.336.096-.099.355-.2.469-.058.117.146.98.11 1.006-.084.023-.19.367-.572.725-.559.361.013 1.141.178 1.217.398s-.221 2.18-.756 4.036l2.932 1.561.273-.024c.535-.032 1.029.134 1.096.372.066.239.709.254 1.1.084.393-.172.104-2.303-.787-3.748l1.721-1.021.16.229c.262.336.48.601.486.588.006-.015.203.419.455 1.021.25.604 2.334-2.125 4.303-6.196l-3.691-4.126c-.312-.324-.982-.971-1.861-.975-.855 1.716-4.617 4.125-4.789 5.508zm-12.89-21.65c.436-.642 1-.88 1.701-.718.068.905-.273 1.644-1.025 2.212l-.037.385c.941.622 2.012.985 2.381.806.367-.18 1.746.226 2.174.836.428.611 2.387.993 2.219.657-.166-.337 2.051-.394 4.035.846l.969 1.856c.537-.35.762-.838.678-1.473-.535-1.041-1.305-1.483-2.316-1.318l.057-.387c.465-.476.721-.895.568-.929-.154-.036-.627.008-.859.21-.23.206-.965-.176-1.188-.825s-2.211-1.187-2.602-1.043c-.391.146-.773.66-.789.769-.014.111-.633-.392-1.355-1.276-.725-.887-.475-5.782.389-8.937l-.088-5.059-.369.176c-.756.471-1.518.434-1.689-.083-.17-.521-3.197 3.75-5.057 9.559l-.277 1.785c-.02.472 2.114 1.961 2.48 1.951zm-.293-25.07c2.982-.271 5.979-9.8 2.641-10.106-3.081.237-7.508 9.989-2.641 10.106zm-.307 89.079c1.707.114.857-1.878.873-3.034.012-.712-.064-1.545.338-2.184.199-.319 1.869-1.25 1.854-1.155l-.51 2.762c1.043 2.154 2.762 3.742 3.818 3.529 1.061-.213 1.312-2.551.457-3.355l-.025-.513-.008-.17c.229-.257.1-2.012-.291-3.904l-.275-1.809c-.217-1.419-.705-1.354-1.273-2.258-.885-1.397-1.068-3.058.631-4.23.891-.611 2.236-.426 3.264-.328.65.06 1.479.484 2.242.694.383.102.748.151 1.068.075l1.471-.35c1.377-2.267-.152-4.212-3.4-4.323l-3.291-.622c-3.047-.574-4.676.645-6.348 3.176-1.832 2.778-4.662 7.357-4.307 10.783.169 1.63 1.587 7.072 3.712 7.216zm15.857-49.315l.422.68.26-.056c.463.041.838-.779.83-1.823l-.744-.858.453-.032c.77.036 1.508-.142 1.637-.394.131-.252.234-1.127-.004-1.39-.236-.263-.371-.754-.299-1.092.07-.338-.047-1.082-.201-1.085-.152-.004-.438-.187-.408-.417.027-.228-.293-.752-.754-.885-.461-.135-.836-.243-1.834-.215l-.264-.015c-.5.229-.297.774.451 1.207.748.435.633 2.748-.094 3.291l-.99-.382-.043.148c-.02.269.143.786.359 1.156.22.373 1.263 1.374 1.223 2.162zm-10.728-10.271c.143.176 1.045.067 1.24.018-.156-.158-1.037-.065-1.24-.018zm26.209-62.043c.113.167.268.283.395.428-.275.433-.576.871-.928 1.315l3.414.251c-.004-.038-.002-.047-.004-.082.092.025.174.06.27.08.031.102.057.168.094.295.822-.038 1.24-.061 1.451-.07 6.576.414 17.014-4.687 20.672-6.51 4.863-2.416 12.641-2.48 15.438-7.515 3.273-5.893-.68-11.59 1.615-16.539.551-1.187 1.496-2.332 2.955-3.426.457-.132.912-.268 1.314-.457l3.289-1.753-.332-.12c-.105-.113-.193-.226-.285-.337 2.465-1.612 2.475-1.62 2.475-1.62 4.463-5.446 5.299-9.272 1.859-8.497l-3.221-.287c-2.092-.188-3.406-2.16-5.906-2.169-4.143-.016-6.053 2.315-7.26 5.93-.57 1.711-.742 3.521-.744 5.38-.57.693-.996 1.144-1.121 1.146-.23.01-.648-.037-.604.006.047.039.021.037-.143-.061-.164-.101-.67.688-.881 1.906l-1.471.661c.76.834.99 1.836.693 3.008 1.199.154 2.287-.253 3.26-1.219-2.412-2.436-1.73-2.001.385-2.246.295 4.694.855 9.469-1.754 13.424-5.828 8.84-17.25 7.457-25.988 9.477-1.936.446-5.396 2.057-7.57 4.135-1.072.19-1.936.706-2.062 1.874l-.02.37c.115.067.24.125.359.187-.365.99-.328 2.019.356 3.035zm-154.584 81.066c-.023 3.873 6.387.714.998-9.275.029 3.548-1.127 5.916-.998 9.275zm143.445-89.029c.09-.137.16-.598.148-1.236-.179.913-.247 1.379-.148 1.236zm42.201 139.281l.486.009c3.975-.098 5.488 3.435 10.248 2.719.299-2.363 1.996-5.071 4.719-5.265 6.912-.197 11.346 12.1 18.332 6.601-3.107.361-10.178-5.524-10.277-8.582.668-3.696 3.463-1.435-1.057-3.242-3.584-1.736-14.512-7.274-17.287-9.156l.023-.02c-.01-.054-.197-.152-.416-.219l-.088-.113c.068.087-3.68-.321-8.365-.908l-.375-2.141c-2.207.23-6.438 5.924-8.477 5.938-3.449-.194-3.816-5.064-3.77-6.975-.877-.188-10.977-4.192-11.184.829.059 3.682 8.188 3.297 9.764 3.121l-.873 1.3c-2.695.356-3.689 1.415-2.207 2.354l-.178 1.919.062.262c.578.023 1.369-.195 1.754-.483.385-.29 1.023-1.281 1.027-1.085.002.196 5.182 3.671 11.545 7.415 0 0 1.352.793 4.24 3.556l-.482.294c-1.275 1.037.001 1.877 2.836 1.872zm4.631-17.334c.029.039.035.043.053.065h.006l-.059-.065zm11.342 35.207l-.346-.151c-1.67-.35-3.717-3.568-4.543-7.157l-1.262-3.125c-6.541 3.413-.182 18.849-8.664 19.665-2.379.135-14.18-5.102-14.156-6.846.023-3.204 1.396-5.46 4.117-6.778l-.014-.635c-1.16-.553-6.002-.447-10.762.232l-4.385-2.79.217 1.139c.955.574-1.117 2.405-4.605 4.073l-4.227 5.777-.145-.124c-.828-.333-1.928-.519-2.439-.413-.514.107-1.812.115-2.148-.825-.338-.938-3.338-1.431-4.139-.922-.799.512-5.035 1.585-5.693 2.267-.656.682-1.604 3.853-2 3.766-.395-.085-1.615-.052-1.619.595-.002.649-1.457 1.66-1.752 1.394-.293-.272-1.908-.304-2.85.994l.285 1.502c-.209 3.803-22.535 10.082-25.756 10.438l-.047-.269c-.057-.333-.355-.54-.664-.461-.309.078.221 5.52 1.197 11.227a17.81 17.81 0 0 0-.305-.16c-.387-.512-.789-.77-.896-.571-.105.199 1.613 6.372 4.053 13.341 0 0 1.248 3.565 1.275 5.885 1.107 7.393 27.428-2.174 30.209-2.552 7.148-.973 13.764-3.582 21.027-2.626 3.207.425 7.572 6.722 8.951 6.73l2.197-.152c2.59-2.893 4.525-4.203 4.297-2.911-.227 1.292-1.346 2.81.676 2.622l.182-1.46.377.27c.26.576.359 1.279.221 1.561-.137.283.373.946 1.578.808l1.025-.486c2.158 7.792 12.672 6.31 18.674 5.63l1.479-3.06c4.805-1.602 8.738-2.907 8.738-2.901 0 .003 3.729-4.749 8.277-10.562 0 0 2.68-3.427 3.252-17.714-.885-.743-7.762-6.41-7.725-6.285-.033-.211-11.75-18.357-11.162-17.98zm-96.717-16.001l1.395-.055c.547.466 1.232.67 1.523.447s-3.115-1.743-7.779-2.962l-1.809-1.547.186.074c2.195-.397 1.562-1.443-1.404-2.326l-4.029-.151c-4.68.046-9.916-2.438-14.539-2.11l-.504-.087c-1.18 1.225 3.736 3.612 10.924 5.307 0 0 11.49 2.705 16.064 4.47-.106-.247-.291-1.078-.028-1.06zm95.467 77.599c-.814.276-1.48.501-2.65.68l-.074.024c-2.738.365-1.18 2.666 3.467 5.11l1.322-4.718.182-.935c-.423-.361-1.432-.437-2.247-.161zm36.067-87.084l.098.046.002-.002c.002-.003-.012-.009-.029-.016a1.55 1.55 0 0 0-.071-.028zm-23.094-1.37c.143-.013.291-.064.438-.085-.284-.153-.473-.176-.438.085zm10.644-4.78c-2.135.162-6.33 4.092-10.207 4.695.672.365 1.941 1.557 2.414 1.973l.076-.005c-.135-.095 3.543-.895 8.17-1.78l.359-3.395c.036-.5-.296-1.486-.812-1.488zm-137.898-14.899c.262 2.734 2.695 3.839 3.299 5.439-1.871 5.429 3.416 5.827 6.297 6.24l.1.331c.086.729.309 1.44.494 1.578s5.656.321 11.852.328l6.947-13.459a8.838 8.838 0 0 0 3.713-1.335l-2.102-.135c-1.76-4.017-3.08-7.461-2.93-7.659.152-.194.457-.617.357-.829-.1-.213.422-.944 1.299-1.316s1.684-1.009 1.559-1.12c-.125-.11.33-.469 1.031-.586.701-.119-.484-2.565-2.66-4.292-2.174-1.729-7.406.724-13.084 5.442 0 .001-16.168 13.431-16.172 11.373zm-16.551 3.857c.15-.447-.195-1.367-.768-2.045l-.865.172.07-.139c.068-.227-4.633-4.139-10.443-8.691 0 0-10.662-8.359-14.512-8.697-.184 2.271 10.801 16.45 12.893 17.62l.174.246c.854.209 4.33 5.743 7.73 12.299 0 0 3.084 5.951 9.572 6.861.594.051 2.879-.157 2.893-1.383-.494-5.531-6.787-12.417-6.875-15.965l.131-.278zM256 49.523c-96.727 0-177.902 66.514-200.324 156.296-.191.513-.383 1.03-.57 1.562-.521 1.465-.797 3.17-.924 4.875a207.149 207.149 0 0 0-4.658 43.743c0 114.034 92.443 206.478 206.477 206.478S462.477 370.034 462.477 256 370.033 49.523 256 49.523zm0 389.274c-100.795 0-182.797-82.003-182.797-182.798 0-10.145.867-20.087 2.463-29.785 1.285.59 2.594 1.421 3.133 2.233 1.047 1.577 5.203 4.563 4.818 5.123-.387.561-1.342 2.918-.34 5.311l2.371-.006 2.688-.097c.713-2.012 1.273-2.436 1.246-.938-.027 1.497-.201 5.558-.217 5.549-.016-.008 1.158 5.883 2.602 13.123l4.057 7.659c2.656 6.889 5.564 11.027 6.459 9.193.895-1.832 3.855-5.846 3.838-8.533-.018-2.686 4.062-13.237 9.309-17.455 5.246-4.219 13.801-13.307 15.918-12.974 2.115.334 6.754 1.672 10.057 8.277 0 0 5.146 10.296 6 10.318l2.998-.045c1.617-2.594 3.182-4.239 3.479-3.651.293.587 1.842 5.857 1.828 11.51-.016 5.648 3.115 12.216 3.012 12.214-.1 0-.6.742-.891 1.654-.287.914.98 8.149 2.717 13.977 1.738 5.828 15.162 8.919 13.52 5.736l.031-3.348-.154-5.21c-6.086-4.151-11.021-7.557-10.969-7.57.055-.015-1.281-3.965-2.99-8.843-1.707-4.881 6.439-5.314 10.25-.779 3.812 4.535 9.488 7.964 10.232 7.272.74-.691 1.33-2.25 1.404-1.87l.17.004 1.197-.012c4.398-3.437 4.9-11.433 1.111-17.771 0 0-3.834-6.413-4.041-14.038l.096-5.1c4.201-2.479 9.223-3.269 11.156-1.752s9.219-.236 15.6-3.946l16.557-26.255a5828.64 5828.64 0 0 1 6.562-11.784c.023-.027.037-.046-.016-.034-.053.009-.164-.345-.186-.744-.023-.4-1.488-1.892-3.232-2.58l-.01-1.411.111-3.695c5.842-1.174 9.438-2.354 7.99-2.62-1.447-.267-4.564-2.054-4.879-1.121-.318.935-1.568 1.821-2.146 1.904-.574.084-2.537-1.311-3.176-2.495-.641-1.183-.992-4.373 2.18-6.06 3.172-1.686 7.221-2.561 8.439-1.929l.004.383-.043 1.287c-1.207 1.142-.473 1.584 1.641.98 2.109-.604 8.656-.146 8.641.568-.014.714-1.154 2.54-1.064 2.93.086.391 1.832.672 2.854.645 1.021-.024 2.689 3.143 2.439 3.528-.254.382-1.4.849-1.4 1.067-.002.217.373 2.059.82 3.754.223.844.309 1.652.316 2.287.158-.79.402-1.911.709-3.302.664-2.994 4.754-14.655 7.678-16.702 2.922-2.046 10.32-5.352 10.521-4.131l3.561.133c11.311-.027 16.768-15.699 21.846-22.161 8.594-11.513-.814-11.86-.814-11.86-7.377-.274-7.492-1.687-.252-3.142 0 0 27.035-5.426 33.963-4.211 6.236.778 14.252-.528 14.252-.528 7.289-1.187 7.68.179.873 3.039 0 0 7.709-.495 4.82 6.206-2.885 6.698-2.381 10.567 1.125 8.597 3.504-1.971 4.889-9.738 4.156-9.755-.729-.016.74-2.631 2.516-4.448l1.885-.373c6.361-1.039 30.688 8.062 25.346.574l3.045.689a21.3 21.3 0 0 0 .586-1.461c32.87 33.07 53.218 78.602 53.218 128.802 0 100.794-82.002 182.797-182.797 182.797z"/></svg>