<svg xmlns="http://www.w3.org/2000/svg" viewBox="0 0 512 512"><path d="M446.055 240.544c-7.388-92.958-81.505-167.077-174.478-174.466V38.215H240.92v27.863C147.98 73.482 73.878 147.586 66.453 240.56h-27.86v30.64h27.86c7.425 92.952 81.526 167.071 174.467 174.481v27.857h30.657v-27.857c92.973-7.41 167.09-81.529 174.478-174.481h27.861v-30.656h-27.861zM382.551 271.2c-6.965 57.943-53.044 103.989-110.974 110.97v-36.428H240.92v36.428c-57.916-6.98-103.959-53.026-110.957-110.97h36.428v-30.64h-36.428c6.998-57.934 53.041-103.996 110.957-110.978v36.431h30.657v-36.431c57.93 6.982 103.976 53.028 110.974 110.961h-36.43V271.2h36.43zm-126.293-48.026c-18.053 0-32.701 14.634-32.701 32.705 0 18.051 14.648 32.704 32.701 32.704 18.081 0 32.7-14.652 32.7-32.704 0-18.071-14.619-32.705-32.7-32.705z"/></svg>