<svg xmlns="http://www.w3.org/2000/svg" viewBox="0 0 512 512"><path d="M418.985 232.363c-.686-11.928-7.736-22.035-19.236-30.403-2.03 19.021-14.865 42.121-59.935 55.007-22.95 6.561-52.717 10.175-83.817 10.175-31.099 0-60.862-3.614-83.815-10.175-45.066-12.886-57.901-35.983-59.933-55.002-11.502 8.373-18.553 18.485-19.231 30.42L69.87 370.575v1.212c0 46.882 93.637 71.407 186.132 71.407 92.493 0 186.128-24.525 186.128-71.407v-1.212l-23.145-138.212zM256.002 414.09c-99.646 0-154.878-26.88-156.962-41.461l17.293-103.258c30.578 19.513 86.48 28.679 139.669 28.679 53.19 0 109.091-9.166 139.666-28.679l17.294 103.258c-2.088 14.581-57.315 41.461-156.96 41.461zM138.956 195.461c3.053 40.972 105.234 42.173 117.041 42.173 11.812 0 114.02-1.201 117.046-42.192l14.492-69.587c.774-2.216 1.212-4.518 1.353-6.896.03-.322.041-.644.055-.965.004-.197.033-.389.033-.586 0-.053-.007-.101-.007-.152 0-.126-.009-.252-.013-.376-.898-46.716-119.398-48.074-132.959-48.074-13.559 0-132.084 1.358-132.955 48.086-.004.118-.012.235-.016.354 0 .053-.006.105-.006.159 0 3.113.531 6.021 1.506 8.75l14.43 69.306zm117.041-96.719c30.408 0 55.061 6.019 55.061 13.44 0 7.421-24.652 13.438-55.061 13.438-30.404 0-55.055-6.018-55.055-13.438 0-7.421 24.651-13.44 55.055-13.44z"/></svg>