<svg xmlns="http://www.w3.org/2000/svg" viewBox="0 0 512 512"><path d="M255.188 58.56c-108.788 0-196.976 88.191-196.976 196.976 0 108.789 88.188 196.977 196.976 196.977 108.786 0 196.974-88.188 196.974-196.977 0-108.785-88.187-196.976-196.974-196.976zm-9.424 37.413h25.039v49.152h-25.039V95.973zm-74.912 91.94l-34.753-34.762 17.701-17.702 34.761 34.753-17.709 17.711zm12.352-73.917l22.694-10.58 20.768 44.545-22.688 10.578-20.774-44.543zm75.442 285.108c-21.773 0-39.42-17.647-39.42-39.417 0-17.004 10.781-31.445 25.863-36.979v-112.43h25.037v111.697c16.168 4.916 27.937 19.934 27.937 37.712 0 21.769-17.648 39.417-39.417 39.417zm29.333-251.183l20.776-44.552 22.693 10.59-20.774 44.541-22.695-10.579zm55.039 39.992l-17.708-17.711 34.76-34.753 17.701 17.702-34.753 34.762z"/></svg>