<?xml version="1.0" encoding="utf-8"?>
<!-- Generator: Adobe Illustrator 25.2.3, SVG Export Plug-In . SVG Version: 6.00 Build 0)  -->
<svg version="1.1" id="Layer_1" xmlns="http://www.w3.org/2000/svg" xmlns:xlink="http://www.w3.org/1999/xlink" x="0px" y="0px"
	 viewBox="0 0 40 40" style="enable-background:new 0 0 40 40;" xml:space="preserve">
<style type="text/css">
	.st0{fill-rule:evenodd;clip-rule:evenodd;fill:#3544B1;}
	.st1{fill:#3544B1;}
</style>
<path class="st1" d="M0,20C0,8.9,9,0,20,0s20,9,20,20s-9,20-20,20C8.9,40,0,31,0,20L0,20z M19.6,26.8c-1.6,0-3.1-0.1-4.6-0.4
	c-1.1-0.2-2.1-1-2.5-2c-0.5-1-0.7-2.6-0.7-4.8c0-1.1,0.1-2.3,0.2-3.4c0.1-1.1,0.3-2,0.4-2.7l0.1-0.7c0,0,0,0,0-0.1
	c0-0.2-0.1-0.4-0.3-0.4l-2.6-0.4H9.6c-0.2,0-0.4,0.1-0.4,0.3c0,0.2-0.1,0.3-0.1,0.7c-0.1,0.8-0.3,1.5-0.4,2.6
	c-0.2,1.2-0.3,2.4-0.3,3.5c-0.1,0.8-0.1,1.6,0,2.5c0.1,2.2,0.4,3.9,1.1,5.2c0.7,1.3,1.9,2.2,3.5,2.8c1.6,0.6,3.9,0.9,6.9,0.8h0.4
	c2.9,0,5.2-0.3,6.9-0.8c1.6-0.6,2.8-1.5,3.5-2.8c0.7-1.3,1.1-3.1,1.1-5.2c0.1-0.8,0.1-1.6,0-2.5c0-1.2-0.1-2.4-0.3-3.5
	c-0.1-1.1-0.3-1.8-0.4-2.6c-0.1-0.4-0.1-0.5-0.1-0.7c0-0.2-0.2-0.3-0.4-0.3h-0.1l-2.6,0.4c-0.2,0-0.3,0.2-0.3,0.4c0,0,0,0,0,0.1
	l0.1,0.7c0.1,0.7,0.3,1.6,0.4,2.7c0.1,1.1,0.2,2.3,0.2,3.4c0,2.2-0.2,3.8-0.7,4.8c-0.5,1-1.4,1.8-2.5,2c-1.5,0.3-3.1,0.5-4.6,0.4
	L19.6,26.8z"/>
</svg>
