<?xml version="1.0" encoding="utf-8"?>
<!-- Generator: Adobe Illustrator 27.8.1, SVG Export Plug-In . SVG Version: 6.00 Build 0)  -->
<svg version="1.1" id="Layer_2_00000109717856507224707600000004572449649498936508_"
	 xmlns="http://www.w3.org/2000/svg" xmlns:xlink="http://www.w3.org/1999/xlink" x="0px" y="0px" viewBox="0 0 1256.6 344.8"
	 style="enable-background:new 0 0 1256.6 344.8;" xml:space="preserve">
<style type="text/css">
	.st0{fill:#FFFFFF;}
</style>
<g id="Layer_1-2">
	<g>
		<path class="st0" d="M5,172.2C5.1,79.7,80.2,4.9,172.6,5s167.3,75.2,167.2,167.6c-0.1,92.4-75,167.2-167.4,167.2
			C79.9,339.7,4.9,264.7,5,172.2L5,172.2L5,172.2z M169,229.5c-13,0.4-26-0.8-38.7-3.5c-9.4-1.9-17.3-8.2-21.2-17
			c-3.8-8.7-5.6-22.2-5.5-40.4c0.1-9.5,0.7-19,1.8-28.4c1.1-9.2,2.2-16.8,3.2-22.8l1.1-5.9c0-0.2,0-0.3,0-0.5c0-1.7-1.2-3.1-2.8-3.4
			l-21.6-3.4H85c-1.6,0-2.9,1.1-3.3,2.6c-0.4,1.4-0.6,2.4-1.2,5.7c-1.2,6.4-2.4,12.6-3.6,21.6c-1.3,9.8-2.1,19.7-2.4,29.6
			c-0.5,6.9-0.5,13.8,0,20.7c0.5,18.3,3.7,33,9.4,43.9s15.6,18.8,29.4,23.6c13.8,4.8,33,7.2,57.7,7.1h3.1
			c24.7,0.1,43.9-2.2,57.7-7.1c13.8-4.8,23.6-12.7,29.4-23.6c5.8-11,8.9-25.6,9.4-43.9c0.5-6.9,0.5-13.8,0-20.7
			c-0.3-9.9-1.1-19.8-2.4-29.6c-1.3-8.9-2.4-15.1-3.6-21.6c-0.6-3.3-0.9-4.3-1.2-5.7c-0.4-1.5-1.7-2.6-3.3-2.6h-0.6l-21.6,3.4
			c-1.6,0.3-2.8,1.7-2.8,3.4c0,0.2,0,0.3,0,0.5l1.2,5.9c1.1,6,2.2,13.6,3.3,22.7c1.1,9.4,1.7,18.9,1.8,28.4
			c0.2,18.2-1.7,31.6-5.5,40.4c-3.8,8.7-11.6,15-20.9,17c-12.7,2.7-25.7,3.9-38.7,3.5L169,229.5L169,229.5z"/>
		<g>
			<path class="st0" d="M1155.2,186.1c0-33.4,9.6-56.9,48.2-56.9s48.2,23.5,48.2,56.9s-9.6,56.9-48.2,56.9
				S1155.2,219.5,1155.2,186.1z M1227.1,186.1c0-23.2-3-36.5-23.6-36.5s-23.6,13.3-23.6,36.5s3.1,36.5,23.6,36.5
				S1227.1,209.2,1227.1,186.1z"/>
			<path class="st0" d="M487.2,238.7c0.6,1,1.6,1.6,2.8,1.6h9c1.8,0,3.2-1.4,3.2-3.2l0,0V135c0-1.8-1.4-3.2-3.2-3.2h-18
				c-1.8,0-3.2,1.4-3.2,3.2v81c-7.7,4.3-16.4,6.5-25.2,6.3c-11.5,0-17.2-5-17.2-16.1V135c0-1.8-1.4-3.2-3.2-3.2h-17.9
				c-1.8,0-3.2,1.4-3.2,3.2v73.4c0,20.8,9.8,34.5,37.3,34.5c12.6-0.1,24.9-4.1,35.2-11.3l3.2,7.2L487.2,238.7L487.2,238.7z"/>
			<path class="st0" d="M689.8,163.7c0-20.6-10.2-34.5-35.9-34.5c-12.4,0-24.5,3.8-34.8,10.7c-4.6-6.7-13.3-10.7-27.8-10.7
				c-11.8,0.2-23.3,4.2-32.8,11.3l-3.2-7.2l0,0c-0.6-1-1.6-1.7-2.8-1.7h-9c-1.8,0-3.2,1.4-3.2,3.2v102.1c0,1.8,1.4,3.2,3.2,3.2h18
				c1.8,0,3.2-1.4,3.2-3.2v-80.8c6.9-4.1,14.8-6.3,22.8-6.3c9.8,0,15.4,3.6,15.4,14v73.4c0,1.8,1.4,3.2,3.2,3.2h18
				c1.8,0,3.2-1.4,3.2-3.2v-81.1c6.8-4.2,14.8-6.4,22.8-6.4c9.6,0,15.4,3.6,15.4,14v73.4c0,1.8,1.4,3.2,3.2,3.2h18
				c1.8,0,3.2-1.4,3.2-3.2l0,0L689.8,163.7L689.8,163.7z"/>
			<path class="st0" d="M745.4,231.7c10.2,7.5,22.5,11.5,35.2,11.3c31.7,0,43.4-21.3,43.4-56.9s-11.7-56.9-43.4-56.9
				c-10.3,0.1-20.4,3-29.1,8.5v-32.9c0-1.8-1.4-3.2-3.2-3.2h-18c-1.8,0-3.2,1.4-3.2,3.2v132.3c0,1.8,1.4,3.2,3.2,3.2h9
				c1.2,0,2.2-0.6,2.8-1.6l0,0L745.4,231.7L745.4,231.7z M774.9,222.3c-8.2,0-16.3-2.1-23.4-6.3v-59.9c7.1-4.1,15.2-6.3,23.4-6.3
				c21.3,0,24.5,16.3,24.5,36.2S796.2,222.3,774.9,222.3L774.9,222.3L774.9,222.3z"/>
			<path class="st0" d="M913.9,150.5c-2.8-0.4-5.6-0.6-8.5-0.5c-9.7-0.4-19.3,1.9-27.8,6.5v80.6c0,1.8-1.4,3.2-3.2,3.2h-18
				c-1.8,0-3.2-1.4-3.2-3.2V135c0-1.8,1.4-3.2,3.2-3.2h9c1.2,0,2.2,0.6,2.8,1.6l0,0l3.2,7.2c9.9-7.5,22-11.5,34.4-11.3
				c2.8,0,5.7,0.2,8.5,0.7l0,0c1.7,0,3,2.7,3,4.4v13c0,1.8-1.4,3.2-3.2,3.2L913.9,150.5"/>
			<path class="st0" d="M976.1,190.2c-10.7,1.3-17.2,5.4-17.2,16.7c0,8.3,3.6,16.1,16.7,16.1c8.3,0.1,16.4-2.4,23.2-7.2v-28.1
				L976.1,190.2L976.1,190.2z M1004.8,231.7C995.5,239,984,243,972.1,243c-28,0-37.3-17.4-37.3-34.8c0-23.5,15.2-33.4,39.7-35.4
				l24.4-1.9v-5.4c0-11.1-5.2-15.4-21.3-15.4c-10.1,0-20.1,1.7-29.6,4.9c-0.3,0.1-0.7,0.1-1,0c-1.8,0-3.2-1.4-3.2-3.2v-14.4
				c0-1.4,0.8-2.6,2.1-3.1l0,0c10.8-3.6,22.1-5.4,33.5-5.4c35.6,0,43.8,15.6,43.8,38.7v69.3c0,1.8-1.4,3.2-3.2,3.2h-9
				c-1.2,0-2.2-0.6-2.8-1.6l0,0L1004.8,231.7L1004.8,231.7z"/>
			<path class="st0" d="M1128.6,218c0.3,0,0.7,0,1,0c1.8,0,3.2,1.4,3.2,3.2v14.4c0,1.3-0.8,2.5-2,3l0,0c-8.9,3.2-18.4,4.8-27.9,4.6
				c-38.5,0-50.3-23-50.3-56.9s11.8-56.9,50.3-56.9c9.4-0.2,18.9,1.2,27.8,4.4l0,0c1.2,0.5,2,1.7,2,3v14.5c0,1.8-1.4,3.2-3.2,3.2
				c-0.4,0.1-0.7,0.1-1.1,0l0,0c-7.8-2.5-16-3.7-24.2-3.6c-21.1,0-27.2,14.4-27.2,35.4s6.1,35.4,27.2,35.4
				c8.2,0.1,16.4-1.1,24.2-3.6"/>
		</g>
	</g>
</g>
</svg>
