<?xml version="1.0" encoding="utf-8"?>
<!-- Generator: Adobe Illustrator 27.6.1, SVG Export Plug-In . SVG Version: 6.00 Build 0)  -->
<svg version="1.1" id="Layer_1" xmlns="http://www.w3.org/2000/svg" xmlns:xlink="http://www.w3.org/1999/xlink" x="0px" y="0px"
	 viewBox="0 0 1025.1 908.1" style="enable-background:new 0 0 1025.1 908.1;" xml:space="preserve">
<style type="text/css">
	.st0{fill:#FFFFFF;}
</style>
<path class="st0" d="M167.4,354C167.6,163.2,322.5,8.7,513.2,9s345.2,155.1,345,345.9c-0.3,190.6-154.9,345-345.4,345
	C321.9,699.7,167.3,544.9,167.4,354L167.4,354z M505.8,472.3c-26.8,0.7-53.6-1.7-79.8-7.3c-19.4-3.9-35.6-17-43.7-35
	c-7.8-18-11.6-45.8-11.3-83.4c0.1-19.6,1.4-39.2,3.7-58.7c2.2-19,4.4-34.6,6.7-46.9l2.4-12.2c0-0.4,0-0.7,0-1.1
	c0-3.4-2.4-6.3-5.8-6.9l-44.6-6.9h-1c-3.3,0-6.1,2.2-6.8,5.4c-0.8,2.9-1.2,5-2.5,11.8c-2.5,13.1-4.9,25.9-7.5,44.6
	c-2.8,20.3-4.4,40.7-5,61.1c-1,14.2-1,28.5,0,42.8c1.1,37.8,7.6,68,19.5,90.6s32.1,38.8,60.6,48.8c28.5,9.9,68.1,14.8,119,14.6h6.4
	c50.9,0.2,90.6-4.6,119-14.6c28.4-9.9,48.6-26.2,60.6-48.8c11.9-22.6,18.4-52.8,19.5-90.6c1-14.2,1-28.5,0-42.8
	c-0.6-20.4-2.3-40.8-5-61.1c-2.6-18.5-5-31.2-7.5-44.6c-1.3-6.8-1.8-8.9-2.5-11.8c-0.7-3.2-3.6-5.4-6.8-5.4H692l-44.6,6.9
	c-3.4,0.6-5.9,3.5-5.8,6.9c0,0.4,0,0.7,0,1.1L644,241c2.3,12.4,4.5,28,6.8,46.9c2.3,19.5,3.5,39.1,3.6,58.7
	c0.4,37.5-3.4,65.3-11.4,83.3c-7.9,18-24,31-43.2,35.1c-26.2,5.6-53,8-79.8,7.2L505.8,472.3z"/>
<path class="st0" d="M814,848.2c0-31.1,8.9-53,44.9-53s44.9,21.8,44.9,53s-8.9,53-44.9,53S814,879.3,814,848.2z M880.9,848.2
	c0-21.7-2.8-34-22-34s-22,12.3-22,34s2.8,34,22,34S880.9,869.8,880.9,848.2z"/>
<path class="st0" d="M192,897.2c0.5,0.9,1.5,1.5,2.6,1.5h8.4c1.7,0,3-1.3,3-3l0,0v-95.1c0-1.7-1.3-3-3-3h-16.8c-1.7,0-3,1.3-3,3
	v75.5c-7.1,4-15.2,6.1-23.4,5.9c-10.7,0-16-4.7-16-15v-66.4c0-1.7-1.3-3-3-3h-16.7c-1.7,0-3,1.3-3,3V869c0,19.4,9.1,32.1,34.8,32.1
	c11.7-0.1,23.1-3.8,32.8-10.5l3,6.7L192,897.2z"/>
<path class="st0" d="M380.6,827.3c0-19.2-9.5-32.2-33.5-32.2c-11.5,0-22.8,3.5-32.4,10c-4.2-6.2-12.4-10-25.9-10
	c-11,0.2-21.7,3.9-30.5,10.5l-2.9-6.7l0,0c-0.5-0.9-1.5-1.5-2.6-1.5h-8.4c-1.7,0-3,1.3-3,3v95.1c0,1.7,1.3,3,3,3h16.7
	c1.7,0,3-1.3,3-3v-75.2c6.4-3.9,13.7-5.9,21.2-5.8c9.1,0,14.4,3.3,14.4,13v68.4c0,1.7,1.3,3,3,3h16.7c1.7,0,3-1.3,3-3v-75.5
	c6.4-4,13.7-6,21.2-5.9c8.9,0,14.4,3.3,14.4,13v68.4c0,1.7,1.3,3,3,3l0,0h16.7c1.7,0,3-1.3,3-3l0,0L380.6,827.3z"/>
<path class="st0" d="M432.4,890.7c9.5,7,21,10.7,32.8,10.5c29.5,0,40.4-19.8,40.4-53s-10.9-53-40.4-53c-9.6,0.1-19,2.8-27.1,7.9
	v-30.6c0-1.7-1.3-3-3-3h-16.7c-1.7,0-3,1.3-3,3v123.2c0,1.7,1.3,3,3,3h8.4c1.1,0,2.1-0.6,2.6-1.5l0,0L432.4,890.7z M459.8,882
	c-7.7,0-15.2-2-21.8-5.9v-55.8c6.6-3.9,14.2-5.9,21.8-5.8c19.8,0,22.9,15.2,22.9,33.8S479.7,882,459.8,882L459.8,882z"/>
<path class="st0" d="M589.3,815.1c-2.6-0.4-5.2-0.5-7.9-0.5c-9-0.4-18,1.7-25.9,6.1v75.1c0,1.7-1.3,3-3,3h-16.7c-1.7,0-3-1.3-3-3
	v-95.1c0-1.7,1.3-3,3-3h8.4c1.1,0,2.1,0.6,2.6,1.5l0,0l2.9,6.7c9.2-7,20.5-10.7,32-10.5c2.7,0,5.3,0.2,7.9,0.7l0,0
	c1.5,0,2.8,2.5,2.8,4.1v12.1c0,1.7-1.3,3-3,3h-0.2"/>
<path class="st0" d="M647.2,852c-10,1.2-16,5-16,15.6c0,7.7,3.3,15,15.6,15c7.7,0.1,15.3-2.3,21.7-6.7v-26.2L647.2,852z M674,890.7
	c-8.7,6.8-19.4,10.6-30.5,10.5c-26.1,0-34.8-16.2-34.8-32.4c0-21.8,14.2-31.2,37-33l22.7-1.8v-5c0-10.3-4.8-14.3-19.8-14.3
	c-9.4,0-18.7,1.5-27.6,4.6c-0.3,0-0.6,0-0.9,0c-1.7,0-3-1.3-3-3v-13.4c0-1.3,0.8-2.4,1.9-2.8l0,0c10.1-3.4,20.6-5.1,31.2-5
	c33.2,0,40.8,14.6,40.8,36v64.5c0,1.7-1.3,3-3,3l0,0h-8.4c-1.1,0-2.1-0.6-2.6-1.5l0,0L674,890.7z"/>
<path class="st0" d="M789.2,877.9c0.3,0,0.6,0,0.9,0c1.7,0,3,1.3,3,3v13.4c0,1.2-0.7,2.3-1.8,2.8l0,0c-8.3,3-17.1,4.4-26,4.2
	c-35.8,0-46.8-21.5-46.8-53s10.9-53,46.8-53c8.8-0.2,17.6,1.2,25.9,4.1l0,0c1.1,0.5,1.9,1.6,1.9,2.8v13.5c0,1.7-1.3,3-3,3
	c-0.3,0-0.7,0-1,0l0,0c-7.3-2.3-14.9-3.5-22.5-3.3c-19.6,0-25.3,13.4-25.3,33s5.7,33,25.3,33c7.6,0.1,15.3-1,22.5-3.3"/>
</svg>
