<svg class="illustration" version="1.1" id="Layer_1" xmlns="http://www.w3.org/2000/svg" x="0" y="0" viewBox="0 0 140 75" xml:space="preserve"><path fill="#FFF" stroke="#D9D9D9" d="M132.4 68.6H43.1c-.5 0-1-.4-1-1V7.1c0-.6.5-1 1-1h89.4c.6 0 1 .4 1 1v60.5c-.1.6-.5 1-1.1 1z"/><path fill="none" stroke="#D9D9D9" d="M42.1 16.4h91.3"/><circle fill="#df4949" cx="47" cy="11.6" r="1.5"/><circle fill="#F4DD33" cx="52.5" cy="11.6" r="1.5"/><circle fill="#49df5c" cx="58" cy="11.6" r="1.5"/><path fill="none" stroke="#D9D9D9" stroke-linecap="round" stroke-linejoin="round" d="M64.2 44.1c-12.7-11.9-32.7-11.7-45.1.8"/><path fill="#D9D9D9" d="M64.4 38.9l-1 .1.5 4.9-5 .1.1 1 6-.1z"/><path fill="#FFF" stroke="#D9D9D9" stroke-linecap="round" stroke-linejoin="round" d="M4.8 23.9h30v25h-30z"/><path fill="#FFF" stroke="#D9D9D9" stroke-linecap="round" stroke-linejoin="round" d="M4.8 48.9s0-12.5 15-12.5 15 12.5 15 12.5h-30z"/><circle fill="#FFF" stroke="#D9D9D9" stroke-linecap="round" stroke-linejoin="round" cx="28.7" cy="30.8" r="2.5"/></svg>