<svg xmlns="http://www.w3.org/2000/svg" viewBox="0 0 40 40"><path fill="#3544b1" d="M0 20C0 8.9 9 0 20 0s20 9 20 20-9 20-20 20C8.9 40 0 31 0 20zm19.6 6.8c-1.6 0-3.1-.1-4.6-.4-1.1-.2-2.1-1-2.5-2-.5-1-.7-2.6-.7-4.8 0-1.1.1-2.3.2-3.4s.3-2 .4-2.7l.1-.7v-.1c0-.2-.1-.4-.3-.4l-2.6-.4c-.2 0-.4.1-.4.3 0 .2-.1.3-.1.7-.1.8-.3 1.5-.4 2.6-.2 1.2-.3 2.4-.3 3.5-.1.8-.1 1.6 0 2.5.1 2.2.4 3.9 1.1 5.2.7 1.3 1.9 2.2 3.5 2.8 1.6.6 3.9.9 6.9.8h.4c2.9 0 5.2-.3 6.9-.8 1.6-.6 2.8-1.5 3.5-2.8.7-1.3 1.1-3.1 1.1-5.2.1-.8.1-1.6 0-2.5 0-1.2-.1-2.4-.3-3.5-.1-1.1-.3-1.8-.4-2.6-.1-.4-.1-.5-.1-.7 0-.2-.2-.3-.4-.3h-.1l-2.6.4c-.2 0-.3.2-.3.4v.1l.1.7c.1.7.3 1.6.4 2.7.1 1.1.2 2.3.2 3.4 0 2.2-.2 3.8-.7 4.8-.5 1-1.4 1.8-2.5 2-1.5.3-3.1.5-4.6.4h-.9z"/></svg>
