<?xml version="1.0" encoding="utf-8"?>
<!-- Generator: Adobe Illustrator 27.0.0, SVG Export Plug-In . SVG Version: 6.00 Build 0)  -->
<svg version="1.1" id="Layer_1" xmlns="http://www.w3.org/2000/svg" xmlns:xlink="http://www.w3.org/1999/xlink" x="0px" y="0px"
	 viewBox="0 0 3840 2280" style="enable-background:new 0 0 3840 2280;" xml:space="preserve">
<style type="text/css">
	.st0{fill:#192347;}
	.st1{fill:#201C3B;}
	.st2{fill:#0D5051;}
	.st3{fill:#FBC4C5;}
	.st4{fill:#1A2650;}
	.st5{fill:#1B142E;}
	.st6{fill:#D1865C;}
	.st7{fill:#2F3994;}
	.st8{fill:#3544B1;}
	.st9{fill:#944848;}
	.st10{fill:#FBA0A2;}
	.st11{fill:#C1A88A;}
	.st12{fill:#666E8A;}
	.st13{opacity:0.97;fill:#FFFFFF;enable-background:new    ;}
	.st14{fill:#363142;}
	.st15{fill:#371B21;}
	.st16{fill:#FF7D84;}
	.st17{fill:#8768B1;}
	.st18{fill:#C5743A;}
	.st19{fill:#5955A1;}
	.st20{fill:#FFEDD6;}
	.st21{fill:#FDC62E;}
	.st22{opacity:0.9;fill:#FF9412;enable-background:new    ;}
	.st23{fill:#FF9412;}
	.st24{fill:#E3CCE0;}
	.st25{fill:#AC5C20;}
	.st26{fill:#AC5420;}
	.st27{fill:#51C9FF;}
	.st28{fill:#FFC91D;}
	.st29{fill:#2C3994;}
	.st30{fill:#FAD634;}
	.st31{fill:#156B5D;}
	.st32{fill:#FFFFFF;}
	.st33{fill:#371C21;}
	.st34{fill:#000230;}
	.st35{fill:#FBA586;}
	.st36{fill:#FFADA2;}
	.st37{fill:#9B7D7C;}
	.st38{fill:#FDCBC5;}
</style>
<g id="Layer_9">
	<rect x="-2" y="0.1" class="st0" width="3844.1" height="2279.9"/>
</g>
<g id="Flow_shadow">
	<path class="st1" d="M1768.7-200.9c-158.2,145.1-154.3,244.3-342,390.1l0,0c-47.9,29.4-71.8,74.6-176.5,122
		c-40.9,18.5-19.6,3.6-149.3,47.5c-45.6,15.4-96,33.1-148.9,14.3c-1.3-0.5-2.4-0.9-3.3-1.2c-41.2-16.4-47.8-42.8-104.7-66
		c-20.9-8.5-57.1-22.8-103.8-18.1c-11,1.1-93.6,10.5-125.1,70.4c-0.8,1.6-1.4,2.8-1.8,3.5c-29.5,60.1-22.3,136.1,10.2,190.8
		c65.1,109.5,197.5,66.8,261.3,176.1c32.6,55.9,42.9,148.4,0.6,193.5c-81.9,87.5-292-75.9-427.7,28
		c-61.9,47.3-71.2,121.6-72.7,136.3c-11.3,107.8,71.4,223.7,211.3,284c40.6,17.5,91.7,21,95.4,11.4c3.7-9.4-40.7-24.4-77.8-65.4
		c-36.8-40.7-68.7-109.2-57.4-185.6c0.1-0.8,0.3-2,0.5-3.6c9-56.3,42.2-119.7,93.7-147.5c32.3-17.4,61.7-15.3,113.6-11.5
		c118.4,8.7,143.1,55.2,209.8,40.5c49.7-11,99.6-50.9,114.5-103.3c24.2-84.5-53.8-161.8-58.5-166.3c-50.6-48.7-88.3-30.5-122.7-77.6
		c-30.4-41.6-34.3-101.6-15.3-149.7c23.8-60.2,79.3-85.4,102.7-95.9c38.5-17.4,72.7-17.3,140.7-17.9c42.9-0.4,83.5-0.7,131.1,8.7
		c107.8,21.1,126.1,68.2,197.4,81.1c53.9,9.7,100.1-6.7,213.6-68.1c286.7-155,289.3-210.8,401.7-227.8
		c122.1-18.4,272,24.3,334.5,123c32.6,51.5,40.3,116.2,41.6,129.1c8.5,87.4-18.9,106.4-16.6,176.3c0.3,9.2,7,152.4,101.2,210.4
		c106.9,90.3,354-20.9,465.4,112.8c84,100.8,40.3,280.2,26.4,337.2c-23.8,97.6-69.2,164.7-86.3,188.6
		c-90.9,126.2-173.7,122-281.7,227.2c-23.9,23.2-144.1,140.3-170.4,313.5c-39.7,261.4,162.8,463.1,174.9,474.8h1183.9L3878.4-36"/>
</g>
<g id="Layer_5">
	<path class="st2" d="M521.8,1470.6c3.2-1.7,33.4-17.4,65.2-5.9c50.7,18.2,68.8,91.8,61.3,144.3c-7.3,50.9-43.6,116.5-91,116.7
		c-37.4,0.1-63.6-40.7-69.2-49.4C446.5,1611.2,461.3,1503.1,521.8,1470.6L521.8,1470.6z"/>
	<path class="st3" d="M702.7,1472.6c0,0,19.8,34.5,24.8,61.6s20.5,49.4,30.8,56.3c10.3,6.9,96.3,22.4,96.3,22.4l36.1,3.4l-3.2,30.5
		c0,0-89.7-1.3-127.5-4.7s-55-25.8-65.3-61.9c-10.3-36.1-32-72.2-32-72.2L702.7,1472.6"/>
	<path class="st4" d="M-187.9,1972.5c3.2-19.1,47.4-48.9,677-47.7c823,1.6,549.9,0,671.9,5.1c122.2,5.1,240.6-3.3,290.2,56
		c35,41.9,24.8,99.8-5.1,152.7c-102.7,182-533.2,126.9-809.4,91.6c-216.5-27.7-359.9-73.4-463.2-106.9
		C55.5,2085-196,2020.6-187.9,1972.5z"/>
	<path class="st5" d="M683.5,2020.4c-97.4-49.9-40.1-163.4-40.1-163.4h-49.2c0,0,57.3,113.5-40.1,163.4
		c-69.2,35.4,11.9,39.6,64.7,39.1C671.6,2060,752.7,2055.8,683.5,2020.4L683.5,2020.4z"/>
	<path class="st6" d="M818.1,2026.3c-0.7-5.4,1.6-20.1,1.6-20.1l-28.3-1.8c0,0-3.5,18.7-4.1,24.9c-0.2,2.2-4.4,14.2-4.4,14.2
		s-7.1,23.5,6.9,25.7c4.1,0.7,11.2,0.5,15.1,0.9l13.3-2.8l18.5,5.7l29,0c17.9,1.8,3.1-13-9.7-14.3
		C840.7,2052.2,820.2,2042,818.1,2026.3L818.1,2026.3z"/>
	<path class="st2" d="M740.1,1797.6c1.7,3.1,16.9,32.5,5.8,63.5c-17.7,49.4-89.3,67-140.5,59.7c-49.6-7.1-113.4-42.4-113.5-88.5
		c-0.1-36.4,39.6-61.9,48.1-67.4C603.2,1724.2,708.4,1738.6,740.1,1797.6L740.1,1797.6z"/>
	<path class="st7" d="M630.9,1829.4c0,0,107.7,15.4,146,0c0,0-4.7,24.2-4.7,60.3s18.9,116.9,18.9,116.9l29.2,3.4
		c0,0,29.2-166.8,29.2-190.9s14.3-67-25.5-70.5c-39.8-3.5-193.1-3.8-193.1-3.8L630.9,1829.4L630.9,1829.4z"/>
	<path class="st6" d="M943.9,1954.8c-3.4-4.2-9-18-9-18l-25.1,13.1c0,0,6.7,17.8,9.4,23.5c0.9,2,3.6,14.5,3.6,14.5
		s6.1,23.8,19.2,18.4c3.8-1.5,9.9-5.4,13.4-7l9.9-9.2l18.8-4.7l24.8-15c16.3-7.7-4-12.8-15.8-7.2
		C976.6,1965.3,953.8,1967.2,943.9,1954.8L943.9,1954.8z"/>
	<path class="st8" d="M619.1,1724.6c-22.8,8.4-27.9,11.3-43,13.8c-16.2,2.7-30.2,0-43.1-5.1c-0.8,4.2-1.3,8.3-1.6,12
		c-1.7,22.4,3.4,41.3,10.3,56.8c6,13.4,18.7,32.6,74.7,34.3s105.9-36.1,128.2-48.1c22.4-12,63.6-22.4,63.6-22.4s10.3,12,20.6,51.6
		c10.3,39.6,18.9,53.3,39.6,84.3c20.6,30.9,41.3,53.3,41.3,53.3s5.2,1.7,15.5-1.7s13.8-10.3,13.8-10.3s-23.9-63-43-120.4
		c-18.9-56.8-26.4-91.7-35.6-113.8c-9.1-22.1-50.4-15.2-88.2-11.8c-33.3,3-61.5,9.6-77.1,11.4c-1.2,0.2-2.5,0.4-3.8,0.7
		C672.4,1712.5,649.2,1713.5,619.1,1724.6L619.1,1724.6z"/>
	<path class="st6" d="M702.8,1315.6c0,0,24.9,15.4,19.1,50.9c-2.8,17-9.7,39.1-10,43.8s-4.6,26.8-17.1,26.9
		c-13.3,0.1-22.3-3.8-22.3-3.8s-5,20.5,1.2,24.3c0,0-0.6,11.9-3,12.4c-11.7,2.1-48-5.3-68.1-26.9c0,0,7.8-13.8,9.7-25
		c1.8-11.2,10-44,20.7-56.1C643.6,1349.9,702.8,1315.6,702.8,1315.6L702.8,1315.6z"/>
	<path class="st9" d="M716.4,1311.8c0,0-27.3-9.6-57.4-16.9c-30.2-7.3-49.2,2.6-48.2,15.9c1,13.3-2.6,32.5-18.8,34.6
		s-51.4,18.6-35,39.1c16.5,20.5,41.2,34.1,23.5,42.7c-17.7,8.6-51.3,5.5-67.9,22.2c-16.6,16.7-2.9,42.7-2.9,42.7l14.7,36.4
		l61.4-65.9c0,0,34.5-1.6,40.5-28.4c6-26.8-5.7-57.9,6.3-65.5s31.6,6.6,36-5.2c4.3-11.8,25.1-20.4,37-20.8
		C732.2,1341.8,734.8,1317.5,716.4,1311.8L716.4,1311.8z"/>
	<path class="st10" d="M676.3,1676.2c0,0,24.9-100.7,27.8-119.3c4.3-27.3,4.1-30.4,4.9-47.3c0.4-8.7,6.4-37-21.3-47.3
		c-7.1-2.7-12.7-5.1-15.3-5.9c-1.3-0.4,1.7,1.7-10.3,3.4c-5.8,0.8-17.2,1.7-29.2-1.7l-18.2-5.6c0,0-4.2,2.1-7.6,3.9
		c-8.3,4.1-17.3,5.9-17.3,5.9c-13.6,1-49.7-4.2-53.2,42.2s8.6,184,8.6,184s-8.3,23.8-12.1,44.7c12.9,5.2,26.8,7.8,43.1,5.1
		c15.1-2.5,20.2-5.3,43-13.8c30.2-11.1,53.3-12,72.2-15.5c1.3-0.2,2.5-0.5,3.8-0.7c-2.1,0.2-4,0.4-5.7,0.4
		C675.8,1709.1,676.3,1676.2,676.3,1676.2L676.3,1676.2z"/>
	<path class="st11" d="M1248.5,1654.1c-1.1-6.4-16-10.7-228.7-10.3c-278,0.5-185.8,0-227,1.7c-41.3,1.7-81.3-1.1-98,18.9
		c-11.8,14.1-8.4,33.7,1.7,51.6c34.7,61.5,180.1,42.9,273.4,30.9c73.2-9.4,121.6-24.8,156.5-36.1
		C1166.3,1697.9,1251.2,1670.3,1248.5,1654.1L1248.5,1654.1z"/>
	<path class="st4" d="M737.7,1657c-1.3-0.1-1.2-8.1-1.2-8.1l104.5-9.1c3.1-0.2-0.1,16.1,0.1,18l0.3,2c0.3,1.9-1.9,3.6-4.9,3.9
		c-0.1,0-0.2,0-0.3,0L737.7,1657L737.7,1657z"/>
	<path class="st3" d="M801.6,1645c0,0-107,7.1-122.3,6.1c-22.4-1.4-40.8-4.7-63-30.2c-42.2-64.5-46.1-43.4-72.5-98l-4.5-16.8
		c-1.2-13.2-2.6-33.6,26.4-41.6l14-2.1c8,0.2,20.1,5.8,22.8,13.3c27.6,51.1,35.3,108.8,54.8,118.7c15.7,16.9,42.2,21.9,77.4,19.2
		s59.2,3.6,59.2,3.6L801.6,1645z"/>
	<path class="st6" d="M771.1,1646.8c0,0,13.7-0.1,36.8-0.5c9.8-0.1,17-3.4,24.1-1.6c7.1,1.8,36.1-5.3,34.5-19.8
		c-1.6-14.4-18.2-6.4-24.3-10.9c-6.1-4.4-14.8-5.9-28.6,0s-25.2,0.5-36.6,0.6C768.2,1614.7,771.1,1646.8,771.1,1646.8L771.1,1646.8z
		"/>
	<path class="st12" d="M845.6,1664l112.2-6.5c12.5-1.5,17.3-3.9,20.6-25.8l8.9-86.8c1.7-23-0.2-22.8-13.1-23.4l-112.4-6.6
		c-17.1,0.4-17.9,0.6-20.1,20.7l-10.1,107.6C829.4,1664.6,832.4,1665.9,845.6,1664L845.6,1664z"/>
	<path class="st13" d="M913.6,1574.9c0,0-13.3,1.1-11.6,18.6s19.4,18.2,25.7,9.5C934,1594.2,931.8,1570.8,913.6,1574.9z"/>
	<path class="st14" d="M911.1,1583.1c0,0-2.9,14.8,0.4,17.4c3.3,2.6,9.3,1,10.4-4.5s1-12.8,1-12.8h-2.5c0,0-0.6,7.6-1.2,10.2
		c-0.6,2.6-2.8,5.2-4.7,4c-1.9-1.2-2.1-3.4-1.9-6.2c0.2-2.8,0.4-8,0.4-8L911.1,1583.1L911.1,1583.1z"/>
	<g id="Layer_5-2">
		<path class="st10" d="M1030.3,1639.2c0,0-8.8,4.3-13.7-0.3s-4.3-13.2,0.3-15.8c4.6-2.6,15.8,0.3,15.8,0.3l-0.1,5.8
			c0,0-11.6-2.5-12.9-0.3s-1.5,7.9,3.1,7.4c2.8-0.4,5.6-1.1,8.3-2.1L1030.3,1639.2L1030.3,1639.2z"/>
		<path class="st10" d="M1028.1,1644.4c7.6,12.1,31.8,13.8,39.8,5c8-8.8,7.8-32.9,7.8-32.9l-49.4,1
			C1026.3,1617.5,1022.6,1635.6,1028.1,1644.4L1028.1,1644.4z"/>
		<path class="st9" d="M1067.1,1614.4c0,0-12.7-1-20-0.7s-18.8,2.8-20.8,3.9l0,0c0,0,7.6,2.8,13,3.3c6.2,0.5,17.7-0.7,23.4-1.4
			c9.4-1.1,13-2.9,13-2.9L1067.1,1614.4L1067.1,1614.4z"/>
		<path class="st15" d="M1062.7,1619.3c1.4-0.2,2.6-0.4,3.7-0.5c-3-0.6-6.9-1.1-11.5-1.1l-15.4,0.5l-7.8,1.1
			c2.4,0.7,5.3,1.4,7.7,1.6C1045.6,1621.3,1057.1,1620,1062.7,1619.3L1062.7,1619.3z"/>
	</g>
	<g id="Layer_5-3">
		<path class="st16" d="M828.2,504.9c0,0-10.8-2.9-11.6-10.6s6.1-14.7,12.1-13.4c6,1.2,13.4,12.2,13.4,12.2l-4.4,4.9
			c0,0-8.2-10.8-10.9-9.9s-7.3,5.7-2.9,8.7c2.7,1.8,5.7,3.3,8.8,4.4L828.2,504.9L828.2,504.9z"/>
		<path class="st16" d="M822.4,507.7c-2.5,16.2,17.1,35.8,30.7,34.3c13.6-1.6,31.5-22.6,31.5-22.6L841,483.1
			C841,483.1,824.2,496,822.4,507.7L822.4,507.7z"/>
		<path class="st9" d="M878.7,511.1c0,0-10.2-10.3-16.7-15.7s-18.4-11.8-20.9-12.3l0,0c0,0,4.4,8.2,8.8,12.6
			c5,5.1,15.9,12.7,21.3,16.4c9,6.1,13.4,7.3,13.4,7.3L878.7,511.1L878.7,511.1z"/>
	</g>
	<g id="Layer_5-4">
		<path class="st16" d="M1941.1,188.9c0,0-7.5,8.4-14.7,5.6s-10.3-12.1-6.5-16.9c3.8-4.8,16.9-6.4,16.9-6.4l2.4,6.2
			c0,0-13.4,2.3-13.8,5.2s1.8,9.1,6.4,6.6c2.9-1.6,5.5-3.6,7.9-5.9L1941.1,188.9L1941.1,188.9z"/>
		<path class="st16" d="M1940.9,195.4c13.3,9.5,39.7,1,44.5-11.8s-5.8-38.3-5.8-38.3l-52.1,22.3
			C1927.5,167.6,1931.3,188.5,1940.9,195.4L1940.9,195.4z"/>
		<path class="st9" d="M1969.5,146.8c0,0-13.9,4.4-21.6,7.8s-18.8,11-20.4,13l0,0l0,0c0,0,9.3-0.2,15.2-2.1
			c6.9-2.2,18.5-8.4,24.3-11.6c9.5-5.2,12.6-8.7,12.6-8.7L1969.5,146.8L1969.5,146.8z"/>
	</g>
	<g id="Layer_5-5">
		<path class="st16" d="M2442.4,649.6c0,0-4.9,12.4-14,12.3c-9.1-0.1-16.4-9.2-14.2-16c2.2-6.8,16.1-14.1,16.1-14.1l5.2,5.9
			c0,0-13.9,8.1-13.1,11.5c0.7,3.4,5.8,9.3,9.9,4.6c2.5-2.9,4.7-6.2,6.4-9.8L2442.4,649.6L2442.4,649.6z"/>
		<path class="st16" d="M2444.9,656.8c18.7,5.1,44.4-15.3,44.4-31.5c0-16.2-22.3-40.1-22.3-40.1l-48.5,46.3
			C2418.5,631.6,2431.4,653.1,2444.9,656.8L2444.9,656.8z"/>
		<path class="st9" d="M2456.5,591.1c0,0-13.6,10.6-20.7,17.6s-16.3,20-17.2,22.9l0,0l0,0c0,0,10.2-4.1,16-8.6
			c6.7-5.2,17.1-17,22.1-22.8c8.4-9.8,10.4-14.8,10.4-14.8L2456.5,591.1z"/>
	</g>
	<path class="st9" d="M1172.7,1597.2l20,4.6c0,0,15,37.1-5.2,55.8c-20.2,18.6-55,13.8-64.2-5.7s6-64.3,6-64.3L1172.7,1597.2
		L1172.7,1597.2z"/>
</g>
<g id="Flow">
	<path class="st2" d="M1223.2,1530.5c0,0-23.2-13.5-31.9,11.1s21,45.4,37.4,41.1C1245.2,1578.5,1256.7,1545.6,1223.2,1530.5z"/>
	<path class="st8" d="M3291.3,2233.7c-0.9,5.4-20.8,124.2-20.8,124.2l128,23.2l24.5-127.2L3291.3,2233.7L3291.3,2233.7z"/>
	<path class="st8" d="M2426,224c-3.5,2.3-81.4,53.6-81.4,53.6l48.7,78.2l84.9-53.2L2426,224L2426,224z"/>
	<path class="st3" d="M1008.6,801.5c-0.2,4.2-5.5,97.8-5.5,97.8l100.9,7.1l8.1-100.4L1008.6,801.5L1008.6,801.5z"/>
	<path class="st10" d="M2564.6,2103.9c0,0-100.9-18.3-120.3-35.4c-22.9-20.2-29.2-79.3,47-72.2c0,0,22.2-64.3,60.8-45.8
		c38.6,18.6,26.4,67.7,24.2,95.3C2574.1,2073.6,2564.6,2103.9,2564.6,2103.9z"/>
	<path class="st11" d="M984,943.6c0,0-33.4,6.5-24.7,35.6s39.1,24.7,49.5,8.2c10.4-16.5,0.4-30.8-8.2-38.2
		C991.8,941.9,984,943.6,984,943.6z"/>
	<path class="st17" d="M3175.5,1947.7c0,0-28.7,5.2-21.6,30.2c7.1,25,33.1,21.6,42.2,7.6c9.1-14,0.7-26.4-6.6-32.8
		S3175.5,1947.7,3175.5,1947.7L3175.5,1947.7z"/>
	<path class="st17" d="M3728.9,796.9c0,0-44.2,8.6-32.8,47.2c11.5,38.5,51.7,32.8,65.5,10.9s0.6-40.8-10.9-50.6
		C3739.2,794.6,3728.9,796.9,3728.9,796.9L3728.9,796.9z"/>
	<path class="st8" d="M749.1,174.1c-0.3,6.6-8.6,153-8.6,153l157.9,11.1L911.1,181L749.1,174.1L749.1,174.1z"/>
	<path class="st2" d="M1320.2,438.3c0,0-21.4-23.9-22.9-31.9c-1.8-9.4,8-25.2,25.5-8.8c0,0,17.9-11.6,23.8,0.4
		c5.9,12-6.5,21.8-12.4,28.2C1328.3,432.6,1320.2,438.3,1320.2,438.3L1320.2,438.3z"/>
	<path class="st18" d="M2612.4,383.3c0,0-23.8-16.6-26.7-23.3c-3.5-7.9,1.8-23.8,20.6-13c0,0,13.3-13.9,21-4.6
		c7.7,9.3-1.2,20.5-5,27.3S2612.4,383.3,2612.4,383.3L2612.4,383.3z"/>
	<path class="st19" d="M773.4,558c0,0-52.8-31.1-60.1-44.7c-8.7-16.1,0-50.5,41.3-30.8c0,0,25.7-31.5,43.5-13.1s0.8,43.4-6.1,58.4
		C784.9,543,773.4,558,773.4,558L773.4,558z"/>
	<path class="st19" d="M3806.5,1556c0,0,4.3-61.1,13.2-73.7c10.5-14.9,45.2-22.5,45.9,23.2c0,0,39.6,9,31.1,33.1
		c-8.5,24.1-38.5,20.1-55,20.6S3806.5,1555.9,3806.5,1556L3806.5,1556z"/>
	<path class="st10" d="M728.8,951.3c0,0-7.2-2.8-8.6,4.6s8.1,11.9,12.6,10S739.1,954.1,728.8,951.3z"/>
	<path class="st16" d="M1400,197.6c-7.6,4.5-12.8,15.9-12.8,15.9l0.1,0.3l-0.3-0.1c0,0-13.2-6.1-19.7-3.4
		c-6.5,2.7-18.1,15.4-18.1,15.4s-2.1,11.4,2.9,19.2c4.6,7.2,14.6,13.4,16,14.3l-0.2,0.4l0.7-0.3l44.4,18.4l18.5-45l-0.1-0.1l0.1,0
		l0.1,0c0,0,3.4-13,1.1-19.3s-14.5-16.7-14.5-16.7S1407.6,193.1,1400,197.6L1400,197.6z"/>
	<path class="st16" d="M2693.3,2280.2c-10.9-3.8-26.9,0.8-26.9,0.8l-0.2,0.4l-0.1-0.5c0,0-5.2-18.5-13.4-22.7
		c-8.2-4.2-30.9-5.1-30.9-5.1s-13.3,7.7-16.8,19.2c-3.3,10.7-1,26-0.7,28.3l-0.6,0.2l0.9,0.4l19.4,60.2l61-19.8l-0.1-0.2l0.1,0
		l0,0.1c0,0,15.9-7.7,20.3-15.4s4.3-28.8,4.3-28.8S2704.2,2284,2693.3,2280.2L2693.3,2280.2z"/>
	<path class="st19" d="M1007,785l46.3,5.2c0,0,2.4-24-13.9-37.6s-17.7-11.1-17.7-11.1L1007,785L1007,785z"/>
	<g>
		<path class="st8" d="M2715.2,530.7c0,0-59.1,47.6-3.4,96.8c55.7,49.2,140.6-7.6,146.2-55.9C2863.6,523.2,2789,457.6,2715.2,530.7
			L2715.2,530.7z"/>
		<path class="st20" d="M2725.6,564.8c0,0,27.2,55.9,49.7,52.9s46.1-27.8,36.4-49c-9.7-21.2-30.5-43.2-30.5-43.2l-11.7,8.3
			c0,0,18.2,25.8,22.6,35.8s1.3,25.4-11,27.9c-12.3,2.5-18.9-3.8-25.8-13.2c-6.8-9.3-20-26.4-20-26.4L2725.6,564.8L2725.6,564.8z"/>
	</g>
	<g id="Layer_47">
		<path class="st21" d="M447.1,931.7c0,0-6.3-15.9-13.5-20.6s-27.4-6.1-27.4-6.1s-13.4,4.2-17.8,14.5s-1,25.9-1,25.9l10.8,12.8
			l16.9,5.5l5.2,14.6l20.4-5.6l-3.9-17.9L447.1,931.7L447.1,931.7z"/>
		<path class="st8" d="M417.9,970.9l2.4,9.3c0.9,3.4,7.2,3.6,7.2,3.6l11-2.8l3.5-5.9l-3.2-12.3L417.9,970.9L417.9,970.9z"/>
		<polygon class="st21" points="377.7,916.7 356.7,912.3 357.4,906.6 375.5,911.2 		"/>
		<polygon class="st22" points="375.5,945.2 356.1,948.9 353.3,941.6 371.5,939.6 		"/>
		<polygon class="st22" points="389.8,899.1 380.4,878.1 386.8,874.7 393,894 		"/>
		<polygon class="st21" points="408.7,886 408.5,868 415.4,867.6 412.3,888.5 		"/>
		<polygon class="st22" points="438.5,897.6 451.2,887.2 454.9,891 440.4,902 		"/>
		<polygon class="st21" points="459.4,921 474.8,915.1 476.4,919.4 459.3,925.4 		"/>
	</g>
	<g id="Layer_47-2">
		<path class="st21" d="M1509.9,336.9c0,0,5.7-14.9,3.7-22.6c-2-7.7-15-21.4-15-21.4s-11.9-5.5-21.3-1.2c-9.5,4.3-17,17.1-17,17.1
			l-0.6,15.6l8.1,14.4l-5.6,13.3l17.5,9.1l8.6-14.8L1509.9,336.9L1509.9,336.9z"/>
		<path class="st8" d="M1465.2,345.4l-4.2,7.9c-1.6,2.9,2.6,7,2.6,7l9.4,5l6.1-1.8l5.6-10.5L1465.2,345.4L1465.2,345.4z"/>
		<polygon class="st21" points="1471.8,282.9 1460.2,266.7 1464.2,263.2 1473.7,277.8 		"/>
		<polygon class="st22" points="1452.3,301 1436.7,291.4 1439.4,284.6 1453.1,294.7 		"/>
		<polygon class="st22" points="1491.1,278.4 1497.9,258.2 1504.4,259.9 1496.5,277 		"/>
		<polygon class="st21" points="1512.3,281.3 1523.6,268.9 1528.6,273 1513.3,285.3 		"/>
		<polygon class="st22" points="1525.5,308.1 1540.8,309 1540.9,313.9 1524,312.4 		"/>
		<polygon class="st21" points="1525.1,337.3 1539.3,343 1537.7,347 1522.2,340.3 		"/>
	</g>
	<g>
		<path class="st10" d="M934.7,367.4l55.2,33.3c0,0,39.3,17.1,94.7,3.5l7.1,13.4c0,0-47.6,5.7-56,4.8c-8.5-0.9-40.6-6.6-40.6-6.6
			s-55.6-28-71.8-40.2L934.7,367.4L934.7,367.4z"/>
		<polygon class="st10" points="1062.3,386 1060.6,400.6 1084.5,408.6 1077.2,435.2 1095.7,441 1116.1,395.7 		"/>
	</g>
	<path class="st10" d="M428.3,1117.2c0,0-11.6-21.8-13.5-27.3s-7.8-28.3-9.3-36.1c-1.4-7.9-2.8-26.9-2.8-26.9l-7.4,7.9l-6.9-12.5
		l19.9-19.9l23.2,16.1l-9.3,11.4l-7.5-4.7c0,0,5.1,30.6,6.5,34.8c1.4,4.2,11,37.2,14,43.1c2.8,5.6,6.9,15.4,6.9,15.4L428.3,1117.2
		L428.3,1117.2z"/>
	<g>
		<path class="st16" d="M1829.3,145.4l17.7-26.5c0,0,23.1-22.1,73.6-18.5l0.7-14.7c0,0-39.6-3-46.2-0.9
			c-6.6,2.2-32.3,18.2-32.3,18.2s-21.9,23-30.5,36.9L1829.3,145.4L1829.3,145.4z"/>
		<polygon class="st16" points="1909,117.8 1903.9,107 1917.8,93.6 1907,77.3 1919,69 1945.9,99.4 		"/>
	</g>
	<path class="st23" d="M1886.3,45.5c0,0,0.7-3.8,0.8-5.6c-0.1-2.7-1.3-5.1-3.4-6.8c-2.1-1.4-7.5-0.8-9.2,1.3s-4.9,6.8-2.3,10.3
		C1874.8,48,1878.9,54.2,1886.3,45.5L1886.3,45.5z"/>
	<path class="st23" d="M2262.8-70.5c0,0,2.9-2.6,4.1-4c1.5-2.2,2.1-4.9,1.5-7.5c-0.8-2.4-5.4-5.2-8.1-4.6s-8.1,2.4-8.1,6.8
		C2252.2-75.5,2251.7-68.2,2262.8-70.5L2262.8-70.5z"/>
	<polygon class="st24" points="1814.7,369.7 1821.8,363.8 1814.6,356.5 1805.3,361.6 	"/>
	<polygon class="st10" points="2182.7,27.8 2184,37.2 2194.1,35.1 2194.7,24.4 	"/>
	<path class="st23" d="M463.9,845.7c0,0,0.7-3.8,0.8-5.6c-0.1-2.7-1.3-5.1-3.4-6.8c-2.1-1.4-7.5-0.8-9.2,1.3
		c-1.7,2.1-4.9,6.8-2.3,10.3C452.4,848.3,456.5,854.4,463.9,845.7L463.9,845.7z"/>
	<path class="st23" d="M735.4,580.3c0,0,0.7-3.8,0.8-5.6c-0.1-2.7-1.3-5.1-3.4-6.8c-2.1-1.4-7.5-0.8-9.2,1.3
		c-1.7,2.1-4.9,6.8-2.3,10.3C723.9,582.8,728,588.9,735.4,580.3L735.4,580.3z"/>
	<polygon class="st25" points="356.3,1021.3 365,1025.1 368.6,1015.4 359.7,1009.3 	"/>
	<polygon class="st10" points="598.3,1112.9 598.1,1103.5 587.7,1104.3 586,1114.9 	"/>
	<polygon class="st10" points="396.5,1236.4 403.3,1229.8 395.6,1222.8 386.6,1228.7 	"/>
	<polygon class="st1" points="411.9,1319.8 407.3,1328.1 416.6,1332.7 423.5,1324.5 	"/>
	<path class="st8" d="M411.3,1086.7c0,0,2.9-2.6,4-4c1.5-2.2,2.1-4.9,1.5-7.5c-0.8-2.4-5.4-5.2-8.1-4.6s-8.1,2.4-8.1,6.7
		S400.2,1089.1,411.3,1086.7L411.3,1086.7z"/>
	<polygon class="st16" points="304.4,1100.8 313.8,1099.9 312.3,1089.7 301.6,1088.7 	"/>
	<polygon class="st5" points="564.5,1187.6 567.8,1196.5 577.3,1192.4 575.5,1181.8 	"/>
	<path class="st8" d="M2607.2,712.7c0,0-0.5-11.7-1-15.3l-11.3-3.8l1.5,11.8C2596.4,705.4,2602.1,710.3,2607.2,712.7L2607.2,712.7z"
		/>
	<path class="st9" d="M3097.6,1373.7c1.4-1.3,2.8-2.6,4.1-4c1.5-2.2,2.1-4.9,1.5-7.5c-0.8-2.4-5.4-5.2-8.1-4.6s-8.1,2.4-8.1,6.7
		S3086.4,1376.1,3097.6,1373.7L3097.6,1373.7z"/>
	<path class="st8" d="M1721,315.9c0,0,2.9-2.6,4.1-4c1.5-2.2,2.1-4.9,1.5-7.5c-0.8-2.4-5.4-5.2-8.1-4.6s-8.1,2.4-8.1,6.7
		C1710.4,311,1709.9,318.4,1721,315.9L1721,315.9z"/>
	<polygon class="st18" points="535.3,404 530.7,412.2 540,416.8 546.9,408.6 	"/>
	<polygon class="st26" points="2818.1,802.3 2808.7,802.4 2809.4,812.7 2820,814.6 	"/>
	<polygon class="st22" points="2501.1,248.6 2492,245.8 2489.6,255.9 2499.1,260.9 	"/>
	<polygon class="st24" points="3200,1005.8 3191.3,1003.1 3188.9,1012.8 3198,1017.7 	"/>
	<polygon class="st16" points="968,912.8 969.4,922.1 979.5,920.1 980.1,909.4 	"/>
	<polygon class="st10" points="790.8,566 800,567.9 801.5,557.7 791.6,553.6 	"/>
	<polygon class="st10" points="597.9,578.9 606.3,574.5 601,565.6 590.7,568.6 	"/>
	<path class="st23" d="M910.1,710c0,0,0.7-3.8,0.8-5.6c-0.1-2.7-1.3-5.1-3.4-6.8c-2.1-1.4-7.5-0.8-9.2,1.3s-4.9,6.8-2.3,10.3
		C898.6,712.5,902.7,718.6,910.1,710L910.1,710z"/>
	<path class="st10" d="M848.6,953.1l32.7,5.4l24.8-5.9c0,0,18.8-14.8,26.3-26.6l5.4,12.9l13.6-1l-2.4-26.5l-7.4-25.7l-38.7,20.8
		l6.5,11.9l12.9-2.2c0,0-13.7,15.4-19.9,18.1s-26.6,6.4-26.6,6.4s-35.1-3.4-44.9-6L848.6,953.1L848.6,953.1z"/>
	<path class="st10" d="M825.4,364.7c-2.3-4.8-53.8-111.7-53.8-111.7L655.6,307L708,423.2L825.4,364.7z"/>
	<path class="st3" d="M2319.9,48.5c5.2,1.5,119.4,35.9,119.4,35.9l38.7-122.9l-121.9-39.9L2319.9,48.5L2319.9,48.5z"/>
	<path class="st8" d="M1459.2,395.4c-3.9,1.1-90.8,25.6-90.8,25.6l25.2,94.1l93.9-24.1L1459.2,395.4L1459.2,395.4z"/>
	<path class="st23" d="M2372.9,191c0,0,2.9-2.6,4.1-4c1.5-2.2,2.1-4.9,1.5-7.5c-0.8-2.4-5.4-5.2-8.1-4.6s-8.1,2.4-8.1,6.8
		C2362.3,186.1,2361.8,193.4,2372.9,191L2372.9,191z"/>
	<polygon class="st18" points="970.6,422.2 965.9,430.5 975.2,435 982.2,426.8 	"/>
	<polygon class="st27" points="2569.7,284.8 2578.7,281.7 2574.8,272.1 2564.2,273.6 	"/>
	<polygon class="st24" points="1653.3,192.5 1648.6,200.8 1657.9,205.4 1664.9,197.2 	"/>
	<polygon class="st24" points="1006.8,706.6 1015,711.2 1019.6,701.9 1011.4,695 	"/>
	<polygon class="st24" points="289.3,880.3 298.7,881.1 298.9,870.7 288.6,867.9 	"/>
	<polygon class="st24" points="490.7,873.8 495,882.3 504,877 500.9,866.7 	"/>
	<polygon class="st24" points="765.9,621.3 774,616.3 768.1,607.8 758,611.6 	"/>
	<polygon class="st27" points="693.3,611.1 699.4,607.3 694.9,600.8 687.3,603.7 	"/>
	<path class="st27" d="M927.5,877.3c0,0,0.7-3.8,0.8-5.6c-0.1-2.7-1.3-5.1-3.4-6.8c-2.1-1.4-7.5-0.8-9.2,1.3
		c-1.7,2.1-4.9,6.8-2.3,10.3C916,879.8,920.1,885.9,927.5,877.3L927.5,877.3z"/>
	<path class="st21" d="M952.9,819l-3.8-3.7c0,0-5.4-1-5.1,2.4s-1.8,6.7-3.4,11s-7.4,16.2-2.8,22.3c4.6,6.1,9.6,20.1,16.8,22.4
		s10.5,0.7,10.5,0.7s6.6,3.6,7.6,0.9s-0.2-6.8-0.2-6.8c4.6-5.2,7.1-12,6.9-18.9c-0.4-11.5-6-17.7-11.2-22.7
		C963.1,821.6,952.9,819,952.9,819L952.9,819z"/>
	<g>
		<path class="st23" d="M1607.6,329.8c0,0,3.1-4.2,5.9,0.3s3.9,9.7,1.8,14.2s-1.2,11.4-1.6,15.3s-5.1,21.9-18.9,15.4
			c-9.5-4.4-14.8-12.2-13.5-16.8c1.2-4.6,2.3-8.6,10.4-12.8s12.8-7.7,13.7-9.8S1607.6,329.9,1607.6,329.8L1607.6,329.8z"/>
		<polygon class="st9" points="1609.4,333.2 1610.3,325 1615.9,320.4 1617.5,322.2 1613.4,327.4 1613.5,334.5 		"/>
	</g>
	<polygon class="st2" points="816.7,608.8 831.6,609.2 839.9,586.7 864,590.8 867.4,572.9 819.3,557.5 	"/>
	<path class="st28" d="M477.5,1035.5l0.2-3.8c0,0-2-3.4-3.8-1.6c-1.7,1.8-4.5,2.2-7.6,3.4s-12.3,3.7-13.4,9.2s-6.3,14.8-4.1,19.8
		s4.6,6,4.6,6s1.2,5.3,3.1,4.6s3.6-3.4,3.6-3.4s7.5,0.4,13.5-5.3c6.1-5.7,6.7-11.7,6.9-16.9S477.5,1035.5,477.5,1035.5L477.5,1035.5
		z"/>
	<g>
		<polygon class="st9" points="842.1,378.8 845.3,354 851.1,365.9 862.6,349.5 862.1,365.8 873.7,359.7 861,392.1 		"/>
		<path class="st23" d="M856.7,384c0,0-17.1-8.7-23-7S809,398.9,809,398.9s-11.2,27.7-10.3,38.4c0.8,10.7,7.9,17.3,15.8,22.2
			s27.9,1,27.9,1s20.3-8.5,30.5-50.2C876.1,397,856.7,384,856.7,384z"/>
		<g>
			<polygon class="st25" points="834.7,387.8 824.5,394 830.3,403.3 840.3,395.5 			"/>
			<polygon class="st25" points="819.4,403 813.5,407.8 815.5,413.8 822.5,408.9 			"/>
			<polygon class="st25" points="835.9,407.6 827.7,413.9 832.3,421.2 837.9,414.2 			"/>
			<polygon class="st25" points="820.1,416.8 809.5,423.6 815.2,432.5 824.1,424.5 			"/>
			<polygon class="st25" points="827.2,433.3 821.8,439.9 825.1,445.9 835.4,439.9 			"/>
			<polygon class="st25" points="813.4,439.4 808,443.9 810.6,448.6 815.6,444.7 			"/>
			<polygon class="st25" points="854.3,389.1 845.7,393.9 842.9,404.3 854.6,401.5 			"/>
		</g>
		<g>
			<polygon class="st25" points="859.7,404.6 851.5,410.8 856.1,418.2 861.6,411.2 			"/>
			<polygon class="st25" points="842.2,440.4 836.9,446.9 840.2,453 850.4,446.9 			"/>
			<polygon class="st25" points="855.8,427.9 850.3,432.4 853,437.1 858,433.2 			"/>
			<polygon class="st25" points="846.9,417.6 838.3,422.5 835.4,432.9 847.2,430 			"/>
		</g>
	</g>
	<g>
		<path class="st2" d="M513.7,1103.1c0,0,3.9-4,5.5-6.2s2.8-7.6,1.4-11s-8.4-7-12.2-5.8c-3.8,1.2-11.5,4.3-11,10.6
			S497.8,1107.7,513.7,1103.1L513.7,1103.1z"/>
		<path class="st9" d="M508.4,1080.1c0,0,2.1-9.1,1.3-11.9s-3.2-7.9-3.2-7.9l-3.7,15.3c-4.2-2.2-3.3-4.1-9.1-3.7
			c-1.8,0.1-6,0.3-6,0.3s8.2,8.5,15.8,9.8L508.4,1080.1L508.4,1080.1z"/>
	</g>
	<path class="st8" d="M523.5,871.5c-1.4,3.5-33.1,81.7-33.1,81.7l83.9,35.3l36.1-83.1L523.5,871.5L523.5,871.5z"/>
	<path class="st10" d="M502.3,1002.1c0,0,13.8-13.8-1.8-24.5c-15.6-10.7-35.7,6.3-35.8,18.6S485.5,1022.8,502.3,1002.1L502.3,1002.1
		z"/>
	<path class="st8" d="M1007,933.9c1.9,2,43.9,46.3,43.9,46.3l44.8-40.4l-44.1-48.6L1007,933.9L1007,933.9z"/>
	<path class="st16" d="M533.5,1152.7c-2.2-2.3-49.9-53.9-49.9-53.9l-56.3,50.8l50,56.6L533.5,1152.7L533.5,1152.7z"/>
	<path class="st3" d="M486.3,1244.4c2.1,0.6,48.4,14.6,48.4,14.6l15.8-49.8l-49.4-16.2L486.3,1244.4L486.3,1244.4z"/>
	<g id="Layer_26">
		<polygon class="st18" points="472,1215.8 471.5,1253.5 453.3,1235 		"/>
	</g>
	<g>
		<polygon class="st20" points="1573.5,310.7 1643.7,284.8 1611.8,188.5 1545.5,216.6 		"/>
		<polygon class="st19" points="1579.7,290.5 1626.8,272 1605.4,200.3 1556.6,222.5 		"/>
		<path class="st19" d="M1606.1,284.5c0,0-1.6,4.6,1.4,5.3S1614.6,283,1606.1,284.5z"/>
	</g>
	<g>
		<path class="st8" d="M621.3,942.7l37.1,30l16.3-22.9L640,920.9c-1.3-1.1-3.2-0.9-4.3,0.3l-14.8,16.9
			C619.7,939.5,619.9,941.5,621.3,942.7C621.2,942.6,621.2,942.6,621.3,942.7L621.3,942.7z"/>
		<polygon class="st4" points="627.3,941.7 650.3,959.9 660.9,945 639.3,926.2 		"/>
		<path class="st4" d="M658.3,954.3c0,0-1.7,4.1,1,4.8C661.8,959.9,665.9,953.3,658.3,954.3z"/>
	</g>
	<g>
		<path class="st19" d="M888.2,444.4c0,0-13.9,21.8-21.8,26.7l8.1,10.5c0,0,20.8-18.9,22.7-30.8L888.2,444.4L888.2,444.4z"/>
		<path class="st19" d="M904,442c0,0,11.1-17.5,36.4-11.8l2.6-13.9l-23.9-1.1c0,0-21.2,0.9-21.8,22.2L904,442L904,442z"/>
		<path class="st20" d="M913.3,428.2c0,0-6.7-14.9-19.9-6c-13.2,8.9-6.1,29.6,3.7,33.4C906.8,459.5,924.5,447.5,913.3,428.2
			L913.3,428.2z"/>
		<path class="st29" d="M909.2,431.7c0,0-4.3-9.5-12.8-3.8c-8.5,5.7-3.9,19,2.4,21.4C905,451.7,916.3,444,909.2,431.7L909.2,431.7z"
			/>
		<path class="st19" d="M895.7,423.4c0,0,1.2-3.3-2.1-3.9s-5.4,3.6-4.5,5.6C889.9,427.2,894.5,428,895.7,423.4L895.7,423.4z"/>
	</g>
	<g>
		<polygon class="st30" points="459.6,1262 496.2,1281.1 493.7,1287.8 454.9,1272.2 		"/>
		<polygon class="st11" points="496.2,1281.1 502.1,1286.9 493.7,1287.8 		"/>
		
			<rect x="501.6" y="1286.2" transform="matrix(0.3112 -0.9504 0.9504 0.3112 -877.1127 1363.3312)" class="st26" width="0.7" height="1"/>
	</g>
	<g>
		<polygon class="st30" points="776,437.5 710.6,456.3 706,445.7 769.9,419.9 		"/>
		<polygon class="st11" points="710.6,456.3 697,456.3 706,445.7 		"/>
		
			<rect x="696.7" y="455.6" transform="matrix(0.9015 -0.4327 0.4327 0.9015 -128.6954 346.722)" class="st26" width="1.6" height="1.2"/>
	</g>
	<g>
		<polygon class="st30" points="3511,764.1 3538.7,696.3 3550.8,699.5 3529.8,770.7 		"/>
		<polygon class="st11" points="3538.7,696.3 3547.9,684.8 3550.8,699.5 		"/>
		
			<rect x="3546.5" y="684.4" transform="matrix(0.2207 -0.9753 0.9753 0.2207 2096.3491 3993.7771)" class="st26" width="1.7" height="1.2"/>
	</g>
	<g>
		<polygon class="st16" points="1229.7,317.1 1261.2,383.2 1250.7,390.1 1212.1,326.7 		"/>
		<polygon class="st11" points="1261.2,383.2 1263.6,397.7 1250.7,390.1 		"/>
		
			<rect x="1262.9" y="396.3" transform="matrix(0.8186 -0.5744 0.5744 0.8186 1.1273 797.8551)" class="st26" width="1.2" height="1.7"/>
	</g>
	<g>
		<polygon class="st8" points="3208.9,97.1 3149.7,67.8 3153.3,57.1 3216,80.5 		"/>
		<polygon class="st11" points="3149.7,67.8 3139.9,58.9 3153.3,57.1 		"/>
		
			<rect x="3139.6" y="58.2" transform="matrix(0.289 -0.9573 0.9573 0.289 2176.0623 3048.061)" class="st26" width="1.1" height="1.5"/>
	</g>
	<g>
		<polygon class="st8" points="2263.8,49.1 2337.8,31.1 2342.5,43.2 2269.8,69 		"/>
		<polygon class="st11" points="2337.8,31.1 2353,31.7 2342.5,43.2 		"/>
		
			<rect x="2351.7" y="31.1" transform="matrix(0.9191 -0.3939 0.3939 0.9191 177.7242 929.3508)" class="st26" width="1.8" height="1.3"/>
	</g>
	<path class="st8" d="M968.8,692.5c-4.9,2.9-8.2,10.3-8.2,10.3l0.1,0.2l-0.2-0.1c0,0-8.5-3.9-12.7-2.1s-11.6,9.9-11.6,9.9
		s-1.3,7.4,1.9,12.3c2.9,4.6,9.4,8.6,10.3,9.2l-0.1,0.3l0.4-0.2l28.6,11.8l11.8-29l-0.1,0l0.1,0l0.1,0c0,0,2.2-8.4,0.6-12.4
		c-1.5-4.1-9.4-10.7-9.4-10.7S973.6,689.6,968.8,692.5L968.8,692.5z"/>
	<g>
		<path class="st8" d="M3544.4,69.8l-23.6,59.6l35.9,11.8l23.2-56c0.9-2.1-0.1-4.5-2.1-5.4l-27.7-12.3c-2.1-0.9-4.6,0-5.5,2.1
			C3544.4,69.7,3544.4,69.7,3544.4,69.8L3544.4,69.8z"/>
		<polygon class="st4" points="3548,77.1 3533.9,113.9 3557.2,121.6 3572.7,86.4 		"/>
		<path class="st4" d="M3544.3,121.9c0,0-5.9-0.5-5.8,3.2S3548.6,131.3,3544.3,121.9z"/>
	</g>
	<polygon class="st10" points="625,267.3 634.3,269.2 635.8,259 625.9,254.9 	"/>
	<polygon class="st27" points="586.6,1010.5 590.2,1016.7 596.8,1012.4 594.1,1004.7 	"/>
	<path class="st2" d="M459,1209.8c0,0-11.8-15.6-15.4-17.7c-3.6-2.1-19.9-10.4-19.9-10.4h-22l9.2-9.5l-9.1-4.6l-12.5,19.3l20,13.3
		l2-6.6l-5.5-5.5c0,0,17.7,0.9,22.3,3.4s21,14,23.5,25.8L459,1209.8L459,1209.8z"/>
	<path class="st23" d="M497.7,1026.2l33.4,51.2c0,0,26.2-17.7,26.5-45.5s-3.6-27.2-3.6-27.2L497.7,1026.2L497.7,1026.2z"/>
	<path class="st16" d="M3604.1,1801.9c-4-5.1-91.6-117.8-91.6-117.8l-110.2,80.7l91.6,123.1L3604.1,1801.9L3604.1,1801.9z"/>
	<g>
		<path class="st2" d="M1667.9,164.1c0,0,5.4-1.6,7.8-2.7s6.2-5.2,6.7-8.8c0.5-3.7-3.7-10.3-7.7-11.1s-12.1-2-14.9,3.7
			S1651.7,160.1,1667.9,164.1L1667.9,164.1z"/>
		<path class="st18" d="M1674.7,141.5c0,0,6.4-6.9,7.1-9.7c0.7-2.8,1.2-8.5,1.2-8.5l-10.9,11.4c-2.5-4-0.8-5.2-6-7.7
			c-1.6-0.8-5.3-2.7-5.3-2.7s2.8,11.4,8.8,16.4L1674.7,141.5L1674.7,141.5z"/>
	</g>
	<g>
		<path class="st16" d="M867.8,664c0,0,2.7-4.9,3.7-7.4c0.9-2.5,0.7-8-1.5-11c-2.2-2.9-9.9-4.6-13.3-2.4s-9.9,7.2-7.9,13.1
			S853.7,672.7,867.8,664L867.8,664z"/>
		<path class="st9" d="M856.7,643.2c0,0-0.3-9.4-1.8-11.8s-5.2-6.8-5.2-6.8l0.4,15.8c-4.6-1-4.2-3.1-9.7-1.2
			c-1.7,0.6-5.7,1.8-5.7,1.8s10.1,6,17.8,5.3L856.7,643.2L856.7,643.2z"/>
	</g>
	<polygon class="st16" points="1126,863.9 1127.9,869.8 1134.4,865 1133.6,857.6 	"/>
	<g>
		<path class="st8" d="M1139.4,337.3c0,0-20.8,15.9-10.7,42.7s49.8,26.8,60.9,13.1c7.6-9.3,23.5-35.1,5.6-54.4
			S1151.8,325.9,1139.4,337.3L1139.4,337.3z"/>
		<path class="st20" d="M1145.7,332.6c0,0,3.7,5.4,4.5,9.6s0.5,8.5-4.2,9.3c-1.9,0.3-6.4-2.9-7.1-1c-1,2.7-3,5-0.1,7.6
			c1.9,1.7,4.2,5.2,5.1,7.1c0.5,1,0.4,2.2-0.1,3.1c-1,1.7-1.3,2.5-4.3,2.5c-2.7-0.1-5.4-4.9-5.4-4.9s-4.5,4.2-1.9,7.7
			s-1.1,11.4-1.1,11.4S1111,353.5,1145.7,332.6L1145.7,332.6z"/>
		<path class="st20" d="M1174.5,334.4c0,0-7.5,2.1-8.5,4.7l-3.3,8.3l4,6.7c0,0-11.6-0.7-12,2.8s-3.6,5.9,1.9,9
			c5.4,3.2,13.8,3.4,13.8,3.4s-0.7,6.3-4.7,6.6c-4,0.2-11.6-1.3-11.3,3.3s5.2,11.3,5.2,11.3s6.6,2.4,12.1,0.2
			c5.4-2.3,8.1-5.1,7.7-11c-0.4-5.9,0-10.1,0-10.1s2.2-3.4,5-4.2s7.2,4.9,7.2,4.9s4.2-1.4,5.8-4s6.1-6.2,6.1-6.2s1.8-7.8-5.6-18.5
			c0,0-5.9,1-8,2.3s-6.4,3.4-6.4,3.4s-3.3-4.2-4.3-6.4S1179.7,335.3,1174.5,334.4L1174.5,334.4z"/>
	</g>
	<g>
		<path class="st8" d="M3007,1049.6c0,0-45.9,34.1-24.6,92.8c21.2,58.6,107.8,59.8,132.4,30.5c16.9-20.1,52.3-75.9,13.9-118.5
			C3090.3,1011.7,3034.3,1025.1,3007,1049.6z"/>
		<path class="st20" d="M3020.8,1039.6c0,0,7.9,11.9,9.5,21.1s-3.7,18.9-7.8,19.1c-4.1,0.3-17.2-4.4-18.1-0.2
			c-0.9,4.2-5.7,9.5,0.6,15.4s11.4,19.1,11.4,19.1s-7.1,10.9-10.4,10.9c-3.3,0-11-10.4-11-10.4s-10.5,6.2-5,13.7s-2.6,24.9-2.6,24.9
			S2944.4,1084.1,3020.8,1039.6L3020.8,1039.6z"/>
		<path class="st20" d="M3083.6,1044.4c0,0-16.4,4.4-18.7,10.1l-7.4,18l8.6,14.7c0,0-25.2-1.8-26.2,5.7c-1.1,7.5-7.9,12.7,3.8,19.7
			c11.8,7.1,30,7.9,30,7.9s-1.6,13.8-10.4,14.1s-25.3-3.1-24.8,7c0.5,10.1,11.1,24.9,11.1,24.9s14.4,5.5,26.3,0.7s17.8-11,17-23.8
			s0.4-22,0.4-22s5-7.4,10.9-8.9s15.5,10.9,15.5,10.9s9.1-2.8,12.8-8.6c3.7-5.7,13.4-13.3,13.4-13.3s4.1-17-11.7-40.5
			c0,0-13,1.9-17.4,4.7c-4.5,2.8-14,7.2-14,7.2s-7.1-9.3-9.1-14.1C3091.5,1054.2,3094.7,1046.3,3083.6,1044.4L3083.6,1044.4z"/>
	</g>
	<polygon class="st24" points="1180.6,292.3 1184.3,299.8 1192.2,295.7 1189.8,286.6 	"/>
	<g>
		<polygon class="st20" points="3064,1664.2 3148.7,1701.1 3206.2,1588.4 3123.2,1556.7 		"/>
		<polygon class="st19" points="3088.1,1652.6 3144.4,1675.7 3188.3,1595.9 3127.3,1574.5 		"/>
		<path class="st19" d="M3115.9,1668.7c0,0-5.5,2.7-3.4,5.9S3124.7,1674.7,3115.9,1668.7z"/>
	</g>
	<path class="st24" d="M390.8,1139.9c0,0-13.4-2.2-16-4.4c-3.1-2.6-4-10.4,6.1-9.6c0,0,2.8-8.5,7.9-6.1s3.6,8.9,3.4,12.6
		S390.8,1139.9,390.8,1139.9L390.8,1139.9z"/>
	<g>
		<path class="st31" d="M942.6,770.2c0,0-4.2-4,1.2-6.4s11.1-3,15.8-0.1s12.2,2.9,16.5,3.9c4.3,1,23.2,8.6,14.3,22.7
			c-6.2,9.8-15.3,14.5-20.2,12.5c-4.9-2-9.1-3.7-12.6-13.1c-3.5-9.3-6.7-15-8.8-16.3S942.7,770.2,942.6,770.2L942.6,770.2z"/>
		<polygon class="st9" points="947.2,769.2 938.2,767.9 933.4,761.6 935.4,759.9 941,764.6 948.7,764.8 		"/>
	</g>
	<g>
		<path class="st16" d="M915.8,974.2c-1-3,0.4-9.8,6-10.4c5.6-0.7,10.7-0.4,12.2,3.9c1.4,4.3,1.8,9.5-5.5,12.2
			c-7.2,2.6-4.1,1.8-4.1,1.8s4.5-1.2,6.9,0.9s6.4,4.1,5.4,6.9s-4.9,5.7-7.4,6.6s-7.1-2.5-7.7-4.9l-0.7-2.4c0,0,2.8,7.4-4.6,9.8
			s-10.9,3.5-12.4-2.7s0.8-8.2,4.3-9.7s5.5-2.1,5.5-2.1s0.4,0-5.1,0s-7.8-1.6-8.9-6.5s-1.3-8.8,4.6-10.2c5.9-1.4,8.7,0.9,10.1,3.9
			L915.8,974.2L915.8,974.2z"/>
		<path class="st3" d="M918.6,980.2c-2.4-0.7-3.6,0.5-3.7,2.6s4,2.6,5.1,2.3C924.9,983.6,918.6,980.2,918.6,980.2L918.6,980.2z"/>
	</g>
	<g>
		<path class="st16" d="M696.3,534.3c3.2-3.2,12.8-5.9,17.4,0.7s7.6,13.3,3,17.9s-11,8.5-19.3,1.1c-8.1-7.3-5-4-5-4s4.5,4.9,3.4,9.3
			s-1.1,10.7-5.3,11.2s-10.6-2.4-13.3-5c-2.7-2.6-1.5-10.5,1.2-12.9l2.7-2.4c0,0-7.7,8.3-15.6,0.6s-11.7-11.4-4.7-17.4
			s11-4.3,15.3-0.8c4.2,3.5,6.3,5.5,6.3,5.5s0.3,0.5-3.4-6.4s-3.1-10.8,2.5-15.5s10.5-7.4,16.2-0.9c5.7,6.5,4.5,11.5,1.7,15.2
			L696.3,534.3L696.3,534.3z"/>
		<path class="st3" d="M690.4,541.6c-0.8-3.5-3-4.2-5.8-3s-0.8,6.7,0.4,7.9C690.3,551.8,690.4,541.6,690.4,541.6L690.4,541.6z"/>
	</g>
	<g>
		<path class="st16" d="M533.5,1285.9c0.8-3,5.7-7.9,10.7-5.3s9.1,5.6,7.9,10s-3.8,8.9-11.3,7c-7.4-1.8-4.4-0.8-4.4-0.8
			s4.4,1.5,5.2,4.6s3,6.9,0.7,8.6c-2.3,1.7-7.2,2-9.7,1.3s-4.5-5.9-3.7-8.3l0.8-2.4c0,0-1.8,7.7-9.2,5.5s-10.9-3.1-8.7-9.1
			c2.2-6,5.2-6.3,8.9-5.6s5.7,1.3,5.7,1.3s0.4,0.2-4.2-2.8c-4.6-3-5.5-5.6-3.7-10.3s3.8-8,9.4-5.9c5.6,2.1,6.7,5.6,6.2,8.8
			L533.5,1285.9L533.5,1285.9z"/>
		<path class="st3" d="M532.4,1292.3c-1.7-1.9-3.2-1.6-4.5,0.1s1.8,4.4,3,4.7C535.8,1298.6,532.4,1292.3,532.4,1292.3L532.4,1292.3z
			"/>
	</g>
	<path class="st16" d="M691.4,408.4c0,0-23.6-40.5-31-46.2C653,356.6,625,337,625,337l-47-9.3l21.5-17.7l-19-12.5L548,337l40.9,34.4
		l6-14l-12.2-15.2c0,0,40.4,8.3,49.8,14.9c9.4,6.7,42.9,36.4,45.5,63L691.4,408.4L691.4,408.4z"/>
	<path class="st31" d="M962.3,1013.7c0,0,0.7-3.8,0.8-5.6c-0.1-2.7-1.3-5.1-3.4-6.8c-2.1-1.4-7.5-0.8-9.2,1.3s-4.9,6.8-2.3,10.3
		C950.8,1016.3,954.9,1022.4,962.3,1013.7L962.3,1013.7z"/>
	<polygon class="st27" points="1013.9,1030.7 1019.3,1027 1014,1021.4 1007,1024.4 	"/>
	<g>
		<polygon class="st21" points="793.4,959 855.4,982 852.8,993 788,976.2 		"/>
		<polygon class="st11" points="855.4,982 866,989.9 852.8,993 		"/>
		
			<rect x="865" y="988.9" transform="matrix(0.1881 -0.9822 0.9822 0.1881 -269.1536 1653.6687)" class="st26" width="1.1" height="1.5"/>
	</g>
	<polygon class="st16" points="567.6,1332.3 577,1331.4 575.5,1321.2 564.8,1320.2 	"/>
	<polygon class="st27" points="896.9,362.2 894,371.2 904,373.8 909.1,364.4 	"/>
	<g>
		<polygon class="st8" points="3585.4,1687.4 3525.3,1739.7 3515.1,1730.7 3570.3,1671.7 		"/>
		<polygon class="st11" points="3525.3,1739.7 3510.9,1746.4 3515.1,1730.7 		"/>
		
			<rect x="3510.4" y="1745.8" transform="matrix(0.6349 -0.7726 0.7726 0.6349 -67.2419 3350.6062)" class="st26" width="1.9" height="1.4"/>
	</g>
	<path class="st21" d="M2448.6,444.1l-3.6-1.4c0,0-3.9,0.8-2.7,3c1.2,2.2,0.6,5,0.8,8.3c0.1,3.3-0.5,12.8,4.3,15.7
		c4.8,2.8,11.9,10.8,17.4,10.3s7.2-2.4,7.2-2.4s5.4,0.6,5.3-1.4c-0.1-2-2-4.5-2-4.5s2.8-6.9-0.6-14.6c-3.4-7.6-8.9-10.1-13.7-12.1
		S2448.6,444.1,2448.6,444.1L2448.6,444.1z"/>
	<g>
		<path class="st23" d="M1465.1,110.8c5.7,6.3,18.6,9.5,21.7,15.8c3.1,6.3,2.3,19.4,4.1,20.6c1.8,1.2-3.5,4.9-12.5,3.2
			c-8.9-1.7-15.4-6.1-14.3-16.3C1465.3,124,1465.1,110.8,1465.1,110.8L1465.1,110.8z"/>
		<path class="st23" d="M1491.3,147.7c-15.4,6.9-29.7,12.5-31.8,22.2s3,4.5,11.8,4s11.2-0.4,15.8-10.8
			C1491.6,152.7,1491.3,147.7,1491.3,147.7L1491.3,147.7z"/>
		<path class="st23" d="M1528.6,120.2c-7.3,4.4-20.5,3.9-25.3,9.1c-4.8,5.2-7.7,18-9.7,18.6c-2.1,0.6,2,5.7,11.1,6.6
			s16.5-1.5,18.3-11.6S1528.6,120.2,1528.6,120.2L1528.6,120.2z"/>
		<path class="st23" d="M1493.1,148.3c12.8,10.9,25,20.4,24.3,30.3c-0.7,9.9-4.1,3.5-12.4,0.5s-10.6-3.5-12.1-14.8
			C1491.4,153,1493.1,148.3,1493.1,148.3L1493.1,148.3z"/>
		<path class="st9" d="M1493.5,135.1c-7.3-0.4-6.2,22.9-5.9,32.3c0.3,9.3,1.2,14.1,1.2,14.1s1.4-4.2,3.5-13
			S1501.9,135.6,1493.5,135.1L1493.5,135.1z"/>
	</g>
	<g>
		<path class="st16" d="M2628.5,833.1c-13.7,3-28.9,18.7-40.5,17.8c-11.6-0.8-29.5-12.8-32.7-11.2c-3.1,1.6-4.1-9.1,5.7-20.4
			c9.9-11.3,21.4-16.9,34.9-6.9C2609.5,822.5,2628.5,833.1,2628.5,833.1L2628.5,833.1z"/>
		<path class="st16" d="M2554.3,839.9c2.9-27.6,6.7-52.6-5.4-63.7s-8.9,0.5-15.4,13.5c-6.5,13-8.7,16.2,2.3,31.4
			C2546.8,836.2,2554.3,839.9,2554.3,839.9L2554.3,839.9z"/>
		<path class="st16" d="M2562.6,915.7c-0.3-14,11.4-32.4,7.9-43.5s-19.3-25.7-18.4-29.2s-9.8-1.9-18.5,10.3
			c-8.7,12.2-11.5,24.8,1.4,35.6C2547.9,899.7,2562.6,915.7,2562.6,915.7L2562.6,915.7z"/>
		<path class="st16" d="M2552,842c-26.1,9.2-49.6,18.7-63.2,9.6c-13.5-9.1-1.6-8.8,9.6-18.1c11.1-9.3,13.8-12.2,31-5.1
			C2546.7,835.6,2552,842,2552,842L2552,842z"/>
		<path class="st9" d="M2570.4,853.5c6.6-10-27.5-27.8-41-35.1c-13.5-7.3-21.1-9.9-21.1-9.9s4.9,5.5,15.7,15.7
			C2534.8,834.4,2562.8,864.9,2570.4,853.5L2570.4,853.5z"/>
	</g>
	<g>
		<path class="st16" d="M2085.4-0.7c-0.3,4.4-5.6,12.6-13.2,10.7c-7.6-1.9-14.1-4.9-13.8-11.3c0.4-6.3,2.7-13.4,13.5-13.2
			c10.7,0.2,6.3-0.3,6.3-0.3s-6.5-0.7-8.5-4.7s-6.1-8.6-3.4-11.7s9.4-5,13.1-4.9c3.7,0.2,7.8,6.8,7.4,10.2l-0.4,3.5
			c0,0,0.2-11.1,11.1-10.5c10.9,0.6,16,0.8,14.7,9.8c-1.3,9-5.4,10.3-10.7,10.5c-5.4,0.2-8.2,0-8.2,0s-0.6-0.2,6.6,2.5
			c7.2,2.7,9.2,5.9,8.1,13c-1.1,7.1-2.9,12.2-11.3,11.1c-8.4-1.2-10.8-5.6-11.1-10.2L2085.4-0.7L2085.4-0.7z"/>
		<path class="st3" d="M2085.1-9.9c2.8,2.1,4.9,1.2,6.1-1.5c1.2-2.7-3.8-5.4-5.4-5.5C2078.6-17.5,2085.1-9.9,2085.1-9.9z"/>
	</g>
	<path class="st8" d="M2793.1-45c-1.4,3.5-33.1,81.7-33.1,81.7l83.9,35.3l36.1-83.1L2793.1-45L2793.1-45z"/>
	<path class="st19" d="M3777.4,305.3c-5.6,1.7-128.5,37.5-128.5,37.5l30.9,118.5l132.9-35.7L3777.4,305.3L3777.4,305.3z"/>
	<g>
		<path class="st16" d="M1733.6,22.9c3.4,8.1,14.9,15.6,15.8,22.8c0.9,7.2-4.4,19.7-3,21.5s-5.1,3.6-13.3-1.1s-13-11.2-8.4-20.7
			S1733.6,22.9,1733.6,22.9L1733.6,22.9z"/>
		<path class="st16" d="M1746.6,67.8c-17.3,1.5-33.2,2.2-38.6,10.9c-5.4,8.7,1.4,5.4,10.1,7.9s11.1,3.4,19.1-5.1
			S1746.6,67.8,1746.6,67.8L1746.6,67.8z"/>
		<path class="st16" d="M1792.3,53.6c-8.6,1.8-21.3-3.2-27.8,0.3c-6.4,3.5-13.6,14.9-15.8,14.8c-2.2-0.1,0,6.3,8.6,10.2
			c8.6,3.9,16.7,4.1,21.8-5.1C1784.3,64.6,1792.3,53.6,1792.3,53.6L1792.3,53.6z"/>
		<path class="st16" d="M1748.2,69c8.8,15,17.4,28.4,13.4,37.8s-5.2,2-12.3-3.7c-7.1-5.8-9.2-7-6.8-18.5
			C1744.9,73,1748.2,69,1748.2,69z"/>
		<path class="st9" d="M1753.1,56.3c-7-2.9-13.8,20.3-16.7,29.5s-3.6,14.2-3.6,14.2s2.8-3.7,7.8-11.5
			C1745.6,80.5,1761,59.6,1753.1,56.3z"/>
	</g>
	<polygon class="st10" points="1511.4,86 1506.7,77.8 1498,83.4 1501.5,93.6 	"/>
	<polygon class="st27" points="1463.3,221.1 1465.1,228.1 1472.6,225.7 1472.1,217.6 	"/>
	<polygon class="st10" points="1688.3,407 1683.2,414.9 1692.2,420.1 1699.6,412.3 	"/>
	<polygon class="st24" points="1287.8,369.7 1279,373.1 1283.2,382.6 1293.8,380.7 	"/>
	<polygon class="st27" points="2262.1,312.4 2269.3,313.3 2269.8,305.5 2262.1,302.9 	"/>
	<polygon class="st16" points="1344.7,472.4 1338.5,472.9 1341.7,480.4 1349.2,481.2 	"/>
	<g id="Layer_19">
		<polygon class="st8" points="1298.3,285.2 1282.7,346.7 1380.4,364.7 1387.6,304.6 		"/>
		<path class="st20" d="M1321.4,312.8c0,0-10.3,10.2-2.9,24.2c7.4,14,29.2,11.2,34.3,3c3.5-5.6,10.5-20.9-0.7-30.2
			C1340.9,300.3,1327.4,305.7,1321.4,312.8L1321.4,312.8z"/>
		<path class="st8" d="M1325.6,316.3c0,0-7.5,7.4-2.1,17.5s21.2,8.1,24.9,2.2c2.6-4.1,7.6-15.2-0.5-21.9S1329.9,311.1,1325.6,316.3z
			"/>
		
			<rect x="1364.6" y="305.6" transform="matrix(0.1905 -0.9817 0.9817 0.1905 803.9322 1596.9976)" class="st20" width="11.3" height="10.9"/>
		<path class="st10" d="M1366.5,348.6c0,0-1.4,1.4-0.4,3.3c1,1.9,4,1.6,4.7,0.4c0.5-0.8,1.4-2.9-0.1-4.2S1367.3,347.7,1366.5,348.6z
			"/>
	</g>
	<path class="st10" d="M1609.9,469.5c-2.6-3.9-60.4-90.7-60.4-90.7l-94.5,61.1l59.8,94.7L1609.9,469.5L1609.9,469.5z"/>
	<path class="st27" d="M1417.2,381.2c0,0,0.7-3.8,0.8-5.6c-0.1-2.7-1.3-5.1-3.4-6.8c-2.1-1.4-7.5-0.8-9.2,1.3
		c-1.7,2.1-4.9,6.8-2.3,10.3C1405.7,383.8,1409.8,389.9,1417.2,381.2L1417.2,381.2z"/>
	<path class="st27" d="M2215.7,108.5c0,0-3.4-0.7-5-0.8c-2.4,0.1-4.7,1.1-6.4,2.8c-1.5,1.8-1.4,6.6,0.4,8.1c1.8,1.5,5.7,4.4,9.1,2.2
		C2217.1,118.6,2222.9,115.1,2215.7,108.5L2215.7,108.5z"/>
	<polygon class="st24" points="2592.3,460 2581.3,456.7 2578.9,469.5 2590.6,475.5 	"/>
	<polygon class="st27" points="2777.1,369.8 2783.4,371.9 2784.7,364.3 2778.1,360.5 	"/>
	<polygon class="st24" points="2550.3,185.5 2543.9,188.7 2547.8,195.5 2555.6,193.4 	"/>
	<polygon class="st24" points="2916.4,1613.5 2911.2,1620 2918.6,1625.2 2925.7,1619.2 	"/>
	<path class="st19" d="M3370.7,1359.2c-6.3-1.4-14.9,2.2-14.9,2.2l-0.1,0.2l-0.1-0.2c0,0-4.1-9.9-8.9-11.7
		c-4.9-1.8-17.5-0.8-17.5-0.8s-6.9,5.1-8.1,11.8c-1.1,6.2,1.1,14.5,1.5,15.8l-0.3,0.1l0.5,0.2l14.7,32.2l32.6-15l0-0.1l0.1,0l0,0.1
		c0,0,8.4-5.3,10.3-9.9s0.5-16.3,0.5-16.3S3377,1360.5,3370.7,1359.2L3370.7,1359.2z"/>
	<g id="Layer_87">
		<path class="st10" d="M3576.1,1213.8l-11.3,11.9l12.3,37.7l13.4-19.1l20.1,0.9l-17.2-34.1l-13.6,1.8L3576.1,1213.8L3576.1,1213.8z
			"/>
		<path class="st10" d="M3592.1,1143.7l-4-15.1l-15.8,3.7l-9.4-10.8l-11.6,11.5l-20-2.2l-5.8,18.5l-14.5,11.4l9.2,16.4l-4.1,14.2
			l13.4,7.3l6.1,17.4l14.4-6l8.6,9.2l14.2-12.7l16.4-1.2l6.8-14.5l14.1-7.5l-10.1-14.6l5.5-17L3592.1,1143.7L3592.1,1143.7z"/>
		<path class="st16" d="M3535.8,1146.3c0,0-20.7,18.9-1.2,44.7c19.5,25.8,51.8,5.1,58.4-15.1
			C3599.6,1155.7,3573.7,1121.5,3535.8,1146.3z"/>
		<path class="st20" d="M3544.5,1164.6c0,0,4.8,18.5,11.7,19s17-5.8,15.4-12.7c-1.6-6.9-7.9-14.7-7.9-14.7l-4,1.8
			c0,0,5.3,8.6,6,11.9c0.7,3.3-2.6,7.9-6.4,7.9c-3.9,0-5.5-2.3-6.9-5.5c-1.5-3.2-4.4-9.2-4.4-9.2L3544.5,1164.6L3544.5,1164.6z"/>
	</g>
	<path class="st23" d="M1746.9,156l2.3-2.6c0,0,0.4-3.6-1.8-3.2c-2.3,0.3-4.5-0.9-7.3-1.7s-10.9-4.1-14.7-0.8
		c-3.8,3.3-12.7,7.1-13.9,12c-1.2,4.8,0,6.9,0,6.9s-2,4.5-0.3,5s4.4-0.4,4.4-0.4s5.2,4.4,12.7,3.7c7.5-0.7,11.2-4.7,14.3-8.3
		C1745.7,162.8,1746.9,156,1746.9,156L1746.9,156z"/>
	<polygon class="st10" points="2387.1,120.2 2394.9,114.8 2388.6,106.6 2378.7,110.9 	"/>
	<polygon class="st16" points="2514,564.2 2519.4,567.1 2520.8,559.2 2515.1,554.4 	"/>
	<polygon class="st24" points="2453,382.8 2444.2,379.3 2440.9,389.2 2450,394.9 	"/>
	<polygon class="st24" points="1984.1,32.2 1985.7,40.5 1994.4,38.6 1994.4,29.2 	"/>
	<polygon class="st22" points="1637.6,481.8 1645,480.3 1640.9,471.8 1632,471.8 	"/>
	<path class="st8" d="M1872.6,189.5c0,0,2.9-2.6,4.1-4c1.5-2.2,2.1-4.9,1.5-7.5c-0.8-2.4-5.4-5.2-8.1-4.6s-8.1,2.4-8.1,6.7
		S1861.5,191.9,1872.6,189.5L1872.6,189.5z"/>
	<path class="st8" d="M3079.2,536.8c0,0,2.9-2.6,4.1-4c1.5-2.2,2.1-4.9,1.5-7.5c-0.8-2.4-5.4-5.2-8.1-4.6s-8.1,2.4-8.1,6.7
		S3068.1,539.2,3079.2,536.8L3079.2,536.8z"/>
	<polygon class="st20" points="2702.5,229.1 2719.5,224 2709.2,205.2 2688.5,207.1 	"/>
	<polygon class="st10" points="2996.1,311.3 3005.5,310.2 3003.7,300 2993,299.2 	"/>
	<polygon class="st10" points="2983.7,147.1 2993,145.3 2990.5,135.2 2979.8,135.2 	"/>
	<polygon class="st24" points="3376.4,571.8 3370,575 3373.9,581.8 3381.7,579.7 	"/>
	<polygon class="st24" points="2612.5,42.3 2614,34.8 2604.6,35.1 2601,43.4 	"/>
	<polygon class="st16" points="2913.9,594 2904.4,593.8 2907,605.4 2918.1,607.8 	"/>
	<polygon class="st16" points="3466.8,921.5 3456.5,920.2 3459.1,933.5 3470.9,937.5 	"/>
	<g>
		<polygon class="st8" points="3235.4,727.5 3204.3,783.8 3273.4,885 		"/>
		<polygon class="st10" points="3273.4,885 3204.3,783.8 3125.7,791 		"/>
	</g>
	<g>
		<polygon class="st10" points="1682,261 1739.9,267.4 1803.2,172.4 		"/>
		<polygon class="st8" points="1803.2,172.4 1739.9,267.4 1771.9,331.6 		"/>
	</g>
	<path class="st8" d="M1973.8,235.5c0,0,11.6,1.2,15.3,1.3l5.4-10.6l-11.9-0.3C1982.6,225.9,1976.9,230.8,1973.8,235.5L1973.8,235.5
		z"/>
	<polygon class="st24" points="1791.7,25 1793.5,30.8 1799.9,27 1799.2,20 	"/>
	<polygon class="st16" points="2127.7,92.8 2122.9,97.3 2129,102 2135.4,98 	"/>
	<polygon class="st31" points="2509.2,27.2 2508.6,33.8 2516.2,33.3 2518.4,26 	"/>
	<g>
		<polygon class="st10" points="409.2,315.4 396.7,355.6 315.5,370.1 		"/>
		<polygon class="st8" points="315.5,370.1 396.7,355.6 430.1,395.3 		"/>
	</g>
	<g>
		<path class="st19" d="M1618.6,401.6l36-19.3c0,0,21.3-13.8,32.2-48.1l10.4,0.6c0,0-12.6,27.5-15.8,31.7s-16.9,19.7-16.9,19.7
			s-33.3,20.7-45.2,25.5L1618.6,401.6L1618.6,401.6z"/>
		<polygon class="st19" points="1670.5,340.3 1677.9,346 1690,335.7 1701.9,348.4 1711.1,340.3 1693.4,314.5 		"/>
	</g>
	<polygon class="st10" points="545.9,1266.6 552.4,1269.5 555.2,1262.2 548.5,1257.6 	"/>
	<polygon class="st25" points="587.7,1271.9 581.3,1271.6 581.4,1278.7 588.5,1280.4 	"/>
	<g>
		<path class="st17" d="M3300.1,296.2c0,0-81.4-7.6-81.1,65.2c0.3,72.8,73.1,83.4,108.3,52.6c35.2-30.9,21.9-70.6,6.9-93.5
			C3319.3,297.6,3300.1,296.2,3300.1,296.2L3300.1,296.2z"/>
		<path class="st16" d="M3208.3,349.4l50.5,38.6c0,0,33.3,21.3,88.9,14.6l3.8-4.7l-2.3-5.6l-4-2.3l2.9-8.7l4.4,1.7l7.9,4l4.3,5.2
			l1.9,15l-13,10.7c0,0-47-0.1-55.1-1.9s-38.8-11.2-38.8-11.2s-50.8-33.9-65.2-47.7l-0.4-10.7l5-9.4l7.5-4.1l6.3,0.4l10.2,3
			l-2.6,8.7l-10.2-2.2l-2.9,2L3208.3,349.4L3208.3,349.4z"/>
	</g>
	<g>
		<path class="st8" d="M2032,76.6l-23.4,47.9l29,12.1l22.8-45c0.9-1.7,0.2-3.7-1.4-4.6l-22.2-11.9c-1.7-0.9-3.8-0.3-4.7,1.4
			C2032.1,76.6,2032.1,76.6,2032,76.6L2032,76.6z"/>
		<polygon class="st4" points="2034.6,82.9 2020.5,112.6 2039.4,120.4 2054.5,92.2 		"/>
		<path class="st4" d="M2028.6,119.9c0,0-4.9-0.8-5,2.2S2031.6,127.9,2028.6,119.9z"/>
	</g>
	<g id="Layer_58">
		<path class="st8" d="M2091.2,147.2c0,0-35.3,10.6-22.6,48.2s60.9,28.2,73.8,5C2155.3,177.2,2138.2,127,2091.2,147.2z"/>
		<polygon class="st32" points="2098.6,184.1 2123.7,190.1 2122.4,196.7 2097,187.6 		"/>
		<polygon class="st32" points="2098.3,185.3 2106,162.7 2112.9,162.6 2103.5,186 		"/>
		<polygon class="st32" points="2108.4,152.1 2109.7,146.1 2113.3,146.4 2111.1,151.7 		"/>
		<polygon class="st32" points="2104.1,210.9 2103.1,217 2099.5,216.9 2101.4,211.5 		"/>
		<polygon class="st32" points="2075.5,181.9 2069.4,181.6 2069.1,178 2074.6,179.3 		"/>
		<polygon class="st32" points="2135.4,184.2 2141.5,184.4 2141.9,188.1 2136.3,186.8 		"/>
	</g>
	<polygon class="st27" points="2476.2,102.5 2482.5,99 2478.3,92.3 2470.6,94.8 	"/>
	<path class="st27" d="M2774.9,1923.7c0,0-3.3,0.8-4.9,1.4c-2.1,1.1-3.8,3-4.6,5.3c-0.6,2.3,1.5,6.5,3.8,7.2s7.1,1.6,9.1-1.8
		C2780.4,1932.3,2784.2,1926.7,2774.9,1923.7L2774.9,1923.7z"/>
	<polygon class="st33" points="3529.4,502.3 3520,502.7 3520.9,513 3531.6,514.7 	"/>
	<g>
		<path class="st8" d="M2919.6,2026.4c0,0-67,51.9-15.2,106.8s114.5,11.4,119.2-36.9c4.8-48.3-33.5-69-61-75.7
			S2919.6,2026.4,2919.6,2026.4L2919.6,2026.4z"/>
		<path class="st3" d="M2887.7,2131.8l65.6-6.6c0,0,40.4-7.4,77.7-51.9l-0.5-6.2l-5.7-2.6l-4.7,1.1l-4-8.6l4.5-1.8l8.8-2.6l6.9,0.9
			l12.1,10l-2.3,17.3c0,0-35.6,33.2-43.1,37.6s-37.4,19-37.4,19s-62.5,10.4-83.1,10.1l-7.9-7.9l-2.9-10.7l2.8-8.4l5.1-4.2l9.8-4.9
			l4.2,8.4l-9.2,5.6l-0.8,3.6L2887.7,2131.8L2887.7,2131.8z"/>
	</g>
	<path class="st24" d="M3403.1,1567.2c0,0-3.3,0.8-4.9,1.4c-2.1,1.1-3.8,3-4.6,5.3c-0.6,2.3,1.5,6.5,3.8,7.2s7.1,1.6,9.1-1.8
		S3412.4,1570.2,3403.1,1567.2L3403.1,1567.2z"/>
	<polygon class="st16" points="2302.3,88.4 2308.7,80.2 2296,75.7 2286.5,83.7 	"/>
	<polygon class="st18" points="2525.6,358.6 2514.1,353.7 2511.2,368.6 2523.3,376.8 	"/>
	<path class="st3" d="M1560.7-32.2c1,4.1,22.3,95.4,22.3,95.4l98.8-21.7l-20.6-98.6L1560.7-32.2L1560.7-32.2z"/>
	<path class="st8" d="M1577.9,98.7c2.4,1.4,55.2,32,55.2,32l31.6-51.4l-56-34.2L1577.9,98.7L1577.9,98.7z"/>
	<g>
		<polygon class="st21" points="1552.9,150.6 1600.8,105.2 1609.6,112.3 1566,163.1 		"/>
		<polygon class="st11" points="1600.8,105.2 1612.6,99.1 1609.6,112.3 		"/>
		
			<rect x="1611.5" y="98.7" transform="matrix(0.6013 -0.7991 0.7991 0.6013 563.5319 1327.8945)" class="st26" width="1.5" height="1.1"/>
	</g>
	<polygon class="st24" points="3515.3,2152.1 3506.5,2148.6 3503.2,2158.4 3512.3,2164.2 	"/>
	<g>
		<polygon class="st8" points="2218.6,146.4 2233.4,191.7 2323.4,205.6 		"/>
		<polygon class="st10" points="2323.4,205.6 2233.4,191.7 2197.4,238 		"/>
	</g>
	<polygon class="st24" points="2728,116.1 2721.5,119.3 2725.4,126.2 2733.3,124 	"/>
	<polygon class="st24" points="2151.9,251.9 2160.8,248.8 2157,239.2 2146.3,240.7 	"/>
	<polygon class="st24" points="3250.6,207 3255.7,203.8 3250.5,198.6 3243.8,201 	"/>
	<path class="st31" d="M1199.1,1528.2c0,0,12.1,15.1,24.3,1c12.2-14.2-2.2-35.9-14.3-37.4S1180.7,1509.3,1199.1,1528.2z"/>
	<path class="st31" d="M1189.6,1603.9c0,0,12.5,15.7,25.3,1s-2.2-37.3-14.9-38.9S1170.4,1584.2,1189.6,1603.9z"/>
	<path class="st2" d="M1096.1,1526.7c0,0-11.7,23.4,12.6,30.4c24.3,7,42.8-23.1,37.7-38.8
		C1141.3,1502.5,1108.8,1493.3,1096.1,1526.7z"/>
	<path class="st31" d="M1110.6,1601c0,0,13.9,13.5,24.2-2.1c10.3-15.6-6.7-35.3-19-35.3S1089.9,1584.6,1110.6,1601L1110.6,1601z"/>
	<path class="st31" d="M1119.1,1473.1c0,0-13.6,10.4-6,20.1c7.7,9.7,26.7-2.9,30.4-12.9C1147.2,1470.2,1136.8,1457.3,1119.1,1473.1z
		"/>
	<path class="st2" d="M1154.1,1485.9c0,0,5,10.3,12.6,6.3c7.6-4,1.9-18.1-4.3-21.8C1156.1,1466.8,1146,1472.2,1154.1,1485.9z"/>
	<path class="st31" d="M1193.4,1483.3c0,0,8.3-7.9,2.2-13.9s-17.8,3.7-19.4,10.7C1174.6,1487.1,1182.8,1495.1,1193.4,1483.3
		L1193.4,1483.3z"/>
	<path class="st2" d="M1182.6,1559.3c0,0,1.6-23.6-21.2-21c-22.8,2.7-27.7,34.2-18,45.6C1153.2,1595.3,1183.6,1591.6,1182.6,1559.3
		L1182.6,1559.3z"/>
	<path class="st2" d="M1169.1,1531c0,0,16.1,2.9,16-12.9c-0.1-15.9-21.4-21.7-30-15.9C1146.6,1508.1,1146.8,1529.3,1169.1,1531
		L1169.1,1531z"/>
	<g>
		<path class="st2" d="M344.4,1625.4l7.8,29.5c0,0,20,80.8,18.5,103.4c-2.2,32.5,12.4,77.9-63.3,162.1l23.4-5.7
			c0,0,34.5-59.3,39.1-77.1c4.6-17.7,12.1-78.7,12.1-78.7l-18.5-109.4l-6.8-29.3L344.4,1625.4L344.4,1625.4z"/>
		<path class="st31" d="M469.8,1586.2l-2.7,15.6l-24,22.2l8.9-32.8v-24.8c-3.6-3.5-7.1-6.6-10.5-9.2c-6.7-5.2-13.1-10-19.2-14.3
			l-6.6,11.9l-12.4,28.5l2.7-27.2l0.1-23.9c-48.6-29.8-71.4-17.8-60.1,70.4c0,0-66.7,80,27.1,107.3l11.1-14.1l9.7-40.3l7.8,34.7
			l-7.9,24.3c0.7,0.1,1.3,0.2,2,0.4c16,2.6,30,3.8,42.1,3.8l10.4-9.2l8.5-23.9l-3.9,32.5C536,1710.2,507.6,1634.2,469.8,1586.2
			L469.8,1586.2z"/>
		<path class="st2" d="M256,1506.2l-11,5.8l-10.9,23.3l22.4-14.5l18.6-6c3.5,1.9,6.6,3.7,9.4,5.6c5.5,3.8,10.6,7.4,15.3,10.9
			l-7.3,7.8l-18.3,16.1l19.7-8.6l17.9-5.8c34,29.2,30.5,49.1-38.3,61.9c0,0-43.9,69.1-86.8,5.4l7.9-11.7l27.8-16.9l-27.9,2.5
			l-16.3,11.7c-0.2-0.5-0.5-0.9-0.8-1.4c-5.8-11.4-10-21.5-12.9-30.6l4.4-10l15.9-12.1l-23.4,10.7
			C147.3,1486.4,211,1489.4,256,1506.2L256,1506.2z"/>
		<path class="st2" d="M332.6,1888.3l12.1-108.9c0,0-8.7-69.1-33-112.1c-24.2-43-43-72.6-43-72.6H262l37,67.9
			c0,0,28.9,44.4,30.3,73.3c1.3,28.9,5.4,43.5,5.4,43.5l-9.5,123.8L332.6,1888.3L332.6,1888.3z"/>
		<path class="st2" d="M287.9,1792.8l7.8,15.8c0,0,20.7,43.2,22.5,56.1c2.6,18.6,16,42.5-16.9,98.7l12.5-5.9c0,0,12.5-37.4,13.1-48
			c0.5-10.5-2.3-45.8-2.3-45.8l-23.1-59.5l-7.2-15.7L287.9,1792.8L287.9,1792.8z"/>
		<path class="st31" d="M194,1749.3l6.6,12.6l26.6,12.5l-16.6-25.7l-6.8-21.3c2.1-3.9,4.3-7.6,6.5-10.8c4.3-6.3,8.5-12.2,12.5-17.6
			l8.9,8.4l18.5,21l-9.8-22.6l-6.6-20.5c33.5-38.9,56.3-34.9,70.9,43.9c0,0,79.2,50.3,6.2,99.4l-13.4-9l-19.4-31.9l2.8,31.9
			l13.4,18.7c-0.5,0.3-1.1,0.6-1.6,0.9c-13,6.6-24.7,11.5-35,14.8l-11.4-5l-13.9-18.2l12.3,26.8
			C171.4,1873.8,174.8,1800.8,194,1749.3L194,1749.3z"/>
		<path class="st9" d="M334.7,1911.7c-66.5-0.7-99.5-6.2-99.5-6.2s-51.8,102.2,3.4,147.4c55.2,45.2,157.9,40.1,189.1-2.4
			c31.2-42.5-4-145.4-4-145.4S385.1,1912.2,334.7,1911.7L334.7,1911.7z"/>
	</g>
</g>
<g id="Blends">
	<g>
		<polygon class="st20" points="552.4,455.9 586.7,528.9 690.8,482.8 656.2,407.8 		"/>
		<polygon class="st34" points="593.1,513.2 592.7,463.7 631.5,495.6 		"/>
		<polygon class="st35" points="612.1,479.6 623.7,438.9 668,465 673.2,476.3 631.5,495.6 		"/>
	</g>
	<g>
		<polygon class="st36" points="2661.6,1564.6 2602.7,1653.6 2736.5,1729.2 2789.3,1635.9 		"/>
		<path class="st37" d="M2710,1646.2c0,0,7.1-5,8.2-9.6s3.1-13.9-2.6-18.3c-5.6-4.4-14.8-4.6-18.4-1.6c-3.6,2.9-6.1,8.7-6.1,8.7
			c-1.1,4.4-0.6,8.9,1.2,13C2695.5,1645.3,2703.3,1649.2,2710,1646.2L2710,1646.2z"/>
		<polygon class="st20" points="2630.4,1649.5 2682.3,1611.5 2678.1,1676.5 		"/>
		<polygon class="st23" points="2680.2,1644 2728.2,1641.2 2738,1691.7 2730,1705.8 2678.1,1676.5 		"/>
	</g>
	<g>
		<polygon class="st18" points="1844.9,217.9 1809.9,283.8 1907.8,325 1936.5,256.8 		"/>
		<path class="st38" d="M1883,270.2c0,0,4.4-3.9,4.9-7.2s1-9.8-3.2-12.4s-10.5-1.9-12.8,0.4s-3.5,6.4-3.5,6.4
			c-0.4,3.1,0.3,6.2,1.9,8.8C1872.9,270.7,1878.6,272.8,1883,270.2L1883,270.2z"/>
		<polygon class="st20" points="1828.6,278.8 1861.1,248.6 1863.5,293.5 		"/>
		<polygon class="st8" points="1862.3,271 1895,267 1905.8,299.2 1901.4,309.5 1863.5,293.5 		"/>
	</g>
</g>
</svg>
