<svg xmlns="http://www.w3.org/2000/svg" viewBox="0 0 3840 2280"><style>.st1{fill:#201c3b}.st2{fill:#0d5051}.st3{fill:#fbc4c5}.st4{fill:#1a2650}.st5{fill:#1b142e}.st6{fill:#d1865c}.st8{fill:#3544b1}.st9{fill:#944848}.st10{fill:#fba0a2}.st11{fill:#c1a88a}.st16{fill:#ff7d84}.st17{fill:#8768b1}.st18{fill:#c5743a}.st19{fill:#5955a1}.st20{fill:#ffedd6}.st21{fill:#fdc62e}.st22{opacity:.9;enable-background:new}.st22,.st23{fill:#ff9412}.st24{fill:#e3cce0}.st25{fill:#ac5c20}.st26{fill:#ac5420}.st27{fill:#51c9ff}.st30{fill:#fad634}.st31{fill:#156b5d}.st32{fill:#fff}</style><path id="Layer_9" fill="#192347" d="M-2 .1h3844.1V2280H-2z"/><path id="Flow_shadow" d="M1768.7-200.9c-158.2 145.1-154.3 244.3-342 390.1-47.9 29.4-71.8 74.6-176.5 122-40.9 18.5-19.6 3.6-149.3 47.5-45.6 15.4-96 33.1-148.9 14.3-1.3-.5-2.4-.9-3.3-1.2-41.2-16.4-47.8-42.8-104.7-66-20.9-8.5-57.1-22.8-103.8-18.1-11 1.1-93.6 10.5-125.1 70.4-.8 1.6-1.4 2.8-1.8 3.5-29.5 60.1-22.3 136.1 10.2 190.8 65.1 109.5 197.5 66.8 261.3 176.1 32.6 55.9 42.9 148.4.6 193.5-81.9 87.5-292-75.9-427.7 28-61.9 47.3-71.2 121.6-72.7 136.3-11.3 107.8 71.4 223.7 211.3 284 40.6 17.5 91.7 21 95.4 11.4 3.7-9.4-40.7-24.4-77.8-65.4-36.8-40.7-68.7-109.2-57.4-185.6.1-.8.3-2 .5-3.6 9-56.3 42.2-119.7 93.7-147.5 32.3-17.4 61.7-15.3 113.6-11.5 118.4 8.7 143.1 55.2 209.8 40.5 49.7-11 99.6-50.9 114.5-103.3 24.2-84.5-53.8-161.8-58.5-166.3-50.6-48.7-88.3-30.5-122.7-77.6-30.4-41.6-34.3-101.6-15.3-149.7 23.8-60.2 79.3-85.4 102.7-95.9 38.5-17.4 72.7-17.3 140.7-17.9 42.9-.4 83.5-.7 131.1 8.7 107.8 21.1 126.1 68.2 197.4 81.1 53.9 9.7 100.1-6.7 213.6-68.1 286.7-155 289.3-210.8 401.7-227.8 122.1-18.4 272 24.3 334.5 123 32.6 51.5 40.3 116.2 41.6 129.1 8.5 87.4-18.9 106.4-16.6 176.3.3 9.2 7 152.4 101.2 210.4 106.9 90.3 354-20.9 465.4 112.8 84 100.8 40.3 280.2 26.4 337.2-23.8 97.6-69.2 164.7-86.3 188.6-90.9 126.2-173.7 122-281.7 227.2-23.9 23.2-144.1 140.3-170.4 313.5-39.7 261.4 162.8 463.1 174.9 474.8h1183.9L3878.4-36" class="st1"/><g id="Layer_5"><path d="M521.8 1470.6c3.2-1.7 33.4-17.4 65.2-5.9 50.7 18.2 68.8 91.8 61.3 144.3-7.3 50.9-43.6 116.5-91 116.7-37.4.1-63.6-40.7-69.2-49.4-41.6-65.1-26.8-173.2 33.7-205.7z" class="st2"/><path d="M702.7 1472.6s19.8 34.5 24.8 61.6 20.5 49.4 30.8 56.3c10.3 6.9 96.3 22.4 96.3 22.4l36.1 3.4-3.2 30.5s-89.7-1.3-127.5-4.7-55-25.8-65.3-61.9c-10.3-36.1-32-72.2-32-72.2l40-35.4" class="st3"/><path d="M-187.9 1972.5c3.2-19.1 47.4-48.9 677-47.7 823 1.6 549.9 0 671.9 5.1 122.2 5.1 240.6-3.3 290.2 56 35 41.9 24.8 99.8-5.1 152.7-102.7 182-533.2 126.9-809.4 91.6-216.5-27.7-359.9-73.4-463.2-106.9-118-38.3-369.5-102.7-361.4-150.8z" class="st4"/><path d="M683.5 2020.4c-97.4-49.9-40.1-163.4-40.1-163.4h-49.2s57.3 113.5-40.1 163.4c-69.2 35.4 11.9 39.6 64.7 39.1 52.8.5 133.9-3.7 64.7-39.1z" class="st5"/><path d="M818.1 2026.3c-.7-5.4 1.6-20.1 1.6-20.1l-28.3-1.8s-3.5 18.7-4.1 24.9c-.2 2.2-4.4 14.2-4.4 14.2s-7.1 23.5 6.9 25.7c4.1.7 11.2.5 15.1.9l13.3-2.8 18.5 5.7h29c17.9 1.8 3.1-13-9.7-14.3-15.3-6.5-35.8-16.7-37.9-32.4z" class="st6"/><path d="M740.1 1797.6c1.7 3.1 16.9 32.5 5.8 63.5-17.7 49.4-89.3 67-140.5 59.7-49.6-7.1-113.4-42.4-113.5-88.5-.1-36.4 39.6-61.9 48.1-67.4 63.2-40.7 168.4-26.3 200.1 32.7z" class="st2"/><path fill="#2f3994" d="M630.9 1829.4s107.7 15.4 146 0c0 0-4.7 24.2-4.7 60.3s18.9 116.9 18.9 116.9l29.2 3.4s29.2-166.8 29.2-190.9 14.3-67-25.5-70.5-193.1-3.8-193.1-3.8v84.6z"/><path d="M943.9 1954.8c-3.4-4.2-9-18-9-18l-25.1 13.1s6.7 17.8 9.4 23.5c.9 2 3.6 14.5 3.6 14.5s6.1 23.8 19.2 18.4c3.8-1.5 9.9-5.4 13.4-7l9.9-9.2 18.8-4.7 24.8-15c16.3-7.7-4-12.8-15.8-7.2-16.5 2.1-39.3 4-49.2-8.4z" class="st6"/><path d="M619.1 1724.6c-22.8 8.4-27.9 11.3-43 13.8-16.2 2.7-30.2 0-43.1-5.1-.8 4.2-1.3 8.3-1.6 12-1.7 22.4 3.4 41.3 10.3 56.8 6 13.4 18.7 32.6 74.7 34.3s105.9-36.1 128.2-48.1c22.4-12 63.6-22.4 63.6-22.4s10.3 12 20.6 51.6 18.9 53.3 39.6 84.3c20.6 30.9 41.3 53.3 41.3 53.3s5.2 1.7 15.5-1.7 13.8-10.3 13.8-10.3-23.9-63-43-120.4c-18.9-56.8-26.4-91.7-35.6-113.8-9.1-22.1-50.4-15.2-88.2-11.8-33.3 3-61.5 9.6-77.1 11.4-1.2.2-2.5.4-3.8.7-18.9 3.3-42.1 4.3-72.2 15.4z" class="st8"/><path d="M702.8 1315.6s24.9 15.4 19.1 50.9c-2.8 17-9.7 39.1-10 43.8s-4.6 26.8-17.1 26.9c-13.3.1-22.3-3.8-22.3-3.8s-5 20.5 1.2 24.3c0 0-.6 11.9-3 12.4-11.7 2.1-48-5.3-68.1-26.9 0 0 7.8-13.8 9.7-25 1.8-11.2 10-44 20.7-56.1 10.6-12.2 69.8-46.5 69.8-46.5z" class="st6"/><path d="M716.4 1311.8s-27.3-9.6-57.4-16.9c-30.2-7.3-49.2 2.6-48.2 15.9s-2.6 32.5-18.8 34.6-51.4 18.6-35 39.1c16.5 20.5 41.2 34.1 23.5 42.7-17.7 8.6-51.3 5.5-67.9 22.2-16.6 16.7-2.9 42.7-2.9 42.7l14.7 36.4 61.4-65.9s34.5-1.6 40.5-28.4c6-26.8-5.7-57.9 6.3-65.5s31.6 6.6 36-5.2c4.3-11.8 25.1-20.4 37-20.8 26.6-.9 29.2-25.2 10.8-30.9z" class="st9"/><path d="M676.3 1676.2s24.9-100.7 27.8-119.3c4.3-27.3 4.1-30.4 4.9-47.3.4-8.7 6.4-37-21.3-47.3-7.1-2.7-12.7-5.1-15.3-5.9-1.3-.4 1.7 1.7-10.3 3.4-5.8.8-17.2 1.7-29.2-1.7l-18.2-5.6s-4.2 2.1-7.6 3.9c-8.3 4.1-17.3 5.9-17.3 5.9-13.6 1-49.7-4.2-53.2 42.2s8.6 184 8.6 184-8.3 23.8-12.1 44.7c12.9 5.2 26.8 7.8 43.1 5.1 15.1-2.5 20.2-5.3 43-13.8 30.2-11.1 53.3-12 72.2-15.5 1.3-.2 2.5-.5 3.8-.7-2.1.2-4 .4-5.7.4-13.7.4-13.2-32.5-13.2-32.5z" class="st10"/><path d="M1248.5 1654.1c-1.1-6.4-16-10.7-228.7-10.3-278 .5-185.8 0-227 1.7-41.3 1.7-81.3-1.1-98 18.9-11.8 14.1-8.4 33.7 1.7 51.6 34.7 61.5 180.1 42.9 273.4 30.9 73.2-9.4 121.6-24.8 156.5-36.1 39.9-12.9 124.8-40.5 122.1-56.7z" class="st11"/><path d="M737.7 1657c-1.3-.1-1.2-8.1-1.2-8.1l104.5-9.1c3.1-.2-.1 16.1.1 18l.3 2c.3 1.9-1.9 3.6-4.9 3.9h-.3l-98.5-6.7z" class="st4"/><path d="M801.6 1645s-107 7.1-122.3 6.1c-22.4-1.4-40.8-4.7-63-30.2-42.2-64.5-46.1-43.4-72.5-98l-4.5-16.8c-1.2-13.2-2.6-33.6 26.4-41.6l14-2.1c8 .2 20.1 5.8 22.8 13.3 27.6 51.1 35.3 108.8 54.8 118.7 15.7 16.9 42.2 21.9 77.4 19.2s59.2 3.6 59.2 3.6l7.7 27.8z" class="st3"/><path d="M771.1 1646.8s13.7-.1 36.8-.5c9.8-.1 17-3.4 24.1-1.6 7.1 1.8 36.1-5.3 34.5-19.8-1.6-14.4-18.2-6.4-24.3-10.9-6.1-4.4-14.8-5.9-28.6 0s-25.2.5-36.6.6c-8.8.1-5.9 32.2-5.9 32.2z" class="st6"/><path fill="#666e8a" d="m845.6 1664 112.2-6.5c12.5-1.5 17.3-3.9 20.6-25.8l8.9-86.8c1.7-23-.2-22.8-13.1-23.4l-112.4-6.6c-17.1.4-17.9.6-20.1 20.7l-10.1 107.6c-2.2 21.4.8 22.7 14 20.8z"/><path fill="#fff" d="M913.6 1574.9s-13.3 1.1-11.6 18.6 19.4 18.2 25.7 9.5c6.3-8.8 4.1-32.2-14.1-28.1z" opacity=".97"/><path fill="#363142" d="M911.1 1583.1s-2.9 14.8.4 17.4c3.3 2.6 9.3 1 10.4-4.5s1-12.8 1-12.8h-2.5s-.6 7.6-1.2 10.2c-.6 2.6-2.8 5.2-4.7 4-1.9-1.2-2.1-3.4-1.9-6.2.2-2.8.4-8 .4-8l-1.9-.1z"/><g id="Layer_5-2"><path d="M1030.3 1639.2s-8.8 4.3-13.7-.3-4.3-13.2.3-15.8c4.6-2.6 15.8.3 15.8.3l-.1 5.8s-11.6-2.5-12.9-.3-1.5 7.9 3.1 7.4c2.8-.4 5.6-1.1 8.3-2.1l-.8 5z" class="st10"/><path d="M1028.1 1644.4c7.6 12.1 31.8 13.8 39.8 5 8-8.8 7.8-32.9 7.8-32.9l-49.4 1s-3.7 18.1 1.8 26.9z" class="st10"/><path d="M1067.1 1614.4s-12.7-1-20-.7-18.8 2.8-20.8 3.9c0 0 7.6 2.8 13 3.3 6.2.5 17.7-.7 23.4-1.4 9.4-1.1 13-2.9 13-2.9l-8.6-2.2z" class="st9"/><path fill="#371b21" d="M1062.7 1619.3c1.4-.2 2.6-.4 3.7-.5-3-.6-6.9-1.1-11.5-1.1l-15.4.5-7.8 1.1c2.4.7 5.3 1.4 7.7 1.6 6.2.4 17.7-.9 23.3-1.6z"/></g><g id="Layer_5-3"><path d="M828.2 504.9s-10.8-2.9-11.6-10.6 6.1-14.7 12.1-13.4c6 1.2 13.4 12.2 13.4 12.2l-4.4 4.9s-8.2-10.8-10.9-9.9-7.3 5.7-2.9 8.7c2.7 1.8 5.7 3.3 8.8 4.4l-4.5 3.7z" class="st16"/><path d="M822.4 507.7c-2.5 16.2 17.1 35.8 30.7 34.3 13.6-1.6 31.5-22.6 31.5-22.6L841 483.1s-16.8 12.9-18.6 24.6z" class="st16"/><path d="M878.7 511.1s-10.2-10.3-16.7-15.7-18.4-11.8-20.9-12.3c0 0 4.4 8.2 8.8 12.6 5 5.1 15.9 12.7 21.3 16.4 9 6.1 13.4 7.3 13.4 7.3l-5.9-8.3z" class="st9"/></g><g id="Layer_5-4"><path d="M1941.1 188.9s-7.5 8.4-14.7 5.6-10.3-12.1-6.5-16.9c3.8-4.8 16.9-6.4 16.9-6.4l2.4 6.2s-13.4 2.3-13.8 5.2 1.8 9.1 6.4 6.6c2.9-1.6 5.5-3.6 7.9-5.9l1.4 5.6z" class="st16"/><path d="M1940.9 195.4c13.3 9.5 39.7 1 44.5-11.8s-5.8-38.3-5.8-38.3l-52.1 22.3s3.8 20.9 13.4 27.8z" class="st16"/><path d="M1969.5 146.8s-13.9 4.4-21.6 7.8-18.8 11-20.4 13c0 0 9.3-.2 15.2-2.1 6.9-2.2 18.5-8.4 24.3-11.6 9.5-5.2 12.6-8.7 12.6-8.7l-10.1 1.6z" class="st9"/></g><g id="Layer_5-5"><path d="M2442.4 649.6s-4.9 12.4-14 12.3c-9.1-.1-16.4-9.2-14.2-16 2.2-6.8 16.1-14.1 16.1-14.1l5.2 5.9s-13.9 8.1-13.1 11.5c.7 3.4 5.8 9.3 9.9 4.6 2.5-2.9 4.7-6.2 6.4-9.8l3.7 5.6z" class="st16"/><path d="M2444.9 656.8c18.7 5.1 44.4-15.3 44.4-31.5s-22.3-40.1-22.3-40.1l-48.5 46.3c0 .1 12.9 21.6 26.4 25.3z" class="st16"/><path d="M2456.5 591.1s-13.6 10.6-20.7 17.6-16.3 20-17.2 22.9c0 0 10.2-4.1 16-8.6 6.7-5.2 17.1-17 22.1-22.8 8.4-9.8 10.4-14.8 10.4-14.8l-10.6 5.7z" class="st9"/></g><path d="m1172.7 1597.2 20 4.6s15 37.1-5.2 55.8c-20.2 18.6-55 13.8-64.2-5.7s6-64.3 6-64.3l43.4 9.6z" class="st9"/></g><g id="Flow"><path d="M1223.2 1530.5s-23.2-13.5-31.9 11.1 21 45.4 37.4 41.1c16.5-4.2 28-37.1-5.5-52.2z" class="st2"/><path d="M3291.3 2233.7c-.9 5.4-20.8 124.2-20.8 124.2l128 23.2 24.5-127.2-131.7-20.2zM2426 224c-3.5 2.3-81.4 53.6-81.4 53.6l48.7 78.2 84.9-53.2L2426 224z" class="st8"/><path d="M1008.6 801.5c-.2 4.2-5.5 97.8-5.5 97.8l100.9 7.1 8.1-100.4-103.5-4.5z" class="st3"/><path d="M2564.6 2103.9s-100.9-18.3-120.3-35.4c-22.9-20.2-29.2-79.3 47-72.2 0 0 22.2-64.3 60.8-45.8 38.6 18.6 26.4 67.7 24.2 95.3-2.2 27.8-11.7 58.1-11.7 58.1z" class="st10"/><path d="M984 943.6s-33.4 6.5-24.7 35.6 39.1 24.7 49.5 8.2c10.4-16.5.4-30.8-8.2-38.2-8.8-7.3-16.6-5.6-16.6-5.6z" class="st11"/><path d="M3175.5 1947.7s-28.7 5.2-21.6 30.2c7.1 25 33.1 21.6 42.2 7.6 9.1-14 .7-26.4-6.6-32.8s-14-5-14-5zM3728.9 796.9s-44.2 8.6-32.8 47.2c11.5 38.5 51.7 32.8 65.5 10.9s.6-40.8-10.9-50.6c-11.5-9.8-21.8-7.5-21.8-7.5z" class="st17"/><path d="M749.1 174.1c-.3 6.6-8.6 153-8.6 153l157.9 11.1L911.1 181l-162-6.9z" class="st8"/><path d="M1320.2 438.3s-21.4-23.9-22.9-31.9c-1.8-9.4 8-25.2 25.5-8.8 0 0 17.9-11.6 23.8.4 5.9 12-6.5 21.8-12.4 28.2-5.9 6.4-14 12.1-14 12.1z" class="st2"/><path d="M2612.4 383.3s-23.8-16.6-26.7-23.3c-3.5-7.9 1.8-23.8 20.6-13 0 0 13.3-13.9 21-4.6 7.7 9.3-1.2 20.5-5 27.3s-9.9 13.6-9.9 13.6z" class="st18"/><path d="M773.4 558s-52.8-31.1-60.1-44.7c-8.7-16.1 0-50.5 41.3-30.8 0 0 25.7-31.5 43.5-13.1s.8 43.4-6.1 58.4c-7.1 15.2-18.6 30.2-18.6 30.2zM3806.5 1556s4.3-61.1 13.2-73.7c10.5-14.9 45.2-22.5 45.9 23.2 0 0 39.6 9 31.1 33.1s-38.5 20.1-55 20.6-35.2-3.3-35.2-3.2z" class="st19"/><path d="M728.8 951.3s-7.2-2.8-8.6 4.6 8.1 11.9 12.6 10 6.3-11.8-4-14.6z" class="st10"/><path d="M1400 197.6c-7.6 4.5-12.8 15.9-12.8 15.9l.1.3-.3-.1s-13.2-6.1-19.7-3.4c-6.5 2.7-18.1 15.4-18.1 15.4s-2.1 11.4 2.9 19.2c4.6 7.2 14.6 13.4 16 14.3l-.2.4.7-.3 44.4 18.4 18.5-45-.1-.1h.2s3.4-13 1.1-19.3-14.5-16.7-14.5-16.7-10.6-3.5-18.2 1zM2693.3 2280.2c-10.9-3.8-26.9.8-26.9.8l-.2.4-.1-.5s-5.2-18.5-13.4-22.7c-8.2-4.2-30.9-5.1-30.9-5.1s-13.3 7.7-16.8 19.2c-3.3 10.7-1 26-.7 28.3l-.6.2.9.4 19.4 60.2 61-19.8-.1-.2h.1v.1s15.9-7.7 20.3-15.4 4.3-28.8 4.3-28.8-5.4-13.3-16.3-17.1z" class="st16"/><path d="m1007 785 46.3 5.2s2.4-24-13.9-37.6-17.7-11.1-17.7-11.1L1007 785z" class="st19"/><path d="M2715.2 530.7s-59.1 47.6-3.4 96.8c55.7 49.2 140.6-7.6 146.2-55.9 5.6-48.4-69-114-142.8-40.9z" class="st8"/><path d="M2725.6 564.8s27.2 55.9 49.7 52.9 46.1-27.8 36.4-49c-9.7-21.2-30.5-43.2-30.5-43.2l-11.7 8.3s18.2 25.8 22.6 35.8 1.3 25.4-11 27.9-18.9-3.8-25.8-13.2c-6.8-9.3-20-26.4-20-26.4l-9.7 6.9z" class="st20"/><g id="Layer_47"><path d="M447.1 931.7s-6.3-15.9-13.5-20.6-27.4-6.1-27.4-6.1-13.4 4.2-17.8 14.5-1 25.9-1 25.9l10.8 12.8 16.9 5.5 5.2 14.6 20.4-5.6-3.9-17.9 10.3-23.1z" class="st21"/><path d="m417.9 970.9 2.4 9.3c.9 3.4 7.2 3.6 7.2 3.6l11-2.8 3.5-5.9-3.2-12.3-20.9 8.1z" class="st8"/><path d="m377.7 916.7-21-4.4.7-5.7 18.1 4.6z" class="st21"/><path d="m375.5 945.2-19.4 3.7-2.8-7.3 18.2-2zM389.8 899.1l-9.4-21 6.4-3.4L393 894z" class="st22"/><path d="m408.7 886-.2-18 6.9-.4-3.1 20.9z" class="st21"/><path d="m438.5 897.6 12.7-10.4 3.7 3.8-14.5 11z" class="st22"/><path d="m459.4 921 15.4-5.9 1.6 4.3-17.1 6z" class="st21"/></g><g id="Layer_47-2"><path d="M1509.9 336.9s5.7-14.9 3.7-22.6c-2-7.7-15-21.4-15-21.4s-11.9-5.5-21.3-1.2c-9.5 4.3-17 17.1-17 17.1l-.6 15.6 8.1 14.4-5.6 13.3 17.5 9.1 8.6-14.8 21.6-9.5z" class="st21"/><path d="m1465.2 345.4-4.2 7.9c-1.6 2.9 2.6 7 2.6 7l9.4 5 6.1-1.8 5.6-10.5-19.5-7.6z" class="st8"/><path d="m1471.8 282.9-11.6-16.2 4-3.5 9.5 14.6z" class="st21"/><path d="m1452.3 301-15.6-9.6 2.7-6.8 13.7 10.1zM1491.1 278.4l6.8-20.2 6.5 1.7-7.9 17.1z" class="st22"/><path d="m1512.3 281.3 11.3-12.4 5 4.1-15.3 12.3z" class="st21"/><path d="m1525.5 308.1 15.3.9.1 4.9-16.9-1.5z" class="st22"/><path d="m1525.1 337.3 14.2 5.7-1.6 4-15.5-6.7z" class="st21"/></g><path d="m934.7 367.4 55.2 33.3s39.3 17.1 94.7 3.5l7.1 13.4s-47.6 5.7-56 4.8c-8.5-.9-40.6-6.6-40.6-6.6s-55.6-28-71.8-40.2l11.4-8.2z" class="st10"/><path d="m1062.3 386-1.7 14.6 23.9 8-7.3 26.6 18.5 5.8 20.4-45.3zM428.3 1117.2s-11.6-21.8-13.5-27.3-7.8-28.3-9.3-36.1c-1.4-7.9-2.8-26.9-2.8-26.9l-7.4 7.9-6.9-12.5 19.9-19.9 23.2 16.1-9.3 11.4-7.5-4.7s5.1 30.6 6.5 34.8c1.4 4.2 11 37.2 14 43.1 2.8 5.6 6.9 15.4 6.9 15.4l-13.8-1.3z" class="st10"/><path d="m1829.3 145.4 17.7-26.5s23.1-22.1 73.6-18.5l.7-14.7s-39.6-3-46.2-.9c-6.6 2.2-32.3 18.2-32.3 18.2s-21.9 23-30.5 36.9l17 5.5z" class="st16"/><path d="m1909 117.8-5.1-10.8 13.9-13.4-10.8-16.3 12-8.3 26.9 30.4z" class="st16"/><path d="M1886.3 45.5s.7-3.8.8-5.6c-.1-2.7-1.3-5.1-3.4-6.8-2.1-1.4-7.5-.8-9.2 1.3s-4.9 6.8-2.3 10.3c2.6 3.3 6.7 9.5 14.1.8zM2262.8-70.5s2.9-2.6 4.1-4c1.5-2.2 2.1-4.9 1.5-7.5-.8-2.4-5.4-5.2-8.1-4.6s-8.1 2.4-8.1 6.8c0 4.3-.5 11.6 10.6 9.3z" class="st23"/><path d="m1814.7 369.7 7.1-5.9-7.2-7.3-9.3 5.1z" class="st24"/><path d="m2182.7 27.8 1.3 9.4 10.1-2.1.6-10.7z" class="st10"/><path d="M463.9 845.7s.7-3.8.8-5.6c-.1-2.7-1.3-5.1-3.4-6.8-2.1-1.4-7.5-.8-9.2 1.3-1.7 2.1-4.9 6.8-2.3 10.3 2.6 3.4 6.7 9.5 14.1.8zM735.4 580.3s.7-3.8.8-5.6c-.1-2.7-1.3-5.1-3.4-6.8-2.1-1.4-7.5-.8-9.2 1.3-1.7 2.1-4.9 6.8-2.3 10.3 2.6 3.3 6.7 9.4 14.1.8z" class="st23"/><path d="m356.3 1021.3 8.7 3.8 3.6-9.7-8.9-6.1z" class="st25"/><path d="m598.3 1112.9-.2-9.4-10.4.8-1.7 10.6zM396.5 1236.4l6.8-6.6-7.7-7-9 5.9z" class="st10"/><path d="m411.9 1319.8-4.6 8.3 9.3 4.6 6.9-8.2z" class="st1"/><path d="M411.3 1086.7s2.9-2.6 4-4c1.5-2.2 2.1-4.9 1.5-7.5-.8-2.4-5.4-5.2-8.1-4.6s-8.1 2.4-8.1 6.7-.4 11.8 10.7 9.4z" class="st8"/><path d="m304.4 1100.8 9.4-.9-1.5-10.2-10.7-1z" class="st16"/><path d="m564.5 1187.6 3.3 8.9 9.5-4.1-1.8-10.6z" class="st5"/><path d="M2607.2 712.7s-.5-11.7-1-15.3l-11.3-3.8 1.5 11.8s5.7 4.9 10.8 7.3z" class="st8"/><path d="M3097.6 1373.7c1.4-1.3 2.8-2.6 4.1-4 1.5-2.2 2.1-4.9 1.5-7.5-.8-2.4-5.4-5.2-8.1-4.6s-8.1 2.4-8.1 6.7-.6 11.8 10.6 9.4z" class="st9"/><path d="M1721 315.9s2.9-2.6 4.1-4c1.5-2.2 2.1-4.9 1.5-7.5-.8-2.4-5.4-5.2-8.1-4.6s-8.1 2.4-8.1 6.7c0 4.5-.5 11.9 10.6 9.4z" class="st8"/><path d="m535.3 404-4.6 8.2 9.3 4.6 6.9-8.2z" class="st18"/><path d="m2818.1 802.3-9.4.1.7 10.3 10.6 1.9z" class="st26"/><path d="m2501.1 248.6-9.1-2.8-2.4 10.1 9.5 5z" class="st22"/><path d="m3200 1005.8-8.7-2.7-2.4 9.7 9.1 4.9z" class="st24"/><path d="m968 912.8 1.4 9.3 10.1-2 .6-10.7z" class="st16"/><path d="m790.8 566 9.2 1.9 1.5-10.2-9.9-4.1zM597.9 578.9l8.4-4.4-5.3-8.9-10.3 3z" class="st10"/><path d="M910.1 710s.7-3.8.8-5.6c-.1-2.7-1.3-5.1-3.4-6.8-2.1-1.4-7.5-.8-9.2 1.3s-4.9 6.8-2.3 10.3c2.6 3.3 6.7 9.4 14.1.8z" class="st23"/><path d="m848.6 953.1 32.7 5.4 24.8-5.9s18.8-14.8 26.3-26.6l5.4 12.9 13.6-1-2.4-26.5-7.4-25.7-38.7 20.8 6.5 11.9 12.9-2.2s-13.7 15.4-19.9 18.1-26.6 6.4-26.6 6.4-35.1-3.4-44.9-6l17.7 18.4zM825.4 364.7c-2.3-4.8-53.8-111.7-53.8-111.7l-116 54L708 423.2l117.4-58.5z" class="st10"/><path d="M2319.9 48.5c5.2 1.5 119.4 35.9 119.4 35.9L2478-38.5l-121.9-39.9-36.2 126.9z" class="st3"/><path d="M1459.2 395.4c-3.9 1.1-90.8 25.6-90.8 25.6l25.2 94.1 93.9-24.1-28.3-95.6z" class="st8"/><path d="M2372.9 191s2.9-2.6 4.1-4c1.5-2.2 2.1-4.9 1.5-7.5-.8-2.4-5.4-5.2-8.1-4.6s-8.1 2.4-8.1 6.8-.5 11.7 10.6 9.3z" class="st23"/><path d="m970.6 422.2-4.7 8.3 9.3 4.5 7-8.2z" class="st18"/><path d="m2569.7 284.8 9-3.1-3.9-9.6-10.6 1.5z" class="st27"/><path d="m1653.3 192.5-4.7 8.3 9.3 4.6 7-8.2zM1006.8 706.6l8.2 4.6 4.6-9.3-8.2-6.9zM289.3 880.3l9.4.8.2-10.4-10.3-2.8zM490.7 873.8l4.3 8.5 9-5.3-3.1-10.3zM765.9 621.3l8.1-5-5.9-8.5-10.1 3.8z" class="st24"/><path d="m693.3 611.1 6.1-3.8-4.5-6.5-7.6 2.9zM927.5 877.3s.7-3.8.8-5.6c-.1-2.7-1.3-5.1-3.4-6.8-2.1-1.4-7.5-.8-9.2 1.3-1.7 2.1-4.9 6.8-2.3 10.3 2.6 3.3 6.7 9.4 14.1.8z" class="st27"/><path d="m952.9 819-3.8-3.7s-5.4-1-5.1 2.4-1.8 6.7-3.4 11-7.4 16.2-2.8 22.3c4.6 6.1 9.6 20.1 16.8 22.4s10.5.7 10.5.7 6.6 3.6 7.6.9-.2-6.8-.2-6.8c4.6-5.2 7.1-12 6.9-18.9-.4-11.5-6-17.7-11.2-22.7-5.1-5-15.3-7.6-15.3-7.6z" class="st21"/><path d="M1607.6 329.8s3.1-4.2 5.9.3 3.9 9.7 1.8 14.2-1.2 11.4-1.6 15.3-5.1 21.9-18.9 15.4c-9.5-4.4-14.8-12.2-13.5-16.8 1.2-4.6 2.3-8.6 10.4-12.8s12.8-7.7 13.7-9.8 2.2-5.7 2.2-5.8z" class="st23"/><path d="m1609.4 333.2.9-8.2 5.6-4.6 1.6 1.8-4.1 5.2.1 7.1z" class="st9"/><path d="m816.7 608.8 14.9.4 8.3-22.5 24.1 4.1 3.4-17.9-48.1-15.4z" class="st2"/><path fill="#ffc91d" d="m477.5 1035.5.2-3.8s-2-3.4-3.8-1.6c-1.7 1.8-4.5 2.2-7.6 3.4s-12.3 3.7-13.4 9.2-6.3 14.8-4.1 19.8 4.6 6 4.6 6 1.2 5.3 3.1 4.6 3.6-3.4 3.6-3.4 7.5.4 13.5-5.3c6.1-5.7 6.7-11.7 6.9-16.9s-3-12-3-12z"/><path d="m842.1 378.8 3.2-24.8 5.8 11.9 11.5-16.4-.5 16.3 11.6-6.1-12.7 32.4z" class="st9"/><path d="M856.7 384s-17.1-8.7-23-7-24.7 21.9-24.7 21.9-11.2 27.7-10.3 38.4c.8 10.7 7.9 17.3 15.8 22.2s27.9 1 27.9 1 20.3-8.5 30.5-50.2c3.2-13.3-16.2-26.3-16.2-26.3z" class="st23"/><path d="m834.7 387.8-10.2 6.2 5.8 9.3 10-7.8zM819.4 403l-5.9 4.8 2 6 7-4.9zM835.9 407.6l-8.2 6.3 4.6 7.3 5.6-7zM820.1 416.8l-10.6 6.8 5.7 8.9 8.9-8zM827.2 433.3l-5.4 6.6 3.3 6 10.3-6zM813.4 439.4l-5.4 4.5 2.6 4.7 5-3.9zM854.3 389.1l-8.6 4.8-2.8 10.4 11.7-2.8zM859.7 404.6l-8.2 6.2 4.6 7.4 5.5-7zM842.2 440.4l-5.3 6.5 3.3 6.1 10.2-6.1zM855.8 427.9l-5.5 4.5 2.7 4.7 5-3.9zM846.9 417.6l-8.6 4.9-2.9 10.4 11.8-2.9z" class="st25"/><path d="M513.7 1103.1s3.9-4 5.5-6.2 2.8-7.6 1.4-11-8.4-7-12.2-5.8c-3.8 1.2-11.5 4.3-11 10.6s.4 17 16.3 12.4z" class="st2"/><path d="M508.4 1080.1s2.1-9.1 1.3-11.9-3.2-7.9-3.2-7.9l-3.7 15.3c-4.2-2.2-3.3-4.1-9.1-3.7-1.8.1-6 .3-6 .3s8.2 8.5 15.8 9.8l4.9-1.9z" class="st9"/><path d="M523.5 871.5c-1.4 3.5-33.1 81.7-33.1 81.7l83.9 35.3 36.1-83.1-86.9-33.9z" class="st8"/><path d="M502.3 1002.1s13.8-13.8-1.8-24.5c-15.6-10.7-35.7 6.3-35.8 18.6s20.8 26.6 37.6 5.9z" class="st10"/><path d="M1007 933.9c1.9 2 43.9 46.3 43.9 46.3l44.8-40.4-44.1-48.6-44.6 42.7z" class="st8"/><path d="M533.5 1152.7c-2.2-2.3-49.9-53.9-49.9-53.9l-56.3 50.8 50 56.6 56.2-53.5z" class="st16"/><path d="M486.3 1244.4c2.1.6 48.4 14.6 48.4 14.6l15.8-49.8-49.4-16.2-14.8 51.4z" class="st3"/><path id="Layer_26" d="m472 1215.8-.5 37.7-18.2-18.5z" class="st18"/><path d="m1573.5 310.7 70.2-25.9-31.9-96.3-66.3 28.1z" class="st20"/><path d="m1579.7 290.5 47.1-18.5-21.4-71.7-48.8 22.2zM1606.1 284.5s-1.6 4.6 1.4 5.3 7.1-6.8-1.4-5.3z" class="st19"/><path d="m621.3 942.7 37.1 30 16.3-22.9-34.7-28.9c-1.3-1.1-3.2-.9-4.3.3l-14.8 16.9c-1.2 1.4-1 3.4.4 4.6-.1-.1-.1-.1 0 0z" class="st8"/><path d="m627.3 941.7 23 18.2 10.6-14.9-21.6-18.8zM658.3 954.3s-1.7 4.1 1 4.8c2.5.8 6.6-5.8-1-4.8z" class="st4"/><path d="M888.2 444.4s-13.9 21.8-21.8 26.7l8.1 10.5s20.8-18.9 22.7-30.8l-9-6.4zM904 442s11.1-17.5 36.4-11.8l2.6-13.9-23.9-1.1s-21.2.9-21.8 22.2l6.7 4.6z" class="st19"/><path d="M913.3 428.2s-6.7-14.9-19.9-6-6.1 29.6 3.7 33.4c9.7 3.9 27.4-8.1 16.2-27.4z" class="st20"/><path fill="#2c3994" d="M909.2 431.7s-4.3-9.5-12.8-3.8-3.9 19 2.4 21.4c6.2 2.4 17.5-5.3 10.4-17.6z"/><path d="M895.7 423.4s1.2-3.3-2.1-3.9-5.4 3.6-4.5 5.6c.8 2.1 5.4 2.9 6.6-1.7z" class="st19"/><path d="m459.6 1262 36.6 19.1-2.5 6.7-38.8-15.6z" class="st30"/><path d="m496.2 1281.1 5.9 5.8-8.4.9z" class="st11"/><path d="M501.6 1286.2h.7v1h-.7z" class="st26" transform="rotate(-71.87 501.9010789 1286.66736408)"/><path d="m776 437.5-65.4 18.8-4.6-10.6 63.9-25.8z" class="st30"/><path d="M710.6 456.3H697l9-10.6z" class="st11"/><path d="M696.7 455.6h1.6v1.2h-1.6z" class="st26" transform="matrix(.9015 -.4327 .4327 .9015 -128.6954 346.722)"/><path d="m3511 764.1 27.7-67.8 12.1 3.2-21 71.2z" class="st30"/><path d="m3538.7 696.3 9.2-11.5 2.9 14.7z" class="st11"/><path d="M3546.5 684.4h1.7v1.2h-1.7z" class="st26" transform="rotate(-77.25 3547.57105904 685.04931996)"/><path d="m1229.7 317.1 31.5 66.1-10.5 6.9-38.6-63.4z" class="st16"/><path d="m1261.2 383.2 2.4 14.5-12.9-7.6z" class="st11"/><path d="M1262.9 396.3h1.2v1.7h-1.2z" class="st26" transform="rotate(-35.055 1263.61700387 397.0975357)"/><path d="m3208.9 97.1-59.2-29.3 3.6-10.7 62.7 23.4z" class="st8"/><path d="m3149.7 67.8-9.8-8.9 13.4-1.8z" class="st11"/><path d="M3139.6 58.2h1.1v1.5h-1.1z" class="st26" transform="matrix(.289 -.9573 .9573 .289 2176.0623 3048.061)"/><path d="m2263.8 49.1 74-18 4.7 12.1-72.7 25.8z" class="st8"/><path d="m2337.8 31.1 15.2.6-10.5 11.5z" class="st11"/><path d="M2351.7 31.1h1.8v1.3h-1.8z" class="st26" transform="matrix(.9191 -.3939 .3939 .9191 177.7242 929.3508)"/><path d="M968.8 692.5c-4.9 2.9-8.2 10.3-8.2 10.3l.1.2-.2-.1s-8.5-3.9-12.7-2.1-11.6 9.9-11.6 9.9-1.3 7.4 1.9 12.3c2.9 4.6 9.4 8.6 10.3 9.2l-.1.3.4-.2 28.6 11.8 11.8-29h-.1.2s2.2-8.4.6-12.4c-1.5-4.1-9.4-10.7-9.4-10.7s-6.8-2.4-11.6.5zM3544.4 69.8l-23.6 59.6 35.9 11.8 23.2-56c.9-2.1-.1-4.5-2.1-5.4l-27.7-12.3c-2.1-.9-4.6 0-5.5 2.1-.2.1-.2.1-.2.2z" class="st8"/><path d="m3548 77.1-14.1 36.8 23.3 7.7 15.5-35.2zM3544.3 121.9s-5.9-.5-5.8 3.2 10.1 6.2 5.8-3.2z" class="st4"/><path d="m625 267.3 9.3 1.9 1.5-10.2-9.9-4.1z" class="st10"/><path d="m586.6 1010.5 3.6 6.2 6.6-4.3-2.7-7.7z" class="st27"/><path d="M459 1209.8s-11.8-15.6-15.4-17.7c-3.6-2.1-19.9-10.4-19.9-10.4h-22l9.2-9.5-9.1-4.6-12.5 19.3 20 13.3 2-6.6-5.5-5.5s17.7.9 22.3 3.4 21 14 23.5 25.8l7.4-7.5z" class="st2"/><path d="m497.7 1026.2 33.4 51.2s26.2-17.7 26.5-45.5-3.6-27.2-3.6-27.2l-56.3 21.5z" class="st23"/><path d="M3604.1 1801.9c-4-5.1-91.6-117.8-91.6-117.8l-110.2 80.7 91.6 123.1 110.2-86z" class="st16"/><path d="M1667.9 164.1s5.4-1.6 7.8-2.7 6.2-5.2 6.7-8.8c.5-3.7-3.7-10.3-7.7-11.1s-12.1-2-14.9 3.7-8.1 14.9 8.1 18.9z" class="st2"/><path d="M1674.7 141.5s6.4-6.9 7.1-9.7c.7-2.8 1.2-8.5 1.2-8.5l-10.9 11.4c-2.5-4-.8-5.2-6-7.7-1.6-.8-5.3-2.7-5.3-2.7s2.8 11.4 8.8 16.4l5.1.8z" class="st18"/><path d="M867.8 664s2.7-4.9 3.7-7.4c.9-2.5.7-8-1.5-11-2.2-2.9-9.9-4.6-13.3-2.4s-9.9 7.2-7.9 13.1 4.9 16.4 19 7.7z" class="st16"/><path d="M856.7 643.2s-.3-9.4-1.8-11.8-5.2-6.8-5.2-6.8l.4 15.8c-4.6-1-4.2-3.1-9.7-1.2-1.7.6-5.7 1.8-5.7 1.8s10.1 6 17.8 5.3l4.2-3.1z" class="st9"/><path d="m1126 863.9 1.9 5.9 6.5-4.8-.8-7.4z" class="st16"/><path d="M1139.4 337.3s-20.8 15.9-10.7 42.7 49.8 26.8 60.9 13.1c7.6-9.3 23.5-35.1 5.6-54.4s-43.4-12.8-55.8-1.4z" class="st8"/><path d="M1145.7 332.6s3.7 5.4 4.5 9.6.5 8.5-4.2 9.3c-1.9.3-6.4-2.9-7.1-1-1 2.7-3 5-.1 7.6 1.9 1.7 4.2 5.2 5.1 7.1.5 1 .4 2.2-.1 3.1-1 1.7-1.3 2.5-4.3 2.5-2.7-.1-5.4-4.9-5.4-4.9s-4.5 4.2-1.9 7.7-1.1 11.4-1.1 11.4-20.1-31.5 14.6-52.4zM1174.5 334.4s-7.5 2.1-8.5 4.7l-3.3 8.3 4 6.7s-11.6-.7-12 2.8-3.6 5.9 1.9 9c5.4 3.2 13.8 3.4 13.8 3.4s-.7 6.3-4.7 6.6c-4 .2-11.6-1.3-11.3 3.3s5.2 11.3 5.2 11.3 6.6 2.4 12.1.2c5.4-2.3 8.1-5.1 7.7-11-.4-5.9 0-10.1 0-10.1s2.2-3.4 5-4.2 7.2 4.9 7.2 4.9 4.2-1.4 5.8-4 6.1-6.2 6.1-6.2 1.8-7.8-5.6-18.5c0 0-5.9 1-8 2.3s-6.4 3.4-6.4 3.4-3.3-4.2-4.3-6.4.5-5.6-4.7-6.5z" class="st20"/><path d="M3007 1049.6s-45.9 34.1-24.6 92.8c21.2 58.6 107.8 59.8 132.4 30.5 16.9-20.1 52.3-75.9 13.9-118.5-38.4-42.7-94.4-29.3-121.7-4.8z" class="st8"/><path d="M3020.8 1039.6s7.9 11.9 9.5 21.1-3.7 18.9-7.8 19.1c-4.1.3-17.2-4.4-18.1-.2-.9 4.2-5.7 9.5.6 15.4s11.4 19.1 11.4 19.1-7.1 10.9-10.4 10.9c-3.3 0-11-10.4-11-10.4s-10.5 6.2-5 13.7-2.6 24.9-2.6 24.9-43-69.1 33.4-113.6zM3083.6 1044.4s-16.4 4.4-18.7 10.1l-7.4 18 8.6 14.7s-25.2-1.8-26.2 5.7c-1.1 7.5-7.9 12.7 3.8 19.7 11.8 7.1 30 7.9 30 7.9s-1.6 13.8-10.4 14.1-25.3-3.1-24.8 7 11.1 24.9 11.1 24.9 14.4 5.5 26.3.7 17.8-11 17-23.8.4-22 .4-22 5-7.4 10.9-8.9 15.5 10.9 15.5 10.9 9.1-2.8 12.8-8.6c3.7-5.7 13.4-13.3 13.4-13.3s4.1-17-11.7-40.5c0 0-13 1.9-17.4 4.7-4.5 2.8-14 7.2-14 7.2s-7.1-9.3-9.1-14.1c-2.2-4.6 1-12.5-10.1-14.4z" class="st20"/><path d="m1180.6 292.3 3.7 7.5 7.9-4.1-2.4-9.1z" class="st24"/><path d="m3064 1664.2 84.7 36.9 57.5-112.7-83-31.7z" class="st20"/><path d="m3088.1 1652.6 56.3 23.1 43.9-79.8-61-21.4zM3115.9 1668.7s-5.5 2.7-3.4 5.9 12.2.1 3.4-5.9z" class="st19"/><path d="M390.8 1139.9s-13.4-2.2-16-4.4c-3.1-2.6-4-10.4 6.1-9.6 0 0 2.8-8.5 7.9-6.1s3.6 8.9 3.4 12.6-1.4 7.5-1.4 7.5z" class="st24"/><path d="M942.6 770.2s-4.2-4 1.2-6.4 11.1-3 15.8-.1 12.2 2.9 16.5 3.9c4.3 1 23.2 8.6 14.3 22.7-6.2 9.8-15.3 14.5-20.2 12.5-4.9-2-9.1-3.7-12.6-13.1-3.5-9.3-6.7-15-8.8-16.3s-6.1-3.2-6.2-3.2z" class="st31"/><path d="m947.2 769.2-9-1.3-4.8-6.3 2-1.7 5.6 4.7 7.7.2z" class="st9"/><path d="M915.8 974.2c-1-3 .4-9.8 6-10.4 5.6-.7 10.7-.4 12.2 3.9 1.4 4.3 1.8 9.5-5.5 12.2-7.2 2.6-4.1 1.8-4.1 1.8s4.5-1.2 6.9.9 6.4 4.1 5.4 6.9-4.9 5.7-7.4 6.6-7.1-2.5-7.7-4.9l-.7-2.4s2.8 7.4-4.6 9.8-10.9 3.5-12.4-2.7.8-8.2 4.3-9.7 5.5-2.1 5.5-2.1h-5.1c-5.5 0-7.8-1.6-8.9-6.5s-1.3-8.8 4.6-10.2c5.9-1.4 8.7.9 10.1 3.9l1.4 2.9z" class="st16"/><path d="M918.6 980.2c-2.4-.7-3.6.5-3.7 2.6s4 2.6 5.1 2.3c4.9-1.5-1.4-4.9-1.4-4.9z" class="st3"/><path d="M696.3 534.3c3.2-3.2 12.8-5.9 17.4.7s7.6 13.3 3 17.9-11 8.5-19.3 1.1c-8.1-7.3-5-4-5-4s4.5 4.9 3.4 9.3-1.1 10.7-5.3 11.2-10.6-2.4-13.3-5c-2.7-2.6-1.5-10.5 1.2-12.9l2.7-2.4s-7.7 8.3-15.6.6-11.7-11.4-4.7-17.4 11-4.3 15.3-.8c4.2 3.5 6.3 5.5 6.3 5.5s.3.5-3.4-6.4-3.1-10.8 2.5-15.5 10.5-7.4 16.2-.9c5.7 6.5 4.5 11.5 1.7 15.2l-3.1 3.8z" class="st16"/><path d="M690.4 541.6c-.8-3.5-3-4.2-5.8-3s-.8 6.7.4 7.9c5.3 5.3 5.4-4.9 5.4-4.9z" class="st3"/><path d="M533.5 1285.9c.8-3 5.7-7.9 10.7-5.3s9.1 5.6 7.9 10-3.8 8.9-11.3 7c-7.4-1.8-4.4-.8-4.4-.8s4.4 1.5 5.2 4.6 3 6.9.7 8.6c-2.3 1.7-7.2 2-9.7 1.3s-4.5-5.9-3.7-8.3l.8-2.4s-1.8 7.7-9.2 5.5-10.9-3.1-8.7-9.1c2.2-6 5.2-6.3 8.9-5.6s5.7 1.3 5.7 1.3.4.2-4.2-2.8c-4.6-3-5.5-5.6-3.7-10.3s3.8-8 9.4-5.9c5.6 2.1 6.7 5.6 6.2 8.8l-.6 3.4z" class="st16"/><path d="M532.4 1292.3c-1.7-1.9-3.2-1.6-4.5.1s1.8 4.4 3 4.7c4.9 1.5 1.5-4.8 1.5-4.8z" class="st3"/><path d="M691.4 408.4s-23.6-40.5-31-46.2C653 356.6 625 337 625 337l-47-9.3 21.5-17.7-19-12.5L548 337l40.9 34.4 6-14-12.2-15.2s40.4 8.3 49.8 14.9c9.4 6.7 42.9 36.4 45.5 63l13.4-11.7z" class="st16"/><path d="M962.3 1013.7s.7-3.8.8-5.6c-.1-2.7-1.3-5.1-3.4-6.8-2.1-1.4-7.5-.8-9.2 1.3s-4.9 6.8-2.3 10.3c2.6 3.4 6.7 9.5 14.1.8z" class="st31"/><path d="m1013.9 1030.7 5.4-3.7-5.3-5.6-7 3z" class="st27"/><path d="m793.4 959 62 23-2.6 11-64.8-16.8z" class="st21"/><path d="m855.4 982 10.6 7.9-13.2 3.1z" class="st11"/><path d="M865 988.9h1.1v1.5H865z" class="st26" transform="rotate(-79.159 865.58685516 989.58071184)"/><path d="m567.6 1332.3 9.4-.9-1.5-10.2-10.7-1z" class="st16"/><path d="m896.9 362.2-2.9 9 10 2.6 5.1-9.4z" class="st27"/><path d="m3585.4 1687.4-60.1 52.3-10.2-9 55.2-59z" class="st8"/><path d="m3525.3 1739.7-14.4 6.7 4.2-15.7z" class="st11"/><path d="M3510.4 1745.8h1.9v1.4h-1.9z" class="st26" transform="rotate(-50.587 3511.50032398 1746.42851189)"/><path d="m2448.6 444.1-3.6-1.4s-3.9.8-2.7 3c1.2 2.2.6 5 .8 8.3.1 3.3-.5 12.8 4.3 15.7 4.8 2.8 11.9 10.8 17.4 10.3s7.2-2.4 7.2-2.4 5.4.6 5.3-1.4c-.1-2-2-4.5-2-4.5s2.8-6.9-.6-14.6c-3.4-7.6-8.9-10.1-13.7-12.1s-12.4-.9-12.4-.9z" class="st21"/><path d="M1465.1 110.8c5.7 6.3 18.6 9.5 21.7 15.8 3.1 6.3 2.3 19.4 4.1 20.6 1.8 1.2-3.5 4.9-12.5 3.2-8.9-1.7-15.4-6.1-14.3-16.3 1.2-10.1 1-23.3 1-23.3z" class="st23"/><path d="M1491.3 147.7c-15.4 6.9-29.7 12.5-31.8 22.2s3 4.5 11.8 4 11.2-.4 15.8-10.8c4.5-10.4 4.2-15.4 4.2-15.4zM1528.6 120.2c-7.3 4.4-20.5 3.9-25.3 9.1-4.8 5.2-7.7 18-9.7 18.6-2.1.6 2 5.7 11.1 6.6s16.5-1.5 18.3-11.6 5.6-22.7 5.6-22.7z" class="st23"/><path d="M1493.1 148.3c12.8 10.9 25 20.4 24.3 30.3-.7 9.9-4.1 3.5-12.4.5s-10.6-3.5-12.1-14.8.2-16 .2-16z" class="st23"/><path d="M1493.5 135.1c-7.3-.4-6.2 22.9-5.9 32.3.3 9.3 1.2 14.1 1.2 14.1s1.4-4.2 3.5-13 9.6-32.9 1.2-33.4z" class="st9"/><path d="M2628.5 833.1c-13.7 3-28.9 18.7-40.5 17.8-11.6-.8-29.5-12.8-32.7-11.2-3.1 1.6-4.1-9.1 5.7-20.4 9.9-11.3 21.4-16.9 34.9-6.9 13.6 10.1 32.6 20.7 32.6 20.7z" class="st16"/><path d="M2554.3 839.9c2.9-27.6 6.7-52.6-5.4-63.7s-8.9.5-15.4 13.5-8.7 16.2 2.3 31.4c11 15.1 18.5 18.8 18.5 18.8zM2562.6 915.7c-.3-14 11.4-32.4 7.9-43.5s-19.3-25.7-18.4-29.2-9.8-1.9-18.5 10.3c-8.7 12.2-11.5 24.8 1.4 35.6s27.6 26.8 27.6 26.8z" class="st16"/><path d="M2552 842c-26.1 9.2-49.6 18.7-63.2 9.6-13.5-9.1-1.6-8.8 9.6-18.1 11.1-9.3 13.8-12.2 31-5.1 17.3 7.2 22.6 13.6 22.6 13.6z" class="st16"/><path d="M2570.4 853.5c6.6-10-27.5-27.8-41-35.1-13.5-7.3-21.1-9.9-21.1-9.9s4.9 5.5 15.7 15.7c10.8 10.2 38.8 40.7 46.4 29.3z" class="st9"/><path d="M2085.4-.7c-.3 4.4-5.6 12.6-13.2 10.7-7.6-1.9-14.1-4.9-13.8-11.3.4-6.3 2.7-13.4 13.5-13.2 10.7.2 6.3-.3 6.3-.3s-6.5-.7-8.5-4.7-6.1-8.6-3.4-11.7 9.4-5 13.1-4.9c3.7.2 7.8 6.8 7.4 10.2l-.4 3.5s.2-11.1 11.1-10.5c10.9.6 16 .8 14.7 9.8-1.3 9-5.4 10.3-10.7 10.5-5.4.2-8.2 0-8.2 0s-.6-.2 6.6 2.5c7.2 2.7 9.2 5.9 8.1 13-1.1 7.1-2.9 12.2-11.3 11.1-8.4-1.2-10.8-5.6-11.1-10.2l-.2-4.5z" class="st16"/><path d="M2085.1-9.9c2.8 2.1 4.9 1.2 6.1-1.5 1.2-2.7-3.8-5.4-5.4-5.5-7.2-.6-.7 7-.7 7z" class="st3"/><path d="M2793.1-45c-1.4 3.5-33.1 81.7-33.1 81.7l83.9 35.3 36.1-83.1-86.9-33.9z" class="st8"/><path d="M3777.4 305.3c-5.6 1.7-128.5 37.5-128.5 37.5l30.9 118.5 132.9-35.7-35.3-120.3z" class="st19"/><path d="M1733.6 22.9c3.4 8.1 14.9 15.6 15.8 22.8.9 7.2-4.4 19.7-3 21.5s-5.1 3.6-13.3-1.1-13-11.2-8.4-20.7 8.9-22.5 8.9-22.5z" class="st16"/><path d="M1746.6 67.8c-17.3 1.5-33.2 2.2-38.6 10.9-5.4 8.7 1.4 5.4 10.1 7.9s11.1 3.4 19.1-5.1 9.4-13.7 9.4-13.7zM1792.3 53.6c-8.6 1.8-21.3-3.2-27.8.3-6.4 3.5-13.6 14.9-15.8 14.8-2.2-.1 0 6.3 8.6 10.2 8.6 3.9 16.7 4.1 21.8-5.1 5.2-9.2 13.2-20.2 13.2-20.2z" class="st16"/><path d="M1748.2 69c8.8 15 17.4 28.4 13.4 37.8s-5.2 2-12.3-3.7c-7.1-5.8-9.2-7-6.8-18.5 2.4-11.6 5.7-15.6 5.7-15.6z" class="st16"/><path d="M1753.1 56.3c-7-2.9-13.8 20.3-16.7 29.5s-3.6 14.2-3.6 14.2 2.8-3.7 7.8-11.5c5-8 20.4-28.9 12.5-32.2z" class="st9"/><path d="m1511.4 86-4.7-8.2-8.7 5.6 3.5 10.2z" class="st10"/><path d="m1463.3 221.1 1.8 7 7.5-2.4-.5-8.1z" class="st27"/><path d="m1688.3 407-5.1 7.9 9 5.2 7.4-7.8z" class="st10"/><path d="m1287.8 369.7-8.8 3.4 4.2 9.5 10.6-1.9z" class="st24"/><path d="m2262.1 312.4 7.2.9.5-7.8-7.7-2.6z" class="st27"/><path d="m1344.7 472.4-6.2.5 3.2 7.5 7.5.8z" class="st16"/><g id="Layer_19"><path d="m1298.3 285.2-15.6 61.5 97.7 18 7.2-60.1z" class="st8"/><path d="M1321.4 312.8s-10.3 10.2-2.9 24.2 29.2 11.2 34.3 3c3.5-5.6 10.5-20.9-.7-30.2-11.2-9.5-24.7-4.1-30.7 3z" class="st20"/><path d="M1325.6 316.3s-7.5 7.4-2.1 17.5 21.2 8.1 24.9 2.2c2.6-4.1 7.6-15.2-.5-21.9s-18-3-22.3 2.2z" class="st8"/><path d="M1364.6 305.6h11.3v10.9h-11.3z" class="st20" transform="rotate(-79.018 1370.30340358 311.02007252)"/><path d="M1366.5 348.6s-1.4 1.4-.4 3.3c1 1.9 4 1.6 4.7.4.5-.8 1.4-2.9-.1-4.2s-3.4-.4-4.2.5z" class="st10"/></g><path d="M1609.9 469.5c-2.6-3.9-60.4-90.7-60.4-90.7l-94.5 61.1 59.8 94.7 95.1-65.1z" class="st10"/><path d="M1417.2 381.2s.7-3.8.8-5.6c-.1-2.7-1.3-5.1-3.4-6.8-2.1-1.4-7.5-.8-9.2 1.3-1.7 2.1-4.9 6.8-2.3 10.3 2.6 3.4 6.7 9.5 14.1.8zM2215.7 108.5s-3.4-.7-5-.8c-2.4.1-4.7 1.1-6.4 2.8-1.5 1.8-1.4 6.6.4 8.1 1.8 1.5 5.7 4.4 9.1 2.2 3.3-2.2 9.1-5.7 1.9-12.3z" class="st27"/><path d="m2592.3 460-11-3.3-2.4 12.8 11.7 6z" class="st24"/><path d="m2777.1 369.8 6.3 2.1 1.3-7.6-6.6-3.8z" class="st27"/><path d="m2550.3 185.5-6.4 3.2 3.9 6.8 7.8-2.1zM2916.4 1613.5l-5.2 6.5 7.4 5.2 7.1-6z" class="st24"/><path d="M3370.7 1359.2c-6.3-1.4-14.9 2.2-14.9 2.2l-.1.2-.1-.2s-4.1-9.9-8.9-11.7c-4.9-1.8-17.5-.8-17.5-.8s-6.9 5.1-8.1 11.8c-1.1 6.2 1.1 14.5 1.5 15.8l-.3.1.5.2 14.7 32.2 32.6-15v-.1h.1v.1s8.4-5.3 10.3-9.9.5-16.3.5-16.3-4-7.3-10.3-8.6z" class="st19"/><g id="Layer_87"><path d="m3576.1 1213.8-11.3 11.9 12.3 37.7 13.4-19.1 20.1.9-17.2-34.1-13.6 1.8-3.7.9zM3592.1 1143.7l-4-15.1-15.8 3.7-9.4-10.8-11.6 11.5-20-2.2-5.8 18.5-14.5 11.4 9.2 16.4-4.1 14.2 13.4 7.3 6.1 17.4 14.4-6 8.6 9.2 14.2-12.7 16.4-1.2 6.8-14.5 14.1-7.5-10.1-14.6 5.5-17-13.4-8z" class="st10"/><path d="M3535.8 1146.3s-20.7 18.9-1.2 44.7c19.5 25.8 51.8 5.1 58.4-15.1 6.6-20.2-19.3-54.4-57.2-29.6z" class="st16"/><path d="M3544.5 1164.6s4.8 18.5 11.7 19 17-5.8 15.4-12.7c-1.6-6.9-7.9-14.7-7.9-14.7l-4 1.8s5.3 8.6 6 11.9c.7 3.3-2.6 7.9-6.4 7.9-3.9 0-5.5-2.3-6.9-5.5-1.5-3.2-4.4-9.2-4.4-9.2l-3.5 1.5z" class="st20"/></g><path d="m1746.9 156 2.3-2.6s.4-3.6-1.8-3.2c-2.3.3-4.5-.9-7.3-1.7s-10.9-4.1-14.7-.8c-3.8 3.3-12.7 7.1-13.9 12-1.2 4.8 0 6.9 0 6.9s-2 4.5-.3 5 4.4-.4 4.4-.4 5.2 4.4 12.7 3.7c7.5-.7 11.2-4.7 14.3-8.3 3.1-3.8 4.3-10.6 4.3-10.6z" class="st23"/><path d="m2387.1 120.2 7.8-5.4-6.3-8.2-9.9 4.3z" class="st10"/><path d="m2514 564.2 5.4 2.9 1.4-7.9-5.7-4.8z" class="st16"/><path d="m2453 382.8-8.8-3.5-3.3 9.9 9.1 5.7zM1984.1 32.2l1.6 8.3 8.7-1.9v-9.4z" class="st24"/><path d="m1637.6 481.8 7.4-1.5-4.1-8.5h-8.9z" class="st22"/><path d="M1872.6 189.5s2.9-2.6 4.1-4c1.5-2.2 2.1-4.9 1.5-7.5-.8-2.4-5.4-5.2-8.1-4.6s-8.1 2.4-8.1 6.7-.5 11.8 10.6 9.4zM3079.2 536.8s2.9-2.6 4.1-4c1.5-2.2 2.1-4.9 1.5-7.5-.8-2.4-5.4-5.2-8.1-4.6s-8.1 2.4-8.1 6.7-.5 11.8 10.6 9.4z" class="st8"/><path d="m2702.5 229.1 17-5.1-10.3-18.8-20.7 1.9z" class="st20"/><path d="m2996.1 311.3 9.4-1.1-1.8-10.2-10.7-.8zM2983.7 147.1l9.3-1.8-2.5-10.1h-10.7z" class="st10"/><path d="m3376.4 571.8-6.4 3.2 3.9 6.8 7.8-2.1zM2612.5 42.3l1.5-7.5-9.4.3-3.6 8.3z" class="st24"/><path d="m2913.9 594-9.5-.2 2.6 11.6 11.1 2.4zM3466.8 921.5l-10.3-1.3 2.6 13.3 11.8 4z" class="st16"/><path d="m3235.4 727.5-31.1 56.3 69.1 101.2z" class="st8"/><path d="m3273.4 885-69.1-101.2-78.6 7.2zM1682 261l57.9 6.4 63.3-95z" class="st10"/><path d="m1803.2 172.4-63.3 95 32 64.2zM1973.8 235.5s11.6 1.2 15.3 1.3l5.4-10.6-11.9-.3s-5.7 4.9-8.8 9.6z" class="st8"/><path d="m1791.7 25 1.8 5.8 6.4-3.8-.7-7z" class="st24"/><path d="m2127.7 92.8-4.8 4.5 6.1 4.7 6.4-4z" class="st16"/><path d="m2509.2 27.2-.6 6.6 7.6-.5 2.2-7.3z" class="st31"/><path d="m409.2 315.4-12.5 40.2-81.2 14.5z" class="st10"/><path d="m315.5 370.1 81.2-14.5 33.4 39.7z" class="st8"/><path d="m1618.6 401.6 36-19.3s21.3-13.8 32.2-48.1l10.4.6s-12.6 27.5-15.8 31.7-16.9 19.7-16.9 19.7-33.3 20.7-45.2 25.5l-.7-10.1z" class="st19"/><path d="m1670.5 340.3 7.4 5.7 12.1-10.3 11.9 12.7 9.2-8.1-17.7-25.8z" class="st19"/><path d="m545.9 1266.6 6.5 2.9 2.8-7.3-6.7-4.6z" class="st10"/><path d="m587.7 1271.9-6.4-.3.1 7.1 7.1 1.7z" class="st25"/><path d="M3300.1 296.2s-81.4-7.6-81.1 65.2c.3 72.8 73.1 83.4 108.3 52.6 35.2-30.9 21.9-70.6 6.9-93.5-14.9-22.9-34.1-24.3-34.1-24.3z" class="st17"/><path d="m3208.3 349.4 50.5 38.6s33.3 21.3 88.9 14.6l3.8-4.7-2.3-5.6-4-2.3 2.9-8.7 4.4 1.7 7.9 4 4.3 5.2 1.9 15-13 10.7s-47-.1-55.1-1.9-38.8-11.2-38.8-11.2-50.8-33.9-65.2-47.7l-.4-10.7 5-9.4 7.5-4.1 6.3.4 10.2 3-2.6 8.7-10.2-2.2-2.9 2 .9 4.6z" class="st16"/><path d="m2032 76.6-23.4 47.9 29 12.1 22.8-45c.9-1.7.2-3.7-1.4-4.6l-22.2-11.9c-1.7-.9-3.8-.3-4.7 1.4 0 .1 0 .1-.1.1z" class="st8"/><path d="m2034.6 82.9-14.1 29.7 18.9 7.8 15.1-28.2zM2028.6 119.9s-4.9-.8-5 2.2 8 5.8 5-2.2z" class="st4"/><g id="Layer_58"><path d="M2091.2 147.2s-35.3 10.6-22.6 48.2 60.9 28.2 73.8 5c12.9-23.2-4.2-73.4-51.2-53.2z" class="st8"/><path d="m2098.6 184.1 25.1 6-1.3 6.6-25.4-9.1z" class="st32"/><path d="m2098.3 185.3 7.7-22.6 6.9-.1-9.4 23.4zM2108.4 152.1l1.3-6 3.6.3-2.2 5.3zM2104.1 210.9l-1 6.1-3.6-.1 1.9-5.4zM2075.5 181.9l-6.1-.3-.3-3.6 5.5 1.3zM2135.4 184.2l6.1.2.4 3.7-5.6-1.3z" class="st32"/></g><path d="m2476.2 102.5 6.3-3.5-4.2-6.7-7.7 2.5zM2774.9 1923.7s-3.3.8-4.9 1.4c-2.1 1.1-3.8 3-4.6 5.3-.6 2.3 1.5 6.5 3.8 7.2s7.1 1.6 9.1-1.8c2.1-3.5 5.9-9.1-3.4-12.1z" class="st27"/><path fill="#371c21" d="m3529.4 502.3-9.4.4.9 10.3 10.7 1.7z"/><path d="M2919.6 2026.4s-67 51.9-15.2 106.8 114.5 11.4 119.2-36.9c4.8-48.3-33.5-69-61-75.7s-43 5.8-43 5.8z" class="st8"/><path d="m2887.7 2131.8 65.6-6.6s40.4-7.4 77.7-51.9l-.5-6.2-5.7-2.6-4.7 1.1-4-8.6 4.5-1.8 8.8-2.6 6.9.9 12.1 10-2.3 17.3s-35.6 33.2-43.1 37.6-37.4 19-37.4 19-62.5 10.4-83.1 10.1l-7.9-7.9-2.9-10.7 2.8-8.4 5.1-4.2 9.8-4.9 4.2 8.4-9.2 5.6-.8 3.6 4.1 2.8z" class="st3"/><path d="M3403.1 1567.2s-3.3.8-4.9 1.4c-2.1 1.1-3.8 3-4.6 5.3-.6 2.3 1.5 6.5 3.8 7.2s7.1 1.6 9.1-1.8 5.9-9.1-3.4-12.1z" class="st24"/><path d="m2302.3 88.4 6.4-8.2-12.7-4.5-9.5 8z" class="st16"/><path d="m2525.6 358.6-11.5-4.9-2.9 14.9 12.1 8.2z" class="st18"/><path d="M1560.7-32.2c1 4.1 22.3 95.4 22.3 95.4l98.8-21.7-20.6-98.6-100.5 24.9z" class="st3"/><path d="M1577.9 98.7c2.4 1.4 55.2 32 55.2 32l31.6-51.4-56-34.2-30.8 53.6z" class="st8"/><path d="m1552.9 150.6 47.9-45.4 8.8 7.1-43.6 50.8z" class="st21"/><path d="m1600.8 105.2 11.8-6.1-3 13.2z" class="st11"/><path d="M1611.5 98.7h1.5v1.1h-1.5z" class="st26" transform="rotate(-53.04 1612.1882889 99.29459929)"/><path d="m3515.3 2152.1-8.8-3.5-3.3 9.8 9.1 5.8z" class="st24"/><path d="m2218.6 146.4 14.8 45.3 90 13.9z" class="st8"/><path d="m2323.4 205.6-90-13.9-36 46.3z" class="st10"/><path d="m2728 116.1-6.5 3.2 3.9 6.9 7.9-2.2zM2151.9 251.9l8.9-3.1-3.8-9.6-10.7 1.5zM3250.6 207l5.1-3.2-5.2-5.2-6.7 2.4z" class="st24"/><path d="M1199.1 1528.2s12.1 15.1 24.3 1c12.2-14.2-2.2-35.9-14.3-37.4s-28.4 17.5-10 36.4zM1189.6 1603.9s12.5 15.7 25.3 1-2.2-37.3-14.9-38.9-29.6 18.2-10.4 37.9z" class="st31"/><path d="M1096.1 1526.7s-11.7 23.4 12.6 30.4c24.3 7 42.8-23.1 37.7-38.8-5.1-15.8-37.6-25-50.3 8.4z" class="st2"/><path d="M1110.6 1601s13.9 13.5 24.2-2.1c10.3-15.6-6.7-35.3-19-35.3s-25.9 21-5.2 37.4zM1119.1 1473.1s-13.6 10.4-6 20.1c7.7 9.7 26.7-2.9 30.4-12.9 3.7-10.1-6.7-23-24.4-7.2z" class="st31"/><path d="M1154.1 1485.9s5 10.3 12.6 6.3c7.6-4 1.9-18.1-4.3-21.8-6.3-3.6-16.4 1.8-8.3 15.5z" class="st2"/><path d="M1193.4 1483.3s8.3-7.9 2.2-13.9-17.8 3.7-19.4 10.7c-1.6 7 6.6 15 17.2 3.2z" class="st31"/><path d="M1182.6 1559.3s1.6-23.6-21.2-21c-22.8 2.7-27.7 34.2-18 45.6 9.8 11.4 40.2 7.7 39.2-24.6zM1169.1 1531s16.1 2.9 16-12.9c-.1-15.9-21.4-21.7-30-15.9-8.5 5.9-8.3 27.1 14 28.8zM344.4 1625.4l7.8 29.5s20 80.8 18.5 103.4c-2.2 32.5 12.4 77.9-63.3 162.1l23.4-5.7s34.5-59.3 39.1-77.1c4.6-17.7 12.1-78.7 12.1-78.7l-18.5-109.4-6.8-29.3-12.3 5.2z" class="st2"/><path d="m469.8 1586.2-2.7 15.6-24 22.2 8.9-32.8v-24.8c-3.6-3.5-7.1-6.6-10.5-9.2-6.7-5.2-13.1-10-19.2-14.3l-6.6 11.9-12.4 28.5 2.7-27.2.1-23.9c-48.6-29.8-71.4-17.8-60.1 70.4 0 0-66.7 80 27.1 107.3l11.1-14.1 9.7-40.3 7.8 34.7-7.9 24.3c.7.1 1.3.2 2 .4 16 2.6 30 3.8 42.1 3.8l10.4-9.2 8.5-23.9-3.9 32.5c83.1-7.9 54.7-83.9 16.9-131.9z" class="st31"/><path d="m256 1506.2-11 5.8-10.9 23.3 22.4-14.5 18.6-6c3.5 1.9 6.6 3.7 9.4 5.6 5.5 3.8 10.6 7.4 15.3 10.9l-7.3 7.8-18.3 16.1 19.7-8.6 17.9-5.8c34 29.2 30.5 49.1-38.3 61.9 0 0-43.9 69.1-86.8 5.4l7.9-11.7 27.8-16.9-27.9 2.5-16.3 11.7c-.2-.5-.5-.9-.8-1.4-5.8-11.4-10-21.5-12.9-30.6l4.4-10 15.9-12.1-23.4 10.7c-14.1-63.9 49.6-60.9 94.6-44.1z" class="st2"/><path d="m332.6 1888.3 12.1-108.9s-8.7-69.1-33-112.1c-24.2-43-43-72.6-43-72.6H262l37 67.9s28.9 44.4 30.3 73.3c1.3 28.9 5.4 43.5 5.4 43.5l-9.5 123.8 7.4-14.9z" class="st2"/><path d="m287.9 1792.8 7.8 15.8s20.7 43.2 22.5 56.1c2.6 18.6 16 42.5-16.9 98.7l12.5-5.9s12.5-37.4 13.1-48c.5-10.5-2.3-45.8-2.3-45.8l-23.1-59.5-7.2-15.7-6.4 4.3z" class="st2"/><path d="m194 1749.3 6.6 12.6 26.6 12.5-16.6-25.7-6.8-21.3c2.1-3.9 4.3-7.6 6.5-10.8 4.3-6.3 8.5-12.2 12.5-17.6l8.9 8.4 18.5 21-9.8-22.6-6.6-20.5c33.5-38.9 56.3-34.9 70.9 43.9 0 0 79.2 50.3 6.2 99.4l-13.4-9-19.4-31.9 2.8 31.9 13.4 18.7c-.5.3-1.1.6-1.6.9-13 6.6-24.7 11.5-35 14.8l-11.4-5-13.9-18.2 12.3 26.8c-73.3 16.2-69.9-56.8-50.7-108.3z" class="st31"/><path d="M334.7 1911.7c-66.5-.7-99.5-6.2-99.5-6.2s-51.8 102.2 3.4 147.4c55.2 45.2 157.9 40.1 189.1-2.4 31.2-42.5-4-145.4-4-145.4s-38.6 7.1-89 6.6z" class="st9"/></g><g id="Blends"><path d="m552.4 455.9 34.3 73 104.1-46.1-34.6-75z" class="st20"/><path fill="#000230" d="m593.1 513.2-.4-49.5 38.8 31.9z"/><path fill="#fba586" d="m612.1 479.6 11.6-40.7L668 465l5.2 11.3-41.7 19.3z"/><path fill="#ffada2" d="m2661.6 1564.6-58.9 89 133.8 75.6 52.8-93.3z"/><path fill="#9b7d7c" d="M2710 1646.2s7.1-5 8.2-9.6 3.1-13.9-2.6-18.3c-5.6-4.4-14.8-4.6-18.4-1.6-3.6 2.9-6.1 8.7-6.1 8.7-1.1 4.4-.6 8.9 1.2 13 3.2 6.9 11 10.8 17.7 7.8z"/><path d="m2630.4 1649.5 51.9-38-4.2 65z" class="st20"/><path d="m2680.2 1644 48-2.8 9.8 50.5-8 14.1-51.9-29.3z" class="st23"/><path d="m1844.9 217.9-35 65.9 97.9 41.2 28.7-68.2z" class="st18"/><path fill="#fdcbc5" d="M1883 270.2s4.4-3.9 4.9-7.2 1-9.8-3.2-12.4-10.5-1.9-12.8.4-3.5 6.4-3.5 6.4c-.4 3.1.3 6.2 1.9 8.8 2.6 4.5 8.3 6.6 12.7 4z"/><path d="m1828.6 278.8 32.5-30.2 2.4 44.9z" class="st20"/><path d="m1862.3 271 32.7-4 10.8 32.2-4.4 10.3-37.9-16z" class="st8"/></g></svg>
