<svg version="1.1" id="prefix__Layer_2_00000159465072208785227250000008040336475015305350_" xmlns="http://www.w3.org/2000/svg" x="0" y="0" viewBox="0 0 1256.6 344.8" xml:space="preserve"><style>.prefix__st0{fill:#283a97}</style><g id="prefix__Layer_1-2"><path class="prefix__st0" d="M5 172.2C5.1 79.7 80.2 4.9 172.6 5s167.3 75.2 167.2 167.6c-.1 92.4-75 167.2-167.4 167.2C79.9 339.7 5 264.7 5 172.2zm164 57.3c-13 .4-26-.8-38.7-3.5-9.4-1.9-17.3-8.2-21.2-17-3.8-8.7-5.6-22.2-5.5-40.4.1-9.5.7-19 1.8-28.4 1.1-9.2 2.2-16.8 3.2-22.8l1.1-5.9v-.5c0-1.7-1.2-3.1-2.8-3.4l-21.6-3.4H85c-1.6 0-2.9 1.1-3.3 2.6-.4 1.4-.6 2.4-1.2 5.7-1.2 6.4-2.4 12.6-3.6 21.6-1.3 9.8-2.1 19.7-2.4 29.6-.5 6.9-.5 13.8 0 20.7.5 18.3 3.7 33 9.4 43.9s15.6 18.8 29.4 23.6c13.8 4.8 33 7.2 57.7 7.1h3.1c24.7.1 43.9-2.2 57.7-7.1 13.8-4.8 23.6-12.7 29.4-23.6 5.8-11 8.9-25.6 9.4-43.9.5-6.9.5-13.8 0-20.7-.3-9.9-1.1-19.8-2.4-29.6-1.3-9-2.4-15.1-3.6-21.6-.6-3.3-.9-4.3-1.2-5.7-.4-1.5-1.7-2.6-3.3-2.6h-.6l-21.6 3.4c-1.6.3-2.8 1.7-2.8 3.4v.5l1.2 5.9c1.1 6 2.2 13.6 3.3 22.7 1.1 9.4 1.7 18.9 1.8 28.4.2 18.2-1.7 31.6-5.5 40.4-3.8 8.7-11.6 15-20.9 17-12.7 2.7-25.7 3.9-38.7 3.5l-7.3.1zM1155.2 186.1c0-33.4 9.6-56.9 48.2-56.9s48.2 23.5 48.2 56.9-9.6 56.9-48.2 56.9-48.2-23.5-48.2-56.9zm71.9 0c0-23.2-3-36.5-23.6-36.5s-23.6 13.3-23.6 36.5 3.1 36.5 23.6 36.5 23.6-13.4 23.6-36.5zM487.2 238.7c.6 1 1.6 1.6 2.8 1.6h9c1.8 0 3.2-1.4 3.2-3.2V135c0-1.8-1.4-3.2-3.2-3.2h-18c-1.8 0-3.2 1.4-3.2 3.2v81c-7.7 4.3-16.4 6.5-25.2 6.3-11.5 0-17.2-5-17.2-16.1V135c0-1.8-1.4-3.2-3.2-3.2h-17.9c-1.8 0-3.2 1.4-3.2 3.2v73.4c0 20.8 9.8 34.5 37.3 34.5 12.6-.1 24.9-4.1 35.2-11.3l3.2 7.2.4-.1zM689.8 163.7c0-20.6-10.2-34.5-35.9-34.5-12.4 0-24.5 3.8-34.8 10.7-4.6-6.7-13.3-10.7-27.8-10.7-11.8.2-23.3 4.2-32.8 11.3l-3.2-7.2c-.6-1-1.6-1.7-2.8-1.7h-9c-1.8 0-3.2 1.4-3.2 3.2v102.1c0 1.8 1.4 3.2 3.2 3.2h18c1.8 0 3.2-1.4 3.2-3.2v-80.8c6.9-4.1 14.8-6.3 22.8-6.3 9.8 0 15.4 3.6 15.4 14v73.4c0 1.8 1.4 3.2 3.2 3.2h18c1.8 0 3.2-1.4 3.2-3.2v-81.1c6.8-4.2 14.8-6.4 22.8-6.4 9.6 0 15.4 3.6 15.4 14v73.4c0 1.8 1.4 3.2 3.2 3.2h18c1.8 0 3.2-1.4 3.2-3.2l-.1-73.4zM745.4 231.7c10.2 7.5 22.5 11.5 35.2 11.3 31.7 0 43.4-21.3 43.4-56.9s-11.7-56.9-43.4-56.9c-10.3.1-20.4 3-29.1 8.5v-32.8c0-1.8-1.4-3.2-3.2-3.2h-18c-1.8 0-3.2 1.4-3.2 3.2v132.3c0 1.8 1.4 3.2 3.2 3.2h9c1.2 0 2.2-.6 2.8-1.6l3.3-7.1zm29.5-9.4c-8.2 0-16.3-2.1-23.4-6.3v-59.9c7.1-4.1 15.2-6.3 23.4-6.3 21.3 0 24.5 16.3 24.5 36.2s-3.2 36.3-24.5 36.3zM913.9 150.5c-2.8-.4-5.6-.6-8.5-.5-9.7-.4-19.3 1.9-27.8 6.5v80.6c0 1.8-1.4 3.2-3.2 3.2h-18c-1.8 0-3.2-1.4-3.2-3.2V135c0-1.8 1.4-3.2 3.2-3.2h9c1.2 0 2.2.6 2.8 1.6l3.2 7.2c9.9-7.5 22-11.5 34.4-11.3 2.8 0 5.7.2 8.5.7 1.7 0 3 2.7 3 4.4v13c0 1.8-1.4 3.2-3.2 3.2h-.2M976.1 190.2c-10.7 1.3-17.2 5.4-17.2 16.7 0 8.3 3.6 16.1 16.7 16.1 8.3.1 16.4-2.4 23.2-7.2v-28.1l-22.7 2.5zm28.7 41.5C995.5 239 984 243 972.1 243c-28 0-37.3-17.4-37.3-34.8 0-23.5 15.2-33.4 39.7-35.4l24.4-1.9v-5.4c0-11.1-5.2-15.4-21.3-15.4-10.1 0-20.1 1.7-29.6 4.9-.3.1-.7.1-1 0-1.8 0-3.2-1.4-3.2-3.2v-14.4c0-1.4.8-2.6 2.1-3.1 10.8-3.6 22.1-5.4 33.5-5.4 35.6 0 43.8 15.6 43.8 38.7v69.3c0 1.8-1.4 3.2-3.2 3.2h-9c-1.2 0-2.2-.6-2.8-1.6l-3.4-6.8zM1128.6 218h1c1.8 0 3.2 1.4 3.2 3.2v14.4c0 1.3-.8 2.5-2 3-8.9 3.2-18.4 4.8-27.9 4.6-38.5 0-50.3-23-50.3-56.9s11.8-56.9 50.3-56.9c9.4-.2 18.9 1.2 27.8 4.4 1.2.5 2 1.7 2 3v14.5c0 1.8-1.4 3.2-3.2 3.2-.4.1-.7.1-1.1 0-7.8-2.5-16-3.7-24.2-3.6-21.1 0-27.2 14.4-27.2 35.4s6.1 35.4 27.2 35.4c8.2.1 16.4-1.1 24.2-3.6"/></g></svg>