<?xml version="1.0" encoding="UTF-8"?>
<svg xmlns="http://www.w3.org/2000/svg" version="1.1" viewBox="0 0 24 24">
  <defs>
    <style>
      .st0 {
        fill: none;
        stroke: #000;
        stroke-linecap: round;
        stroke-linejoin: round;
        stroke-width: 1.8px;
      }
    </style>
  </defs>
  <path class="st0" d="M10,13c1.7,2.2,4.8,2.7,7,1,.2-.1.4-.3.5-.5l3-3c1.9-2,1.9-5.2-.1-7.1-1.9-1.9-5-1.9-6.9,0l-1.7,1.7"/>
  <path class="st0" d="M5,11.9l-1.5,1.5c-1.9,2-1.9,5.2.1,7.1,1.9,1.9,5,1.9,6.9,0l1.7-1.7"/>
  <path class="st0" d="M14,11c-1-1.3-2.5-2-4-2"/>
  <line class="st0" x1="8" y1="2" x2="8" y2="5"/>
  <line class="st0" x1="2" y1="8" x2="5" y2="8"/>
  <line class="st0" x1="2.9" y1="2.9" x2="5" y2="5"/>
</svg>
