<svg xmlns="http://www.w3.org/2000/svg"><defs><font id="icomoon" horiz-adv-x="512"><font-face units-per-em="512" ascent="480" descent="-32"/><glyph class="hidden" unicode="" d="M0 480L512-32H0z" horiz-adv-x="0"/><glyph unicode="" d="M471.012 73.256l-2.691 2.688.006.006-107.515 107.521c14.937 25.73 23.615 55.564 23.818 87.448.631 97.618-77.989 177.245-175.596 177.856-.393.004-.774.004-1.167.004-97.062-.004-176.067-78.391-176.693-175.598-.617-97.609 78-177.237 175.598-177.859h1.15c32.447 0 62.846 8.787 89 24.07L404.343 11.963l.01.01 2.688-2.687c8.123-8.123 21.292-8.117 29.414 0l34.556 34.552c8.118 8.119 8.123 21.293.001 29.418zM300.693 178.643c-24.835-24.668-57.778-38.252-92.77-38.252h-.862c-72.591.465-131.276 59.906-130.816 132.504.464 72.127 59.511 130.809 131.628 130.816h.877c35.169-.223 68.144-14.127 92.849-39.15 24.706-25.027 38.188-58.177 37.963-93.352-.222-35.02-14.025-67.895-38.869-92.566zm-178.876 67.341h177.254v54.224H121.817v-54.224z"/><glyph unicode="" d="M435.303 330.936h-98.088V173.218a64.095 64.095 0 0020.782 3.465c30.004 0 55.184-20.733 61.983-48.691h50.23v118.279l-34.907 84.665zm-48.039-89.408l-23.691 64.454h55.039l26.566-64.454h-57.914zM286.919 374.301H65.512c-13.359 0-24.183-10.829-24.183-24.17V126.977h31.347c6.426 28.45 31.852 49.706 62.211 49.706 30.414 0 55.84-21.256 62.25-49.706h98.612a63.695 63.695 0 0015.353 29.168v193.986c0 13.341-10.825 24.17-24.183 24.17zM134.887 151.734c-21.418 0-38.847-17.436-38.847-38.887s17.429-38.887 38.847-38.887c21.47 0 38.901 17.436 38.901 38.887s-17.432 38.887-38.901 38.887zm223.11 0c-21.452 0-38.901-17.436-38.901-38.887s17.449-38.887 38.901-38.887 38.882 17.436 38.882 38.887-17.43 38.887-38.882 38.887z"/><glyph unicode="" d="M471.823 72.599l-2.69 2.691.005.006-107.515 107.518c14.938 25.734 23.617 55.566 23.822 87.453.627 97.611-77.992 177.241-175.599 177.854-.394.002-.773.002-1.167.002-97.062-.006-176.067-78.389-176.693-175.599-.617-97.608 78-177.231 175.598-177.857.385-.005.762-.005 1.149-.005 32.445 0 62.846 8.792 89.003 24.078l107.42-107.435.01.01 2.688-2.685c8.121-8.125 21.289-8.118 29.412 0l34.556 34.555c8.118 8.118 8.122 21.294.001 29.414zM301.504 177.983c-24.832-24.667-57.781-38.251-92.77-38.251l-.861.004c-72.59.464-131.275 59.904-130.816 132.499.226 35.015 14.03 67.888 38.875 92.563 24.833 24.667 57.773 38.252 92.751 38.252h.882c35.164-.223 68.138-14.121 92.847-39.146 24.705-25.028 38.189-58.178 37.963-93.354-.223-35.013-14.027-67.889-38.871-92.567zM238.365 364.2h-54.219v-61.519H122.63v-54.222h61.516V186.94h54.219v61.52h61.52v54.222h-61.52V364.2z"/><glyph unicode="" d="M239.408 79.922h27.732v38.637h-27.732V79.922zm159.127 361.937H289.933v-12.911h-52.355V411.68h-21.519v30.18H113.047c-13.373 0-24.164-10.822-24.164-24.162V31.687c0-13.359 10.791-24.169 24.164-24.169h285.488c13.343 0 24.164 10.81 24.164 24.169v386.01c0 13.34-10.821 24.162-24.164 24.162zm-145.914-28.287h36.296v-30.771H267.4v17.266h-14.779v13.505zm0-57.027h36.296v-30.771H267.4v17.262h-14.779v13.509zm0-55.986h36.296v-30.771H267.4v17.264h-14.779v13.507zm0-58.471h36.296v-13.524h-36.296v13.524zm-36.562 143.335h36.332v-13.511h-14.813v-17.266h-21.519v30.777zm0-55.989h36.332v-13.507h-14.813v-17.263h-21.519v30.77zm0-58.471h36.332v-13.521h-14.813v-17.283h-21.519v30.804zm59.549-207.754h-44.702c-13.899 0-23.513 11.214-21.454 24.951l7.522 49.15c2.062 13.707 15.142 24.919 29.007 24.919h14.552c13.866 0 26.913-11.212 29.005-24.919l7.491-49.15c2.124-13.737-7.522-24.951-21.421-24.951zm-8.895 115.7h-27.827l-33.324 32.326h94.475l-33.324-32.326z"/><glyph unicode="" d="M374.236 367.104l.002.004c-34.665 28.842-76.951 42.994-118.78 42.969-48.281.027-96.382-18.878-132.321-55.332l-36.11 30.122-.608-116.069 114.082 21.411-37.78 31.516c25.665 24.441 59.003 36.957 92.737 36.984 30.38-.027 60.723-10.141 85.939-31.095 32.061-26.661 48.504-64.85 48.546-103.566a136.332 136.332 0 00-1.053-16.753l52.271 9.994c.081 2.255.14 4.508.14 6.759.038 53.253-22.882 106.332-67.065 143.056zm-25.501-239.875c-25.753-24.888-59.396-37.631-93.449-37.658-30.388.018-60.733 10.15-85.939 31.084-32.057 26.664-48.517 64.861-48.552 103.569.006 6.409.486 12.812 1.397 19.17l-52.507-9.854c-.153-3.104-.255-6.21-.255-9.315-.031-53.254 22.898-106.347 67.08-143.068 34.652-28.817 76.939-42.97 118.775-42.952h.136c48.598 0 97.016 19.191 133.003 56.146l34.503-28.586.214 116.073-114.007-21.804 39.601-32.805z"/><glyph unicode="" d="M324.816 307.228l.014-.027c-.08.108-.146.213-.242.319a810.557 810.557 0 01-12.461 16.761c-5.395 9.025-8.242 20.006-1.619 35.849v.009l22.776 54.505-35.808 16.298 3.696 16.156h-89.834l4.708-20.585-36.804-11.869 22.761-54.505.018-.009c11.247-26.945-4.856-39.813-14.325-52.928-46.861-64.796-99.313-157.564-99.313-213.49 0-92.734 72.008-89.646 167.857-89.646 95.881 0 167.889-3.088 167.889 89.646 0 55.934-52.467 148.702-99.313 213.516zm-91.138 45.504h45.879v-28.931h-45.879v28.931zm73.431-179.369v-20.791h-31.283l-3.282-6.344V136.17h34.565v-20.782h-34.565V85.207h-33.245v30.181h-34.336v20.782h34.336v10.058l-3.041 6.344h-31.295v20.791h20.801l-33.489 68.015h35.449l28.859-68.015 28.221 68.015h35.435l-33.915-68.015h20.785z"/><glyph unicode="" d="M314.439 158.699c-.186-.035-.383-.063-.572-.101l-48.846 40.456-.078-45.663a325.551 325.551 0 00-9.566-.153c-47.775-.073-90.82 10.348-119.785 25.578-14.496 7.545-25.336 16.229-31.842 24.324-6.559 8.225-8.87 15.079-8.914 21.718.034 7.984 3.546 16.798 13.858 27.144 10.181 10.146 26.818 20.4 48.036 28.213 1.189.44 2.406.867 3.621 1.293l-44.539 36.889c-16.619-8.232-31.257-18.09-43.229-29.865-17.119-16.768-29.14-38.85-29.106-63.673-.046-20.229 8.065-38.979 20.353-54.034 18.569-22.71 46.073-39.182 78.877-50.871 32.865-11.58 71.375-18.061 112.67-18.078 3.18 0 6.334.053 9.479.131l-.088-50.725 89.646 73.732-39.975 33.109v.576zm-68.482 238.19l-89.646-73.73 89.396-74.04.078 47.212c3.18.092 6.368.154 9.591.152 47.769.062 90.814-10.352 119.773-25.583 14.5-7.544 25.336-16.229 31.84-24.326 6.555-8.226 8.867-15.079 8.915-21.715-.024-4.641-1.142-9.16-3.951-14.378-4.159-7.764-12.634-16.785-25.487-25.085-9.574-6.226-21.463-12.005-35.111-16.857l44.471-36.833c13.242 6.638 25.173 14.355 35.52 23.203 10.465 9.006 19.322 19.266 25.735 31.03 6.397 11.718 10.208 25.077 10.19 38.92v.168c0 20.162-8.104 38.849-20.361 53.859-18.572 22.716-46.064 39.181-78.877 50.872-32.856 11.582-71.361 18.062-112.656 18.08-3.193 0-6.343-.1-9.502-.177l.082 49.228z"/><glyph unicode="" d="M190.071 161.481c-.035.189-.064.387-.102.575l40.457 48.848-45.662.078a325.44 325.44 0 00-.153 9.566c-.072 47.771 10.348 90.818 25.58 119.785 7.543 14.494 16.227 25.336 24.323 31.838 8.224 6.562 15.078 8.871 21.716 8.918 7.986-.035 16.798-3.545 27.148-13.859 10.144-10.182 20.397-26.819 28.208-48.035.439-1.189.866-2.408 1.293-3.621l36.89 44.537c-8.234 16.621-18.093 31.258-29.868 43.23-16.765 17.115-38.849 29.141-63.671 29.104-20.229.047-38.979-8.065-54.033-20.353-22.712-18.569-39.184-46.071-50.871-78.876-11.58-32.864-18.061-71.377-18.08-112.668 0-3.18.056-6.336.132-9.479l-50.725.084 73.73-89.646 33.111 39.974h.577zm238.193 68.486l-73.735 89.644-74.039-89.394 47.216-.078c.089-3.18.151-6.366.151-9.59.061-47.768-10.354-90.816-25.586-119.775-7.544-14.498-16.229-25.332-24.325-31.836-8.224-6.561-15.08-8.87-21.715-8.916-4.641.021-9.16 1.14-14.378 3.949-7.76 4.158-16.786 12.632-25.084 25.487-6.225 9.573-12.009 21.462-16.858 35.11l-36.834-44.471c6.64-13.242 14.357-25.176 23.206-35.52 9.006-10.463 19.268-19.326 31.029-25.735 11.718-6.399 25.078-10.21 38.919-10.189h.168c20.164 0 38.849 8.104 53.86 20.358 22.715 18.574 39.18 46.066 50.873 78.881 11.58 32.855 18.06 71.36 18.08 112.656-.002 3.191-.103 6.34-.177 9.5l49.229-.081z"/><glyph unicode="" d="M411.685 318.424l-48.849 13.089-13.093 48.851 49.864 49.864c-29.43 7.945-62.171.389-85.272-22.712-23.24-23.237-30.747-56.229-22.568-85.794L157.22 187.174c-29.565 8.176-62.555.668-85.797-22.569-23.1-23.101-30.655-55.843-22.71-85.274l49.866 49.861 48.85-13.088 13.09-48.851-49.864-49.864c29.43-7.941 62.172-.386 85.271 22.715 24.258 24.254 31.373 59.141 21.405 89.658L349.183 261.61c30.52-9.972 65.401-2.853 89.653 21.404 23.103 23.101 30.657 55.843 22.713 85.273l-49.864-49.863z"/><glyph unicode="" d="M271.017 70.2v135.603c64.194 7.588 114.194 62.334 114.194 128.535 0 18.39-4.25 55.384-15.729 76.408l-8.111 14.917H150.118l-8.142-14.917c-11.447-21.05-15.697-58.018-15.697-76.408 0-66.889 50.949-122.083 116.122-128.777V70.2c-52.388-1.594-92.806-11.767-92.806-24.07 0-13.414 47.973-24.288 107.131-24.288 59.124 0 107.066 10.874 107.066 24.288.001 12.304-40.421 22.476-92.775 24.07z"/><glyph unicode="" d="M422.952 108.695L307.064 224.582l115.884 115.887-51.722 51.723L255.34 276.307 139.457 392.188l-51.726-51.719 115.885-115.885L87.731 108.695l51.726-51.721L255.344 172.86 371.228 56.978z"/><glyph unicode="" d="M229.882 220.531c-18.919 11.596-37.02 21.375-59.731 23.158-27.751 2.188-55.429-6.158-80.847-16.53L52.779 99.361c48.963 18.699 94.119 20.855 139.427-7.877l37.692 129.039s-.008.008-.016.008m-48.833 49.548c23.059-2.835 41.371-12.591 56.304-21.974 12.356 42.651 24.59 85.335 37.052 127.946-17.793 11.319-35.975 21.131-57.284 23.254-28.043 3.347-57.26-5.064-82.912-15.557-12.502-42.748-24.746-85.578-37.11-128.367 26.479 10.388 55.292 18.215 83.95 14.698m149.499-90.261c-34.347 0-57.722 12.104-77.752 25.426-.097-.113-.251-.211-.364-.293L215.323 76.512c47.042-31.178 100.299-30.887 151.458-9.285l35.983 125.539-.323-.082c-27.128-9.075-50.909-12.866-71.893-12.866m117.907 171.625c-.098.065-.179.146-.26.227-51.67-20.977-102.577-23.173-150.544 8.703-2.195-7.568-4.214-13.289-5.492-17.728l-12.715-43.997c-6.497-22.525-13.004-45.05-19.51-67.566 46.889-30.312 100.105-31.932 150.933-9.092l37.668 129.381-.08.072"/><glyph unicode="" d="M49.525 187.208h169.383V73.265H49.525zm0 97.951v-74.273h29.106v45.164H335.41V102.368h-92.824V73.265h121.93v211.894H78.631zm0 89.576V312.88h29.106v32.748h354.738v-243.26h-41.131V73.265h70.239v301.47z"/><glyph unicode="" d="M366.118 241.708l96.957 96.959-44.246 44.249-96.962-96.958-39.571 39.575V201.395h124.135zm60.672-140.334H85.21v245.254h181.197v36.288H48.925V65.084h414.15v110.553H426.79z"/><glyph unicode="" d="M162.073 145.271l29.878-29.873c16.092 17.093 38.877 27.82 64.209 27.82 25.336 0 48.119-10.728 64.221-27.82l29.873 29.873c-23.778 24.761-57.131 40.255-94.094 40.255-36.957 0-70.303-15.494-94.087-40.255zm94.087-48.055c-12.612 0-23.822-5.661-31.58-14.446l31.586-31.586L287.75 82.77c-7.764 8.785-18.973 14.446-31.59 14.446zm220.051 177.742c-121.531 121.532-318.568 121.524-440.1 0-.625-.625-1.195-1.283-1.812-1.906l30.662-30.663c48.605 49.566 116.294 80.354 191.205 80.354 74.906 0 142.592-30.787 191.203-80.354l30.66 30.663c-.621.623-1.191 1.281-1.818 1.906zm-220.045 1.785c-59.254 0-114.965-23.073-156.863-64.971-.622-.623-1.197-1.279-1.818-1.909l31.976-31.973c32.094 33.061 76.987 53.637 126.7 53.637 49.72 0 94.608-20.576 126.711-53.637l31.967 31.969c-.617.634-1.195 1.29-1.819 1.913-41.899 41.898-97.603 64.971-156.854 64.971z"/><glyph unicode="" d="M322.193 249.642H192.709v47.99l-89.144-73.576 89.144-73.565v47.989h129.484v-47.989l89.143 73.565-89.143 73.576v-47.99zM37.735 128.922h51.147v190.262H37.735V128.922zm384.964 190.262V128.922h51.146v190.262h-51.146z"/><glyph unicode="" d="M418.059 69.125l-38.232 206.578a15.354 15.354 0 01-15.094 12.557h-60.451c10.457 11.557 16.834 26.867 16.834 43.645 0 35.902-29.209 65.115-65.117 65.115-35.902 0-65.115-29.213-65.115-65.115 0-16.777 6.381-32.088 16.838-43.645h-60.457a15.352 15.352 0 01-15.092-12.557L93.943 69.125a15.345 15.345 0 013.293-12.611 15.344 15.344 0 0111.799-5.533h293.932a15.348 15.348 0 0115.092 18.144zM255.998 368.158c20.025 0 36.258-16.232 36.258-36.254 0-20.027-16.232-36.26-36.258-36.26-20.023 0-36.254 16.232-36.254 36.26 0 20.022 16.231 36.254 36.254 36.254zm-32.58-263.57l-31.246 44.273-7.84-7.947v-36.326h-26.199v109.158h26.199V174.34l36.953 39.406h34.926l-45.449-45.553 46.609-63.605h-33.953zm135.893 0h-18.82l-1.715 10.172c-3.086-3.236-5.92-5.621-8.594-7.234-6.1-3.732-13.664-5.627-22.473-5.627-14.461 0-26.492 5.092-35.746 15.135-9.574 10.008-14.439 23.846-14.439 41.109 0 17.428 4.902 31.637 14.574 42.23 9.725 10.66 22.732 16.064 38.656 16.064 13.779 0 25.051-3.582 33.504-10.646 8.494-7.102 13.434-16.092 14.682-26.723l.311-2.645h-26.008l-.426 1.832c-1.488 6.422-5.008 10.779-10.764 13.316-3.26 1.416-6.971 2.139-11.014 2.139-7.752 0-13.939-2.842-18.92-8.682-5.008-5.869-7.547-14.977-7.547-27.061 0-12.068 2.693-20.637 8.01-25.473 5.457-4.961 11.469-7.373 18.385-7.373 6.777 0 12.148 1.863 16.41 5.693 3.656 3.285 6.068 7.354 7.328 12.381h-23.629v22.164h48.234v-60.771z"/><glyph unicode="" d="M453.475 151.006H57.719c-14.093 0-20.271-10.201-13.734-22.697l29.463-56.295C80.024 59.54 96.897 49.32 111.023 49.32h289.15c14.093 0 31 10.221 37.538 22.694l29.5 56.295c6.539 12.496.359 22.697-13.736 22.697zm-334.146-76.39c-14.095 0-25.539 11.445-25.539 25.539 0 14.112 11.444 25.539 25.539 25.539 14.129 0 25.54-11.427 25.54-25.539 0-14.093-11.411-25.539-25.54-25.539zm92.056 0c-14.094 0-25.509 11.445-25.509 25.539 0 14.112 11.415 25.539 25.509 25.539 14.127 0 25.539-11.427 25.539-25.539 0-14.093-11.412-25.539-25.539-25.539zm92.088 1.109c-13.506 0-24.428 10.959-24.428 24.431 0 13.504 10.922 24.44 24.428 24.44 13.505 0 24.43-10.937 24.43-24.44-.001-13.472-10.925-24.431-24.43-24.431zm92.056 0c-13.474 0-24.432 10.959-24.432 24.431 0 13.504 10.958 24.44 24.432 24.44 13.504 0 24.46-10.937 24.46-24.44 0-13.472-10.956-24.431-24.46-24.431zM117.826 315.74l60.367-35.057c0-.26-.032-.523-.032-.802v-42.625h-49.447l-32.831-56.755h326.428l-32.865 56.755h-48.398v42.625c0 13.523-10.987 24.476-24.495 24.476H202.656c-.493 0-.919-.031-1.375-.046l-67.367 39.11 7.719 13.277-71.487 41.499-31.591-54.352 71.487-41.5 7.784 13.395z"/><glyph unicode="" d="M306.997 355.609c8.992 0 16.277 7.286 16.277 16.276v50.931c.002 8.989-7.285 16.276-16.277 16.276-8.983 0-16.271-7.287-16.273-16.276v-50.932c0-8.989 7.29-16.278 16.273-16.275zm80.752-23.244l36.015 36.017c6.356 6.357 6.353 16.662 0 23.015-6.357 6.356-16.662 6.356-23.019 0l-36.013-36.014c-6.356-6.356-6.358-16.661 0-23.018 6.354-6.356 16.661-6.353 23.017 0zm-161.066-2.552c6.354-6.353 16.663-6.353 23.018 0 6.353 6.356 6.353 16.662 0 23.018l-36.018 36.018c-6.355 6.353-16.661 6.353-23.015 0-6.359-6.356-6.359-16.662 0-23.018l36.015-36.018zm159.5-113.463c-6.356 6.357-16.663 6.357-23.02 0-6.354-6.355-6.354-16.661 0-23.018l36.015-36.014c6.356-6.356 16.663-6.356 23.018 0 6.358 6.356 6.358 16.658 0 23.015l-36.013 36.017zm-70.019 131.061L37.625 68.875l58.761-58.76 278.541 278.533-58.763 58.763zm-65.195-99.172l67.606 67.608 24.787-24.788-67.606-67.608-24.787 24.788zm205.2 41.684h-50.934c-8.99 0-16.275-7.289-16.275-16.275-.004-8.985 7.285-16.275 16.275-16.275h50.934c8.988 0 16.273 7.29 16.273 16.275 0 8.99-7.285 16.275-16.273 16.275z"/><glyph unicode="" d="M445.271 339.129c0 28.207-22.925 51.165-51.113 51.165H65.932v-39.277h3.463c6.182 0 11.218-5 11.218-11.2 0-6.18-5.036-11.201-11.218-11.201h-3.463V117.463h3.463c6.182 0 11.218-5.006 11.218-11.201 0-6.164-5.036-11.201-11.218-11.201h-3.463V57.814h328.225c28.188 0 51.113 22.94 51.113 51.132v60.549h-74.003c-16.221 0-29.432 13.174-29.432 29.446v50.212c0 16.27 13.211 29.446 29.432 29.446h74.003v60.53zm-82.05-221.666h19.752v20.553c0 6.181 5.004 11.183 11.185 11.183 6.182 0 11.187-5.002 11.187-11.183v-29.25c0-.654-.035-1.179-.165-1.605-.817-6.803-6.508-12.1-13.474-12.1h-28.484c-6.179 0-11.183 5.037-11.183 11.201-.001 6.195 5.003 11.201 11.182 11.201zM133.199 95.061h-22.402c-6.182 0-11.183 5.037-11.183 11.201 0 6.195 5.001 11.201 11.183 11.201h22.402c6.181 0 11.215-5.006 11.215-11.201 0-6.164-5.034-11.201-11.215-11.201zm0 233.555h-22.402c-6.182 0-11.183 5.021-11.183 11.201 0 6.199 5.001 11.2 11.183 11.2h22.402c6.181 0 11.215-5 11.215-11.2 0-6.179-5.034-11.201-11.215-11.201zm63.114-233.555H173.91c-6.146 0-11.182 5.037-11.182 11.201 0 6.195 5.035 11.201 11.182 11.201h22.403c6.178 0 11.183-5.006 11.183-11.201 0-6.164-5.004-11.201-11.183-11.201zm0 233.555H173.91c-6.146 0-11.182 5.021-11.182 11.201 0 6.199 5.035 11.2 11.182 11.2h22.403c6.178 0 11.183-5 11.183-11.2 0-6.179-5.004-11.201-11.183-11.201zm63.081-233.555h-22.37c-6.177 0-11.216 5.037-11.216 11.201 0 6.195 5.039 11.201 11.216 11.201h22.37c6.213 0 11.216-5.006 11.216-11.201-.001-6.164-5.004-11.201-11.216-11.201zm0 233.555h-22.37c-6.177 0-11.216 5.021-11.216 11.201 0 6.199 5.039 11.2 11.216 11.2h22.37c6.213 0 11.216-5 11.216-11.2-.001-6.179-5.004-11.201-11.216-11.201zm63.114-233.555h-22.399c-6.183 0-11.185 5.037-11.185 11.201 0 6.195 5.002 11.201 11.185 11.201h22.399c6.18 0 11.217-5.006 11.217-11.201 0-6.164-5.037-11.201-11.217-11.201zm0 233.555h-22.399c-6.183 0-11.185 5.021-11.185 11.201 0 6.199 5.002 11.2 11.185 11.2h22.399c6.18 0 11.217-5 11.217-11.2 0-6.179-5.037-11.201-11.217-11.201zm82.836-20.533c0-6.185-5.005-11.216-11.187-11.216-6.181 0-11.185 5.032-11.185 11.216v20.533H363.22c-6.179 0-11.183 5.021-11.183 11.201 0 6.199 5.004 11.2 11.183 11.2h28.484c6.966 0 12.656-5.281 13.474-12.065.13-.445.165-.967.165-1.602v-29.267zm-36.663-84.027c0-14.062 11.417-25.459 25.509-25.459 14.029 0 25.444 11.397 25.444 25.459 0 14.042-11.415 25.455-25.444 25.455-14.092 0-25.509-11.412-25.509-25.455z"/><glyph unicode="" d="M401.938 326.528H346.18v79.352c0 14.128-11.445 25.572-25.539 25.572-14.128 0-25.59-11.444-25.59-25.572v-79.352h-88.393v79.352c0 14.128-11.428 25.572-25.571 25.572-14.112 0-25.557-11.444-25.557-25.572v-79.352h-46.403V275.76l66.122-120.439h160.565l66.124 120.439v50.768zM187.594 73.904h42.364V16.903h51.147v57.001h42.38v51.14H187.594v-51.14z"/><glyph unicode="" d="M455.184 392.56H56.816c-11.04 0-20-8.96-20-20V75.44c0-11.04 8.96-20 20-20h398.368c11.04 0 20 8.96 20 20v297.12c0 11.056-8.944 20-20 20zm-20-297.12H76.816v257.12h54.128v-38.992h64v38.992h122.128v-38.992h64v38.992H435.2V95.44zm-282.88 117.408c7.584-13.952 17.2-16.864 23.92-16.864 6.704 0 16.32 2.912 23.968 16.816l.464.848c3.792 6.88 6.528 11.856 6.528 23.104 0 9.952 0 36.384-30.944 36.384-30.784 0-30.784-25.504-30.784-36.384 0-11.28 2.704-16.256 6.464-23.152l.384-.752zm82.592-34.464l-30.768 13.776c-1.312.592-2.784.624-4.096.048l-15.632-6.576h-16.224l-15.632 6.528a5.059 5.059 0 01-4.064-.048l-30.8-13.744a5.14 5.14 0 01-3.04-4.688v-18.768a5.142 5.142 0 015.136-5.136h113.008a5.142 5.142 0 015.136 5.136v18.8a5.086 5.086 0 01-3.024 4.672zm48.848 85.648h113.632v-31.456H283.744zm0-72.512h113.632v-31.456H283.744z"/><glyph unicode="" d="M254.529 158.774c38.885 0 70.41 31.521 70.41 70.41v133.733c0 38.886-31.525 70.41-70.41 70.41-38.888 0-70.409-31.524-70.409-70.41V229.184c.001-38.888 31.522-70.41 70.409-70.41zm95.801 117.199v-46.968c-.012-26.512-10.698-50.349-28.057-67.743-17.395-17.363-41.233-28.051-67.744-28.061-26.512.01-50.354 10.697-67.745 28.061-17.366 17.395-28.049 41.231-28.058 67.743v46.968h-35.054l-.004-46.968c.014-66.331 49.349-121.077 113.332-129.651V50.639h-57.424V15.582h149.899v35.057h-57.419v48.715c63.977 8.574 113.318 63.32 113.33 129.651v46.968H350.33z"/><glyph unicode="" d="M344.551 275.342V173.515l124.494-80.393v262.61l-124.494-80.39zm-45.487 64.712H60.246c-11.292 0-20.447-9.156-20.447-20.447V129.249c0-11.293 9.155-20.447 20.447-20.447h238.818c11.293 0 20.449 9.154 20.449 20.447v190.357c.001 11.292-9.156 20.448-20.449 20.448z"/><glyph unicode="" d="M36.742 359.937V87.419h93.897v32.553h-27.543v25.038h70.108v-25.038h-27.541V87.419h219.089v32.553h-27.543v25.038h70.109v-25.038h-27.543V87.419h95.192v272.518H36.742zm209.075-70.952h186.539v-25.038H245.817v25.038zm-49.985-81.036c-2.703 3.315-7.695 4.218-12.017 6.044-5.773 2.436-12.173 5.253-17.932 7.616-1.643.449-3.285.895-4.929 1.342-1.963 1.352-3.878 5.84-4.93 8.071-1.045.148-2.086.3-3.135.443.161 3.449 2.295 3.642 3.135 6.278.742 2.326.078 5.345 1.251 7.496.814 1.496 2.65 1.506 3.567 2.789.834 1.162 1.389 3.193 1.644 4.614.479 2.605.891 6.17-.346 8.748-.714 1.483-1.158 1.629-1.356 3.427-.24 2.182.643 9.301.68 10.839.088 3.991-.004 7.612-.97 11.499 0 0-1.175 3.52-3.016 4.586l-3.668.631-2.264 2.096c-9.135 5.622-18.921 1.683-24.165-.444-7.559-2.45-12.334-13.137-8.997-28.942.567-2.7-1.481-3.91-1.344-5.382.291-3.218.354-10.962 3.396-12.873.285-.175 2.443-.72 2.43-.57l.894-9.409c.765-2.088 2.586-2.312 3.112-5.258l-2.333-.567c-1.045-2.231-2.967-6.72-4.927-8.071-1.646-.447-3.29-.893-4.931-1.342-5.757-2.363-12.158-5.181-17.922-7.616-3.906-1.643-8.364-2.515-11.189-5.099v102.623h110.261V207.949zm236.526 8.418H245.816v25.044h186.542v-25.044z"/><glyph unicode="" d="M305.692 211.381v-58.607h-99.905v58.607H37.408V38.323h436.666v173.058H305.692zm-99.905 65.598h99.905V237.04h168.356v78.883c0 11.743-9.525 21.27-21.273 21.27h-78.438v27.367c-.01 24.944-20.207 45.143-45.151 45.154H182.01c-24.938-.012-45.139-20.21-45.152-45.154v-27.368H58.404c-11.747 0-21.273-9.526-21.273-21.27v-78.883h168.656v39.94zm-38.149 87.581c.014 7.931 6.44 14.36 14.373 14.374h147.175c7.937-.014 14.358-6.443 14.378-14.374v-27.368H167.638v27.368zm112.878-186.685v74.13h-49.829v-74.13h49.829z"/><glyph unicode="" d="M310.761 342.579c2.649-10.664 2.913-20.567 2.669-31.515-.099-4.223-2.521-23.736-1.865-29.717.541-4.936 1.774-5.328 3.72-9.395 3.39-7.08 2.255-16.842.956-23.979-.712-3.906-2.216-9.468-4.502-12.653-2.521-3.518-7.562-3.541-9.793-7.641-3.213-5.899-1.398-14.186-3.424-20.56-2.302-7.23-8.16-7.737-8.604-17.195 2.875-.412 5.738-.819 8.604-1.23 2.875-6.112 8.139-18.406 13.515-22.107 4.504-1.231 9.008-2.46 13.514-3.686 15.781-6.475 33.32-14.22 49.139-20.889 14.403-6.074 31.645-8.24 36.853-23.339 0-10.253.968-34.471.701-47.907H98.489c-.262 13.437.702 37.654.702 47.907 5.209 15.099 22.451 17.265 36.854 23.339 15.818 6.669 33.357 14.414 49.137 20.889a9943.03 9943.03 0 0113.514 3.686c5.379 3.701 10.644 15.995 13.519 22.107l6.396 1.557c-1.451 8.072-6.451 8.697-8.536 14.415-.815 8.597-1.636 17.201-2.452 25.802.035-.408-5.882 1.072-6.657 1.558-8.345 5.233-8.515 26.461-9.317 35.289-.366 4.038 5.244 7.349 3.686 14.745-9.142 43.33 3.954 72.625 24.665 79.349 14.371 5.826 41.207 16.63 66.239 1.228l6.216-5.76 10.05-1.729c5.037-2.909 8.256-12.569 8.256-12.569zM179.18 266.012c-.494 5.428 1.757 9.537 3.102 11.999.258.477.599 1.097.766 1.472a157.541 157.541 0 00-2.49 15.715l-6.959 1.193-4.427 4.104c-17.843 10.977-36.974 3.276-47.214-.87-14.765-4.797-24.1-25.678-17.58-56.56 1.108-5.274-2.892-7.633-2.628-10.513.571-6.292.688-21.426 6.64-25.153.551-.346 4.77-1.404 4.746-1.116l1.747-18.385c1.485-4.076 5.052-4.521 6.082-10.272l-4.56-1.114c-2.048-4.357-5.799-13.122-9.631-15.76-3.209-.874-6.424-1.751-9.631-2.627-11.249-4.611-23.751-10.134-35.028-14.888-10.264-4.329-22.555-5.875-26.268-16.633 0-7.308-.69-24.576-.498-34.15H86.15c.065 3.128.138 6.257.213 9.276.158 6.631.309 12.892.309 16.776v2.097l.686 1.984c6.035 17.492 21.939 23.002 34.72 27.426 3.229 1.116 6.278 2.172 9.104 3.367 6.203 2.612 12.673 5.396 19.196 8.201 9.602 4.128 19.502 8.377 28.808 12.213-.465 1.008-.893 1.936-1.26 2.717l-6.131.876c.316 6.743 4.492 7.106 6.131 12.258 1.445 4.548.15 10.449 2.442 14.653 1.588 2.922 5.183 2.943 6.978 5.445 1.627 2.273 2.704 6.24 3.21 9.021.272 1.495.526 3.158.697 4.877-9.748 8.984-10.966 26.442-11.777 38.37-.103 1.506-.195 2.86-.296 4.001zm295.474-139.408c-3.71 10.758-16.003 12.304-26.271 16.633-11.273 4.754-23.774 10.276-35.024 14.888-3.209.876-6.422 1.753-9.631 2.627-3.834 2.638-7.582 11.402-9.636 15.76l-6.129.876c.316 6.743 4.489 7.106 6.129 12.258 1.445 4.548.152 10.449 2.443 14.653 1.587 2.922 5.183 2.943 6.979 5.445 1.63 2.273 2.704 6.24 3.211 9.021.927 5.086 1.733 12.047-.684 17.093-1.386 2.898-2.264 3.177-2.649 6.691-.471 4.267 1.256 18.175 1.328 21.185.176 7.804-.014 14.862-1.9 22.463 0 0-2.296 6.887-5.888 8.963l-7.166 1.23-4.429 4.104c-17.843 10.977-36.974 3.276-47.214-.87-5.7-1.85-10.574-6.125-14.056-12.418-.113-2.086-.152-3.793-.061-4.668.049-.457.099-.726.124-.858.12-.228.26-.451.402-.694.521-.893 1.238-2.113 2.042-3.799 5.022-10.492 3.538-23.072 1.981-31.629-.77-4.221-2.655-12.138-6.646-17.706a19.816 19.816 0 00-3.354-3.603c.634-6.669 1.994-14.343 5.998-16.851.553-.346 4.771-1.404 4.747-1.116l1.749-18.385c1.483-4.076 5.049-4.521 6.082-10.272l-4.56-1.114c-.357-.76-.769-1.659-1.224-2.633 9.354-3.854 19.317-8.128 28.973-12.283a2926.156 2926.156 0 0119.229-8.215c2.824-1.195 5.875-2.251 9.104-3.367 12.781-4.424 28.688-9.934 34.72-27.426l.686-1.984v-2.097c0-3.885.151-10.146.312-16.776.07-3.02.146-6.148.214-9.276h50.566c.193 9.574-.497 26.843-.497 34.15z"/><glyph unicode="" d="M306.818 144.449c-15.453 6.512-32.588 14.08-48.007 20.406-4.398 1.196-8.8 2.396-13.202 3.6-5.251 3.611-10.395 15.626-13.204 21.602l-8.402 1.193c.434 9.242 6.158 9.739 8.402 16.8 1.981 6.229.208 14.323 3.348 20.089 2.179 4.002 7.103 4.029 9.565 7.461 2.232 3.117 3.701 8.549 4.398 12.361 1.269 6.971 2.376 16.512-.935 23.43-1.903 3.97-3.104 4.353-3.632 9.176-.641 5.845 1.723 24.907 1.821 29.031.241 10.694-.017 20.369-2.606 30.789 0 0-3.145 9.436-8.07 12.281l-9.817 1.687-6.071 5.626c-24.454 15.049-50.673 4.493-64.712-1.197-20.235-6.568-33.03-35.189-24.098-77.518 1.525-7.227-3.959-10.463-3.6-14.407.785-8.628.947-29.365 9.103-34.472.756-.479 6.538-1.925 6.504-1.528l2.395-25.204c2.038-5.586 6.919-6.197 8.338-14.083l-6.247-1.515c-2.811-5.976-7.953-17.99-13.208-21.602-4.397-1.203-8.8-2.403-13.198-3.6-15.418-6.326-32.555-13.895-48.005-20.406-14.069-5.94-30.916-8.053-36.006-22.802 0-10.021-.94-33.677-.687-46.804h306.521c.256 13.127-.686 36.783-.686 46.804-5.085 14.749-21.933 16.862-36.002 22.802zm86.719 1.363c-11.013 4.641-23.227 10.036-34.215 14.543-3.136.85-6.275 1.708-9.41 2.564-3.744 2.576-7.408 11.139-9.41 15.396-1.996.286-3.991.572-5.989.856.308 6.592 4.384 6.941 5.989 11.974 1.41 4.442.146 10.204 2.383 14.316 1.554 2.856 5.063 2.873 6.816 5.319 1.593 2.221 2.645 6.098 3.141 8.813.904 4.966 1.69 11.771-.668 16.697-1.356 2.833-2.212 3.106-2.589 6.54-.46 4.168 1.228 17.756 1.296 20.695.172 7.625-.009 14.521-1.855 21.944 0 0-2.24 6.729-5.754 8.754l-6.999 1.2-4.328 4.011c-17.429 10.729-36.12 3.208-46.122-.849-14.424-4.684-23.545-25.086-17.178-55.255 1.088-5.151-2.823-7.456-2.562-10.265.557-6.154.671-20.936 6.484-24.576.536-.34 4.66-1.373 4.636-1.088.567-5.984 1.14-11.979 1.708-17.965 1.451-3.979 4.932-4.418 5.939-10.038l-4.449-1.086c-1.428-3.032-3.702-8.226-6.245-11.904a3482.803 3482.803 0 0016.646-7.12c6.428-2.764 12.804-5.506 18.918-8.08 2.908-1.232 5.965-2.289 9.198-3.41 12.079-4.186 25.772-8.925 30.888-23.758l.4-1.163v-1.232c0-3.856.15-10.017.307-16.532.07-2.904.143-5.915.207-8.92h68.973c.186 9.353-.486 26.225-.486 33.363-3.629 10.512-15.638 12.023-25.67 16.256zm79.609-6.764c-2.528 7.335-10.91 8.388-17.911 11.343-7.685 3.24-16.209 7-23.882 10.151-2.184.592-4.372 1.192-6.562 1.788-2.612 1.799-5.169 7.773-6.567 10.742-1.394.202-2.787.4-4.18.602.215 4.594 3.059 4.844 4.18 8.354.982 3.1.102 7.124 1.665 9.988 1.083 1.996 3.53 2.01 4.757 3.72 1.111 1.548 1.846 4.247 2.189 6.146.631 3.472 1.181 8.216-.468 11.653-.944 1.977-1.542 2.168-1.805 4.564-.323 2.906.858 12.392.905 14.439.121 5.322-.008 10.135-1.297 15.321 0 0-1.564 4.689-4.014 6.101l-4.883.842-3.021 2.799c-12.168 7.486-25.207 2.239-32.189-.594-10.064-3.27-16.431-17.503-11.984-38.559.756-3.6-1.971-5.205-1.79-7.169.386-4.29.47-14.606 4.523-17.147.378-.237 3.254-.956 3.235-.76.396-4.176.799-8.359 1.196-12.536 1.009-2.778 3.438-3.081 4.143-7.003l-3.106-.762c-1.184-2.516-3.201-7.16-5.379-9.624 3.961-1.681 7.971-3.401 11.914-5.097 4.597-1.971 9.155-3.935 13.53-5.778 2.011-.847 4.155-1.593 6.425-2.378 8.617-2.984 19.345-6.697 23.326-18.243l.4-1.165v-1.229c0-2.719.104-7.074.215-11.688.019-.691.035-1.4.053-2.105h46.723c.13 6.529-.341 18.298-.341 23.284z"/><glyph unicode="" d="M331.135 381.625c3.677-14.798 4.045-16.031 3.702-31.225-.138-5.855-3.5-32.936-2.586-41.242.751-6.851 2.46-7.395 5.162-13.041 4.705-9.824 3.13-23.376 1.325-33.282-.988-5.42-3.076-13.136-6.248-17.561-3.497-4.876-10.498-4.913-13.592-10.602-4.459-8.195-1.941-19.692-4.752-28.54-3.193-10.033-11.325-10.738-11.938-23.867 3.986-.562 7.962-1.134 11.938-1.703 3.99-8.484 11.297-25.552 18.759-30.688 6.25-1.705 12.505-3.411 18.752-5.113 21.907-8.982 46.251-19.732 68.204-28.987 19.991-8.434 43.927-11.439 51.151-32.396 0-14.229 1.343-47.849.976-66.497H36.514c-.367 18.648.974 52.268.974 66.497 7.226 20.957 31.16 23.963 51.151 32.396 21.953 9.255 46.297 20.005 68.201 28.987 6.25 1.702 12.506 3.408 18.754 5.113 7.461 5.136 14.77 22.203 18.76 30.688l8.877 2.158c-2.017 11.206-8.954 12.078-11.845 20.01a91882.59 91882.59 0 01-3.408 35.806c.055-.563-8.163 1.497-9.238 2.171-11.58 7.256-11.816 36.723-12.931 48.978-.508 5.603 7.283 10.193 5.118 20.465-12.69 60.138 5.486 88.282 34.229 97.614 19.95 8.083 57.198 23.074 91.941 1.703l8.621-7.991 13.952-2.405c7-4.041 11.465-17.446 11.465-17.446z"/><glyph unicode="" d="M178.432 318.285c3.133.197 6.268.369 9.405.53 3.166.163 6.334.31 9.498.435.949.04 1.895.098 2.84.159 2.191.135 4.479.275 6.834.191.574-.02 1.154-.027 1.734-.027l3.757.027h.008c.932 0 1.85-.013 2.766-.056 2.615-.121 5.396-.398 8.752-.874 4.492-.636 8.928-1.472 13.219-2.282 1.551-.292 2.982-.564 4.416-.824l1.219-.226c3.82-.709 7.766-1.441 11.383-1.441l.693.008c4.002.105 8.352.929 12.559 1.728l4.178.788c4.953.935 10.031 1.894 15.18 2.532 5.1.634 9.945.686 15.303.686l1.932-.001c2.023 0 3.947-.134 5.802-.264 1.056-.073 2.1-.148 3.146-.192 2.754-.113 5.514-.243 8.271-.387 2.816-.144 5.633-.3 8.441-.476.543 10.772 2.342 26.122 2.442 30.262.324 14.369-.021 15.532-3.5 29.527 0 0-4.223 12.683-10.842 16.501l-13.195 2.271-8.152 7.557c-32.857 20.215-68.08 6.035-86.947-1.61-25.94-8.42-42.758-33.062-33.818-84.708l2.676.166zM460.991 96.058c-6.834 19.818-29.468 22.661-48.374 30.635-20.761 8.756-43.783 18.92-64.498 27.416-5.912 1.61-11.826 3.223-17.737 4.837-7.058 4.857-13.967 20.997-17.74 29.021-3.762.537-7.52 1.076-11.291 1.609.584 12.418 8.27 13.084 11.291 22.573 2.658 8.367.277 19.241 4.494 26.987 2.927 5.38 9.546 5.416 12.854 10.027 3.002 4.186 4.976 11.484 5.91 16.608 1.692 9.293 3.164 21.98-1.158 31.252h-4.529c-.244-.402-.68-1.444-1.377-4.118l-.256-.964c-1.543-11.029-6.34-20.264-13.512-26.014-6.084-4.872-13.924-7.447-22.67-7.447-1.912 0-3.851.128-5.761.383-6.237.827-12.092 3.042-16.934 6.407-2.272 1.58-4.472 3.197-6.459 5.595-1.619 1.953-3.018 4.182-4.398 7.009-.816 1.668-1.504 3.354-2.114 4.841l-2.171 5.544c-.088.229-.248.637-.416.993a5.357 5.357 0 01-.211-.688l-2.577-7.612c-1.64-3.955-3.567-7.966-6.944-11.481-4.112-4.288-9.559-7.51-15.752-9.32a42.488 42.488 0 00-11.932-1.703c-6.848 0-13.316 1.658-18.709 4.792-7.98 4.642-13.62 12.627-16.299 23.094-.375 1.458-.783 2.908-1.19 4.362l-.992 3.617c-.41 1.545-.758 2.863-1.274 3.613l-.016.022-3.521.033c-1.324-2.434-2.574-4.54-2.367-6.823 1.054-11.59 1.277-39.454 12.229-46.317 1.018-.637 8.787-2.585 8.738-2.053 1.076-11.285 2.15-22.58 3.22-33.863 2.734-7.501 9.297-8.325 11.204-18.92l-8.395-2.04c-3.774-8.024-10.684-24.164-17.741-29.021a25694.65 25694.65 0 00-17.738-4.837c-20.711-8.496-43.736-18.66-64.497-27.416-18.906-7.974-41.539-10.817-48.375-30.635 0-13.458-1.268-45.249-.92-62.883h411.822c.35 17.636-.917 49.427-.917 62.885zm-267.68 192.015c3.068-10.883 10.52-17.841 23.498-17.841 12.982 0 23.502 7.987 23.502 17.841 0 9.852 3.17 17.089-23.502 18.992-12.18.868-30.297 5.105-23.498-18.992zm98.85 18.991c-26.672-1.903-23.502-9.14-23.502-18.992 0-9.854 10.523-17.841 23.502-17.841 12.977 0 20.432 6.958 23.5 17.841 6.798 24.098-11.323 19.861-23.5 18.992z"/><glyph unicode="" d="M338.739 141.797c-28.189 8.81-38.981 29.701-42.15 50.45a192.926 192.926 0 018.991 11.134c18.477-5.912 40.648-7.639 59.615 6.115-26.127 26.137-5.135 58.186-24.004 115.935-16.054 49.087-81.852 46.67-90.32 29.41-34.859 12.352-61.186-4.172-70.898-56.17-11.117-59.717 10.466-66.029-15.665-92.159 20.047-11.461 38.456-8.652 54.418-2.33a174.51 174.51 0 019.775-12.124c-3.268-20.677-14.061-41.483-42.151-50.261-21.388-6.695-46.436-13.295-61.25-28.096-11.706-11.699-3.924-39.622-3.924-39.622h282.738s7.749 27.923-3.927 39.622c-14.778 14.801-39.861 21.401-61.248 28.096zm131.822-11.865c-11.674 11.691-31.492 16.898-48.398 22.19-22.235 6.948-30.739 23.454-33.291 39.856a149.53 149.53 0 017.098 8.776c14.584-4.673 32.111-6.031 47.09 4.843-20.637 20.634-4.055 45.918-18.969 91.531-12.687 38.773-64.617 36.874-71.321 23.242-.815.296-1.668.582-2.484.809 6.996-24.33 7.325-44.175 7.586-60.385.327-20.422.524-33.907 12.624-46.003l6.21-6.195-7.094-5.143c-10.071-7.292-21.681-11.238-34.566-11.834-1.733-11.006-6.213-22.044-15.794-30.17 5.754-5.608 12.98-9.777 21.746-12.518 2.06-.643 4.152-1.281 6.278-1.938 20.309-6.252 43.331-13.335 58.014-28 5.429-5.404 7.686-12.906 8.403-20.349h59.974c-.002.002 6.114 22.051-3.106 31.288zm-292.713 17.062c2.093.656 4.186 1.295 6.279 1.938 5.855 1.838 11.053 4.341 15.564 7.49-14.848 8.23-21.123 21.91-23.25 35.557.358.359.687.766 1.012 1.168-5.756 1.462-11.38 3.732-16.874 6.864l-8.502 4.862 6.932 6.92c12.493 12.517 12.067 18.15 10.892 33.207-.913 12.031-2.224 28.5 2.746 55.038 1.931 10.474 4.513 19.347 7.523 26.881-17.528 5.15-36.006 1.194-39.8-6.549-27.535 9.738-48.331-3.301-55.985-44.359-8.797-47.172 8.273-52.142-12.394-72.785 15.86-9.057 30.38-6.833 42.969-1.832a150.151 150.151 0 017.72-9.59c-2.553-16.324-11.086-32.734-33.258-39.683-16.907-5.292-36.693-10.499-48.366-22.19-9.254-9.236-3.106-31.286-3.106-31.286h73.447c.72 7.442 3.009 14.944 8.405 20.349 14.648 14.665 37.705 21.748 58.046 28z"/><glyph unicode="" d="M257.006 141.835c-28.092 8.783-38.783 29.665-41.941 50.331a174.19 174.19 0 018.977 11.121c18.379-5.889 40.386-7.605 59.255 6.047-25.966 25.999-5.115 57.816-23.872 115.227-15.94 48.808-81.327 46.384-89.767 29.214-34.63 12.265-60.81-4.118-70.439-55.819-11.053-59.354 10.383-65.603-15.597-91.579 19.945-11.396 38.21-8.587 54.088-2.308a183.876 183.876 0 019.744-12.1c-3.188-20.601-13.897-41.366-41.923-50.134-21.255-6.637-46.173-13.207-60.873-27.926-11.611-11.606-3.876-39.369-3.876-39.369h280.974s7.75 27.763-3.877 39.369c-14.7 14.719-39.618 21.289-60.873 27.926zm103.338 13.019c-19.427 6.085-26.817 20.502-28.975 34.793 2.109 2.424 4.2 5.006 6.197 7.688 12.703-4.072 27.928-5.265 40.957 4.184-17.953 17.954-3.53 39.961-16.514 79.628-11.004 33.719-56.181 32.049-62.018 20.211-10.254 3.626-19.377 3.595-27.028-.346 2.682-15.647 2.908-29.119 3.106-40.694.293-20.274.524-33.683 12.509-45.688l6.213-6.211-7.113-5.132a61.41 61.41 0 00-9.598-5.692c2.108-2.811 4.3-5.524 6.556-8.076-2.205-14.259-9.614-28.616-28.972-34.665-2.027-.622-4.086-1.263-6.149-1.896a64.421 64.421 0 019.714-3.991c2.059-.619 4.119-1.272 6.227-1.912 20.229-6.196 43.12-13.261 57.721-27.847 3.074-3.074 5.117-6.835 6.459-10.858h75.474s5.364 19.165-2.681 27.207c-10.17 10.172-27.388 14.703-42.085 19.297zm112.559.914c-6.999 7.034-18.871 10.14-29.008 13.309-13.391 4.188-18.476 14.147-19.979 23.971 1.453 1.699 2.908 3.47 4.284 5.319 8.729-2.801 19.259-3.62 28.22 2.877-12.359 12.374-2.42 27.552-11.378 54.902-7.591 23.268-38.737 22.122-42.743 13.947-11.888 4.188-21.648 1.292-27.924-9.775 1.172-8.893 1.338-16.692 1.437-23.528.242-15.092.687-22.665 7.978-29.975l6.232-6.21-2.83-2.029a89.923 89.923 0 014.479-5.591c-1.505-9.829-6.605-19.72-19.947-23.908-4.757-1.484-9.878-2.975-14.716-4.838 1.734-.849 3.563-1.637 5.576-2.238 1.406-.459 2.828-.883 4.283-1.343 14.227-4.367 30.348-9.304 40.861-19.799 1.143-1.177 2.091-2.485 2.911-3.843h64.11s3.714 13.228-1.846 18.752z"/><glyph unicode="" d="M438.488 76.6c-19.689 19.678-53.045 28.459-81.495 37.354-37.508 11.723-51.833 39.521-56.115 67.105a238.99 238.99 0 0112.003 14.813c24.59-7.862 54.055-10.161 79.3 8.134-34.762 34.764-6.866 77.386-31.95 154.179-21.352 65.292-108.83 62.08-120.112 39.138-46.402 16.392-81.396-5.549-94.277-74.71-14.814-79.438 13.896-87.825-20.866-122.575 26.684-15.252 51.146-11.523 72.368-3.094 4.187-5.634 8.536-11.052 13.019-16.139-4.32-27.492-18.706-55.161-56.054-66.852-28.48-8.895-61.804-17.676-81.493-37.354C57.286 61.04 67.62 23.9 67.62 23.9h376.034c-.002 0 10.366 37.141-5.166 52.7z"/><glyph unicode="" d="M378.594 371.412h-51.951v-52.247h12.021c-.586-19.484-2.632-33.068-6.7-43.055-4.973-12.141-12.647-20.826-28.882-31.934-11.669-7.908-22.107-16.011-30.842-25.602V387.9h18.431l-32.198 55.291-32.195-55.291H244.7V162.132c-8.656 9.415-18.973 17.395-30.481 25.187-16.23 11.107-23.908 19.794-28.882 31.934-4.532 11.117-6.543 26.706-6.831 49.912 10.486 5.126 17.726 15.868 17.726 28.325 0 17.42-14.119 31.541-31.542 31.541-17.417 0-31.542-14.121-31.542-31.541 0-12.494 7.285-23.263 17.823-28.368.313-24.652 2.197-43.483 8.81-60.126 7.242-18.289 20.47-32.06 38.997-44.481 16.771-11.354 27.846-21.156 35.008-33.614 4.676-8.122 8.046-17.935 9.838-31.074-20.537-5.646-35.647-24.395-35.647-46.722 0-26.792 21.719-48.502 48.507-48.502 26.777 0 48.496 21.71 48.496 48.502 0 21.261-13.703 39.279-32.738 45.827v36.443c.299 24.722 4.374 40.381 11.277 52.387 7.169 12.445 18.232 22.251 35.012 33.609 18.519 12.419 31.749 26.188 38.995 44.479 5.988 15.08 8.095 31.947 8.677 53.315h12.393v52.247z"/><glyph unicode="" d="M187.154 303.142V163.509c0-15.601 12.656-28.259 28.252-28.259h14.748V16.314H281.3V135.25h14.748c15.615 0 28.287 12.658 28.287 28.259v139.633H187.154zm102.291-61.448h-3.338c-.195-5.163-.784-9.417-2.321-13.309-2.028-5.133-5.772-8.993-10.792-12.325-4.381-2.979-7.129-5.466-8.861-8.486-1.7-2.948-2.746-6.855-2.828-13.229v-8.783c5.084-2.139 8.666-7.146 8.666-12.98 0-7.768-6.295-14.08-14.078-14.08-7.767 0-14.062 6.312-14.062 14.08 0 6.083 3.858 11.263 9.271 13.229-.491 2.81-1.26 4.938-2.306 6.718-1.735 3.042-4.48 5.53-8.864 8.486-5.019 3.354-8.729 7.194-10.756 12.331-1.768 4.479-2.324 9.386-2.422 15.626a9.526 9.526 0 00-4.725 8.229 9.59 9.59 0 009.599 9.596c5.28 0 9.58-4.283 9.58-9.596 0-3.486-1.879-6.526-4.676-8.229.1-5.654.655-9.429 1.701-11.997 1.227-2.94 2.975-4.97 7.195-7.863 2.192-1.49 4.25-3.026 6.099-4.727v55.493h-5.771l10.675 18.348 10.677-18.348h-5.787v-40.517c1.896 1.716 3.956 3.271 6.215 4.774 4.184 2.91 5.934 4.938 7.16 7.896.916 2.191 1.455 5.265 1.635 9.663h-3.123v16.319h16.238v-16.319zm19.278 190.098H202.736v-100.43h105.987v100.43zm-66.175-76.623h-17.446v26.145h17.446v-26.145zm42.841 0h-17.461v26.145h17.461v-26.145z"/><glyph unicode="" d="M457.915 237.778H269.053l-.004 78.416c0 33.277-12.63 63.824-33.538 86.175-20.82 22.357-50.579 36.756-83.391 36.731-32.814.024-62.57-14.375-83.391-36.731-20.915-22.351-33.541-52.897-33.547-86.175V212.335H96.19v13.476l-35.656 35.656H96.19v54.728c0 17.765 6.717 33.406 17.084 44.502 10.463 11.09 23.927 17.37 38.845 17.394 14.916-.024 28.375-6.304 38.837-17.394 10.375-11.096 17.092-26.738 17.087-44.502v-78.416h-26.189c-9.159 0-16.582-7.426-16.582-16.585V26.664c0-9.158 7.423-16.583 16.582-16.583h276.06c9.164 0 16.587 7.425 16.587 16.583v194.53c.001 9.159-7.422 16.584-16.586 16.584z"/><glyph unicode="" d="M255.176 446.956c-122.418 0-222.014-99.596-222.014-222.017 0-122.417 99.596-222.014 222.014-222.014 122.421 0 222.02 99.597 222.02 222.014-.001 122.421-99.599 222.017-222.02 222.017zm0-25.043c108.787 0 196.982-88.187 196.982-196.974 0-13.479-1.366-26.636-3.941-39.35-12.725-40.065-50.199-69.1-94.465-69.1-54.748 0-99.137 44.377-99.137 99.123 0 54.744-44.379 99.124-99.126 99.124-47.665 0-87.448-33.651-96.942-78.492 5.863 103.524 91.642 185.669 196.629 185.669z"/><glyph unicode="" d="M364.26 297.604c12.688.081 25.018-1.947 36.66-5.971-9.091 9.87-19.001 18.611-29.596 26.066-34.059 24.212-73.679 34.865-111.596 34.809-44.784-.105-88.015-14.132-124.348-39.161l-63.555 63.547-22.383-234.091 234.077 22.416-64.746 64.762c48.284 42.804 99.018 67.423 145.487 67.623zm98.627-228.325v35.424c0 39.219-5.164 74.258-15.27 105.242a244.473 244.473 0 01-2.404 6.924c-2.992 6.385-6.277 12.166-9.794 17.327-18.476 26.829-42.119 38.233-71.159 38.472-28.138.147-61.527-11.988-95.717-35.262 8.092-.806 15.762-2.704 22.793-5.65 14.259-6.177 26.619-15.89 37.494-34.859 10.709-18.94 19.391-48.411 19.406-92.192V69.281h114.651z"/><glyph unicode="" d="M267.709 408.923v29.022h-25.72v-29.022C127.396 402.26 36.515 307.238 36.515 190.971h4.634c7.414 20.715 27.156 35.559 50.416 35.559 23.258 0 43.001-14.844 50.417-35.559h8.023c7.416 20.715 27.156 35.559 50.417 35.559 17.003 0 32.104-7.956 41.906-20.316V58.013c.006-25.669 20.802-46.455 46.465-46.461 25.657.006 46.454 20.792 46.46 46.461 0 6.917-5.606 12.518-12.522 12.518-6.913 0-12.519-5.601-12.519-12.518-.023-11.826-9.598-21.403-21.419-21.419-11.828.016-21.401 9.593-21.428 21.419v148.196c9.802 12.364 24.905 20.32 41.911 20.32 23.26 0 43.002-14.844 50.418-35.559h8.022c7.417 20.715 27.157 35.559 50.417 35.559 23.259 0 43.002-14.844 50.416-35.559h4.632c.002 116.268-90.877 211.292-205.472 217.953z"/><glyph unicode="" d="M256.016 430.704c-117.152 0-212.112-94.96-212.112-212.096 0-80.32 44.656-150.192 110.496-186.192v47.616c-42.656 31.344-70.496 81.712-70.496 138.576 0 94.896 77.2 172.096 172.112 172.096 94.896 0 172.08-77.2 172.08-172.096 0-56.88-27.84-107.248-70.496-138.592v-47.6c65.84 36 110.496 105.872 110.496 186.192 0 117.136-94.944 212.096-212.08 212.096zm5.92-130.768a8 8 0 01-5.904 2.608 8 8 0 01-5.904-2.608l-82.288-90.128a7.981 7.981 0 01-1.408-8.624 7.978 7.978 0 017.312-4.768h34.688V25.296c0-4.416 3.584-8 8-8h79.136c4.416 0 8 3.584 8 8V196.4h34.672a7.978 7.978 0 017.312 4.768 7.991 7.991 0 01-1.408 8.624l-82.208 90.144z"/><glyph unicode="" d="M444.72 264.72H67.28c-11.04 0-20 8.96-20 20v130.384c0 11.04 8.96 20 20 20h377.44c11.04 0 20-8.96 20-20V284.72c0-11.056-8.96-20-20-20zm-357.44 40h337.44v90.384H87.28V304.72zM272.784 89.024c0 6.848.704 13.504 1.936 20H87.28v90.384h337.44v-12.496a108.098 108.098 0 0040-31.36v63.856c0 11.04-8.96 20-20 20H67.28c-11.04 0-20-8.96-20-20V89.024c0-11.04 8.96-20 20-20h207.44c-1.232 6.496-1.936 13.152-1.936 20zm107.552 76.128c-41.968 0-76.112-34.16-76.112-76.128s34.144-76.128 76.112-76.128 76.128 34.16 76.128 76.128-34.144 76.128-76.128 76.128zm46.016-80.464a7.293 7.293 0 00-7.296-7.296h-27.072V50.304a7.293 7.293 0 00-7.296-7.296H376a7.293 7.293 0 00-7.296 7.296v27.088h-27.072a7.293 7.293 0 00-7.296 7.296v8.672a7.293 7.293 0 007.296 7.296h27.072v27.088A7.293 7.293 0 00376 135.04h8.688a7.293 7.293 0 007.296-7.296v-27.088h27.072a7.293 7.293 0 007.296-7.296v-8.672z"/><glyph unicode="" d="M440.624 128.336c-.192.176-189.248 167.392-189.248 167.392a101.607 101.607 0 014.72 30.64c0 27.056-10.528 52.496-29.664 71.632s-44.56 29.664-71.632 29.664c-12.72 0-25.056-2.416-36.56-6.88l54.848-54.864v-57.856h-57.84l-54.816 54.832C46.464 326.64 54 283.92 83.184 254.736c19.12-19.12 44.56-29.664 71.632-29.664 9.312 0 18.4 1.328 27.12 3.744 0 0 166.72-189.008 167.472-189.76 12.064-12.064 28.096-18.704 45.152-18.704 17.088 0 33.12 6.656 45.184 18.72 24.576 24.56 24.784 64.272.88 89.264zm-45.808-69.952c-14.288 0-25.84 11.584-25.84 25.856s11.568 25.856 25.84 25.856c14.256 0 25.84-11.584 25.84-25.856s-11.6-25.856-25.84-25.856z"/><glyph unicode="" d="M184.32 236.608c23.136-42.592 51.664-51.536 71.52-51.536 19.824 0 48.352 8.928 71.68 51.424l1.552 2.816c12.512 22.72 20.784 37.728 20.784 73.072 0 55.616-11.168 112.448-94.016 112.448-93.472 0-93.472-75.952-93.472-112.448 0-35.376 8.176-50.432 20.544-73.2l1.408-2.576zm268.016-126.8L348.144 156.48a12.122 12.122 0 01-9.568.112l-53.936-22.688h-57.152l-53.952 22.528c-3.04 1.28-6.48 1.232-9.52-.112L59.68 109.76a11.985 11.985 0 01-7.104-10.96V35.168c0-6.624 5.376-12 12-12h382.848c6.624 0 12 5.376 12 12v63.696c0 4.72-2.784 9.008-7.088 10.944z"/><glyph unicode="" d="M451.056 407.424H60.944c-10.72 0-19.424-8.688-19.424-19.424V60c0-10.72 8.688-19.424 19.424-19.424h390.128c10.72 0 19.424 8.688 19.424 19.424v328c-.016 10.72-8.72 19.424-19.44 19.424zm-19.408-328H80.352v289.152h351.28V79.424zm-309.424 34.48h267.568c6.112 0 11.472 4.096 13.056 10a13.513 13.513 0 01-6.224 15.232l-111.488 65.36a13.514 13.514 0 01-15.68-1.424l-27.264-23.504-52.736 45.328c-2.944 2.528-6.816 3.616-10.656 3.152a13.58 13.58 0 01-9.424-5.888l-58.4-87.168a13.519 13.519 0 01-.688-13.92 13.518 13.518 0 0111.936-7.168zm197.968 167.84a41.056 41.056 180 1182.112 0 41.056 41.056 180 11-82.112 0z"/><glyph unicode="" d="M410.48 331.6l-93.312 93.312a39.972 39.972 0 01-28.288 11.712H129.808c-22.096 0-40-17.904-40-40V51.376c0-22.096 17.904-40 40-40h252.368c22.096 0 40 17.904 40 40v251.936A39.917 39.917 0 01410.48 331.6zM129.808 51.376v345.248h151.088l.064-.192c.08-.304 8.64-31.28-6.128-88.064a8.084 8.084 0 012.544-8.16 8.065 8.065 0 018.448-1.296c62.528 26.784 94.704-3.36 96.336-4.976V51.36H129.808z"/><glyph unicode="" d="M451.936 264.736l-38.08 13.552A168.663 168.663 0 01406 297.232l17.344 36.496a15.985 15.985 0 01-3.136 18.176l-36.288 36.304a15.974 15.974 0 01-18.192 3.136l-36.496-17.36a164.773 164.773 0 01-18.96 7.856l-13.536 38.08a16.01 16.01 0 01-15.072 10.64h-51.328c-6.768 0-12.816-4.272-15.072-10.64l-13.536-38.08a165.963 165.963 0 01-18.96-7.856l-36.496 17.36a15.974 15.974 0 01-18.192-3.136l-36.288-36.304a15.985 15.985 0 01-3.136-18.176l17.36-36.496c-3.008-6.16-5.648-12.48-7.856-18.96l-38.08-13.536c-6.368-2.272-10.64-8.32-10.64-15.072v-51.328c0-6.768 4.256-12.8 10.64-15.072l38.064-13.536a167.17 167.17 0 017.856-18.96l-17.36-36.512a15.985 15.985 0 013.136-18.176l36.288-36.288c4.768-4.784 12.064-6.016 18.176-3.136l36.496 17.36a167.272 167.272 0 0118.96-7.872l13.536-38.064a15.995 15.995 0 0115.072-10.64h51.328c6.768 0 12.8 4.256 15.072 10.64l13.552 38.064a165.824 165.824 0 0118.944 7.872l36.496-17.36c6.112-2.896 13.408-1.648 18.176 3.136L420.16 96.08a15.985 15.985 0 013.136 18.176l-17.344 36.496a165.963 165.963 0 017.856 18.96l38.064 13.536a15.995 15.995 0 0110.64 15.072v51.328c.048 6.768-4.208 12.816-10.576 15.088zM256 149.488c-41.136 0-74.512 33.344-74.512 74.512s33.36 74.512 74.512 74.512 74.512-33.344 74.512-74.512-33.376-74.512-74.512-74.512z"/><glyph unicode="" d="M256.209 40.253c55.07 0 99.705 22.302 99.705 49.868H156.469c0-27.566 44.669-49.868 99.74-49.868zm204.319 367.853H51.887c-6.801 0-12.329-5.51-12.329-12.327v-268.51c0-6.803 5.528-12.325 12.329-12.325h408.642c6.802 0 12.296 5.522 12.296 12.325v268.51c-.001 6.818-5.495 12.327-12.297 12.327zm-17.624-263.252H69.482v233.328h373.422V144.854z"/><glyph unicode="" d="M462.346 405.841H50.471c-6.803 0-12.328-5.509-12.328-12.343V111.8c0-6.803 5.525-12.324 12.328-12.324h411.875a12.311 12.311 0 0112.329 12.324v281.698a12.308 12.308 0 01-12.329 12.343zm-105.952-207.3c0-12.754-8.798-28.853-19.554-35.726 0 0-41.86-26.78-117.598-26.78-75.702 0-117.562 26.78-117.562 26.78-10.758 6.873-19.556 22.972-19.556 35.726v107.771c0 12.787 8.798 28.862 19.556 35.745 0 0 41.86 26.786 117.562 26.786 75.737 0 117.598-26.786 117.598-26.786 10.756-6.883 19.554-22.958 19.554-35.745V198.541zm63.672 43.317c-10.369 0-18.773 8.405-18.773 18.769 0 10.365 8.404 18.743 18.773 18.743 10.362 0 18.736-8.378 18.736-18.743.001-10.363-8.373-18.769-18.736-18.769zm0 65.172c-10.369 0-18.773 8.409-18.773 18.737 0 10.369 8.404 18.774 18.773 18.774 10.362 0 18.736-8.405 18.736-18.774.001-10.328-8.373-18.737-18.736-18.737zM106.684 42.506h287.58v30.643h-287.58V42.506z"/><glyph unicode="" d="M281.693 139.078v41.975a116.332 116.332 0 00-25.297-2.763c-8.86 0-17.527 1.017-25.85 2.878v-42.761c-.36-28.267-23.363-51.078-51.749-51.078h-3.237V56.673h161.12v30.656h-3.204c-28.615 0-51.783 23.169-51.783 51.749zM423.601 361.19l-.589 12.264h-73.84v18.245h-185.55v-18.276H89.817l-.623-12.184c0-.179-.064-1.453-.064-3.528.064-8.62.817-31.513 11.413-54.044 5.329-11.216 13.375-22.464 25.343-30.888 11.674-8.221 26.947-13.32 45.325-13.536 14.226-32.979 46.991-56.035 85.186-56.035 38.164 0 70.965 23.056 85.189 56.035 18.346.216 33.65 5.315 45.325 13.536 18.019 12.705 26.946 31.381 31.588 47.63 4.645 16.352 5.151 30.843 5.151 37.315 0 2.062-.049 3.271-.049 3.466zm-282.932-67.365c-11.252 7.816-17.957 20.649-21.634 33.649-2.11 7.309-3.172 14.502-3.71 20.244h48.297v-51.733c0-3.566.23-7.099.623-10.562-10.089 1.141-17.562 4.254-23.576 8.402zm248.336 20.898c-3.942-8.292-9.354-15.602-16.875-20.897-6.001-4.148-13.508-7.261-23.577-8.402.392 3.464.619 6.996.619 10.562v51.733h48.285c-.865-9.112-3.074-21.848-8.452-32.996z"/><glyph unicode="" d="M406.566 256.252c0 21.37-9.564 40.481-24.657 53.335a73.046 73.046 0 012.616 19.408c0 40.075-32.211 72.616-72.139 73.186-8.078 22.124-29.303 37.95-54.221 37.95-24.919 0-46.16-15.826-54.219-37.95-39.962-.569-72.173-33.11-72.173-73.186 0-5.934.753-11.708 2.076-17.253-16.627-12.784-27.353-32.895-27.353-55.49 0-32.211 21.81-59.354 51.44-67.499.099-2.481.195-5.049.195-7.684 0-22.763 28.976-41.202 64.685-41.202.586 0 1.16 0 1.749.015V8.239h65.894v131.643c.753-.015 1.486-.015 2.241-.015 35.726 0 64.683 18.439 64.683 41.202 0 2.831-.033 5.593-.194 8.274 28.581 8.795 49.377 35.448 49.377 66.909z"/><glyph unicode="" d="M122.844 4.481h263.145v279.816H122.844V4.481zm181.281 223.79c0 8.498 6.891 15.386 15.395 15.386 8.494 0 15.385-6.888 15.385-15.386V66.143c0-8.496-6.891-15.394-15.385-15.394-8.504 0-15.395 6.897-15.395 15.394v162.128zm-65.101-.003c0 8.496 6.892 15.392 15.39 15.392 8.496 0 15.392-6.896 15.392-15.392V66.143c0-8.496-6.896-15.391-15.392-15.391-8.498 0-15.39 6.895-15.39 15.391v162.125zm-65.098 0c0 8.501 6.895 15.392 15.389 15.392 8.498 0 15.391-6.891 15.391-15.392V66.141c0-8.498-6.893-15.389-15.391-15.389-8.494 0-15.389 6.891-15.389 15.389v162.127zM399.02 389.77h-57.209v9.36c-.004 24.942-20.209 45.145-45.148 45.152h-84.498c-24.941-.007-45.145-20.209-45.153-45.152v-9.36h-57.2c-11.744 0-21.273-9.526-21.273-21.275v-56.348h331.756v56.348c-.002 11.748-9.527 21.275-21.275 21.275zm-87.989 0H197.785l-.004 9.36c.023 7.938 6.445 14.359 14.383 14.372h84.498c7.929-.013 14.359-6.433 14.369-14.372v-9.36z"/><glyph unicode="" d="M123.8 4.271h263.142l25.235 287.633H98.566L123.8 4.271zm301.22 385.283h-82.252v9.367c-.011 24.943-20.209 45.144-45.146 45.146H213.12c-24.945-.002-45.144-20.202-45.156-45.146v-9.367h-82.24c-11.746 0-21.273-9.525-21.273-21.272v-51.338h381.841v51.338c0 11.746-9.526 21.272-21.272 21.272zm-113.028 0H198.746v9.367c.009 7.93 6.441 14.355 14.373 14.376h84.502c7.928-.021 14.354-6.446 14.371-14.376v-9.367z"/><glyph unicode="" d="M438.474 362.9c0 36.855-50.238 48.518-66.746 52.348-31.23 7.25-72.334 11.242-115.73 11.242-43.395 0-84.496-3.992-115.727-11.242-16.508-3.83-66.744-15.492-66.744-52.348 0-13.449 9.605-24.643 22.328-27.127l53.32-251.887c-3.867-4.383-6.23-10.121-6.23-16.426 0-19.967 15.898-33.471 47.252-40.139 17.645-3.75 41.014-5.812 65.801-5.812 24.789 0 48.158 2.062 65.803 5.812 31.354 6.668 47.252 20.172 47.252 40.139 0 6.305-2.365 12.043-6.232 16.426l53.326 251.887c12.719 2.485 22.327 13.678 22.327 27.127zm-312.676-12.556a27.06 27.06 0 011.182 2.6c3.309 1.84 8.799 3.941 16.309 6.047l76.107-35.805-79.559-39.162-14.039 66.32zm127.295-43.012l82.639-38.881L256 230.265l-80.828 38.709 77.921 38.358zm-30.787-93.201l-61.445-29.428-13.863 65.494 75.308-36.066zm33.693-16.137l69.279-33.178-69.279-33.18-69.277 33.18 69.277 33.178zM222.308 115.5l-42.49-20.348-9.586 45.291 52.076-24.943zm33.691-16.133l50.756-24.309c-12.172-2.127-29.57-3.824-50.758-3.824-21.186 0-38.582 1.697-50.754 3.824l50.756 24.309zm76.178-4.213L289.69 115.5l52.074 24.939-9.587-45.285zm18.959 89.551l-61.443 29.426L365 250.195l-13.864-65.49zm-64.633 139.072l75.223 37.025c11.164-2.689 19.035-5.492 23.293-7.859.344-.893.75-1.752 1.182-2.6l-14.145-66.816-85.553 40.25zm25.293 44.891l-58.99-29.037-60.092 28.273c17.965 1.988 39.156 3.285 63.283 3.285 20.861 0 39.514-.972 55.799-2.521z"/><glyph unicode="" d="M377.747 131.255v238.853s-5.349 63.34-121.355 63.34c-116.027 0-121.358-63.31-121.358-63.31V131.254c0-13.346 10.072-24.15 22.484-24.15h48.709L137.848 14.07h38.031l11.903 16.199h139.031l11.805-16.199h37.92l-67.791 93.034h46.501c12.425 0 22.499 10.805 22.499 24.151zM210.314 60.928l12.195 16.582h69.869l12.098-16.582h-94.162zm29.56 355.109h32.997c10.334 0 18.705-8.387 18.705-18.722 0-10.318-8.371-18.688-18.705-18.688h-32.997c-10.316 0-18.687 8.37-18.687 18.688 0 10.334 8.371 18.722 18.687 18.722zm-71.518-70.602c0 6.49 6.508 11.755 14.536 11.755h147.01c8.013 0 14.521-5.265 14.521-11.755v-82.216s-13.112-22.578-88.031-22.578c-74.921 0-88.035 22.6-88.035 22.6v82.194zm-.456-182.526c0 15.072 12.23 27.305 27.305 27.305 15.076 0 27.305-12.232 27.305-27.305 0-15.077-12.229-27.307-27.305-27.307-15.075.001-27.305 12.23-27.305 27.307zm151.735-27.306c-15.06 0-27.272 12.229-27.272 27.307 0 15.072 12.213 27.305 27.272 27.305 15.092 0 27.307-12.232 27.307-27.305-.001-15.078-12.215-27.307-27.307-27.307z"/><glyph unicode="" d="M324.727 234.449l89.521 73.883-89.521 73.885v-48.2H140.551v-51.362h184.175v-48.206zm-138.8-20.517L96.406 140.05l89.521-73.887v48.207h183.761v51.363H185.927v48.199z"/><glyph unicode="" d="M196.861 221.796l89.142 73.582-89.142 73.574v-48.004H38.404v-51.147h158.457v-48.005zm118.904 4.515l-89.144-73.583 89.144-73.574v48.006h158.046v51.146H315.765v48.005z"/><glyph unicode="" d="M368.928 41.073v211.792s-30.216 11.004-30.216 154.301h-24.068s5.982-100.604-54.774-100.604h-8.504c-60.758 0-54.774 100.604-54.774 100.604H172.49c0-143.296-30.218-154.301-30.218-154.301V41.073h226.656z"/><glyph unicode="" d="M167.564 242.117c.098-.098.18-.207.279-.307l41.582-41.581 14.504 14.504-15.655 15.652-7.078 7.085 36.284 36.283 4.785-.532a32.673 32.673 0 013.709-.208c2.506 0 4.96.308 7.346.841l-26.714 26.717c-.539.541-1.122 1.017-1.685 1.524 8.233 29.596.738 62.65-22.536 85.922-23.101 23.104-55.84 30.654-85.27 22.712l49.864-49.861-13.092-48.849-48.85-13.095-49.864 49.866c-7.944-29.435-.386-62.177 22.715-85.276 24.258-24.261 59.153-31.378 89.676-21.397zm147.338-29.845a33.37 33.37 0 01-.612-11.079l.531-4.783-3.406-3.405-25.792-25.8-7.084-7.078-22.736 22.736-14.506-14.506L372.923 36.725c8.116-8.113 18.749-12.168 29.385-12.168 10.632 0 21.266 4.055 29.376 12.168 16.231 16.229 16.231 42.537 0 58.762L314.902 212.272zM416.531 50.365l-20.877-5.594-16.938 16.94 5.595 20.873 20.879 5.597 16.937-16.939-5.596-20.877zM255.954 196.874l22.742-22.741 25.797 25.797c-1.399 12.586 2.698 25.662 12.346 35.307 9.644 9.645 22.721 13.74 35.302 12.346l112.796 112.796-63.181 63.177L288.963 310.76c1.398-12.582-2.701-25.658-12.346-35.307-9.646-9.646-22.722-13.74-35.307-12.342l-25.794-25.799 22.731-22.733-111.455-111.456-4.077 4.078-21.396-17.233-35.987-56.832 9.187-9.189 56.838 35.985 17.228 21.396-4.092 4.088 111.461 111.458z"/><glyph unicode="" d="M401.477 344.996c-28.908 28.903-64.812 46.452-102.289 52.749v40.741h-65.894v-41.235c-19.261-3.515-38.063-10.038-55.659-19.587l-33.485 33.451 11.38 11.38-21.685 21.687-96.401-96.408 21.681-21.685 13.537 13.571 32.08-32.077C61.64 234.952 71.355 139.758 133.816 77.301c73.904-73.893 193.756-73.893 267.66 0 73.942 73.9 73.942 193.756.001 267.695zm-40.615-227.05c-51.407-51.41-135.026-51.41-186.431 0-51.377 51.376-51.377 134.992 0 186.435 51.404 51.373 135.023 51.373 186.431 0 51.374-51.443 51.374-135.059 0-186.435zm-26.915 108.437l-59.451.951-64.941 64.946c-6.379 6.372-16.68 6.372-23.057 0-6.375-6.331-6.375-16.679 0-23.058l74.299-74.267 72.631-1.142c4.641-.084 8.796 1.731 11.805 4.742 2.876 2.909 4.705 6.864 4.775 11.28.131 8.997-7.032 16.438-16.061 16.548z"/><glyph unicode="" d="M255.169 442.284c120.399 0 217.999-97.602 217.999-217.999 0-120.394-97.6-217.996-217.999-217.996-120.397 0-217.998 97.603-217.998 217.996 0 120.398 97.601 217.999 217.998 217.999m0-66.173c-83.716 0-151.826-68.108-151.826-151.826 0-83.715 68.11-151.826 151.826-151.826s151.826 68.111 151.826 151.826c0 83.718-68.11 151.826-151.826 151.826zm39.456-219.541l-58.234 60.113v121.004c0 10.371 8.405 18.775 18.779 18.775 10.371 0 18.78-8.405 18.78-18.775l-.005-105.793 47.654-49.194c7.217-7.447 7.03-19.334-.424-26.553a18.716 18.716 0 00-13.064-5.289 18.706 18.706 0 00-13.486 5.712z"/><glyph unicode="" d="M368.631 380.329l-43.018 14.093c-4.054-10.667-10.809-19.829-19.147-26.833-13.506-11.443-31.147-17.844-49.951-17.85-18.787.005-36.413 6.417-49.886 17.814-8.372 7.022-15.126 16.201-19.195 26.869l-43.002-14.093-77.078-67.022 30.673-41.5h49.509V51.753h217.992v220.053l49.476.011 30.705 41.489-77.078 67.023z"/><glyph unicode="" d="M252.263 249.037H92.58v-51.146h159.683v-48.007l89.16 73.576-89.16 73.582v-48.005zm116.712 83.06V117.28h51.18v214.817h-51.18zM157.459 224.691"/><glyph unicode="" d="M422.444 196.3v95.826c0 13.828-11.21 25.039-25.038 25.039h-282.47c-13.828 0-25.038-11.211-25.038-25.039V196.3h-52.06v-65.401h436.664V196.3h-52.058z"/><glyph unicode="" d="M137.991 397.691l-29.203-29.205-29.204 29.205-26.363-26.361 29.206-29.205-29.206-29.205 26.363-26.361 29.204 29.203 29.203-29.203 26.364 26.361-29.206 29.205 29.206 29.205zm0-236.113l-29.203-29.205-29.204 29.205-26.363-26.363 29.206-29.207-29.206-29.205 26.363-26.362 29.204 29.204 29.203-29.204 26.364 26.362-29.206 29.205 29.206 29.207zm320.788 98.93l-26.361 26.365-29.206-29.205-29.206 29.205-26.363-26.365 29.206-29.203-29.206-29.205 26.363-26.364 29.206 29.207 29.206-29.207 26.361 26.364-29.204 29.205zM323.469 145.52c-35.204 0-63.744-28.539-63.744-63.742 0-35.207 28.54-63.75 63.744-63.75 35.207 0 63.746 28.543 63.746 63.75 0 35.202-28.539 63.742-63.746 63.742zm0-90.206c-14.59 0-26.461 11.867-26.461 26.463 0 14.59 11.871 26.461 26.461 26.461 14.592 0 26.463-11.871 26.463-26.461 0-14.595-11.87-26.463-26.463-26.463zm-99.629 186.45l112.612 112.613 28.023-28.021 21.212 103.617-103.62-21.213 28.022-28.023-125.792-125.788c-7.28-7.285-7.28-19.086 0-26.367l71.525-71.521 26.361 26.359-58.343 58.344z"/><glyph unicode="" d="M396.022 395.967l-108.391-.003L84.305 193.696 224.947 53.05l199.867 199.87v114.252l-28.792 28.795zm-7.9-77.728c-11.337-11.339-29.72-11.339-41.058 0-11.34 11.334-11.34 29.718 0 41.055 11.336 11.344 29.721 11.344 41.058.004 11.337-11.341 11.338-29.724 0-41.059z"/><glyph unicode="" d="M411.412 353.621H303.02L99.692 151.353 240.337 10.704l199.869 199.87v114.255l-28.794 28.792zm-7.901-77.725c-11.336-11.338-29.72-11.338-41.058 0-11.34 11.337-11.34 29.72 0 41.054 11.338 11.344 29.722 11.344 41.058.004 11.337-11.339 11.338-29.722 0-41.058zm-116.275 93.589l6.549 6.518h117.629v31.921l-28.793 28.796-108.392-.006L70.903 234.446l40.187-40.189z"/><glyph unicode="" d="M368.255 349.423h-3.824l-17.005 40.696H165.178l-17.004-40.696h-3.86c-6.865 0-12.458-5.592-12.458-12.464 0-6.896 5.593-12.49 12.458-12.49h223.941c6.902 0 12.493 5.594 12.493 12.49 0 6.872-5.591 12.464-12.493 12.464zm-49.574.88h-15.107a12.037 12.037 0 00-12.067 12.07c0 6.668 5.396 12.096 12.067 12.096h15.107c6.668 0 12.067-5.428 12.067-12.096a12.04 12.04 0 00-12.067-12.07zM175.513 58.832h161.578l23.969 242.023H151.542l23.971-242.023z"/><glyph unicode="" d="M323.389 223.484c0-37.027-30.018-67.046-67.042-67.046-37.026 0-67.044 30.019-67.044 67.046 0 37.025 30.018 67.038 67.044 67.038 37.024 0 67.042-30.012 67.042-67.038zm-251.846 0c.017 102.078 82.727 184.781 184.802 184.806 102.074-.025 184.781-82.729 184.804-184.806-.022-102.073-82.729-184.779-184.804-184.8-102.075.021-184.785 82.727-184.802 184.8zm96.186 88.61c-22.726-22.771-36.689-53.906-36.705-88.609.016-34.698 13.979-65.839 36.705-88.612 22.775-22.721 53.914-36.683 88.615-36.7 34.7.018 65.839 13.979 88.616 36.7 22.725 22.773 36.688 53.914 36.705 88.612-.018 34.703-13.986 65.838-36.705 88.609-22.777 22.728-53.916 36.695-88.616 36.707-34.701-.012-65.839-13.98-88.615-36.707z"/><glyph unicode="" d="M256.39 420.202c-108.323 0-196.144-87.821-196.144-196.165 0-108.324 87.821-196.157 196.144-196.157 108.338 0 196.145 87.833 196.145 196.157 0 108.344-87.806 196.165-196.145 196.165zm3.434-339.149c-21.666 0-39.243 17.593-39.243 39.275 0 16.937 10.726 31.296 25.753 36.82v111.94h24.935V157.867c16.089-4.87 27.813-19.847 27.813-37.539 0-21.682-17.576-39.275-39.258-39.275zm99.381 148.12c-.492 27.78-11.871 52.768-30.119 71.075-18.754 18.674-44.393 30.186-72.942 30.186v25.15c-.13 0-.276.015-.405.015-34.943-.015-66.452-14.14-89.375-37.035-22.91-22.894-37.053-54.433-37.053-89.391h-22.727c.015 82.392 66.775 149.168 149.154 149.168 79.855 0 145.03-62.704 148.985-141.612.164-2.488.245-4.987.296-7.556h-45.814z"/><glyph unicode="" d="M326.578 220.347v136.646c0 38.717-31.493 70.213-70.21 70.213-38.703 0-70.179-31.496-70.179-70.213V220.347c-26.375-21.109-42.152-53.285-42.152-87.687 0-61.952 50.395-112.35 112.331-112.35 61.935 0 112.33 50.397 112.33 112.35-.001 34.402-15.764 66.577-42.12 87.687zm-70.21-169.374c-45.112 0-81.672 36.561-81.672 81.688 0 30.758 17.02 57.554 42.133 71.485v152.847c0 21.844 17.708 39.551 39.539 39.551 21.843 0 39.537-17.707 39.537-39.551V204.114c25.129-13.933 42.133-40.695 42.133-71.453-.001-45.128-36.542-81.688-81.67-81.688zm15.303 132.212v100.836c0 8.472-6.833 15.32-15.303 15.32-8.471 0-15.337-6.849-15.337-15.32V183.185c-21.68-6.576-37.478-26.702-37.478-50.524 0-29.173 23.643-52.816 52.815-52.816 29.169 0 52.796 23.644 52.796 52.816 0 23.821-15.78 43.947-37.493 50.524z"/><glyph unicode="" d="M425.286 324.206H87.838V85.414h337.448v238.792zm-230.703-74.771l-72.7-30.599v20.195l55.191 19.644-55.191 19.828v19.645l72.7-30.848v-17.865zm90.563-27.349h-68.578v16.568h68.578v-16.568zM37.761 412.445V35.338h436.664v377.107H37.761zM450.325 60.376H62.798v288.868h387.527V60.376z"/><glyph unicode="" d="M272.366 380.487c-26.162 91.959-3.893 28.323-120.474-4.865-116.547-33.174-131.33 33.281-104.971-59.31 17.625-61.947 86.071-184.552 167.76-161.3 81.72 23.247 75.311 163.522 57.685 225.475zm-155.822-83.255c-14.587-1.882-26.098-9.75-28.845-18.855-1.046 1.717-1.732 3.566-1.962 5.535-1.47 11.381 11.677 22.434 29.368 24.704 17.693 2.267 33.192-5.128 34.63-16.48.293-1.976.099-3.939-.492-5.863-4.937 8.112-18.084 12.823-32.699 10.959zm87.345-97.601c-24.528-6.998-47.091-3.336-54.056 21.077l88.622 26.195c6.933-24.405-10.04-40.289-34.566-47.272zm20.732 128.351c-13.407-6.095-22.107-17.021-22.04-26.512-1.471 1.327-2.715 2.89-3.499 4.7-4.775 10.437 4.545 24.88 20.8 32.247 16.218 7.389 33.222 4.922 37.964-5.503.82-1.822 1.21-3.753 1.21-5.762-7.095 6.296-21.026 6.931-34.435.83zm134.861-107.717c-24.297 8.43-42.25 17.882-55.753 26.701-4.614-30.377-13.345-53.044-24.104-69.974a50.065 50.065 0 019.778-1.886c14.685-1.293 27.603 3.94 32.244 12.21.653-1.858.917-3.834.72-5.809-1.013-11.425-16.221-19.408-34.01-17.814-5.625.487-10.824 1.912-15.273 3.955-15.401-19.749-33.714-29.826-50.032-34.811-.916-55.902 13.245-112.614 61.25-129.292 80.282-27.831 155.529 90.703 176.62 151.556 31.363 90.343 13.082 25.44-101.44 65.164zm-8.794-171.894l-87.606 29.363c8.339 23.987 31.358 27.266 55.46 18.901 24.099-8.37 40.45-24.278 32.146-48.264zm68.932 76.734c-6.899-9.167-24.001-7.917-38.261 2.804-14.225 10.716-20.207 26.839-13.339 36.002a14.173 14.173 0 004.478 3.828c-2.156-9.264 3.99-21.795 15.729-30.651 11.807-8.851 25.54-11.259 33.814-6.653-.424-1.946-1.209-3.755-2.421-5.33z"/><glyph unicode="" d="M471.68 79.465c-.098 3.891-2.715 8.992-5.821 11.364 0 0-25.409 19.57-45.324 27.973-21.843 9.22-61.413 26.1-61.413 26.1-3.564 1.536-9.321 3.526-12.721 4.462-1.83.493-5.823 2.072-9.517 3.877-29.957-11.514-59.093-15.422-84.666-15.422-37.313.029-67.104 8.188-81.624 13.112-3.89-1.094-15.041-4.562-18.474-6.029 0 0-39.54-16.88-61.415-26.1C70.823 110.4 45.38 90.829 45.38 90.829c-3.071-2.372-5.723-7.474-5.821-11.364l-.622-52.096c-.096-3.89 3.043-7.047 6.935-7.047H465.4c3.856 0 6.964 3.157 6.934 7.047l-.654 52.096zM167.816 284.764s1.108-34.369 12.62-41.566c1.079-.689 2.979-9.027 2.879-8.451 1.145-11.886 9.059-22.318 9.059-22.318.359-3.893-.948-9.779-2.877-13.178l-9.747-16.907a10.458 10.458 0 01-9.581-6.349c-2.353-5.328.099-11.537 5.428-13.894.852-.312 33.488-14.507 79.433-14.538h.066c24.724 0 53.337 4.188 82.507 17.09 5.364 2.354 7.749 8.615 5.396 13.945-1.861 4.172-6.08 6.521-10.398 6.227-4.611 7.426-10.563 15.127-10.563 15.127-2.353 3.055-3.236 8.555-1.961 12.247l8.666 24.724c1.273 3.66 2.451 7.162 2.519 7.701.096.57.882 1.616 1.697 2.305l.592.814c3.138 4.418 5.231 12.117 6.213 17.516 1.47 7.947.981 20.061.981 20.061-.133 3.892.325 10.203 1.078 14.033l2.551 13.337c.751 3.793.884 10.075.325 13.9l-10.233 50.44c-.295 1.917-9.551 52.029-81.329 52.029-71.78 0-83.455-50.112-83.652-52.076l-7.52-65.93c-.326-3.855.783-9.774 2.484-13.143 1.699-3.355 3.2-9.269 3.367-13.146zm130.216 30.166c11.643 0 21.126-9.484 21.126-21.157 0-11.69-9.483-21.139-21.126-21.139-11.708 0-35.09 9.448-35.09 21.139 0 11.672 23.382 21.157 35.09 21.157zm-44.046-68.691c7.423 0 13.439-4.608 13.439-10.333 0-5.721-6.017-10.332-13.439-10.332-7.394 0-13.41 4.611-13.41 10.332 0 5.725 6.017 10.333 13.41 10.333zm-45.72 68.691c11.643 0 35.027-9.484 35.027-21.157 0-11.69-23.385-21.139-35.027-21.139-11.705 0-21.188 9.448-21.188 21.139 0 11.672 9.483 21.157 21.188 21.157z"/><glyph unicode="" d="M267.179 87.051c-1.756 15.215-17.393 25.909-34.934 23.89-17.537-2.023-30.33-16.001-28.578-31.213 1.756-15.217 17.396-25.912 34.936-23.886 17.537 2.018 30.33 15.995 28.576 31.209zm4.136-32.179c-8.928-3.498-13.697-12.612-10.664-20.351 3.037-7.747 12.73-11.186 21.654-7.685 8.924 3.498 13.697 12.612 10.664 20.352-3.038 7.743-12.732 11.183-21.654 7.684zm171.842 242.846c-9.924 26.373-30.6 47.198-56.51 57.506a68.536 68.536 0 01-3.555 13.429c-9.979 26.521-35.719 44.339-64.047 44.339a68.135 68.135 0 01-24.086-4.398 68.437 68.437 0 01-15.332-8.112c-14.807 14.041-34.523 22.049-55.537 22.052-9.715 0-19.287-1.747-28.447-5.194-22.584-8.498-39.711-26.091-47.625-48.301a99.658 99.658 0 01-20.945-5.386c-24.916-9.374-44.689-27.891-55.678-52.136-10.99-24.245-11.879-51.319-2.506-76.233 10.172-27.038 31.549-48.174 58.312-58.214a69.029 69.029 0 012.389-7.71c9.984-26.527 35.723-44.347 64.051-44.347a68.178 68.178 0 0124.086 4.396 68.53 68.53 0 0113.918 7.124c13.051-8.539 28.314-13.129 44.188-13.129 9.715 0 19.287 1.748 28.447 5.193 17.293 6.507 31.756 18.754 41.072 34.464a99.079 99.079 0 014.588-.106c11.973 0 23.76 2.15 35.033 6.393 51.434 19.35 77.538 76.936 58.184 128.37z"/><glyph unicode="" d="M401.858 272.948c0 18.415-3.433 33.365-21.861 33.365h-.138c13.774 2.35 16.537 15.661 16.537 31.804 0 17.775-3.312 32.195-21.104 32.195h-15.285c12.057 3.413 14.562 16.354 14.562 31.854 0 18.089-3.373 32.758-21.458 32.758H198.813c-50.815 0-92.016-41.194-92.016-92.017v-98.203c0-36.04 19.936-64.626 51.273-76.835 24.394-16.037 73.521-54.229 83.988-107.306V20.519s68.626-7.453 68.626 57.061c0 75.979-47.833 88.326-9.752 90.177h56.8c20.065 0 23.791 16.267 23.791 36.337 0 17.426-2.824 31.959-16.699 35.49h15.173c18.429 0 21.861 14.934 21.861 33.364z"/><glyph unicode="" d="M261.992 240.246c0-16.044 2.982-29.038 19.029-29.038h88.588c16.043 0 19.022 12.994 19.022 29.038 0 16.046-2.979 29.05-19.022 29.05h-88.588c-16.046 0-19.029-13.004-19.029-29.05zM245.909 171.4c0-16.035 2.988-29.05 19.017-29.05H383.48c16.047 0 19.035 13.015 19.035 29.05 0 16.043-2.988 29.047-19.035 29.047H264.926c-16.029 0-19.017-13.004-19.017-29.047zm15.864-69.9c0-16.033 2.988-29.036 19.014-29.036h93.52c16.043 0 19.034 13.003 19.034 29.036 0 16.054-2.991 29.05-19.034 29.05h-93.52c-16.025 0-19.014-12.996-19.014-29.05zm15.435-71.36c0-16.035 2.988-29.039 19.021-29.039H349.5c16.034 0 19.027 13.004 19.027 29.039 0 16.053-2.993 29.05-19.027 29.05h-53.271c-16.033-.001-19.021-12.998-19.021-29.05zm-7.389-25.459c-3.258 6.221-4.71 14.074-4.71 25.459 0 11.392 1.452 19.251 4.71 25.47a27.12 27.12 0 004.749 6.54c-11.305 1.479-17.19 8.165-20.19 13.895-3.256 6.222-4.703 14.071-4.703 25.456 0 11.394 1.447 19.248 4.703 25.473a28.095 28.095 0 003.501 5.185c-10.767 1.689-16.441 8.195-19.365 13.781-3.257 6.222-4.709 14.076-4.709 25.462 0 11.388 1.452 19.243 4.709 25.466 2.874 5.486 8.411 11.852 18.818 13.677a28.043 28.043 0 00-2.732 4.238c-3.257 6.22-4.71 14.074-4.71 25.465 0 11.393 1.453 19.246 4.71 25.468 3.394 6.479 10.475 14.206 24.944 14.206h18.061c1.859 13.459 39.114 42.243 39.114 101.103 0 64.51-68.624 57.057-68.624 57.057v-40.044c-12.038-44.633-91.93-113.537-114.558-132.355-26.783-13.676-43.424-40.396-43.424-73.333V94.149c0-50.822 41.199-92.019 92.015-92.019h69.2a27.721 27.721 0 00-1.509 2.551z"/><glyph unicode="" d="M260.584 338.621v51.362h161.574v-51.362H260.584zm0-78.326v51.362h161.574v-51.362H260.584zm0-122.799v51.367h161.574v-51.367H260.584zm0-78.32v51.363h161.574V59.176H260.584zM87.979 388.72h128.868V259.85H87.979zm0-200.309h128.868V59.541H87.979z"/><glyph unicode="" d="M57.012 310.11h112.223v112.223H57.012V310.11zm141.888 0h112.223v112.223H198.9V310.11zm141.89 112.223V310.11h112.218v112.223H340.79zM57.012 168.864h112.223V281.09H57.012V168.864zm141.888 0h112.223V281.09H198.9V168.864zm141.89 0h112.218V281.09H340.79V168.864zM57.012 27.62h112.223v112.224H57.012V27.62zm141.888 0h112.223v112.224H198.9V27.62zm141.89 0h112.218v112.224H340.79V27.62z"/><glyph unicode="" d="M87.898 388.72h128.868V259.85H87.898zm204.066 0h128.87V259.85h-128.87zM87.898 188.411h128.868V59.541H87.898zm204.066 0h128.87V59.541h-128.87z"/><glyph unicode="" d="M473.307 289.824v13.668c-21.581 2.176-36.07 19.555-37.802 41.239H76.078c-1.699-21.685-16.218-39.063-37.802-41.239v-9.972c6.899 0 9.974-5.591 9.974-12.479 0-6.912-3.074-12.49-9.974-12.49v-12.1c6.899 0 9.974-5.607 9.974-12.494 0-6.896-3.074-12.488-9.974-12.488v-11.904c6.899 0 9.974-5.609 9.974-12.495 0-6.896-3.074-12.489-9.974-12.489v-11.903c6.899 0 9.974-5.593 9.974-12.494 0-6.883-3.074-12.491-9.974-12.491v-13.684c21.584-2.16 36.103-19.539 37.802-41.239h359.427c1.731 21.7 16.221 39.079 37.802 41.239v9.987c-6.899 0-9.975 5.594-9.975 12.494 0 6.882 3.075 12.49 9.975 12.49v12.083c-6.899 0-9.975 5.593-9.975 12.495 0 6.896 3.075 12.49 9.975 12.49v11.902c-6.899 0-9.975 5.592-9.975 12.494 0 6.898 3.075 12.491 9.975 12.491v11.919c-6.899 0-9.975 5.593-9.975 12.49 0 6.887 3.075 12.48 9.975 12.48zm-356.743-135.68H91.482V293.39h25.082V154.144zm158.278 4.382h-28.025v89.65h-34.762v21.141c4.87-.127 9.58.233 14.126 1.083 4.513.85 8.634 2.348 12.23 4.54a29.72 29.72 0 019.189 8.588c2.484 3.548 4.152 7.947 4.938 13.23h22.303V158.526zm145.26-4.382h-25.05V293.39h25.05V154.144z"/><glyph unicode="" d="M203.447 277.069l-54.568 54.566c27.503 27.173 65.183 43.913 106.927 43.913 42.13-.014 79.972-16.983 107.622-44.577 27.594-27.648 44.561-65.492 44.578-107.629h66.177c-.024 120.624-97.761 218.361-218.376 218.386-59.897 0-114.277-24.203-153.724-63.295l-50.36 50.36.003-151.725h151.721zM363.991 116.33c-27.605-27.918-65.809-45.184-108.183-45.176-42.139.008-79.978 16.981-107.623 44.574-27.601 27.645-44.565 65.482-44.582 107.614H37.436C37.453 102.728 135.187 4.995 255.809 4.968c60.54.008 115.433 24.73 154.979 64.562l48.997-49v148.047H311.742l52.249-52.247z"/><glyph unicode="" d="M368.49 384.396l-51.635 16.922c-3.596-9.144-9.45-16.99-16.58-23.022-11.903-10.022-27.371-15.646-43.885-15.663-16.515.017-31.982 5.64-43.788 15.632-7.194 6.063-13.047 13.909-16.643 23.053l-51.64-16.922L42.293 142.839l40.648-41.498 64.487 149.598V46.932h217.957v204.006L429.84 101.34l40.648 41.498L368.49 384.396z"/><glyph unicode="" d="M256.175 336.344c-61.939 0-112.299-50.391-112.299-112.312 0-61.92 50.36-112.302 112.299-112.302 61.905 0 112.28 50.382 112.28 112.302 0 61.921-50.375 112.312-112.28 112.312zm0-193.969c-45.114 0-81.656 36.561-81.656 81.656s36.542 81.639 81.656 81.639c45.078 0 81.621-36.543 81.621-81.639s-36.543-81.656-81.621-81.656zm-.035-51.521c-12.166 0-22.009-9.86-22.009-22.028V37.057c0-12.162 9.844-22.023 22.009-22.023 12.199 0 22.042 9.861 22.042 22.023v31.769c0 12.167-9.843 22.028-22.042 22.028zm0 266.356c12.165 0 22.042 9.875 22.042 22.038v31.77c0 12.147-9.877 22.022-22.042 22.022-12.131 0-22.009-9.875-22.009-22.022v-31.77c0-12.163 9.878-22.038 22.009-22.038zm109.764-45.46c5.623 0 11.282 2.144 15.581 6.442l22.467 22.466c8.599 8.603 8.599 22.55 0 31.169-8.633 8.597-22.563 8.597-31.164 0l-22.466-22.473c-8.6-8.582-8.6-22.543 0-31.163a22 22 0 0115.582-6.441zM130.83 129.85l-22.467-22.451c-8.604-8.601-8.604-22.549 0-31.146a21.982 21.982 0 0115.566-6.476 21.967 21.967 0 0115.582 6.476l22.481 22.464c8.584 8.582 8.584 22.544 0 31.133-8.6 8.619-22.564 8.619-31.162 0zm312.297 116.219h-31.751c-12.164 0-22.042-9.875-22.042-22.038 0-12.167 9.878-22.026 22.042-22.026h31.751c12.166 0 22.043 9.859 22.043 22.012 0 12.177-9.877 22.037-22.043 22.052zM122.98 224.017c0 12.178-9.86 22.037-22.044 22.053H69.184c-12.164 0-22.023-9.875-22.023-22.038 0-12.167 9.859-22.026 22.023-22.026h31.752c12.184-.001 22.044 9.858 22.044 22.011zm258.521-94.167c-8.614 8.635-22.562 8.635-31.163.016-8.615-8.604-8.615-22.55-.016-31.148l22.466-22.464c4.317-4.301 9.942-6.476 15.597-6.476a21.917 21.917 0 0115.551 6.458c8.615 8.614 8.615 22.562.017 31.163l-22.452 22.451zM130.83 318.192a21.95 21.95 0 0115.564-6.442 22.011 22.011 0 0115.599 6.442c8.584 8.62 8.584 22.566 0 31.163l-22.466 22.473c-8.602 8.597-22.531 8.597-31.147 0-8.62-8.619-8.62-22.566 0-31.169l22.45-22.467z"/><glyph unicode="" d="M146.435 284.859c6.213 17.369 13.604 31.495 23.118 42.387 9.32 10.756 22.012 18.604 36.234 18.572 14.225.031 26.914-7.816 36.236-18.572 9.515-10.892 16.903-25.018 23.119-42.402L300 186.721c4.709-13.305 9.976-22.231 13.965-26.747 4.218-4.595 5.918-4.416 6.082-4.448.131.032 1.83-.146 6.017 4.448 4.022 4.516 9.288 13.442 13.998 26.747l34.859 98.139c9.842 27.504 26.49 51.902 46.858 71.945-38.845 48.642-98.593 79.855-165.695 79.855-117.039 0-211.939-94.898-211.939-211.969 0-37.902 10.006-73.447 27.438-104.254 16.316 17.41 31.13 41.124 39.992 66.283l34.86 98.139zm299.94 33.261c-14.456-15.173-25.901-32.802-32.146-50.591l-34.864-98.104c-6.211-17.36-13.599-31.489-23.085-42.38-9.317-10.748-22.009-18.609-36.232-18.579-14.257-.03-26.946 7.817-36.267 18.579-9.518 10.891-16.908 25.02-23.119 42.38l-34.828 98.104c-4.742 13.342-10.007 22.268-13.998 26.784-4.186 4.577-5.885 4.416-6.049 4.444-.16-.028-1.862.133-6.049-4.444-4.023-4.493-9.287-13.442-13.998-26.784l-34.823-98.104c-11.938-33.485-30.938-63.278-52.915-85.876 38.818-43.443 95.264-70.832 158.082-70.832 117.07 0 211.97 94.915 211.97 211.975 0 33.519-7.813 65.22-21.679 93.428z"/><glyph unicode="" d="M60.328 53.207h391.343V24.098H60.328zm402.081 241.854c-.042 8.307-70.976 128.842-70.976 128.842H120.567s-71.042-120.58-71.042-128.992c0-16.285 13.205-29.492 29.493-29.492 16.288 0 29.493 13.207 29.493 29.492 0-16.285 13.204-29.492 29.492-29.492 16.286 0 29.492 13.207 29.492 29.492 0-16.285 13.204-29.492 29.491-29.492 16.289 0 29.493 13.207 29.493 29.492 0-16.285 13.203-29.492 29.492-29.492s29.493 13.207 29.493 29.492c0-16.285 13.204-29.492 29.492-29.492 16.287 0 29.493 13.207 29.493 29.492 0-16.285 13.204-29.492 29.492-29.492s29.492 13.207 29.492 29.492c0-16.285 13.204-29.492 29.493-29.492 16.288 0 29.492 13.207 29.492 29.492h.058l-.067.15zm-29.52-210.235v156.916a52.872 52.872 0 00-29.457 8.943c-8.445-5.65-18.591-8.945-29.492-8.945s-21.047 3.295-29.492 8.945a52.866 52.866 0 00-29.493-8.945 52.865 52.865 0 00-29.492 8.945c-8.445-5.65-18.591-8.945-29.493-8.945s-21.047 3.295-29.492 8.945c-8.446-5.65-18.591-8.945-29.493-8.945s-21.046 3.295-29.491 8.945c-8.445-5.65-18.59-8.945-29.492-8.945s-21.047 3.295-29.492 8.945a52.861 52.861 0 00-29.4-8.943V84.826h213.294v124.531h94.716V84.826h45.769zM249.044 129.35H122.978v80.508h126.066V129.35z"/><glyph unicode="" d="M87.412 392.441h334.271V56.294H87.412z"/><glyph unicode="" d="M388.45 243.248c-12.509 6.719-28.093 2.024-34.829-10.467l-36.202-66.758v213.314c0 11.295-9.123 20.453-20.452 20.453-11.299 0-20.457-9.157-20.457-20.453V227.975c0-4.267-3.465-7.736-7.75-7.736-4.281 0-7.749 3.469-7.749 7.736v191.941c0 11.318-9.158 20.475-20.474 20.475-11.28 0-20.469-9.157-20.469-20.475V224.264a7.73 7.73 0 00-7.734-7.735c-4.268 0-7.769 3.452-7.769 7.735v157.475c0 11.312-9.138 20.468-20.437 20.468-11.316 0-20.472-9.156-20.472-20.468V224.263a7.747 7.747 0 00-7.75-7.752 7.747 7.747 0 00-7.75 7.752V328.29c0 11.313-9.155 20.47-20.472 20.47-11.281 0-20.453-9.157-20.453-20.47V92.216c0-7.245 3.876-17.628 8.65-23.087l44.799-51.426c4.743-5.426 14.571-9.926 21.831-9.926h100.738c7.259 0 16.007 5.233 19.456 11.593l96.21 189.065c6.704 12.491 2.027 28.074-10.465 34.813z"/><glyph unicode="" d="M169.763 14.549L47.189 137.125v173.344l122.574 122.577h173.346l122.579-122.577V137.125L343.109 14.549z"/><glyph unicode="" d="M153.638 326.362h204.725V121.637H153.638zM385.554 44.351c0-2.915 3.021-5.379 6.602-5.379h41.705c3.58 0 6.604 3.024 6.604 6.604v41.697c0 3.89-2.537 6.602-4.818 6.602-13.682 0-24.811 11.248-24.811 25.074 0 13.825 11.129 25.072 24.811 25.072 1.42 0 2.492.963 3.002 1.537 1.152 1.291 1.812 3.137 1.812 5.065v41.7c0 3.89-2.537 6.604-4.816 6.604-13.68 0-24.809 11.245-24.809 25.07 0 13.824 11.129 25.071 24.811 25.071 2.281 0 4.818 2.711 4.818 6.603v41.701c0 3.892-2.537 6.603-4.818 6.603-13.682 0-24.811 11.248-24.811 25.072 0 13.825 11.129 25.072 24.811 25.072 2.281 0 4.818 2.712 4.818 6.604v41.703c0 3.579-3.023 6.603-6.604 6.603h-41.705c-3.58 0-6.602-2.547-6.602-5.562 0-14.094-11.162-25.561-24.883-25.561s-24.883 11.467-24.883 25.561c0 3.015-3.021 5.562-6.6 5.562h-41.705c-3.576 0-6.604-2.547-6.604-5.562 0-14.094-11.162-25.561-24.881-25.561-13.723 0-24.881 11.467-24.885 25.56 0 3.016-3.025 5.562-6.605 5.562h-41.697c-3.578 0-6.602-2.547-6.602-5.562 0-14.094-11.162-25.561-24.885-25.561-13.721 0-24.883 11.467-24.883 25.561 0 3.015-3.021 5.562-6.602 5.562H78.14c-3.58 0-6.604-3.023-6.604-6.603v-41.702c0-3.58 2.547-6.604 5.561-6.604 14.092 0 25.557-11.247 25.557-25.072 0-13.824-11.465-25.072-25.557-25.072-3.014 0-5.561-3.023-5.561-6.603v-41.699c0-3.58 2.547-6.604 5.561-6.604 14.094-.002 25.557-11.249 25.557-25.071 0-13.825-11.465-25.07-25.557-25.07-3.014 0-5.561-3.025-5.561-6.604v-41.698c0-3.58 2.547-6.604 5.561-6.604 14.092 0 25.557-11.247 25.557-25.072 0-13.826-11.465-25.074-25.557-25.074-3.014 0-5.561-3.022-5.561-6.602V45.577c0-3.58 3.023-6.604 6.604-6.604h41.701c3.58 0 6.602 2.464 6.602 5.379 0 13.991 11.162 25.374 24.883 25.374 13.723 0 24.885-11.383 24.885-25.374 0-2.915 3.023-5.379 6.602-5.379h41.701c3.58 0 6.604 2.464 6.604 5.379 0 13.991 11.16 25.374 24.883 25.374 13.719 0 24.881-11.383 24.881-25.374 0-2.915 3.027-5.379 6.604-5.379h41.705c3.578 0 6.6 2.464 6.6 5.379 0 13.991 11.162 25.374 24.883 25.374s24.88-11.384 24.88-25.375zM129.958 97.959v252.084h252.084V97.959H129.958z"/><glyph unicode="" d="M36.571 210.314V125.07h11.836l-.016-.053h415.982l-.018.053h11.854v85.244H36.571zm55.968-62.086H67.637v33.657h24.902v-33.657zm60.988 0h-24.919v33.661h24.919v-33.661zm60.974 0h-24.919v33.661h24.919v-33.661zm212.036-1.392c-10.842 0-19.652 8.797-19.652 19.645 0 10.857 8.811 19.67 19.652 19.67 10.857 0 19.654-8.812 19.654-19.67 0-10.848-8.796-19.645-19.654-19.645zm-39.209 291.201H125.372l-76.98-197.079h415.982l-77.046 197.079zM36.571 9.113H476.21v85.254H36.571V9.113zm389.966 61.076c10.857 0 19.654-8.793 19.654-19.635 0-10.868-8.797-19.662-19.654-19.662-10.842 0-19.652 8.794-19.652 19.662 0 10.842 8.81 19.635 19.652 19.635zm-236.955-4.24h24.919V32.265h-24.919v33.684zm-60.974 0h24.919V32.265h-24.919v33.684zm-60.971 0h24.902V32.265H67.637v33.684z"/><glyph unicode="" d="M391.744 367.454c-2.849 7.245-11.481 13.144-19.297 13.144H138.762c-7.752 0-16.449-5.898-19.26-13.144l-77.57-198.531h427.41l-77.598 198.531zM35.85 138.266V81.77c0-7.765 6.344-14.127 14.129-14.127H180.49v24.055h24.95V67.643h20.079v24.055h24.953V67.643h20.074v24.055h24.92V67.643h20.082v24.055H340.5V67.643h120.832c7.752 0 14.125 6.362 14.125 14.127v56.496H35.85z"/><glyph unicode="" d="M166.792 61.687c-28.153 0-51.056 22.903-51.056 51.055v222.517c0 4.648-3.783 8.432-8.432 8.432-4.65 0-8.434-3.783-8.434-8.432v-126.3H56.249v126.3c0 28.149 22.904 51.055 51.057 51.055 28.15 0 51.054-22.905 51.054-51.055V112.741c0-4.649 3.782-8.433 8.434-8.433 4.648 0 8.433 3.783 8.433 8.433v200.328c0 28.151 22.902 51.055 51.055 51.055 28.151 0 51.055-22.903 51.055-51.055V136.145c0-4.649 3.783-8.433 8.433-8.433s8.433 3.783 8.433 8.433v154.32h-.045c0 28.15 22.903 51.056 51.055 51.056s51.055-22.905 51.055-51.056V156.704c0-4.651 3.783-8.432 8.433-8.432s8.433 3.78 8.433 8.432v65.702h42.622v-65.702c0-28.152-22.903-51.055-51.055-51.055s-51.056 22.902-51.056 51.055v133.762c0 4.649-3.781 8.434-8.432 8.434-4.354 0-7.947-3.319-8.388-7.559V136.146c0-28.15-22.903-51.055-51.055-51.055-27.745 0-50.392 22.247-51.04 49.839h-.015v178.14c0 4.651-3.782 8.435-8.433 8.435s-8.434-3.783-8.434-8.435V112.742c-.002-28.152-22.904-51.055-51.056-51.055z"/><glyph unicode="" d="M252.555 118.178c-43.691 0-65.025-21.736-100.373-57.748-1.793-1.826-3.639-3.701-5.494-5.59h211.734c-1.904 1.938-3.797 3.859-5.637 5.73-35.264 35.924-56.549 57.608-100.23 57.608zM313.51 393.16c-34.564 0-62.586-28.021-62.586-62.592v-.607c0 24.131-19.562 43.693-43.695 43.693h-36.162v-34.262c0-24.131 19.561-43.693 43.689-43.693h18.855V140.613c5.941.818 12.232 1.242 18.943 1.242 6.713 0 13.004-.424 18.943-1.242V281.49h31.227c34.566 0 62.588 28.023 62.588 62.59v49.08H313.51z"/><glyph unicode="" d="M400.424 139.884v41.529c-.131 13.113-3.236 24.411-7.686 35.385-4.609 10.921-10.431 21.124-19.618 30.461l-75.247 75.261c-.492.326-3.534 4.578-5.299 9.108-1.964 4.432-2.815 9.551-2.681 10.175v80.39h-65.896v-80.39c.131-.624-.718-5.743-2.648-10.175-1.766-4.53-4.807-8.782-5.331-9.108l-75.279-75.261c-9.154-9.337-14.944-19.557-19.587-30.461-4.447-10.974-7.554-22.271-7.685-35.385v-41.529h-57l89.964-114.019 89.962 114.019h-57v41.529c-.13.604.688 5.76 2.649 10.169 1.799 4.545 4.806 8.749 5.332 9.092l69.586 69.588 69.592-69.588c.489-.343 3.562-4.547 5.33-9.092 1.927-4.463 2.777-9.565 2.646-10.169v-41.529h-58.667l89.966-114.019 89.926 114.019h-55.329z"/><glyph unicode="" d="M455.854 224.055l-81.985 64.687v-39.098H216.115l87.116 85.074c1.408 1.505 6.379 4.858 11.711 6.934 5.229 2.224 11.148 3.333 13.177 3.238h45.749v-39.128l81.985 64.669-81.985 64.663v-39.056h-45.749c-11.643-.133-22.236-2.934-32.472-7.034-10.204-4.221-19.754-9.613-28.157-17.691L153.296 259.78c-1.406-1.537-6.376-4.821-11.707-6.912-5.166-2.192-10.954-3.271-13.081-3.225H55.419v-51.162h74.953c2.059.099 7.945-1.014 13.209-3.22 5.299-2.074 10.271-5.413 11.678-6.951L269.486 76.802c8.404-8.082 17.954-13.44 28.156-17.692 10.235-4.125 20.831-6.918 32.473-6.997h43.754V12.978l81.985 64.689-81.985 64.668v-39.113h-43.754c-2.062-.063-7.946 1.047-13.179 3.238-5.33 2.06-10.302 5.431-11.706 6.935l-87.152 85.086h155.791v-39.109l81.985 64.683z"/><glyph unicode="" d="M255.79 378.081c-120.28 0-217.73-97.483-217.765-217.759.065-17.729.852-32.161 4.711-45.164 2.844-9.683 8.012-18.707 15.729-25.494 11.706-10.184 26.684-14.467 45.258-16.855C122.399 70.438 145.617 70 175.93 70c22.5 0 48.825.227 79.86.227 31.031 0 57.356-.227 79.856-.227 26.911 0 48.266.328 65.793 2.089 13.146 1.312 24.232 3.341 34.027 7.133 7.357 2.845 14.061 6.833 19.489 12.216 8.308 8.026 13.049 18.65 15.472 29.939 2.448 11.396 3.07 23.999 3.103 38.945-.032 120.276-97.5 217.759-217.74 217.759zm20.206-44.243a167.658 167.658 0 0032.213-7l-7.099-21.982a144.75 144.75 0 01-27.86 6.056l2.746 22.926zM109.35 164.426H86.229c0 11.201 1.111 22.186 3.14 32.816l22.694-4.418c-1.797-9.187-2.713-18.672-2.713-28.398zm12.754 60.119l-21.127 9.384h.032a167.515 167.515 0 0016.316 28.714l18.873-13.311c-5.463-7.781-10.203-16.052-14.094-24.787zm36.2 49.642l-15.468 17.168c8.175 7.325 17.039 13.933 26.554 19.591l11.871-19.816c-8.21-4.909-15.894-10.564-22.957-16.943zm46.14 52.651c10.336 3.332 21.092 5.721 32.212 7l2.713-22.927a145.746 145.746 0 01-27.86-6.056l-7.065 21.983zm80.118-208.149l-54.513-9.709-13.863 53.63L357.03 306.662l-72.468-187.973zm91.861 130.643l18.869 13.311a167.487 167.487 0 0016.352-28.714l-21.092-9.384a148.031 148.031 0 01-14.129 24.787zm26.882-84.906c0 9.727-.949 19.211-2.748 28.398l22.695 4.418a172.56 172.56 0 003.141-32.816h-23.088zm-159.979-34.731c9.516-6.099 22.14-3.367 28.256 6.133 6.083 9.479 3.302 22.124-6.179 28.223-9.484 6.115-22.107 3.332-28.225-6.184-6.08-9.431-3.366-22.108 6.148-28.172z"/><glyph unicode="" d="M255.999 249.124c-45.492 0-82.502-37.008-82.502-82.501 0-45.491 37.01-82.502 82.502-82.502s82.503 37.011 82.503 82.502c0 45.493-37.011 82.501-82.503 82.501zm0-117.302c-19.217 0-34.8 15.581-34.8 34.801 0 19.222 15.583 34.802 34.8 34.802 19.22 0 34.802-15.58 34.802-34.802 0-19.22-15.582-34.801-34.802-34.801zm124.91 298.924H131.087c-11.105 0-20.115-9.007-20.115-20.117V17.254h290.057v393.375c-.001 11.11-9.011 20.117-20.12 20.117zm-124.91-58.252c15.651 0 28.342-12.688 28.342-28.339 0-15.653-12.69-28.341-28.342-28.341-15.65 0-28.338 12.688-28.338 28.341 0 15.652 12.688 28.339 28.338 28.339zm0-317.451c-61.525 0-111.582 50.056-111.582 111.58s50.057 111.582 111.582 111.582c61.527 0 111.58-50.058 111.58-111.582s-50.053-111.58-111.58-111.58z"/><glyph unicode="" d="M43.602 279.743V166.647h50.839l113.564-84.29v281.68L94.441 279.743H43.602zm224.117 47.005c-6.67 6.671-17.488 6.671-24.158 0-6.671-6.671-6.671-17.48.005-24.152h-.005c21.941-21.955 32.863-50.555 32.886-79.312-.022-28.833-10.919-57.503-32.886-79.485-6.671-6.677-6.671-17.492.005-24.163a17.033 17.033 0 0112.077-4.997c4.371 0 8.746 1.665 12.081 5.003 28.579 28.583 42.903 66.207 42.885 103.643.018 37.407-14.359 74.942-42.89 103.463zm53.939 54.097c-6.672 6.668-17.486 6.668-24.159 0-6.669-6.674-6.669-17.486.005-24.158l-.005.006c36.835-36.852 55.274-84.963 55.291-133.223-.022-48.486-18.349-96.805-55.291-133.768-6.673-6.671-6.669-17.489.005-24.157a17.03 17.03 0 0112.074-5.004c4.375 0 8.748 1.67 12.085 5.004 43.572 43.578 65.308 100.86 65.286 157.925.018 56.936-21.879 113.973-65.291 157.375zm56.7 55.102c-6.679 6.671-17.493 6.671-24.161 0-6.669-6.671-6.669-17.483 0-24.155 52.05-52.071 78.095-120.128 78.111-188.341-.017-68.417-25.954-136.67-78.111-188.851-6.674-6.671-6.669-17.487 0-24.155a17.022 17.022 0 0112.079-5.006 17.04 17.04 0 0112.082 5.006c58.782 58.781 88.136 135.992 88.114 213.006.022 76.874-29.48 153.862-88.114 212.496z"/><glyph unicode="" d="M255.485 392.104s-164.85-92.901-164.85-198.3c0-46.212 37.266-83.656 83.257-83.656 28.828 0 54.222 8.082 69.133 26.133-9.893-36.531-22.615-80.119-26.979-80.119h80.969c-4.364 0-17.07 43.588-26.979 80.08 14.928-18.012 40.306-26.094 69.148-26.094 45.961 0 83.242 37.444 83.242 83.656.002 105.399-166.941 198.3-166.941 198.3z"/><glyph unicode="" d="M461.444 212.847c0 6.132-6.645 11.151-14.76 11.151-8.119 0-17.688 3.494-21.264 7.765-3.576 4.271-6.504 15.902-6.504 25.846 0 9.948-8.029 18.083-17.844 18.083s-17.846-8.135-17.846-18.083c0-9.943-4.926-18.084-10.947-18.084-6.02 0-10.945 8.539-10.945 18.973v24.824c0 10.432-8.031 18.967-17.848 18.967-9.812 0-17.844-8.535-17.844-18.967v-24.824c0-10.434-4.926-18.973-10.945-18.973s-10.945 8.539-10.945 18.973v62.815c0 10.434-8.033 18.97-17.848 18.97-9.812 0-17.844-8.536-17.844-18.97v-62.815c0-10.434-4.928-18.973-10.947-18.973-6.021 0-10.945 8.539-10.945 18.973v24.824c0 10.432-8.031 18.967-17.846 18.967-9.816 0-17.846-8.535-17.846-18.967v-24.824c0-10.434-4.928-18.973-10.947-18.973s-10.945 8.539-10.945 18.973v98.242c0 10.432-8.029 18.969-17.846 18.969-9.814 0-17.844-8.537-17.844-18.969v-98.242c0-10.434-4.928-18.973-10.949-18.973-6.02 0-10.945 8.141-10.945 18.084 0 9.948-8.031 18.083-17.846 18.083-9.816 0-17.844-8.135-17.844-18.083 0-9.943-2.518-21.574-5.592-25.846-3.074-4.271-13.143-7.765-22.377-7.765s-16.787-5.02-16.787-11.151c0-6.136 7.553-11.155 16.787-11.155s19.303-3.493 22.377-7.764c3.074-4.271 5.592-15.902 5.592-25.846 0-9.947 8.027-18.084 17.844-18.084 9.814 0 17.846 8.137 17.846 18.084 0 9.943 4.926 18.083 10.945 18.083 6.021 0 10.949-8.537 10.949-18.971V91.261c0-10.432 8.029-18.97 17.844-18.97 9.816 0 17.846 8.538 17.846 18.97v75.933c0 10.434 4.926 18.971 10.945 18.971s10.947-8.537 10.947-18.971V142.37c0-10.431 8.029-18.969 17.846-18.969 9.814 0 17.846 8.538 17.846 18.969v24.824c0 10.434 4.924 18.971 10.945 18.971 6.02 0 10.947-8.537 10.947-18.971v-62.816c0-10.432 8.031-18.968 17.844-18.968 9.814 0 17.848 8.536 17.848 18.968v62.816c0 10.434 4.926 18.971 10.945 18.971s10.945-8.537 10.945-18.971V142.37c0-10.431 8.031-18.969 17.844-18.969 9.816 0 17.848 8.538 17.848 18.969v24.824c0 10.434 4.926 18.971 10.945 18.971 6.021 0 10.947-8.14 10.947-18.083 0-9.947 8.031-18.084 17.846-18.084s17.844 8.137 17.844 18.084c0 9.943 2.928 21.574 6.504 25.846 3.576 4.271 13.145 7.764 21.264 7.764 8.116-.001 14.76 5.019 14.76 11.155z"/><glyph unicode="" d="M376.106 344.168H135.012v-44.769h241.094v44.769zM135.012 103.07h241.094v44.762H135.012V103.07zm241.094 113.512H135.012v-54.673h241.094v54.673zm0 68.746H135.012v-54.676h241.094v54.676zM122.467 78.218l-45.125-45.12h356.442l-45.118 45.12H122.467zM400.97 356.716v-266.2l45.12-45.122v356.45l-45.12-45.128zm-12.305 12.305l45.118 45.121H77.344l45.121-45.121h266.2zm-278.505-12.3l-45.121 45.12V45.397l45.121 45.121v266.203z"/><glyph unicode="" d="M316.074 150.968c.867 0 1.732-.064 2.582-.079L158.844 354.34c-10.726 13.637-26.849 20.797-42.839 20.767a54.147 54.147 0 01-33.585-11.608l-50.017-39.312L64.01 283.98l50 39.293c.622.475 1.179.654 1.995.688 1.112-.033 1.995-.438 2.601-1.209l149.168-189.865c12.997 11.278 29.955 18.065 48.3 18.081zm131.136 85.744l-112.301-88.18c18.151-4.774 33.309-16.172 43.086-31.217l100.802 79.174-31.587 40.223zM321.96 125.654c-1.978.264-3.94.374-5.886.374-24.363 0-45.421-18.228-48.397-43.014-3.206-26.751 15.874-51.05 42.641-54.287a51.47 51.47 0 015.886-.361c24.365 0 45.426 18.214 48.434 43.006 3.206 26.787-15.894 51.076-42.678 54.282zm139.376 163.084L358.21 420.022 226.93 316.896l103.139-131.281 131.267 103.123zm-113.084 65.043l37.559-47.807-22.531-17.695-37.559 47.795 22.531 17.707z"/><glyph unicode="" d="M384.793 237.494c-24.33 0-41.48 6.568-41.48 6.568l-143.608 82.246-48.171-38.409-90.158 7.669c-25.654 0-26.767-45.707-26.767-45.707v-79.222h435.945c0 .001 6.884 66.855-85.761 66.855zM220.06 286.839c-1.422-5.73-7.244-9.237-12.999-7.8-5.738 1.437-9.239 7.26-7.799 13.017 1.423 5.736 7.244 9.236 13 7.792 5.738-1.432 9.236-7.246 7.798-13.009zm40.321-22.567c-1.439-5.755-7.276-9.252-13.014-7.816-5.739 1.447-9.239 7.252-7.783 13.018 1.406 5.729 7.242 9.238 12.998 7.79 5.756-1.431 9.236-7.25 7.799-12.992zm38.719-21.69c-1.439-5.746-7.262-9.246-13.016-7.805-5.738 1.438-9.256 7.252-7.797 12.997 1.437 5.757 7.257 9.247 12.997 7.815 5.757-1.445 9.255-7.25 7.816-13.007zM34.609 152.509v-30.644h437.793v30.644H34.609z"/><glyph unicode="" d="M199.17 259.963c0 11.993 3.6 23.389 10.303 33.012H43.381v-65.881h166.025c-6.636 9.607-10.236 20.944-10.236 32.869zm173.093 33.012L306.4 227.094h162.952v65.881h-97.089zM114.834 9.111h283.064l40.844 181.026H74.022L114.834 9.111zm142.352 217.983c8.468 0 16.938 3.225 23.412 9.669l142.777 142.773c12.949 12.935 12.918 33.888 0 46.821-12.918 12.919-33.881 12.919-46.83 0L233.77 283.576c-12.918-12.918-12.918-33.889 0-46.787 6.473-6.47 14.944-9.695 23.416-9.695z"/><glyph unicode="" d="M408.991 79.996c-17.772 0-32.183-14.405-32.183-32.18 0-17.777 14.41-32.187 32.183-32.187 17.774 0 32.185 14.409 32.185 32.187 0 17.775-14.41 32.18-32.185 32.18zm-253.141 0c-17.774 0-32.18-14.405-32.18-32.18 0-17.777 14.406-32.187 32.18-32.187 17.776 0 32.186 14.409 32.186 32.187 0 17.775-14.41 32.18-32.186 32.18zm230.866 128.459l73.421 73.417v100.435h-315.22l-18.358 50.098H73.497c-13.136 0-23.789-10.647-23.789-23.79 0-13.133 10.653-23.784 23.789-23.784h19.826l64.049-174.794-34.105-105.721h309.034c13.133 0 23.781 10.649 23.781 23.784 0 13.143-10.648 23.791-23.781 23.791H188.604l18.247 56.562h179.865z"/><glyph unicode="" d="M198.664 318.415l-.005.006s-.006.065-.03.437a147.748 147.748 0 00-.216 8.293c-.066 11.91 1.413 33.954 8.334 50.872 3.407 8.498 7.999 15.48 13.565 20.059 5.634 4.538 12.123 7.381 22.623 7.475h25.036c10.6-.104 17.123-3.033 22.855-7.782 8.52-7.062 14.715-20.391 18.013-34.776 3.379-14.284 4.059-29.022 4.043-37.48 0-2.375-.045-4.256-.092-5.516-.028-.627-.046-1.106-.06-1.399-.018-.301-.023-.35-.018-.35l30.712-2.042c.016.284.238 3.735.238 9.307-.069 13.335-1.102 38.549-10.403 62.546-4.704 11.974-11.637 23.883-22.485 33.149-10.771 9.299-25.656 15.219-42.804 15.116h-25.036c-16.848.099-31.511-5.544-42.241-14.533-16.178-13.552-23.803-32.524-28.089-49.949-4.221-17.538-4.954-34.179-4.97-44.695 0-6.62.316-10.785.339-11.105l30.691 2.367zm185.701-28.729H126.94l-20.033-277.87h297.489l-20.031 277.87z"/><glyph unicode="" d="M221.72 58.421l34.662 201.949L290.98 58.421h115.094l-21.826 274.453v56.945H129.254v-47.286L106.659 58.421z"/><glyph unicode="" d="M346.724 282.21l35.438-.007v-48.204l89.522 73.886-89.522 73.885v-48.205h-56.624l-46.73-46.446 36.209-36.433 31.707 31.524zm34.905-116.331h-39.592L168.019 339.895H33.328v-51.362h113.413l174.02-174.02h60.868V66.309l89.521 73.887-89.521 73.886v-48.203zm-224.401-.002H33.331v-51.36h145.176l43.485 43.485-36.314 36.321-28.45-28.446z"/><glyph unicode="" d="M415.374 213.318a273.835 273.835 0 01-10.042 10.844 303.337 303.337 0 0110.042 10.849c41.496 47.631 38.098 78.668 27.895 96.312-7.36 12.733-23.909 27.896-60.99 27.896-14.978 0-32.212-2.503-50.788-7.2-14.386 50.281-38.651 86.499-73.871 86.499-35.189 0-59.452-36.218-73.84-86.499-18.607 4.697-35.842 7.2-50.787 7.2-37.082 0-53.63-15.163-60.99-27.896-17.593-30.482 1.639-69.61 37.938-107.161-36.299-37.543-55.53-76.656-37.938-107.159 7.36-12.725 23.908-27.896 60.99-27.896 14.945 0 32.18 2.519 50.787 7.191 14.388-50.259 38.65-86.461 73.84-86.461 35.22 0 59.485 36.202 73.871 86.461 18.576-4.673 35.811-7.191 50.788-7.191 37.081 0 53.63 15.171 60.99 27.896 10.203 17.659 13.601 48.701-27.895 96.315zm-282.382-99.29c-19.359 0-33.321 5.003-39.371 15.433-10.043 17.389 4.02 46.267 34.302 77.48 12.886-11.526 27.143-22.711 42.152-33.342 1.669-18.278 4.22-36.222 7.784-53.098-16.808-4.217-32.047-6.473-44.867-6.473zm35.09 91.981c-7.816 6.032-15.207 12.102-22.04 18.153 6.833 6.045 14.224 12.132 22.04 18.176a672.554 672.554 0 01-.263-18.164c0-6.049.099-12.117.263-18.165zm1.993 68.707c-15.01-10.599-29.267-21.795-42.152-33.321-30.282 31.223-44.345 60.07-34.302 77.464 6.05 10.47 20.012 15.439 39.371 15.439 12.82 0 28.059-2.225 44.867-6.441-3.564-16.908-6.115-34.862-7.784-53.141zm148.072 17.888a570.477 570.477 0 01-15.628 9.336c-5.267 3.058-10.565 5.969-15.894 8.812 9.188 3.793 18.149 7.162 26.814 10.071 1.834-8.961 3.404-18.391 4.708-28.219zm-60.528 120.962c20.112 0 38.032-26.634 49.936-68.459-16.057-5.281-32.831-11.92-49.936-19.834-17.07 7.914-33.846 14.553-49.936 19.834 11.936 41.826 29.858 68.459 49.936 68.459zm-55.79-92.742c8.666-2.909 17.628-6.278 26.786-10.071-5.301-2.844-10.596-5.755-15.895-8.812a558.124 558.124 0 01-15.602-9.336c1.312 9.827 2.88 19.257 4.711 28.219zm-4.71-165.11a551.484 551.484 0 0115.602-9.325c5.299-3.071 10.594-5.979 15.895-8.816-9.158-3.762-18.12-7.16-26.786-10.038-1.832 8.925-3.4 18.364-4.711 28.179zm60.5-120.953c-20.078 0-38 26.648-49.936 68.476 16.09 5.266 32.865 11.902 49.936 19.817 17.104-7.915 33.879-14.552 49.936-19.817-11.904-41.828-29.824-68.476-49.936-68.476zm55.821 92.773c-8.665 2.878-17.627 6.276-26.814 10.07a420.505 420.505 0 0115.894 8.784 619.711 619.711 0 0115.628 9.325c-1.305-9.814-2.875-19.253-4.708-28.179zm7.848 59.886a535.436 535.436 0 00-31.226-19.444c-10.893-6.28-21.717-12.067-32.443-17.295-10.693 5.228-21.519 11.015-32.441 17.295a546.668 546.668 0 00-31.195 19.421 559.028 559.028 0 000 73.521 548.16 548.16 0 0031.195 19.423 545.816 545.816 0 0032.441 17.317 526.922 526.922 0 0032.443-17.317 549.492 549.492 0 0031.226-19.423 557.175 557.175 0 001.211-36.744c0-12.571-.424-24.871-1.211-36.754zm60.99 146.878c19.361 0 33.354-4.97 39.371-15.439 10.072-17.364-4.021-46.241-34.269-77.433-12.658 11.317-26.85 22.532-42.22 33.32-1.634 18.278-4.219 36.203-7.751 53.11 16.812 4.217 32.049 6.442 44.869 6.442zm-35.122-91.96c7.849-6.044 15.239-12.131 22.074-18.176-6.835-6.052-14.226-12.121-22.074-18.153a562.757 562.757 0 010 36.329zm74.493-112.877c-6.017-10.43-20.01-15.433-39.371-15.433-12.82 0-28.058 2.256-44.868 6.474 3.532 16.876 6.117 34.787 7.751 53.098 15.37 10.797 29.562 22.01 42.22 33.307 30.247-31.209 44.341-60.057 34.268-77.446zm-164.03 125.404c-16.907 0-30.674-13.751-30.674-30.691 0-16.955 13.767-30.69 30.674-30.69 16.972 0 30.705 13.735 30.705 30.69 0 16.94-13.733 30.691-30.705 30.691z"/><glyph unicode="" d="M340.908 390.504H171.841c-13.343 0-24.167-10.826-24.167-24.167V57.634l142.417-.032 74.968 74.971v233.764c.001 13.341-10.825 24.167-24.151 24.167zm-65.582-182.281h-39.767v90.703h91.402v-39.782h-51.635v-50.921zm-93.217 90.703h35.988v-39.782h-35.988v39.782zm53.45 17.443v36.725h39.767v-36.725h-39.767zm91.402 18.215v-18.215h-34.189v36.725h15.664c10.218-.001 18.525-8.293 18.525-18.51zm-126.344 18.509h17.48v-36.725h-35.988v18.215c0 10.218 8.288 18.51 18.508 18.51zm-18.508-126.359v14.945h35.988v-33.457h-17.48c-10.22.001-18.508 8.309-18.508 18.512zm126.327-18.511h-15.664v33.472h34.189v-14.96c0-10.204-8.307-18.512-18.525-18.512z"/><glyph unicode="" d="M279.385 107.855v-.031c-.197-26.161-23.824-51.765-57.719-60.267-38.557-9.647-75.835 6.507-83.226 36.101-7.407 29.596 17.854 61.415 56.409 71.062 17.364 4.346 34.437 3.4 48.661-1.605l-.032 257.282 27.664-.084s-1.765-20.502 23.152-45.422c27.765-27.729 86.446-42.872 81.855-111.87-2.39-35.545-32.084-90.88-32.084-90.88l-10.071 10.075s7.293 16.219 13.933 64.324c6.67 48.068-68.543 57.552-68.543 57.552V107.855z"/><glyph unicode="" d="M429.595 169.514v77.616H270.554v52.116h32.259v93.627h-93.628v-93.627h32.259V247.13H82.403v-77.616H50.142V75.886h93.629v93.628h-32.26v48.512h129.933v-48.512h-32.259V75.886h93.628v93.628h-32.259v48.512h129.937v-48.512h-32.262V75.886h93.629v93.628z"/><glyph unicode="" d="M329.983 80.498c-120.081 0-217.416 97.331-217.416 217.422 0 45.978 14.272 88.622 38.636 123.741-56.591-39.248-93.658-104.678-93.658-178.765 0-120.08 97.336-217.412 217.417-217.412 74.086 0 139.522 37.064 178.765 93.656-35.123-24.367-77.766-38.642-123.744-38.642z"/><glyph unicode="" d="M262.87 408.308v36.476h-25.04v-36.476H35.939v-64.594h22.144V99.808h154.286l-93.862-76.862 15.86-19.371 117.519 96.233h.833L370.24 3.575l15.863 19.378-93.868 76.855h153.682v243.906h26.691v64.594H262.87zm158.007-283.461H83.121v218.867h337.756V124.847zm-255.558 56.386v65.084h65.084c0 35.942-29.138 65.082-65.084 65.082-35.942 0-65.079-29.139-65.079-65.082 0-35.944 29.137-65.084 65.079-65.084zm18.285-17.749c35.942 0 65.084 29.141 65.084 65.087h-65.084v-65.087zm199.057 133.627h-83.242v-25.039h83.242v25.039zm0-45.955h-83.242V226.12h83.242v25.036zm0-45.952h-83.242v-25.046h83.242v25.046z"/><glyph unicode="" d="M255.636 441.898c-120.065 0-217.417-97.352-217.417-217.431 0-120.049 97.352-217.433 217.417-217.433 120.077 0 217.416 97.384 217.416 217.433 0 120.08-97.339 217.431-217.416 217.431zm0-409.916c-106.136 0-192.482 86.367-192.482 192.485 0 106.147 86.347 192.517 192.482 192.517 106.134 0 192.499-86.369 192.499-192.517 0-106.117-86.365-192.485-192.499-192.485zm52.649 192.455c13.08 0 23.674 10.562 23.674 23.642v49.183c0 13.081-10.594 23.676-23.674 23.676s-23.692-10.595-23.692-23.676v-49.183c0-13.08 10.612-23.642 23.692-23.642zm-105.281 0c13.062 0 23.691 10.562 23.691 23.642v49.183c0 13.081-10.629 23.676-23.691 23.676-13.099 0-23.68-10.595-23.68-23.676v-49.183c0-13.08 10.581-23.642 23.68-23.642zm191.222-56.351l-25.539 25.545c-4.875 4.838-12.771 4.838-17.642 0-4.856-4.873-4.856-12.753 0-17.597l4.412-4.414c-28.663-24.688-64.208-37.055-99.854-37.055-35.533 0-70.931 12.301-99.53 36.827l4.139 4.116c4.857 4.878 4.857 12.756 0 17.664-4.873 4.837-12.771 4.837-17.66 0L117.046 167.6c-4.871-4.842-4.871-12.751 0-17.629 2.454-2.417 5.624-3.666 8.812-3.666 3.189 0 6.394 1.249 8.829 3.666l4.447 4.48c4.824-7.357 11.938-16.81 21.632-26.389 20.063-19.815 51.98-40.059 96.341-40.027h.179c44.312 0 75.525 20.274 94.854 40.223 9.253 9.452 15.94 18.868 20.503 26.193l3.958-3.988c2.418-2.418 5.605-3.633 8.81-3.633a12.45 12.45 0 018.815 3.633c4.856 4.871 4.856 12.787 0 17.623z"/><glyph unicode="" d="M256.393 441.604c-120.08 0-217.404-97.318-217.404-217.398 0-120.052 97.324-217.438 217.404-217.438s217.434 97.387 217.434 217.438c-.001 120.08-97.354 217.398-217.434 217.398zm28.972-144.657c0 13.096 10.598 23.696 23.676 23.696s23.676-10.601 23.676-23.696v-49.135c0-13.078-10.598-23.675-23.676-23.675s-23.676 10.597-23.676 23.675v49.135zm-105.299 0c0 13.096 10.596 23.696 23.674 23.696 13.082 0 23.709-10.601 23.709-23.696v-49.135c0-13.078-10.627-23.675-23.709-23.675-13.078 0-23.674 10.597-23.674 23.675v49.135zm214.915-146.746c-2.417-2.455-5.592-3.666-8.798-3.666-3.205 0-6.408 1.211-8.83 3.666l-3.956 3.971c-4.544-7.371-11.247-16.725-20.503-26.209-19.297-19.93-50.525-40.227-94.801-40.227h-.197c-44.377-.03-76.293 20.243-96.372 40.062-9.712 9.564-16.808 19.002-21.616 26.373l-4.48-4.463a12.32 12.32 0 00-8.796-3.664c-3.204 0-6.377 1.21-8.831 3.664-4.839 4.838-4.839 12.754 0 17.624l25.542 25.522a12.419 12.419 0 0017.626 0c4.871-4.852 4.871-12.771 0-17.623l-4.121-4.103c28.58-24.563 63.998-36.84 99.512-36.84 35.643 0 71.189 12.378 99.869 37.036l-4.414 4.414c-4.87 4.869-4.87 12.771 0 17.622 4.873 4.861 12.757 4.861 17.627 0l25.54-25.522c4.873-4.881 4.873-12.782-.001-17.637z"/></font>
</defs>
</svg>
