<svg version="1.1" id="Help_alt" xmlns="http://www.w3.org/2000/svg" x="0" y="0" width="435.621" height="435.035" xml:space="preserve"><path fill="#4C4C4C" d="M217.81 0c120.295 0 217.811 97.519 217.811 217.809 0 120.296-97.516 217.815-217.811 217.815C97.517 435.625 0 338.105 0 217.809 0 97.519 97.517 0 217.81 0m0 37.558c-99.393 0-180.253 80.86-180.253 180.251 0 99.396 80.86 180.257 180.253 180.257 99.391 0 180.251-80.861 180.251-180.257 0-99.391-80.86-180.251-180.251-180.251z"/><path fill="#4C4C4C" d="M160.712 95.697c14.748-9.496 32.873-14.247 54.371-14.247 28.244 0 51.714 6.748 70.399 20.25 18.686 13.497 28.029 33.496 28.029 59.995 0 16.246-4.051 29.933-12.153 41.058-4.739 6.751-13.837 15.375-27.301 25.87l-13.272 10.312c-7.23 5.627-12.032 12.188-14.396 19.688-1.497 4.748-2.311 12.123-2.435 22.121h-50.806c.745-21.123 2.741-35.718 5.979-43.779 3.24-8.062 11.591-17.34 25.048-27.839l13.648-10.686c4.484-3.373 8.1-7.062 10.843-11.062 4.982-6.876 7.478-14.438 7.478-22.688 0-9.499-2.774-18.154-8.324-25.966-5.547-7.811-15.68-11.718-30.395-11.718-14.465 0-24.725 4.812-30.77 14.437-6.048 9.627-9.069 19.622-9.069 29.999h-54.185c1.502-35.619 13.939-60.869 37.311-75.745zm31.124 210.733h56.057v54.184h-56.057V306.43z"/></svg>