<svg version="1.1" id="Layer_1" xmlns="http://www.w3.org/2000/svg" x="0" y="0" width="204.126" height="26.628" xml:space="preserve"><path d="M25.156 10.364l-2.38-.847c-.14-.404-.304-.8-.491-1.184l1.084-2.281a.999.999 0 00-.195-1.136l-2.269-2.269a1 1 0 00-1.138-.196l-2.28 1.085c-.384-.188-.78-.352-1.185-.491l-.847-2.38A.998.998 0 0014.514 0h-3.208a1 1 0 00-.942.665l-.846 2.38c-.404.139-.801.303-1.185.491L6.052 2.451a.998.998 0 00-1.137.196L2.647 4.916a.999.999 0 00-.196 1.136l1.085 2.281c-.188.385-.353.78-.491 1.185l-2.38.846c-.398.142-.665.52-.665.942v3.208c0 .424.266.801.665.942l2.379.847c.139.403.303.799.491 1.185L2.45 19.77a1 1 0 00.196 1.136l2.268 2.269c.298.299.754.375 1.136.195l2.281-1.085c.385.188.781.353 1.185.492l.846 2.379a1 1 0 00.942.665h3.208a.998.998 0 00.942-.665l.847-2.379c.404-.14.801-.304 1.185-.492l2.28 1.085a1 1 0 001.137-.195l2.268-2.269a.998.998 0 00.196-1.136l-1.084-2.281c.188-.385.353-.781.491-1.186l2.379-.846c.398-.143.665-.52.665-.941v-3.208a.996.996 0 00-.662-.944zM12.91 17.567a4.657 4.657 0 110-9.314 4.657 4.657 0 010 9.314z" fill="#fff"/><path d="M45.859 6.185L40.028.353a2.5 2.5 0 00-1.769-.732h-9.942a2.5 2.5 0 00-2.5 2.5v21.578a2.5 2.5 0 002.5 2.5h15.774a2.5 2.5 0 002.5-2.5V7.953c0-.663-.262-1.299-.732-1.768zM28.317 23.699V2.121h9.444l.004.012c.004.019.539 1.955-.384 5.504a.503.503 0 00.686.591c3.908-1.674 5.92.21 6.021.311V23.7l-15.771-.001z" fill="#fff"/><g fill="#fff"><path d="M72.188 0H47.805c-.67 0-1.214.543-1.214 1.214v20.5c0 .67.543 1.214 1.214 1.214h24.382c.67 0 1.215-.543 1.215-1.214v-20.5A1.217 1.217 0 0072.188 0zm-1.213 20.5H49.018V2.428h21.955V20.5h.002z"/><path d="M51.635 18.345h16.722a.843.843 0 00.816-.625.841.841 0 00-.389-.951l-6.969-4.086a.842.842 0 00-.979.09l-1.704 1.469-3.296-2.833a.849.849 0 00-1.255.171l-3.65 5.447a.847.847 0 00.704 1.318z"/><circle cx="66.574" cy="7.855" r="2.566"/></g><path d="M81.636 11.764c1.446 2.662 3.229 3.222 4.47 3.222 1.238 0 3.021-.559 4.48-3.215l.096-.176c.783-1.42 1.3-2.358 1.3-4.567 0-3.476-.698-7.028-5.876-7.028-5.842 0-5.842 4.747-5.842 7.028 0 2.211.511 3.152 1.284 4.575l.088.161zm16.752 7.924l-6.513-2.917a.758.758 0 00-.598-.007l-3.371 1.418h-3.572l-3.372-1.408a.75.75 0 00-.595.008l-6.521 2.91a.748.748 0 00-.444.685v3.977c0 .414.336.75.75.75H98.08a.75.75 0 00.75-.75v-3.981a.753.753 0 00-.442-.685zm24.629-.799L111.189 8.428a6.35 6.35 0 00.295-1.915 6.29 6.29 0 00-1.854-4.477 6.288 6.288 0 00-4.477-1.854c-.795 0-1.566.151-2.285.43l3.428 3.429v3.616h-3.615L99.255 4.23c-.873 2.266-.402 4.936 1.422 6.76a6.29 6.29 0 004.477 1.854 6.34 6.34 0 001.695-.234s10.42 11.812 10.467 11.859a3.965 3.965 0 002.822 1.17c1.068 0 2.07-.416 2.824-1.17a3.994 3.994 0 00.055-5.58zm-2.863 4.373a1.616 1.616 0 11.002-3.232 1.616 1.616 0 01-.002 3.232z" fill="#fff"/><g fill="#fff"><path d="M150.274-.114h-24.898c-.69 0-1.25.56-1.25 1.25v18.57c0 .689.56 1.25 1.25 1.25h24.898c.689 0 1.25-.561 1.25-1.25V1.136c0-.691-.558-1.25-1.25-1.25zm-1.25 18.57h-22.398V2.386h3.383v2.437h4V2.386h7.632v2.437h4V2.386h3.384l-.001 16.07z"/><path d="M131.344 11.118c.474.871 1.075 1.054 1.495 1.054.419 0 1.02-.183 1.498-1.051l.029-.054c.237-.43.408-.74.408-1.443 0-.622 0-2.274-1.934-2.274-1.924 0-1.924 1.594-1.924 2.274 0 .705.169 1.016.404 1.447l.024.047zm5.162 2.154l-1.923-.861a.317.317 0 00-.256-.004l-.977.412h-1.014l-.977-.408a.316.316 0 00-.254.003l-1.925.858a.323.323 0 00-.19.293v1.174c0 .177.144.32.321.32h7.063a.321.321 0 00.321-.32v-1.176a.317.317 0 00-.189-.291zm3.054-5.353h7.102v1.966h-7.102zm0 4.532h7.102v1.966h-7.102z"/></g><path d="M176.364 10.89h-23.59c-.69 0-1.25-.56-1.25-1.25V1.491c0-.69.56-1.25 1.25-1.25h23.59c.689 0 1.25.56 1.25 1.25V9.64c0 .691-.56 1.25-1.25 1.25zm-22.34-2.5h21.09V2.741h-21.09V8.39zm11.594 13.48c0-.428.044-.844.121-1.25h-11.715v-5.648h21.09v.781a6.764 6.764 0 012.5 1.959v-3.99c0-.69-.561-1.25-1.25-1.25h-23.59c-.69 0-1.25.56-1.25 1.25v8.148c0 .69.56 1.25 1.25 1.25h12.965a6.673 6.673 0 01-.121-1.25z" fill="#fff"/><path d="M172.341 17.112c-2.623 0-4.758 2.135-4.758 4.758s2.135 4.758 4.758 4.758 4.758-2.135 4.758-4.758-2.135-4.758-4.758-4.758zm2.875 5.03a.455.455 0 01-.455.456h-1.692v1.692a.457.457 0 01-.456.457h-.543a.457.457 0 01-.456-.457v-1.692h-1.692a.455.455 0 01-.455-.456V21.6c0-.252.203-.456.455-.456h1.692V19.45c0-.252.204-.455.456-.455h.543c.252 0 .456.203.456.455v1.693h1.692c.252 0 .455.204.455.456v.543z" fill="#fff"/><g fill="#fff"><path d="M190.871-.447c-7.322 0-13.257 5.935-13.257 13.256 0 5.021 2.791 9.388 6.906 11.638V21.47c-2.666-1.959-4.406-5.107-4.406-8.661 0-5.931 4.825-10.756 10.757-10.756 5.931 0 10.755 4.825 10.755 10.756 0 3.556-1.74 6.703-4.406 8.662v2.976c4.115-2.25 6.906-6.617 6.906-11.638 0-7.321-5.934-13.256-13.255-13.256z"/><path d="M191.241 7.726a.5.5 0 00-.738 0l-5.143 5.633a.499.499 0 00.369.838h2.168v10.694a.5.5 0 00.5.5h4.946a.5.5 0 00.5-.5V14.196h2.168a.5.5 0 00.368-.836l-5.138-5.634z"/></g></svg>