<?xml version="1.0" encoding="utf-8"?>
<!-- Generator: Adobe Illustrator 16.2.1, SVG Export Plug-In . SVG Version: 6.00 Build 0)  -->
<!DOCTYPE svg PUBLIC "-//W3C//DTD SVG 1.1//EN" "http://www.w3.org/Graphics/SVG/1.1/DTD/svg11.dtd">
<svg version="1.1" id="Layer_1" xmlns="http://www.w3.org/2000/svg" xmlns:xlink="http://www.w3.org/1999/xlink" x="0px" y="0px"
	 width="32px" height="32px" viewBox="0 0 32 32" enable-background="new 0 0 32 32" xml:space="preserve">
<g>
	<path fill="#B7B7B7" d="M11.52,15.212c1.446,2.662,3.229,3.222,4.47,3.222c1.238,0,3.021-0.559,4.48-3.215l0.096-0.176
		c0.783-1.42,1.3-2.358,1.3-4.567c0-3.476-0.698-7.028-5.876-7.028c-5.842,0-5.842,4.747-5.842,7.028
		c0,2.211,0.511,3.152,1.284,4.575L11.52,15.212z"/>
	<path fill="#B7B7B7" d="M28.271,23.137l-6.514-2.917c-0.189-0.084-0.404-0.087-0.598-0.007l-3.371,1.418h-3.572l-3.372-1.408
		c-0.19-0.08-0.405-0.076-0.595,0.008l-6.521,2.91c-0.271,0.12-0.444,0.39-0.444,0.686v3.977c0,0.414,0.336,0.75,0.75,0.75h23.928
		c0.414,0,0.75-0.336,0.75-0.75V23.82C28.714,23.525,28.54,23.258,28.271,23.137z"/>
</g>
</svg>
