<svg xmlns="http://www.w3.org/2000/svg" viewBox="0 0 512 512"><path d="M478.285 233.765L255.523 38.441 32.776 233.765h-.016v.038c.016 20.602 16.709 37.278 37.31 37.278 20.62 0 37.299-16.677 37.33-37.278 0 20.602 16.711 37.278 37.312 37.278 17.513 0 32.179-12.067 36.168-28.354 4.023 16.286 18.673 28.354 36.201 28.354 20.602 0 37.314-16.677 37.314-37.278.015 20.602 16.708 37.278 37.309 37.278 20.621 0 37.314-16.677 37.314-37.278.017 20.602 16.742 37.278 37.314 37.278 20.616 0 37.312-16.677 37.312-37.278.033 20.602 16.743 37.278 37.331 37.278 20.617 0 37.326-16.677 37.326-37.278v-.038h-.016zm-74.639 49.806c-10.399 7.815-23.317 12.463-37.312 12.463-13.982 0-26.915-4.647-37.314-12.463-10.398 7.815-23.315 12.463-37.314 12.463-13.977 0-26.908-4.647-37.309-12.463-10.401 7.815-23.319 12.463-37.314 12.463a62.252 62.252 0 0 1-36.201-11.581 62.111 62.111 0 0 1-36.168 11.581c-13.996 0-26.911-4.647-37.312-12.463-10.415 7.815-23.348 12.463-37.33 12.463a58.51 58.51 0 0 1-7.258-.46V441.18c0 15.742 60.662 28.986 142.972 32.863 38.391-25.096 49.739-162.546 49.739-162.546s11.365 137.45 49.738 162.546c82.328-3.877 142.988-17.121 142.988-32.863V295.574c-2.387.297-4.805.46-7.273.46-13.983 0-26.901-4.647-37.332-12.463z"/></svg>