<svg xmlns="http://www.w3.org/2000/svg" viewBox="0 0 512 512"><path d="M78.958 143.113c.006-35.215 28.54-63.748 63.751-63.754V104.4c-21.378.035-38.674 17.332-38.714 38.713h.007-25.044zm0 70.448v-51.232h25.036v51.232H78.958zm-.002 66.888v-51.232h25.039v51.232H78.956zm.003 68.307v-51.231h25.035v51.231H78.959zm327.325-135.195v-51.232h25.04v51.232h-25.04zm0 66.888v-51.232h25.038v51.232h-25.038zm.003 68.307v-51.231h25.033v51.231h-25.033zm-109.882 82.262v-25.045h51.233v25.045h-51.233zm-66.888 0v-25.045h51.233v25.045h-51.233zm-68.299 0v-25.045h51.233v25.045h-51.233zm135.187-326.623V79.357h51.237v25.038h-51.237zm-66.888 0V79.357h51.23v25.038h-51.23zm-68.304 0V79.357h51.235v25.038h-51.235zM78.956 366.45h25.042c.036 21.369 17.337 38.669 38.71 38.705v25.039c-35.214-.004-63.745-28.534-63.752-63.744zm287.905 38.707c21.373-.034 38.668-17.33 38.71-38.705h25.035c-.008 35.208-28.53 63.738-63.745 63.746v-25.041zm38.708-262.044c-.04-21.371-17.339-38.678-38.708-38.713V79.359c35.214.006 63.737 28.539 63.745 63.754h-25.037z"/></svg>