<svg xmlns="http://www.w3.org/2000/svg" viewBox="0 0 512 512"><path d="M451.941 170.788c0-11.111-9.008-20.118-20.119-20.118H80.176c-11.107 0-20.117 9.007-20.117 20.118v136.168h391.883V170.788zm-249.41 93.418H98.736v-23.678h103.795v23.678zm0-49.504H98.736v-23.68h103.795v23.68zm94.026 75.246c-34.371 0-62.332-27.964-62.332-62.332 0-34.37 27.961-62.335 62.332-62.335s62.334 27.965 62.334 62.335c0 34.368-27.963 62.332-62.334 62.332zm105.996-81.185c-9.877 0-17.889-8.011-17.889-17.89 0-9.878 8.012-17.888 17.889-17.888 9.879 0 17.889 8.01 17.889 17.888-.001 9.879-8.01 17.89-17.889 17.89zM78.559 330.635h62.576v30.695H78.559zm292.3 0h62.578v30.695h-62.578zm-74.302-143.797c-22.518 0-40.775 18.256-40.775 40.778 0 22.52 18.258 40.774 40.775 40.774 22.523 0 40.777-18.255 40.777-40.774 0-22.522-18.254-40.778-40.777-40.778z"/></svg>