<svg xmlns="http://www.w3.org/2000/svg" viewBox="0 0 512 512"><path d="M438.488 403.4c-19.689-19.678-53.045-28.459-81.495-37.354-37.508-11.723-51.833-39.521-56.115-67.105a238.99 238.99 0 0 0 12.003-14.813c24.59 7.862 54.055 10.161 79.3-8.134-34.762-34.764-6.866-77.386-31.95-154.179-21.352-65.292-108.83-62.08-120.112-39.138-46.402-16.392-81.396 5.549-94.277 74.71-14.814 79.438 13.896 87.825-20.866 122.575 26.684 15.252 51.146 11.523 72.368 3.094 4.187 5.634 8.536 11.052 13.019 16.139-4.32 27.492-18.706 55.161-56.054 66.852-28.48 8.895-61.804 17.676-81.493 37.354C57.286 418.96 67.62 456.1 67.62 456.1h376.034c-.002 0 10.366-37.141-5.166-52.7z"/></svg>