<svg xmlns="http://www.w3.org/2000/svg" viewBox="0 0 512 512"><path d="M162.516 260.2c-13.168 11.313-30.136 17.754-47.857 17.754-2.214 0-4.401-.115-6.565-.308l49.285 153.853h46.846L180.2 271.432a73.64 73.64 0 0 1-17.684-11.232zm191.431 0a73.538 73.538 0 0 1-17.687 11.232l-24.02 160.066h46.842l49.287-153.852a74.157 74.157 0 0 1-6.563.307c-17.722.001-34.69-6.44-47.859-17.753zm-95.715.002c-13.168 11.311-30.136 17.751-47.858 17.751-.154 0-.308-.009-.463-.009l23.046 153.554h50.549l23.046-153.554c-.154 0-.308.009-.462.009-17.723.001-34.692-6.44-47.858-17.751zM403.906 145.96c-.502 0-.997.022-1.496.034-27.494-17.892-66.256-31.892-111.045-36.644-2.267-16.292-16.213-28.848-33.131-28.848S227.366 93.058 225.1 109.35c-44.993 4.774-83.91 18.877-111.427 36.888a56.174 56.174 0 0 0-5.579-.278c-29.591 0-53.574 23.066-53.574 51.516 0 28.452 26.084 51.372 55.675 51.372l.213-.212c1.399.133 2.816.212 4.251.212 14.276 0 27.738-6.92 36.011-18.513l11.845-16.6 11.848 16.599c8.274 11.593 21.737 18.513 36.013 18.513 14.279 0 27.741-6.92 36.012-18.511l11.847-16.606 11.847 16.606c8.27 11.591 21.731 18.511 36.011 18.511 14.276 0 27.739-6.92 36.011-18.513l11.847-16.602 11.847 16.601c8.273 11.593 21.735 18.513 36.012 18.513 29.591 0 55.675-22.92 55.675-51.372-.005-28.448-23.988-51.514-53.579-51.514z"/></svg>