<svg xmlns="http://www.w3.org/2000/svg" viewBox="0 0 512 512"><path d="M169.763 308.701v12.949h19.523l1.93 3.961v6.273h-21.453v12.956h21.453v18.815h20.734V344.84h21.516v-12.956H211.95v-6.273l2.027-3.961h19.489v-12.949h-12.952l21.127-42.412h-22.106l-17.562 42.412-18.017-42.412H161.88l20.863 42.412h-12.98zm-25.638-199.513v25.883h303.146v160.126h28.483V109.188H144.125zM90.43 188.785h303.111V348.89h28.484V162.887H90.43v25.898zm-53.402 213.92h331.595V216.679H37.028v186.026zm165.795-167.922c32.018 0 57.95 33.057 57.95 73.87 0 40.796-25.933 73.856-57.95 73.856-31.981 0-57.915-33.061-57.915-73.856 0-40.813 25.934-73.87 57.915-73.87z"/></svg>