<svg xmlns="http://www.w3.org/2000/svg" viewBox="0 0 512 512"><path d="M420.978 345.57l41.739-122.963c-12.798 7.178-34.541 13.598-59.603 13.598-51.385 0-116.679-27.018-147.117-129.91-32.317 102.707-97.312 129.742-148.184 129.742-24.555 0-45.824-6.299-58.531-13.43L88.79 345.57c30.149-36.213 98.121-54.316 166.095-54.316s135.948 18.107 166.093 54.316zm-22.369 18.623c-5.313-6.383-12.768-12.25-21.913-17.482-25.203 18.244-71.348 29.891-121.816 29.891-50.469 0-96.596-11.65-121.799-29.896-9.149 5.236-16.607 11.105-21.922 17.488l-1.147 1.377c31.771 26.748 88.296 40.135 144.869 40.135 56.562 0 113.104-13.393 144.873-40.137l-1.145-1.376z"/></svg>