<svg xmlns="http://www.w3.org/2000/svg" viewBox="0 0 512 512"><path d="M60.328 426.793h391.343v29.109H60.328zm402.081-241.854c-.042-8.307-70.976-128.842-70.976-128.842H120.567s-71.042 120.58-71.042 128.992c0 16.285 13.205 29.492 29.493 29.492 16.288 0 29.493-13.207 29.493-29.492 0 16.285 13.204 29.492 29.492 29.492 16.286 0 29.492-13.207 29.492-29.492 0 16.285 13.204 29.492 29.491 29.492 16.289 0 29.493-13.207 29.493-29.492 0 16.285 13.203 29.492 29.492 29.492s29.493-13.207 29.493-29.492c0 16.285 13.204 29.492 29.492 29.492 16.287 0 29.493-13.207 29.493-29.492 0 16.285 13.204 29.492 29.492 29.492s29.492-13.207 29.492-29.492c0 16.285 13.204 29.492 29.493 29.492 16.288 0 29.492-13.207 29.492-29.492h.058l-.067-.15zm-29.52 210.235V238.258a52.872 52.872 0 0 1-29.457-8.943c-8.445 5.65-18.591 8.945-29.492 8.945s-21.047-3.295-29.492-8.945a52.866 52.866 0 0 1-29.493 8.945 52.865 52.865 0 0 1-29.492-8.945c-8.445 5.65-18.591 8.945-29.493 8.945s-21.047-3.295-29.492-8.945c-8.446 5.65-18.591 8.945-29.493 8.945s-21.046-3.295-29.491-8.945c-8.445 5.65-18.59 8.945-29.492 8.945s-21.047-3.295-29.492-8.945a52.861 52.861 0 0 1-29.4 8.943v156.916h213.294V270.643h94.716v124.531h45.769zM249.044 350.65H122.978v-80.508h126.066v80.508z"/></svg>