<svg xmlns="http://www.w3.org/2000/svg" viewBox="0 0 512 512"><path d="M214.738 142.071c-10.892 10.9-16.312 25.036-16.321 39.271.021 14.382 5.4 28.608 16.33 39.547 10.911 10.904 25.097 16.308 39.406 16.322 14.304-.015 28.486-5.418 39.401-16.322 10.916-10.92 16.316-25.106 16.326-39.41-.01-14.309-5.41-28.489-16.326-39.407-10.92-10.912-25.098-16.312-39.401-16.328-14.309.015-28.495 5.415-39.415 16.327zm-85.043 99.021c-16.768-16.752-25.22-38.886-25.198-60.834-.022-21.954 8.43-44.086 25.198-60.834 7.336-7.336 19.227-7.336 26.561 0 7.33 7.336 7.33 19.228-.005 26.562-9.497 9.508-14.176 21.8-14.193 34.271.017 12.473 4.692 24.762 14.193 34.279h.005c7.33 7.334 7.33 19.224-.005 26.555a18.723 18.723 0 0 1-13.282 5.5 18.703 18.703 0 0 1-13.274-5.499zm225.897.006c-7.335-7.337-7.34-19.223-.005-26.559 9.503-9.527 14.181-21.818 14.198-34.283-.018-12.47-4.695-24.762-14.193-34.273v.004c-7.335-7.335-7.335-19.225 0-26.559 7.332-7.336 19.221-7.336 26.556 0 16.765 16.744 25.219 38.88 25.199 60.828a85.905 85.905 0 0 1-25.193 60.832 18.71 18.71 0 0 1-13.284 5.504 18.745 18.745 0 0 1-13.278-5.494zM69.571 278.562c-27.111-27.101-40.733-62.79-40.717-98.304-.017-35.522 13.605-71.215 40.725-98.301 7.337-7.334 19.223-7.334 26.558 0 7.331 7.336 7.327 19.225-.005 26.562-19.845 19.843-29.692 45.7-29.717 71.739.025 26.027 9.872 51.881 29.717 71.754h.005c7.331 7.327 7.331 19.221-.005 26.558a18.734 18.734 0 0 1-13.279 5.496 18.734 18.734 0 0 1-13.282-5.504zm346.14.007c-7.338-7.337-7.338-19.225-.009-26.56 19.854-19.863 29.706-45.725 29.722-71.746-.016-26.034-9.867-51.895-29.713-71.757v.012c-7.338-7.337-7.338-19.226 0-26.562 7.331-7.334 19.221-7.334 26.557 0 27.107 27.095 40.742 62.792 40.718 98.307.024 35.514-13.61 71.201-40.71 98.306a18.732 18.732 0 0 1-13.282 5.502 18.728 18.728 0 0 1-13.283-5.502zm-161.494-15.038h-.068a83.08 83.08 0 0 1-23.353-3.335v177.368h46.705v-177.37a83.082 83.082 0 0 1-23.284 3.337z"/></svg>