<svg xmlns="http://www.w3.org/2000/svg" viewBox="0 0 512 512"><path d="M415.495 215.279l-22.299-13.428a23.68 23.68 0 0 0-12.214-3.393H345.86v-36.66l4.07-12.242a23.644 23.644 0 0 0 1.213-7.473V117.63c0-13.078-10.602-23.678-23.68-23.678h-28.316a23.68 23.68 0 0 0-21.312 13.355c-.328.676-32.99 68.129-48.221 101.205-7.062 15.334-30.904 22.451-41.861 24.57-1.264-5.178-5.9-9.041-11.469-9.041H96.88c-6.535 0-11.838 5.301-11.838 11.84v40.783h103.08v-19.65c8.408-1.26 49.291-8.828 63-38.602 15.311-33.248 48.025-100.783 48.025-100.783h28.316v24.453l-5.283 15.877v64.178h58.802l22.296 13.424v133.973l-30.277 24.834H271.415l-31.234-23.648h-52.059v-70.375H85.042v90.252c0 6.537 5.303 11.84 11.838 11.84h79.404c5.197 0 9.568-3.375 11.158-8.037h44.787l24.895 18.846a23.674 23.674 0 0 0 14.291 4.801h101.586a23.679 23.679 0 0 0 15.017-5.371l30.278-24.832a23.682 23.682 0 0 0 8.662-18.309V235.562c0-8.3-4.35-16-11.463-20.283z"/></svg>