<svg xmlns="http://www.w3.org/2000/svg" viewBox="0 0 512 512"><path d="M243.47 64.86l-7.335-7.333H36.725V474.23h298.07V156.187l-7.332-7.335L243.47 64.86zm66.287 384.329H61.761V82.566h141.615c37.203 0 19.276 88.18 19.276 88.18s86-20.9 87.104 18.53v259.913zm157.051-330.866l-81.266-81.268H258.938l25.043 25.038h71.481c.063 0 .12.01.185.01-.006.286-.023.547-.023.837 11.174 0 16.69 9.045 19.118 20.95 4.358 22.959-2.312 55.826-2.312 55.826s.137-.031.341-.082c-.114.602-.181.933-.181.933s67.129-16.325 75.793 10.732c.077.294.161.585.225.887.083.302.14.612.207.921.154.928.26 1.889.287 2.904v228.807h-87.998l.002 25.037h113.037V125.66l-7.335-7.337z"/></svg>