<svg xmlns="http://www.w3.org/2000/svg" viewBox="0 0 512 512"><path d="M39.439 383.234h246.538V155.498H39.439v227.736zm0 53.271c0 13.377 10.826 24.166 24.166 24.166h198.206c13.342 0 24.166-10.789 24.166-24.166v-22.6H39.439v22.6zM261.811 76.689h-50.066V50.395h-98.073V76.69H63.605c-13.34 0-24.166 10.787-24.166 24.165v24.02h246.538v-24.02c0-13.378-10.825-24.166-24.166-24.166zm52.255 52.747v283.95H473.34v-283.95H314.066zm60.94 263.898h-34.009v-33.971h34.009v33.971zm0-209.841h-34.009v-34.047h34.009v34.047zm69.64 209.841h-34.01v-33.971h34.01v33.971zm0-209.841h-34.01v-34.047h34.01v34.047z"/></svg>