<svg xmlns="http://www.w3.org/2000/svg" viewBox="0 0 512 512"><path d="M167.359 312.063h-5.444l-4.233 9.843h10.496c1.912 11.905 6.048 21.195 12.411 27.795 7.012 7.395 16.219 11.055 27.681 11.055 7.913 0 14.913-1.764 20.995-5.3l.147-20.599c-7.195 5.724-14.177 8.604-21.011 8.604-10.529 0-17.266-7.197-20.177-21.555h23.727l4.231-9.843h-29.038l.132-5.718h30.543l4.217-9.813h-33.257c3.173-12.458 9.532-18.671 19.082-18.671 5.544 0 11.496 2.057 17.873 6.109l8.304-17c-8.927-4.582-17.167-6.867-24.818-6.867-10.812 0-19.819 3.463-27.013 10.365-6.803 6.376-11.315 15.072-13.491 26.063h-6.947l-4.22 9.813h9.942c-.097.193-.131.912-.131 2.223v3.496zm-23.201-202.944v25.864h303.129v160.144h28.449V109.119H144.158zm-53.714 79.595h303.112V348.85h28.484V162.783H90.444v25.931zM37.043 402.619h331.596V216.61H37.043v186.009zm165.799-167.928c31.999 0 57.963 33.066 57.963 73.877 0 40.775-25.964 73.869-57.963 73.869-32.016 0-57.949-33.094-57.949-73.869 0-40.81 25.933-73.877 57.949-73.877z"/></svg>